<?xml version="1.0" encoding="UTF-8"?>
<svg id="Layer_1" data-name="Layer 1" xmlns="http://www.w3.org/2000/svg" viewBox="0 0 539 249">
  <defs>
    <style>
      .cls-1 {
        fill: #fff;
      }
    </style>
  </defs>
  <g>
    <path class="cls-1" d="m277.12,228.91h19.2v6.39h-19.2v12.79h-6.39v-51.19h25.59v6.41h-19.2v25.59Zm19.2,0v-25.59h6.39v25.59h-6.39Z"/>
    <path class="cls-1" d="m310.72,228.92v-12.81h6.39v12.81h-6.39Zm6.4-32.03h-6.39v-6.32h6.38v-6.37h19.2v6.38h6.39v6.32h-6.39v-6.31h-19.19v6.3Zm0,6.43v-6.41h19.2v6.41h-19.2Zm25.59,0v31.99h-25.59v-6.39h19.2v-12.81h-19.2v-6.39h19.2v-6.39h6.39Z"/>
    <path class="cls-1" d="m374.64,203.32h6.39v6.39h-6.39v25.59h-6.39v-38.4h6.39v6.41Zm6.39,0v-6.41h12.81v6.41h-12.81Zm12.81,31.99v-31.99h6.39v31.99h-6.39Z"/>
    <path class="cls-1" d="m408.24,228.91v-12.81h6.39v12.81h-6.39Zm6.31-35.67v-6.37h6.36v6.37h-6.36Zm.08,10.07v-6.41h19.2v6.41h-19.2Zm25.59,0v31.99h-25.59v-6.39h19.2v-12.81h-19.2v-6.39h19.2v-6.39h6.39Zm-12.86-10.07v-6.37h6.36v6.37h-6.36Z"/>
    <path class="cls-1" d="m454.64,203.32v25.59h-6.39v-44.79h6.39v12.79h6.39v6.41h-6.39Zm0,31.99v-6.4h6.39v6.4h-6.39Z"/>
    <path class="cls-1" d="m475.44,216.11v12.81h-6.39v-25.59h6.39v6.39h19.2v-6.39h6.39v12.79h-25.59Zm0-12.79v-6.41h19.2v6.41h-19.2Zm0,31.99v-6.4h19.2v6.4h-19.2Zm19.2-6.4v-6.39h6.39v6.39h-6.39Z"/>
    <path class="cls-1" d="m515.44,203.32v25.59h-6.39v-44.79h6.39v12.79h6.39v6.41h-6.39Zm0,31.99v-6.4h6.39v6.4h-6.39Z"/>
    <path class="cls-1" d="m529.84,235.31v-6.39h6.39v6.39h-6.39Z"/>
  </g>
  <path class="cls-1" d="m74.65,174.87h45.28l-.32-29.82v-53.67c0-8.59-4.01-16.06-12.02-22.42-8.01-6.36-17.49-9.54-28.43-9.54-12.64,0-21.15,2.27-25.54,6.8-4.39,4.53-7.44,9.03-9.13,13.48v-17.89H.63l.16,26.24v57.01l-.16,29.82h45.13l-.35-29.82v-61.07c1.38-3.66,3.17-7.24,5.39-10.74,2.22-3.5,6-5.25,11.36-5.25,8.41,0,12.61,6.2,12.61,18.61l.23,9.78v48.66l-.35,29.82Z"/>
  <path class="cls-1" d="m159.41,25.97c0-3.34,1.41-6.31,4.24-8.88,2.83-2.58,6.23-3.86,10.19-3.86s7.29,1.22,9.98,3.66c2.68,2.45,4.03,5.48,4.03,9.08,0,3.86-1.27,7.02-3.82,9.46-2.55,2.45-5.94,3.67-10.19,3.67-3.96,0-7.36-1.28-10.19-3.86-2.83-2.57-4.24-5.66-4.24-9.27Z"/>
  <path class="cls-1" d="m207.38,25.97c0-3.34,1.41-6.31,4.24-8.88,2.83-2.58,6.16-3.86,9.98-3.86s7.32,1.25,10.08,3.76,4.14,5.51,4.14,8.98c0,3.86-1.35,7.02-4.04,9.46-2.69,2.45-6.08,3.67-10.18,3.67-3.82,0-7.15-1.28-9.98-3.86-2.83-2.57-4.24-5.66-4.24-9.27Z"/>
  <path class="cls-1" d="m249.98,89.71v54.87c0,2.24-.03,30.29-.03,30.29h-44.79l-.02-66.96-.69-.24c-1.37,1.91-3.92,3.7-7.66,5.37-3.73,1.67-6.32,3.3-7.77,4.89-1.45,1.59-2.59,4.66-3.43,9.19-.84,4.53-1.26,9.18-1.26,13.95,0,7.16.53,12.89,1.6,17.19,1.07,4.29,3.51,6.44,7.32,6.44,2.89,0,5.45-1.2,7.66-3.58,1.06-1.15,1.94-2.34,2.63-3.57,0,0-1.44,8.74-8,12.33-5.81,3.18-13.29,4.84-22.53,4.84-9.87,0-17.88-2.79-24.04-8.37-6.17-5.57-9.25-13.31-9.25-23.19,0-7.96,1.92-14.38,5.78-19.24,3.85-4.86,7.78-7.85,11.79-8.96,4-1.12,10.17-2.08,18.49-2.87,8.32-.8,14.45-1.72,18.38-2.75,3.93-1.04,6.74-2.15,8.44-3.35,1.69-1.19,2.54-3.22,2.54-6.09l-.23-21.76c0-6.21-.77-10.67-2.29-13.38-1.53-2.71-4.73-4.07-9.61-4.07-3.05,0-5.61.72-7.67,2.16s-3.09,3.28-3.09,5.51c0,1.76,1.64,3.96,4.93,6.59,3.28,2.64,4.93,6.6,4.93,11.87,0,4.95-2.13,9.35-6.38,13.18-4.25,3.84-11.17,5.75-20.75,5.75-5.26,0-9.86-1.47-13.8-4.43-3.94-2.95-5.91-6.91-5.91-11.86,0-9.9,5.36-17.81,16.1-23.72,10.73-5.91,23.51-8.87,38.34-8.87,12.51,0,24.01,2.68,34.52,8.03,10.5,5.36,15.75,13.62,15.75,24.81Z"/>
  <path class="cls-1" d="m383.23,76.7c4.56,4.85,6.83,10.54,6.83,17.06,0,5.88-1.78,10.61-5.34,14.19-3.56,3.58-8.83,5.37-15.8,5.37-6.04,0-11.51-2.19-16.38-6.56-4.88-4.38-7.32-9.34-7.32-14.91,0-4.3.84-8.43,2.54-12.41,1.7-3.97,2.54-7.31,2.54-10.01,0-2.55-.92-4.62-2.77-6.21-1.85-1.58-4.47-2.38-7.86-2.38-4.32,0-7.94,1.75-10.86,5.25-2.93,3.49-5.21,7.79-6.82,12.88-1.62,5.09-2.78,10.61-3.47,16.58-.7,5.96-1.04,11.73-1.04,17.29,0,14.47,2.35,27.07,7.07,37.81,4.71,10.73,13.05,16.82,24.93,16.1,15.21-.92,26.18-9.76,26.85-10.31-12.46,14.64-31.67,18.57-42.32,18.42-17.6-.24-32.58-5.37-44.93-16.1-12.35-10.73-18.53-24.93-18.53-42.58s6.06-32.12,18.18-42.94c12.12-10.81,27.22-16.22,45.28-16.22,6.79,0,13.05.76,18.76,2.27,5.72,1.51,11.08,3.58,16.1,6.2s9.81,6.36,14.36,11.21Z"/>
  <path class="cls-1" d="m538.37,174.73l-51.52.13-9.03-15.78c-2.07-3.65-5.24-8.96-9.52-15.95-4.28-6.98-8.41-13.64-12.39-19.99l-4.36,4.76.82,46.9h-46.11l.18-173.9h45.11l-.46,122.96c8.13-8.57,16.25-17.22,24.38-25.95,8.13-8.72,34.08-36.43,34.08-36.43l5.62-.15-27.79,29.2c7.56,12.7,15.26,25.59,23.12,38.68,7.86,13.09,13.6,22.45,17.22,28.08,3.62,5.64,10.65,17.44,10.65,17.44Z"/>
</svg>