<?xml version="1.0" encoding="UTF-8"?>
<svg id="Layer_1" data-name="Layer 1" xmlns="http://www.w3.org/2000/svg" viewBox="0 0 582 500">
  <defs>
    <style>
      .cls-1 {
        fill: #000;
      }
    </style>
  </defs>
  <path class="cls-1" d="m570.54,216.84c.02-2.08-.38-4.66-.37-6.74.12-4.61-.25-9.21-.64-13.79-.37-4.26-.97-8.5-1.6-12.72-.48-3.13-1.05-6.25-1.8-9.32-.81-3.39-1.52-6.79-2.77-10.08-.76-2-1.37-4.1-2.04-6.13-.81-2.5-2.07-4.86-3.16-7.26-2.26-5.03-5.71-9.21-9.26-13.35-1.22-1.44-2.44-2.87-3.78-4.19-.71-.69-1.51-1.2-2.46-1.48-2.11-.38-4.22.16-6.35,0-.46.02-1.02-.13-1.26.45-.21.55.29.79.6,1.06,2.45,2.04,4.21,4.68,6.14,7.15,3.48,4.46,5.62,9.63,7.63,14.83,1.76,4.56,2.9,9.32,4.18,14.04,1.21,4.54,2.28,9.09,3.05,13.69.52,3.02.97,6.06,1.43,9.1.87,5.95,1.36,11.94,1.39,17.93.04,8.34.46,16.69-.42,25.02-.26,2.47-.21,4.98-.59,7.44-.45,2.97-.63,5.97-1.16,8.93-.42,2.32-.58,4.75-.94,7.13-1.02,6.63-2.09,13.26-3.08,19.89-.14.91-.45,1.28-1.34,1.12-.93-.18-.82-.88-.75-1.55.31-2.91.65-5.83.94-8.74.96-9.82,2.19-19.62,2.88-29.46.38-5.22.63-10.44.76-15.66.17-7.17.02-14.33-.43-21.48-.3-4.78-.98-9.52-1.55-14.27-.32-2.64-.75-5.25-1.29-7.84-.88-4.16-1.66-8.32-2.94-12.38-1.06-3.34-2.1-6.66-3.23-9.97-1.74-5.08-4.05-9.86-7.22-14.19-1.88-2.57-3.42-5.38-5.7-7.64-.9-.89-3.24-1.27-4.25-.6-1.16.75-2.37,1.51-3.35,2.47-5.65,5.48-11.23,11.02-16.85,16.52-1.25,1.22-2.53,2.42-3.79,3.62-3.72,3.59-7.51,7.1-11.39,10.5-1.64,1.44-3.1,3.06-4.77,4.43-2.81,2.31-5.64,4.61-8.53,6.84-4.34,3.34-8.84,6.43-13.54,9.21-2.95,1.74-6.09,3.15-9.16,4.69-2.45,1.21-4.95,2.32-7.53,3.24-8.38,3.01-16.98,5.29-25.63,7.36-5.33,1.29-10.72,2.32-16.1,3.39-4.92.97-9.88,1.64-14.82,2.42-1.73.27-3.54.26-5.19.63-2.98.67-6.04.43-8.95,1.22-1.22.34-2.38-.08-3.58.13-1.97.35-3.99.44-5.99.6-.73.05-1.41-.38-2.2-.21-1.1.24-2.23.42-3.35.46-4.17.15-8.35.21-12.52.37-.96.03-1.91-.11-2.85-.03-1.73.14-1.72.23-1.73-1.47,0-.61-.01-1.24.01-1.85.11-4.58-.32-9.19.25-13.76.73-5.76,4.11-9.75,8.84-12.78,2.15-1.38,4.7-1.63,7.06-2.41,1.49-.51,2.4-1.54,2.61-3.1.19-1.41-.08-2.8-.43-4.16-.16-.62-.58-1.1-1.25-.83-1.69.7-3.53.55-5.27.99-4.79,1.21-9.04,3.43-12.48,6.95-4.91,5.04-7.01,11.22-7,18.21,0,4.35.03,8.7.19,13.05-.03.12-.06.23-.09.34-.29.31-.65.22-.99.22-8.06.01-16.1-.01-24.15.03-.91.01-1.1-.45-1.3-1.11-1.51-5-3-10.01-4.58-14.99-.37-1.16-.01-1.41,1.03-1.63,2.8-.58,5.56-1.26,8.34-1.93,4.11-.99,5.44-2.87,5.45-7.25.01-1.57.06-3.15-.21-4.72-.16-.89-1.09-2.8-1.89-2.9-1.52-.22-2.64-1.36-4.39-1.32-1.75.04-3.54-.8-5.42-.95-2.79-.23-5.56-.69-8.36-.65-2.43.03-4.86.2-7.27.46-4.17.48-8.38.86-12.17,2.97-.84.46-1.6,1.05-1.65,2.02-.03.99.92,1.29,1.67,1.65,4.49,2.21,9.34,2.84,14.22,3.13,3.77.23,7.57.04,11.35.04h2.53c-.65.96-1.5.9-2.09,1.31-2.56,1.81-5.47,2.27-8.54,2.42-4.6.21-9.06-.87-13.59-1.3-1.33-.13-2.69-.27-4.03.16-.42.14-.69.31-.46.71.84,1.52,1.62,3.14,3.37,3.86,2.68,1.12,5.56,1.5,8.37,2.14,1.73.39,1.79.4,1.32,2.04-1.43,4.92-2.89,9.83-4.29,14.76-.24.87-.65,1.09-1.48,1.09-7.57-.02-15.13-.02-22.7.01-1.06,0-1.66-.46-1.94-1.4-1.21-4-2.69-7.9-4.13-11.81-1.19-3.26-.64-4.18,2.76-5.03,3.06-.77,6.19-1.3,9.07-2.7,1.39-.68,2.21-1.78,2.52-3.29.48-2.27-.13-4.49-.34-6.73-.06-.72-.22-1.41-.84-2.05-2.37-2.37-5.54-3.02-8.51-3.55-3.54-.62-7.19-1.14-10.84-.92-3.1.18-6.21.34-9.3.74-4.1.52-8.13,1.1-11.46,3.9-.89.74-.98,1.11.04,1.69,2.39,1.33,5.05,1.91,7.64,2.62,2.73.75,5.55.94,8.38,1.19,4.23.38,8.45-.08,12.67-.1.35,0,.62.06.77.37.14.31-.11.49-.35.61-2.51,1.36-5.08,2.79-7.98,2.9-4.22.18-8.45.04-12.63-.86-2.33-.5-4.74-.97-7.16,0-.73.29-.83.55-.49,1.02.95,1.31,1.91,2.61,3.55,3.21,2.81,1.03,5.72,1.69,8.59,2.48,1.08.3,1.46.79,1.12,1.9-1.47,4.84-2.9,9.67-4.32,14.52-.29.97-.8,1.29-1.81,1.28-7.34-.04-14.69-.04-22.04,0-1.1.01-1.54-.37-1.82-1.37-1.37-5-2.78-9.99-4.23-14.95-.29-.96-.02-1.22.88-1.39,3.2-.58,6.37-1.33,9.44-2.35,2.86-.95,4.5-2.13,4.28-5.7-.08-1.34-.15-2.69-.32-4.03-.17-1.38-.92-2.48-1.76-3.56-1-1.27-2.45-2.25-3.79-2.43-2.51-.33-4.95-1.05-7.51-1.25-3.93-.31-7.82-.58-11.77-.23-3.76.33-7.48.91-11.16,1.68-1.6.34-2.95,1.3-4.27,2.19-1.26.84-1.17,2.08.07,2.72,3.58,1.85,7.44,2.81,11.42,3.17,5.4.49,10.8.35,16.21.3.14,0,.26,0,.4.01.22.02.46.05.52.31.06.24-.11.39-.3.53-1.44.97-2.79,1.92-4.71,1.85-5.1-.2-10.2-.21-15.29-.31-.61-.01-1.22-.13-1.82-.16-1.96-.13-3.95-.26-5.9.16-.51.12-.83.26-.58.88.62,1.49,1.37,2.81,3.04,3.43,2.64.99,5.36,1.66,8.11,2.27,2.13.48,3.09,1.88,2.46,3.98-1.38,4.54-3.29,8.89-4.93,13.34-.37.98-.91,1.22-1.87,1.22-9.72-.03-19.44-.02-29.16-.02-38.01,0-76.01-.02-114.02.04-3.21,0-5.31-1.06-6.89-3.97-3.37-6.22-8.66-10.17-15.55-11.88-3.94-.98-3.05-.18-3.64-4.06-.1-.6-.29-.99-.96-.99-4.31,0-8.62-.01-12.92-.01-.68,0-.95.34-.93.98.01.67-.01,1.32-.01,1.98,0,17.37,0,34.75.01,52.12,0,.83-.37,1.86.14,2.44.6.7,1.63.23,2.46.03.04-.01.09-.01.14,0,2.73.55,5.51.13,8.27.24,1.47.05,3.17.49,3.71-1.65.02-.11.16-.2.26-.29,1.71-1.29,3.34-2.69,5.42-3.44,6.19-2.24,11.02-6.05,14.01-12.05.9-1.81,2.34-3.01,4.43-3.32,1.48-.21,2.96-.35,4.46-.39,4.1-.12,8.16.39,12.26.38,23.75-.07,47.5-.07,71.26-.07.54,0,1.29-.31,1.56.33.23.55-.34,1.06-.7,1.47-1.75,2.05-3.25,4.3-4.83,6.47-3.1,4.28-6.05,8.65-7.99,13.69-3.81,9.9-5.49,20.03-4.18,30.59,1.2,9.66,4.48,18.59,10.07,26.58,2.65,3.77,5.45,7.37,8.99,10.5,8.24,7.26,17.59,12.07,28.25,14.49,3.02.69,6.09,1.25,9.15,1.36,5.93.23,11.88.1,17.81.08,1.63,0,1.88.2,1.94,1.86.03.71,0,1.41.01,2.11.13,6.77-.26,13.55.24,20.3.32,4.16,2.72,7.79,6.09,8.95.09.02.19.03.29.05.14.03.27.07.41.11,1.96.53,3.95.48,5.94.17,2.97-.5,4.62-2.49,5.75-5.06.64-1.47.99-3.02,1.01-4.6.04-5.35.54-10.7.29-16.05-.09-1.92-.18-3.84-.3-5.76-.07-1.17.42-1.69,1.52-1.87,2.31-.36,4.66-.26,6.97-.13,4.66.27,9.31-.25,13.96-.04.61.03,1.24.05,1.85.07.11.04.22.07.33.11,2.13.67,2.64,1.27,2.65,3.46.03,6.29,0,12.58.04,18.86,0,1.22.07,2.47.31,3.66.68,3.47,2.65,5.95,5.92,7.35,2.22.12,4.43.39,6.65-.03,4.18-1.25,6.47-4.34,6.57-9.09.12-6.1.16-12.21.19-18.31.01-1.66-.09-3.33-.18-4.99-.03-.68.21-.93.91-.92,8.83.04,17.65.07,26.48.11.31.03.32.24.31.48.03,7.63.01,15.28.11,22.91.03,1.92.41,3.82,1.28,5.62,1.06,2.19,2.69,3.57,5.08,3.82,2.54.27,5.08.25,7.57-.55,2.7-.88,3.92-3,4.65-5.46.8-2.72,1.18-5.52,1.15-8.39-.05-5.75.02-11.52-.04-17.28-.01-1.08.43-1.39,1.33-1.43.74-.03,1.49.01,2.24.01,23.8,0,47.6-.01,71.4-.02.11.06.21.12.32.18,3.01-.35,6.07-.48,9.03-1.09,4.95-1.01,9.79-2.44,14.41-4.56,3-1.36,5.89-2.96,8.55-4.8,4.27-2.99,8.18-6.46,11.64-10.42,2.33-2.68,4.56-5.49,6.29-8.55,3.06-5.43,5.47-11.17,6.81-17.33,1.11-5.13,1.73-10.29,1.62-15.54-.24-9.83-2.79-19.04-7.34-27.73-.36-.7-.71-1.41-1.03-2.13-.12-.25-.41-.56-.18-.83.22-.24.58-.09.89-.03,3.45.69,6.77,1.83,10.08,3,10.9,3.86,20.85,9.48,30.14,16.3,9.42,6.91,18.46,14.3,27.03,22.24,3.25,3.02,6.54,6.02,9.64,9.18,3.58,3.62,7,7.41,10.46,11.15,2.49,2.69,5.1,5.26,8.65,6.5,2.15.75,4.32,1.24,6.72.71,5.09-1.13,8.26-4.46,10.8-8.65,7.46-12.29,12.63-25.46,15.25-39.6,1.15-6.23,2.22-12.47,2.69-18.8.17-2.29.11-4.56.23-6.83-.01-1.74.03-3.47-.05-5.21-.04-.87.46-8.98.46-10.03v-3.17c0-2.11-.01-1.39,0-2.11Zm-530.75,4.32c-1.48-.14-1.81-1.45-2.09-2.65-1.52-6.46-6.02-9.97-11.95-12-1.18-.4-2.12-1.03-2.87-1.98-.18-.23-.51-.5-.26-.79.12-.16.46-.16.72-.17,3.25-.14,6.25.74,9.04,2.37,2.88,1.68,5.43,3.73,7.17,6.64,1.01,1.69,1.69,3.46,1.67,5.87.02,1.63-.43,2.81-1.41,2.72Zm158.48,85.7h-.05c0,3.39.01,6.77,0,10.16-.01.36.19.84-.34,1.01-.37.13-.65-.1-.95-.32-2.72-1.92-4.85-4.3-5.85-7.57-.16-.53-.16-1.01-.21-1.52-.53-4.85,1.24-8.71,5.04-11.69.61-.48.98-1.68,1.95-1.19.86.43.38,1.51.39,2.28.06,2.95.02,5.89.02,8.84Zm.22-51.36v20.72c0,2.41-.02,2.31-2.31,3.06-3.28,1.07-6.32,2.66-9.21,4.59-1.93,1.3-3.52,2.96-5.05,4.59-2.34,2.49-3.98,5.48-5.13,8.77-1.41,4.03-1.73,8.19-1.58,12.35.08,2.6.89,5.16,1.44,7.73.34,1.6.21,1.78-1.34,1.56-7.25-1.09-13.84-3.77-19.82-8.05-4.53-3.24-8.09-7.27-10.94-11.99-3.62-6-6.34-12.36-7.08-19.36-.6-5.61-.41-11.21,1.3-16.69,1.92-6.19,4.95-11.74,8.96-16.79,2.86-3.61,6.27-6.65,10.08-9.22,1.96-1.32,4.12-2.32,6.25-3.39,3.35-1.68,6.85-2.64,10.46-3.3,3.77-.7,7.59-.38,11.4-.24.92.04,1.27.44,1.27,1.41-.03,10.99-.01,21.98-.04,32.98-.01,2.8-.94,5.51-3.03,7.24-3.58,2.97-7.24,3.75-12.07.89-2.88-1.7-3.97-4.49-4.15-7.63-.15-2.59-.05-5.18-.02-7.78.02-.84-.24-1.18-1.12-1.16-1.85.04-3.7.03-5.54.01-.68,0-1.13.23-1.17.94-.29,3.99-.68,7.97.36,11.93,1.49,5.69,5.03,9.57,10.35,11.99,2.32,1.06,4.69,1.7,7.19,1.49,3.45-.3,6.64-1.32,9.6-3.3,2.4-1.62,4.37-3.49,5.67-6.03,1.45-2.84,2.09-5.91,2.1-9.09.03-9.67.03-19.35-.02-29.03,0-1.48.45-2.75,1.07-4.02.35-.74.76-.71,1.11-.05.59,1.09,1.05,2.2,1.03,3.48-.03,7.13-.01,14.25-.01,21.38Zm20.3-25.57c.44-.45,1-.23,1.5-.24,7.74-.01,15.47.01,23.21-.02.93,0,1.21.16,1.2,1.19-.02,15.43.02,30.86.04,46.29.19.2.2.39-.01.58-.13.61-.61.53-1.05.53-7.89,0-15.78-.01-23.68-.01-.49,0-.99.04-1.24-.52-.16-.1-.18-.2-.04-.33,0-15.54,0-31.09-.01-46.65-.21-.3-.22-.57.07-.82Zm26.43,86.8c0,2.72.01,2.7-2.7,2.7-7.42-.02-14.85-.01-22.27-.02-.55,0-1.18.2-1.49-.52-.15-.1-.17-.2-.03-.33-.04-7.72-.07-15.44-.12-23.15-.1-.31-.11-.6.18-.83,1.69-.45,3.44-.48,5.15-.48,5.75,0,11.5.13,17.24.23,1.87.03,4.04,2.39,4.04,4.35.01,6.02-.02,12.03-.01,18.04Zm20.29-86.27c.04-.76.58-.77,1.13-.77,8.17,0,16.34.01,24.52-.02.96-.01,1.06.44,1.06,1.2,0,9.32.02,18.64.04,27.95v18.33c.19.2.19.39-.01.58-.58.86-1.54.8-2.31.72-1.51-.16-2.99-.02-4.48-.01-2.25.01-4.51-.12-6.77-.11-3.87.01-7.76-.1-11.64-.04-1.25.02-1.59-.36-1.58-1.56.03-15.24.02-30.48.02-45.72-.21-.19-.2-.38.02-.55Zm26.95,88.29c.02.65-.16.93-.88.93-8.39-.02-16.8-.02-25.19.01-1.09,0-.91-.7-.91-1.33-.01-5.1,0-10.2,0-15.3,0-2.54-.01-5.09-.02-7.64-.14-.11-.15-.21-.01-.33.02-.64.41-.76.97-.76,8.39.01,16.79.01,25.19-.01,1.03-.01.83.64.83,1.22v19.78c0,1.14-.03,2.29.01,3.43Zm59.99-56.16s-.05.05-.08.07c-1.52,7.8-8.09,13.31-15.81,12.87-7.56-.44-13.19-5.27-14.41-12.4-.94-5.41.68-10.07,4.89-14,4.81-4.48,13.99-4.87,18.92-1.12,4.73,3.6,7.15,8.3,6.44,14.36.02.07.05.14.05.21Zm-39.75-30.39c-.01-.48-.01-.96-.01-1.45-.22-.3-.23-.57.07-.82.38-.43.9-.24,1.35-.24,12.28-.01,24.56-.01,36.84-.01.58-.01,1.2-.14,1.18.76.67.17.18.38.02.58.02,3.23.04,6.47.06,9.7.16.2.17.4-.02.6-.55.6-1.07.13-1.52-.13-3.41-1.9-7.01-3.27-10.85-3.9-5.69-.91-10.89.32-15.59,3.67-3.59,2.57-6.47,5.84-8.36,9.69-1.9,3.86-2.95,8.1-1.94,12.62,1.16,5.24,3.58,9.76,6.96,13.84.29.35.89.65.64,1.18-.17.36-.73.12-1.11.19-1.46.29-2.92-.17-4.38-.01-.35.03-.71-.02-1.06.01-2.51.21-2.48.14-2.38-2.35.12-2.89,0-5.8-.01-8.69v-.35c-.25-11.64.24-23.27.11-34.91Zm57.17,79.69c-.98,2.37-2.35,4.45-4.59,5.78-2.2,1.31-4.62,1.97-7.18,1.98-14.64.02-29.29-.01-43.93.03-1.38.01-1.78-.45-1.67-1.74.4-4.65.16-9.3.19-13.96.02-2.86-.06-5.71-.11-8.57-.08-.22-.05-.41.12-.59.19-.8.84-.48,1.3-.48,6.34-.02,12.67-.11,18.99,0,5.89.11,11.78-.54,17.66-.22,3.83.21,7.73-.19,11.5,1.03,7.14,2.32,10.6,9.78,7.72,16.74Zm56.79-19.67c-2.71,6.16-6.62,11.52-11.66,15.92-6.39,5.61-13.81,9.26-22.26,10.73-2.47.43-4.95.46-7.43.65-.96.06-.78-.63-.7-1.18.36-2.38.88-4.75,1.12-7.15.57-5.68.53-11.33-1.85-16.68-2.59-5.82-7.35-9.28-12.99-11.74-5.23-2.27-10.75-3.51-16.33-4.52-.37-.06-.89.16-1.07-.3-.21-.54.25-.89.58-1.22,2.27-2.34,3.95-5.04,4.91-8.16.9-2.91,1.17-5.91,1.19-8.92.05-9.89.02-19.79.02-29.68-.15-.12-.14-.23.01-.33.02-.63.32-.89.93-.69,2.42.79,4.94.39,7.41.68,4.94.55,9.91.88,14.86,1.44.89.09,1.77.04,2.65.2.7.12,1.54-.08,1.96.75.03.07.06.15.08.22,0,.02-.05.06-.08.1-.01,17.45-.01,34.92-.05,52.38,0,.97.34,1.19,1.21,1.18,3.17-.04,6.35-.07,9.5.01,1.15.03,1.47-.24,1.47-1.44-.04-16.14-.04-32.29-.02-48.42,0-2.58-.42-2.37,2.26-1.75,4.84,1.11,9.15,3.41,12.86,6.68,8.29,7.29,13.4,16.37,14.97,27.35,1.19,8.31-.21,16.26-3.57,23.89Zm104.83-129.21c-1.51,1.47-3.06,2.9-4.61,4.34-4.19,3.87-8.43,7.71-12.6,11.6-4.28,3.99-8.62,7.9-13.18,11.53-5.51,4.4-11.12,8.68-17.2,12.3-6.54,3.89-13.4,6.98-20.57,9.45-4.65,1.6-9.31,3.16-13.97,4.74-.55.18-1.09.36-1.68.33-1.07-.01-2.39-.37-2.52-1.26-.16-1,1.2-1.54,2.11-1.85,1.91-.63,3.9-1.07,5.85-1.58,8.75-2.33,16.97-5.98,24.8-10.5,5.41-3.13,10.6-6.59,15.54-10.41,2.91-2.25,5.69-4.7,8.58-6.98,2.24-1.75,4.37-3.61,6.43-5.54,2.96-2.78,6.1-5.32,9-8.18,3.11-3.07,6.19-6.22,9.71-8.83.91-.67,1.94-1.21,3.1-1.35.62-.07,1.28-.11,1.65.54.37.67-.01,1.22-.45,1.65Z"/>
  <path class="cls-1" d="m542.67,131.77c-2.11-.38-4.22.16-6.35,0,.01-.35.01-.7.01-1.06h5.54c-.38.84.67.6.79,1.06Z"/>
  <path class="cls-1" d="m258.4,369.29h-6.07c.03-.41-.38-.49-.56-.74,2.22.12,4.43.39,6.65-.03-.39.25-.43.51-.02.77Z"/>
  <path class="cls-1" d="m205.62,369.29c.26-.34.08-.62-.1-.91,1.96.53,3.95.48,5.94.17-.11.41.32.5.49.74h-6.34Z"/>
  <path class="cls-1" d="m205.11,368.28c-.12.11-.21.08-.29-.05.09.02.19.03.29.05Z"/>
  <path class="cls-1" d="m339.88,212.48c-.03.11-.07.23-.1.34.03-.11.07-.23.1-.34Z"/>
  <path class="cls-1" d="m218.8,229.94c-.02.27-.04.55-.07.82-.21-.3-.22-.57.07-.82Z"/>
  <path class="cls-1" d="m312.77,229.94c-.03.27-.05.55-.07.82-.22-.3-.23-.57.07-.82Z"/>
  <path class="cls-1" d="m352.16,231.03c-.01-.19-.02-.39-.02-.58.67.17.18.38.02.58Z"/>
  <path class="cls-1" d="m218.62,295.42c-.1-.31-.11-.6.18-.83.03.3.04.59-.18.83Z"/>
  <path class="cls-1" d="m265.52,230.47c-.01.18-.02.37-.02.55-.21-.19-.2-.38.02-.55Z"/>
  <path class="cls-1" d="m352.2,241.33c.01-.2.01-.4.02-.6.16.2.17.4-.02.6Z"/>
  <path class="cls-1" d="m292.7,335.79c-.11-.16-.2-.32-.31-.48.31.03.32.24.31.48Z"/>
  <path class="cls-1" d="m244.74,277.74c.01-.19.01-.39.01-.58.19.2.2.39-.01.58Z"/>
  <path class="cls-1" d="m292.25,277.74c0-.19.01-.39.01-.58.19.2.19.39-.01.58Z"/>
  <path class="cls-1" d="m312.59,295.42c-.08-.22-.05-.41.12-.59.07.22.04.42-.12.59Z"/>
  <path class="cls-1" d="m218.78,277.74c-.16-.1-.18-.2-.04-.33.01.11.03.21.04.33Z"/>
  <path class="cls-1" d="m265.47,295.42c-.14-.11-.15-.21-.01-.33,0,.11.01.22.01.33Z"/>
  <path class="cls-1" d="m218.77,318.9c-.15-.1-.17-.2-.03-.33.01.12.02.22.03.33Z"/>
  <path class="cls-1" d="m312.6,267.46v-.35c.13.12.13.23,0,.35Z"/>
  <path class="cls-1" d="m242.85,335.22c-.11-.03-.22-.07-.33-.1.11.03.22.07.33.1Z"/>
  <path class="cls-1" d="m387.76,335.19c-.11-.06-.21-.12-.32-.17.11.06.21.12.32.17Z"/>
  <path class="cls-1" d="m352.46,262.6s-.05.05-.08.07c.01-.1.02-.19.03-.29.02.07.05.14.05.21Z"/>
  <path class="cls-1" d="m388.12,232.25s-.05.06-.08.1v-.32c.03.07.06.15.08.22Z"/>
  <path class="cls-1" d="m360.23,229.65c-.01.11-.01.21-.01.33-.15-.12-.14-.23.01-.33Z"/>
</svg>