<?xml version="1.0" encoding="UTF-8"?>
<svg id="Layer_1" data-name="Layer 1" xmlns="http://www.w3.org/2000/svg" viewBox="0 0 500 500">
  <defs>
    <style>
      .cls-1 {
        fill: #000;
      }
    </style>
  </defs>
  <g id="Lager_2" data-name="Lager 2">
    <path class="cls-1" d="m188.42,183c-.08-2.52,1.91-4.62,4.42-4.7.03,0,.07,0,.1,0,2.54.1,4.56,2.16,4.62,4.7-.12,2.53-2.11,4.57-4.63,4.75-2.54-.1-4.54-2.21-4.51-4.75Z"/>
    <path class="cls-1" d="m354.75,322.75c-1.08-14.34-6.78-16.53-6.78-16.53h-2.35v20.34c0,9.21,6.32,16.66,14.11,16.66h2.17s-5.86-5.6-7.16-20.47Zm-105.51-213.54l-146.61,107.2v180.81h20.93s-.08-1.6,0-2.45c.25-3.03,2.54-3.85,4.9-4.6l13.66-4.34c-4.52.1-8.73,1.37-12.98,2.38-2.19.51-5.08,1.89-5.55-2.14-.36-3.01-.11-5.75,3.84-6.24s7.92-1.11,11.87-1.67c-3.38-.42-6.79-.52-10.19-.31-3.18.25-5.63.27-5.67-4s2.4-5.05,5.87-4.86c4.44.25,8.85,1.71,14.71.41-6.34-.74-11.34-1.3-16.33-1.9-3.72-.45-4.45-2.96-4.1-6.15.38-3.89,2.99-2.84,5.46-2.46,1.93.29,3.72,1.65,6.49.67-3.5-1.37-6.53-2.3-9.41-3.61-3.32-1.53-3.2-4.81-2.23-7.35,1.37-3.47,3.73-.66,5.46,0,3.76,1.48,7.45,3.16,11.04,5,3.91,1.99,5.04.55,5-3.33-.1-7.68,0-15.37,0-23.05-.08-5.83,1.57-12.14-.74-17.42-3.1-7.06-2.91-14.11-2.95-21.35s0-14.14,0-21.22c0-4.51-1.37-10.68,5.33-10.85,7.27-.19,5.87,6.42,5.89,10.93.11,34.96,0,69.92-.32,104.88v16.39c.32,3.7-1.79,5.66-5.04,4.3-3.65-1.5-6.19,0-9.06,1.37-2.05,1-4.1,2.01-6.16,3.98h42.91c.05-1.56.13-2.09.25-2.62,3.25-20.35,6.51-40.69,9.78-61.03.39-1.84.67-3.71.85-5.59-.08-1.11.38-2.2,1.24-2.91-.22-1.35-.31-2.73-.26-4.1,0-5.46,2.49-9.56,2.49-9.56v-108.62c-.07-1.01-.07-2.03,0-3.04-1.17-.43-1.35-1.49-1.35-4.13,0-3.87.13-7.47-2.93-10.8s-1.7-8.31,1.62-11.23c3.26-2.94,8.15-2.94,11.41,0,3.3,2.88,4.44,8.26,1.46,11.4s-3.01,6.88-2.98,10.78c0,2.85-.08,3.87-1.35,4.23.09.61.13,1.22.12,1.83v108.73c2.32,1.07,3.17,4.02,3.18,9.92.07,1.43-.01,2.86-.26,4.27.97.88.81,2.88,1.55,7.42,3.29,20.36,6.4,40.85,9.71,61.35.09.55.16,1.1.22,1.65s.08.72.09,1.06h16.75c.16-8.04.35-17.89.51-26h.31c.79-7.04,3.48-9.5,10.9-9.45,6.66,0,13.46.12,21.01.19-.29-3.8-.53-6.94-.76-9.74h5.52c.11-7.59.24-15.1.27-22.58v-135.36s.17-6.16,3.78-6.91,6,1.91,6.22,6.91v150.82c-.23,2.3-.12,4.59-.02,7.12h5.46c-.27,2.32-.67,5.76-1.13,9.83,8.2-.12,15.12-.26,21.99-.33,7.88-.08,11.5,9.5,11.5,9.5h-1.89c0,5.44-.09,15.58-.16,25h19.12s-2.04-2.57-1.88-5.77v-81.37c-.26-2.34.17-4.67,1.08-6.83,1.96-4.01.72-8.85-2.94-11.41-2.43-1.72-5.68-2.73-5.56-7.16.12-4.24,3.4-4.85,5.6-6.83,3.96-3.46,8.33-4.3,13.14-4.1,5.96.3,11.94.08,17.91.07,1.34-.19,2.7.12,3.83.87,2.21,1.86,4.02,4.1,6.83,5.14,2.39.85,1.71,4.49,1.5,7.06.07,1.88-1.35,3.49-3.22,3.66-3.1.18-2.73,2.12-1.97,4.59,1.24,3.78,2.4,7.61,3.62,11.41.6,1.84.75,3.65-.93,4.69s-2.94.29-4.1-1.2c-3.11-4.1-6.26-8.11-9.37-12.21-.96-1.27-1.83-2.83-3.48-1.56-.93.71-.72,5.33.38,5.92,7.86,4.21,8.83,12.4,9.4,21.16.45,7.81,3.71,15.19,9.18,20.78,3.44,3.55,5.64,8.13,6.24,13.05,1.63,10.93,3.7,21.75,5.6,32.61.68,3.91-1.76,8.44-1.76,8.44h17.02v-180.81l-146.39-107.2Zm105.82,214.01c-1.12-14.75-6.97-17-6.97-17h-2.45v20.91c0,9.44,6.48,17.09,14.48,17.09h2.23s-6.01-5.74-7.34-21h.07Zm-148.69,73.39c-.89-6.46-1.8-12.92-2.73-19.38-.91-6.67-1.82-13.34-2.73-20.01h-.49c1.04,9.99,2.06,19.99,3.08,29.98.3,2.96.67,5.93.9,8.89.03.38.03.75,0,1.13h2.09c-.06-.2-.1-.41-.12-.61Zm-5.38.61c-.06-.26-.1-.52-.12-.78-.63-6.28-1.26-12.55-1.82-18.84-.77-8.59-1.48-17.19-1.67-25.77,0,7.54-.14,15.03,0,22.62.16,6.98.68,13.93.97,20.9.06.62.06,1.24,0,1.86h2.64Zm-6.2-1.84c-1.07-14.47-.11-29.02-1.65-43.51,0,1-.11,1.98-.12,2.98-.29,12.4-.55,24.81-.86,37.21,0,1.71-.34,3.43-.54,5.14l.02.02h3.28c-.12-.59-.08-1.24-.12-1.84Zm-6.08-37.69c-.96,10.99-1.92,22-2.9,33.02-.16,1.89-.37,3.76-.59,5.63,0,.3,0,.6-.12.89h2.73s0,0,0,0c0-3.24.07-6.47.23-9.7.3-9.96.72-19.89.64-29.84h0Zm-7.51,27.57c-.51,3.64-.99,7.29-1.45,10.93-.03.35-.11.7-.22,1.04h2.16c-.04-.45-.04-.91,0-1.37.49-5.46,1.08-10.79,1.64-16.19.79-7.7,1.57-15.4,1.89-23.22-1.31,9.64-2.65,19.24-4.02,28.81Z"/>
    <rect class="cls-1" x="86.63" y="404.23" width="325" height="11"/>
    <polygon class="cls-1" points="424.52 212.79 417.58 222.37 249.56 99.43 82.46 222.36 75.48 212.81 249.54 84.77 344.63 154.34 344.63 140.23 381.63 140.23 381.63 181.41 424.52 212.79"/>
  </g>
</svg>