<?xml version="1.0" encoding="UTF-8"?>
<svg id="Layer_1" data-name="Layer 1" xmlns="http://www.w3.org/2000/svg" viewBox="0 0 608 500">
  <defs>
    <style>
      .cls-1 {
        fill: none;
        stroke: #000;
        stroke-miterlimit: 10;
        stroke-width: 4px;
      }
    </style>
  </defs>
  <g>
    <path class="cls-1" d="m491.6,192.8c1.24-18.72-4.42-33.25-5.78-33.09-.09.01-.54.14-1.09,0-.52-.13-.66-.37-.97-.48-.78-.3-1.73.56-2.97,1.37-1.03.67-.9.41-2.89,1.5-7.44,4.03-12.91,7.76-12.91,7.76-3.81,2.6-8.65,5.93-14.05,11.13-1.61,1.54-3.01,3.03-5.79,6-3.31,3.51-5.34,5.7-7.76,8.79-2.35,2.99-3.75,4.8-5.13,7.58-2.08,4.2-3.12,6.3-2.48,8.21,1.69,5.06,11.98,3.09,14.94,8.93,1.81,3.57-1.42,5.54.63,9.87,1.34,3.51,5.83,7.51,10.54,7.36,1.95-.02,6.56-.82,8.93.69h0c1.3.83,2.88.58,5.99.01,3.56-.63,3.64-.66,3.97-.62.83.07,1.66.29,2.63-.09,0,0,.75-.29,1.37-.97,2.21-2.4,4.85-13.77,5.16-15.1.92-3.88,1.92-6.95,2.87-9.71,1.66-4.87,2.48-6.28,3.4-9.85.54-2.02,1.11-4.81,1.41-9.28Z"/>
    <g id="blomma_v1.psd" data-name="blomma v1.psd">
      <g>
        <path class="cls-1" d="m375.84,362.15c.54-.39,1.06-.81,1.55-1.24,5.71-5.07,7.84-12.78,12.29-18.9,9.72-13.35,29.48-17.86,38.01-31.95,1.97-3.26,3.25-7.05,2.73-10.79-.52-3.73-3.1-7.34-6.86-8.44-4.2-1.23-8.81.84-11.82,3.92-3.01,3.06-4.81,7-6.93,10.69-11.06,19.33-32.05,33.14-54.87,36.1-7.75,1-16.23,1.04-22.37,5.67-6.46,4.87-8.35,13.27-14.49,18.42-2.76,2.33-7.27,4.69-10.95,5.29-4.2.69-8.63-1.69-12.42-3.11-20.45-7.65-40.37-16.55-60.22-25.53-1.39-.63-2.78-1.26-4.17-1.89-33.58-15.19-68.75-31.64-89.79-60.93-3.18-4.43-6.1-9.21-10.63-12.4s-11.28-4.28-15.63-.89c-5.53,4.33-4.15,12.51-4.1,19.34.05,6.12-1.44,12.23-4.3,17.7-1.6,3.08-3.77,6.07-6.95,7.66-3.18,1.6-7.57,1.38-9.89-1.23-1.9-2.14-2.37-5.63-5.1-6.68-2.89-1.11-6.06,1.84-6.18,4.81s1.75,5.66,3.67,8c11.07,13.57,26.24,24.03,43.19,29.77,3.56,1.21,7.58,2.2,11.03.73,3.46-1.47,5.22-6.53,2.26-8.78-1.88-1.43-4.54-1.09-6.92-1.35-2.38-.25-5.15-1.97-4.55-4.19.77-2.86,5.39-2.1,7.88-3.84,3.21-2.25,1.42-7.09-.81-10.25s-4.56-7.58-1.87-10.38c2.05-2.12,5.9-1.55,8.15.36s3.36,4.75,4.53,7.41c5.25,11.99,13.45,22.78,23.76,31.26,4.58,3.78,11.56,7.11,16.26,3.46,3.67-2.86,4.63-9.24,9.34-9.63,2.66-.22,5.01,1.93,5.93,4.34.92,2.41.79,5.03.94,7.59,1.04,18.58,19,32.06,38.17,35.19,12.3,2,21.31,6.38,36.65,1.79,5.83-1.74,12.39,3.36,18.47,3.9,3.67.32,7.3-.79,10.98-1.15s7.89.32,10,3.22c1.7,2.35,1.54,5.47,1.12,8.29-.94,6.29-.5,6.95-.03,8.48,1.74,5.84,13,7.61,16.02,8.1,17.76,2.81,33.63-4.01,39.3-6.71,26.5-12.68,34.89-33.86,36.96-40.75.86-2.87,1.39-6.31-.7-8.51-2.4-2.53-6.98-1.77-9.61.54-2.63,2.32-3.87,5.68-5.36,8.79-5.23,10.91-14.53,19.98-25.85,25.17-6.48,2.97-13.95,4.7-20.89,2.91-6.95-1.79-12.98-7.84-12.77-14.72.2-6.39,5.53-11.75,11.6-14.42,6.07-2.67,12.86-3.27,19.45-4.33,5.95-.96,12.05-2.43,16.78-5.87Z"/>
        <path class="cls-1" d="m256.35,147.92c.05-.08.09-.17.14-.25,2.98-5.63,4.64-11.83,8.13-17.24,1.27-1.96,2.76-4,4.8-5.29,2.45-1.55,4.89-.66,7.56-.16.44.08.91.16,1.32-.01.61-.26.84-.96,1.28-1.43.78-.82,2.1-.84,3.25-.77,19.87,1.08,48.79,13.04,48.79,13.04,18.95,7.95,33.79,13.84,33.79,13.84,0,0,2.46.98,24.73,15.32,1.04.67,3.57,2.26,4.07,4.96.3,1.65-.25,3.32-.88,4.88-2.56,6.47-6.3,12.51-11,17.77-.5.55-1,1.11-1.65,1.49-.66.39-1.41.61-2.15.81-2.6.71-5.21,1.44-7.81,2.15-1.82.5-4.03.91-5.38-.36-2.26-2.14-5.23-3.1-7.68-5.38-1.93-1.8-4.11-3.36-6.45-4.64-1.5-.82-3.2-1.54-4.89-1.27-1.96.31-3.54,1.89-5.52,2.07-1.5.14-2.95-.55-4.2-1.36-5.52-3.54-8.96-9.39-14.42-12.98-2.37-1.55-5.7-2.29-8.1-.76-1.59,1.01-1.49,3.03-4.52,5.84-.93.86-1.63,1.15-2.1,1.42-2.1,1.14-4.16,1.11-4.91,1.11-2.51,0-8.3.28-12.3,2-3.88,1.67-7.29,4.38-9.61,7.81-1.01,1.51-1.44,3.08-3.31,5.01-1.21,1.27-3.05,3.18-5.3,3.05-1.29-.07-1.58-.75-3.39-.84-1.11-.06-2.46-.12-3.31.68-.99.93-.93,2.49-1.65,3.63-.81,1.27-2.1,1.37-3.48,1.38-2.02.01-2.58.29-4.4,1.39-6.29,3.8-14.57-4.22-18.21-8.32-5.16-5.8-8.98-12.55-12.76-19.22-.25-.45-.52-.93-.41-1.44.12-.56.64-.96,1.14-1.29,6.52-4.31,13.29-8.32,19.27-13.29,4.58-3.77,8.71-8.19,11.51-13.36Z"/>
        <path class="cls-1" d="m391.09,176.51s-.02.03-.06.09q.04-.06.06-.09c.49-.54,1.27-1.54,1.73-3,.15-.47.63-2.03.27-3.65-.53-2.42-2.55-4.48-5.03-5.15-3.04-.82-6.37.36-9.43-.4-3.19-.79-5.4-3.48-7.38-6-1.95-2.5-3.9-4.99-5.85-7.49-.4-.51-.82-1.07-.78-1.72s.52-1.19.98-1.66c3.27-3.39,6.53-6.78,9.76-10.19,2.33-2.46,4.65-4.93,6.97-7.39,1.84-1.76,3.36-3.8,5.16-5.55,2.13-2.07,4.51-3.95,6.76-5.92,1.95-1.7,3.85-3.52,5.91-5.11,4.79-3.7,7-5.76,8.06-6,7.76-1.72,21.31,11.33,23.01,20.29.17.9.69,3.4,2.68,4.93,1.7,1.3,4.2,1.23,6.21.4,1.99-.84,3.62-2.3,5.23-3.71,4.11-3.55,9.78-5.89,14.74-8.19,5.57-2.58,11.29-4.87,16.87-7.45,1.97-.91,4.25-1.82,6.24-.99,1.8.75,2.7,2.65,3.31,4.43,3.74,10.96,2.27,24.32.18,35.52-.37,1.95-.82,3.96-2.11,5.51-1.22,1.46-3.04,2.33-4.78,3.18-12.74,6.29-42.3,33.78-44.41,37.19-.64,1.04-.9,1.47-.9,1.47-.71,1.03-1.29,2.14-1.9,3.22-.05.08-.13.23-.29.38-.07.06-.1.08-.25.21-.1.09-.18.15-.31.25-.61.52-1.05.91-1.42,1.28-.39.4-.68.77-1.01,1.27-1.95,2.8-3.88,6.65-4.56,6.46-.67-.18-.08-4.28.61-9.03.15-1.07.23-1.6.4-2.63,1.32-7.76.64-13.48,1.9-24.36.54-4.72.93-5.93.96-9.32.01-3.5-.39-4.24.25-6.1.23-.67.86-2.25.73-4.33-.05-.73-.17-1.3-.5-1.57-1.19-.98-3.47,2.82-4.15,3.46-1.31,1.21-2.65,2.4-3.92,3.66-5.1,5.1-8.09,8.48-9.71,9.95-3,2.72-8.63,5.32-20.23,3.84Z"/>
        <path class="cls-1" d="m257.13,143.6c.24.38.41.77.52,1.19.39,1.65-.68,2.55-1.21,4.09-.79,2.29-1.59,4.6-2.38,6.89-1.29,3.73-2.25,9.13-5.41,11.82-3.33,2.81-7.99,3.69-12.19,4.6-6.46,1.39-12.84,3.13-19.11,5.21-7.04,2.33-10.38,3.96-12.52,6.78-5.24,6.9-3.13,18.7-.1,25.14.4.86,1.89,3.88,2.99,8.17.9,3.49,1.95,7.56.59,8.35-1.89,1.09-7.76-4.49-11.46-9.08-3.93-4.86-5.86-9.17-7.64-13.19-8.37-18.93-8.14-20.16-12.32-28.94-5.76-12.09-7.12-12.47-7.82-17.62-1.03-7.51,2.25-14.92,6.01-21.57,2.75-4.85,5.83-9.57,7.94-14.73,1.8-4.39,2.59-10.61,6.82-13.63,4.27-3.04,10.77.93,14.85,2.61,11.93,4.93,23.28,11.14,33.77,18.47,5.67,3.96,11.09,8.23,16.22,12.82.83.73,1.84,1.61,2.46,2.63Z"/>
        <path class="cls-1" d="m378.97,128.51c-.16.92-.41,1.82-.75,2.68-1.24,3.2-3.44,5.98-5.62,8.7-8.93,11.15-17.84,22.3-26.89,33.34-3.39-4.24-9.34-6.44-14.82-5.47-2.06.37-4.25,1.13-6.18.35-1.42-.58-2.37-1.9-2.93-3.28s-.77-2.86-1.21-4.27c-1.51-4.94-5.54-8.94-10.23-11.47-2.22-1.2-4.6-2.1-7.04-2.8-2.53-.73-5.27-.9-7.79-1.65-4.26-1.29-8.26-4.55-11.16-7.71-4.57-4.96-7.61-11.02-10.58-16.99-.3-.61-.61-1.3-.38-1.93.71-1.89,5.51.81,6.56,1.35,2.19,1.09,4.3,2.43,6.67,3.1,2.18.61,4.91.63,6.77-.78,1.91-1.45,2.55-4.07,3.43-6.13,2.71-6.27,7.96-10.99,12.85-15.71,5.41-5.23,10.27-10.96,15.4-16.46,1.46-1.57,3.12-4.24,5.23-4.95,1.79-.6,4.15-.16,5.36,1.28,4.4,5.23,9.26,10.11,13.18,15.73,4.76,6.82,4.76,7.15,5.26,8.15,2.07,4.08,2.44,6.31,5.53,14.58,2.97,7.97,3.82,9.11,5.1,9.34,3.11.55,9.19-4.19,10.31-5.06,2.32-1.81,3.27-.99,3.87,1.62.32,1.43.31,2.95.06,4.43Z"/>
        <path class="cls-1" d="m34.22,243.63c-.78-.17-1.52-.47-1.77-1.04-.47-1.05.22-.92,1.29-.75,3.82.62,7.65-.15,11.43-.68,3.8-.53,7.65-.58,11.47-.85.31-.02.64-.06.9-.24.4-.3.44-.86.41-1.35-.23-4.61-5.18-14.36-.81-18.15,1.92-1.67,4.91-1.26,7.47-.83,10.67,1.81,21.53,1.67,32.32,1.77,1.11.01,2.32-.02,3.12-.75,1.14-1.04.79-2.81.37-4.26-4.63-15.47-8.56-30.92-11.41-46.8-.44-2.43-.71-4.95-1.3-7.35-.14-.59-1.29-6.38-.91-6.24,1.38.48,2.02,2.86,2.49,4.11,7.07,19.05,14.89,37.97,21.02,57.33,2.83,8.94,4.53,17.82,6.51,26.93,1.38,6.39,3.27,12.77,6.52,18.55,3.1,5.54,8.25,10.37,10.2,16.44.7,2.18.91,4.49,1.75,6.62,2.57,6.44,11.99,5.32,15.49,11.14,1.07,1.79,2.27,4.91,1.04,6.17-3.25,3.32-12.28-2.97-14.79-4.88-4.99-3.78-7.62-9.67-9.89-15.18-2.66-6.45-5.48-13.37-11.44-17.33-.69-.46-1.47-.89-2.31-.85-.62.02-1.21.31-1.73.64-3.66,2.3-5.21,6.75-5.48,10.94-.26,4.19.47,8.4.21,12.58-.16,2.56-.71,5.07-1.44,7.52-.73,2.43-2.32,5.06-2.65,7.53-.56,4.24,2.3,8.74-.58,12.68-3.11,4.26-9.9,3.36-13.71.59-3.02-2.2-5.01-5.44-6.66-8.71-.89-1.75-1.81-3.66-3.6-4.57-.78-.4-1.81-.54-2.55-.07-1.11.73-.96,2.32-.56,3.54,3.02,9.52,12.08,14.67,17.18,22.84-8.48-5.18-15.1-12.66-21.25-20.27-8.58-10.61-16.9-21.6-24.08-33.11-5.36-8.58-10.1-17.52-15.05-26.31,1.36-.58,2.89.22,4.12,1.01,6.95,4.48,13.04,9.43,18.75,15.32,7.57,7.78,15.7,16.99,26.9,19.64.7.15,1.64.62,2.31.38,1.61-.6,1.67-2.75,1.32-4.39-1.2-5.48-3.86-10.62-4.57-16.19-.68-3.74-.75-7.71-2.56-11.09-2.38-4.48-7.42-7.13-12.47-8.49-6.2-1.67-12.68-1.79-19.06-2.18-3.34-.21-6.68-.47-9.96-1.07-.52-.08-1.28-.14-1.99-.3Z"/>
        <path class="cls-1" d="m511.76,234.6c6.2-4.58,14.15-6.53,21.8-7.77,9.76-1.59,19.31-4.27,29.13-5.93,5.17-.88,10.37-1.64,15.58-2.3,2.58-.32,8.79-2.5,10.9-.41,1.11,1.09,1.27,2.81.81,4.26-.46,1.45-1.44,2.68-2.43,3.88-11.23,13.57-24.89,25.2-38.58,36.51-7.56,6.24-9.09,7.59-12.58,9.57-9.36,5.32-18.19,6.95-22.12,7.66-4.55.83-7.79.9-8.91.91-3.42.03-3.16-.35-6.6-.37-9.1-.09-13.98,2.51-15.06,3.05-3.44,1.68-3.44,3.42-15.21,18.6-1.64,2.11-3.44,4.38-6.61,5.27-4.24,1.2-8.22-.82-9.5-1.55-1.27-.74-4.84-2.8-5.19-6.01-.35-3.12,2.53-5.69,4.7-7.67,13.48-12.38,2.03-2.15,15.28-15.46,8.57-8.59,21.18-12.91,29.05-22.08,4.81-5.62,7.57-12.75,12.92-17.9.84-.84,1.73-1.58,2.65-2.26Z"/>
        <path class="cls-1" d="m101.29,191.82c1.87,4.98,2.27,6.35,2.91,8.04,8.73,22.8,33.75,31.12,36.68,31.94.64.18,1.5.36,2.3,0,3.21-1.44,1.93-9.73,2.84-12.2.08-.23.47-1.2.18-2.3-.03-.14-.07-.23-.08-.28-.61-1.76-1.88-8.94-1.98-9.17-.01-.03-.03-.06-.03-.06-.03-.08-.08-.15-.45-.84-1.26-2.38-3.2-6.15-3.62-7.12-1.37-3.19-.09-9.23,3.24-12.36,7.2-6.78,22.38,1.37,26.58-4.66,1.41-2.03.82-4.54.73-4.94-1.47-6.3-11.37-5.95-35.11-14.4-5.98-2.12-12.43-4.43-21.27-6.43-2.23-.51-4.23-.81-8.04-1.49-4.61-.82-9.21-1.58-13.84-2.26-1.3-.2-3.41-.46-4.64.71-.88.83-.94,2.05-.97,2.38-.13,2.06,1.27,3.71,1.59,4.11.02.02,2.15,5.06,6.52,15.06,2.65,6.07,4.5,11.03,6.45,16.24Z"/>
        <path class="cls-1" d="m424.81,278.65c-.32-.29-.56-.69-.68-1.11-.88-3.1.85-7.06,1.83-9.99,1.84-5.48,4.87-10.32,8.52-14.86,1.26-1.55,2.4-3.31,2.6-5.26.2-1.96-.83-4.15-2.76-4.78-2.49-.81-4.25,1.16-7.66-.01-.68-.23-1.76-.62-2.43-1.61-.7-1.06-.43-2.06-.4-4.81.01-1.74-.1-1.54-.14-3.54-.06-3.44.24-6.1.44-8.09.86-8.87-.01-8.63.75-11.28.71-2.48,2.45-6.06,7.31-9.76-.17.96-.69,1.84-.73,2.89-.13,3.09,2.02,5.37,4.55,6.98,3.48,2.21,8.3.88,11.22,4.19,1.17,1.34,1.79,3.12,1.65,4.87-.14,1.84-1.05,3.55-1.67,5.3s-.94,3.78.02,5.38c1.2,1.97,3.86,2.56,6.23,2.74,1.47.12,2.97.14,4.4-.22,1.43-.36,2.79-1.13,3.56-2.34.81-1.26,1.01-2.97,2.34-3.73.99-.56,2.32-.35,3.28.28.97.62,1.65,1.55,2.28,2.49,1.67,2.43,3.75,4.11,6.99,3.75.51-.06,1.01-.16,1.51-.3.37-.1,1.55-.84,1.82-.37.13.23-.08.76-.13.99-.07.37-.16.73-.25,1.08-.47,1.81-1.38,3.42-1.98,5.17-.88,2.56-.67,1.69-2.11,4.91-1,2.21-2.34,5.06-4.04,8.35-1.85,4.28-4.11,7.43-5.83,9.49-5.69,6.84-12.15,9.89-15.63,11.48-3.48,1.59-5.85,2.52-9.02,2.43-2.15-.07-4.24-.64-6.36-1.03-2.12-.38-4.35-.54-6.37.2-.77.29-1.59.7-2.38.51-.3-.09-.54-.23-.74-.41Z"/>
        <path class="cls-1" d="m499.56,166.59c.01,2.49-.54,2.18-1.14,4.57-.63,2.59-1.29,5.17-1.97,7.76-1.37,5.26-5.72,22.38-7.72,27.88-.24.62-.76,1.98-1.76,2.14-.43.07-.93-.03-1.72-.71-1.2-1.04-2.02-2.43-3.02-3.65-1.99-2.42-4.79-3.33-7.23-.9-.89.88-1.55,1.92-2.42,2.81-.73.74-1.83,1.3-2.83.96-.4-.14-.75-.43-1.04-.73-1.05-1.07-1.66-2.49-1.97-3.93-.51-2.28-.4-4.42-1.38-6.6-.92-2.04-2.21-4.05-2.29-6.33-.07-1.95-.56-3.87-1.47-5.61-.52-1.01-1.46-2.28-3.34-4.83-1.55-2.1-1.89-2.42-1.87-3.08.03-1.59,2.02-2.51,4.93-4.27,5.77-3.48,4.54-3.77,10.41-7.19,1.62-.94,1.43-.76,7.06-3.89,3.6-2.82,3.73-3.02,4.3-3.31"/>
        <path class="cls-1" d="m494.52,260.01c-1.19.12-1.95.98-2.25,1.2-7.69,5.89-15.16,12.05-22.72,18.07-2.29,1.83-4.53,3.71-6.76,5.6-.71.61-1.44,1.21-2.18,1.8-1.05.84-2.2,1.47-3.41,2.1-1.42.74-2.79,1.53-4.03,2.51-.75.6-1.45,1.29-2.14,1.95-.74.69-1.44,1.43-1.98,2.28-.75,1.17-1.15,2.55-1.24,3.92-.05.69-.01,1.43-.43,2.02-.91,1.3-2.75,2.3-3.8,1.82-1.49-.68-1.29-4.3-.68-6.62,1.64-6.27,7.05-6.44,13.54-14.22,2.95-3.54,4.64-6.83,7.09-11.61,3.09-6.02,3.49-8.53,5.99-12.24.39-.9,1.74-3.65,3.42-6.33.05-.13.45-.87.89-1.86.83-1.91,1.24-2.87,1.81-3.55.98-1.2,2.26-1.6,3.58-2.07,2.65-.93,5.19-2.11,7.8-3.17,5.27-2.14,10.53-4.32,15.78-6.47,1.98-.82,4.48-1.13,6.12.21,2.87,2.33,2.4,8.11,2.18,11.29-.31,4.55-1.59,9.05-3.77,13.11-.73,1.35-1.58,2.7-2.87,3.58s-3.1,1.22-4.48.47c-1.28-.7-1-1.75-2.79-2.93-.52-.32-1.5-.96-2.67-.83Z"/>
        <path class="cls-1" d="m563.07,251.54c1.45-1.72,2.9-3.42,4.24-5.22,4.79-6.39,4.61-6.39,6.17-7.65,2.67-2.14,3.88-1.87,6.84-4.58.47-.44,1.77-1.67,3.16-3.5,1.7-2.27,2.18-3.65,4.46-6.81,1.08-1.5,1.92-2.66,2.25-2.52.53.23-.74,3.93-1.07,4.89-2.75,7.98-10.45,15.54-17.58,24.41-6.47,8.05-7.74,11.25-19.14,25.42-.16.21-.31.38-.43.53-.1.13-.17.22-.17.22-.09.12-32,39.62-36.08,38.04-1.27-.48-1.36-1.17-1.36-1.17-.03-.26.06-.69.32-.94.06-.06.28-.22.74-.56.03-.02.06-.05.07-.05,8.13-6.22,25.51-26.78,28.81-33.2.56-1.11,1.84-3.8,4.23-7.14,1.73-2.42,2.3-2.75,4.27-5.52,2.27-3.16,1.99-3.4,4.35-6.86,1.49-2.2,2.87-4.15,5.93-7.77Z"/>
        <path class="cls-1" d="m418.87,110.84c-.14-.17-.29-.36-.43-.53.15.17.29.35.43.53Z"/>
        <path class="cls-1" d="m362.94,366.06c2.29-.68,4.56-1.44,6.8-2.29.26-.1.53-.21.79-.31,4.92-1.92,15.59-7.21,22.45-9.86,3.04-1.17,8.98-3.42,16.64-4.43,7.18-.94,11.18-.2,15.02-2.34.33-.18,2.84-1.61,3.75-.85.26.22.24.5.66,1.75.3.9.55,1.28.64,1.76.91,4.5,2.81,7.73,1.75,8.68-1.2,1.08-4.42-1.8-12.2-4.28-4.33-1.38-6.54-2.06-9.28-1.38-2.98.74-6.63,3.04-7.38,6.33-.66,2.88,1.57,4.58.44,7.42-.85,2.13-2.94,3.2-5,4.26-4.64,2.4-6.9,1.13-9.81,3.13-2.52,1.74-2.27,4.27-4.15,7.12-3.06,4.62-6.73,8.89-11.08,12.44-7.88,6.42-18.32,10.33-28.6,9.17-3.69-.41-7.35-1.5-10.4-3.52s-5.47-5.04-6.29-8.51c-1.17-4.94,1.04-10.23,4.77-13.83,2.03-1.97,4.61-3.58,7.08-4.98,1.28-.71,2.98-.79,4.41-1.07,1.75-.33,3.5-.68,5.25-1.04,4.61-.93,9.21-2,13.73-3.36Z"/>
        <path class="cls-1" d="m464.78,254.4c1.87-.28,3.93.43,4.56,2.1.5,1.31-.01,2.75-.55,4.05-8.09,19.66-21.96,37.1-39.62,49.79-1.85,1.34-4.16,2.68-6.36,1.95-2.71-.91-3.32-4.27-3.31-7.03s-.1-6.02-2.55-7.49c-2.03-1.21-4.85-.41-6.44,1.29s-2.15,4.07-2.32,6.33c-.16,2.27,0,4.57-.39,6.83-1.24,7.31-7.84,12.54-13.98,17.06-6.71,4.94-13.46,9.92-20.89,13.86-3.39,1.79-5.46,2.78-9.24,2.23-4.45-.64-9.11-1.66-13.61-1.49-4.1.15-6.42,1.89-9.67,3.87-3.42,2.08-6.56,4.09-9.5,6.84-3.67,3.47-8.43,7.8-10.49,12.36-2.11,4.66-3.65,10.32-8.42,13.22-3.48,2.12-8,2.14-11.94.99-3.87-1.14-7.08-4.25-10.88-5.15-3.34-.78-6.89-.63-9.38-3.37-2.05-2.26-2.08-5.97-.07-8.26,4.13-4.71,13.08-.5,18.49-1.36,3.73-.6,7.43-2.68,8.79-6.06,1.22-3.01.41-6.37.21-9.59-.43-6.68,1.87-13.37,5.75-18.93,3.49-5,8.63-10.07,14.2-12.97,5.49-2.86,9.65,1.61,14.96,2.34,3.42.47,6.76-1.14,9.64-2.97s5.66-3.97,9-4.81c5.71-1.43,11.6,1.27,17.48,1.64,5.87.37,11.81-1.68,16.29-5.34,4.47-3.66,7.49-8.85,8.66-14.36.93-4.34.85-9.09,3.36-12.81,2.11-3.12,5.67-4.99,8.82-7.15,1.64-1.12,2.91-2.34,3.94-3.66,2.45-3.21,3.12-6.71,3.54-9.02.3-1.69.36-2.94.46-5.44.17-4.03-.06-5.4.24-9.09.26-3.36.41-5.06,1.26-5.77,2.44-2.08,8.11-.16,10.95,2.48,1.08,1,1.46,1.82,1.61,2.25.56,1.61.07,3.32-.58,5.21-2.14,6.3-6.02,12.05-7.14,18.66-.48,2.84-.35,6,1.53,8.25,1.59,1.9,4.2,2.83,6.74,2.84,5.33.05,7.39-1.8,10.34-5.68,3.52-4.65,7.05-9.31,10.57-13.95,1.31-1.74,2.73-3.55,4.79-4.39.38-.13.76-.23,1.15-.29Z"/>
        <path class="cls-1" d="m287.87,360.85c.28.5.43,1.05.35,1.6-.17,1.15-1.29,2-2.48,2.29-2.15.52-4.73-.16-6.86-.55-5.82-1.07-11.48-2.71-17.2-4.17-7.13-1.81-14.22-3.72-21.3-5.74-6.51-1.85-13.08-3.63-19.42-5.95-3.29-1.21-10.02-3.2-11.03-7.05-1.04-3.89-.6-7.72-.75-11.68-.03-.83-.1-1.67-.46-2.43-.6-1.29-2.18-1.53-3.41-2.06-1.12-.48-2.23-1.46-2.04-2.61.14-.81.89-1.41,1.69-1.68s1.67-.29,2.52-.39c3.22-.38,6.15-1.93,9.16-3.13,3.19-1.28,6.6-2.19,9.49-4.04,1.39-.9,2.61-2.03,3.62-3.32.7-.91,1.28-2.37,2.57-2.64,1.44-.29,3.44.59,3.65,2.1.08.58-.03,1.15-.07,1.72-.16,2.45.94,4.79,1.65,7.16.69,2.32,1.03,4.79,2.34,6.85,1.46,2.29,3.06,3.09,7.08,5.63.81.52,8.07,5.13,13.75,9.88,3.79,3.17,2.44,2.68,6.46,6.09,5.6,4.75,14.34,10.38,17.11,11.61.94.41,1.92.82,2.71,1.47.35.3.65.64.86,1.04Z"/>
        <path class="cls-1" d="m428.85,346.22c-3.37,1.23-6.85,2.22-10.27,3.08-1.88.47-3.78.89-5.7,1.08-.98.09-2.12.07-2.72-.68-.61-.76-.31-1.87.1-2.74s.96-1.81.71-2.74c-.32-1.29-2.03-1.88-3.36-1.54s-2.02,1.3-3.1,1.98c-.81.51-1.95.92-2.9,1.08-1.57.28-3.03-.18-4.58-.2-1.81-.02-3.59.51-5.27,1.09-2.28.81-4.57,1.77-7,1.81-.98.01-2.08-.2-2.6-.99-.63-.97-.06-2.23.66-3.16,1.65-2.12,3.97-3.64,6.25-5.13,2.28-1.47,5.38-3.22,11.25-7.22,5.67-3.86,6-4.81,9.52-6.36,3.2-1.41,5.92-1.91,7.98-2.29,7.21-1.32,7.76-.06,12.63-.69,7.04-.92,13.59-5.62,20.01-8.35,2.27-.97,3.03.28,3.1,2.4.21,5.87-2.15,12.72-5.94,17.33-4.84,5.89-11.56,9.61-18.76,12.23Z"/>
        <path class="cls-1" d="m183.95,311.95c.25-.38.33-.86.29-1.32-.07-.63-.36-1.22-.62-1.8-1.87-4.04-2.94-8.43-3.12-12.85-.03-.75-.01-1.58.52-2.13.5-.52,1.31-.63,2.02-.48,3.21.68,6.45,3.51,8.85,5.54,4.37,3.7,8.27,7.89,11.61,12.46.97,1.32,1.96,2.74,3.47,3.49,2.12,1.06,4.07.38,7.01.1,2.14-.2,5.18-.25,8.96.43-.13.03-.32.1-.56.17-2.08.64-3.73,1.17-3.97,1.26-.74.24-3.86,1.28-5.84,3.24-2.81,2.78-2.87,6.92-2.84,8.41.05,3.04.56,6.12-.15,9.08-.12.48-.28.97-.64,1.31-.54.51-1.38.56-2.14.55-5.4-.09-10.75-1.99-14.88-5.31-3.62-2.89-6.38-6.84-10.6-8.86-2.42-1.16-5.1-1.58-7.69-2.21-2.42-.59-4.66-1.46-6.84-2.64-4.41-2.41-8.28-5.64-12.86-7.77-1.04-.48-2.11-.91-2.96-1.65-.85-.74-1.43-1.88-1.12-2.94.37-1.27,1.88-1.95,3.25-1.96s2.68.48,4.02.79c4.91,1.14,10.4-.12,14.9,2.08,3.55,1.73,6.23,4.54,10.62,3.74.35-.07.7-.16.99-.36.14-.1.25-.23.36-.38Z"/>
        <path class="cls-1" d="m454.07,318.42c-.2.05-.4.07-.61.09-1.46.13-2.95-.43-4.39-.1-1.84.4-3.01,2.08-4.55,3.13-2.98,2.03-7,1.51-10.65,1.46-6.06-.08-12.13,1.43-17.4,4.3-1,.55-2.02,1.16-3.17,1.29-1.15.14-2.48-.38-2.81-1.44-.36-1.14.99-2.55,1.88-3.4,4.75-4.52,29.19-24.19,32.02-26.47-.67,1.01-.81,1.91-.85,2.39-.03.42-.01.79.15,1.23.29.79,1.2,1.44,2.03,1.17.75-.24,1.07-1.05,1.47-1.69.54-.88,1.39-1.59,2.41-1.88s2.2-.08,2.96.62c1.35,1.23,1.01,3.34,1.57,5.04.5,1.53,1.82,2.8,3.42,3.27,1.04.3,2.17.28,3.19-.06,1.04-.33,1.69-1.24,2.67-1.57.76-.25,1.19.25.98.89-.26.79-1.15,1.67-1.64,2.37-1.08,1.55-2.15,3.11-3.24,4.66-1.38,1.99-3.06,4.17-5.45,4.68Z"/>
        <path class="cls-1" d="m382.47,344.73c1.43-1.32,3.06-1,5.39-2.66.29-.21,1.03-.74,2.1-.86.45-.06.94-.01,1.54.15,1.92.52,2.93,1.46,4.37,2.19.61.31,2.26,1.13,4.33,1.14,2.58.02,4.77-1.21,5.13-1.42,1.58-.9,2.27-1.75,3.24-1.61.73.1,1.3.61,1.91,1,.67.43,1.17.44,1.92.37.59-.06,1.28-.15,1.77.25.83.68-.24,2.03-.64,2.66-3.39,5.36-10.49,4.75-15.95,6.63-.03.01-.96.41-2.82,1.21-14.28,6.14-16.87,7.27-17.52,6.5-.74-.88,2.33-2.67,3.6-7.75,1.05-4.15-.23-6.07,1.64-7.8Z"/>
        <path class="cls-1" d="m290.17,412.4c.17-.21.35-.43.53-.63.05.05.1.1.15.15-.22.16-.44.33-.66.5,0,0-.02-.01-.02-.01Z"/>
        <path class="cls-1" d="m389.86,415.23s-.07.02-.07.03c-.03-.05-.06-.08-.09-.13.06.02.12.06.16.09Z"/>
        <path class="cls-1" d="m283.95,235.34c-5.15,8.52-6.34,9.97-7.5,12.06-.18.07-.47.15-.9.35-2.46,1.13-3.79,3.34-4.53,5.08.37-3.78.12-7.13-1.12-10.76-1.16-3.43-2.55-6.74-2.29-10.4.22-3.29,1.21-6.82-.15-10-.55-1.29-1.13-2.65-.44-4,.64-1.26,2.02-2.11,3.26-2.74,1.37-.69,2.83-1.24,4.04-2.15,1.29-.97,2.23-2.29,3.29-3.49.89-1,1.84-2.03,3.19-2.34,1.44-.32,2.88-.5,3.9-1.64,1.76-1.95,2.04-4.64,5.4-4.68,1.35-.01,2.68.58,3.55,1.57.93,1.06,1.28,2.48,2.03,3.66.75,1.19,2.25,2.2,3.57,1.66,1.21-.5,1.58-1.95,1.59-3.2.01-1.53-.28-3.04-.33-4.57-.18-4.93,4.04-9.03,5.4-13.64.35-1.2.55-2.46,1.3-3.48.75-1.01,2.28-1.65,3.36-.96,1.3.82.9,2.29,1.52,3.47.39.74,1.2,1.34,2.05,1.27,1.36-.12,1.97-1.62,2.73-2.71.99-1.39,2.87-1.64,3.86-1.8,1.74-.26,2.41.4,6.46,1.81,4.46,1.55,4.77,1.13,5.92,2.1,1.51,1.28,1.17,2.18,3.01,5.75,1.76,3.43,2.65,5.16,4.56,6.21,3.22,1.77,7.08.59,7.79.37,1.26-.39,2.46-.99,3.49-1.79,1.06-.84,1.62-2.11,2.71-2.94.59-.47,1.53-.7,2.26-.44.35.13.64.37.84.75.29.56.16,1.58.23,2.21.1.88.23,1.75.37,2.61.56,3.27,1.32,6.93,2.9,9.9-1.64.3-3.24.1-4.8.78-1.6.68-3.02,1.75-4.15,3.03-1.23,1.38-2.21,3.04-3.82,4.01-1.45,1.4-3.75,1.18-5.78,1.38-1.69.23-2.5.64-3.24,1-2.04.99-3.26,2.53-3.96,3.64-8.17-3.89-12.05-6.86-14.07-8.97h0c-6.1-2.93-5.29-3.28-6.91-3.66-.48-.12-1.2-.23-2.07-.2-1.93.08-3.32.89-3.78,1.19-.56.37-.99.74-1.26,1.01.01-.43.02-1.11.06-1.95.08-1.64.12-1.93.03-2.6-.1-.86-.44-1.74-1.14-2.29s-1.81-.68-2.51-.12c-.4.32-.61.81-.79,1.27-.81,1.96-1.62,3.9-2.43,5.86-.52,1.26-1.05,2.52-1.55,3.79-.21.51-.41,1.03-.41,1.57,0,.26.02.68.28.93.44.44,1.51.31,2.63-.35-.28.38-.68.94-1.17,1.62-1.13,1.54-1.69,2.38-2.29,3.05-1.01,1.12-2.11,2.17-3.27,3.13-2.29,1.9-4.85,3.5-7.59,4.73"/>
        <path class="cls-1" d="m332.09,185.29c-.08-.02-.16-.06-.24-.08-2.61-.67-4.71,1.26-7.2-.35-1.11-.71-2.11-1.67-3.4-1.99-1.66-.43-3.46.32-4.64,1.5-1.2,1.17-1.9,2.72-2.53,4.24-1.75,4.24-1.9,4.65-2.73,5.07-1.99,1-4.61-.44-5.86.24-.23.13-.39.29-.39.29-.21.3-.48,1.27-.48,1.27-.13.44-.36.94-.44.92-.08-.01-.08-.53.26-2.86,0,0,.41-2.58,1.28-4.23t.03-.06c1.73-3.31-.66-7.58,1.05-9.12.15-.13.47-.38,1.13-.86.78-.58,1.34-.97,1.42-1.03,2.05-1.46,3.93-12.93,4.91-15.02.08-.17.39-.71,1-1.13,1.34-.92,2.32.41,1.89,1.66-.24.73-.76,1.35-.96,2.08-.29,1.08.18,2.25.94,3.09,2.03,2.27,5.38,3.59,7.73,5.59,3.44,2.91,6.25,6.39,6.25,6.39.54.83,1.5,2.09,3.09,3.15,1.49,1,2.79,1.87,4.1,1.58,2.19-.49,1.89-3.67,5.39-7.07,1.14-1.11,2.6-2.49,4.07-2.2,1.99.39,2.86,2.63,3.19,4.55.29,1.69.52,3.47,1.77,4.79,1.44,1.52,3.12,2.86,4.8,4.12,3.63,2.72,7.54,5.55,12.13,5.93,8.07.67,13.94-5.8,17.29-12.01,1.75-3.25,3.25-6.65,5.42-9.64.26-.36.59-.75,1.05-.81.81-.09,1.28.84,1.37,1.61.33,2.86-1.06,5.61-1.52,8.45-.77,4.66.93,9.67-.93,14.05-.7,1.65-1.92,3.28-1.6,5.03.31,1.73,1.99,2.88,3.48,3.9,2.41,1.67,3.01,3.19,2.96,4.18-.06,1.59-1.7,3.25-2.46,4.01-.3.3-.52.5-.7.64-2.12,1.85-3.87,3.86-5.07,5.23-2.06,2.36-1.45,2.03-3.86,4.83-2.67,3.11-2.59,2.56-3.67,4.11-.91,1.3-1.51,2.49-2.19,2.38-.23-.03-.59-.23-.93-1.23-1.19-3.49.91-7.99,1.05-8.29,1.11-2.3,1.69-2.51,4.72-7.75.89-1.52,1.35-2.71,1.22-4.17-.13-1.38-1.47-2.94-2.84-2.93-1.24,0-2.14,1.3-2.56,1.91-.92,1.35-1.07,2.68-1.13,3.13-.73,5.71-4.95,10.03-5.51,10.61-1.76,1.84-2.89,2.14-3.49,2.22-1.39.21-3.24-.18-4.19-1.42-.17-.23-.69-.44-1.11-4.27-.38-3.57-1.76-3.52-3.46-8.56-.97-2.88-.83-3.82-1.21-5.64,0,0-.25-1.26-.79-2.74-.97-2.68-1.95-5.44-3.87-6.17-1.85-.73-2.79,1.12-7.95,2.51-2.95.81-4.77,1.28-6.51.4-1.87-.94-2.82-2.95-3.65-4.81-.83-1.88-1.66-3.77-2.49-5.64-.54-1.23-.93-3.05-2.43-3.6Z"/>
        <path class="cls-1" d="m267.69,221.76c.67,2.04.75,3.66.7,4.78-.07,1.49-.46,4.17-.64,6.37-.02.22-.06.7,0,1.34.08.98.33,1.69.43,1.97.18.52.71,2.26,1.76,5.74.97,3.2,2.28,6.93,1.36,10.27-.48,1.74-1.57,3.29-2.03,5.03-.12.41-.2.86-.46,1.21-.41.52-1.17.68-1.84.55-.67-.12-1.27-.46-1.85-.79-10.54-6.06-21.7-11.61-33.16-15.87-.77-.29-1.57-.59-2.12-1.16-1.17-1.24.14-3.86.43-5.26.44-2.15.75-4.34.92-6.53.3-3.8.08-7.46-.31-11.24-.17-1.65-.07-3.43.94-4.77.24-.32.59-.63.99-.63.51,0,.89.45,1.14.88,1.34,2.19,2.02,4.8,3.89,6.6,1.29,1.24,3.02,1.96,4.64,2.78,4.75,2.41,6.15,7.74,10.35,10.76,1.46,1.05,2.11-3.63,2.28-4.56.4-2.17.51-4.4.12-6.58-.61-3.39-2.37-6.43-4.26-9.29-1.84-2.81-3.65-5.64-5.47-8.47-.37-.56-.75-1.17-.73-1.84.02-.92.82-1.69,1.7-2.07,1.12-.47,2.42-.47,3.59-.15,3.95,1.07,7.3,5.06,9.78,7.99,1.37,1.62,2.68,3.32,3.79,5.11,1.16,1.9,2.64,4.54,4.05,7.85Zm-27.9,18.99c.24.12.48.25.71.39,1.91,1.19,3.66,2.59,5.21,4.2.44.46.88.94,1.45,1.23.24.12.62.27.9.1.4-.24.33-1.05.31-1.33-.22-2.35-3.37-7.43-3.84-8.2-1.67-2.71-3.85-5.09-5.55-7.79-.1-.15-.42-.67-.74-.62-.19.03-.3.24-.36.36-.69,1.36-.75,2.04-.75,2.04-.22,2.35-.9,3.77-.75,7.36.03.7.1,1.62.65,1.9.35.18.56-.07,1.6.05.6.07.98.19,1.17.29Z"/>
        <path class="cls-1" d="m267.75,221.95c-.45-.38-1.1-.98-1.75-1.81-1.91-2.44-1.42-3.8-2.76-6.42-1.13-2.21-2.8-4.17-5.25-6.5-.9-.85-1.91-1.8-1.92-3.01-.01-1.43,1.39-2.45,2.66-3.21,1.95-1.15,3.94-2.25,5.97-3.27,1.45-.73,3.19-1.43,4.64-.7.93.46,1.62,1.46,2.67,1.46s1.82-1.2,1.79-2.25c-.05-1.05-.59-2.02-.92-3.02-1.06-3.13.17-6.85,2.91-8.85,1.22-.89,2.81-1.45,4.3-1.08.93.23,1.75.79,2.65,1.12,1.7.6,3.65.26,5.23-.6,1.58-.85,2.81-2.18,3.86-3.59.68-.92,1.39-1.96,2.52-2.23,1.9-.47,3.54,1.41,5.47,1.73,1.87.31,1.91-.83,3.88-.61,1.34.15,2.42.7,3.69.26.6-.21,1.06-.48,1.06-.48.77-.46,1.24-1.03,1.31-.97.07.06-.41.47-.32.93.09.46.69.59.66.93-.02.23-.32.39-.4.44-.97.53-1.59,2.88-1.72,3.34,0,0-4.76,18.12-7.76,23.33-.35.61-1.11,1.88-2.26,1.96-.38.02-1.01.01-1.96-.94-1.22-1.23-1.99-2.81-3.13-4.1-1.14-1.3-2.91-2.34-4.62-1.9-1.96.51-2.86,2.6-3.63,4.4-2.26,5.27-4.22,7.54-6.35,8.88-4.23,2.63-10.27.91-10.62,2.51-.11.49.43.85.48,2.11.04.9-.18,1.65-.38,2.14Z"/>
        <path class="cls-1" d="m222.83,174.9c.02-.15.37,0,.74-.64.18-.32.7-.27,1.35-.33,1.14-.1,1.99.09,2.37,1.22.85,2.55,3.27,4.11,5,6.08,1.85,2.12,2.86,5.02,3.52,7.68,1.61,6.37.82,13.44-2.23,19.31-1.65,3.19-3.63,6.27-4.6,9.71-1.41,5.02-.53,10.32-.41,15.51.03,1.5-.01,3.05-.75,4.38-1.03,1.84-3.51,2.51-5.51,1.81-4.57-1.6-1.75-8.85-1.22-12.13.94-5.92,1.9-11.84,2.84-17.76.84-5.22,1.89-10.71,1.67-15.99-.13-3.17-1.6-14.92-2.49-17.05-.06-.16-.39-.89-.29-1.82Z"/>
        <path class="cls-1" d="m232.33,190.99c.48-.48,1.21-.74,1.84-.36.43.25.71.67.98,1.08,1.67,2.51,3.33,5.02,5,7.52,1.19,1.8,2.38,3.58,3.44,5.45.69,1.2,1.16,2.44,1.41,3.75.16.85.17,1.45.18,2.11.1,3.41.16,5.11.53,6.6.23.92.82,3.18,2.81,5.07.77.74,2.44,2.32,4.76,2.21.96-.05,1.7-.36,2.18-.61.13,1.68.17,3.12.18,4.26.02,1.45-.09,2.46-.39,3.72-.18.79-.5,1.64-1.21,2.07-.91.58-2.17.28-3.08-.31-2.14-1.39-2.97-4-4.53-5.97-2.41-3.05-4-2.53-7.27-5.68-1.5-1.45-3.44-3.8-4.91-7.56-.44-.82-1.12-1.31-1.72-1.22-.66.09-1,.89-1.15,1.26-.43,1-.18,2.3.31,4.87.08.44.13.63.18.84.12.46.18.61.3,1.31.24,1.52.21,2.73.17,3.5-.18,3.6-.9,5.83-1.2,9.26-.1,1.12-.2,2.76-.09,4.8-.79-.09-2-.33-3.32-1.01-.87-.45-1.46-.92-1.64-1.07-.13-.11-2.64-1.99-2.8-4.24-.17-2.44,1.32-4.45,2.07-5.45,1.69-2.27,2.72-8.09,4.77-19.73,1.15-6.51,2.05-11.6,1.58-13.22-.02-.09-.39-1.32.07-2.56.13-.25.3-.51.52-.73Z"/>
        <path class="cls-1" d="m244.53,211.9c-.89-4.24-3.21-7.95-5.34-11.72-.54-.96-1.17-2.45-.02-3.27.45-.32,1.13-.37,1.62-.66.67-.39,1.21-.97,1.7-1.53.84-.96,1.87-2.41,3.28-2.46,1.54-.06,2.61,1.39,2.94,2.68.5,1.95-.14,4.12-1.61,5.55-.75.73-1.75,1.36-1.95,2.36-.18.93.41,1.83.99,2.61,1.88,2.57,3.89,5.04,5.68,7.67,1.61,2.37,3.59,5.32,4.19,8.13.21,1,.08,2.12-.61,2.9-.85.98-2.4,1.2-3.67.86-2.96-.77-4.84-3.4-5.74-6.06-.73-2.14-.96-4.4-1.36-6.62-.05-.15-.07-.3-.1-.45Z"/>
        <line class="cls-1" x1="242.96" y1="195.69" x2="242.95" y2="195.68"/>
        <path class="cls-1" d="m321.93,294.44c-1.72-.84-3.19-2.07-4.02-3.72-1.89-3.71,1.3-8.71,4.16-13.07,1.43-2.2,3.71-5.61,7.96-8.82,4.53-3.42,8.41-4.43,12.3-5.86,9.32-3.43,16.18-7.69,20.28-11.63,7.12-6.84,12.3-15.35,19.96-21.71,5.13-4.24,11.82-8.34,12.2-14.81.25-4.27-2.45-8.1-4.19-12.04-11.1-25.06,15.27-48.6,39.64-51.39-5.46,62.93-6.56,85.87-6.13,92.72.06.88.32,4.46-.07,9.26-.17,2.2-.81,8.56-3.29,15.72-2.35,6.77-5.53,15.36-12.84,21.63-9.5,8.13-22.42,7.74-36.2,7.71-7.5-.02-18.89-.92-24.83-1.51-8.79-.86-9.51-1.42-12.98-1.04-.6.07-4.55.54-8.91-.38-1.02-.23-2.06-.58-3.03-1.05Z"/>
        <path class="cls-1" d="m96.69,197.87c0-1.46,1.01-3.03,2.53-3.17,1.29-.1,2.41.78,3.35,1.62,9.59,8.59,18.53,17.9,27.77,26.84,1.54,1.5,3.12,3.03,5.08,4s4.4,1.29,6.35.31c2.3-1.15,3.37-3.74,3.74-6.2.71-4.63-.46-9.49-3.16-13.38-2.82-4.08-5.23-8.52-5.63-13.52-.31-3.97.43-8.22,1.08-12.14.46-2.76.99-5.52,1.6-8.26.15-.69.32-1.42.77-1.97.9-1.12,2.6-1.27,4.07-1.06,4.48.64,8.05,3.56,11.71,5.86,4.26,2.68,8.96,4.08,14.09,4.2,4.68.12,10.03-.76,12.89,3.64,1.09,1.67,1.64,3.62,2.2,5.51,1.84,6.21,4.05,12.35,7.07,18.13,2.84,5.46,6.31,11,11.37,14.83.05.03.1.08.15.12,1.07.79,2.53,1.54,3.7.89,1.14-.64,1.2-2.19.96-3.43-.5-2.55-1.66-4.92-2.71-7.31-5.26-12.13-7.49-25.45-6.45-38.56.29-3.6.97-7.23,2.63-10.5.78-1.53,1.8-3.01,3.21-4.03,1.42-1.04,3.31-1.58,5.03-1.16,2.36.56,3.9,2.68,5.22,4.64,2.36,3.51,4.72,7.03,6.86,10.65,1.03,1.73,2.1,3.4,2.57,5.33.52,2.13.76,4.3.96,6.48.26,2.87.71,5.7.96,8.58.5,6.02.52,12.1-.47,18.08-.43,2.56-1.03,5.08-1.65,7.59-.62,2.52-1.64,5.19-1.79,7.79-.21,3.5,1.49,8.2,5.06,9.59,1.3.51,2.3.66,3.35,1.15,1.06.5,2.06,1.43,2.02,2.56-.09,2.42-3.71,2.35-5.42,1.81-2.7-.84-4.84-2.76-7.03-4.47-2.2-1.7-4.73-3.31-7.57-3.32-3.54-.01-6.47,2.59-8.24,5.52-1.22,2.03-2.1,4.19-2.87,6.4-.62,1.81-1.13,4.17-2.94,5.27-1.24.76-2.91.53-4.26-.07-1.9-.84-3.54-2.55-5.01-3.95-1.67-1.59-3.19-3.33-4.53-5.17-1.66-2.28-3.06-4.75-4.17-7.31-1.01-2.37-1.46-4.89-2.45-7.29-2.05-4.99-4.99-9.64-6.5-14.82-.92-3.18-1.27-6.5-2.23-9.67-.93-3.03-3.26-8.02-7.03-8.57-.53-.08-1.07-.02-1.58.1-3.16.77-4.89,4.24-4.69,7.35s1.88,5.93,3.5,8.63c4.04,6.74,8.22,13.94,8.25,21.93.01,4.53-1.49,9.16-4.73,12.45-1.69,1.72-4,3.08-6.46,3.03-2.18-.05-4.17-1.15-5.87-2.44-1.7-1.29-3.24-2.8-5.1-3.87-.94-.54-2.1-.97-3.12-.59-1.44.54-1.8,2.29-2.04,3.75-.39,2.27-1.04,4.5-1.92,6.65-.67,1.61-1.57,4.5-3.35,5.29-.78.35-1.74.13-2.45-.35-.71-.47-1.22-1.16-1.73-1.83-8.12-11.05-14.63-22.87-21.53-34.6-3.81-6.47-7.73-12.89-11.74-19.26-.82-1.29-1.66-2.65-1.72-4.16.05-.05.05-.09.05-.14Z"/>
        <path class="cls-1" d="m170.01,185.05c-2.28-6.15-3.36-12.69-3.46-19.21-.05-3.26.16-6.53.63-9.76.17-1.17.05-3.2,1.72-2.67,1.21.38,2.19,2.63,2.71,3.6,3.69,6.99,6.69,14.28,9.7,21.55,2.37,5.74,4.78,11.7,4.39,17.86-.07,1.04-.22,2.08-.7,3.01s-1.36,1.72-2.43,1.89c-1.47.25-2.9-.68-3.86-1.77-3.8-4.31-6.73-9.18-8.7-14.5Z"/>
        <path class="cls-1" d="m127.72,272.74c-.18-.3-.36-.61-.52-.92-1-1.88-1.72-3.89-2.88-5.68-.85-1.3-1.93-2.46-3.01-3.6-1.67-1.79-3.35-3.58-5.37-4.99-1.98-1.38-4.3-2.41-5.84-4.22-.3-.35-.58-.75-.61-1.21-.07-.89.79-1.6,1.67-1.9,1.76-.62,3.77-.23,5.41.62,2.71,1.39,4.5,3.93,7.15,5.41,2.03,1.14,4.4,1.58,6.58,2.42,2.72,1.04,5.14,2.67,7.68,4.08,1.89,1.05,3.87,1.97,5.68,3.13,2.59,1.66,4.84,3.81,7.57,5.26,4.7,2.51,10.79,3.01,14.18,7,1.85,2.19,2.53,5.08,2.9,7.88.3,2.28.44,4.58.41,6.88-.02,2.48-1,4.28-3.57,5.07-1.61.48-3.42.5-5.08.23-7.14-1.14-6.39-7.65-15.66-13.16-3.28-1.96-7.04-3.16-10.17-5.33-2.66-1.87-4.91-4.24-6.53-6.97Z"/>
        <path class="cls-1" d="m47.49,261.32c-1.85-1.85-3.46-3.37-5.91-4.83-.85-.51-1.91-1.17-4.2-2.17-2.08-.9-4.34-1.65-5.91-3.25-1.34-1.37-1.96-3.2-2.15-5.03-.13-1.24-.52-4.27,1.06-4.88.62-.24,1.24.2,2.08.61,3.89,1.91,8.78.98,12.92.69,5.24-.36,10.56-.4,15.72.7,4.16.89,8.13,2.51,11.75,4.68,1.74,1.05,3.43,2.23,4.66,3.8,1.42,1.79,2.26,4.04,2.61,6.24.41,2.6.88,5.24.78,7.89-.1,2.61-.78,5.29-2.42,7.39-1.43,1.83-3.57,2.98-5.75,3.92s-4.69.88-7.06.94c-.59-.01-1.2-.06-1.74-.29-.92-.4-1.42-1.12-1.58-1.32-.7-.97-5.42-5.68-14.88-15.1Z"/>
        <path class="cls-1" d="m82.76,227.61c3.82,1.2,7.49,2.75,10.84,4.89,1.11.7,2.23,1.54,2.68,2.74.46,1.22.13,2.57.06,3.87-.14,2.61.88,5.26,2.73,7.19,1.7,1.76,6.81,3.84,7.28,6.36.59,3.12-5.02.59-6.46.1-10.68-3.6-21.42-7.23-31.34-12.45-1.99-1.05-4.01-2.21-5.29-4.01-1.88-2.64-1.79-6.08-1.62-9.26.05-1.03.18-2.2,1.06-2.8.75-.51,1.76-.39,2.67-.25,5.83.9,11.78,1.87,17.39,3.62Z"/>
        <path class="cls-1" d="m67.56,277.73c1.17.07,2.37.15,3.52-.16,1.01-.28,1.92-.86,2.71-1.54,1.22-1.07,2.17-2.41,2.86-3.85.5-1.03.89-2.13,1.73-2.93s2.3-1.13,3.18-.37c.45.39.64.98.78,1.54.45,1.75.61,3.57.96,5.34.75,3.84,2.33,7.61,1.97,11.49-.08.86-.25,1.73-.61,2.52-.29.66-.93,1.37-1.64,1.13-.39-.13-.62-.52-.79-.88-.48-1.03-.84-2.21-1.82-2.83-.43-.28-.93-.4-1.43-.54-4.56-1.28-8.82-3.5-12.43-6.46-.37-.3-2.64-1.98-1.49-2.5.5-.22,1.44-.05,1.96-.02.2.02.37.03.54.05Z"/>
        <path class="cls-1" d="m493.1,280.97c-2.57,1.83-2.52,6.29-3.41,8.97-2.04,6.14-5.47,11.97-8.33,17.79-.77,1.59-1.57,3.33-1.15,5.03.39,1.59,1.77,2.78,3.19,3.71,4.95,3.26,11.16,4.55,17.1,3.71,2.59-.37,5.51-1.14,7.88-2.22,1.35-.61,2.57-1.89,3.71-2.81,1.26-1.01,2.49-2.05,3.71-3.11,9.77-8.49,18.23-18.22,26.12-28.31,8.7-11.13,16.61-22.71,24.87-34.13.38-.53.78-1.09.82-1.74.09-1.95-2.42-1.44-3.5-.89-4.25,2.14-8.06,5.07-11.17,8.57-3.39,3.8-6.29,7.98-10.07,11.47-4.87,4.5-10.98,7.69-17.38,9.81-7.18,2.37-15.38,4.18-22.98,3.7-4.73-.3-7.13-1.2-9.41.44Z"/>
        <path class="cls-1" d="m493.28,281.02c-.2.53-.4,1.08-.82,2.18-4.92,13.15-6.95,17.38-7.71,18.88-.68,1.36-2.04,3.87-2.55,4.8-.23.41-.45.82-.71,1.27,0,0-.44.76-.89,1.46-1.54,2.46-6.63,6.82-6.63,6.82-.67.56-2.55,2.6-6.17,6.77-2.63,3.02-5.23,6.06-8.12,8.85-2.2,2.13-4.65,5.04-8.12,4.63-2.12-.25-4.01-1.45-5.55-2.86-1.67-1.51-3.13-3.65-2.56-5.78.41-1.51,1.75-2.6,2.99-3.62,2.56-2.07,5.11-4.18,7.44-6.5,2.32-2.32,6.22-6.84,8.07-9.48,3.87-5.51,8.29-10.63,12.59-15.84,1.07-1.3,2.14-2.61,3.19-3.94,3.49-4.41,6.65-8.88,9.24-13.83,1.8-3.46,3.43-6.99,4.87-10.6.54-1.35.91-3.78,1.93-4.84,1.3-1.35,3.01.31,3.44,1.55.28.79.3,1.65.29,2.48-.1,6.15-2.12,11.9-4.24,17.59Z"/>
        <path class="cls-1" d="m516.62,310.16c0,1.68-.09,3.36-.71,4.93-.99,2.5-3.19,4.34-5.31,6.07-4.58,3.73-9.14,6.14-15.33,5.83-3.97-.2-7.84-1.27-11.67-2.34-1.79-.5-3.65-1.04-5-2.26-2.66-2.42-2.35-6.75-.35-9.7,1.99-2.95,5.24-4.86,8.3-6.78,8.44-5.31,16.31-11.41,24.15-17.52,2.37-1.84,4.75-3.69,7.12-5.53,1.35-1.05,2.83-2.15,4.57-2.21,4.79-.18,2.91,5.21.82,7.06-2.52,2.23-3.78,5.9-4.77,8.94-1.19,3.66-1.81,7.49-1.83,11.32-.01.73,0,1.46,0,2.19Z"/>
        <path class="cls-1" d="m478.1,313.69c.89-.97,1.28-1.05,2.03-1.85,1.59-1.72.39-4.48-2.06-3.73-1.99.6-3.88,3.46-4.96,5.01-2.73,3.94-4.42,8.58-7.74,12.15-3.32,3.58-8.02,5.77-12.7,7.23-5.34,1.67-10.93,2.55-16.25,4.27-3.33,1.08-6.29,2.72-7.52,5.45-.79,1.76,0,2.14-.56,3.97-1.47,4.81-7.71,4.42-9.03,8.05-1.6,4.39,6.58,7.56,5.61,13.86-.59,3.82-3.95,5.01-3.8,9.7.02.89.13,3.97,1.81,4.68,2.21.92,5.01-3.14,11.37-7.15,4.01-2.52,6.84-3.39,9.64-4.55,8.33-3.47,15.81-9.41,30.33-20.79,22.36-17.53,30.22-23.54,28.94-25.7-.77-1.3-4.8-1.09-8.02-.92-3.31.17-4.02.66-7.3.77-2.44.09-4.98-.18-7.13-1.29-.56-.29-3.83-2.27-3.83-5.39,0-1.19.22-2.71,1.19-3.77Z"/>
        <path class="cls-1" d="m297.99,348.93s-.91-1.98-.89-4.55c.37-33.04,8.75-48.14,8.75-48.14,2.78-5,3.94-10.71,6.56-15.78.7-1.36,2.99-5.6,1.29-7.66-1.19-1.43-3.48-1.66-5.24-.96-1.76.7-3.08,2.14-4.18,3.63-4.91,6.66-6.59,14.92-9.26,22.64-2.56,7.42-6.82,15.79-14.79,19.02-8.23,3.33-20.42,1.51-28.91-.28-6.95-1.45-12.31-3.21-17.52-8.12-3.9-3.67-7.37-7.88-12-10.67-4.99-3.01-10.96-4.15-16.11-6.88-11.44-6.06-18.66-19.42-22.47-30.92-.61-1.83-1.22-3.81-2.78-5.03-1.8-1.41-4.38-1.42-6.65-.98-2.14.41-4.34,1.28-5.59,3.01-1.37,1.91-1.26,4.51-.44,6.69.83,2.19,2.27,4.1,3.49,6.1.79,1.3,1.5,2.88.88,4.25-.98,2.12-4.25,2.21-6.3,1.99-9.4-1.01-17.26-6.98-25.86-10.78-5.1-2.25-10.6-3.79-15.21-6.84-5.67-3.75-8.98-9.26-10.68-15.54-.9-3.32-2.89-6.68-4.37-9.84-1.62-3.47-3.31-6.91-5.07-10.32-3.56-6.91-6.83-13.77-8.13-21.47-.2-1.14-.15-2.64.99-3.03.98-.35,1.97.46,2.66,1.22.99,1.11,2.15,2.22,3.05,3.39,2,2.56,2.86,6.17,4.12,9.1,1.39,3.21,2.9,6.38,4.51,9.49,3.34,6.5,7.05,12.84,11.41,18.76,1.07,1.45,2.35,2.98,4.17,3.33,2.59.48,4.84-1.6,6.9-3.18,2.51-1.92,5.59-3.32,8.8-3.35,3.21-.02,6.54,1.51,8.03,4.24.64,1.2.92,2.55,1.36,3.82.44,1.28,1.09,2.57,2.27,3.32,1.04.67,2.11.63,3.06.21.81-.36,1.51-1,2.03-1.74,1.95-2.8,2.26-6.65,3.06-9.86.89-3.56,1.22-7.39.88-11.03-.55-5.89-3.43-11.87-8.73-14.92-2.66-1.52-6.09-2.56-7.16-5.33-1.01-2.65.73-5.53,2.8-7.53,2.71-2.61,6.28-4.61,10.12-4.76,5.75-.21,9.11,7.3,11.93,13.12,5.77,11.89,9.81,30.27,12.99,36.54.29.56,1.59,3.05,4.34,4.77,1.07.67,1.95,1.21,2.98,1.04,1.6-.26,1.96-1.98,4.54-5.51,1.82-2.49,2.75-3.73,3.99-3.84,1.97-.17,4.03,1.19,4.88,4,1.26,4.16,1.58,7.62,4.92,10.96,2.34,2.34,5.45,4.11,6.9,7.04,1.23,2.49,1.05,5.38,1.49,8.1,1.12,6.78,6.27,12.45,12.37,16.07,3.74,2.21,7.85,3.77,12.04,5.06,2.29.7,7.03,2.99,9.48,2.56,4.13-.74,5.79-8.57,6.67-11.6,1.58-5.52,3.25-11.01,5.22-16.41,3.87-10.67,8.94-21.07,16.47-29.84,2.58-2.46,4.81-5.19,7.52-7.57,1.54-1.36,6.07-6.29,8.25-6.18.51.02.89.17,1.14.43,1.59,1.57-4.34,6.43-6.03,14.57-.43,2.07-1.29,6.53,1.1,10.18,1.11,1.69,2.57,2.68,3.82,3.38,9.54,5.32,29.74,6.52,38.82,1.96,4.46-2.24,8.02-6.94,8.22-7.34.69-1.43.79-1.98,2.75-6.91.23-.59.48-1.24,1.06-1.41,1.75-.5,4.56,4.1,5.13,5.02,2.21,3.51,6.08,9.51,3.12,14.58-.83,1.64-2.29,3.11-4.58,4.28-3.21,1.65-6.88,2.21-10.35,3.25-10.45,3.11-19.2,10.77-23.46,20.4-.92,2.07-1.53,4.75.09,6.38,1.45,1.46,3.95,1.29,5.91.56s3.79-1.89,5.87-2.11c8.23-.88,12.47,11.15,21.4,6.33,2.9-1.57,4.66-4.48,6.66-7.04s4.76-5.03,8.1-4.99c4.15.06,6.93,3.58,10.09,5.63,4.3,2.79,7.03,1.8,11.08-.92,2.56-1.72,7.23-2.84,8.17,1.28,1.2-1.35,2.49-2.76,4.25-3.28,3.63-1.08,4.51,1.87,4.09,4.53-1.3,8.06-4.63,15.92-7.21,23.66-.48,1.44-1.27,3.13-2.84,3.31-1.61.17-2.79-1.41-4.28-2-2.58-1.03-5.29,1-7.99,1.67-5.92,1.45-12.04-3.75-17.92-2.15-3.46.94-5.75,3.96-8.11,6.55-2.36,2.59-5.64,5.1-9.17,4.46-2.91-.54-4.91-3.03-6.99-5.06-2.89-2.81-6.31-3.49-10.17-2.25-2.64.84-4.92,2.46-6.97,4.26-9.23,8.12-14.19,20.57-12.54,32.5.33,2.4.91,4.8.61,7.2-.43,3.39-3.73,7.23-7.53,5.21-1.5-.79-2.68-2.1-4.23-2.81-3.85-1.79-6.17-1.91-10.77-3.03-1.01-.24-1.08-.32-10.58-4.7-3.19-1.47-10.08-4.64-15.47-8.97-1-.79-2.51-2.15-2.74-4.1-.17-1.38.51-2.75,1.38-3.87.7-.9,1.61-1.74,2.75-1.99,1.39-.31,2.83.28,4.04,1,2,1.19,3.74,2.78,5.09,4.62.86,1.2,1.59,2.51,2.67,3.52.41.39.89.73,1.38,1.03,3.14,1.88,7.16,1.92,10.39,3.69,1.72.93,3.12,2.3,4.79,3.32,1.29.78,2.73,1.35,4.23,1.66.83.17,1.79.24,2.46-.25.66-.47.86-1.34.9-2.12.1-2.36-.51-4.28-.85-5.04-.09-.19-.22-.41-.22-.41-.16-.3-.3-.54-.39-.7Z"/>
        <path class="cls-1" d="m271.03,337.74c1.39-2.08.31-4.73-1.08-8.79-4.08-11.85-3.05-13.2-2.58-13.6.64-.54,1.59-.52,3.43-.09,4.81,1.11,9.62,2.32,14.42,3.47,4.72,1.14,7.09,2.07,10.25,3.95,1.6.96,2.35,1.61,2.66,1.88,4.34,3.92,4.28,8.96,3.8,9.66-.13.17-.26.33-.26.33-.25.24-.54.36-1.07.7-3.34,2.21-3.93,6.8-3.06,10.6,1.12,4.87,3.39,5.86,3.49,11.16.03,1.96.07,3.5-.94,4.17-2.1,1.37-7.18-1.82-13.56-5.84-1.32-.84-1.12-.75-1.93-1.24-5.23-3.14-7.5-2.96-10.68-5.51-1.77-1.43-1.13-1.53-3.01-3.1-2.91-2.43-5.72-3.21-8.36-4.1,0,0-12.59-4.2-17.98-11.15-.22-.28-.81-1.04-.54-1.55.35-.66,1.89-.53,2.44-.48,1.51.13,11.43,1.35,18.15,8.83.74.82,2.17,2.53,3.89,2.38,1.45-.12,2.4-1.49,2.52-1.68Z"/>
        <path class="cls-1" d="m397.96,268.98c-.12-.61-.07-1.22.24-1.77.7-1.22,2.35-1.51,3.79-1.7s3.1-.58,3.69-1.84c.41-.9.13-1.93-.07-2.91-.18-.97-.21-2.12.56-2.78.78-.66,2.04-.48,2.89.08.85.56,1.44,1.43,2.12,2.19.67.76,1.53,1.47,2.58,1.54,1.03.07,1.99-.52,2.63-1.29,1.14-1.39,1.47-2.12,2.42-3.51,1.35-2,3.72-3.99,4.61-3.54.67.33.43,1.98,0,5-.3,2.06-.67,3.6-.82,4.23-.96,3.97-1.44,5.97-2.07,8.04-1,3.29-1.6,5.06-2.68,7.44-.97,2.11-1.74,4.41-3.95,5.64-2.25,1.24-5.04.81-7.59.33-1.51-.29-3.16-.63-4.15-1.76-1.07-1.22-1.08-2.95-1.24-4.54-.23-2.12-.85-4.22-1.83-6.13-.44-.86-.94-1.81-1.12-2.72Z"/>
        <path class="cls-1" d="m191.68,275.51c.03.28.08.54.12.82.12.92.24,1.87.71,2.67s1.39,1.45,2.36,1.34c2.78-.35,2.19-4.58,1.85-6.39-.35-1.91-1-3.75-1.47-5.63-.3-1.2-.53-2.5-.06-3.65.83-2.04,3.71-2.86,5.54-1.54,1.28.91,1.9,2.43,2.26,3.92s.47,3.03,1.04,4.46c.96,2.42,3.04,4.26,4.41,6.5,1.01,1.65,1.7,3.59,3.35,4.68,1.7,1.13,3.71.98,5.66.96,2.02-.01,4.07.52,5.7,1.66,2.04,1.41,3.4,3.75,3.35,6.16-.05,2-1,4.03-.45,5.97.35,1.21,1.26,2.2,2.22,3.05s2.03,1.61,2.84,2.59c1.46,1.75,1.8,4.53.31,6.35-.67.82-1.54,1.43-2.42,2.04-.96.67-1.92,1.35-2.88,2.02-1.45,1.01-2.7,2.05-4.56,2.25-1.41.15-2.83-.08-4.2-.43-1.58-.39-3.12-.92-4.65-1.44-1.43-.5-2.99-1.11-3.14-2.71-.17-1.73-1.05-3.64-1.76-5.21-1.55-3.37-4.03-6.14-6.4-9.01-.98-1.19-2.1-2.33-3.52-2.98-.81-.38-1.68-.59-2.45-1.03-1.39-.77-2.26-2.12-2.96-3.46-.71-1.37-1.66-2.71-2.86-3.74-1.16-1-2.68-1.72-4.25-1.62-.86.05-1.8.41-2.17,1.16-.29.59-.18,1.28.01,1.89.62,2,2.12,3.67,3.82,4.99.63.48,1.31.96,1.73,1.62.41.67.46,1.62-.13,2.15-.47.44-1.23.47-1.85.25s-1.13-.63-1.62-1.05c-1.29-1.08-2.57-2.15-3.92-3.16-1.28-.94-2.36-2.23-3.58-3.26-5.25-4.41-11.21-7.81-16.79-11.79-1.42-1.01-2.97-1.52-3.7-3.21-.5-1.15-.55-2.43-.47-3.67.2-2.72.96-5.22,2.52-7.51.64-.93,1.31-1.85,2.08-2.7.69-.75,1.03-1.89,1.49-2.79,1.06-2.06,2.27-4.05,3.86-5.79,2.29-2.5,5.49-4.42,8.97-4.55,2.13-.08,4.42.63,5.67,2.29.98,1.31,1.17,2.99,1.51,4.57.61,2.93,1.75,5.72,3.11,8.4,1.21,2.37,2.64,4.65,3.88,7.01,1.09,2.1,1.58,4.3,1.9,6.56Z"/>
        <path class="cls-1" d="m261.43,313.33c.82.16,1.64.33,2.45.52,1.62.36,3.29,1.05,4.35,2.33.44.53.77,1.03.88,1.72.09.55.07,1.13.15,1.68.08.56.26,1.12.53,1.61.3.56.7,1.07.97,1.65.67,1.49.26,3.16.12,4.7-.16,1.73.24,3.47.61,5.15.52,2.38,1.27,4.76,1.28,7.19.01.99-.17,2.1-1,2.68-.7.5-1.69.47-2.51.17-2.93-1.05-3.5-4.33-5.54-6.25-1.46-1.38-3.5-2.06-5.53-2.42-2.03-.36-4.09-.41-6.12-.78-6.25-1.14-10.85-5.36-13.68-10.67-1.84-3.44-2.84-7.27-3.14-11.11-.03-.46-.06-1.09.35-1.43.51-.41,1.22-.06,1.76.07.75.17,1.59.16,2.35.23,1.57.16,3.13.32,4.69.5,5.71.64,11.43,1.36,17.05,2.48Z"/>
        <path class="cls-1" d="m151.9,302.95c4.98,2.32,15.52,7.61,20.43,10.03,4.92,2.42,10.18,4.4,15.69,4.78.71.05,1.61-.03,1.88-.68.16-.4-.01-.85-.18-1.24-.88-1.92-1.99-3.74-3.32-5.41-.89-1.12-1.91-2.26-2.11-3.65-.15-1.01.16-2.04.47-3.03.63-2.02,1.26-4.03,1.89-6.05.26-.85.53-1.77.23-2.6-.39-1.08-1.44-1.58-2.27-2.05-1.79-1-3.21-2.51-4.89-3.67-4.93-3.41-7.61-7.22-11.85-9.19-.71-.33-1.91-.81-2.78-.32-.64.37-.93,1.11-1.05,1.81-.1.62-.1,1.22-.03,1.82.33,2.67,2.04,4.57,2.41,6.9.39,2.46-.46,5.46-2.23,6.15-.85.33-1.74.06-2.15-.09-4.88-1.73-11.63-8.47-13.51-10.3,0,0-5.16-5.06-14.21-9.49"/>
        <path class="cls-1" d="m199.35,290.34c1.67,2.63,2.99,5.46,4.47,8.18.97,1.77,1.98,3.52,3.21,5.15,1.17,1.55,2.95,2.76,3.6,4.58.55,1.52.63,3.42,2.05,4.27.86.52,1.97.46,2.98.33,1.01-.13,2.08-.3,3.04.06,2.33.85,1.24,3.32-.68,3.82-2.07.55-4.15,1.08-6.23,1.6-1.62.4-2.9.48-4.26-.68-.98-.84-1.61-1.96-2.3-3.03-7.91-12.2-24.83-19.4-25.76-35.29-.1-1.74.01-3.57.9-5.09,1.49-2.55,5.26-3.31,7.05-.62.61.91.91,1.98,1.32,2.98,1.84,4.4,5.95,7.51,8.9,11.32.62.77,1.19,1.58,1.7,2.41Z"/>
        <path class="cls-1" d="m300.57,253.47c-6.07-2.59-7.94-4.77-8.42-5.38-.45-.55-.74-1-.84-1.17-1.14-1.82-1.84-4.08-1.61-9.64.21-4.96.14-7.56,1.59-9.57,1.23-1.7,2.88-3.09,4.48-4.49,2.63-2.3,5.32-4.48,7.53-7.19,2.19-2.67,5.1-6.81,9.03-6.91,2.07-.06,4.07.75,5.8,1.82s3.27,2.43,4.91,3.64c5.66,4.18,7.66,3.7,14.2,8.95.66.53,1.76,1.43,3.05,2.65,1.99,1.87,3.91,4.3,7.67,9.1,1.22,1.55,1.62,2.24,1.91,3.32.52,1.89-.71,3.59-1.45,5.26-.86,1.98-2.02,3.89-3.77,5.28-1.72,1.36-3.86,2.1-5.91,2.91-6.1,2.43-12.01,5.82-18.61,6.22-5.89.36-11.62-1.72-17.09-3.82-1.03-.38-1.64-.61-2.48-.97Z"/>
        <path class="cls-1" d="m342.46,224.55c-.55.92-.82,1.27-1.45,1.52-.29.08-.54.1-.71.1-.6-.55-1.24-1.12-1.92-1.68-.98-.82-1.93-1.54-2.87-2.2.48-1.04,1.43-2.59,3.21-3.7,1.59-.99,3.28-1.27,4.43-1.46.56-.09,1.21-.2,2.07-.22,1.03-.02,1.3.09,1.87-.01.86-.16,1.44-.67,2.13-1.34,2.45-2.42,2.5-3.4,4.3-4.72.83-.61,1.62-.99,2.27-1.3,1.14-.54,1.97-.94,3.13-1.08.86-.1,1.58-.02,2.05.06.22.13.58.37.71.76.21.59-.15,1.2-.31,1.46-.24.4-4.81,7.88-5.66,9.48-.59,1.12-1.05,2.29-1.05,2.29-.09.24-.2.48-.29.76-1.22,3.42-1.42,6.58-1.89,8.85-.01.08-.07.32-.1.66-.05.4-.08.97-.01,1.6.1.88.18,1.65.78,1.97.64.35,1.61,0,2.14-.48.21-.18.33-.39.41-.53,1.98-.6,3.99-.67,5.99-.1.17.66.32,1.42.36,2.28.01.25.01.51,0,.74-.21.82-.48,1.43-.68,1.8-1.13,2.15-3.17,3.65-3.44,3.86-.69.5-.94.58-1.04.91-.29.98,1.25,2.15,2.01,3.73.43.89,1.13,1.81,2.11,3.14.23.32.48.6.73.84.17.18.35.37.52.55-1.42.68-2.7,1.64-4.31,1.92-.78-4.77-2.64-10.77-7.15-16.23-.56-.69-1.15-1.34-1.74-1.93-.9-1.19-1.81-2.38-2.74-3.58-1.02-1.33-2.05-2.63-3.07-3.92"/>
        <path class="cls-1" d="m299.77,212.28c1.81-2.81,2.52-4.69,2.81-5.95.09-.41.32-1.5,1.19-1.95.66-.35,1.42-.17,1.64-.13.1.02,1.11.26,1.69,1.15.38.56.41,1.13.44,1.72.02.64.05,1.29.05,1.93,0,.82.18,1.68-.21,2.45-.25.5-.7.85-1.08,1.26-.44.47-.84.98-1.24,1.47-.82,1-1.05,1.38-1.83,2.27-.89,1-1.35,1.51-2.04,1.92-.1.06-2.14,1.26-2.86.64-.35-.3-.24-.91.47-3.44.38-1.35.71-2.49.98-3.35Z"/>
        <path class="cls-1" d="m394.16,214.86c.09-.06.17-.12.26-.17.98-.68,1.58-1.74,2.36-2.61,1.08-1.2,2.51-2.07,3.63-3.22,1.15-1.2,1.96-2.66,2.99-3.94,2.67-3.29,6.9-5.4,8.74-9.18.91-1.87,1.19-4.05,2.58-5.63,1.23-1.39,3.28-2.08,5.15-1.73,2.72.51,4,2.59,4.25,5.03.31,2.88.14,5.77-.14,8.64-.13,1.27-.15,2.57-.5,3.79-.38,1.37-.7,2.75-.96,4.15-.2,1.11-.37,2.22-.77,3.27-1.62,4.22-6.29,5.67-9.89,7.95-2.83,1.8-5.19,4.3-6.66,7.23-.62,1.26-1.09,2.59-1.9,3.74-.84,1.2-2.02,2.13-3.14,3.08-1.14.96-2.04,2.13-3.17,3.08-5.53,4.58-15.56,1.55-17.49-5.08-.18-.63-.3-1.31-.06-1.92.17-.43.5-.78.82-1.12,3.54-3.71,6.99-7.3,9.71-11.63.6-.96,1.2-1.97,2.14-2.63.66-.44,1.39-.69,2.04-1.08Z"/>
        <path class="cls-1" d="m273.12,262.99c.77,1.6.78,3.09.52,5.83-.22,2.32-.54,4.64-1.45,6.8s-2.48,4.12-4.66,5.14c-1.34.62-2.89.89-3.96,1.87-2.27,2.1-.91,5.71-1.39,8.68-.59,3.57-4.47,6.33-8.21,5.83-3.24-.44-5.71-2.82-8.29-4.75-2.57-1.92-6.07-3.5-9-2.12-1.23.59-2.15,1.61-3.27,2.37s-2.66,1.23-3.84.56c-.64-.37-1.05-1-1.43-1.61-2.63-4.2-5.26-8.41-7.89-12.61-3.17-5.04-4.77-7.39-6.37-10.26-1.41-2.51-3.14-5.92-4.92-10.1-2.96-6.99-4.45-10.61-4.24-15.44.13-3.14,1.04-8.13,2.97-8.41,1.82-.26,2.78,3.87,7.36,8.53,2.96,3.01,2.74,2.74,9.69,6.73,5.33,3.05,11,6.45,13.44,11.93.71,1.6,1.54,3.66,3.36,3.74.97.05,1.97-.73,2.46-1.5.16-.25.36-.66.46-2.81s-.07-2.3.12-3.05c.35-1.39,1.17-1.68,2.07-2.96,1.96-2.81.55-5.09,1.84-5.78,1.09-.59,2.22.98,7.8,3.66,2.9,1.41,4.85,2.2,4.85,2.2,3.18,1.38,3.7,1.49,6.28,3.01,4.77,2.81,5.42,3.96,5.7,4.53Z"/>
        <path class="cls-1" d="m251.54,251.16c1.77,2.56-1.83,3.59-3.52,4.42-1.8.88-3.05,2.72-3.16,4.65-.15,2.65,2.11,6.12-.13,8.41-.91.93-2.44,1.2-3.7.76-1.14-.39-2.03-1.26-2.75-2.18-1.24-1.55-2.14-3.33-3.21-4.99-1.11-1.7-2.43-2.96-3.99-4.27-3.64-3.1-7.87-5.46-11.7-8.32-4.65-3.47-8.67-7.77-11.43-12.77-.4-.74-.75-1.72-.14-2.32.44-.43,1.15-.4,1.77-.32,2.88.37,5.64,1.3,8.36,2.29,9.84,3.56,19.36,7.84,28.95,11.94,1.29.56,3.7,1.32,4.63,2.68Z"/>
        <path class="cls-1" d="m236.86,240.78c-.17-.17-.32-.36-.46-.56-.73-1.14-.53-2.59-.3-3.92.35-2.03.69-4.06,1.03-6.09.11-.63.23-1.41.76-1.63.53-.22,1.2.21,1.76.64,2.06,1.59,3.2,3.75,3.58,4.35,1.44,2.28,2.68,4.69,3.71,7.16.31.76,2.87,6.25.89,6.21-.37-.01-.69-.22-1-.41-2.45-1.59-5.01-3.04-7.66-4.32-.82-.4-1.68-.81-2.3-1.43Z"/>
        <path class="cls-1" d="m382.51,279.09c-3.08-1.51-4.08-5.13-4.12-5.3-.59-2.44-.13-4.92-.97-7.35-.21-.59-.51-1.22-1.09-1.46-.69-.3-1.52.06-2.06.56s-.91,1.17-1.44,1.69c-1.21,1.19-3.05,1.51-4.78,1.68s-3.55.28-5,1.19c-1.93,1.22-3.42,3.32-5.98,1.84-1.75-1.01-2.38-2.81-2.59-3.46-.61-1.91-.21-3.5,1.05-7.56,1.62-5.22,2.45-7.83,3.26-8.32,1.17-.7,4.4,0,10.79,1.43,5.07,1.14,7.04,1.74,8.09,2.08,1.91.62,3.93,1.27,6.31,2.38,1.23.58,6.38,3.11,11.54,8.26,1.7,1.7,3.29,3.6,4.08,5.84.67,1.91.68,4.07-.26,5.89-1.04,1.99-1.52,4.38-2.14,6.53-.09.32-.21.67-.48.89-.36.28-.9.22-1.29,0s-.69-.58-.98-.91c-1.21-1.38-2.25-2.53-3.73-3.33-.26-.14-.58-.3-1.82-.71-4.18-1.43-5-1.21-6.37-1.88Z"/>
        <path class="cls-1" d="m302.07,319.38c.58,1.58,1.51,3.02,2.63,4.31.5.56,1.03,1.12,1.34,1.8.5,1.08.13,2.52-1.09,2.99-.85.33-1.72-.09-2.42-.54-1.23-.77-2.33-1.76-3.49-2.63-2.58-1.92-5.31-3.54-8.33-4.77-1.64-.67-3.32-1.23-5.02-1.72-4.68-1.31-9.52-1.99-14.36-2.51-1.11-.12-2.29-.25-3.32-.69-.83-.36-1.59-.98-1.85-1.81-.21-.63-.06-1.43.53-1.8.59-.36,1.35-.18,2.03-.06,3.19.6,6.09-.37,8.95-1.65,2.7-1.2,5.23-2.73,7.53-4.53,3.44-2.67,6.36-5.94,8.55-9.63,1.82-3.05,3.04-6.46,1.75-9.92-.66-1.75-1.8-3.32-3.14-4.65-.82-.82-1.76-1.62-2.05-2.73-.33-1.32.43-2.73,1.54-3.59,1.13-.88,2.46-1.14,3.75-1.69,1.32-.56,2.72-.98,4.11-1.39,2.28-.69,4.58-1.31,6.92-1.81,2.99-.63,6.23-1.21,9.28-.62,1.09.21,2.26.67,2.73,1.65.45.96.07,2.06-.32,3.04-.33.82-.67,1.62-1.03,2.43-.28.63-.4,1.31-.7,1.92-.75,1.57-1.65,3.08-2.44,4.62-1.58,3.05-3.01,6.15-4.53,9.21-1.53,3.1-2.94,6.25-4.22,9.46-.61,1.54-1.06,3.12-1.7,4.64-.7,1.66-1.36,3.35-1.79,5.09-.54,2.25-.69,4.62-.07,6.84.07.24.15.48.23.73Z"/>
        <path class="cls-1" d="m297.51,222c.1-.15.22-.3.32-.44-.1.14-.22.29-.32.44Z"/>
        <path class="cls-1" d="m194.01,342.4c.3.33.58.7.82,1.07,1.75,2.74,2.18,6.02,2.46,9.16.28,3.1.39,6.29,1.46,9.25.01.05.03.08.05.13,2.51,6.7,7.3,12.66,13.64,16.45,7.65,4.57,16.91,5.97,25.93,6.36,13.64.6,27.28,1.06,40.85,2.57,6.93.77,13.73,1.99,20.57,3.24,5.04.92,9.93,2.32,11.83,7.5,1.21,3.31.67,6.99,1.75,10.33,1.64,5.03,6.82,8.45,12.22,9.55,5.39,1.09,11,.25,16.4-.84,3.5-.71,7.09-.64,10.53-1.42,3.99-.9,7.92-2.42,11.62-4.08,7.47-3.35,14.36-7.94,20.21-13.52,7.35-7.01,13.8-15.59,17.05-25.11.78-2.29,1.53-4.78,1.68-7.21.13-2-.77-3.56-.69-5.52.17-4.31,4.51-8.14,8.78-8.78,7.34-1.09,12.75,5.89,13.56,6.97,4.68,6.24,3.27,13.43,2.91,15.27-1.28,6.58-5.34,10.95-7.81,13.45-13.01,13.16-23.96,24.23-43.99,31.42-25.7,9.23-48.45,5.92-59.38,3.9-4.1-.76-8.18-1.61-12.24-2.5-16.8-3.64-33.6-7.68-49.59-13.89-15.68-6.07-29.65-15.18-45.74-20.35-15.93-5.11-32.51-8.04-48.45-13.08-14.57-4.61-28.51-11.02-41.39-18.99,0,0-8.42-4.34-18.49-13.1-3.04-2.64-10.19-8.94-8.78-11.34.77-1.31,3.95-1.21,4.19-1.2.9.03,1.91.25,4.37,1.5,2.98,1.52,4.62,2.73,4.62,2.73,11.96,9.76,15.74,12.85,20.77,13.26.43.03,5.61.39,6.67-1.76.25-.52.31-1.15.08-1.95-.32-1.13-1.36-1.96-2.46-2.45-1.11-.51-2.31-.76-3.44-1.21-4.54-1.81-7.18-6.61-7.51-11.3-.35-4.94,1.65-9.28,3.14-13.86.66-2.03,1.19-4.81,3.09-6.18,5.36-3.86,10.98.56,13.26,5.21,3.99,8.13,8.79,15.87,14.35,23.1,2.89,3.74,10.61,13.28,18.23,12.12.44-.07.86-.28,1.28-.44.91-.36,1.8-.75,2.68-1.14,2.95-1.29,5.89-2.58,8.8-3.95.53-.25,1.06-.48,1.61-.7,1.91-.74,4.09-1.14,6.01-.43.98.38,1.82,1.01,2.51,1.77Z"/>
      </g>
    </g>
    <path class="cls-1" d="m361.73,252.52c-.26-.12-1.75-.86-1.84-1.92-.03-.4-.55-.13-.87-.7-.08-.15.11-.69-.1-.83-.52-.35-.87-.86-1.42-1.16-.96-.52-1.54-1.59-1.44-2.64.13-1.28,1.09-1.88,2.1-2.55,1.2-.79,2.22-1.79,2.97-2.99.58-.94.98-2.1.55-3.11-.51-1.22-2.1-1.77-3.46-1.59-1.68.23-4.43,3.08-5.91,1.01-.59-.82-.54-1.9-.44-2.9.51-5.14,2.05-10.12,4.5-14.72,1.24-2.33,2.71-4.55,4.32-6.67.45-.6.61-1.17,1.3-.86.45.2.85,1.08,1.06,1.49.56,1.11.82,2.36.96,3.57.36,2,.39,4.06,1.04,5.9.81,1.84,2.72,3.46,4.79,3.18,1.37-.18,2.48-1.14,3.36-2.17,3.28-3.81,3.95-8.7,6.22-12.98.43-.79.92-1.6,1.69-2.11,1.77-1.2,3.89.05,4.22,1.95.66,3.85-3.24,7.88-5.07,10.98-1.53,2.59-2.64,5.69-1.7,8.53.01.05.53.97.77,2.23.12.62.09.9.06,1.05-.18,1-1.11,1.62-1.3,1.77-2.75,2-12.76,19.76-16.35,18.23Z"/>
  </g>
  <path class="cls-1" d="m226.11,326.05l-18.29-25.49-16.64-31.69-9.24-35.12-13.42-52.91-1.36-5.5-.73-4.14c-.1-.59-.17-1.18-.2-1.77l-.2-4.36v-1.03s.4-5.67.4-5.67l.64-4.9c.03-.22.19-.4.4-.45l1.65.33c.23.05.46-.12.48-.36l.71-7.96c.02-.19.06-.38.12-.56l1.16-3.5c.11-.33.23-.65.37-.97l3.25-5.82,2.63-4.51c.09-.16.19-.33.27-.5l2.53-4.79,2.27-5.33c.24-.56.44-1.14.6-1.73s.34-1.22.59-1.8l.73-1.73c.14-.32.24-.66.31-1l1.81-3.51,1.06-1.27c.65-.77,1.47-1.38,2.39-1.78l1.41-.61c.46-.2.96-.3,1.47-.29l4.42.89c.3.06.59.14.89.23l3.68,1.56,5.18,2.37c.31.14.62.27.93.39l5.49,2.36,7.79,4.07,6.98,3.87,7.46,4.64,7.83,5.81,6.03,4.6,4.64,4.14c.16.15.32.3.47.46l1.36,1.49,1.56,1.74"/>
  <path class="cls-1" d="m226.18,239.89l-4.36-14.06,3.43-18.22,1.85-16.37-4.23-17.43,19.28-3.7,10.04-6.34,4.62-17.4,2.18-4.79.96-2.81,1.42-3.37,1.39-2.85c.2-.41.43-.8.69-1.17l2.23-3.14s.02-.03.03-.05l1.89-2.05c.17-.18.36-.35.57-.49l1.33-.91c.5-.34,1.08-.56,1.69-.62l1.26-.13c1.12-.12,2.25-.03,3.33.27l3.79,1.05,10.12,16.27,23.5,7.66,6.87,11.88,2.15,8.38,11.59-4.42,5.02,2.38,6.34,3.43,10.04-6.07,8.98-9.51,7.39,3.96,9.24,4.23,7.39,1.85,1.32,6.87-1.96,6.95"/>
  <path class="cls-1" d="m275.69,124.37l-1.38-2.31c-.26-.47-.48-.98-.65-1.49l-.56-1.74c-.12-.38,0-.79.28-1.05l.34-.31c.42-.38,1.01-.52,1.56-.38l1.58.41c.54.14,1.06.33,1.56.57l3.21,1.57,4.04,1.97c.42.21.87.34,1.33.41l2.17.32c.87.13,1.76,0,2.55-.39l1.18-.57c.7-.34,1.25-.94,1.52-1.68l1.51-3.17,2.22-4.61c.34-.71.77-1.38,1.29-1.98l3.42-4.04,3.76-3.83,7.25-7.26,5.81-6.22,6.54-7.35,2.14-2.19c.52-.53,1.21-.85,1.94-.92l1.72-.15c.83-.07,1.66.05,2.42.34.64.25,1.2.67,1.69,1.14l.83.79,3.92,4.36,3.81,4.34,3.02,3.94,3.65,5.22,3.39,5.56,2.68,6.43,2.34,6.76,2.36,6.24.52,1.29c.3.73.74,1.4,1.31,1.95l.35.35c.37.36.89.51,1.4.4l.72-.21c.74-.21,1.46-.5,2.14-.86l.9-.47,4.5-2.92,1.41-1.1c.37-.29.83-.42,1.29-.39l.46.04c.68.05,1.3.38,1.74.9h0c.29.95.51,1.92.67,2.9.22,1.42.1,2.86-.29,4.25h0s-.56,1.76-.56,1.76l-1.27,3.02-3.71,4.8-8.86,10.43"/>
  <path class="cls-1" d="m376.41,135.35l3.38-3.04,2.94-3.63,3.08-3.5c.54-.62,1.12-1.2,1.73-1.75l3.33-3.02,3.76-3.2,4.57-4.01,5.19-4.11c.65-.51,1.33-.99,2.04-1.41l1.64-.77c.62-.29,1.3-.44,1.99-.44l1.64.33h.05c2.26.47,4.39,1.4,6.25,2.76l2.1,1.53.97.77c1.1.87,2.11,1.85,3.01,2.92l1.46,1.72,3.27,4.87c.68,1.01,1.26,2.07,1.73,3.19l1.09,2.54.43,1.43c.49,1.65,1.51,3.1,2.89,4.14h0s1.53.23,1.53.23c.74.11,1.5.06,2.22-.16l2.1-.9c.55-.24,1.07-.54,1.55-.9l2.8-2.14,1.63-1.29c1.18-.93,2.44-1.77,3.76-2.5l6.14-2.95,6.43-3.1,7.74-3.5,3.9-1.58,3.76-1.68c.78-.35,1.64-.49,2.49-.43h.11c1.43.13,2.38.45,3.49,1.19.28.19.53.43.74.69h0c.69.87,1.21,1.86,1.53,2.93l.17.59s1.61,7.13,1.59,7.17c0,.02.12.87.26,1.83.27,1.83.4,3.68.37,5.53l-.1,6.41c-.01.8-.06,1.61-.14,2.4l-.64,6.12c-.25,2.34-.71,4.66-1.39,6.92h0s-.9,3.09-.9,3.09"/>
  <polyline class="cls-1" points="365.13 382.88 355.07 361.74 343.96 338.33 311.54 306.68 290.15 281.85 285.07 276.01 280.32 267.29 258.92 257.26 234.89 245.9 218.78 239.83 209.01 237.45 206.9 246.43 209.8 258.31 215.61 271.78 229.87 296.87 230.4 304.79 234.1 311.93 241.49 328.83 255.36 355.24"/>
  <polyline class="cls-1" points="262.36 256.43 272.26 253.03 280.45 239.3 294.18 225.83 303.95 219.76 309.5 210.78 318.74 210.25 328.78 217.91 337.76 221.08 351.49 236.13 360.18 254.82"/>
  <path class="cls-1" d="m363.64,381.48l20.86-16.34,7.79-12.81c1.36-2.55,6.47-26.94,6.47-26.94l16.64-23.11,5.02-22.84,3.43-22.45,1.85-25.09-.79-37.5-3.17-5.55-6.07,1.32-2.91,6.34-5.28,5.02-14.79,12.41-13.47,18.49-15.05,17.96-11.36,11.88-21.13,7.13-13.2,8.72-16.64,17.71"/>
  <polyline class="cls-1" points="395.46 335.73 408.27 330.94 428.6 316.94 456.33 287.63 480.1 237.98 499.65 166.41 495.68 156.64 484.06 156.37 448.41 183.31 424.91 201.53"/>
  <polyline class="cls-1" points="477.46 243.16 506.78 232.43 511.79 237.98 508.89 255.15"/>
  <polyline class="cls-1" points="511.79 237.98 515.23 232.96 528.17 228.74 555.11 222.13 572.27 220.02 586.27 218.17 591.81 220.55 590.23 230.58 566.73 259.9 518.92 313.77 497.27 330.94 460.03 362.9 447.09 371.87 424.64 382.44"/>
  <path class="cls-1" d="m200.96,386.14s-37.9-10.7-38.69-10.7-47.27-21.66-47.27-21.66l-27.73-24.56-24.03-22.18-13.73-20.86-20.34-33.01-3.7-7.39,3.07-2.94,1.86-1.6,1.19.13c.72.2,1.46.33,2.2.37l1.71.1c1.15.07,2.3.02,3.45-.14l3.57-.49,4.42-.73,3.18-.36c.61-.07,1.23-.1,1.84-.1h4.99c.46-.43.59-1.19.66-1.42h0c.02-.9-.1-1.79-.37-2.65l-.85-2.73-.93-3.41c-.17-.63-.3-1.27-.38-1.92l-.31-2.48c-.11-.89,0-1.8.32-2.64h0c.33-.86.79-1.66,1.37-2.37l.21-.18c.83-.72,1.85-1.17,2.94-1.32.99-.13,2.57.04,3.37.13l3.14.43,3.53.5,4.06.4,4.62.3,4.85.13,6.64.1,5.09.16c.75.05,1.49.03,2.24-.05l1.34-.15c.87-.1,1.61-.7,1.86-1.54h0c.24-.79.2-1.64-.1-2.41l-1.03-3.15c-.1-.3-.2-.6-.32-.89l-1.71-5.27-1.88-6.87-2.44-9.57-1.91-8.95-1.49-7.2-1.45-8.62-1.35-6.31-.4-3.43c-.07-.44,0-.89.2-1.29l.43-.88c.38-.79,1.05-1.4,1.87-1.71l1.76-.18c1.35,0,1.72.13,2.31.17l3.8.73,5.68.79,6.57,1.22,9.97,2.11,7.36,2.01,9.24,3.27,7.72,2.64,7.56,2.24,7.03,1.95,4.99,1.57c.72.23,1.43.51,2.11.84l2.13,1.11"/>
  <polyline class="cls-1" points="458.84 279.41 466.5 275.35 484.99 262.14 492.12 256.33 500.57 257.92 491.85 288.02 475.48 322.62 461.22 346.13 413.95 391.02 392.29 410.56 356.64 423.51 321.12 424.17"/>
  <polyline class="cls-1" points="57.59 238.61 81.58 246.69 123.58 258.05 171.11 281.55 196.99 302.68 218.91 323.55 242.09 331.14"/>
  <polyline class="cls-1" points="100.33 219.3 107.2 236.66 115.64 255.99"/>
  <polyline class="cls-1" points="363.77 216.82 373.14 205.23 382.12 185.42 391.63 174.33 402.2 164.03 416.98 156.11 429.4 152.15 428.08 178.82 427.55 190.71 424.91 196.91"/>
  <polyline class="cls-1" points="322.17 169.64 327.13 176.41 334.79 194.11 334.26 207.05 332.14 219.46"/>
  <polygon class="cls-1" points="158.17 341.24 176.13 366.06 223.14 404.62 296.03 422.58 321.12 424.17 291.8 382.97 268.04 358.14 212.58 344.41 165.04 321.17 144.97 312.19 158.17 341.24"/>
  <polyline class="cls-1" points="367.08 378.38 353.34 403.3 341.72 414.92 329.83 423.9"/>
</svg>