<?xml version="1.0" encoding="UTF-8"?>
<svg id="Layer_1" data-name="Layer 1" xmlns="http://www.w3.org/2000/svg" viewBox="0 0 500 500">
  <defs>
    <style>
      .cls-1 {
        fill: #000;
      }
    </style>
  </defs>
  <path class="cls-1" d="m426.34,238.68c0-.12,0-.24,0-.37-1.3-20.7-19.84-35.94-40.56-34.83-51.45,2.77-90.7,14.77-120.51,30.83,7.12,1.1,14.1,3,20.79,5.66,37.1-9.73,83.4-12.33,140.27-1.29Z"/>
  <path class="cls-1" d="m413.38,182.61c-1.28-3.1-2.64-6.14-4.1-9.13-7.92-16.01-25.88-24.4-43.24-20.19-78.54,18.58-124.96,52.77-152.35,86.88,4.28-1.72,8.67-3.12,13.15-4.21,39.1-29.81,98.12-54.23,186.54-53.34Z"/>
  <path class="cls-1" d="m181.07,253.57c27.81-47.59,84.22-101.4,198.28-123.84-4.48-4.81-9.22-9.36-14.21-13.65-11.28-9.58-27.11-11.7-40.52-5.43-90.35,42.45-128.34,97.75-143.56,142.91Z"/>
  <path class="cls-1" d="m311.3,254.77c41.47,33.75,47.72,94.73,13.97,136.19-17.73,21.78-44.05,34.79-72.12,35.65,92.76-1.57,168.49-74.64,173.36-167.29-45.5-9.37-83.58-9.68-115.2-4.55Z"/>
  <path class="cls-1" d="m153.74,339.16c-2.07-11.06-26.27-161.85,169.13-250.06-88.87-40.17-193.48-.69-233.65,88.18-40.17,88.87-.69,193.48,88.18,233.65,21.65,9.79,45.05,15.1,68.81,15.63v-.1c-48.29-1.93-87.76-39.19-92.46-87.3Z"/>
</svg>