<?xml version="1.0" encoding="UTF-8"?>
<svg id="Layer_1" data-name="Layer 1" xmlns="http://www.w3.org/2000/svg" viewBox="0 0 595.28 131.06">
  <defs>
    <style>
      .cls-1 {
        fill: #7b7d7e;
      }

      .cls-2 {
        fill: #10173e;
      }
    </style>
  </defs>
  <path class="cls-2" d="m158.54,72.58c-.03-4.89.95-9.74,2.86-14.24,1.88-4.44,4.59-8.49,7.98-11.94,3.38-3.46,7.4-6.23,11.83-8.18,9.19-3.94,19.6-3.94,28.79,0,4.45,1.96,8.5,4.73,11.94,8.18,3.44,3.43,6.2,7.48,8.13,11.94,1.94,4.5,2.93,9.35,2.9,14.24.04,4.96-.95,9.88-2.9,14.44-3.85,8.94-11.02,16.04-19.99,19.82-4.56,1.91-9.45,2.88-14.39,2.86-9.84.09-19.3-3.76-26.28-10.68-3.41-3.38-6.13-7.4-7.98-11.83-1.94-4.62-2.91-9.59-2.88-14.6Zm11.03,0c-.03,3.6.67,7.16,2.06,10.48,1.33,3.18,3.25,6.07,5.67,8.52,2.39,2.43,5.24,4.38,8.37,5.72,3.25,1.39,6.75,2.09,10.29,2.06,3.48.02,6.93-.68,10.13-2.06,3.11-1.35,5.92-3.29,8.28-5.72,2.38-2.46,4.27-5.35,5.57-8.52,1.35-3.33,2.03-6.89,2-10.48.03-3.6-.67-7.16-2.06-10.48-1.33-3.18-3.23-6.09-5.61-8.58-2.37-2.46-5.2-4.44-8.33-5.81-6.55-2.81-13.96-2.81-20.51,0-3.12,1.39-5.95,3.36-8.33,5.81-2.41,2.48-4.3,5.41-5.57,8.63-1.31,3.32-1.97,6.86-1.96,10.43h0Z"/>
  <path class="cls-2" d="m250.92,109.7V34.47h.1l38.72,54.87-4.61-1,38.51-53.87h.2v75.23h-10.65v-51.05l.71,5.51-26.87,38.02h-.2l-27.39-38.02,1.81-5.01v50.56h-10.32Z"/>
  <path class="cls-2" d="m338.89,109.7l32-75.73h.6l32,75.73h-12.24l-23.27-58.98,7.74-5.12-26.3,64.09h-10.53Zm19.46-27.28h25.88l3.71,9.23h-32.8l3.21-9.23Z"/>
  <path class="cls-2" d="m482.03,109.7l-56.09-55.67,3.11,1.01.3,52.16h-10.82V32.06h.48l55.37,55.77-2.49-.68-.2-52.76h10.65v75.31h-.31Z"/>
  <path class="cls-2" d="m504.9,36.88h10.74v72.82h-10.74V36.88Z"/>
  <path class="cls-2" d="m530.68,109.7l32-75.73h.6l32,75.73h-12.24l-23.27-58.98,7.74-5.12-26.28,64.09h-10.55Zm19.46-27.28h25.88l3.71,9.23h-32.78l3.18-9.23Z"/>
  <path class="cls-1" d="m130.92,61.33s0-.09,0-.14c-.48-7.68-7.36-13.33-15.05-12.92-19.09,1.03-33.65,5.48-44.71,11.44,2.64.41,5.23,1.11,7.72,2.1,13.77-3.61,30.94-4.57,52.05-.48Z"/>
  <path class="cls-1" d="m126.11,40.53c-.47-1.15-.98-2.28-1.52-3.39-2.94-5.94-9.6-9.05-16.05-7.49-29.14,6.89-46.36,19.58-56.53,32.24,1.59-.64,3.22-1.16,4.88-1.56,14.51-11.06,36.41-20.12,69.22-19.79Z"/>
  <path class="cls-1" d="m39.91,66.86c10.32-17.66,31.25-37.62,73.57-45.95-1.66-1.78-3.42-3.47-5.27-5.06-4.19-3.55-10.06-4.34-15.03-2.01-33.52,15.75-47.62,36.27-53.27,53.02Z"/>
  <path class="cls-2" d="m88.23,67.3c15.39,12.52,17.71,35.15,5.18,50.53-6.58,8.08-16.34,12.91-26.76,13.23,34.42-.58,62.52-27.7,64.32-62.07-16.88-3.48-31.01-3.59-42.74-1.69Z"/>
  <path class="cls-2" d="m29.77,98.61c-.77-4.1-9.75-60.05,62.75-92.78C59.55-9.07,20.74,5.58,5.83,38.55c-14.91,32.97-.26,71.79,32.72,86.69,8.03,3.63,16.72,5.6,25.53,5.8v-.04c-17.92-.72-32.56-14.54-34.31-32.39Z"/>
</svg>