<?xml version="1.0" encoding="UTF-8"?>
<svg id="Layer_1" data-name="Layer 1" xmlns="http://www.w3.org/2000/svg" viewBox="0 0 500 500">
  <defs>
    <style>
      .cls-1 {
        fill: #000;
      }
    </style>
  </defs>
  <path class="cls-1" d="m421.1,86.56v90.1c-7.46-3.3-15.02-4.05-22.75-3.76-3.45.13-6.65,1.04-9.92,2.05-3.38,1.04-6.88,1.88-10.53,1.04-1.2-.27-2.06-.47-1.33-1.92,1.1-2.19-.17-2.7-1.98-3.24-.89-.27-1.74-.49-2.64-.45-3.09.14-5.87-1.13-8.75-1.72-7.1-1.46-14.1-5.05-21.44-3.58-3.66.73-7.07,2.23-11.04,2.19-2.33-.02-4.37,2.12-5.45,4.64-1.35,3.16-3.13,6.13-4.17,9.44-.56,1.78-1.32,2.82-3.25.91-4.94-4.9-10.45-6.61-16.76-2.36-.74.5-1.71.66-2.51,1.09-3.2,1.7-6.05,1-9.37-.3-7.39-2.89-15.13-4.86-23.17-4.03-2.75.28-5.34,1.86-8.07,2.6-5.11,1.38-10.29,2.52-15.4,3.9-1.77.48-3.41,1.43-.48,2.81,1.17.55.83.92.29,1.72-3.18,4.69-2.03,6.75,3.72,7.44,3.94.47,7.87.77,12.03.59-.85.99-1.69,1.48-2.77,1.38-2.42-.23-4.57-.05-5.57,2.72-.4,1.11-1.59.8-2.43.72-8.17-.75-15.83,1.72-23.62,3.52-1.79.41-1.33,1.71-.9,2.22,1.71,2.01,0,2.81-1.23,2.9-2.7.19-4.65,3.65-7.75,1.68-2.77,2.91-6.33.84-9.46,1.49-2.37.49-8.68,8.33-7.78,10.18.93,1.93,3.1,2.77,5.37,2.77,4.92,0,9.85.01,14.77-.02,1.15,0,2.62-.26,2.86,1.08.24,1.35-.9,2.15-2.31,2.37-.85.14-1.98.63-1.91,1.37.06.62,1.17,1.04,2.11,1.28,3.49.88,6.93,1.98,10.51,3.03-4.5,2.19-8.46.49-12.36-1.19-4.59-1.98-9.01-4.33-14.3-3.89-2.87.24-5.58.7-7.77,2.63-2.86,2.53-6.42,3.87-9.57,5.89-2.28,1.46-3.16,3.37-.84,5.57-1.5.46-2.94.78-4.26,1.37-.77.34-2,.98-1.64,1.93,1.52,3.95-1.35,3.26-3.36,3.22-2.1-.04-4.07.15-5.87,1.29-2.07,1.3-3.56,3.16-3.15,5.61.42,2.53,2.82,3.68,4.99,4.04,2.67.44,5.48.1,8.22.06.43,0,1.05-.11,1.27-.4,4.21-5.52,11.18-2,16.15-4.96,4.12-2.46,8.92-1.15,13.28-2.41,1.27-.37,2.85.49,4.28.45,4.63-.13,9.26.81,13.92-.61,1.5-.46,3.77-.06,5.25,1.51,2.15,2.29,4.9,3.46,7.96,3,9.36-1.41,16.42,2.9,23.19,8.54,1.99,1.65,4.34,3.23,7.05,3.82,5.71,1.24,8.1,5.58,9.77,10.53,1.9,5.62,3.54,11.33,5.57,16.9,1.99,5.47,5.54,9.77,10.95,12.19,2.75,1.23,3.83,3.47,4.82,6.02,1.87,4.85,1.09,10.04,2.01,15.01.29,1.55.3,3.25-.02,4.78-.4,1.92,1.9,3.78.2,5.48-1.45,1.45-3.71.81-5.51,1.09-6.82,1.07-13.22,3.33-19.17,6.54-12,6.47-24.76,8.46-38.12,7.32-4.77-.41-9.48-1.66-13.73-3.91-8.92-4.71-18.21-8.53-28.12-10.29-9.28-1.65-18.63-1.53-28.14-.45-12.08,1.37-22.64,6.21-33.34,11.19-3.37,1.57-7.01,2.53-10.76,2.96-11.32,1.31-22.42,1.11-33-3.95-4.89-2.34-9.94-4.35-14.92-6.51,0-41.44,0-82.88,0-124.32,3.1-1.3,5.82-3.35,9.48-3.49,6.9-.26,11.46,2.92,14.59,8.73,2.42,4.5,3.39,11.05,9.81,11.07,6.57.01,7.53-6.66,10.04-11.21.66-1.19,1.4-2.34,2.23-3.41,5.1-6.52,14.32-6.62,20.3-2.29,2.31,1.68,4.44,3.62,6.82,5.18,2.45,1.6,5.22,2.67,8.06,1.01,2.77-1.62,3.16-4.46,3.22-7.39.08-3.6-.38-7.22.74-10.79,2.07-6.6,7.27-12.33,16.62-11,3.88.55,7.59,2.13,11.65,1.69,4.2-.46,5.89-2.11,6.04-6.2.11-3.07-.86-5.78-2.26-8.39-1.51-2.81-2.98-5.71-3.2-8.89-.46-6.7,4.11-12.66,11.18-14.86,3.11-.97,6.38-1.45,9.43-2.53,6.06-2.16,6.05-7.9,2.65-11.48-1.49-1.56-3.2-2.93-4.91-4.26-2.1-1.63-3.98-3.41-5.44-5.65-3.23-4.96-3.44-9.9-.21-14.96,1.51-2.35,3.39-4.31,5.64-5.92,1.87-1.34,3.6-2.8,5.14-4.52,3.22-3.62,2.83-9.33-3.16-11.38-3.23-1.11-6.63-1.34-9.81-2.61-4.92-1.97-8.49-5.11-9.91-10.37h227.42Z"/>
  <path class="cls-1" d="m78.95,201.95c0-37.6.02-75.2-.05-112.8,0-2.1.42-2.65,2.61-2.65,30.3.09,60.59.06,90.89.06-5.6,9.07-.84,19.34,9.77,21.93,3.67.9,7.6.95,11.7,1.81-3.13,2.18-6.02,4.18-8.9,6.19-9.49,6.62-9.54,17.75-.11,24.33,2.94,2.06,5.89,4.1,9.27,6.45-3.99.59-7.32,1.26-10.69,1.56-10.05.89-17.37,12.06-10.97,22.13,1.86,2.93,3.48,6.02,5.41,9.4-5.7-1.15-10.53-3.65-16.08-3.44-7.84.3-13.51,5.95-13.74,13.91-.12,4.13,1.31,8.19.58,12.46-2.87-2.63-5.68-4.99-8.25-7.59-6.2-6.24-19.46-4.97-23.18,5.38-1.26,3.5-2.77,6.92-4.31,10.73-1.57-3.95-3-7.55-4.43-11.15-3.86-9.69-15.89-11.06-22.31-5.58-2.52,2.14-4.8,4.56-7.19,6.86Z"/>
  <path class="cls-1" d="m421.06,399.39c.04,2.11-.84,2.77-2.68,3.49-7.41,2.94-14.72,6.14-22.08,9.23-.67.28-1.15.66-1.31,1.39h-23.36c-4.43-1.54-9.19-2.16-13.4-4.3-9.69-4.91-19.62-8.7-30.53-10.36-11.53-1.75-22.73-1.14-33.95,1.36-12.84,2.86-23.79,11-36.86,13.3h-17.87c-1.83-1.42-4.35-.7-6.24-1.97-.92,0-1.71-.28-2.58-.65-13.32-5.64-26.26-12.16-41.27-12.81-11.13-.48-21.96.3-32.52,3.61-10.89,3.4-20.57,10.15-32.12,11.82h-17.17c-1.11-1.45-2.75-.46-4.12-.86-8.41-2.46-16.08-6.64-24.05-10.12v-28.16c3.45.18,6.18,2.35,9.28,3.5,5.14,1.9,10.36,3.13,15.77,3.99,4.65.74,9.28.53,13.93.68,12.56.4,24.36-2.62,35.62-8.05,5.89-2.85,11.76-5.75,18.37-6.74,11.45-1.72,22.63-1.17,33.44,3.45,9.49,4.06,18.72,8.96,29.1,10.48,3.72.55,7.51.57,11.27.83,16.54,1.17,31.67-3.44,46.25-10.81,7.72-3.91,16.07-5.41,24.75-4.72,8.46-.21,16.24,2.44,23.9,5.63,2.79,1.15,5.58,2.28,8.31,3.55,9.23,4.29,18.88,6.42,29.08,6.44,9.06.02,18.09-.26,26.82-2.86,5-1.49,9.78-3.69,14.67-5.57.48.07.95.16,1.44.23.02,8.34-.02,16.67.13,25.01Z"/>
  <path class="cls-1" d="m421.01,342.09c0,1.33-.05,2.3-1.66,2.87-8.46,3.01-16.05,8.31-25.07,9.78-12.41,2.04-24.67,2.08-36.31-3.8-4.24-2.13-8.51-4.22-13.1-5.55-6.15-2.43-12.58-3.8-19.11-4.5-3.05-.33-2.4-1.9-1.93-3.71,1.37-5.29,5.04-8.92,9.29-11.78,7.2-4.83,7.19-11.45,5.33-18.67-1.07-4.18-.46-6.29,3.15-8.59,2.5-1.58,5.04-3.16,7.7-4.44,6.82-3.28,9.35-9.11,10.04-16.14.36-3.71,1.21-7.28,3.01-10.58,1.92-3.54,5.08-5.12,8.94-5.26,4.75-.16,9.43.2,14.12,1.21,3.88.83,7.78-.82,11.7-1.01,3.66-.35,7.2-1.66,11.03-.29,1.84.66,3.23,1.74,3.69,3.15,1.18,3.58,3.85,4.88,7.06,5.12,2.04.15,2.09,1.02,2.09,2.55-.02,23.22,0,46.44.02,69.66Z"/>
  <path class="cls-1" d="m346.63,232.13c.8,1.98-.56,3.03-1.23,4.28-1.37,2.58-3.26,4.82-4.13,7.74-.49,1.66-.68,2.93.18,4.44.93,1.64.58,3.16-.65,4.62-1.02,1.21-1.74,2.68-2.74,3.92-3.13,3.91-3.25,8.26-1.86,12.78,2.06,6.7,1.37,12.73-3.08,18.5-3.73,4.84-4.43,10.92-5.4,16.82-.75,4.57-.33,9.59-4.54,13.03-4.13,3.37-6.95,3.48-10.23-.29-3.49-4.01-5.24-8.95-7.11-13.82-.48-1.24.35-1.8.89-2.66,2.97-4.71,6.37-9.31,5.79-15.34-.26-2.67-1.58-5.09-1.48-7.92.13-3.74,1.99-6.43,4.35-8.92,3.52-3.73,8.1-5.9,12.6-8.16,5.69-2.85,6.47-5.09,3.64-10.82-.32-.65-.73-1.11-.13-1.79,4.69-5.3,8.53-11.34,14.01-15.94.24-.2.6-.27,1.13-.49Z"/>
  <path class="cls-1" d="m304.94,282.93c.36,4.76-.08,8.96-3.55,12.23-2.79,2.63-5.19,2.66-7.8-.11-1.87-1.98-3.17-4.34-3.71-7.07-.91-4.56-2.28-8.96-4.19-13.22-1.21-2.72-1.15-5.5.8-8,1.95-2.48,4.64-2.7,7.52-2.62,5.48.14,7.85,3.3,9.21,8.26.99,3.61,2.23,7.07,1.72,10.53Z"/>
  <path class="cls-1" d="m369.74,254.99c4.33,3.06,9.39,1.68,14.69,2.82-4.13,1.48-7.93,1.83-11.58,1.75-5.57-.12-10.28,1.19-14.1,5.82-2.49-3.77-5.32-7.03-6.42-11.37-.38-1.49.1-2,1.35-2.57,2.99-1.37,6.28-.99,9.33-1.26,6.21-.55,11.71-3.08,17.53-4.7,7.02-1.96,13.88-1.66,20.43,2.17-10.59,1.53-20.49,5.74-31.22,7.34Z"/>
  <path class="cls-1" d="m260.19,244.8c4.93-4.83,14.76-4.54,19.17.54.33.38,1.42.83.11,1.39-2.1.91-2.17,3.08-2.8,4.8-1.07,2.96-2.14,5.7-5.34,7.13-1.83.81-1.77,2.17-.03,3.34,1.22.83,2.42,1.71,3.52,2.69.35.31.6,1.08.48,1.52-.2.7-1.04.46-1.47.28-5.48-2.32-11.56-3.82-14.22-10.1-.43-1-1.43-2.28.83-2.21,1.47.04,1.62-1.17,1.84-2,.26-.96-.18-1.94,1.11-2.67.98-.56.31-1.69-.36-2.34-.88-.85-1.89-1.58-2.84-2.36Z"/>
  <path class="cls-1" d="m342.49,287.62c2.54-6.74,1.38-12.97-.15-19.26-.58-2.37-.87-4.98.24-7.39,1.57-3.39,4.64-3.92,6.47-.77,3.4,5.88,4.27,12.32,2.66,18.98-1.1,4.59-3.83,7.6-9.22,8.44Z"/>
  <path class="cls-1" d="m382.81,231.57c-3.02,0-6.04.15-9.05-.04-2.77-.17-5.16.43-7.33,2.18-1.93,1.55-3.88,3.11-6.26,3.93-.97.34-1.57.8-1.58,1.9-.02,1.3.31,2.57-1.33,3.48-3.26,1.82-6.22,4.36-10.04,4.81-1.67.19-1.07-1.23-.55-2.18,1.49-2.75,3.55-5.05,5.9-7.06,6.38-5.46,13.06-10.26,22.1-9.91,2.92.11,5.55,1.02,8.21,1.97-.02.31-.05.62-.07.92Z"/>
  <path class="cls-1" d="m327.67,237.86c.26,4.47-.3,8.89-4.78,11.72-3.06,1.93-6.44.17-6.91-3.58-.54-4.25,2.17-8.78,6.31-10.5,1.1-.46,1.89-1.27,2.63-2.14.6-.7,1.19-1.56,2.26-1,.89.47.44,1.42.49,2.17.07,1.02.02,2.06.02,3.34Z"/>
  <path class="cls-1" d="m406.94,222.51c1.81,0,3.07-.1,4.31.03,1.23.12,3.19-.95,3.06,1.76-.12,2.48-1.13,4.36-3.24,5.63-.15.09-.74-.16-.77-.32-.64-3.29-2.84-1.65-4.74-1.78-4.9-.34-9.55.12-14.02,2.26-.78.38-1.65-.13-1.97-.94-.38-.98.55-1.4,1.15-1.85,4.96-3.77,10.59-5.24,16.22-4.77Z"/>
  <path class="cls-1" d="m296.49,235.52c3.6-1.87,6.81-1.28,9.9-1.28,2.74,0,4.8,2.68,4.76,6.37-.02,1.7,1.28,4.19-1.15,5.15-2.52,1-4.29-.64-5.71-2.62-2.05-2.85-3.84-5.95-7.81-7.62Z"/>
  <path class="cls-1" d="m374.33,214.46c-3.97,5.61-8.09,10.42-15.17,11.32-1.11.14-2.55.66-3.06-.32-.53-1.01.56-1.94,1.51-2.69,4.22-3.34,8.77-6.06,13.79-8.05.92-.36,1.72-.39,2.93-.26Z"/>
  <path class="cls-1" d="m290.78,246.49c1.37.46,3.35-.76,3.69,1.11.3,1.68-1.32,2.68-2.82,3.32-3.91,1.68-8.25,2.57-10.96,6.41-.42.59-1.76.71-1.81-.85-.05-1.74.29-3.41,1.42-4.71,2.79-3.22,6.31-5.06,10.48-5.28Z"/>
  <path class="cls-1" d="m369.58,224.4c2.39-1.28,3.84-3.25,5.03-5.4,1.73-3.13,4.03-4.7,7.64-3.07.25,1.78-2.94.52-2.31,2.45.52,1.59,2.2,1.3,3.51,1.54-3.16,4.76-8.49,6.83-13.87,4.47Z"/>
  <path class="cls-1" d="m415.45,255.57c-2.1-.14-5.16-.69-8.2-1.36-.86-.19-1.7-.45-1.8-1.25-.16-1.26,1.13-.88,1.74-1.01,3.49-.75,7.01-1.39,10.52-2.01,2.17-.38,2.9.51,2.83,2.76-.07,2.02-.28,3.31-2.71,2.88-.44-.08-.91-.01-2.38-.01Z"/>
  <path class="cls-1" d="m265.89,236.83c-2.62.71-5.73,3.83-7.37,2.53-3.28-2.6-8.69-1.96-10.41-6.78.92-.64,2.33-.71,2.61-.28,3.15,4.72,7.87,1.95,11.84,2.6,1.35.22,2.74.03,3.34,1.95Z"/>
  <path class="cls-1" d="m307.24,268.68c-2.41-2.63-3.91-5.53-3.61-9.16.1-1.16.53-2.18,1.79-2.51,1.2-.32,2.11,0,2.96,1.04,2.25,2.76,1.93,6.72-1.14,10.63Z"/>
  <path class="cls-1" d="m281.5,241.18c-3.6-1.26-6.71-2.89-9.73-4.72-3.43-2.07-3.46-3.32-.09-6.56.97,3.56,3.63,5.28,6.71,6.68,1.69.77,3.65,1.62,3.11,4.6Z"/>
  <path class="cls-1" d="m380.98,226.99c8.39-7.19,13.17-8.65,19.54-6.22-7.22-.15-12.68,5.22-19.54,6.22Z"/>
  <path class="cls-1" d="m292.72,240.89c-.12,2.53-2,2.7-3.6,2.86-2.07.21-4.86-2.56-4.79-4.48.09-2.29,1.85-1.51,3.05-1.58,2.52-.14,4.81.23,5.34,3.2Z"/>
  <path class="cls-1" d="m325.33,252.81c1.82-.12,3.18.56,3.68,2.08.49,1.48-.89,2.16-1.92,2.84-.47.31-.98.6-1.51.77-1.46.46-2.94,1.75-4.44.75-.91-.6-.39-1.97.04-2.84.88-1.8,1.74-3.79,4.16-3.6Z"/>
  <path class="cls-1" d="m331.98,240.56c-.32-2.87-.03-5.35-.83-7.76-.42-1.28-.15-2.68,1.25-3.57.96-.61,1.99-.69,2.94-.35.93.34.54,1.36.59,2.11.22,3.85-1.03,7.08-3.94,9.57Z"/>
  <path class="cls-1" d="m319.25,216.93c-1.24.15-2.38.18-3.63-.28-1.76-.65-3.54-.23-5.21.68-.69.37-1.23,2.17-2.29.53-.73-1.13-.58-2.3.37-3.4,2.67-3.1,8.97-1.7,10.77,2.47Z"/>
  <path class="cls-1" d="m349.42,221.14c-2.75-.82-4.95-2.4-6.42-4.89-.52-.88-.72-2.04.04-2.89.83-.92,1.9-.5,2.82-.03,3.09,1.6,4.52,4.03,3.56,7.8Z"/>
  <path class="cls-1" d="m321.48,214.35c2.13,0,3.91-.08,5.68.03,1.14.07,2.65-.54,3.21,1.1.21.61.24,1.65-.43,1.83-1.42.37-2.77,1.75-4.35.74-1.42-.91-2.9-1.78-4.1-3.7Z"/>
  <path class="cls-1" d="m338.77,215.74c-.33,1.16.74,2.89-1.34,2.67-2.12-.23-3.51-1.42-3.61-3.75-.06-1.57.69-3.09,2.07-2.99,2.38.17,2.7,2.32,2.87,4.08Z"/>
  <path class="cls-1" d="m315.53,231.44c1.14.15,2.88.29,2.39,1.32-.72,1.52-2.26,2.92-4.03,3.3-.65.14-1.34-1.3-1.35-2.39-.02-2.27,1.76-1.95,2.98-2.23Z"/>
  <path class="cls-1" d="m420.93,374.38c-.49-.07-.96-.16-1.44-.23.59-.6,1.17-1.15,1.44.23Z"/>
</svg>