<?xml version="1.0" encoding="UTF-8"?>
<svg id="Layer_1" data-name="Layer 1" xmlns="http://www.w3.org/2000/svg" viewBox="0 0 2281.5 370">
  <defs>
    <style>
      .cls-1 {
        letter-spacing: -.03em;
      }

      .cls-2 {
        font-family: NotoSerif-SemiBold, 'Noto Serif';
        font-size: 236.64px;
        font-weight: 600;
      }

      .cls-2, .cls-3 {
        fill: #fad84c;
      }

      .cls-4 {
        letter-spacing: -.07em;
      }

      .cls-5 {
        letter-spacing: -.01em;
      }

      .cls-6 {
        letter-spacing: 0em;
      }
    </style>
  </defs>
  <g>
    <path class="cls-3" d="m715.15,142.59c.03-2.66-.49-5.97-.47-8.63.15-5.9-.32-11.78-.82-17.64-.47-5.44-1.24-10.87-2.05-16.27-.61-4-1.34-8-2.3-11.93-1.04-4.34-1.94-8.68-3.54-12.9-.97-2.55-1.76-5.24-2.61-7.85-1.04-3.2-2.65-6.21-4.04-9.29-2.89-6.43-7.31-11.78-11.84-17.07-1.57-1.84-3.12-3.67-4.83-5.36-.9-.88-1.93-1.54-3.15-1.89-2.7-.49-5.4.2-8.12,0-.59.03-1.31-.16-1.61.58-.27.7.36,1.01.77,1.35,3.13,2.61,5.39,5.98,7.86,9.14,4.46,5.7,7.19,12.32,9.76,18.98,2.26,5.83,3.71,11.93,5.35,17.96,1.55,5.81,2.92,11.63,3.9,17.52.66,3.86,1.24,7.75,1.82,11.64,1.11,7.62,1.74,15.27,1.78,22.93.05,10.67.59,21.35-.54,32.01-.34,3.16-.27,6.37-.76,9.52-.58,3.8-.81,7.63-1.49,11.43-.54,2.97-.74,6.08-1.2,9.12-1.31,8.48-2.67,16.96-3.94,25.44-.18,1.16-.58,1.63-1.72,1.43-1.19-.23-1.05-1.12-.96-1.99.39-3.73.84-7.46,1.2-11.18,1.23-12.56,2.8-25.09,3.69-37.68.49-6.67.81-13.36.97-20.03.22-9.17.03-18.33-.55-27.47-.38-6.12-1.26-12.18-1.99-18.26-.41-3.38-.96-6.71-1.65-10.03-1.12-5.32-2.12-10.64-3.75-15.84-1.35-4.27-2.69-8.52-4.13-12.75-2.23-6.5-5.19-12.61-9.24-18.15-2.4-3.28-4.38-6.89-7.29-9.78-1.15-1.13-4.15-1.62-5.44-.77-1.49.96-3.03,1.93-4.28,3.16-7.23,7.01-14.37,14.1-21.56,21.14-1.59,1.57-3.24,3.09-4.85,4.63-4.75,4.59-9.6,9.08-14.57,13.42-2.09,1.84-3.97,3.92-6.1,5.67-3.59,2.96-7.21,5.9-10.91,8.75-5.55,4.27-11.3,8.23-17.31,11.78-3.77,2.23-7.79,4.02-11.72,6-3.13,1.55-6.33,2.97-9.63,4.15-10.72,3.85-21.72,6.77-32.78,9.41-6.82,1.65-13.71,2.97-20.6,4.34-6.29,1.24-12.64,2.09-18.96,3.09-2.21.35-4.52.34-6.64.81-3.81.85-7.73.55-11.45,1.57-1.57.43-3.04-.11-4.58.16-2.53.45-5.11.57-7.66.77-.93.07-1.81-.49-2.81-.27-1.4.31-2.85.54-4.28.59-5.33.19-10.68.27-16.02.47-1.23.04-2.44-.14-3.65-.04-2.21.18-2.2.3-2.21-1.88,0-.78-.01-1.58.01-2.36.14-5.86-.41-11.75.32-17.6.93-7.37,5.25-12.47,11.3-16.34,2.76-1.77,6.01-2.08,9.04-3.08,1.9-.65,3.07-1.97,3.34-3.97.24-1.81-.11-3.58-.55-5.32-.2-.8-.74-1.4-1.59-1.07-2.16.89-4.51.7-6.74,1.27-6.13,1.55-11.56,4.39-15.96,8.89-6.28,6.44-8.97,14.36-8.95,23.3,0,5.56.04,11.13.24,16.69-.04.15-.08.3-.12.43-.36.39-.84.28-1.27.28-10.3.01-20.6-.01-30.89.04-1.16.01-1.4-.58-1.66-1.42-1.93-6.4-3.84-12.8-5.86-19.18-.47-1.49-.01-1.81,1.32-2.08,3.58-.74,7.12-1.61,10.67-2.47,5.25-1.27,6.96-3.67,6.97-9.28.01-2.01.08-4.02-.27-6.04-.2-1.13-1.39-3.58-2.42-3.71-1.94-.28-3.38-1.74-5.62-1.69-2.24.05-4.52-1.03-6.93-1.22-3.57-.3-7.12-.88-10.7-.84-3.11.04-6.21.26-9.31.59-5.33.61-10.72,1.09-15.57,3.8-1.08.59-2.05,1.34-2.11,2.58-.04,1.27,1.17,1.65,2.13,2.11,5.74,2.82,11.95,3.63,18.19,4,4.82.3,9.68.05,14.52.05h3.24c-.84,1.23-1.92,1.15-2.67,1.67-3.27,2.31-7,2.9-10.93,3.09-5.89.27-11.59-1.11-17.38-1.66-1.7-.16-3.44-.35-5.16.2-.54.18-.88.39-.59.9,1.08,1.94,2.07,4.01,4.31,4.94,3.43,1.43,7.12,1.92,10.71,2.74,2.21.5,2.3.51,1.69,2.61-1.82,6.29-3.7,12.57-5.48,18.88-.31,1.11-.84,1.39-1.89,1.39-9.68-.03-19.35-.03-29.04.01-1.35,0-2.12-.59-2.49-1.8-1.55-5.12-3.44-10.1-5.28-15.11-1.53-4.17-.82-5.35,3.53-6.43,3.92-.99,7.91-1.66,11.6-3.46,1.78-.86,2.82-2.28,3.23-4.21.61-2.9-.16-5.74-.43-8.6-.08-.92-.28-1.81-1.08-2.62-3.03-3.03-7.09-3.86-10.89-4.54-4.52-.8-9.2-1.46-13.87-1.17-3.97.23-7.94.43-11.9.95-5.24.66-10.4,1.4-14.65,4.98-1.13.95-1.26,1.42.05,2.16,3.05,1.7,6.46,2.44,9.78,3.35,3.5.96,7.1,1.2,10.72,1.53,5.42.49,10.8-.11,16.21-.12.45,0,.8.08.99.47.18.39-.14.62-.45.78-3.21,1.74-6.5,3.57-10.21,3.71-5.4.23-10.8.05-16.15-1.09-2.98-.63-6.06-1.24-9.16,0-.93.36-1.07.7-.62,1.31,1.22,1.67,2.44,3.34,4.54,4.11,3.59,1.32,7.32,2.16,10.99,3.17,1.38.38,1.86,1.01,1.43,2.43-1.88,6.19-3.71,12.37-5.52,18.57-.36,1.24-1.03,1.65-2.31,1.63-9.39-.05-18.79-.05-28.19,0-1.4.01-1.97-.47-2.32-1.76-1.76-6.4-3.55-12.78-5.42-19.12-.36-1.23-.03-1.57,1.12-1.78,4.09-.74,8.14-1.7,12.07-3.01,3.66-1.22,5.75-2.73,5.47-7.29-.11-1.72-.19-3.44-.41-5.16-.22-1.77-1.17-3.17-2.26-4.55-1.28-1.62-3.13-2.88-4.85-3.11-3.21-.42-6.33-1.34-9.6-1.59-5.02-.39-10.01-.74-15.06-.3-4.81.42-9.56,1.16-14.28,2.15-2.05.43-3.77,1.66-5.46,2.8-1.61,1.08-1.5,2.66.09,3.48,4.58,2.36,9.52,3.59,14.61,4.05,6.9.62,13.82.45,20.73.38.18,0,.34,0,.51.01.28.03.59.07.66.39.08.31-.14.5-.38.68-1.84,1.24-3.57,2.46-6.02,2.36-6.52-.26-13.05-.27-19.56-.39-.78-.01-1.57-.16-2.32-.2-2.51-.16-5.05-.34-7.55.2-.65.15-1.07.34-.74,1.12.8,1.9,1.76,3.59,3.89,4.39,3.38,1.27,6.86,2.12,10.37,2.9,2.73.61,3.96,2.4,3.15,5.09-1.77,5.81-4.21,11.37-6.31,17.06-.47,1.26-1.16,1.57-2.39,1.57-12.44-.04-24.86-.03-37.3-.03-48.62,0-97.23-.03-145.85.05-4.11,0-6.79-1.35-8.82-5.08-4.31-7.95-11.07-13.01-19.89-15.19-5.04-1.26-3.9-.23-4.66-5.2-.12-.77-.36-1.27-1.23-1.27-5.51,0-11.02-.01-16.53-.01-.86,0-1.22.43-1.19,1.26.01.85-.01,1.69-.01,2.54,0,22.22,0,44.45.01,66.66,0,1.07-.47,2.38.18,3.12.77.89,2.08.3,3.15.04.05-.01.12-.01.18,0,3.5.7,7.05.16,10.57.31,1.88.07,4.05.62,4.74-2.11.03-.14.2-.26.34-.36,2.19-1.65,4.27-3.44,6.93-4.4,7.91-2.86,14.1-7.74,17.92-15.41,1.15-2.31,3-3.85,5.67-4.24,1.89-.27,3.78-.45,5.7-.5,5.24-.15,10.44.5,15.68.49,30.37-.09,60.76-.09,91.15-.09.69,0,1.65-.39,2,.42.3.7-.43,1.35-.89,1.88-2.24,2.62-4.16,5.5-6.17,8.28-3.97,5.47-7.74,11.06-10.22,17.52-4.88,12.67-7.02,25.62-5.35,39.13,1.54,12.36,5.73,23.78,12.88,33.99,3.39,4.82,6.97,9.43,11.49,13.42,10.53,9.29,22.5,15.44,36.14,18.53,3.86.88,7.79,1.59,11.71,1.74,7.59.3,15.19.12,22.78.11,2.08,0,2.4.26,2.49,2.38.04.9,0,1.81.01,2.7.16,8.66-.34,17.33.31,25.97.41,5.32,3.48,9.97,7.79,11.45.12.03.24.04.36.07.18.04.35.09.53.14,2.51.68,5.05.61,7.6.22,3.8-.63,5.92-3.19,7.36-6.47.82-1.88,1.27-3.86,1.3-5.89.05-6.85.69-13.68.36-20.53-.12-2.46-.23-4.92-.38-7.37-.09-1.5.54-2.16,1.94-2.39,2.96-.46,5.96-.34,8.91-.16,5.96.35,11.91-.32,17.85-.05.78.04,1.58.07,2.36.09.14.05.28.09.42.14,2.73.85,3.38,1.62,3.39,4.43.04,8.05,0,16.09.05,24.12,0,1.57.09,3.16.39,4.69.86,4.44,3.39,7.62,7.58,9.4,2.84.15,5.67.5,8.51-.04,5.35-1.59,8.28-5.55,8.4-11.63.15-7.81.2-15.61.24-23.42.01-2.12-.12-4.25-.23-6.39-.04-.86.27-1.19,1.16-1.17,11.29.05,22.58.09,33.87.14.39.04.41.31.39.61.04,9.76.01,19.54.14,29.31.04,2.46.53,4.89,1.63,7.19,1.35,2.8,3.44,4.56,6.5,4.89,3.25.35,6.5.32,9.68-.7,3.46-1.12,5.01-3.84,5.94-6.98,1.03-3.48,1.51-7.06,1.47-10.74-.07-7.36.03-14.73-.05-22.11-.01-1.38.55-1.78,1.7-1.82.95-.04,1.9.01,2.86.01,30.44,0,60.88-.01,91.33-.03.14.08.27.15.41.23,3.85-.45,7.77-.61,11.55-1.39,6.33-1.3,12.52-3.12,18.44-5.83,3.84-1.74,7.54-3.78,10.94-6.15,5.46-3.82,10.47-8.27,14.88-13.33,2.98-3.43,5.83-7.02,8.05-10.94,3.92-6.94,7-14.29,8.71-22.16,1.42-6.56,2.21-13.17,2.07-19.88-.31-12.57-3.57-24.35-9.39-35.47-.46-.89-.9-1.81-1.32-2.73-.15-.32-.53-.72-.23-1.07.28-.31.74-.12,1.13-.04,4.42.88,8.66,2.34,12.9,3.84,13.94,4.94,26.67,12.13,38.56,20.85,12.05,8.83,23.61,18.29,34.57,28.44,4.16,3.86,8.36,7.7,12.33,11.74,4.58,4.63,8.95,9.48,13.38,14.26,3.19,3.44,6.52,6.73,11.06,8.32,2.76.96,5.52,1.58,8.59.9,6.51-1.45,10.56-5.7,13.82-11.06,9.55-15.72,16.15-32.56,19.5-50.66,1.47-7.97,2.84-15.95,3.44-24.05.22-2.93.14-5.83.3-8.74-.01-2.23.04-4.44-.07-6.66-.05-1.11.58-11.48.58-12.83v-4.05c0-2.7-.01-1.78,0-2.7Zm-678.91,5.53c-1.89-.18-2.31-1.85-2.67-3.39-1.94-8.27-7.7-12.75-15.29-15.36-1.51-.51-2.71-1.32-3.67-2.54-.23-.3-.65-.63-.34-1.01.15-.2.59-.2.92-.22,4.16-.18,8,.95,11.56,3.03,3.69,2.15,6.94,4.77,9.17,8.5,1.3,2.16,2.16,4.43,2.13,7.51.03,2.08-.55,3.59-1.81,3.48Zm202.72,109.63h-.07c0,4.34.01,8.66,0,12.99-.01.46.24,1.08-.43,1.3-.47.16-.84-.12-1.22-.41-3.48-2.46-6.2-5.5-7.48-9.68-.2-.68-.2-1.3-.27-1.94-.68-6.2,1.58-11.14,6.44-14.95.78-.61,1.26-2.15,2.5-1.53,1.09.55.49,1.93.5,2.92.08,3.77.03,7.54.03,11.3Zm.28-65.69v26.5c0,3.08-.03,2.96-2.96,3.92-4.2,1.36-8.09,3.4-11.78,5.88-2.47,1.66-4.5,3.78-6.46,5.87-3,3.19-5.09,7.01-6.56,11.22-1.81,5.16-2.21,10.48-2.03,15.8.11,3.32,1.13,6.6,1.84,9.89.43,2.05.27,2.28-1.72,2-9.28-1.39-17.71-4.82-25.35-10.29-5.79-4.15-10.35-9.31-13.99-15.34-4.63-7.67-8.1-15.82-9.06-24.77-.77-7.17-.53-14.34,1.66-21.35,2.46-7.91,6.33-15.02,11.47-21.47,3.66-4.62,8.02-8.51,12.9-11.79,2.51-1.69,5.27-2.97,8-4.34,4.28-2.15,8.77-3.38,13.38-4.23,4.82-.89,9.71-.49,14.59-.31,1.17.05,1.62.57,1.62,1.81-.04,14.06-.01,28.12-.05,42.19-.01,3.58-1.2,7.05-3.88,9.26-4.58,3.8-9.27,4.79-15.44,1.13-3.69-2.17-5.08-5.74-5.31-9.76-.19-3.31-.07-6.63-.03-9.95.03-1.08-.31-1.51-1.43-1.49-2.36.05-4.73.04-7.09.01-.86,0-1.45.3-1.5,1.2-.36,5.11-.86,10.2.46,15.26,1.9,7.28,6.43,12.24,13.24,15.34,2.97,1.35,6,2.17,9.2,1.9,4.42-.38,8.5-1.69,12.28-4.23,3.07-2.07,5.59-4.47,7.25-7.71,1.85-3.63,2.67-7.56,2.69-11.63.04-12.37.04-24.76-.03-37.13,0-1.89.58-3.51,1.36-5.15.45-.95.97-.9,1.42-.07.76,1.39,1.34,2.81,1.32,4.46-.04,9.12-.01,18.23-.01,27.35Zm25.97-32.71c.57-.58,1.28-.3,1.92-.31,9.9-.01,19.79.01,29.69-.03,1.19,0,1.55.2,1.54,1.53-.03,19.73.03,39.48.05,59.21.24.26.26.5-.01.74-.16.78-.78.68-1.34.68-10.09,0-20.19-.01-30.29-.01-.62,0-1.27.05-1.58-.66-.2-.12-.23-.26-.05-.42,0-19.88,0-39.77-.01-59.67-.27-.38-.28-.73.09-1.05Zm33.8,111.03c0,3.48.01,3.46-3.46,3.46-9.49-.03-18.99-.01-28.48-.03-.7,0-1.51.26-1.9-.66-.19-.12-.22-.26-.04-.42-.05-9.87-.09-19.75-.15-29.62-.12-.39-.14-.77.23-1.07,2.16-.58,4.4-.61,6.59-.61,7.36,0,14.71.16,22.05.3,2.39.04,5.17,3.05,5.17,5.56.01,7.7-.03,15.38-.01,23.08Zm25.96-110.36c.05-.97.74-.99,1.45-.99,10.45,0,20.91.01,31.36-.03,1.23-.01,1.35.57,1.35,1.54,0,11.93.03,23.84.05,35.75v23.45c.24.26.24.5-.01.74-.74,1.09-1.97,1.03-2.96.92-1.93-.2-3.82-.03-5.73-.01-2.88.01-5.77-.15-8.66-.14-4.96.01-9.93-.12-14.88-.05-1.59.03-2.04-.46-2.03-2,.04-19.49.03-38.99.03-58.48-.27-.24-.26-.49.03-.7Zm34.47,112.94c.03.84-.2,1.19-1.12,1.19-10.74-.03-21.49-.03-32.22.01-1.39,0-1.16-.89-1.16-1.7-.01-6.52,0-13.05,0-19.57,0-3.25-.01-6.51-.03-9.78-.18-.14-.19-.27-.01-.42.03-.82.53-.97,1.24-.97,10.74.01,21.47.01,32.22-.01,1.32-.01,1.07.82,1.07,1.57v25.3c0,1.46-.04,2.93.01,4.39Zm76.74-71.84s-.07.07-.11.09c-1.94,9.98-10.35,17.03-20.22,16.46-9.67-.57-16.87-6.74-18.44-15.86-1.2-6.91.86-12.88,6.25-17.91,6.16-5.73,17.9-6.23,24.2-1.43,6.05,4.61,9.14,10.62,8.24,18.37.03.09.07.18.07.27Zm-50.85-38.87c-.01-.61-.01-1.23-.01-1.85-.28-.38-.3-.73.09-1.05.49-.55,1.15-.31,1.73-.31,15.71-.01,31.41-.01,47.12-.01.74-.01,1.54-.18,1.51.97.85.22.23.49.03.74.03,4.13.05,8.28.08,12.41.2.26.22.51-.03.77-.7.77-1.36.16-1.94-.16-4.36-2.43-8.97-4.19-13.88-4.98-7.28-1.16-13.92.41-19.95,4.7-4.59,3.28-8.28,7.47-10.7,12.4-2.43,4.94-3.77,10.36-2.49,16.14,1.49,6.7,4.58,12.48,8.9,17.71.36.45,1.13.84.82,1.51-.22.46-.93.15-1.42.24-1.86.36-3.74-.22-5.6-.01-.45.04-.9-.03-1.35.01-3.21.27-3.17.18-3.04-3.01.15-3.7,0-7.41-.01-11.12v-.45c-.32-14.88.31-29.77.14-44.65Zm73.13,101.94c-1.26,3.03-3.01,5.69-5.88,7.39-2.81,1.67-5.92,2.53-9.18,2.54-18.73.03-37.46-.01-56.2.04-1.77.01-2.28-.58-2.13-2.23.51-5.94.2-11.9.24-17.85.03-3.66-.08-7.31-.14-10.97-.11-.28-.07-.53.15-.76.24-1.03,1.08-.61,1.66-.61,8.1-.03,16.21-.14,24.3,0,7.54.14,15.07-.69,22.6-.28,4.9.27,9.89-.24,14.71,1.32,9.13,2.97,13.56,12.51,9.87,21.41Zm72.65-25.16c-3.47,7.87-8.47,14.73-14.91,20.37-8.17,7.17-17.67,11.84-28.47,13.72-3.16.55-6.33.59-9.51.84-1.23.08-1-.81-.89-1.51.46-3.04,1.12-6.08,1.43-9.14.73-7.27.68-14.49-2.36-21.34-3.31-7.44-9.4-11.87-16.61-15.02-6.69-2.9-13.75-4.48-20.89-5.78-.47-.08-1.13.2-1.36-.38-.27-.69.32-1.13.74-1.57,2.9-3,5.05-6.44,6.28-10.44,1.15-3.73,1.5-7.56,1.53-11.41.07-12.65.03-25.31.03-37.96-.19-.15-.18-.3.01-.42.03-.81.41-1.13,1.19-.88,3.09,1.01,6.32.5,9.48.86,6.32.7,12.68,1.12,19,1.84,1.13.12,2.27.05,3.39.26.89.15,1.97-.11,2.51.96.04.09.08.19.11.28,0,.03-.07.08-.11.12-.01,22.32-.01,44.66-.07,67,0,1.24.43,1.53,1.55,1.51,4.05-.05,8.12-.09,12.16.01,1.47.04,1.88-.31,1.88-1.84-.05-20.65-.05-41.3-.03-61.94,0-3.3-.54-3.03,2.89-2.24,6.19,1.42,11.71,4.36,16.45,8.55,10.6,9.32,17.14,20.93,19.15,34.98,1.53,10.63-.27,20.8-4.56,30.56Zm134.1-165.28c-1.93,1.88-3.92,3.71-5.9,5.55-5.36,4.96-10.78,9.86-16.11,14.84-5.47,5.11-11.02,10.1-16.86,14.75-7.05,5.63-14.22,11.1-22,15.73-8.36,4.97-17.14,8.93-26.31,12.09-5.94,2.05-11.91,4.04-17.87,6.06-.7.23-1.39.46-2.15.42-1.36-.01-3.05-.47-3.23-1.61-.2-1.28,1.54-1.97,2.7-2.36,2.44-.81,4.98-1.36,7.48-2.03,11.2-2.98,21.7-7.64,31.72-13.42,6.91-4,13.56-8.43,19.88-13.32,3.73-2.88,7.28-6.01,10.98-8.93,2.86-2.24,5.59-4.62,8.22-7.09,3.78-3.55,7.81-6.81,11.51-10.47,3.98-3.93,7.91-7.95,12.43-11.29,1.16-.85,2.49-1.55,3.97-1.73.8-.09,1.63-.14,2.11.69.47.85-.01,1.57-.58,2.11Z"/>
    <path class="cls-3" d="m679.49,33.76c-2.7-.49-5.4.2-8.12,0,.01-.45.01-.89.01-1.35h7.09c-.49,1.08.85.77,1.01,1.35Z"/>
    <path class="cls-3" d="m315.88,337.59h-7.77c.04-.53-.49-.62-.72-.95,2.84.15,5.67.5,8.51-.04-.5.32-.55.65-.03.99Z"/>
    <path class="cls-3" d="m248.36,337.59c.34-.43.11-.8-.12-1.16,2.51.68,5.05.61,7.6.22-.14.53.41.63.62.95h-8.1Z"/>
    <path class="cls-3" d="m247.71,336.29c-.15.14-.27.11-.36-.07.12.03.24.04.36.07Z"/>
    <path class="cls-3" d="m420.1,137.01c-.04.15-.09.29-.13.44.04-.15.09-.29.13-.44Z"/>
    <path class="cls-3" d="m265.22,159.34c-.03.35-.05.7-.09,1.05-.27-.38-.28-.73.09-1.05Z"/>
    <path class="cls-3" d="m385.42,159.34c-.04.35-.07.7-.09,1.05-.28-.38-.3-.73.09-1.05Z"/>
    <path class="cls-3" d="m435.81,160.73c-.01-.24-.03-.5-.03-.74.85.22.23.49.03.74Z"/>
    <path class="cls-3" d="m264.99,243.1c-.12-.39-.14-.77.23-1.07.04.38.05.76-.23,1.07Z"/>
    <path class="cls-3" d="m324.98,160.01c-.01.23-.03.47-.03.7-.27-.24-.26-.49.03-.7Z"/>
    <path class="cls-3" d="m435.86,173.91c.01-.26.01-.51.03-.77.2.26.22.51-.03.77Z"/>
    <path class="cls-3" d="m359.74,294.73c-.14-.2-.26-.41-.39-.61.39.04.41.31.39.61Z"/>
    <path class="cls-3" d="m298.4,220.48c.01-.24.01-.5.01-.74.24.26.26.5-.01.74Z"/>
    <path class="cls-3" d="m359.18,220.48c0-.24.01-.5.01-.74.24.26.24.5-.01.74Z"/>
    <path class="cls-3" d="m385.19,243.1c-.11-.28-.07-.53.15-.76.09.28.05.54-.15.76Z"/>
    <path class="cls-3" d="m265.19,220.48c-.2-.12-.23-.26-.05-.42.01.14.04.27.05.42Z"/>
    <path class="cls-3" d="m324.91,243.1c-.18-.14-.19-.27-.01-.42,0,.14.01.28.01.42Z"/>
    <path class="cls-3" d="m265.18,273.14c-.19-.12-.22-.26-.04-.42.01.15.03.28.04.42Z"/>
    <path class="cls-3" d="m385.2,207.34v-.45c.16.15.16.3,0,.45Z"/>
    <path class="cls-3" d="m295.98,294c-.14-.04-.28-.09-.42-.13.14.04.28.09.42.13Z"/>
    <path class="cls-3" d="m481.35,293.97c-.14-.07-.27-.15-.41-.22.14.07.27.15.41.22Z"/>
    <path class="cls-3" d="m436.19,201.11s-.07.07-.11.09c.01-.12.03-.24.04-.36.03.09.07.18.07.27Z"/>
    <path class="cls-3" d="m481.81,162.3s-.07.08-.11.12v-.41c.04.09.08.19.11.28Z"/>
    <path class="cls-3" d="m446.13,158.97c-.01.14-.01.27-.01.42-.19-.15-.18-.3.01-.42Z"/>
  </g>
  <text class="cls-2" transform="translate(786.6 299.73)"><tspan class="cls-1" x="0" y="0">D</tspan><tspan class="cls-6" x="170.86" y="0">ALA </tspan><tspan class="cls-4" x="722.7" y="0">T</tspan><tspan class="cls-5" x="857.11" y="0">AP</tspan><tspan class="cls-1" x="1174.21" y="0">T</tspan><tspan class="cls-6" x="1318.08" y="0">O</tspan></text>
  <text/>
</svg>