<?xml version="1.0" encoding="UTF-8"?>
<svg id="Layer_1" data-name="Layer 1" xmlns="http://www.w3.org/2000/svg" viewBox="0 0 1526 370">
  <defs>
    <style>
      .cls-1 {
        fill: #af2828;
      }
    </style>
  </defs>
  <g id="Lager_2" data-name="Lager 2">
    <path class="cls-1" d="m128.41,111.95c-.08-2.77,2.1-5.08,4.86-5.17.04,0,.07,0,.11,0,2.79.11,5.02,2.37,5.08,5.17-.13,2.78-2.32,5.03-5.09,5.23-2.8-.11-4.99-2.43-4.96-5.23Z"/>
    <path class="cls-1" d="m311.46,266.01c-1.2-15.89-7.51-18.31-7.51-18.31h-2.6v22.53c0,10.2,7,18.46,15.64,18.46h2.4s-6.49-6.2-7.93-22.68ZM195.29,30.82L33.98,148.7v198.95h23.1c-.09-.93-.09-1.87,0-2.81.27-3.34,2.79-4.24,5.39-5.06l15.02-4.78c-4.97.11-9.6,1.5-14.27,2.61-2.4.56-5.59,2.07-6.1-2.36-.39-3.3-.12-6.32,4.22-6.87s8.71-1.22,13.05-1.83c-3.72-.46-7.47-.57-11.21-.35-3.5.27-6.19.3-6.23-4.4s2.64-5.56,6.46-5.35c4.88.27,9.73,1.88,16.18.45-6.97-.81-12.47-1.43-17.95-2.09-4.09-.5-4.9-3.26-4.51-6.76.42-4.28,3.29-3.12,6.01-2.7,2.12.32,4.09,1.82,7.14.74-3.85-1.5-7.18-2.52-10.35-3.97-3.65-1.68-3.52-5.29-2.45-8.08,1.5-3.82,4.1-.72,6.01,0,4.13,1.62,8.19,3.47,12.14,5.5,4.3,2.19,5.54.6,5.5-3.67-.11-8.44,0-16.9,0-25.34-.09-6.41,1.73-13.36-.81-19.15-3.41-7.77-3.2-15.52-3.24-23.48s0-15.55,0-23.33c0-4.96-1.5-11.75,5.86-11.93,7.99-.21,6.46,7.06,6.47,12.02.12,38.44,0,76.89,0,115.33v18.03c0,4.07-2.33,6.22-5.9,4.73-4.01-1.65-6.81,0-9.96,1.5-2.25,1.1-4.51,2.21-6.78,3.26h47.19c.05-.59.14-1.18.27-1.76,3.58-22.37,7.16-44.74,10.76-67.11.43-2.03.74-4.08.93-6.14-.09-1.23.42-2.42,1.37-3.2-.25-1.49-.34-3-.29-4.51,0-6.01.78-9.19,2.91-10.52v-117.75c-.08-1.11-.08-2.21,0-3.32-1.31-.47-1.5-1.62-1.5-4.51,0-4.22.15-8.16-3.26-11.79-3.41-3.64-1.89-9.07,1.8-12.26,3.63-3.21,9.08-3.21,12.71,0,3.68,3.14,4.94,9.01,1.62,12.44-3.32,3.43-3.35,7.51-3.32,11.76,0,3.11-.09,4.22-1.5,4.61.1.66.15,1.33.14,2v118.68c2.58,1.17,3.53,4.39,3.55,10.83.08,1.56-.01,3.12-.29,4.66,1.08.96.9,3.14,1.73,8.1,3.67,22.22,7.14,44.59,10.82,66.96.11.6.18,1.2.24,1.8s.09.78.11,1.16h18.66c.18-8.77.39-19.53.57-28.38h-2.1c.89-7.93,3.92-10.71,12.29-10.65,7.51,0,15.17.14,23.69.21-.33-4.28-.6-7.83-.86-10.98h6.22c.12-8.56.27-17.02.3-25.46V124.36c0-3.74.89-6.78,4.85-7.6s6.59,2.1,6.59,7.6v165.85c0,2.52.12,5.05.23,7.75h6.01c-.3,2.63-.74,6.41-1.25,10.89,9.01-.14,16.63-.29,24.19-.36,8.67-.09,11.19,2.13,12.65,10.73h-2.07c0,6.16-.11,17.64-.18,28.3h21.03c-1.5-1.5-2.24-3.92-2.25-7.44v-45.34c0-14.71,0-29.42,0-44.14-.1-2.57.37-5.14,1.37-7.51,2.16-4.41.79-9.73-3.23-12.54-2.67-1.89-6.25-3-6.11-7.87.14-4.66,3.74-5.33,6.16-7.51,4.36-3.8,9.16-4.73,14.45-4.51,6.55.33,13.13.09,19.69.08,1.47-.21,2.97.13,4.21.96,2.43,2.04,4.42,4.51,7.51,5.65,2.63.93,1.88,4.94,1.65,7.77.07,2.07-1.48,3.84-3.55,4.03-3.41.2-3,2.33-2.16,5.05,1.37,4.16,2.64,8.37,3.98,12.54.66,2.03.83,4.01-1.02,5.15s-3.23.32-4.51-1.32c-3.43-4.51-6.88-8.92-10.31-13.43-1.05-1.4-2.01-3.11-3.83-1.71-1.02.78-.8,5.86.42,6.5,8.64,4.63,9.7,13.64,10.34,23.27.49,8.59,4.08,16.7,10.1,22.85,3.79,3.91,6.2,8.95,6.87,14.35,1.79,12.02,4.07,23.92,6.16,35.86.75,4.3.09,7.41-1.94,9.19h18.79v-198.75L195.29,30.82Zm116.22,235.2c-1.2-15.89-7.51-18.31-7.51-18.31h-2.64v22.53c0,10.2,7,18.46,15.64,18.46h2.4s-6.49-6.2-7.93-22.68h.05Zm-163.36,80.96c-.98-7.12-1.98-14.24-3-21.36-1-7.35-2-14.7-3-22.05h-.54c1.14,11.02,2.27,22.03,3.4,33.05.33,3.26.74,6.53.99,9.79.03.42.03.83,0,1.25h2.3c-.06-.22-.11-.45-.14-.68Zm-5.92.68c-.06-.28-.11-.57-.14-.86-.69-6.91-1.38-13.81-2-20.72-.84-9.45-1.62-18.9-1.83-28.33,0,8.29-.15,16.52,0,24.88.18,7.68.75,15.32,1.07,22.98.07.68.07,1.36,0,2.04h2.9Zm-7.33-2.03c-1.17-15.91-.12-31.91-1.82-47.85,0,1.1-.12,2.18-.14,3.27-.32,13.64-.6,27.28-.95,40.92,0,1.82-.35,3.64-.57,5.45v.23h3.61c-.14-.65-.09-1.37-.14-2.03Zm-6.17-41.42c-1.05,12.09-2.11,24.19-3.18,36.31-.18,2.07-.41,4.13-.65,6.19,0,.33,0,.66-.14.98h3c-.02-.14-.02-.29,0-.44,0-3.42.09-6.83.26-10.23.33-10.95.8-21.87.71-32.81h0Zm-8.26,30.3c-.56,4.01-1.09,8.01-1.59,12.02-.04.39-.12.77-.24,1.14h2.37c-.04-.5-.04-1,0-1.5.54-6.01,1.19-11.87,1.8-17.8.87-8.47,1.73-16.93,2.07-25.54-1.44,10.6-2.91,21.16-4.42,31.68Z"/>
    <rect class="cls-1" x="16.9" y="355.38" width="1509.1" height="12.05"/>
    <polygon class="cls-1" points="388.47 144.78 380.81 155.31 195.25 20.12 10.71 155.29 3 144.79 195.23 4 300.24 80.5 300.24 64.98 341.1 64.98 341.1 110.27 388.47 144.78"/>
    <path class="cls-1" d="m499.24,132.4c-4.48-7.53-11.04-13.61-18.88-17.52-8.71-4.28-18.33-6.42-28.03-6.22h-33.91v99.86h33.91c9.7.19,19.31-1.92,28.03-6.16,7.84-3.85,14.4-9.88,18.88-17.38,4.61-7.97,6.94-17.04,6.73-26.24.2-9.23-2.13-18.33-6.73-26.33Zm-22.46,51.51c-5.82,6.19-13.97,9.29-24.46,9.3h-13.67v-68.95h13.75c10.49,0,18.64,3.1,24.46,9.3,5.82,6.2,8.7,14.59,8.65,25.18,0,10.58-2.91,18.97-8.73,25.18h0Z"/>
    <path class="cls-1" d="m573.49,108.38h-23.89l-35.33,100.14h21.32l6.43-18.75h38.92l6.44,18.75h21.32l-35.21-100.14Zm-26.17,65.95l14.17-41.64,14.3,41.64h-28.47Z"/>
    <polygon class="cls-1" points="642.88 193.21 674.92 193.21 674.92 208.52 622.7 208.52 622.7 108.66 642.88 108.66 642.88 193.21"/>
    <path class="cls-1" d="m740.16,108.38h-23.9l-35.33,100.14h21.32l6.44-18.75h38.91l6.43,18.75h21.32l-35.18-100.14Zm-26.18,65.95l14.17-41.64,14.3,41.64h-28.47Z"/>
    <polygon class="cls-1" points="463.34 258.92 463.34 270.77 431.39 270.77 431.39 290.86 455.77 290.86 455.77 302.71 431.39 302.71 431.39 335.54 415.91 335.54 415.91 258.92 463.34 258.92"/>
    <path class="cls-1" d="m515.15,258.69h-18.33l-27.12,76.84h16.36l4.94-14.38h29.85l4.94,14.38h16.36l-27.01-76.84Zm-20.09,50.6l10.86-31.88,10.98,31.94-21.84-.06Z"/>
    <path class="cls-1" d="m603.25,324.67c-2.37,3.62-5.67,6.54-9.55,8.44-4.49,2.21-9.44,3.3-14.44,3.18-8.41,0-15.18-1.96-20.3-5.87-5.12-3.92-7.68-9.42-7.69-16.52h16.52c.09,2.85,1.29,5.54,3.35,7.51,2.31,1.85,5.22,2.77,8.17,2.58,3.03.16,6.01-.82,8.35-2.75,2.01-1.82,3.11-4.43,3-7.14.09-2.11-.68-4.17-2.13-5.71-1.49-1.5-3.29-2.66-5.27-3.4-2.9-1.07-5.84-1.98-8.83-2.75-4.1-.97-8.12-2.26-12.02-3.85-3.12-1.36-5.84-3.49-7.9-6.2-2.35-3.34-3.51-7.38-3.29-11.46-.09-4.3,1.12-8.53,3.46-12.14,2.38-3.53,5.71-6.31,9.61-8.01,4.39-1.93,9.15-2.89,13.94-2.81,8.01,0,14.41,1.81,19.2,5.44,4.79,3.63,7.43,9.13,7.92,16.52h-16.87c-.16-2.66-1.33-5.16-3.29-6.97-2.03-1.77-4.67-2.7-7.36-2.58-2.74-.12-5.44.71-7.63,2.36-2.04,1.81-3.11,4.48-2.9,7.2-.1,2.16.67,4.28,2.13,5.87,1.49,1.54,3.32,2.72,5.33,3.46,2.87,1.04,5.8,1.91,8.77,2.63,4.1.97,8.12,2.26,12.02,3.85,3.11,1.35,5.81,3.49,7.84,6.2,2.33,3.36,3.47,7.4,3.24,11.48.02,4.05-1.15,8.02-3.35,11.42l-.05.02Z"/>
    <polygon class="cls-1" points="673.67 258.92 673.67 270.77 652.93 270.77 652.93 335.54 637.56 335.54 637.56 270.77 616.92 270.77 616.92 258.92 673.67 258.92"/>
    <rect class="cls-1" x="685.53" y="258.92" width="15.47" height="76.63"/>
    <path class="cls-1" d="m774.61,264.18c6.48,4.26,11.37,10.55,13.88,17.89h-18.55c-3.44-6.73-9.29-10.1-17.56-10.1-4.28-.09-8.51.98-12.24,3.08-3.56,2.06-6.44,5.11-8.29,8.77-3.95,8.34-3.95,18.01,0,26.35,1.86,3.68,4.74,6.74,8.29,8.83,3.72,2.13,7.95,3.21,12.24,3.12,5.08.21,10.06-1.44,14-4.66,3.69-3.24,6.09-7.71,6.75-12.57h-25.46v-11.75h42.06v11.75c-.86,5.49-3,10.7-6.25,15.2-3.41,4.84-7.9,8.83-13.11,11.64-5.5,3.01-11.68,4.57-17.95,4.51-6.91.07-13.71-1.65-19.75-5-5.93-3.25-10.85-8.08-14.23-13.94-6.95-12.57-6.95-27.83,0-40.4,3.38-5.87,8.3-10.7,14.23-13.99,13.2-7.19,29.26-6.69,41.99,1.31l-.03-.06Z"/>
    <polygon class="cls-1" points="865.77 258.92 865.77 335.54 850.29 335.54 850.29 302.71 817.36 302.71 817.36 335.54 801.88 335.54 801.88 258.92 817.36 258.92 817.36 290.86 850.29 290.86 850.29 258.92 865.77 258.92"/>
    <polygon class="cls-1" points="897.72 270.55 897.72 290.63 923.18 290.63 923.18 302.5 897.72 302.5 897.72 323.68 926.47 323.68 926.47 335.54 882.23 335.54 882.23 258.69 926.47 258.69 926.47 270.55 897.72 270.55"/>
    <polygon class="cls-1" points="994.54 258.92 994.54 270.77 973.8 270.77 973.8 335.54 958.43 335.54 958.43 270.77 937.79 270.77 937.79 258.92 994.54 258.92"/>
    <path class="cls-1" d="m1056.74,324.67c-2.37,3.62-5.67,6.54-9.55,8.44-4.49,2.21-9.44,3.3-14.44,3.18-8.41,0-15.18-1.96-20.31-5.87-5.13-3.92-7.69-9.42-7.69-16.52h16.52c.08,2.84,1.28,5.54,3.33,7.51,2.31,1.85,5.23,2.77,8.19,2.58,3.03.17,6-.81,8.34-2.75,2.01-1.82,3.11-4.43,3-7.14.08-2.11-.69-4.17-2.15-5.71-1.49-1.5-3.28-2.66-5.26-3.4-2.9-1.07-5.85-1.99-8.85-2.75-4.1-.97-8.12-2.26-12.02-3.85-3.12-1.35-5.85-3.49-7.9-6.2-2.36-3.34-3.52-7.38-3.31-11.46-.09-4.3,1.12-8.53,3.47-12.14,2.37-3.53,5.7-6.31,9.6-8.01,4.43-1.91,9.21-2.84,14.03-2.72,8.01,0,14.42,1.81,19.21,5.44,4.8,3.63,7.43,9.13,7.9,16.52h-16.9c-.28-5.56-5.02-9.84-10.58-9.56-.03,0-.05,0-.07,0-2.74-.13-5.44.71-7.63,2.36-2.04,1.81-3.12,4.47-2.91,7.2-.09,2.17.68,4.28,2.15,5.87,1.49,1.54,3.31,2.72,5.32,3.46,2.88,1.04,5.81,1.92,8.79,2.63,4.1.97,8.12,2.26,12.02,3.85,3.11,1.35,5.82,3.49,7.86,6.2,2.31,3.36,3.45,7.4,3.23,11.48.02,4.05-1.14,8.01-3.33,11.42l-.06-.08Z"/>
    <path class="cls-1" d="m1125.19,324.67c-2.36,3.62-5.66,6.54-9.54,8.44-4.49,2.21-9.45,3.3-14.45,3.18-8.41,0-15.18-1.96-20.3-5.87-5.12-3.92-7.68-9.42-7.69-16.52h16.52c.09,2.85,1.3,5.54,3.35,7.51,2.31,1.85,5.22,2.77,8.17,2.58,3.03.16,6.01-.82,8.35-2.75,2.01-1.82,3.11-4.43,3-7.14.08-2.11-.69-4.17-2.15-5.71-1.49-1.5-3.29-2.66-5.27-3.4-2.9-1.07-5.84-1.98-8.83-2.75-4.1-.97-8.12-2.26-12.02-3.85-3.13-1.36-5.85-3.49-7.92-6.2-2.35-3.34-3.51-7.38-3.29-11.46-.09-4.3,1.12-8.53,3.46-12.14,2.38-3.53,5.71-6.31,9.61-8.01,4.43-1.91,9.22-2.84,14.05-2.72,8.01,0,14.42,1.81,19.21,5.44,4.8,3.63,7.43,9.13,7.9,16.52h-16.92c-.16-2.66-1.33-5.16-3.29-6.97-2.03-1.77-4.66-2.69-7.35-2.58-2.74-.13-5.44.71-7.63,2.36-2.04,1.81-3.12,4.47-2.91,7.2-.09,2.17.68,4.28,2.15,5.87,1.49,1.54,3.31,2.72,5.32,3.46,2.88,1.04,5.81,1.92,8.79,2.63,4.1.98,8.12,2.26,12.02,3.85,3.11,1.35,5.81,3.49,7.84,6.2,2.33,3.36,3.47,7.4,3.24,11.48.02,4.05-1.15,8.02-3.35,11.42l-.09-.08Z"/>
    <polygon class="cls-1" points="1158.88 270.55 1158.88 290.63 1184.34 290.63 1184.34 302.5 1158.88 302.5 1158.88 323.68 1187.63 323.68 1187.63 335.54 1143.4 335.54 1143.4 258.69 1187.63 258.69 1187.63 270.55 1158.88 270.55"/>
    <path class="cls-1" d="m1241.09,304.03c6.3-1.54,10.91-4.4,13.84-8.56,2.85-3.93,4.38-8.66,4.39-13.52.18-8.52-4.7-16.33-12.44-19.91-4.73-2.21-9.92-3.29-15.14-3.14h-28.29v76.62h15.47v-30.51h5.05l18.4,30.53h18.33l-19.6-31.5Zm-9.43-10.88h-12.74v-22.4h12.74c3.25-.22,6.45.86,8.89,3,4.08,4.69,4.08,11.67,0,16.36-2.44,2.16-5.64,3.25-8.89,3.03Z"/>
    <polygon class="cls-1" points="1284.35 258.92 1305.32 320.06 1326.29 258.92 1342.75 258.92 1314.65 335.54 1295.99 335.54 1267.99 258.92 1284.35 258.92"/>
    <rect class="cls-1" x="1352.52" y="258.92" width="15.47" height="76.63"/>
    <path class="cls-1" d="m1441.6,264.18c6.48,4.26,11.37,10.55,13.88,17.89h-18.55c-3.44-6.73-9.29-10.1-17.56-10.1-4.28-.09-8.51.98-12.24,3.08-3.56,2.06-6.44,5.11-8.29,8.77-3.95,8.34-3.95,18.01,0,26.35,1.86,3.68,4.74,6.74,8.29,8.83,3.72,2.13,7.95,3.21,12.24,3.12,8.2,0,14.06-3.37,17.56-10.1h18.55c-2.5,7.33-7.39,13.62-13.88,17.85-12.77,7.95-28.82,8.45-42.06,1.31-5.93-3.25-10.85-8.08-14.23-13.94-6.95-12.57-6.95-27.83,0-40.4,3.38-5.87,8.3-10.7,14.23-13.99,13.22-7.22,29.32-6.72,42.06,1.31Z"/>
    <polygon class="cls-1" points="1484.36 270.55 1484.36 290.63 1509.82 290.63 1509.82 302.5 1484.36 302.5 1484.36 323.68 1513.13 323.68 1513.13 335.54 1468.88 335.54 1468.88 258.69 1513.13 258.69 1513.13 270.55 1484.36 270.55"/>
  </g>
</svg>