<?xml version="1.0" encoding="UTF-8"?>
<svg id="Layer_1" data-name="Layer 1" xmlns="http://www.w3.org/2000/svg" viewBox="0 0 1058 379">
  <defs>
    <style>
      .cls-1 {
        fill: #ea5d8e;
      }

      .cls-2 {
        fill: #568630;
      }

      .cls-3 {
        fill: #185025;
      }

      .cls-4 {
        fill: #b0486d;
      }

      .cls-5 {
        fill: #1d1d1b;
      }
    </style>
  </defs>
  <g>
    <g>
      <path class="cls-5" d="m701.64,352.83h26.19v8.72h-26.19v17.44h-8.72v-69.83h34.91v8.75h-26.19v34.91Zm26.19,0v-34.91h8.72v34.91h-8.72Z"/>
      <path class="cls-5" d="m747.49,352.83v-17.47h8.72v17.47h-8.72Zm8.74-43.69h-8.72v-8.62h8.71v-8.7h26.19v8.71h8.72v8.62h-8.72v-8.61h-26.18v8.6Zm-.01,8.78v-8.75h26.19v8.75h-26.19Zm34.91,0v43.64h-34.91v-8.72h26.19v-17.47h-26.19v-8.72h26.19v-8.72h8.72Z"/>
      <path class="cls-5" d="m834.67,317.92h8.72v8.72h-8.72v34.91h-8.72v-52.38h8.72v8.75Zm8.72,0v-8.75h17.47v8.75h-17.47Zm17.47,43.64v-43.64h8.72v43.64h-8.72Z"/>
      <path class="cls-5" d="m880.52,352.83v-17.47h8.72v17.47h-8.72Zm8.61-48.65v-8.69h8.68v8.69h-8.68Zm.11,13.74v-8.75h26.19v8.75h-26.19Zm34.91,0v43.64h-34.91v-8.72h26.19v-17.47h-26.19v-8.72h26.19v-8.72h8.72Zm-17.55-13.74v-8.69h8.68v8.69h-8.68Z"/>
      <path class="cls-5" d="m943.81,317.92v34.91h-8.72v-61.11h8.72v17.45h8.72v8.75h-8.72Zm0,43.64v-8.72h8.72v8.72h-8.72Z"/>
      <path class="cls-5" d="m972.18,335.36v17.47h-8.72v-34.91h8.72v8.72h26.19v-8.72h8.72v17.44h-34.91Zm0-17.45v-8.75h26.19v8.75h-26.19Zm0,43.64v-8.72h26.19v8.72h-26.19Zm26.19-8.72v-8.72h8.72v8.72h-8.72Z"/>
      <path class="cls-5" d="m1026.75,317.92v34.91h-8.72v-61.11h8.72v17.45h8.72v8.75h-8.72Zm0,43.64v-8.72h8.72v8.72h-8.72Z"/>
      <path class="cls-5" d="m1046.4,361.56v-8.72h8.72v8.72h-8.72Z"/>
    </g>
    <path class="cls-5" d="m425.45,279.1h61.77l-.44-40.68v-73.22c0-11.71-5.47-21.91-16.4-30.59-10.93-8.68-23.86-13.02-38.79-13.02-17.24,0-28.85,3.09-34.85,9.27-5.99,6.18-10.14,12.32-12.46,18.39v-24.41h-59.82l.22,35.79v77.77l-.22,40.68h61.56l-.48-40.68v-83.3c1.88-4.99,4.33-9.87,7.35-14.64,3.02-4.77,8.19-7.16,15.49-7.16,11.47,0,17.21,8.46,17.21,25.38l.31,13.34v66.38l-.47,40.68Z"/>
    <path class="cls-5" d="m541.08,75.99c0-4.56,1.92-8.61,5.78-12.11,3.86-3.52,8.5-5.27,13.9-5.27s9.94,1.66,13.61,4.99c3.66,3.34,5.5,7.48,5.5,12.39,0,5.27-1.73,9.58-5.21,12.9-3.48,3.34-8.1,5.01-13.9,5.01-5.4,0-10.04-1.75-13.9-5.27-3.86-3.51-5.78-7.72-5.78-12.65Z"/>
    <path class="cls-5" d="m606.51,75.99c0-4.56,1.92-8.61,5.78-12.11,3.86-3.52,8.4-5.27,13.61-5.27s9.99,1.71,13.75,5.13c3.77,3.42,5.65,7.52,5.65,12.25,0,5.27-1.84,9.58-5.51,12.9-3.67,3.34-8.29,5.01-13.89,5.01-5.21,0-9.75-1.75-13.61-5.27-3.86-3.51-5.78-7.72-5.78-12.65Z"/>
    <path class="cls-5" d="m664.63,162.94v74.85c0,3.06-.04,41.32-.04,41.32h-61.1l-.03-91.34-.94-.33c-1.87,2.61-5.35,5.05-10.45,7.33-5.09,2.28-8.62,4.5-10.6,6.67-1.98,2.17-3.53,6.36-4.68,12.54-1.15,6.18-1.72,12.52-1.72,19.03,0,9.77.72,17.58,2.18,23.45,1.46,5.85,4.79,8.79,9.99,8.79,3.94,0,7.43-1.64,10.45-4.88,1.45-1.57,2.65-3.19,3.59-4.87,0,0-1.96,11.92-10.91,16.82-7.93,4.34-18.13,6.6-30.73,6.6-13.46,0-24.39-3.81-32.79-11.42-8.42-7.6-12.62-18.16-12.62-31.63,0-10.86,2.62-19.62,7.88-26.25,5.25-6.63,10.61-10.71,16.08-12.22,5.46-1.53,13.87-2.84,25.22-3.92,11.35-1.09,19.71-2.35,25.07-3.75,5.36-1.42,9.19-2.93,11.51-4.57,2.31-1.62,3.46-4.39,3.46-8.31l-.31-29.68c0-8.47-1.05-14.56-3.12-18.25-2.09-3.7-6.45-5.55-13.11-5.55-4.16,0-7.65.98-10.46,2.95-2.81,1.96-4.22,4.47-4.22,7.52,0,2.4,2.24,5.4,6.73,8.99,4.47,3.6,6.73,9,6.73,16.19,0,6.75-2.91,12.75-8.7,17.98-5.8,5.24-15.24,7.84-28.31,7.84-7.18,0-13.45-2.01-18.83-6.04-5.37-4.02-8.06-9.43-8.06-16.18,0-13.5,7.31-24.3,21.96-32.36,14.64-8.06,32.07-12.1,52.3-12.1,17.07,0,32.75,3.66,47.09,10.95,14.32,7.31,21.49,18.58,21.49,33.84Z"/>
    <path class="cls-5" d="m846.4,145.19c6.22,6.62,9.32,14.38,9.32,23.27,0,8.02-2.43,14.47-7.28,19.36-4.86,4.88-12.05,7.33-21.55,7.33-8.24,0-15.7-2.99-22.34-8.95-6.66-5.97-9.99-12.74-9.99-20.34,0-5.87,1.15-11.5,3.46-16.93,2.32-5.42,3.46-9.97,3.46-13.66,0-3.48-1.25-6.3-3.78-8.47-2.52-2.16-6.1-3.25-10.72-3.25-5.89,0-10.83,2.39-14.81,7.16-4,4.76-7.11,10.63-9.3,17.57-2.21,6.94-3.79,14.47-4.73,22.62-.95,8.13-1.42,16-1.42,23.59,0,19.74,3.21,36.93,9.64,51.58,6.43,14.64,17.8,22.94,34.01,21.96,20.75-1.26,35.71-13.31,36.63-14.06-17,19.97-43.2,25.33-57.73,25.13-24.01-.33-44.44-7.33-61.29-21.96-16.85-14.64-25.28-34.01-25.28-58.09s8.27-43.82,24.8-58.58c16.53-14.75,37.13-22.13,61.77-22.13,9.26,0,17.8,1.04,25.59,3.1,7.8,2.06,15.11,4.88,21.96,8.46,6.85,3.57,13.38,8.68,19.59,15.29Z"/>
    <path class="cls-5" d="m1058.03,278.92l-70.28.18-12.32-21.53c-2.82-4.98-7.15-12.22-12.99-21.76-5.84-9.52-11.47-18.61-16.9-27.27l-5.95,6.49,1.12,63.98h-62.9l.25-237.22h61.54l-.63,167.74c11.09-11.69,22.17-23.49,33.26-35.4,11.09-11.9,46.49-49.7,46.49-49.7l7.67-.2-37.91,39.83c10.31,17.32,20.82,34.91,31.54,52.77,10.72,17.86,18.55,30.63,23.49,38.31,4.94,7.69,14.53,23.79,14.53,23.79Z"/>
  </g>
  <rect class="cls-2" x="60.82" y="92.52" width="30.41" height="30.84"/>
  <rect class="cls-2" x="121.89" y="92.52" width="30.41" height="30.84"/>
  <rect class="cls-2" x="182.71" y="92.52" width="30.41" height="30.84"/>
  <rect class="cls-3" x="30.41" y="92.52" width="30.41" height="30.84"/>
  <rect class="cls-3" x="60.82" y="123.36" width="30.41" height="30.84"/>
  <rect class="cls-3" x="121.89" y="123.36" width="30.41" height="30.84"/>
  <rect class="cls-3" x="182.71" y="123.36" width="30.41" height="30.84"/>
  <polygon class="cls-3" points="213.12 61.68 213.12 92.52 182.71 92.52 182.71 123.36 152.3 123.36 152.3 92.52 121.89 92.52 121.89 123.36 91.23 123.36 91.23 92.52 60.82 92.52 60.82 61.68 121.89 61.68 121.89 0 152.3 0 152.3 61.68 213.12 61.68"/>
  <rect class="cls-3" x="213.12" y="92.52" width="30.41" height="30.84"/>
  <polygon class="cls-4" points="60.82 185.31 60.82 216.15 30.41 216.15 30.41 277.83 0 277.83 0 123.36 30.41 123.36 30.41 185.31 60.82 185.31"/>
  <rect class="cls-4" x="91.23" y="277.83" width="30.41" height="30.84"/>
  <rect class="cls-1" x="213.12" y="123.36" width="30.41" height="30.84"/>
  <path class="cls-1" d="m243.53,216.15v-30.84h-30.41v-30.84h-30.41v-31.1h-30.41v30.84h-30.41v-30.84h-30.67v30.84h-30.41v-30.84h-30.41v61.68h30.41v30.84h-30.41v61.68h30.41v30.84h30.41v-30.84h30.67v30.84h-30.67v30.84h91.23v-30.84h30.41v-30.84h30.41v-30.58h-30.41v-30.84h30.67Zm-121.64,30.84h-30.67v-30.84h30.67v30.84Zm60.82,30.84h-30.41v-30.84h30.41v30.84Zm0-61.68h-30.41v-30.84h30.41v30.84Z"/>
  <rect class="cls-4" x="152.3" y="185.31" width="30.41" height="30.84"/>
  <rect class="cls-4" x="152.3" y="246.99" width="30.41" height="30.84"/>
  <rect class="cls-4" x="91.23" y="216.15" width="30.41" height="30.84"/>
  <polygon class="cls-4" points="273.94 123.36 273.94 277.83 243.53 277.83 243.53 246.99 213.12 246.99 213.12 216.15 243.53 216.15 243.53 185.31 213.12 185.31 213.12 154.46 243.53 154.46 243.53 123.36 273.94 123.36"/>
  <rect class="cls-4" x="30.41" y="277.83" width="30.41" height="30.84"/>
  <rect class="cls-4" x="60.82" y="308.67" width="30.41" height="30.84"/>
  <rect class="cls-4" x="91.23" y="339.51" width="91.23" height="30.84"/>
  <rect class="cls-4" x="182.71" y="308.67" width="30.41" height="30.84"/>
  <rect class="cls-4" x="213.12" y="277.83" width="30.41" height="30.84"/>
</svg>