<?xml version="1.0" encoding="UTF-8"?>
<svg id="Layer_1" data-name="Layer 1" xmlns="http://www.w3.org/2000/svg" viewBox="0 0 1496 370">
  <defs>
    <style>
      .cls-1 {
        fill: #b4536f;
      }

      .cls-2 {
        fill: #db5d85;
      }

      .cls-3 {
        fill: #f4b84a;
      }

      .cls-4 {
        fill: #efb9d4;
      }

      .cls-5 {
        fill: #f19ac1;
      }

      .cls-6 {
        fill: #eb7ea6;
      }

      .cls-7 {
        fill: #8b344e;
      }

      .cls-8 {
        fill: none;
      }

      .cls-9 {
        fill: #ae5671;
      }

      .cls-10 {
        fill: #c6919a;
      }
    </style>
  </defs>
  <g>
    <path class="cls-4" d="m1172.76,128.13c-6.84,0-12.58,2.78-17.21,8.31-4.64,5.54-8.24,12.35-10.8,20.4-2.56,8.06-4.39,16.81-5.49,26.26-1.1,9.45-1.65,18.58-1.65,27.39,0,22.92,3.73,42.88,11.2,59.89,7.47,17.01,20.67,26.65,39.49,25.51,24.87-1.51,42.58-16.39,42.58-16.39-19.73,23.23-50.2,29.47-67.08,29.23-27.88-.39-51.61-8.5-71.17-25.5-19.57-17-29.35-39.48-29.35-67.45s9.59-50.88,28.79-68.01c19.2-17.13,43.11-25.69,71.73-25.69,10.76,0,20.67,1.2,29.72,3.59,9.05,2.4,17.55,5.67,25.5,9.83,7.95,4.16,15.53,10.08,22.74,17.76,7.21,7.69,10.82,16.69,10.82,27.02,0,9.32-2.82,16.81-8.47,22.48-5.64,5.67-13.98,8.5-25.02,8.5-9.57,0-18.22-3.46-25.95-10.39-7.73-6.93-11.59-14.79-11.59-23.62,0-6.8,1.34-13.35,4.03-19.65,2.68-6.29,4.03-11.58,4.03-15.87,0-4.03-1.47-7.3-4.39-9.83-2.93-2.51-7.08-3.78-12.45-3.78"/>
    <path class="cls-4" d="m752.96,308.75h71.72l-.51-47.23v-85.02c0-13.6-6.35-25.44-19.04-35.52-12.7-10.07-27.71-15.11-45.04-15.11-20.02,0-33.5,3.59-40.46,10.77-6.96,7.18-11.78,14.3-14.46,21.35v-28.34h-69.46l.26,41.56v90.31l-.26,47.23h71.48l-.56-47.23v-96.73c2.18-5.79,5.02-11.46,8.54-17.01,3.51-5.54,9.51-8.31,17.99-8.31,13.32,0,19.98,9.83,19.98,29.47l.36,15.49v77.08l-.55,47.23Z"/>
    <path class="cls-4" d="m1470.63,280.92c-5.74-8.92-14.83-23.75-27.28-44.49-12.45-20.73-24.66-41.15-36.62-61.26l44.01-46.27-8.91.24s-41.1,43.89-53.98,57.72c-12.87,13.83-25.75,27.52-38.62,41.09l.74-194.76h-71.46l-.29,275.45h73.04l-1.28-74.28,6.91-7.54c6.29,10.05,12.83,20.61,19.62,31.67,6.78,11.06,11.8,19.48,15.08,25.26l14.3,25,81.62-.22s-11.13-18.68-16.87-27.61"/>
    <g>
      <path class="cls-4" d="m1030.7,260.79v-86.93c0-17.71-8.32-30.81-24.96-39.29-16.64-8.48-34.86-12.72-54.68-12.72-23.48,0-43.73,4.68-60.73,14.05-17.01,9.36-25.51,21.88-25.51,37.57,0,7.84,3.12,14.1,9.37,18.79,6.24,4.68,13.52,7.02,21.85,7.02,15.18,0,26.13-3.03,32.87-9.11,6.73-6.08,10.1-13.04,10.1-20.88,0-8.35-2.6-14.62-7.8-18.8-5.21-4.17-7.8-7.65-7.8-10.44,0-3.54,1.63-6.45,4.89-8.73,3.26-2.28,7.31-3.42,12.15-3.42,7.73,0,12.8,2.15,15.22,6.44,2.41,4.29,3.63,11.36,3.63,21.2l.36,34.46c0,4.55-1.34,7.76-4.03,9.65-2.69,1.9-7.14,3.66-13.36,5.3-6.22,1.64-15.93,3.09-29.11,4.36-13.18,1.26-22.95,2.78-29.29,4.55-6.35,1.77-12.58,6.5-18.67,14.2-6.1,7.7-9.15,17.86-9.15,30.48,0,15.66,4.88,27.9,14.65,36.73,9.76,8.83,22.46,13.25,38.08,13.25,14.65,0,26.49-2.63,35.7-7.66,10.39-5.68,12.66-19.53,12.66-19.53-1.1,1.94-2.48,3.83-4.17,5.65-3.5,3.78-7.55,5.67-12.13,5.67-6.04,0-9.9-3.4-11.59-10.2-1.69-6.8-2.54-15.87-2.54-27.22,0-7.56.66-14.93,1.99-22.11,1.33-7.18,3.13-12.03,5.43-14.55,2.29-2.52,6.4-5.1,12.31-7.75,5.92-2.64,9.96-5.49,12.13-8.51l1.09.38.04,106.06h70.94s.05-44.42.05-47.96"/>
      <path class="cls-4" d="m985.73,93.7c6.5,0,11.88-1.94,16.14-5.81,4.25-3.87,6.39-8.87,6.39-14.99,0-5.5-2.19-10.25-6.56-14.22-4.37-3.98-9.7-5.96-15.97-5.96s-11.32,2.04-15.8,6.12c-4.49,4.08-6.72,8.77-6.72,14.07,0,5.71,2.24,10.61,6.72,14.68,4.48,4.08,9.75,6.12,15.8,6.12"/>
      <path class="cls-4" d="m910.09,93.7c6.72,0,12.1-1.94,16.14-5.81,4.03-3.87,6.05-8.87,6.05-14.99,0-5.71-2.13-10.5-6.39-14.38-4.26-3.87-9.53-5.81-15.8-5.81s-11.66,2.04-16.14,6.12c-4.49,4.08-6.72,8.77-6.72,14.07,0,5.71,2.24,10.61,6.72,14.68,4.48,4.08,9.86,6.12,16.14,6.12"/>
    </g>
  </g>
  <g>
    <path class="cls-2" d="m328.55,156.42c-.33-.29-.69-.57-1.04-.87v-.05c.32.27.66.57,1.04.92Z"/>
    <path class="cls-2" d="m333.81,162.08h-.02c-.09-.12-.18-.24-.27-.35.11.11.2.23.29.35Z"/>
    <path class="cls-2" d="m333.84,156.54c-.38.86-.81,2.12-1.19,4.09.24.3.48.6.71.9-1.49-1.82-2.65-3.11-3.83-4.22.18,0,.45-.03.75-.12.66-.26.95-.63,1.53-1.59.39-.66.95-1.41,1.7-1.14.24.09.42.23.51.38.36.53-.03,1.35-.18,1.71Z"/>
    <path class="cls-5" d="m426.49,133.45s.05-.03.06-.03c-.03.01-.05.05-.08.06v-.03h.02Z"/>
    <path class="cls-5" d="m485.83,137.83c-.45,1.17-.98,2.57-1.61,4.43-.99,2.92-2.06,6.15-3.04,10.25-.27,1.22-2.45,10.57-4.55,14.58-.33-.41-1.52.32-1.88.42-.53.15-1.07.26-1.59.32-3.43.39-5.62-1.4-7.39-3.95-.66-.99-1.38-1.97-2.4-2.63s-2.42-.89-3.47-.3c-1.4.81-1.61,2.62-2.46,3.95-.81,1.28-2.25,2.09-3.76,2.46s-3.08.35-4.64.23c-2.51-.2-5.32-.81-6.58-2.89-1.02-1.7-.68-3.83-.02-5.68.65-1.85,1.61-3.65,1.76-5.59.15-1.85-.5-3.74-1.74-5.15-3.07-3.5-8.18-2.09-11.84-4.42-2.68-1.71-4.93-4.12-4.81-7.38.05-1.1.59-2.04.77-3.05.05-.05.08-.08.12-.11.17-.17.26-.32.3-.41.65-1.14,1.25-2.31,2-3.4,0,0,.27-.47.96-1.56,1.25-2.03,11.66-12.08,22.92-21.67.29.41.69.93,1.23,1.65,1.98,2.69,2.98,4.03,3.52,5.09.96,1.83,1.49,3.86,1.56,5.92.09,2.4,1.44,4.54,2.42,6.69,1.04,2.3.92,4.57,1.46,6.97.33,1.52.98,3.02,2.07,4.15.32.32.68.62,1.1.77,1.07.36,2.22-.24,2.99-1.01.92-.95,1.62-2.04,2.55-2.98,2.59-2.55,5.53-1.61,7.63.95,1.07,1.29,1.92,2.77,3.19,3.86.83.72,1.37.83,1.82.75.65-.11,1.11-.69,1.43-1.28Z"/>
    <path class="cls-6" d="m170.11,253.04c-.29.68-1.23.77-1.98.72-5.62-.39-11-2.36-16.04-4.79-.18-.08-.36-.17-.54-.26-3.61-1.77-7.09-3.77-10.64-5.65-1.55-.83-3.13-1.62-4.72-2.37-1.77-.81-3.58-1.58-5.37-2.34-3.85-1.65-7.63-3.4-10.87-5.95-3.62-2.89-6.39-6.69-8.42-10.72-1.68-3.32-3.91-8.81-3.26-10.99.09-.33.26-.59.5-.75.21-.14.47-.18.74-.18.47.02.98.18,1.4.38.18.06.35.15.48.21,9.56,4.69,15.01,10.02,15.01,10.02,1.98,1.94,9.11,9.05,14.26,10.88.44.15,1.38.45,2.28.09,1.86-.72,2.77-3.89,2.36-6.49-.39-2.45-2.19-4.46-2.55-7.29-.06-.63-.06-1.26.05-1.92.12-.74.42-1.52,1.1-1.91.06-.03.14-.06.2-.09h.02c.56-.21,1.2-.12,1.79.08h.02c.35.11.66.24.92.36,4.48,2.07,7.32,6.1,12.52,9.71,1.77,1.23,3.29,2.83,5.17,3.88.51.3,1.11.6,1.61,1.05t.02.02c.18.24.38.48.59.71,0,.01.02.03.02.03.05.05.06.09.08.15.05.06.08.14.11.21.14.39.17.78.12,1.2-.06.51-.21,1.05-.38,1.55-.66,2.12-1.32,4.25-1.98,6.39-.33,1.04-.66,2.12-.51,3.2.21,1.46,1.29,2.68,2.24,3.85,1.4,1.76,2.57,3.68,3.5,5.71.18.42.36.89.2,1.32Z"/>
    <path class="cls-9" d="m416.65,248.21c-2.86-.96-3.5-4.51-3.49-7.41,0-2.92-.12-6.37-2.69-7.91-2.15-1.28-5.12-.44-6.81,1.35-1.67,1.8-2.27,4.3-2.43,6.69-.18,2.4,0,4.84-.42,7.21-1.31,7.72-8.28,13.26-14.76,18.02-7.09,5.22-14.22,10.46-22.06,14.62-3.58,1.89-5.77,2.93-9.75,2.36-4.69-.68-9.62-1.74-14.37-1.56-4.34.15-6.78,2-10.22,4.09-3.62,2.19-6.93,4.31-10.04,7.21-3.88,3.67-8.9,8.24-11.08,13.06-2.22,4.91-3.86,10.9-8.9,13.96-3.67,2.24-8.45,2.25-12.61,1.04-4.09-1.2-7.47-4.48-11.48-5.43-3.53-.84-7.27-.68-9.9-3.58-2.16-2.37-2.21-6.3-.08-8.72l.03-.03c-.32-.06-.63-.12-.93-.18-6.13-1.13-12.13-2.86-18.16-4.39-7.53-1.92-15.01-3.94-22.48-6.06-6.87-1.97-13.83-3.83-20.51-6.3-3.47-1.28-10.58-3.38-11.65-7.44-.3-1.13-.48-2.25-.59-3.37-.11.3-.26.57-.5.78-.57.54-1.46.6-2.25.59-5.71-.09-11.35-2.1-15.72-5.61-3.82-3.05-6.73-7.21-11.18-9.35-2.55-1.23-5.4-1.67-8.13-2.33-2.55-.63-4.93-1.55-7.23-2.8-4.64-2.54-8.73-5.95-13.57-8.21-1.1-.51-2.24-.96-3.13-1.74-.9-.78-1.52-1.98-1.19-3.1.39-1.34,1.98-2.06,3.43-2.07,1.46,0,2.84.51,4.25.84,1.58.36,3.22.5,4.85.57-1.55-.83-3.13-1.62-4.72-2.37-1.77-.81-3.58-1.58-5.37-2.34-.08.2-.18.36-.33.51-3.43,3.5-12.97-3.14-15.62-5.15-5.28-3.98-8.06-10.22-10.45-16.02-2.81-6.82-5.79-14.13-12.08-18.31-.72-.5-1.55-.95-2.43-.9-.66.02-1.28.33-1.83.68-3.86,2.43-5.5,7.12-5.79,11.56-.29,4.42.5,8.87.23,13.29-.18,2.69-.77,5.35-1.53,7.94-.77,2.57-2.43,5.34-2.8,7.95-.59,4.48,2.43,9.23-.6,13.39-3.29,4.51-10.46,3.55-14.47.62-3.19-2.31-5.29-5.74-7.03-9.18-.93-1.85-1.91-3.88-3.8-4.84-.83-.42-1.91-.57-2.69-.06-1.17.77-1.01,2.43-.6,3.73,3.14,9.92,12.5,15.34,17.93,23.79-.06-.44-.02-.83.17-1.14.83-1.4,4.18-1.28,4.43-1.26.95.03,2.01.26,4.61,1.58,3.14,1.61,4.87,2.89,4.87,2.89,12.62,10.29,16.62,13.57,21.93,13.99.45.03,5.92.41,7.05-1.86.27-.54.33-1.22.08-2.06-.33-1.19-1.43-2.06-2.6-2.58-1.16-.54-2.43-.8-3.64-1.28-4.79-1.91-7.57-6.97-7.92-11.93-.38-5.22,1.73-9.8,3.32-14.62.69-2.15,1.25-5.08,3.25-6.54,5.67-4.07,11.6.6,14.01,5.5,4.21,8.58,9.27,16.76,15.15,24.39,3.05,3.95,11.2,14.02,19.25,12.8.47-.08.92-.3,1.35-.47.96-.38,1.89-.8,2.84-1.2,3.11-1.37,6.21-2.74,9.29-4.18.56-.27,1.11-.51,1.7-.74,2.01-.78,4.31-1.2,6.34-.45,1.04.41,1.92,1.07,2.66,1.86.32.36.6.75.86,1.14,1.85,2.89,2.3,6.36,2.6,9.66.3,3.28.42,6.64,1.55,9.77.02.05.05.08.06.14,2.65,7.08,7.71,13.36,14.4,17.36,8.07,4.84,17.85,6.3,27.37,6.72,14.4.63,28.81,1.11,43.13,2.71,7.33.83,14.5,2.1,21.73,3.43,5.32.98,10.48,2.43,12.49,7.92,1.28,3.49.71,7.38,1.85,10.9,1.73,5.32,7.2,8.93,12.89,10.08,5.7,1.16,11.62.27,17.33-.89,3.7-.75,7.48-.68,11.11-1.49,4.21-.95,8.37-2.55,12.28-4.31,7.89-3.53,15.16-8.37,21.34-14.28,7.75-7.41,14.56-16.46,18-26.51.78-2.3,1.53-4.78,1.73-7.2t-.02.05c-.9,2.25-3.11,3.38-5.29,4.51-4.9,2.52-7.27,1.19-10.36,3.31-2.66,1.83-2.39,4.51-4.37,7.51-3.25,4.87-7.11,9.39-11.71,13.14-8.31,6.78-19.34,10.91-30.19,9.68-3.89-.44-7.75-1.58-10.99-3.73-3.22-2.13-5.77-5.32-6.64-8.99-1.23-5.22,1.1-10.79,5.03-14.59,2.15-2.09,4.87-3.79,7.48-5.26,1.35-.75,3.16-.84,4.66-1.13,1.85-.36,3.7-.72,5.55-1.1,4.87-.99,9.72-2.12,14.5-3.55,2.42-.72,4.81-1.53,7.17-2.42.29-.12.56-.23.84-.33,1.83-.72,4.42-1.88,7.32-3.2-.11-.03-.18-.09-.24-.17-.78-.92,2.45-2.81,3.8-8.18,1.11-4.39-.24-6.42,1.73-8.24.03-.03.05-.05.08-.06.09-.14.18-.27.29-.39,1.73-2.24,4.19-3.85,6.6-5.41,2.4-1.56,5.68-3.41,11.89-7.63,5.98-4.07,6.33-5.08,10.05-6.7.42-.18.84-.36,1.25-.51.03,0,.05-.02.06-.03.06-.05.11-.08.15-.11.38-.5.83-.95,1.2-1.31,2.16-2.06,8.22-7.09,14.64-12.37-1.17.47-2.4.66-3.61.26Zm-104.93,103.31v-.03h.02l-.02.03Z"/>
    <path class="cls-9" d="m67.09,267.57s-.09-.06-.14-.11c0-.05-.02-.08-.02-.12.06.08.12.15.15.23Z"/>
    <path class="cls-9" d="m311.72,351.5h.02l-.02.03v-.03Z"/>
    <path class="cls-9" d="m420.6,247.67c-.02.08-.06.12-.12.2h-.02c-.06.03-.14.06-.2.09.11-.09.23-.18.33-.29Z"/>
    <path class="cls-5" d="m384.98,101.68s-.03.08-.05.12c-.17.15-.32.33-.44.51-2.3,3.16-3.88,6.75-5.73,10.17-3.55,6.55-9.74,13.39-18.26,12.68-4.84-.41-8.97-3.4-12.8-6.27-1.77-1.34-3.56-2.75-5.08-4.34-1.32-1.4-1.56-3.28-1.86-5.06-.36-2.03-1.26-4.39-3.37-4.81-1.56-.3-3.1,1.16-4.3,2.33-3.7,3.59-3.38,6.94-5.7,7.45-1.38.32-2.77-.6-4.33-1.65-1.67-1.13-2.69-2.46-3.26-3.34,0,0-2.96-3.67-6.6-6.75-2.48-2.1-6.03-3.5-8.16-5.89-.81-.89-1.31-2.12-.99-3.26.2-.78.75-1.44,1.01-2.21.45-1.31-.59-2.72-2-1.74-.65.44-.98,1.01-1.05,1.19-1.01,2.13-2.9,13.57-4.99,15.68-.09.08-.21.18-.35.29-.17.12-.44.32-.78.56-.02.02-.02.03-.03.03,0,0-.02.02-.05.03-.14.08-.54.3-1.07.48-1.34.47-2.48-.12-3.89-.29-2.07-.23-2.13.98-4.1.65-2.04-.33-3.77-2.31-5.77-1.82-1.19.29-1.95,1.38-2.66,2.36-1.11,1.49-2.42,2.89-4.07,3.79-1.67.92-3.73,1.28-5.53.63-.95-.33-1.8-.93-2.8-1.17-1.56-.39-3.25.21-4.54,1.14-2.89,2.1-4.19,6.03-3.07,9.33.35,1.07.92,2.09.96,3.2.05,1.1-.72,2.36-1.88,2.36s-1.83-1.05-2.83-1.53c-1.53-.77-3.37-.03-4.9.74-2.13,1.08-4.24,2.24-6.3,3.46-1.34.8-2.83,1.88-2.81,3.38,0,.17.02.32.06.47l-.02.02h-.02c-1.89-1.86-4.03-3.46-6.37-4.09-1.17-.33-2.46-.35-3.59.09.17-.14.32-.29.47-.42,1.55-1.5,2.22-3.8,1.7-5.86-.35-1.35-1.47-2.89-3.11-2.83-1.49.06-2.57,1.59-3.46,2.6-.53.6-1.1,1.2-1.8,1.62-.53.3-1.23.35-1.71.69-.15.11-.27.21-.36.35-.8-1.19-1.58-2.37-2.37-3.56-.11-1.76-.38-3.52-.8-5.22-.71-2.81-1.77-5.88-3.73-8.12-1.82-2.07-4.37-3.73-5.28-6.42-.08-.21-.17-.47-.29-.72,3.29-.9,6.61-1.71,9.96-2.43,4.42-.96,9.35-1.88,12.86-4.85,3.35-2.83,4.36-8.54,5.71-12.47.84-2.42,1.68-4.85,2.52-7.27.51-1.49,1.5-2.4,1.34-3.89,2.4-5.2,4.13-10.7,7.29-15.59,1.34-2.07,2.93-4.22,5.08-5.59,2.36-1.49,4.69-.84,7.21-.32h.02c2.37,4.55,5.03,8.96,8.54,12.77,3.07,3.34,7.29,6.78,11.78,8.13,2.66.8,5.55.98,8.22,1.74,2.58.74,5.09,1.7,7.44,2.96,4.94,2.68,9.21,6.9,10.81,12.11.45,1.49.69,3.05,1.26,4.51.59,1.46,1.59,2.86,3.1,3.47,2.04.83,4.36.02,6.54-.38,5.79-1.02,12.07,1.31,15.65,5.79,6.75-8.24,13.42-16.52,20.06-24.83.15.42.44.8.72,1.16,2.06,2.65,4.12,5.26,6.18,7.91,2.09,2.66,4.43,5.5,7.8,6.34,3.23.8,6.75-.45,9.96.42,2.62.71,4.75,2.89,5.31,5.44.38,1.7-.14,3.35-.29,3.85Z"/>
    <path class="cls-5" d="m385.78,101.47c-.75,1.11-1.44,2.27-2.06,3.44-.18-.02-.38-.03-.56-.06.5-.56,1.28-1.58,1.77-3.05.2-.18.41-.32.66-.35.06,0,.12-.02.18.02Z"/>
    <path class="cls-4" d="m385.78,101.47c-.75,1.11-1.44,2.27-2.06,3.44-.18-.02-.38-.03-.56-.06.5-.56,1.28-1.58,1.77-3.05.2-.18.41-.32.66-.35.06,0,.12-.02.18.02Z"/>
    <path class="cls-4" d="m426.01,133.84c-.62.54-1.07.93-1.43,1.31-.42.42-.72.81-1.08,1.34-1.59,2.3-3.2,5.29-4.16,6.39,0-.23.03-.45.05-.68v-.03c.95-2.34,2.81-5.29,6.63-8.33Z"/>
    <path class="cls-4" d="m205.57,103.94s-.05,0-.08.01c-.02-.05-.02-.11-.02-.17.03.05.06.11.09.15Z"/>
    <path class="cls-4" d="m240.98,75.67c-.84,2.42-1.68,4.85-2.52,7.27-1.35,3.94-2.36,9.65-5.71,12.47-3.52,2.98-8.45,3.89-12.86,4.85-3.35.72-6.67,1.53-9.96,2.43-.11-.23-.23-.45-.36-.68-.54-.95-1.29-1.82-2.09-1.74-.71.06-1.29,1.1-1.49,1.44-.39.68-.47,1.28-.48,1.43-.03.23-.03.44-.01.63-.23-.39-.47-.77-.69-1.16-2.25-3.83-4.75-7.53-7.24-11.24-1.38-2.07-3.02-4.31-5.5-4.9-1.83-.45-3.83.12-5.32,1.22-1.5,1.08-2.57,2.65-3.4,4.27-1.74,3.44-2.46,7.27-2.77,11.09-1.1,13.83,1.25,27.91,6.81,40.71,1.1,2.52,2.33,5.03,2.86,7.72.26,1.31.2,2.93-1.01,3.62-1.23.69-2.78-.11-3.91-.95-.05-.03-.11-.08-.15-.12-5.35-4.04-9-9.89-12.01-15.66-3.05-5.83-5.32-12.02-7.21-18.29,0-.03-.01-.06-.01-.09-.77-4.45-2.54-8.78-4.28-13-3.17-7.66-6.34-15.36-10.23-22.75-.54-1.02-1.58-3.4-2.86-3.8h-.02c.21-6.61,3.19-13.08,6.54-19,2.9-5.12,6.15-10.1,8.37-15.56,1.89-4.63,2.74-11.2,7.2-14.38,4.51-3.22,11.38.98,15.68,2.75,12.61,5.22,24.59,11.77,35.66,19.51,5.98,4.19,11.71,8.7,17.12,13.54.87.77,1.95,1.7,2.6,2.78.26.39.44.81.56,1.25.03.15.06.29.06.42.17,1.49-.83,2.4-1.34,3.89Z"/>
    <path class="cls-10" d="m39,212.03c-.14,0-.29-.02-.42-.03.03-.08.08-.14.15-.18.09.08.18.15.27.21Z"/>
    <path class="cls-10" d="m55.25,201.96h.01s.02.03,0,.05c-.01-.02-.01-.03-.01-.05Z"/>
    <path class="cls-10" d="m96.13,186.29c-.57-.71-1.1-1.43-1.56-2.18.41.27.78.56,1.16.89.12.44.26.87.41,1.29Z"/>
    <path class="cls-10" d="m119.96,232.39c-3.62-2.89-6.39-6.69-8.42-10.72-1.68-3.32-3.91-8.81-3.26-10.99-1.25-1.29-2.33-2.71-3.23-4.22-.2-.32-.38-.65-.54-.96-.9-1.68-1.58-3.47-2.54-5.12v-.02c-.15-.3-.33-.57-.51-.86-.9-1.38-2.04-2.62-3.17-3.82-1.76-1.88-3.53-3.77-5.67-5.26-2.09-1.46-4.54-2.54-6.16-4.45-.32-.36-.62-.8-.65-1.28-.08-.93.84-1.7,1.76-2.01,1.86-.65,3.98-.24,5.73.66.44.23.86.48,1.26.77-1.76-2.71-3.02-5.7-3.88-8.9-.96-3.5-3.07-7.06-4.61-10.39-1.71-3.67-3.49-7.3-5.35-10.91-3.76-7.29-7.21-14.53-8.6-22.66-.14-.86-.15-1.91.29-2.6-.09-.36-.15-.74-.17-1.11.05-.05.05-.09.05-.14,0-1.55,1.07-3.2,2.68-3.35,1.37-.11,2.54.83,3.55,1.71.18.17.36.33.54.5-.2-.56-.42-1.19-.69-1.95-.33-.9-.72-1.98-1.22-3.29-.26-.69-.51-1.37-.77-2.06-.62-1.62-1.23-3.25-1.86-4.9-.17-.42-.33-.86-.5-1.28-1.1-2.8-2.28-5.71-3.68-8.91-4.61-10.57-6.87-15.89-6.88-15.92-.26-.32-1.11-1.32-1.5-2.71.27,1.8.75,4.28.86,4.66.62,2.52.92,5.19,1.37,7.75,3.02,16.76,7.17,33.08,12.05,49.42.45,1.53.81,3.4-.39,4.49-.84.77-2.12.81-3.29.8-11.39-.11-22.86.03-34.13-1.88-2.71-.45-5.86-.89-7.89.89-4.61,4,.62,14.29.86,19.16.02.51-.02,1.11-.44,1.43-.27.2-.63.23-.95.26-4.04.29-8.1.33-12.11.89-4,.57-8.03,1.38-12.07.72-.6-.09-1.08-.18-1.32-.06,4.12,2.01,9.26,1.02,13.62.72,5.53-.38,11.15-.42,16.61.74,4.39.95,8.58,2.66,12.4,4.94,1.83,1.1,3.62,2.36,4.93,4.01,1.49,1.88,2.37,4.27,2.75,6.58.44,2.75.93,5.55.83,8.34-.03.95-.15,1.91-.36,2.84.39.05.75.18,1.05.44.47.42.68,1.04.83,1.64.47,1.85.65,3.77,1.01,5.64.78,4.06,2.45,8.04,2.07,12.14-.08.9-.27,1.82-.65,2.66-.3.69-.98,1.44-1.73,1.19-.41-.14-.65-.54-.83-.92-.51-1.08-.89-2.34-1.92-2.99-.45-.3-.99-.44-1.52-.57-4.81-1.35-9.3-3.7-13.12-6.82-.33-.27-2.16-1.64-1.88-2.36-.3-.06-.6-.12-.87-.24-.96-.44-1.49-1.19-1.65-1.41-.75-1.02-5.74-6-15.72-15.93-1.95-1.97-3.65-3.58-6.24-5.09-.9-.54-2.01-1.25-4.43-2.3-2.19-.93-4.55-1.71-6.21-3.38,5.2,9.23,10.19,18.62,15.83,27.64,7.59,12.16,16.37,23.76,25.43,34.96,6.45,7.98,13.39,15.84,22.26,21.31,0-.02,0-.05-.02-.08,0-.05-.02-.08-.02-.12,0-.02-.01-.03-.01-.03-5.43-8.45-14.79-13.87-17.93-23.79-.41-1.29-.57-2.96.6-3.73.78-.51,1.86-.36,2.69.06,1.89.96,2.87,2.99,3.8,4.84,1.74,3.44,3.85,6.87,7.03,9.18,4.01,2.93,11.18,3.89,14.47-.62,3.04-4.16.02-8.91.6-13.39.36-2.62,2.03-5.38,2.8-7.95.77-2.59,1.35-5.25,1.53-7.94.27-4.42-.51-8.87-.23-13.29.29-4.43,1.92-9.12,5.79-11.56.56-.35,1.17-.66,1.83-.68.89-.05,1.71.41,2.43.9,6.3,4.18,9.27,11.48,12.08,18.31,2.39,5.8,5.17,12.04,10.45,16.02,2.65,2.01,12.19,8.66,15.62,5.15.15-.15.26-.32.33-.51-3.85-1.65-7.63-3.4-10.87-5.95Zm-44.31-47.03c-11.27-3.8-22.62-7.63-33.09-13.14-2.1-1.11-4.22-2.34-5.58-4.24-1.98-2.78-1.89-6.42-1.71-9.78.05-1.08.2-2.31,1.11-2.95.8-.54,1.86-.42,2.83-.27,6.15.95,12.44,1.97,18.37,3.82,4.04,1.26,7.91,2.9,11.44,5.17,1.17.74,2.36,1.62,2.84,2.9.48,1.28.14,2.71.06,4.07-.15,2.77.92,5.56,2.89,7.59,1.79,1.86,7.18,4.06,7.68,6.72.62,3.29-5.31.62-6.82.11Z"/>
    <path class="cls-10" d="m67.11,267.59s.03.05.05.06c-.06-.03-.11-.08-.17-.11h-.02s0-.05-.02-.08c0-.05-.02-.08-.02-.12.06.08.12.15.15.23.01,0,.01.02.01.02Z"/>
    <path class="cls-10" d="m79.13,126.33s-.05-.05-.08-.06c-.2-.56-.42-1.19-.69-1.95.26.66.51,1.34.77,2.01Z"/>
    <path class="cls-10" d="m75.66,185.36c-11.27-3.8-22.62-7.63-33.09-13.14-2.1-1.11-4.22-2.34-5.58-4.24-1.98-2.78-1.89-6.42-1.71-9.78.05-1.08.2-2.31,1.11-2.95.8-.54,1.86-.42,2.83-.27,6.15.95,12.44,1.97,18.37,3.82,4.04,1.26,7.91,2.9,11.44,5.17,1.17.74,2.36,1.62,2.84,2.9.48,1.28.14,2.71.06,4.07-.15,2.77.92,5.56,2.89,7.59,1.79,1.86,7.18,4.06,7.68,6.72.62,3.29-5.31.62-6.82.11Z"/>
    <path class="cls-4" d="m460.6,241.95c-.5.33-1.02.62-1.61.86.35-.5.71-.98,1.07-1.46.33.05.53.27.54.6Z"/>
    <path class="cls-4" d="m490.82,193.63c-.54,1.25-.86,2.84-1.26,3.86-1.52,3.8-3.25,7.54-5.14,11.2-2.74,5.23-6.07,9.95-9.75,14.59-1.11,1.41-2.24,2.8-3.37,4.16-3.8,4.6-7.68,9.14-11.24,13.9-.15-.03-.33-.02-.53.06-1.04.33-1.73,1.29-2.83,1.65-1.08.35-2.27.38-3.37.06-1.7-.51-3.1-1.85-3.61-3.46-.59-1.8-.24-4.03-1.65-5.34-.81-.74-2.06-.96-3.13-.65-.74.21-1.4.63-1.92,1.17,0-.08.01-.14.01-.21.11-1.46.53-2.9,1.32-4.13.57-.9,1.31-1.68,2.09-2.42.74-.69,1.47-1.41,2.25-2.04,1.32-1.04,2.77-1.88,4.27-2.66,1.28-.65,2.49-1.32,3.59-2.21.78-.62,1.55-1.25,2.3-1.89,2.36-2,4.72-3.98,7.14-5.92,8-6.36,15.87-12.86,24-19.07.15-.12.42-.39.81-.66Z"/>
    <path class="cls-4" d="m491.15,214.97s-.03.08-.05.11c-.05,0-.09,0-.14.02.06-.05.12-.09.18-.12Z"/>
    <path class="cls-4" d="m593.41,152.13s-.02-.03-.03-.03c-.33-.15-1.22,1.08-2.36,2.66-2.42,3.34-2.92,4.79-4.72,7.2-1.46,1.92-2.83,3.23-3.32,3.7-3.13,2.87-4.4,2.57-7.23,4.84-1.65,1.32-1.46,1.32-6.52,8.07-.09.12-.2.26-.29.38-.83-.45-2.31-.09-3.1.32-4.48,2.27-8.51,5.35-11.8,9.05-3.58,4.01-6.63,8.43-10.63,12.11-5.14,4.76-11.59,8.13-18.35,10.37-7.57,2.49-16.23,4.4-24.26,3.89-4.82-.3-7.33-1.19-9.66.29,2.21-5.94,4.28-11.92,4.39-18.34.01-.87-.02-1.77-.3-2.62-.02-.05-.03-.08-.05-.12,1.89,1.23,1.59,2.34,2.95,3.08,1.46.8,3.37.45,4.73-.5,1.37-.93,2.25-2.36,3.02-3.77,2.3-4.28,3.65-9.05,3.98-13.84.2-2.99.63-8.13-1.4-10.96.68-.63,1.38-1.2,2.09-1.73,6.55-4.84,14.95-6.9,23.02-8.21,10.31-1.68,20.39-4.51,30.76-6.27,5.46-.92,10.94-1.73,16.46-2.43,2.72-.33,9.27-2.63,11.5-.44.87.86,1.19,2.09,1.1,3.29Z"/>
    <path class="cls-4" d="m117.39,102.16c.17-.72.35-1.49.83-2.07.95-1.17,2.74-1.34,4.28-1.11,4.73.68,8.51,3.76,12.37,6.19,4.1,2.57,8.6,4.03,13.45,4.36-.72-2.48-1.25-5.02-1.61-7.57-5.05-2.86-15.51-4.48-33.45-10.87-6.31-2.24-13.12-4.67-22.45-6.78-2.36-.54-4.46-.86-8.49-1.58-4.87-.86-9.74-1.65-14.62-2.37-1.37-.21-3.59-.5-4.9.75-.75.71-.93,1.7-.99,2.22-.02.12-.03.23-.03.29,0,.33.08.92.18,1.59v.05c.39,1.38,1.25,2.39,1.5,2.71.02.03,2.27,5.35,6.88,15.92,1.4,3.2,2.58,6.12,3.68,8.91.17.42.33.86.5,1.28.63,1.65,1.25,3.28,1.86,4.9.26.69.51,1.37.77,2.06.5,1.31.89,2.39,1.22,3.29.26.66.51,1.34.77,2.01,9.9,8.93,19.15,18.55,28.71,27.79,1.62,1.58,3.29,3.19,5.35,4.21,2.07,1.02,4.66,1.37,6.7.33,2.43-1.22,3.56-3.95,3.95-6.54.75-4.88-.48-10.02-3.32-14.13-2.99-4.31-5.53-9-5.95-14.28-.33-4.21.45-8.69,1.14-12.82.48-2.93,1.04-5.83,1.68-8.73Z"/>
    <path class="cls-4" d="m61.77,83.62c0,.33.08.92.18,1.59-.14-.5-.21-1.02-.18-1.59Z"/>
    <path class="cls-4" d="m79.13,126.33s-.05-.05-.08-.06c-.2-.56-.42-1.19-.69-1.95.26.66.51,1.34.77,2.01Z"/>
    <path class="cls-6" d="m476.53,168.17c-.06.39-.17.77-.26,1.14-.51,1.91-1.46,3.61-2.1,5.46-.87,2.57-.71,1.86-2.01,4.72-.47.69-.9,1.67-1.62,3.35-.47,1.05-.89,1.83-.93,1.97-1.77,2.83-3.2,5.73-3.61,6.69-.06.09-.12.17-.17.26.21-.83.26-1.65-.05-2.45-.66-1.76-2.84-2.49-4.81-2.21-.42.06-.83.18-1.22.3-2.18.9-3.68,2.81-5.06,4.64-3.71,4.9-7.44,9.81-11.17,14.73-3.11,4.09-5.29,6.04-10.91,6-2.68-.02-5.44-1.01-7.12-3.01-1.98-2.37-2.12-5.71-1.61-8.72,1.17-6.97,5.28-13.05,7.53-19.7.69-1.98,1.2-3.79.62-5.49-.17-.45-.56-1.32-1.71-2.37-2.99-2.78-8.99-4.82-11.56-2.62-.41.35-.66.89-.83,1.71v-.02c-.01-5.26.38-14.44,1.41-29.67v-.02c.96-1.1,2.57-4.09,4.16-6.39.36-.53.66-.92,1.08-1.34.36-.38.81-.77,1.43-1.31.09-.06.18-.14.27-.21.03-.03.08-.06.12-.11.02-.01.05-.03.08-.05.03-.02.05-.05.08-.06-.18,1.01-.72,1.95-.77,3.05-.12,3.26,2.13,5.67,4.81,7.38,3.67,2.33,8.78.92,11.84,4.42,1.25,1.41,1.89,3.31,1.74,5.15-.15,1.94-1.11,3.74-1.76,5.59-.66,1.85-1.01,3.98.02,5.68,1.26,2.07,4.07,2.69,6.58,2.89,1.56.12,3.14.15,4.64-.23s2.95-1.19,3.76-2.46c.86-1.34,1.07-3.14,2.46-3.95,1.05-.59,2.45-.36,3.47.3s1.74,1.64,2.4,2.63c1.77,2.55,3.97,4.34,7.39,3.95.53-.06,1.07-.17,1.59-.32.36-.11,1.55-.83,1.88-.42.01,0,.01.02.03.03.14.26-.08.81-.14,1.05Z"/>
    <path class="cls-6" d="m426.01,133.84c-.62.54-1.07.93-1.43,1.31-.42.42-.72.81-1.08,1.34-1.59,2.3-3.2,5.29-4.16,6.39,0-.23.03-.45.05-.68v-.03c.95-2.34,2.81-5.29,6.63-8.33Z"/>
    <path class="cls-6" d="m472.15,179.49c-.06.15-.14.3-.21.47-1.05,2.34-2.46,5.34-4.27,8.82-.77,1.79-1.61,3.4-2.48,4.81-.02.03-.02.05-.03.06v.02c-.63,1.05-1.26,2-1.86,2.84.71-1.64,1.41-3.08,2.52-4.75.05-.09.11-.17.17-.26.41-.96,1.83-3.86,3.61-6.69.05-.14.47-.92.93-1.97.72-1.68,1.16-2.66,1.62-3.35Z"/>
    <path class="cls-4" d="m497.87,91.49c.02,2.63-.75,5.19-1.38,7.71-.66,2.74-1.35,5.46-2.07,8.19-1.2,4.64-4.61,18-6.93,25.67-.08.26-.14.5-.21.72-.44,1.4-.89,2.55-1.43,4.01-.01.02-.01.03-.01.03-.32.59-.78,1.17-1.43,1.28-.45.08-.99-.03-1.82-.75-1.26-1.1-2.12-2.57-3.19-3.86-2.1-2.55-5.05-3.5-7.63-.95-.93.93-1.64,2.03-2.55,2.98-.77.77-1.92,1.37-2.99,1.01-.42-.15-.78-.45-1.1-.77-1.1-1.13-1.74-2.63-2.07-4.15-.54-2.4-.42-4.67-1.46-6.97-.98-2.15-2.33-4.28-2.42-6.69-.08-2.06-.6-4.09-1.56-5.92-.54-1.07-1.53-2.4-3.52-5.09-.54-.72-.95-1.25-1.23-1.65-11.26,9.59-21.67,19.64-22.92,21.67-.69,1.1-.96,1.56-.96,1.56-.75,1.08-1.35,2.25-2,3.4-.05.09-.14.24-.3.41-.05.03-.08.06-.12.11-.02,0-.03.01-.06.03h-.02s-.05.05-.08.08c-.05.05-.09.08-.12.11-.09.08-.18.15-.27.21-3.82,3.04-5.68,5.98-6.63,8.33,1.01-14.92,2.63-35.56,5.08-63.84-14.56,1.65-29.8,10.34-38.16,22.36-.18.26-.36.51-.53.78-.06-.03-.12-.02-.18-.02-.26.03-.47.17-.66.35.02-.05.03-.08.05-.12.15-.5.66-2.15.29-3.85-.56-2.55-2.69-4.73-5.31-5.44-3.22-.87-6.73.38-9.96-.42-3.37-.84-5.71-3.68-7.8-6.34-2.06-2.65-4.12-5.26-6.18-7.91-.29-.36-.57-.74-.72-1.16-6.64,8.31-13.32,16.59-20.06,24.83-3.58-4.48-9.86-6.81-15.65-5.79-2.18.39-4.49,1.2-6.54.38-1.5-.62-2.51-2.01-3.1-3.47-.57-1.46-.81-3.02-1.26-4.51-1.59-5.22-5.86-9.44-10.81-12.11-2.34-1.26-4.85-2.22-7.44-2.96-2.68-.77-5.56-.95-8.22-1.74-4.49-1.35-8.72-4.79-11.78-8.13-3.5-3.82-6.16-8.22-8.54-12.77h-.01c-.9-1.71-1.76-3.44-2.62-5.17-.32-.63-.65-1.37-.41-2.03.75-2,5.82.84,6.93,1.41,2.31,1.16,4.54,2.57,7.05,3.28,2.3.65,5.17.66,7.15-.83,2.01-1.53,2.68-4.3,3.62-6.48,2.86-6.61,8.4-11.6,13.57-16.58,5.71-5.53,10.85-11.59,16.26-17.39,1.53-1.65,3.29-4.48,5.52-5.23,1.89-.63,4.37-.17,5.65,1.35,4.66,5.52,9.78,10.69,13.92,16.61,5.02,7.21,5.02,7.56,5.56,8.61,2.19,4.31,2.57,6.67,5.83,15.4,3.14,8.42,4.04,9.62,5.4,9.86,3.28.59,9.71-4.42,10.88-5.34,2.45-1.91,3.46-1.05,4.09,1.71.35,1.5.33,3.11.06,4.69-.17.96-.44,1.91-.8,2.83-1.31,3.38-3.64,6.31-5.92,9.18-.42.53-.84,1.05-1.26,1.58,1.38-1.44,2.77-2.9,4.15-4.36,2.46-2.6,4.91-5.22,7.36-7.82,1.94-1.86,3.55-4.01,5.44-5.86,2.25-2.19,4.76-4.16,7.14-6.25,2.06-1.8,4.07-3.71,6.24-5.4,5.06-3.91,7.39-6.09,8.52-6.34,8.19-1.8,22.5,11.98,24.3,21.43.18.95.72,3.59,2.83,5.2,1.8,1.38,4.45,1.31,6.55.44,2.1-.89,3.82-2.43,5.53-3.92,4.34-3.74,10.32-6.21,15.57-8.64,5.88-2.72,11.92-5.14,17.81-7.88,2.07-.96,4.49-1.92,6.6-1.04,1.89.78,2.84,2.8,3.49,4.67,3.95,11.59,2.39,25.68.2,37.51-.38,1.97-.83,3.98-2.06,5.59,3.83-1.85,7.3-3.19,10.4-1.94,4.55,1.82,5.43,8.04,5.43,8.33Z"/>
    <path class="cls-4" d="m487.27,133.78c-.38,1.22-.72,2.25-1.01,3.07-.09.24-.24.6-.42.95.54-1.46.99-2.62,1.43-4.01Z"/>
    <path class="cls-5" d="m472.15,179.49c-.06.15-.14.3-.21.47-1.05,2.34-2.46,5.34-4.27,8.82-.77,1.79-1.61,3.4-2.48,4.81-.02.03-.02.05-.03.06v.02c-.63,1.05-1.26,2-1.86,2.84.71-1.64,1.41-3.08,2.52-4.75.05-.09.11-.17.17-.26.41-.96,1.83-3.86,3.61-6.69.05-.14.47-.92.93-1.97.72-1.68,1.16-2.66,1.62-3.35Z"/>
    <path class="cls-10" d="m592.25,157.28c-2.9,8.43-11.03,16.41-18.56,25.77-6.82,8.49-8.18,11.87-20.21,26.84-.17.21-.32.39-.45.56-.11.14-.18.23-.18.23-.09.12-32.37,40.08-37.78,40.22.42-1.19.57-2.42.62-3.68,9.96-8.76,18.64-18.77,26.75-29.14,9.18-11.74,17.54-23.97,26.26-36.02.41-.57.83-1.16.86-1.85.02-.38-.06-.68-.21-.89-.09-.15-.23-.27-.39-.36.09-.12.2-.26.29-.38,5.06-6.75,4.87-6.75,6.52-8.07,2.83-2.27,4.1-1.97,7.23-4.84.5-.47,1.86-1.77,3.32-3.7,1.8-2.4,2.3-3.86,4.72-7.2,1.14-1.58,2.03-2.81,2.36-2.66.01,0,.03.03.03.03.48.38-.81,4.13-1.16,5.14Z"/>
    <path class="cls-4" d="m376.13,51.2c.26-.01.51-.02.78-.02-.26.39-.55.74-1.06.83.09-.27.18-.54.28-.8Z"/>
    <path class="cls-4" d="m412.49,35.51c-.15-.18-.3-.38-.45-.56.16.18.3.36.45.56Z"/>
    <path class="cls-4" d="m373.77,53.61c-.13.11-.27.21-.39.32.13-.1.26-.21.39-.32Z"/>
    <path class="cls-10" d="m422.39,284.28c-1.59,4.52-7.32,4.49-9.15,7.59-2.39-1.56-5.44-2.74-8.88-2.22-3.44.51-6.91,2.99-8.45,6.15-.02.02-.03.03-.03.05-.26.48-.47.99-.59,1.53-.05.21-.09.42-.11.62-.02,0-.02.01,0,.03-.06.29-.09.6-.11.9-.08,1.73.59,3.16.72,4.81.03.33.05.66.02,1.02-.02.12-.02.26-.03.38t-.01.03s0,.02-.02.05c-.9,2.25-3.11,3.38-5.29,4.51-4.9,2.52-7.27,1.19-10.36,3.31-2.66,1.83-2.39,4.51-4.37,7.51-3.25,4.87-7.11,9.39-11.71,13.14-8.31,6.78-19.34,10.91-30.19,9.68-3.89-.44-7.75-1.58-10.99-3.73-3.22-2.13-5.77-5.32-6.64-8.99-1.23-5.22,1.1-10.79,5.03-14.59,2.15-2.09,4.87-3.79,7.48-5.26,1.35-.75,3.16-.84,4.66-1.13,1.85-.36,3.7-.72,5.55-1.1,4.87-.99,9.72-2.12,14.5-3.55,2.42-.72,4.81-1.53,7.17-2.42.29-.12.56-.23.84-.33,1.83-.72,4.42-1.88,7.32-3.2h.02c.11.05.23.06.39.06,1.44-.02,5.53-1.79,17.85-7.08,1.97-.84,2.93-1.26,2.98-1.28,4.15-1.44,9.2-1.5,13.03-3.53.05.18.14.35.26.5.63.8,1.85.83,2.87.72,2.03-.21,4.04-.65,6.03-1.14,3.4-.84,6.85-1.82,10.2-3.02Z"/>
    <path class="cls-10" d="m403.28,287.09c-.08.05-.15.09-.24.14-.02-.03-.03-.06-.03-.11.09-.02.18-.03.27-.03Z"/>
    <path class="cls-2" d="m465.83,191.75c-1.11,1.67-1.82,3.11-2.52,4.75.6-.84,1.23-1.79,1.86-2.84-5.91,14.32-14.71,27.53-25.73,38.73-.36.29-1.04.83-1.97,1.58v.02c-3.44,2.77-10.29,8.3-16.83,13.66-.02.01-.02.03-.03.03-.11.11-.23.2-.33.29h-.02c-1.17.47-2.4.66-3.61.26-2.86-.96-3.5-4.51-3.49-7.41,0-2.92-.12-6.37-2.69-7.91-2.15-1.28-5.12-.44-6.81,1.35-1.67,1.8-2.27,4.3-2.43,6.69-.18,2.4,0,4.84-.42,7.21-1.31,7.72-8.28,13.26-14.76,18.02-7.09,5.22-14.22,10.46-22.06,14.62-3.58,1.89-5.77,2.93-9.75,2.36-4.69-.68-9.62-1.74-14.37-1.56-4.34.15-6.78,2-10.22,4.09-3.62,2.19-6.93,4.31-10.04,7.21-3.88,3.67-8.9,8.24-11.08,13.06-2.22,4.91-3.86,10.9-8.9,13.96-3.67,2.24-8.45,2.25-12.61,1.04-4.09-1.2-7.47-4.48-11.48-5.43-3.53-.84-7.27-.68-9.9-3.58-2.16-2.37-2.21-6.3-.08-8.72l.03-.03c.66.14,1.34.27,2.03.38h.02c1.46.24,2.95.36,4.27.03,1.26-.3,2.43-1.2,2.62-2.42.02-.06.02-.12.02-.18,4.81,1.16,7.26,1.31,11.3,3.17,1.62.77,2.89,2.13,4.46,2.98,4.01,2.13,7.5-1.92,7.95-5.5.32-2.52-.29-5.06-.65-7.6-1.73-12.59,3.5-25.74,13.26-34.31,2.16-1.91,4.57-3.62,7.35-4.51,4.07-1.31,7.69-.59,10.75,2.37,2.19,2.13,4.3,4.76,7.38,5.34,3.71.69,7.18-1.97,9.68-4.7,2.49-2.74,4.91-5.92,8.57-6.91,6.21-1.7,12.67,3.8,18.92,2.27,2.86-.71,5.71-2.84,8.43-1.76,1.59.63,2.83,2.3,4.52,2.1,1.67-.18,2.49-1.97,3.01-3.49,2.4-7.2,5.41-14.47,7.03-21.91,1.53-.89,2.99-1.91,4.39-3.1,2.62-2.24,4.72-4.75,6.46-7.38,2.25-1.31,3.05-3.7,4.06-5.89,1.14-2.52,1.77-4.37,2.84-7.86.66-2.19,1.17-4.3,2.18-8.49.17-.65.56-2.28.87-4.46.03-.23.06-.44.09-.65.12-.83.21-1.53.27-2.13.15-1.11.23-1.98.27-2.58.41-5.06.14-8.85.08-9.77-.06-.9-.09-2.09-.09-3.59,0-.02,0-.05.02-.06.17-.83.42-1.37.83-1.71,2.57-2.21,8.57-.17,11.56,2.62,1.16,1.05,1.55,1.92,1.71,2.37.59,1.7.08,3.5-.62,5.49-2.25,6.66-6.36,12.73-7.53,19.7-.51,3.01-.38,6.34,1.61,8.72,1.68,2,4.45,2.99,7.12,3.01,5.62.05,7.8-1.91,10.91-6,3.73-4.91,7.45-9.83,11.17-14.73,1.38-1.83,2.89-3.74,5.06-4.64.39-.12.8-.24,1.22-.3,1.97-.29,4.15.45,4.81,2.21.3.8.26,1.62.05,2.45Z"/>
    <path class="cls-2" d="m274.54,300.97s.02.03,0,.05c-.03,0-.05-.01-.08-.01-.09-.02-.18-.05-.27-.06.11,0,.23.02.35.03Z"/>
    <path class="cls-2" d="m420.6,247.67c-.02.08-.06.12-.12.2h-.02c-.06.03-.14.06-.2.09.11-.09.23-.18.33-.29Z"/>
    <path class="cls-2" d="m465.83,191.75c-.15.63-.39,1.25-.63,1.83-.02.03-.02.05-.03.06v.02c-.63,1.05-1.26,2-1.86,2.84.71-1.64,1.41-3.08,2.52-4.75Z"/>
    <path class="cls-10" d="m245.67,278.3c-.08-.03-.14-.06-.21-.09l.05-.05c.06.05.12.09.17.14Z"/>
    <path class="cls-10" d="m274.54,301.01c0,.06,0,.12-.02.18-.18,1.22-1.35,2.12-2.62,2.42-1.32.33-2.81.21-4.27-.03h-.02c-.69-.11-1.37-.24-2.03-.38-.32-.06-.63-.12-.93-.18-6.13-1.13-12.13-2.86-18.16-4.39-7.53-1.92-15.01-3.94-22.48-6.06-6.87-1.97-13.83-3.83-20.51-6.3-3.47-1.28-10.58-3.38-11.65-7.44-.3-1.13-.48-2.25-.59-3.37v-.02l.57-5.06c-.03-1.7-.2-3.41-.23-5.11-.03-1.56.03-5.94,3.01-8.87,2.09-2.07,5.38-3.17,6.16-3.43.26-.08,1.94-.63,4.07-1.29.05-.01.08-.01.12-.03.12-.03.24-.08.35-.11.08-.02.17-.05.24-.08,1.25-.45,2.25-1.25,3.4-2.04,1.01-.71,2.03-1.43,3.04-2.13.93-.63,1.85-1.28,2.55-2.15.53-.65.84-1.4.96-2.19.53.5,1.04,1.01,1.58,1.5.57.54,1.16,1.05,1.73,1.53-.3.38-.27.95-.24,1.37.32,4.07,1.37,8.1,3.32,11.74.42.78.87,1.53,1.37,2.25.06.15.14.29.23.42.42.66.84,1.2,1.34,1.68.96,1.16,2.03,2.22,3.22,3.14v.02c.14.23.3.44.39.56,4.33,5.59,13.11,9.5,17.01,11.03-.89,1.16-1.58,2.59-1.4,4.01.26,2.06,1.85,3.49,2.9,4.33,5.7,4.57,12.97,7.92,16.34,9.47,9.14,4.22,10.01,4.67,10.9,4.91.09.02.18.05.27.06.03,0,.05.01.08.01Z"/>
    <path class="cls-10" d="m274.54,300.97s.02.03,0,.05c-.03,0-.05-.01-.08-.01-.09-.02-.18-.05-.27-.06.11,0,.23.02.35.03Z"/>
    <path class="cls-6" d="m438.46,264.85c-.62,2.25.93,4.52,2.69,6.12.14.12.27.24.42.36-3.55.84-7.11,1.62-10.55,2.75-3.52,1.14-6.64,2.87-7.95,5.74-.81,1.79-.08,2.24-.53,3.97-.02.08-.03.15-.06.24-.03.09-.06.17-.09.26-3.35,1.2-6.81,2.18-10.2,3.02-1.98.5-4,.93-6.03,1.14-1.02.11-2.24.08-2.87-.72-.12-.15-.21-.32-.26-.5.09-.05.17-.09.24-.14,1.4-.78,2.63-1.83,3.58-3.34.42-.68,1.55-2.09.68-2.81-.53-.42-1.25-.33-1.88-.27-.78.08-1.32.06-2.03-.39-.65-.41-1.25-.95-2.01-1.05-1.02-.15-1.76.75-3.41,1.7-.39.23-2.69,1.52-5.43,1.5-2.18-.02-3.92-.89-4.57-1.2-1.52-.77-2.57-1.77-4.61-2.31-.45-.14-.86-.2-1.22-.2h-.02c-.14,0-.26.02-.39.03-1.13.14-1.91.69-2.21.92-2.42,1.71-4.13,1.43-5.62,2.75.09-.14.18-.27.29-.39,1.73-2.24,4.19-3.85,6.6-5.41,2.4-1.56,5.68-3.41,11.89-7.63,5.98-4.07,6.33-5.08,10.05-6.7.42-.18.84-.36,1.25-.51.03,0,.05-.02.06-.03.03,0,.06-.02.08-.02-.54.71-.92,1.5-.71,2.19.36,1.13,1.76,1.67,2.98,1.52,1.22-.14,2.28-.77,3.34-1.35,5.58-3.04,11.99-4.63,18.38-4.54,3.86.05,8.1.6,11.26-1.55,1.62-1.11,2.86-2.89,4.79-3.31,1.46-.33,2.96.2,4.45.11-2.27,2.22-4.75,4.25-7.21,6.24-1.31,1.07-2.72,2.22-3.16,3.82Z"/>
    <path class="cls-6" d="m403.28,287.09c-.08.05-.15.09-.24.14-.02-.03-.03-.06-.03-.11.09-.02.18-.03.27-.03Z"/>
    <path class="cls-6" d="m449.1,254.54c.02.08,0,.15,0,.24-.03.01-.05.01-.08.01-.06,0-.14.02-.2,0,.09-.08.18-.17.27-.26Z"/>
    <path class="cls-2" d="m168.39,231.31c-.33.03-.66-.02-.98-.12-.12-.05-.24-.09-.36-.17.05-.42.01-.81-.12-1.2-.03-.08-.06-.15-.11-.21.05.01.09.05.12.08h.02c.45.56.93,1.1,1.43,1.62Z"/>
    <path class="cls-5" d="m509.88,178.87c-.33,4.79-1.68,9.56-3.98,13.84-.77,1.41-1.65,2.84-3.02,3.77-1.37.95-3.28,1.29-4.73.5-1.35-.74-1.05-1.85-2.95-3.08h-.02c-.51-1.29-2.24-2.89-3.58-1.52-.3.32-.56.75-.77,1.23-.02,0-.02.02-.02.02-.39.27-.66.54-.81.66-8.13,6.21-16.01,12.71-24,19.07-2.42,1.94-4.78,3.92-7.14,5.92-.75.65-1.52,1.28-2.3,1.89-1.1.89-2.31,1.56-3.59,2.21-1.5.78-2.95,1.62-4.27,2.66-.78.63-1.52,1.35-2.25,2.04-.78.74-1.52,1.52-2.09,2.42-.8,1.23-1.22,2.68-1.32,4.13,0,.08-.01.14-.01.21.53-.54,1.19-.96,1.92-1.17,1.07-.32,2.31-.09,3.13.65,1.41,1.31,1.07,3.53,1.65,5.34.51,1.61,1.91,2.95,3.61,3.46,1.1.32,2.28.29,3.37-.06,1.1-.36,1.79-1.32,2.83-1.65.2-.08.38-.09.53-.06-.36.48-.72.96-1.07,1.46-.35.45-.68.9-.99,1.37-1.95,2.78-6.07,7.56-8.52,10.01-.12.12-.24.24-.38.36-.09.09-.18.18-.27.26-1.49.09-2.99-.44-4.45-.11-1.94.42-3.17,2.19-4.79,3.31-3.16,2.15-7.39,1.59-11.26,1.55-6.39-.09-12.8,1.5-18.38,4.54-1.05.59-2.12,1.22-3.34,1.35-1.22.15-2.62-.39-2.98-1.52-.21-.69.17-1.49.71-2.19.03-.03.05-.06.08-.09.38-.5.83-.95,1.2-1.31,2.16-2.06,8.22-7.09,14.64-12.37h.02c.06-.03.14-.06.2-.09h.02c.06-.08.11-.12.12-.2.02,0,.02-.02.03-.03,6.54-5.37,13.39-10.9,16.83-13.66v-.02c.93-.75,1.61-1.29,1.97-1.58,11.02-11.2,19.82-24.41,25.73-38.73v-.02s.02-.03.03-.06c.87-1.41,1.71-3.02,2.48-4.81,1.8-3.49,3.22-6.48,4.27-8.82.08-.17.15-.32.21-.47.09-.14.2-.27.29-.39,1.04-1.26,2.39-1.68,3.79-2.19,2.8-.98,5.49-2.22,8.24-3.34,5.56-2.27,11.11-4.57,16.65-6.84,2.1-.86,4.73-1.19,6.46.23.35.27.65.6.9.96,2.03,2.83,1.59,7.97,1.4,10.96Z"/>
    <path class="cls-5" d="m420.6,247.67c-.02.08-.06.12-.12.2h-.02c-.06.03-.14.06-.2.09.11-.09.23-.18.33-.29Z"/>
    <path class="cls-5" d="m449.1,254.54c.02.08,0,.15,0,.24-.03.01-.05.01-.08.01-.06,0-.14.02-.2,0,.09-.08.18-.17.27-.26Z"/>
    <path class="cls-5" d="m460.6,241.95c-.5.33-1.02.62-1.61.86.35-.5.71-.98,1.07-1.46.33.05.53.27.54.6Z"/>
    <path class="cls-2" d="m406.85,283.76c-.95,1.5-2.18,2.55-3.58,3.34-.09,0-.18.01-.27.03,0,.05.01.08.03.11-3.83,2.03-8.88,2.09-13.03,3.53-.05.01-1.01.44-2.98,1.28-12.32,5.29-16.41,7.06-17.85,7.08-.17,0-.29-.02-.39-.06h-.02c-.11-.03-.18-.09-.24-.17-.78-.92,2.45-2.81,3.8-8.18,1.11-4.39-.24-6.42,1.73-8.24.03-.03.05-.05.08-.06,1.49-1.32,3.2-1.04,5.62-2.75.3-.23,1.08-.78,2.21-.92.14-.01.26-.03.39-.03h.02c.36,0,.77.06,1.22.2,2.04.54,3.1,1.55,4.61,2.31.65.32,2.39,1.19,4.57,1.2,2.74.02,5.03-1.28,5.43-1.5,1.65-.95,2.39-1.85,3.41-1.7.77.11,1.37.65,2.01,1.05.71.45,1.25.47,2.03.39.63-.06,1.35-.15,1.88.27.87.72-.26,2.13-.68,2.81Z"/>
    <path class="cls-2" d="m403.28,287.09c-.08.05-.15.09-.24.14-.02-.03-.03-.06-.03-.11.09-.02.18-.03.27-.03Z"/>
    <path class="cls-1" d="m311.73,351.5l-.02.03v-.03h.02Z"/>
    <path class="cls-2" d="m324.52,153.13s-.03.05-.05.08h-.01s.03-.06.05-.09c0,0,0,.02.02.02Z"/>
    <path class="cls-2" d="m288.18,149.07s-.05.06-.06.09v.02s-.05.02-.06.02c.05-.03.09-.08.12-.12Z"/>
    <path class="cls-2" d="m256.61,184.9c-.09.18-.17.36-.24.53v-.06c.08-.17.15-.32.24-.47Z"/>
    <path class="cls-2" d="m350.61,138.58c-.41-.05-.89-.05-1.43.02-.98.12-1.73.41-2.59.81-.23.09-.47.21-.72.33-.68.33-1.52.74-2.39,1.38-1.91,1.4-1.95,2.42-4.54,4.97-.74.71-1.34,1.25-2.25,1.41-.6.12-.89-.02-1.97.02-.92.03-1.59.14-2.19.23-1.22.21-2.99.51-4.67,1.55-1.85,1.14-2.84,2.72-3.35,3.82-5.53-4.1-7.79-4.04-13.21-8.06-.53-.39-1.05-.81-1.58-1.22-.05-.03-.08-.08-.11-.11-.03-.02-.05-.03-.08-.03-1.1-.89-2.21-1.76-3.41-2.49-1.83-1.13-3.94-1.98-6.13-1.92-1.95.06-3.67,1.04-5.17,2.39v-.05c.32-.77.15-1.61.15-2.42,0-.35,0-.68-.02-1.02-.02-.33-.03-.68-.05-1.02-.01-.62-.06-1.22-.45-1.8-.63-.93-1.68-1.19-1.79-1.22-.24-.05-1.04-.23-1.73.14-.92.47-1.16,1.61-1.25,2.06-.32,1.34-1.07,3.31-2.98,6.28-.29.92-.63,2.12-1.04,3.53-.75,2.68-.86,3.32-.5,3.64.65.56,2.3-.29,2.84-.59-1.32,1.32-2.75,2.57-4.18,3.8-2.46.83-6.42,5.09-7.86,6.37-.75.66-1.46,1.34-2.16,2.03-.42-1.25-1.26-3.41-2.54-5.23-.06-.09-.12-.18-.21-.27-.06-.11-.15-.2-.24-.29s-.17-.17-.24-.23c-.17-.14-.33-.26-.51-.35-.26-.14-.53-.21-.81-.24-.51-.06-1.05.03-1.62.23-.26.09-.5.2-.72.3-.2.09-.41.23-.6.39-.12.09-.23.2-.33.32-.09.11-.18.23-.26.35-.03.03-.06.08-.08.11-.3.56-.33,1.1-.35,1.26-.03.41.05.72.08.84.2.98.63,3.56.69,5.59.02.93-.05,1.08.08,1.64.21,1.05.77,1.86,1.19,2.39-4.07,4.87-7.44,10.19-10.28,15.77-.09.17-.18.33-.26.48-.05.09-.09.15-.14.24.92-3.49-.45-7.41-1.46-10.76-1.1-3.67-1.67-5.5-1.86-6.06-.09-.29-.36-1.04-.45-2.07-.06-.66-.02-1.17,0-1.41.2-2.31.62-5.15.69-6.72.05-1.16-.05-2.8-.69-4.87v.02c.21-.51.45-1.29.41-2.25-.06-1.34-.62-1.71-.51-2.22.36-1.68,6.75.12,11.21-2.65,2.25-1.41,4.33-3.82,6.7-9.38.81-1.89,1.76-4.12,3.83-4.64,1.8-.47,3.67.63,4.88,2,1.2,1.37,2.01,3.04,3.31,4.33.99,1.01,1.67,1.02,2.06,1.01,1.22-.09,2.03-1.43,2.39-2.07,1.29-2.25,2.89-6.73,4.33-11.26,0-.02,0-.03.01-.05.11-.2.23-.48.3-.77,0,0,.3-1.02.51-1.34,0,0,.18-.17.42-.3,1.32-.72,4.09.8,6.19-.26.87-.44,1.02-.89,2.87-5.35.47-1.13.98-2.25,1.67-3.26.02-.05.05-.08.09-.12.11-.14.23-.29.33-.44.01-.03.03-.06.06-.09.17-.2.35-.39.53-.57,1.26-1.25,3.16-2.03,4.91-1.58,1.35.33,2.42,1.34,3.58,2.1,2.63,1.68,4.84-.35,7.6.36.09.02.17.06.26.09,1.58.57,2,2.49,2.57,3.8.87,1.98,1.74,3.97,2.63,5.95.87,1.97,1.88,4.09,3.85,5.09,1.83.92,3.76.42,6.87-.44,5.46-1.47,6.43-3.41,8.4-2.65,2.03.78,3.07,3.68,4.09,6.52.57,1.56.83,2.89.83,2.89.26,1.22.29,2.06.53,3.28Z"/>
    <path class="cls-6" d="m351.59,141.33c-.05.06-.09.14-.14.21v-.03c.03-.06.09-.12.14-.18Z"/>
    <path class="cls-6" d="m370.78,163.15s-.01.02-.03,0c0-.03.02-.06.02-.09.01.03.01.06.01.09Z"/>
    <path class="cls-6" d="m385.78,101.47c-.75,1.11-1.44,2.27-2.06,3.44-.18-.02-.38-.03-.56-.06.5-.56,1.28-1.58,1.77-3.05.2-.18.41-.32.66-.35.06,0,.12-.02.18.02Z"/>
    <path class="cls-6" d="m387.51,144.44c-.17.2-.33.36-.47.5v-.05c.17-.14.32-.3.47-.45Z"/>
    <path class="cls-6" d="m388.74,142.94c-.38.57-.83,1.08-1.23,1.5.44-.47.81-.99,1.23-1.5Z"/>
    <path class="cls-3" d="m212.89,173.14c.57.62,1.41.93,2.22,1.23.3.11.59.23.89.33.06-.06.11-.14.15-.21-1.1-.47-2.16-.92-3.26-1.35Zm43.76,11.66h-.02s-.02.08-.03.09c-.09.15-.17.3-.24.47-1.05,2.12-2.04,4.28-2.96,6.48.26-.09.47-.26.63-.45.29-.36.36-.84.48-1.28.5-1.83,1.64-3.49,2.15-5.32-.02,0-.02.02-.02.02Zm-16.71-30s-.03.02-.06.03c0,.09.02.2.02.3.03-.01.05-.05.06-.08,0-.09-.01-.17-.01-.26Z"/>
    <path class="cls-3" d="m255.22,173.94c-1.1-3.67-1.67-5.5-1.86-6.06-.09-.29-.36-1.04-.45-2.07-.06-.66-.02-1.17,0-1.41.2-2.31.62-5.15.69-6.72.05-1.16-.05-2.8-.69-4.87-.09-.08-.18-.15-.29-.26-.45-.38-1.01-.93-1.55-1.64-2.01-2.58-1.5-4.01-2.92-6.78-1.19-2.34-2.96-4.4-5.55-6.85-.81-.78-1.73-1.64-1.95-2.68l-.03-.03h-.02c-1.89-1.86-4.03-3.46-6.37-4.09-1.17-.33-2.46-.35-3.59.09-.69.6-1.43,1.22-1.59,2.07-.03.15-.05.3-.03.45h.02c.01.83.54,1.61,1.05,2.31,1.98,2.71,4.12,5.32,6,8.1,1.71,2.51,3.8,5.62,4.43,8.58.2,1.02.11,2.15-.57,2.96.12,1.67.17,3.1.18,4.24.03,1.53-.09,2.6-.42,3.94-.18.83-.51,1.71-1.28,2.18-.95.62-2.28.3-3.25-.33-2.25-1.47-3.13-4.21-4.78-6.3-2.54-3.22-4.21-2.68-7.66-6-1.58-1.53-3.64-4.01-5.19-7.98-.47-.86-1.17-1.38-1.8-1.28-.71.09-1.07.93-1.22,1.32-.45,1.05-.2,2.43.32,5.14.09.47.14.68.2.89.12.5.2.65.32,1.38.26,1.61.23,2.89.2,3.7-.2,3.82-.96,6.16-1.28,9.78-.11,1.19-.2,2.9-.09,5.05.03.02.06.03.09.05,1.11.53,2.16,1.5,2.12,2.71-.02.36-.11.68-.26.95,4.94,2.09,9.84,4.24,14.77,6.34.72.32,1.77.69,2.75,1.19h.02c1.11.42,2.93,1.83,7.12,3.86,3.07,1.49,5.12,2.33,5.12,2.33,3.35,1.46,3.91,1.56,6.63,3.17.27.17.54.32.78.47h.02s.03,0,.05-.02c.92-2.19,1.91-4.36,2.96-6.48.08-.17.15-.32.24-.47.02-.02.02-.05.03-.08h.02s0-.03.02-.03c0-.02.01-.03.01-.05v-.02h0v-.03c.92-3.49-.45-7.41-1.46-10.76Zm-23.34,5.29c-.39-.02-.74-.24-1.07-.44-2.59-1.68-5.29-3.22-8.09-4.57-.86-.42-1.77-.86-2.43-1.5-.18-.18-.35-.38-.48-.6-.77-1.2-.56-2.74-.32-4.13.38-2.15.72-4.28,1.08-6.43.11-.68.24-1.49.8-1.73.56-.24,1.28.23,1.86.68,2.16,1.68,3.38,3.97,3.79,4.6,1.52,2.4,2.83,4.96,3.91,7.57.33.8,3.04,6.6.95,6.55Z"/>
    <path class="cls-6" d="m387.04,144.89l-.36.27c-.09.06-.18.12-.29.18-.68.42-1.46.69-2.15,1.14-.99.69-1.62,1.77-2.25,2.78-2.87,4.57-6.52,8.36-10.26,12.28-.33.36-.68.74-.86,1.19-.05.11-.08.23-.11.33,0-.06-.02-.12-.03-.18-.26-1.34-.8-2.31-.81-2.36-.99-3.01.18-6.27,1.8-9.02,1.92-3.26,6.04-7.51,5.35-11.59-.35-2-2.59-3.32-4.45-2.04-.83.53-1.34,1.38-1.79,2.22-2.4,4.52-3.11,9.68-6.57,13.71-.95,1.08-2.1,2.09-3.56,2.28-2.18.29-4.21-1.41-5.05-3.37-.69-1.94-.72-4.12-1.1-6.22-.15-1.28-.42-2.6-1.01-3.77-.23-.42-.65-1.35-1.13-1.56-.41-.18-.63-.08-.84.17.11-.18.17-.29.2-.33.17-.27.54-.92.32-1.53-.14-.42-.51-.68-.75-.81-.03,0-.06-.02-.11-.02-.18-.03-.38-.06-.62-.06h-.02c-.24-1.22-.27-2.06-.53-3.28,0,0-.26-1.32-.83-2.89-1.02-2.84-2.06-5.74-4.09-6.52-1.97-.77-2.95,1.17-8.4,2.65-3.11.86-5.03,1.35-6.87.44-1.97-1.01-2.98-3.13-3.85-5.09-.89-1.98-1.76-3.97-2.63-5.95-.57-1.31-.99-3.23-2.57-3.8-.09-.03-.17-.08-.26-.09-2.77-.71-4.97,1.32-7.6-.36-1.16-.77-2.22-1.77-3.58-2.1-1.76-.45-3.65.33-4.91,1.58-.18.18-.36.38-.53.57-.03.03-.05.06-.06.09-.12.14-.24.29-.33.44-.05.05-.08.08-.09.12-.69,1.01-1.2,2.13-1.67,3.26-1.85,4.46-2,4.91-2.87,5.35-2.1,1.05-4.87-.47-6.19.26-.24.14-.42.3-.42.3-.21.32-.51,1.34-.51,1.34-.08.29-.2.57-.3.77-.01.02-.01.03-.01.05-1.44,4.52-3.04,9-4.33,11.26-.36.65-1.17,1.98-2.39,2.07-.39.02-1.07,0-2.06-1.01-1.29-1.29-2.1-2.96-3.31-4.33-1.22-1.37-3.08-2.46-4.88-2-2.07.53-3.02,2.75-3.83,4.64-2.37,5.56-4.45,7.97-6.7,9.38-4.46,2.77-10.85.96-11.21,2.65-.11.51.45.89.51,2.22.05.96-.2,1.74-.39,2.25v-.02c-.11-.08-.2-.15-.3-.26-.45-.38-1.01-.93-1.55-1.64-2.01-2.58-1.5-4.01-2.92-6.78-1.19-2.34-2.96-4.4-5.55-6.85-.81-.78-1.73-1.64-1.95-2.68-.02-.02-.02-.03-.02-.05-.05-.15-.06-.3-.06-.47-.02-1.5,1.47-2.58,2.81-3.38,2.06-1.22,4.16-2.37,6.3-3.46,1.53-.77,3.37-1.5,4.9-.74.99.48,1.71,1.53,2.83,1.53s1.92-1.26,1.88-2.36c-.05-1.11-.62-2.13-.96-3.2-1.13-3.31.18-7.23,3.07-9.33,1.29-.93,2.98-1.53,4.54-1.14.99.24,1.85.84,2.8,1.17,1.8.65,3.86.29,5.53-.63,1.65-.9,2.96-2.3,4.07-3.79.71-.98,1.47-2.07,2.66-2.36,2-.5,3.73,1.49,5.77,1.82,1.97.33,2.03-.87,4.1-.65,1.41.17,2.55.75,3.89.29.53-.18.93-.41,1.07-.48.03-.02.05-.03.05-.03.02,0,.02-.02.03-.03.35-.24.62-.44.78-.56.14-.11.26-.21.35-.29,2.09-2.1,3.98-13.54,4.99-15.68.08-.18.41-.75,1.05-1.19,1.41-.98,2.45.44,2,1.74-.26.77-.81,1.43-1.01,2.21-.32,1.14.18,2.37.99,3.26,2.13,2.39,5.68,3.79,8.16,5.89,3.64,3.08,6.6,6.75,6.6,6.75.57.87,1.59,2.21,3.26,3.34,1.56,1.05,2.95,1.97,4.33,1.65,2.31-.51,2-3.86,5.7-7.45,1.2-1.17,2.74-2.63,4.3-2.33,2.1.42,3.01,2.78,3.37,4.81.3,1.79.54,3.67,1.86,5.06,1.52,1.59,3.31,3.01,5.08,4.34,3.83,2.87,7.97,5.86,12.8,6.27,8.52.71,14.71-6.13,18.26-12.68,1.85-3.43,3.43-7.02,5.73-10.17.12-.18.27-.36.44-.51-.5,1.47-1.28,2.49-1.77,3.05.18.03.38.05.56.06-1.29,2.45-2.28,5-2.95,7.65-1.59,6.31-1.22,13.12,1.83,20.02,1.77,4.04,4.52,7.97,4.43,12.31Z"/>
    <path class="cls-6" d="m220,123.17c-.5-.75-.99-1.52-1.5-2.27-.27-.44-.57-.87-1.02-1.14-.42-.24-.89-.23-1.29-.06-.24.11-.47.26-.66.44-.23.24-.41.51-.54.77-.5,1.31-.11,2.62-.08,2.71.5,1.71-.45,7.09-1.67,13.96-2.16,12.29-3.25,18.44-5.03,20.83-.77,1.04-2.27,3.05-2.21,5.5-.48-1.47-.68-3.02-.59-4.4.15-2.74,1.23-5.56,1.88-8.22.66-2.65,1.29-5.32,1.74-8.01,1.05-6.31,1.02-12.73.5-19.1-.26-3.04-.72-6.03-1.01-9.06-.21-2.3-.47-4.58-1.01-6.84-.38-1.56-1.13-2.95-1.94-4.33-.03-.05-.06-.11-.09-.15-.02-.2-.02-.41.01-.63.02-.15.09-.75.48-1.43.2-.35.78-1.38,1.49-1.44.8-.08,1.55.8,2.09,1.74.14.23.26.45.36.68.12.26.21.51.29.72.9,2.69,3.46,4.34,5.28,6.42,1.95,2.24,3.02,5.31,3.73,8.12.42,1.7.69,3.46.8,5.22Z"/>
    <path class="cls-6" d="m205.57,103.94s-.05,0-.08.01c-.02-.05-.02-.11-.02-.17.03.05.06.11.09.15Z"/>
    <path class="cls-2" d="m240.13,159.3c.03,1.53-.09,2.6-.42,3.94-.18.83-.51,1.71-1.28,2.18-.95.62-2.28.3-3.25-.33-2.25-1.47-3.13-4.21-4.78-6.3-2.54-3.22-4.21-2.68-7.66-6-1.58-1.53-3.64-4.01-5.18-7.98-.47-.86-1.17-1.38-1.8-1.28-.71.09-1.07.93-1.22,1.32-.45,1.05-.2,2.43.32,5.14.09.47.14.68.2.89.12.5.2.65.32,1.38.26,1.61.23,2.89.2,3.7-.2,3.82-.96,6.16-1.28,9.78-.11,1.19-.2,2.9-.09,5.05-.54-.24-1.07-.41-1.62-.57-.57-.17-1.16-.33-1.83-.6-2.37-.93-3.95-3.17-4.73-5.67h-.02v-.06c-.06-2.45,1.44-4.46,2.21-5.5,1.79-2.39,2.87-8.54,5.03-20.83,1.22-6.87,2.16-12.25,1.67-13.96-.03-.09-.42-1.4.08-2.71.14-.26.32-.53.54-.77.2-.18.42-.33.66-.44.41-.17.87-.18,1.29.06.45.27.75.71,1.02,1.14.51.75,1.01,1.52,1.5,2.27.8,1.19,1.58,2.37,2.37,3.56-.11.12-.17.26-.21.41-.32.86.17,1.94.6,2.69,2.24,4,4.7,7.91,5.64,12.38.05.17.06.32.11.48.44,2.34.68,4.73,1.44,6.99.95,2.81,2.93,5.59,6.06,6.4,1.35.35,2.98.12,3.88-.92l.02-.02v-.02s.05-.05.06-.08c.12,1.67.17,3.1.18,4.24Z"/>
    <path class="cls-2" d="m239.95,155.07s-.03.06-.06.08c0-.11-.02-.21-.02-.3.03-.02.05-.02.06-.03,0,.09.02.17.02.26Z"/>
    <path class="cls-6" d="m239.95,155.07c0-.09-.02-.17-.02-.26-.01.02-.03.02-.06.03,0,.09.02.2.02.3v.02l-.02.02c-.9,1.04-2.52,1.26-3.88.92-3.13-.81-5.11-3.59-6.06-6.4-.77-2.25-1.01-4.64-1.44-6.99-.05-.17-.06-.32-.11-.48-.93-4.48-3.4-8.39-5.64-12.38-.44-.75-.92-1.83-.6-2.69.05-.15.11-.29.21-.41.09-.14.21-.24.36-.35.48-.35,1.19-.39,1.71-.69.71-.42,1.28-1.02,1.8-1.62.89-1.01,1.97-2.54,3.46-2.6,1.64-.06,2.77,1.47,3.11,2.83.53,2.06-.15,4.36-1.7,5.86-.15.14-.3.29-.47.42-.69.6-1.43,1.22-1.59,2.07-.03.15-.05.3-.03.45h.01c.02.83.54,1.61,1.05,2.31,1.98,2.71,4.12,5.32,6,8.1,1.71,2.51,3.8,5.62,4.43,8.58.2,1.02.11,2.15-.57,2.96Z"/>
    <path class="cls-6" d="m239.95,155.07s-.03.06-.06.08c0-.11-.02-.21-.02-.3.03-.02.05-.02.06-.03,0,.09.02.17.02.26Z"/>
    <line class="cls-8" x1="226.74" y1="125.11" x2="226.73" y2="125.1"/>
    <path class="cls-5" d="m424.47,78.33c-2.45,28.28-4.07,48.92-5.08,63.84v.03c-.02.23-.05.45-.05.68v.02c-1.04,15.22-1.43,24.41-1.43,29.67v.08c0,1.5.03,2.69.09,3.59.06.92.33,4.7-.08,9.77-.05.6-.12,1.47-.27,2.58.15-1.44.11-2.25-.36-2.49-.03-.02-.06-.03-.09-.03v-.02c-1.01-.32-3.4,1.73-4.78,3.77-.99,1.47-1.35,2.24-2.55,3.71-.66.83-1.68,1.44-2.77,1.37-1.11-.08-2.03-.83-2.74-1.64-.71-.8-1.34-1.71-2.22-2.3-.9-.6-2.24-.78-3.07-.09-.81.69-.78,1.91-.59,2.93.21,1.04.51,2.13.08,3.08-.63,1.34-2.37,1.74-3.89,1.94-1.52.21-3.26.51-4.01,1.8-.32.59-.38,1.23-.26,1.88.09.41.23.83.41,1.23-.84-1.29-1.89-2.46-2.99-3.56-5.44-5.44-10.88-8.12-12.19-8.72-2.51-1.19-4.64-1.86-6.66-2.52-1.11-.36-3.19-.99-8.54-2.19-3.2-.71-5.65-1.26-7.47-1.55,4.28-.77,13.72-17.34,16.46-19.33.2-.15,1.11-.77,1.34-1.77.05.23.11.45.17.68,2.04,7,12.64,10.2,18.47,5.37,1.2-1.01,2.15-2.24,3.35-3.25,1.19-1.01,2.43-1.98,3.32-3.26.84-1.2,1.35-2.62,2-3.95,1.55-3.1,4.04-5.74,7.03-7.63,3.8-2.4,8.73-3.94,10.45-8.39.42-1.11.62-2.28.81-3.46.27-1.47.62-2.93,1.01-4.37.38-1.29.39-2.66.53-4,.3-3.04.48-6.09.15-9.12-.27-2.59-1.62-4.78-4.49-5.32-1.97-.38-4.13.35-5.43,1.82-1.47,1.67-1.77,3.98-2.74,5.95-1.94,4-6.4,6.22-9.23,9.69-1.1,1.35-1.94,2.9-3.16,4.16-1.19,1.22-2.69,2.13-3.83,3.4-.14.15-.27.32-.41.48-.02.02-.03.05-.03.06-.42.51-.8,1.04-1.23,1.5-.15.15-.3.32-.47.45.09-4.34-2.66-8.27-4.43-12.31-3.05-6.9-3.43-13.71-1.83-20.02.66-2.65,1.65-5.2,2.95-7.65.62-1.17,1.31-2.33,2.06-3.44.17-.27.35-.53.53-.78,8.36-12.02,23.6-20.71,38.16-22.36Z"/>
    <path class="cls-5" d="m352,185.03c-.06,0-.14-.02-.2-.02.03-.02.05-.03.06-.06.05.03.11.06.14.08Z"/>
    <path class="cls-5" d="m370.8,164.01s-.02.06-.03.08v-.05s.01-.05.03-.03Z"/>
    <path class="cls-5" d="m387.51,144.44c-.17.2-.33.36-.47.5v-.05c.17-.14.32-.3.47-.45Z"/>
    <path class="cls-5" d="m388.74,142.94c-.38.57-.83,1.08-1.23,1.5.44-.47.81-.99,1.23-1.5Z"/>
    <path class="cls-5" d="m392.3,206.92c-.21-.53-.45-1.05-.71-1.55-.27-.53-.56-1.08-.78-1.64.54.81.99,1.68,1.32,2.6.06.2.12.39.17.59Z"/>
    <path class="cls-5" d="m407.35,218.07c-1.74,2.63-3.85,5.14-6.46,7.38-1.4,1.19-2.86,2.21-4.39,3.1.23-1.02.42-2.04.59-3.07.2-1.26.12-2.59-.36-3.56-.62-1.19-1.85-1.85-3.95-1.22-1.86.54-3.23,2.04-4.49,3.47-.99-4.36-5.92-3.17-8.63-1.35-4.28,2.87-7.15,3.91-11.69.98-3.34-2.16-6.28-5.89-10.66-5.95-3.53-.05-6.45,2.57-8.55,5.26-2.1,2.71-3.97,5.79-7.03,7.44-9.42,5.08-13.9-7.62-22.59-6.69-2.21.23-4.13,1.46-6.21,2.22-2.06.77-4.7.95-6.24-.6-1.71-1.73-1.07-4.55-.09-6.73,4.49-10.17,13.74-18.26,24.77-21.54,3.67-1.1,7.54-1.7,10.93-3.44,2.42-1.23,3.97-2.8,4.84-4.52-.44,1.28-.93,2.86-1.53,4.76-1.32,4.28-1.74,5.95-1.1,7.98.21.68.89,2.57,2.74,3.64,2.71,1.56,4.27-.65,6.31-1.94,1.53-.96,3.46-1.07,5.28-1.25s3.77-.53,5.05-1.79c.56-.54.95-1.25,1.52-1.77.57-.54,1.44-.92,2.18-.6.62.26.93.92,1.16,1.55.89,2.55.39,5.17,1.02,7.75.05.18,1.1,4,4.34,5.59,1.46.71,2.31.48,6.73,1.98,1.31.44,1.64.62,1.92.75,1.56.84,2.66,2.06,3.94,3.52.3.36.62.74,1.04.96.41.23.98.29,1.35,0,.3-.23.42-.6.51-.93.66-2.28,1.17-4.79,2.27-6.9.87-1.7.96-3.68.5-5.52.6,1.53,1.01,3.16,1.19,4.79.17,1.68.18,3.5,1.31,4.79.66.75,1.59,1.17,2.58,1.46.59.17,1.2.3,1.79.41,2.69.5,5.65.96,8.03-.36.03-.02.08-.05.11-.06Z"/>
    <path class="cls-5" d="m186.6,173.01s-.01.03-.03.05-.03.05-.03.06c0-.05.02-.09.02-.15.02.01.03.03.05.05Z"/>
    <path class="cls-5" d="m259.13,202.32c-.23,2.45-.57,4.9-1.53,7.18-.96,2.27-2.62,4.34-4.93,5.43-1.41.65-3.05.93-4.18,1.97-2.4,2.21-.96,6.03-1.47,9.17-.62,3.77-4.72,6.69-8.67,6.15-3.41-.45-6.03-2.98-8.76-5-2.71-2.03-6.4-3.7-9.5-2.24-1.29.62-2.27,1.7-3.44,2.51-1.19.8-2.81,1.29-4.06.59-.68-.38-1.11-1.05-1.5-1.7-2.78-4.43-5.56-8.88-8.34-13.32-3.34-5.32-5.03-7.8-6.72-10.84-1.49-2.65-3.32-6.25-5.2-10.67-3.13-7.38-4.69-11.2-4.46-16.31.03-.65.09-1.37.18-2.12,0-.02.02-.05.03-.06s.02-.03.03-.05c-.01-.02-.03-.03-.05-.05-.99-.96-2.24-1.4-3.44-1.29-1.29.11-2.28,1.43-4.21,4.06-2.72,3.71-3.1,5.53-4.78,5.8-1.1.2-2.03-.38-3.16-1.08-2.9-1.82-4.28-4.45-4.58-5.03-3.35-6.63-7.62-26.05-13.72-38.59-2.98-6.15-6.52-14.07-12.59-13.86-4.07.17-7.83,2.27-10.7,5.02-2.18,2.12-4.01,5.17-2.95,7.97,1.13,2.93,4.75,4.03,7.56,5.62,5.59,3.22,8.64,9.54,9.23,15.75.36,3.85,0,7.89-.93,11.65-.86,3.4-1.17,7.47-3.23,10.42-.56.78-1.29,1.46-2.15,1.83-1.01.45-2.13.5-3.23-.21-1.23-.8-1.94-2.15-2.39-3.5-.47-1.35-.75-2.78-1.44-4.04-1.56-2.89-5.08-4.49-8.48-4.48-3.4.05-6.64,1.52-9.29,3.55-2.18,1.67-4.55,3.86-7.29,3.35-1.92-.36-3.26-1.98-4.4-3.52-4.6-6.25-8.52-12.96-12.05-19.81-.29-.56-.57-1.1-.84-1.65-1.38-2.75-2.69-5.55-3.92-8.37-1.34-3.08-2.24-6.9-4.36-9.6-.95-1.23-2.16-2.4-3.22-3.58-.74-.8-1.77-1.65-2.81-1.29-.35.12-.6.33-.77.6-.09-.36-.15-.74-.17-1.11.05-.05.05-.09.05-.14,0-1.55,1.07-3.2,2.68-3.35,1.37-.11,2.54.83,3.55,1.71.18.17.36.33.54.5.03.02.06.05.08.06,9.9,8.93,19.15,18.55,28.71,27.79,1.62,1.58,3.29,3.19,5.35,4.21,2.07,1.02,4.66,1.37,6.7.33,2.43-1.22,3.56-3.95,3.95-6.54.75-4.88-.48-10.02-3.32-14.13-2.99-4.31-5.53-9-5.95-14.28-.33-4.21.45-8.69,1.14-12.82.48-2.93,1.04-5.83,1.68-8.73.17-.72.35-1.49.83-2.07.95-1.17,2.74-1.34,4.28-1.11,4.73.68,8.51,3.76,12.37,6.19,4.1,2.57,8.6,4.03,13.45,4.36.21.86.48,1.71.77,2.55.18.6.39,1.2.62,1.79,2.09,5.62,5.17,10.76,9.18,15.31,1.02,1.16,2.52,2.13,4.09,1.86,1.13-.18,2.04-1.02,2.55-1.98.51-.98.68-2.09.75-3.19.02-.3.03-.6.03-.89.05-1.64-.11-3.28-.38-4.88,1.89,6.27,4.16,12.46,7.21,18.29,3.01,5.77,6.66,11.62,12.01,15.66.05.05.11.09.15.12,1.13.84,2.68,1.64,3.91.95,1.2-.69,1.26-2.31,1.01-3.62-.53-2.69-1.76-5.2-2.86-7.72-5.56-12.8-7.91-26.89-6.81-40.71.3-3.82,1.02-7.65,2.77-11.09.83-1.62,1.89-3.19,3.4-4.27,1.49-1.1,3.49-1.67,5.32-1.22,2.48.59,4.12,2.83,5.5,4.9,2.49,3.71,4.99,7.41,7.24,11.24.23.39.47.77.69,1.16,0,.06,0,.12.01.17.03-.01.05-.01.08-.01.81,1.38,1.56,2.77,1.94,4.33.54,2.25.8,4.54,1.01,6.84.29,3.04.75,6.03,1.01,9.06.53,6.37.56,12.79-.5,19.1-.45,2.69-1.08,5.37-1.74,8.01-.65,2.66-1.73,5.49-1.88,8.22-.09,1.38.11,2.93.59,4.4v.05h.02c.78,2.51,2.36,4.75,4.73,5.68.68.27,1.26.44,1.83.6.56.17,1.08.33,1.62.57.03.02.06.03.09.05,1.11.53,2.16,1.5,2.12,2.71-.02.36-.11.68-.26.95-1.1-.47-2.16-.92-3.26-1.35l-.02-.02c-1.4-.59-2.81-1.16-4.21-1.71-2.03-.81-4.06-1.61-6.12-2.36-.74-.29-1.47-.56-2.21-.83-2.87-1.04-5.79-2.03-8.82-2.42-.66-.09-1.41-.11-1.88.35-.08.06-.12.14-.17.21h-.02c-.39.63-.05,1.53.33,2.22.09.17.18.33.3.5,2.87,5.08,7,9.45,11.77,13,4.04,3.02,8.51,5.5,12.35,8.78,1.64,1.38,3.04,2.72,4.21,4.51,1.13,1.76,2.07,3.62,3.38,5.28.77.96,1.71,1.88,2.92,2.3,1.32.45,2.95.18,3.91-.81,2.36-2.42-.03-6.07.14-8.88.11-2.03,1.43-3.98,3.32-4.9,1.79-.89,5.61-1.98,3.73-4.67-.11-.15-.23-.29-.35-.42h-.02c-.47-.48-1.1-.89-1.76-1.23,1.11.42,2.93,1.83,7.12,3.86,3.07,1.49,5.12,2.33,5.12,2.33,3.35,1.46,3.91,1.56,6.63,3.17.27.17.54.32.78.47h.02s.02.01.03.03c4.28,2.6,4.91,3.71,5.2,4.28.81,1.68.83,3.26.54,6.15Z"/>
    <path class="cls-5" d="m205.57,103.94s-.05,0-.08.01c-.02-.05-.02-.11-.02-.17.03.05.06.11.09.15Z"/>
    <path class="cls-5" d="m216.15,174.5c-.05.08-.09.15-.15.21-.3-.11-.59-.23-.89-.33-.81-.3-1.65-.62-2.22-1.23,1.1.44,2.16.89,3.26,1.35Z"/>
    <path class="cls-6" d="m166.31,124.99c0,.29-.01.59-.03.89-.08,1.1-.24,2.21-.75,3.19-.51.96-1.43,1.8-2.55,1.98-1.56.27-3.07-.71-4.09-1.86-4.01-4.55-7.09-9.69-9.18-15.31-.23-.59-.44-1.19-.62-1.79-.29-.84-.56-1.7-.77-2.55-.72-2.48-1.25-5.02-1.61-7.57-.41-2.78-.62-5.58-.65-8.37-.06-3.44.17-6.9.66-10.29.18-1.25.05-3.37,1.8-2.83h.02c1.28.41,2.31,2.78,2.86,3.8,3.89,7.39,7.06,15.09,10.23,22.75,1.74,4.22,3.52,8.55,4.28,13,0,.03.01.06.01.09.27,1.61.42,3.25.38,4.88Z"/>
    <path class="cls-5" d="m142.96,231.34c-.9.36-1.85.06-2.28-.09-5.15-1.83-12.28-8.94-14.26-10.88,0,0-5.46-5.34-15.01-10.02-.14-.06-.3-.15-.48-.21-.42-.2-.93-.36-1.4-.38-.27,0-.53.05-.74.18-.24.17-.41.42-.5.75-1.25-1.29-2.33-2.71-3.23-4.22-.2-.32-.38-.65-.54-.96-.9-1.68-1.58-3.47-2.54-5.12v-.02c-.15-.3-.33-.57-.51-.86-.9-1.38-2.04-2.62-3.17-3.82-1.76-1.88-3.53-3.77-5.67-5.26-2.09-1.46-4.54-2.54-6.16-4.45-.32-.36-.62-.8-.65-1.28-.08-.93.84-1.7,1.76-2.01,1.86-.65,3.98-.24,5.73.66.44.23.86.48,1.26.77.47.75.99,1.47,1.56,2.18,1.61,2.01,3.53,3.8,5.83,5.32,4.87,3.23,10.67,4.85,16.07,7.23,6.22,2.75,12.08,6.58,18.35,9.06.83,1.44,2.31,1.95,3.67,2.95,1.34.95,2.69,1.88,4.06,2.78-.06.03-.14.06-.2.09-.68.39-.98,1.17-1.1,1.91-.11.66-.11,1.29-.05,1.92.36,2.83,2.16,4.84,2.55,7.29.41,2.6-.5,5.77-2.36,6.49Z"/>
    <path class="cls-5" d="m96.13,186.29c-.57-.71-1.1-1.43-1.56-2.18.41.27.78.56,1.16.89.12.44.26.87.41,1.29Z"/>
    <path class="cls-4" d="m55.62,199.12c-.03.95-.15,1.91-.36,2.84h-.01c-.81-.08-1.7.26-2.3.83-.89.84-1.29,2.01-1.82,3.1-.74,1.52-1.73,2.93-3.02,4.06-.83.72-1.79,1.34-2.86,1.62-1.22.33-2.48.26-3.71.18-.2-.02-.38-.03-.59-.06-.54-.01-1.53-.2-2.06.03-.06.03-.12.06-.17.11-.08.05-.12.11-.15.18-.3-.06-.6-.12-.87-.24-.96-.44-1.49-1.19-1.65-1.41-.75-1.02-5.74-6-15.72-15.93-1.95-1.97-3.65-3.58-6.24-5.09-.9-.54-2.01-1.25-4.43-2.3-2.19-.93-4.55-1.71-6.21-3.38-.02-.02-.03-.03-.05-.05-1.4-1.44-2.06-3.38-2.27-5.31-.14-1.32-.54-4.52,1.13-5.17.65-.26,1.31.21,2.19.65.02,0,.02.02.03.02,4.12,2.01,9.26,1.02,13.62.72,5.53-.38,11.15-.42,16.61.74,4.39.95,8.58,2.66,12.4,4.94,1.83,1.1,3.62,2.36,4.93,4.01,1.49,1.88,2.37,4.27,2.75,6.58.44,2.75.93,5.55.83,8.34Z"/>
    <path class="cls-4" d="m38.73,211.82c.09.08.18.15.27.21-.14,0-.29-.02-.42-.03.03-.08.08-.14.15-.18Z"/>
    <path class="cls-4" d="m55.26,201.96s.02.03,0,.05c-.01-.02-.01-.03-.01-.05h.01Z"/>
    <path class="cls-4" d="m75.66,185.36c-11.27-3.8-22.62-7.63-33.09-13.14-2.1-1.11-4.22-2.34-5.58-4.24-1.98-2.78-1.89-6.42-1.71-9.78.05-1.08.2-2.31,1.11-2.95.8-.54,1.86-.42,2.83-.27,6.15.95,12.44,1.97,18.37,3.82,4.04,1.26,7.91,2.9,11.44,5.17,1.17.74,2.36,1.62,2.84,2.9.48,1.28.14,2.71.06,4.07-.15,2.77.92,5.56,2.89,7.59,1.79,1.86,7.18,4.06,7.68,6.72.62,3.29-5.31.62-6.82.11Z"/>
    <path class="cls-5" d="m60.22,221.81c-.08.9-.27,1.82-.65,2.66-.3.69-.98,1.44-1.73,1.19-.41-.14-.65-.54-.83-.92-.51-1.08-.89-2.34-1.92-2.99-.45-.3-.99-.44-1.52-.57-4.81-1.35-9.3-3.7-13.12-6.82-.33-.27-2.16-1.64-1.88-2.36.14.02.29.03.42.03-.09-.06-.18-.14-.27-.21.05-.05.11-.08.17-.11.53-.23,1.52-.05,2.06-.03.21.03.39.05.59.06,1.23.08,2.49.15,3.71-.18,1.07-.29,2.03-.9,2.86-1.62,1.29-1.13,2.28-2.54,3.02-4.06.53-1.08.93-2.25,1.82-3.1.6-.57,1.49-.9,2.3-.83,0,.02,0,.03.01.05.02-.02.02-.03,0-.05.39.05.75.18,1.05.44.47.42.68,1.04.83,1.64.47,1.85.65,3.77,1.01,5.64.78,4.06,2.45,8.04,2.07,12.14Z"/>
    <path class="cls-5" d="m38.73,211.82c.09.08.18.15.27.21-.14,0-.29-.02-.42-.03.03-.08.08-.14.15-.18Z"/>
    <path class="cls-5" d="m55.26,201.96s.02.03,0,.05c-.01-.02-.01-.03-.01-.05h.01Z"/>
    <path class="cls-5" d="m569.54,180.19c-.03.69-.45,1.28-.86,1.85-8.72,12.05-17.07,24.29-26.26,36.02-8.12,10.37-16.79,20.38-26.75,29.14.02-.06.02-.14,0-.2.03-.35.03-.69.03-1.04,0-.77-.02-1.53,0-2.3.03-4.06.68-8.09,1.94-11.96,1.04-3.2,2.36-7.08,5.03-9.44,2.21-1.95,4.19-7.65-.87-7.45-1.83.06-3.4,1.23-4.82,2.34-2.51,1.94-5,3.89-7.51,5.83-8.28,6.45-16.59,12.89-25.5,18.5-2.06,1.29-4.21,2.59-6.04,4.16-.02-.17-.05-.33-.09-.48v-.02c.42-.68.8-1.31.8-1.31.27-.48.51-.9.75-1.34.53-.99,1.97-3.64,2.69-5.08.8-1.58,2.93-6.04,8.13-19.93.44-1.16.66-1.74.86-2.3.02-.05.03-.09.05-.14.02-.03.03-.08.05-.11,2.33-1.47,4.84-.59,9.66-.29,8.03.51,16.68-1.4,24.26-3.89,6.76-2.24,13.21-5.61,18.35-10.37,4-3.68,7.05-8.1,10.63-12.11,3.29-3.7,7.32-6.78,11.8-9.05.78-.41,2.27-.77,3.1-.32.17.09.3.21.39.36.15.21.23.51.21.89Z"/>
    <path class="cls-5" d="m491.15,214.97s-.03.08-.05.11c-.05,0-.09,0-.14.02.06-.05.12-.09.18-.12Z"/>
    <path class="cls-10" d="m449.1,254.54c.02.08,0,.15,0,.24-.03.01-.05.01-.08.01-.06,0-.14.02-.2,0,.09-.08.18-.17.27-.26Z"/>
    <path class="cls-10" d="m460.6,241.95c-.5.33-1.02.62-1.61.86.35-.5.71-.98,1.07-1.46.33.05.53.27.54.6Z"/>
    <path class="cls-10" d="m491.15,214.97c-.06.03-.12.08-.18.12.05-.02.09-.02.14-.02-.02.05-.03.09-.05.14-.2.56-.42,1.14-.86,2.3-5.2,13.89-7.33,18.35-8.13,19.93-.72,1.44-2.16,4.09-2.69,5.08-.24.44-.48.86-.75,1.34,0,0-.38.63-.8,1.31-.02-.06-.03-.11-.06-.17-.38-.98-1.38-1.61-2.77-1.19-2.1.63-4.1,3.64-5.25,5.29-2.89,4.15-4.67,9.05-8.18,12.82-3.5,3.79-8.46,6.1-13.42,7.65-1.71.53-3.44.99-5.19,1.41-.48.12-.95.24-1.41.35-.15-.12-.29-.24-.42-.36-1.76-1.59-3.31-3.86-2.69-6.12.44-1.59,1.85-2.75,3.16-3.82,2.46-1.98,4.94-4.01,7.21-6.24.06.02.14,0,.2,0,.03,0,.05,0,.08-.01,0-.09.02-.17,0-.24.14-.12.26-.24.38-.36,2.45-2.45,6.57-7.23,8.52-10.01.32-.47.65-.92.99-1.37.59-.24,1.11-.53,1.61-.86-.02-.33-.21-.56-.54-.6,3.56-4.76,7.44-9.3,11.24-13.9,1.13-1.37,2.25-2.75,3.37-4.16,3.68-4.64,7.02-9.36,9.75-14.59,1.89-3.65,3.62-7.39,5.14-11.2.41-1.02.72-2.62,1.26-3.86,0,0,0-.02.02-.02.21-.48.47-.92.77-1.23,1.34-1.37,3.07.23,3.58,1.52h.02s.03.08.05.12c.29.84.32,1.74.3,2.62-.11,6.42-2.18,12.4-4.39,18.34Z"/>
    <path class="cls-10" d="m491.15,214.97s-.03.08-.05.11c-.05,0-.09,0-.14.02.06-.05.12-.09.18-.12Z"/>
    <path class="cls-6" d="m522.68,222.28c-2.68,2.36-4,6.24-5.03,9.44-1.26,3.88-1.91,7.91-1.94,11.96-.02.77,0,1.53,0,2.3,0,.35,0,.69-.03,1.04.02.06.02.14,0,.2-.05,1.26-.2,2.49-.62,3.68-.03.11-.06.2-.11.3-1.05,2.63-3.37,4.58-5.61,6.4-2.6,2.12-5.2,3.83-8.06,4.91.41-.69.47-1.22.23-1.61-.81-1.38-5.06-1.16-8.46-.98-3.49.18-4.24.69-7.71.81-2.57.09-5.25-.2-7.53-1.37-.59-.3-4.04-2.39-4.04-5.68,0-1.25.24-2.86,1.26-3.98.92-1.01,1.34-1.11,2.1-1.92l.03-.03c.59-.63.81-1.4.75-2.09,1.83-1.58,3.98-2.87,6.04-4.16,8.91-5.61,17.22-12.05,25.5-18.5,2.51-1.94,5-3.89,7.51-5.83,1.43-1.11,2.99-2.28,4.82-2.34,5.06-.2,3.08,5.5.87,7.45Z"/>
    <path class="cls-2" d="m501.29,262.51c-1.8,3.26-10.85,10.25-30.33,25.52-15.33,12.01-23.23,18.29-32.03,21.96-2.95,1.22-5.95,2.13-10.17,4.79-5.86,3.7-8.85,7.42-11.08,7.66,1.73-2.45,3.32-5.53,4.06-9.3.38-1.95,1.86-9.54-3.08-16.13-.41-.56-1.98-2.58-4.37-4.4h-.02c-.33-.26-.68-.5-1.04-.74,1.83-3.1,7.56-3.07,9.15-7.59.03-.09.06-.17.09-.26s.05-.17.06-.24c.45-1.73-.29-2.18.53-3.97,1.31-2.87,4.43-4.6,7.95-5.74,3.44-1.13,7-1.91,10.55-2.75.47-.11.93-.23,1.41-.35,1.74-.42,3.47-.89,5.19-1.41,4.96-1.55,9.92-3.86,13.42-7.65,3.5-3.77,5.29-8.67,8.18-12.82,1.14-1.65,3.14-4.66,5.25-5.29,1.38-.42,2.39.21,2.77,1.19.03.06.05.11.06.17v.02c.05.15.08.32.09.48.06.69-.17,1.46-.75,2.09l-.03.03c-.77.81-1.19.92-2.1,1.92-1.02,1.13-1.26,2.74-1.26,3.98,0,3.29,3.46,5.38,4.04,5.68,2.28,1.17,4.96,1.46,7.53,1.37,3.47-.12,4.22-.63,7.71-.81,3.4-.18,7.65-.41,8.46.98.24.39.18.92-.23,1.61Z"/>
    <path class="cls-6" d="m96.13,186.29c-.57-.71-1.1-1.43-1.56-2.18.41.27.78.56,1.16.89.12.44.26.87.41,1.29Z"/>
    <path class="cls-6" d="m186.6,173.01s-.01.03-.03.05-.03.05-.03.06c0-.05.02-.09.02-.15.02.01.03.03.05.05Z"/>
    <path class="cls-6" d="m256.67,184.79c-.51,1.83-1.65,3.49-2.15,5.32-.12.44-.2.92-.48,1.28-.17.2-.38.36-.63.45.92-2.19,1.91-4.36,2.96-6.48.08-.17.15-.32.24-.47.02-.02.02-.05.03-.08h.02s0-.03.02-.03Z"/>
    <path class="cls-3" d="m273.83,161.41v.02c-.06.06-.12.12-.17.18-2.09,2.18-4.16,4.36-6.27,6.55l-.02.02s-.01.03-.03.05c-.42-.53-.98-1.34-1.19-2.39-.12-.56-.06-.71-.08-1.64-.06-2.03-.5-4.61-.69-5.59-.03-.12-.11-.44-.08-.84.02-.17.05-.71.35-1.26.02-.03.05-.08.08-.11.08-.12.17-.24.26-.35.11-.12.21-.23.33-.32.2-.17.41-.3.6-.39.23-.11.47-.21.72-.3.57-.2,1.11-.29,1.62-.23.29.03.56.11.81.24.18.09.35.21.51.35.08.06.15.14.24.23s.18.18.24.29c.09.09.15.18.21.27,1.28,1.82,2.12,3.98,2.54,5.23Z"/>
    <path class="cls-6" d="m338.85,168.62s-.03-.05-.06-.08c-.02-.02-.03-.03-.03-.05t.03.02s.06.08.06.11Z"/>
    <path class="cls-6" d="m347.11,179.83c-.57-.51-.93-1.25-.95-2,.33.65.66,1.31.95,2Z"/>
    <path class="cls-6" d="m274.54,300.97s.02.03,0,.05c-.03,0-.05-.01-.08-.01-.09-.02-.18-.05-.27-.06.11,0,.23.02.35.03Z"/>
    <path class="cls-6" d="m245.67,278.3c-.08-.03-.14-.06-.21-.09l.05-.05c.06.05.12.09.17.14Z"/>
    <path class="cls-6" d="m285.48,261.64c-.08-.05-.14-.11-.21-.15-.02-.02,0-.03,0-.05.08.05.14.12.21.2Z"/>
    <path class="cls-6" d="m397.08,225.48c-.17,1.02-.36,2.04-.59,3.07-1.62,7.44-4.63,14.71-7.03,21.91-.51,1.52-1.34,3.31-3.01,3.49-1.7.2-2.93-1.47-4.52-2.1-2.72-1.08-5.58,1.05-8.43,1.76-6.25,1.53-12.71-3.97-18.92-2.27-3.65.99-6.07,4.18-8.57,6.91-2.49,2.74-5.97,5.4-9.68,4.7-3.08-.57-5.18-3.2-7.38-5.34-3.05-2.96-6.67-3.68-10.75-2.37-2.78.89-5.18,2.6-7.35,4.51-9.75,8.57-14.98,21.72-13.26,34.31.36,2.54.96,5.08.65,7.6-.45,3.58-3.94,7.63-7.95,5.5-1.58-.84-2.84-2.21-4.46-2.98-4.04-1.86-6.49-2.01-11.3-3.17.02-.01.02-.03,0-.05-.12-.02-.24-.03-.35-.03-.89-.24-1.76-.69-10.9-4.91-3.37-1.55-10.64-4.9-16.34-9.47-1.05-.84-2.65-2.27-2.9-4.33-.18-1.43.51-2.86,1.4-4.01.08.03.14.06.21.09,1.1.42,1.76.65,1.76.65,2.78.95,5.74,1.77,8.82,4.33,1.98,1.65,1.31,1.77,3.17,3.28,3.37,2.69,5.76,2.49,11.29,5.82.86.53.63.42,2.03,1.31,6.75,4.25,12.11,7.62,14.32,6.16,1.07-.69,1.04-2.33.99-4.39-.11-5.61-2.49-6.64-3.68-11.8-.92-4.01-.29-8.85,3.23-11.18.57-.36.87-.48,1.14-.74,0,0,.14-.18.27-.36.5-.71.57-5.7-3.53-9.74.15.12.32.23.47.35,1.23.9,2.39,1.95,3.68,2.77.75.48,1.67.93,2.55.57,1.29-.5,1.68-2.01,1.16-3.16-.33-.72-.89-1.31-1.41-1.91-1.17-1.35-2.16-2.87-2.77-4.54-.09-.26-.17-.51-.24-.77-.66-2.34-.5-4.85.08-7.23.45-1.83,1.14-3.62,1.88-5.38.68-1.59,1.16-3.26,1.8-4.9,1.35-3.38,2.83-6.7,4.45-9.98,1.61-3.23,3.11-6.51,4.78-9.72.84-1.64,1.79-3.23,2.58-4.88.32-.65.44-1.35.74-2.03.38-.86.72-1.7,1.08-2.57.41-1.04.81-2.19.35-3.2-.51-1.04-1.73-1.53-2.89-1.74-3.23-.62-6.64-.02-9.8.66-2.48.51-4.91,1.17-7.32,1.91-1.47.44-2.95.87-4.34,1.47-1.35.57-2.77.86-3.95,1.79-1.19.9-1.98,2.39-1.64,3.79.3,1.17,1.31,2.01,2.16,2.89,1.43,1.41,2.63,3.07,3.32,4.91,1.37,3.64.08,7.24-1.85,10.46-2.31,3.89-5.38,7.35-9.02,10.17-2.43,1.89-5.11,3.52-7.97,4.78-3.01,1.35-6.07,2.37-9.44,1.74-.72-.14-1.53-.32-2.15.06-.62.39-.78,1.22-.56,1.89.21.66.72,1.2,1.34,1.59-.02,0-.03.02-.05.03-1.05-.81-2.37-1.31-3.68-1.59-.87-.2-1.73-.38-2.6-.54-5.94-1.19-11.96-1.94-17.99-2.62-1.65-.18-3.31-.35-4.96-.53-.8-.08-1.68-.06-2.48-.24-.42-.11-.95-.33-1.41-.27-.15.01-.32.08-.45.2-.05.05-.09.09-.12.14-.57-.48-1.16-.99-1.73-1.53-.54-.5-1.05-1.01-1.58-1.5h0c.24-1.58-.27-3.28-1.29-4.51-.86-1.02-1.98-1.83-3.01-2.74-1.02-.9-1.97-1.94-2.34-3.22-.59-2.04.44-4.19.48-6.3.05-2.54-1.38-5.03-3.55-6.51-1.73-1.2-3.89-1.77-6.01-1.76-2.06.03-4.18.18-5.98-1.01-1.73-1.14-2.46-3.2-3.53-4.94-1.44-2.34-3.65-4.3-4.66-6.85-.6-1.5-.72-3.14-1.1-4.7-.38-1.56-1.04-3.17-2.37-4.13-1.94-1.38-4.97-.53-5.86,1.62-.5,1.22-.26,2.6.06,3.86.51,1.98,1.2,3.92,1.56,5.94.35,1.92.98,6.39-1.95,6.76-1.02.12-2-.57-2.49-1.41-.5-.86-.63-1.85-.75-2.83-.05-.29-.09-.57-.12-.86-.35-2.4-.86-4.72-2.01-6.94-1.31-2.49-2.83-4.9-4.1-7.41-1.43-2.81-2.63-5.77-3.28-8.85-.36-1.67-.56-3.44-1.59-4.84-1.32-1.74-3.74-2.49-5.98-2.42-3.68.14-7.06,2.16-9.48,4.81-1.67,1.83-2.95,3.94-4.07,6.12-.48.95-.84,2.15-1.56,2.95-.81.89-1.52,1.86-2.21,2.84-1.65,2.42-2.45,5.06-2.66,7.94-.08,1.23-.02,2.52.44,3.68.02.06.03.14.06.2.08.17.15.32.24.45-6.27-2.48-12.13-6.31-18.35-9.06-5.4-2.37-11.2-4-16.07-7.23-2.3-1.52-4.22-3.31-5.83-5.32-.15-.42-.29-.86-.41-1.29-.38-.33-.75-.62-1.16-.89-1.76-2.71-3.02-5.7-3.88-8.9-.96-3.5-3.07-7.06-4.61-10.39-1.71-3.67-3.49-7.3-5.35-10.91-3.76-7.29-7.21-14.53-8.6-22.66-.14-.86-.15-1.91.29-2.6.17-.27.42-.48.77-.6,1.04-.36,2.07.5,2.81,1.29,1.05,1.17,2.27,2.34,3.22,3.58,2.12,2.71,3.02,6.52,4.36,9.6,1.23,2.83,2.54,5.62,3.92,8.37.27.56.56,1.1.84,1.65,3.53,6.85,7.45,13.56,12.05,19.81,1.14,1.53,2.48,3.16,4.4,3.52,2.74.51,5.11-1.68,7.29-3.35,2.65-2.03,5.89-3.5,9.29-3.55,3.4-.02,6.91,1.59,8.48,4.48.69,1.26.98,2.69,1.44,4.04.45,1.35,1.16,2.71,2.39,3.5,1.1.71,2.22.66,3.23.21.86-.38,1.59-1.05,2.15-1.83,2.06-2.95,2.37-7.02,3.23-10.42.93-3.76,1.29-7.8.93-11.65-.59-6.21-3.64-12.53-9.23-15.75-2.81-1.59-6.43-2.69-7.56-5.62-1.07-2.8.77-5.85,2.95-7.97,2.87-2.75,6.63-4.85,10.7-5.02,6.07-.21,9.62,7.71,12.59,13.86,6.1,12.55,10.37,31.97,13.72,38.59.3.59,1.68,3.22,4.58,5.03,1.13.71,2.06,1.28,3.16,1.08,1.68-.27,2.06-2.09,4.78-5.8,1.92-2.63,2.92-3.95,4.21-4.06,1.2-.11,2.45.33,3.44,1.29,0,.06-.02.11-.02.15-.09.75-.15,1.47-.18,2.12-.23,5.11,1.34,8.93,4.46,16.31,1.88,4.42,3.71,8.03,5.2,10.67,1.68,3.04,3.38,5.52,6.72,10.84,2.78,4.43,5.56,8.88,8.34,13.32.39.65.83,1.32,1.5,1.7,1.25.71,2.87.21,4.06-.59,1.17-.81,2.15-1.89,3.44-2.51,3.1-1.46,6.79.21,9.5,2.24,2.74,2.03,5.35,4.55,8.76,5,3.95.54,8.06-2.37,8.67-6.15.51-3.14-.93-6.96,1.47-9.17,1.13-1.04,2.77-1.32,4.18-1.97,2.31-1.08,3.97-3.16,4.93-5.43.96-2.28,1.31-4.73,1.53-7.18.29-2.89.27-4.46-.54-6.15-.29-.57-.92-1.68-5.2-4.28,0-.02.02-.03.02-.05.26-.09.47-.26.63-.45.29-.36.36-.84.48-1.28.5-1.83,1.64-3.49,2.15-5.32,0-.02.01-.03.01-.05v-.02h0v-.03c.05-.09.09-.15.14-.24.08-.15.17-.32.26-.48,2.84-5.58,6.21-10.9,10.28-15.77.02-.02.03-.03.03-.05l.02-.02c2.1-2.19,4.18-4.37,6.27-6.55.05-.06.11-.12.17-.18v-.02c.71-.69,1.41-1.37,2.16-2.03,1.44-1.28,5.4-5.55,7.86-6.37l-1.35,1.17c-1.68,1.47-3.43,2.95-4.73,4.73-.18.24-.33.5-.47.75-1.04,2.04-1.02,4.72-1.2,9.36-.24,5.88.5,8.25,1.7,10.17.11.18.42.66.89,1.25.51.63,2.48,2.93,8.9,5.67.89.39,1.53.63,2.62,1.02,5.77,2.24,11.83,4.42,18.05,4.04,6.96-.42,13.2-4,19.64-6.57,2.16-.86,4.43-1.64,6.24-3.08,1.85-1.46,3.07-3.47,3.98-5.56.78-1.77,2.07-3.56,1.53-5.56-.18-.65-.39-1.16-.8-1.79.62.6,1.22,1.28,1.79,1.97,4.48,5.43,6.48,11.33,7.38,16.2-.17.42-.36.93-.57,1.52-.11.29-.21.6-.32.93-.87,1.73-2.42,3.29-4.84,4.52-3.38,1.74-7.26,2.34-10.93,3.44-11.03,3.28-20.27,11.36-24.77,21.54-.98,2.18-1.62,5,.09,6.73,1.53,1.55,4.18,1.37,6.24.6,2.07-.77,4-2,6.21-2.22,8.69-.93,13.17,11.77,22.59,6.69,3.07-1.65,4.93-4.73,7.03-7.44,2.1-2.69,5.02-5.31,8.55-5.26,4.37.06,7.32,3.79,10.66,5.95,4.54,2.93,7.41,1.89,11.69-.98,2.71-1.82,7.63-3.01,8.63,1.35,1.26-1.43,2.63-2.93,4.49-3.47,2.1-.63,3.34.03,3.95,1.22.48.98.56,2.3.36,3.56Z"/>
    <path class="cls-5" d="m289.01,271.37c-.14.18-.27.36-.27.36-.27.26-.57.38-1.14.74-3.52,2.33-4.15,7.17-3.23,11.18,1.19,5.15,3.58,6.19,3.68,11.8.05,2.06.08,3.7-.99,4.39-2.21,1.46-7.57-1.91-14.32-6.16-1.4-.89-1.17-.78-2.03-1.31-5.53-3.32-7.92-3.13-11.29-5.82-1.86-1.5-1.19-1.62-3.17-3.28-3.08-2.55-6.04-3.38-8.82-4.33,0,0-.66-.23-1.76-.65-.05-.05-.11-.09-.17-.14l-.05.05c-3.91-1.53-12.68-5.44-17.01-11.03-.09-.12-.26-.33-.39-.56,1.82,1.43,3.88,2.54,6.19,3.25.68.21,1.38.38,2.1.51,2.15.39,4.33.45,6.46.83s4.3,1.1,5.83,2.55c.71.68,1.25,1.49,1.77,2.33,1.05,1.71,2.01,3.52,4.09,4.27.72.27,1.58.33,2.27.03.14-.06.26-.12.38-.21.87-.62,1.07-1.79,1.05-2.84,0-2.55-.8-5.06-1.34-7.59-.39-1.77-.83-3.61-.65-5.43.15-1.64.59-3.4-.12-4.96-.29-.62-.71-1.14-1.02-1.74-.29-.53-.48-1.11-.57-1.7-.03-.21-.05-.44-.06-.65-.02-.38-.03-.77-.09-1.14-.11-.72-.47-1.25-.93-1.8-.27-.32-.57-.62-.9-.87.02-.02.03-.03.05-.03.2.12.41.23.62.32,1.08.47,2.34.6,3.5.74,2.87.3,5.73.66,8.57,1.17.69.12,1.38.24,2.07.39,1.35.33,2.69.65,4.04.98.27.06.53.14.78.2.05,0,.08.02.12.03,1.65.48,3.29,1.05,4.88,1.7,2.92,1.19,5.59,2.71,8.12,4.54.08.05.14.11.21.15,4.1,4.04,4.03,9.03,3.53,9.74Z"/>
    <path class="cls-5" d="m245.67,278.3c-.08-.03-.14-.06-.21-.09l.05-.05c.06.05.12.09.17.14Z"/>
    <path class="cls-5" d="m267.32,254.05c-.69-.15-1.38-.27-2.07-.39.06-.02.12-.03.18-.08.63.15,1.26.32,1.89.47Z"/>
    <path class="cls-5" d="m285.48,261.64c-.08-.05-.14-.11-.21-.15-2.52-1.83-5.2-3.35-8.12-4.54-1.59-.65-3.23-1.22-4.88-1.7,4.4,1.1,6.81,2.07,9.92,3.94,1.7,1.01,2.48,1.71,2.81,1.98.09.09.18.17.27.27.08.05.14.12.21.2Z"/>
    <path class="cls-6" d="m392.3,206.92c-.21-.53-.45-1.05-.71-1.55-.27-.53-.56-1.08-.78-1.64.54.81.99,1.68,1.32,2.6.06.2.12.39.17.59Z"/>
    <path class="cls-6" d="m417.66,188.58c-.06.6-.15,1.31-.27,2.13-.03.21-.06.42-.09.65-.32,2.18-.71,3.82-.87,4.46-1.01,4.19-1.52,6.3-2.18,8.49-1.07,3.49-1.7,5.34-2.84,7.86-1.01,2.19-1.8,4.58-4.06,5.89-.03.02-.08.05-.11.06-2.37,1.32-5.34.86-8.03.36-.59-.11-1.2-.24-1.79-.41-.99-.29-1.92-.71-2.59-1.46-1.13-1.29-1.14-3.11-1.31-4.79-.18-1.64-.59-3.26-1.19-4.79-.02-.05-.02-.08-.05-.12-.05-.2-.11-.39-.17-.59-.33-.92-.78-1.79-1.32-2.6-.18-.41-.32-.83-.41-1.23-.12-.65-.06-1.29.26-1.88.75-1.29,2.49-1.59,4.01-1.8,1.52-.2,3.26-.6,3.89-1.94.44-.95.14-2.04-.08-3.08-.2-1.02-.23-2.24.59-2.93.83-.69,2.16-.51,3.07.09.89.59,1.52,1.5,2.22,2.3.71.81,1.62,1.56,2.74,1.64,1.08.08,2.1-.54,2.77-1.37,1.2-1.47,1.56-2.24,2.55-3.71,1.38-2.04,3.77-4.09,4.78-3.77v.02s.06.02.09.03c.47.24.51,1.05.36,2.49Z"/>
    <path class="cls-2" d="m166.73,229.43c-.21-.23-.41-.47-.59-.71.23.18.44.42.59.71Z"/>
    <path class="cls-2" d="m168.39,231.31c-.33.03-.66-.02-.98-.12-.12-.05-.24-.09-.36-.17.05-.42.01-.81-.12-1.2-.03-.08-.06-.15-.11-.21-.02-.06-.03-.11-.08-.15.06.08.14.15.2.23h.02c.45.56.93,1.1,1.43,1.62Z"/>
    <path class="cls-2" d="m215.52,242.95h0c-.12.81-.44,1.56-.96,2.21-.71.87-1.62,1.52-2.55,2.15-1.01.71-2.03,1.43-3.04,2.13-1.14.8-2.15,1.59-3.4,2.04-.08.03-.17.06-.24.08-.11.03-.23.08-.35.11-.05.02-.08.02-.12.03-2.13.66-3.82,1.22-4.07,1.29-.78.26-4.07,1.35-6.16,3.43-2.98,2.93-3.04,7.3-3.01,8.87.03,1.7.2,3.41.23,5.11l-.57,5.06v.02c-.11.3-.26.57-.5.78-.57.54-1.46.6-2.25.59-5.71-.09-11.35-2.1-15.72-5.61-3.82-3.05-6.73-7.21-11.18-9.35-2.55-1.23-5.4-1.67-8.13-2.33-2.55-.63-4.93-1.55-7.23-2.8-4.64-2.54-8.73-5.95-13.57-8.21-1.1-.51-2.24-.96-3.13-1.74-.9-.78-1.52-1.98-1.19-3.1.39-1.34,1.98-2.06,3.43-2.07,1.46,0,2.84.51,4.25.84,1.58.36,3.22.5,4.85.57,3.55,1.88,7.03,3.88,10.64,5.65.18.09.36.18.54.26,5.03,2.43,10.42,4.4,16.04,4.79.75.05,1.7-.05,1.98-.72.17-.44-.02-.9-.2-1.32-.93-2.03-2.1-3.95-3.5-5.71-.95-1.17-2.03-2.39-2.24-3.85-.15-1.08.18-2.16.51-3.2.66-2.13,1.32-4.27,1.98-6.39.17-.5.32-1.04.38-1.55.12.08.24.12.36.17.32.11.65.15.98.12,6.03,6.52,13.8,12.11,18.52,19.39.74,1.14,1.4,2.31,2.43,3.2,1.43,1.23,2.78,1.14,4.49.72,2.21-.54,4.39-1.11,6.58-1.68.15-.05.3-.09.44-.15.51-.23.93-.57,1.22-.98.18-.23.3-.48.36-.74.27-.84-.06-1.73-1.29-2.18-1.01-.38-2.15-.2-3.22-.06s-2.24.2-3.14-.36c-1.5-.9-1.59-2.9-2.16-4.51-.71-1.92-2.57-3.2-3.82-4.84-1.29-1.71-2.37-3.56-3.38-5.44-1.56-2.87-2.96-5.86-4.72-8.63-.56-.87-1.16-1.73-1.8-2.54-3.11-4.03-7.45-7.32-9.41-11.96-.44-1.05-.75-2.18-1.4-3.14-1.88-2.84-5.88-2.04-7.44.65-.93,1.61-1.05,3.55-.95,5.38.36,6.06,2.92,10.93,6.43,15.27-.5-.45-1.1-.75-1.61-1.05-1.88-1.05-3.4-2.65-5.17-3.88-5.2-3.61-8.04-7.63-12.52-9.71-.26-.12-.57-.26-.92-.36h-.02c-.59-.2-1.23-.29-1.79-.08h-.02c-1.37-.9-2.72-1.83-4.06-2.78-1.35-.99-2.84-1.5-3.67-2.95-.09-.14-.17-.29-.24-.45-.03-.06-.05-.14-.06-.2-.45-1.16-.51-2.45-.44-3.68.21-2.87,1.01-5.52,2.66-7.94.69-.98,1.4-1.95,2.21-2.84.72-.8,1.08-2,1.56-2.95,1.13-2.18,2.4-4.28,4.07-6.12,2.42-2.65,5.8-4.67,9.48-4.81,2.24-.08,4.66.68,5.98,2.42,1.04,1.4,1.23,3.17,1.59,4.84.65,3.08,1.85,6.04,3.28,8.85,1.28,2.51,2.8,4.91,4.1,7.41,1.16,2.22,1.67,4.54,2.01,6.94.03.29.08.57.12.86.12.98.26,1.97.75,2.83.5.84,1.47,1.53,2.49,1.41,2.93-.38,2.3-4.84,1.95-6.76-.36-2.01-1.05-3.95-1.56-5.94-.32-1.26-.56-2.65-.06-3.86.89-2.15,3.92-3.01,5.86-1.62,1.34.96,2,2.57,2.37,4.13.38,1.56.5,3.2,1.1,4.7,1.01,2.55,3.22,4.51,4.66,6.85,1.07,1.74,1.8,3.8,3.53,4.94,1.8,1.19,3.92,1.04,5.98,1.01,2.12-.02,4.28.56,6.01,1.76,2.16,1.47,3.59,3.97,3.55,6.51-.05,2.1-1.07,4.25-.48,6.3.38,1.28,1.32,2.31,2.34,3.22,1.02.9,2.15,1.71,3.01,2.74,1.02,1.23,1.53,2.93,1.29,4.49Z"/>
    <path class="cls-4" d="m258.2,277.34c.02,1.05-.18,2.22-1.05,2.84-.12.09-.24.15-.38.21-.69.3-1.55.24-2.27-.03-2.07-.75-3.04-2.55-4.09-4.27-.53-.84-1.07-1.65-1.77-2.33-1.53-1.46-3.7-2.18-5.83-2.55s-4.31-.44-6.46-.83c-.72-.14-1.43-.3-2.1-.51-2.31-.71-4.37-1.82-6.19-3.25v-.02c-1.19-.92-2.25-1.98-3.22-3.14-.57-.66-1.1-1.37-1.56-2.1-.5-.72-.95-1.47-1.37-2.25-1.95-3.64-3.01-7.66-3.32-11.74-.03-.42-.06-.99.24-1.37.03-.05.08-.09.12-.14.14-.12.3-.18.45-.2.47-.06.99.17,1.41.27.8.18,1.68.17,2.48.24,1.65.18,3.31.35,4.96.53,6.03.68,12.05,1.43,17.99,2.62.87.17,1.73.35,2.6.54,1.31.29,2.63.78,3.68,1.59.33.26.63.56.9.87.47.56.83,1.08.93,1.8.06.38.08.77.09,1.14.02.21.03.44.06.65.09.59.29,1.17.57,1.7.32.6.74,1.13,1.02,1.74.71,1.56.27,3.32.12,4.96-.18,1.82.26,3.65.65,5.43.54,2.52,1.34,5.03,1.34,7.59Z"/>
    <path class="cls-6" d="m166.73,229.43c-.21-.23-.41-.47-.59-.71.23.18.44.42.59.71Z"/>
    <path class="cls-9" d="m202.43,251.07l-.36.74c-.29.41-.71.75-1.22.98-.14.06-.29.11-.44.15-2.19.57-4.37,1.14-6.58,1.68-1.71.42-3.07.51-4.49-.72-1.04-.89-1.7-2.06-2.43-3.2-4.72-7.27-12.49-12.86-18.52-19.39-.5-.53-.98-1.07-1.43-1.62h-.02c-.06-.08-.14-.15-.2-.23,0,0-.02-.02-.02-.03-.15-.29-.36-.53-.59-.71t-.02-.02c-3.52-4.34-6.07-9.21-6.43-15.27-.11-1.83.02-3.77.95-5.38,1.56-2.69,5.56-3.49,7.44-.65.65.96.96,2.09,1.4,3.14,1.95,4.64,6.3,7.94,9.41,11.96.65.81,1.25,1.67,1.8,2.54,1.76,2.77,3.16,5.76,4.72,8.63,1.01,1.88,2.09,3.73,3.38,5.44,1.25,1.64,3.11,2.92,3.82,4.84.57,1.61.66,3.61,2.16,4.51.9.56,2.07.5,3.14.36s2.21-.32,3.22.06c1.23.45,1.56,1.34,1.29,2.18Z"/>
    <path class="cls-9" d="m166.73,229.43c-.21-.23-.41-.47-.59-.71.23.18.44.42.59.71Z"/>
    <path class="cls-5" d="m288.18,149.07s-.05.06-.06.09v.02s-.05.02-.06.02c.05-.03.09-.08.12-.12Z"/>
    <path class="cls-5" d="m338.11,175.97c-.92,2.09-2.13,4.1-3.98,5.56-1.8,1.44-4.07,2.22-6.24,3.08-6.45,2.57-12.68,6.15-19.64,6.57-6.22.38-12.28-1.8-18.05-4.04-1.08-.39-1.73-.63-2.62-1.02-6.42-2.74-8.39-5.03-8.9-5.67-.47-.59-.78-1.07-.89-1.25-1.2-1.92-1.94-4.3-1.7-10.17.18-4.64.17-7.32,1.2-9.36.14-.26.29-.51.47-.75,1.31-1.79,3.05-3.26,4.73-4.73l1.35-1.17c1.43-1.23,2.86-2.48,4.18-3.8.01,0,.03,0,.03-.02.02,0,.03-.02.05-.02l.02-.02s.08-.05.09-.05c.72-.44,1.22-.98,2.15-2.03.83-.93,1.07-1.34,1.94-2.4.42-.51.84-1.05,1.31-1.55.41-.42.87-.8,1.14-1.32.02-.05.05-.08.05-.12t.03-.02c1.5-1.35,3.22-2.33,5.17-2.39,2.19-.06,4.3.8,6.13,1.92,1.2.74,2.31,1.61,3.41,2.49.06.05.12.09.18.14.53.41,1.05.83,1.58,1.22,5.43,4.01,7.68,3.95,13.21,8.06-.02.03-.03.06-.05.09h.02c.99.71,1.98,1.46,3.02,2.33l.02.02c.35.3.71.59,1.04.87.33.3.66.6.98.89,1.19,1.11,2.34,2.4,3.83,4.22.06.06.12.14.17.21.09.11.18.23.27.35h.02s.03.05.06.08c.68.86,1.35,1.73,2.03,2.62.96,1.25,1.91,2.49,2.86,3.73,0,.02.01.03.03.05.03.03.05.05.06.08.41.63.62,1.14.8,1.79.54,2-.75,3.79-1.53,5.56Z"/>
    <path class="cls-5" d="m328.55,156.42c-.33-.29-.69-.57-1.04-.87l-.02-.02c-1.04-.87-2.03-1.62-3.02-2.33h-.01s.03-.06.05-.09c0,0,0,.02.02.02.56.42,1.14.87,1.77,1.38.32.26.74.59,1.22.99.32.27.66.57,1.04.92Z"/>
    <path class="cls-5" d="m333.81,162.08h-.02c-.09-.12-.18-.24-.27-.35.11.11.2.23.29.35Z"/>
    <path class="cls-5" d="m338.85,168.62s-.03-.05-.06-.08c-.02-.02-.03-.03-.03-.05-.95-1.23-1.89-2.48-2.86-3.73-.68-.89-1.35-1.76-2.03-2.62,1.05,1.29,2.27,2.86,3.76,4.75.51.65.89,1.16,1.16,1.61.03.03.06.08.06.11Z"/>
    <path class="cls-3" d="m333.81,162.08h-.02c-.09-.12-.18-.24-.27-.35.11.11.2.23.29.35Z"/>
    <path class="cls-3" d="m328.55,156.42c-.33-.29-.69-.57-1.04-.87l-.02-.02c-1.04-.87-2.03-1.62-3.02-2.33h-.01s.03-.06.05-.09c0,0,0,.02.02.02.56.42,1.14.87,1.77,1.38.32.26.74.59,1.22.99.32.27.66.57,1.04.92Z"/>
    <path class="cls-3" d="m338.85,168.62s-.03-.05-.06-.08c-.02-.02-.03-.03-.03-.05-.95-1.23-1.89-2.48-2.86-3.73-.68-.89-1.35-1.76-2.03-2.62,1.05,1.29,2.27,2.86,3.76,4.75.51.65.89,1.16,1.16,1.61.03.03.06.08.06.11Z"/>
    <path class="cls-3" d="m347.11,179.83c-.57-.51-.93-1.25-.95-2,.33.65.66,1.31.95,2Z"/>
    <path class="cls-3" d="m351.86,184.96s-.03.05-.06.06c-1.35-.15-2.24-.11-2.77.21-.29.18-.59.62-.92,1.34v.03c-.03.06-.06.12-.11.2-.9-4.87-2.9-10.78-7.38-16.2-.57-.69-1.17-1.37-1.79-1.97,0-.03-.03-.08-.06-.11-.27-.45-.65-.96-1.16-1.61-1.49-1.89-2.71-3.46-3.76-4.75-.03-.03-.05-.06-.06-.08-.09-.12-.18-.24-.29-.35-.05-.08-.11-.15-.17-.21-.23-.3-.47-.6-.71-.9.38-1.97.81-3.23,1.19-4.09.15-.36.54-1.19.18-1.71-.09-.15-.27-.29-.51-.38-.75-.27-1.31.48-1.7,1.14-.59.96-.87,1.34-1.53,1.59-.3.09-.57.12-.75.12-.32-.29-.65-.59-.98-.89-.38-.35-.72-.65-1.04-.92-.48-.41-.9-.74-1.22-.99-.63-.51-1.22-.96-1.77-1.38-.02,0-.02-.02-.02-.02.51-1.1,1.5-2.68,3.35-3.82,1.68-1.04,3.46-1.34,4.67-1.55.6-.09,1.28-.2,2.19-.23,1.08-.03,1.37.11,1.97-.02.92-.17,1.52-.71,2.25-1.41,2.58-2.55,2.63-3.58,4.54-4.97.87-.65,1.71-1.05,2.39-1.38.26-.12.5-.24.72-.33.86-.41,1.61-.69,2.59-.81.54-.06,1.02-.06,1.43-.02h.02c.24,0,.44.03.62.06.05,0,.08.02.11.02.24.14.62.39.75.81.23.62-.15,1.26-.32,1.53-.03.05-.09.15-.2.33-.05.06-.11.12-.14.18-.12.17-.24.36-.39.57-1.7,2.22-3.25,4.58-4.57,7.03-2.58,4.85-4.21,10.11-4.75,15.54-.11,1.07-.17,2.21.47,3.07,1.55,2.18,4.46-.83,6.24-1.07,1.43-.2,3.11.39,3.65,1.68.45,1.07.01,2.28-.59,3.28-.8,1.28-1.88,2.33-3.14,3.16-1.05.71-2.07,1.35-2.21,2.69-.02.11-.02.23-.02.33,0,.02,0,.03.02.05.02.75.38,1.49.95,2h0c.17.17.36.3.57.42.59.32,1.28.44,1.82.8.23.15.38.29.45.45.35.6.23,1.16.26,1.58.09.9,1.1,1.58,1.65,1.88Z"/>
    <path class="cls-3" d="m352,185.03c-.06,0-.14-.02-.2-.02.03-.02.05-.03.06-.06.05.03.11.06.14.08Z"/>
    <path class="cls-3" d="m351.59,141.33c-.05.06-.09.14-.14.21v-.03c.03-.06.09-.12.14-.18Z"/>
    <path class="cls-3" d="m288.18,149.07s-.05.06-.06.09v.02s-.05.02-.06.02c.05-.03.09-.08.12-.12Z"/>
    <path class="cls-3" d="m294.83,141.63s-.02.05-.03.06c0,.05-.03.08-.05.12-.27.53-.74.9-1.14,1.32-.47.5-.89,1.04-1.31,1.55-.87,1.07-1.11,1.47-1.94,2.4-.93,1.05-1.43,1.59-2.15,2.03-.01,0-.05.03-.09.05.02-.03.03-.06.06-.09-.03.05-.08.09-.12.12,0,.02-.02.02-.03.02-.54.3-2.19,1.14-2.84.59-.36-.32-.26-.96.5-3.64.41-1.41.75-2.62,1.04-3.53,1.91-2.98,2.66-4.94,2.98-6.28.09-.45.33-1.59,1.25-2.06.69-.36,1.49-.18,1.73-.14.11.03,1.16.29,1.79,1.22.39.59.44,1.19.45,1.8.02.35.03.69.05,1.02.01.35.01.68.01,1.02,0,.81.17,1.65-.15,2.42Z"/>
    <path class="cls-3" d="m269.28,154.81c-.51-.06-1.05.03-1.62.23-.26.09-.5.2-.72.3.29-.17.56-.26.71-.32.57-.2,1.13-.29,1.64-.21Z"/>
    <path class="cls-3" d="m270.09,155.05c-.26-.14-.53-.21-.81-.24.17,0,.32.03.47.08.12.05.24.09.35.17Z"/>
    <path class="cls-4" d="m417.9,131.81c-.14,1.34-.15,2.71-.53,4-.39,1.44-.74,2.9-1.01,4.37-.2,1.17-.39,2.34-.81,3.46-1.71,4.45-6.64,5.98-10.45,8.39-2.99,1.89-5.49,4.54-7.03,7.63-.65,1.34-1.16,2.75-2,3.95-.89,1.28-2.13,2.25-3.32,3.26-1.2,1.01-2.15,2.24-3.35,3.25-5.83,4.84-16.43,1.64-18.47-5.37-.06-.23-.12-.45-.17-.68.02-.02.02-.05.03-.08v-.02c.05-.14.06-.36-.02-.84,0-.03,0-.06-.02-.09.03-.11.06-.23.11-.33.18-.45.53-.83.86-1.19,3.74-3.92,7.39-7.71,10.26-12.28.63-1.01,1.26-2.09,2.25-2.78.69-.45,1.47-.72,2.15-1.14.11-.06.2-.12.29-.18l.36-.27v.05c.14-.14.3-.3.47-.5.41-.42.86-.93,1.23-1.5,0-.02.02-.05.03-.06.14-.17.27-.33.41-.48,1.14-1.26,2.65-2.18,3.83-3.4,1.22-1.26,2.06-2.81,3.16-4.16,2.83-3.47,7.29-5.7,9.23-9.69.96-1.97,1.26-4.28,2.74-5.95,1.29-1.47,3.46-2.19,5.43-1.82,2.87.54,4.22,2.74,4.49,5.32.33,3.04.15,6.09-.15,9.12Z"/>
    <path class="cls-4" d="m370.8,163.99v.02s-.02.06-.03.08v-.05c-.05-.3-.06-.6-.02-.89,0-.03.02-.06.02-.09.01.03.01.06.01.09.08.48.06.71.02.84Z"/>
    <path class="cls-4" d="m387.51,144.44c-.17.2-.33.36-.47.5v-.05c.17-.14.32-.3.47-.45Z"/>
    <path class="cls-4" d="m388.74,142.94c-.38.57-.83,1.08-1.23,1.5.44-.47.81-.99,1.23-1.5Z"/>
    <path class="cls-5" d="m186.6,173.01s-.01.03-.03.05-.03.05-.03.06c0-.05.02-.09.02-.15.02.01.03.03.05.05Z"/>
    <path class="cls-4" d="m232.08,188.36c-1.89.92-3.22,2.87-3.32,4.9-.17,2.81,2.22,6.46-.14,8.88-.96.99-2.59,1.26-3.91.81-1.2-.42-2.15-1.34-2.92-2.3-1.31-1.65-2.25-3.52-3.38-5.28-1.17-1.79-2.57-3.13-4.21-4.51-3.85-3.28-8.31-5.76-12.35-8.78-4.76-3.55-8.9-7.92-11.77-13-.12-.17-.21-.33-.3-.5-.38-.69-.72-1.59-.33-2.22h.02c.05-.08.09-.15.17-.21.47-.45,1.22-.44,1.88-.35,3.04.39,5.95,1.38,8.82,2.42.74.27,1.47.54,2.21.83,2.06.75,4.09,1.55,6.12,2.36,1.4.56,2.81,1.13,4.21,1.71v.02c.59.62,1.43.93,2.24,1.23.3.11.59.23.89.33.06-.06.11-.14.15-.21,4.94,2.09,9.84,4.24,14.77,6.34.72.32,1.77.69,2.75,1.19h.02c.66.35,1.29.75,1.76,1.23h.02c.12.14.24.27.35.42,1.88,2.69-1.94,3.79-3.73,4.67Z"/>
    <path class="cls-4" d="m216.15,174.5c-.05.08-.09.15-.15.21-.3-.11-.59-.23-.89-.33-.81-.3-1.65-.62-2.22-1.23,1.1.44,2.16.89,3.26,1.35Z"/>
    <path class="cls-2" d="m231.88,179.23c-.39-.02-.74-.24-1.07-.44-2.58-1.68-5.29-3.22-8.09-4.57-.86-.42-1.77-.86-2.43-1.5-.18-.18-.35-.38-.48-.6-.77-1.2-.56-2.74-.32-4.13.38-2.15.72-4.28,1.08-6.43.11-.68.24-1.49.8-1.73.56-.24,1.28.23,1.86.68,2.16,1.68,3.38,3.97,3.79,4.6,1.52,2.4,2.83,4.96,3.91,7.57.33.8,3.04,6.6.95,6.55Z"/>
    <path class="cls-4" d="m391.85,212.55c-1.1,2.1-1.61,4.61-2.27,6.9-.09.33-.21.71-.51.93-.38.29-.95.23-1.35,0-.42-.23-.74-.6-1.04-.96-1.28-1.46-2.37-2.68-3.94-3.52-.29-.14-.62-.32-1.92-.75-4.42-1.5-5.28-1.28-6.73-1.98-3.25-1.59-4.3-5.41-4.34-5.59-.63-2.58-.14-5.2-1.02-7.75-.23-.63-.54-1.29-1.16-1.55-.74-.32-1.61.06-2.18.6-.57.53-.96,1.23-1.52,1.77-1.28,1.26-3.23,1.61-5.05,1.79s-3.74.29-5.28,1.25c-2.04,1.29-3.61,3.5-6.31,1.94-1.85-1.07-2.52-2.96-2.74-3.64-.65-2.03-.23-3.7,1.1-7.98.6-1.91,1.1-3.49,1.53-4.76.11-.33.21-.65.32-.93.21-.59.41-1.1.57-1.52.05-.08.08-.14.11-.2v-.03c.33-.72.63-1.16.92-1.34.53-.32,1.41-.36,2.77-.21.06,0,.14.02.2.02.08.03.14.06.17.08h.02c.23.11.5.12.78.08h.02c1.82.29,4.27.84,7.47,1.55,5.35,1.2,7.42,1.83,8.54,2.19,2.01.66,4.15,1.34,6.66,2.52,1.31.6,6.75,3.28,12.19,8.72,1.1,1.1,2.15,2.27,2.99,3.56.23.56.51,1.11.78,1.64.26.5.5,1.02.71,1.55.03.05.03.08.05.12.47,1.83.38,3.82-.5,5.52Z"/>
    <path class="cls-4" d="m392.3,206.92c-.21-.53-.45-1.05-.71-1.55-.27-.53-.56-1.08-.78-1.64.54.81.99,1.68,1.32,2.6.06.2.12.39.17.59Z"/>
    <path class="cls-2" d="m306.31,208.25c-.36.87-.71,1.71-1.08,2.57-.3.68-.42,1.38-.74,2.03-.8,1.65-1.74,3.25-2.58,4.88-1.67,3.22-3.17,6.49-4.78,9.72-1.62,3.28-3.1,6.6-4.45,9.98-.65,1.64-1.13,3.31-1.8,4.9-.74,1.76-1.43,3.55-1.88,5.38-.57,2.37-.74,4.88-.08,7.23.08.26.15.51.24.77.6,1.67,1.59,3.19,2.77,4.54.53.6,1.08,1.19,1.41,1.91.53,1.14.14,2.66-1.16,3.16-.89.36-1.8-.09-2.55-.57-1.29-.81-2.45-1.86-3.68-2.77-.15-.12-.32-.23-.47-.35-.08-.08-.14-.15-.21-.2-.09-.11-.18-.18-.27-.27-.33-.27-1.11-.98-2.81-1.98-3.11-1.86-5.52-2.84-9.92-3.94-.05-.02-.08-.03-.12-.03-.11-.03-.2-.06-.3-.09-1.49-.42-3.01-.78-4.52-1.08-.63-.15-1.26-.32-1.89-.47-.06.05-.12.06-.18.08-2.84-.51-5.7-.87-8.57-1.17-1.16-.14-2.42-.27-3.5-.74-.21-.09-.42-.2-.62-.32-.62-.39-1.13-.93-1.34-1.59-.23-.68-.06-1.5.56-1.89.62-.38,1.43-.2,2.15-.06,3.37.63,6.43-.39,9.44-1.74,2.86-1.26,5.53-2.89,7.97-4.78,3.64-2.83,6.7-6.28,9.02-10.17,1.92-3.22,3.22-6.82,1.85-10.46-.69-1.85-1.89-3.5-3.32-4.91-.86-.87-1.86-1.71-2.16-2.89-.35-1.4.45-2.89,1.64-3.79,1.19-.93,2.6-1.22,3.95-1.79,1.4-.6,2.87-1.04,4.34-1.47,2.4-.74,4.84-1.4,7.32-1.91,3.16-.68,6.57-1.28,9.8-.66,1.16.21,2.37.71,2.89,1.74.47,1.01.06,2.16-.35,3.2Z"/>
    <path class="cls-2" d="m267.32,254.05c-.69-.15-1.38-.27-2.07-.39.06-.02.12-.03.18-.08.63.15,1.26.32,1.89.47Z"/>
    <path class="cls-2" d="m285.48,261.64c-.08-.05-.14-.11-.21-.15-2.52-1.83-5.2-3.35-8.12-4.54-1.59-.65-3.23-1.22-4.88-1.7,4.4,1.1,6.81,2.07,9.92,3.94,1.7,1.01,2.48,1.71,2.81,1.98.09.09.18.17.27.27.08.05.14.12.21.2Z"/>
    <path class="cls-7" d="m67.15,267.65c-.06-.03-.11-.08-.17-.11h-.02s0-.05-.02-.08c0-.05-.02-.08-.02-.12.06.08.12.15.15.23.01,0,.01.02.01.02.02.02.03.05.05.06Z"/>
    <path class="cls-7" d="m418.66,297.02c-.41-.56-1.98-2.58-4.37-4.4h-.02c-.33-.26-.68-.5-1.04-.74-2.39-1.56-5.44-2.74-8.88-2.22-3.44.51-6.91,2.99-8.45,6.15-.02.02-.03.03-.03.05-.33.69-.57,1.4-.69,2.15-.02,0-.02.01,0,.03-.06.29-.09.6-.11.9-.08,1.73.59,3.16.72,4.81.03.33.05.66.02,1.02-.02.12-.02.26-.03.38t-.02.03c-.2,2.42-.95,4.9-1.73,7.2-3.44,10.05-10.25,19.1-18,26.51-6.18,5.91-13.45,10.75-21.34,14.28-3.91,1.76-8.07,3.37-12.28,4.31-3.62.81-7.41.74-11.11,1.49-5.71,1.16-11.63,2.04-17.33.89-5.7-1.16-11.17-4.76-12.89-10.08-1.14-3.52-.57-7.41-1.85-10.9-2.01-5.49-7.17-6.94-12.49-7.92-7.23-1.32-14.4-2.6-21.73-3.43-14.32-1.59-28.74-2.07-43.13-2.71-9.51-.42-19.3-1.88-27.37-6.72-6.69-4-11.75-10.28-14.4-17.36-.02-.06-.05-.09-.06-.14-1.13-3.13-1.25-6.49-1.55-9.77-.3-3.31-.75-6.78-2.6-9.66-.26-.39-.54-.78-.86-1.14-.74-.8-1.62-1.46-2.66-1.86-2.03-.75-4.33-.33-6.34.45-.59.23-1.14.47-1.7.74-3.08,1.44-6.18,2.81-9.29,4.18-.95.41-1.88.83-2.84,1.2-.44.17-.89.39-1.35.47-8.06,1.22-16.2-8.85-19.25-12.8-5.88-7.63-10.94-15.81-15.15-24.39-2.4-4.9-8.34-9.57-14.01-5.5-2,1.46-2.55,4.39-3.25,6.54-1.59,4.82-3.7,9.41-3.32,14.62.35,4.96,3.13,10.02,7.92,11.93,1.2.48,2.48.74,3.64,1.28,1.17.53,2.27,1.4,2.6,2.58.26.84.2,1.52-.08,2.06-1.13,2.27-6.6,1.89-7.05,1.86-5.31-.42-9.3-3.7-21.93-13.99,0,0-1.73-1.28-4.87-2.89-2.6-1.32-3.67-1.55-4.61-1.58-.26-.02-3.61-.14-4.43,1.26-.18.32-.23.71-.17,1.14,0,0,.02.02.02.03.06.08.12.15.15.23.01,0,.01.02.01.02.02.02.03.05.05.06-.06-.03-.11-.08-.17-.11.75,3.05,6.64,8.24,9.38,10.61,10.63,9.24,19.52,13.83,19.52,13.83,13.6,8.42,28.33,15.19,43.7,20.05,16.83,5.34,34.34,8.42,51.17,13.83,16.98,5.46,31.74,15.07,48.29,21.48,16.89,6.57,34.63,10.84,52.36,14.67,4.3.95,8.61,1.85,12.94,2.65,11.54,2.13,35.57,5.62,62.7-4.12,21.15-7.59,32.7-19.28,46.44-33.18,1.19-1.2,2.74-2.84,4.18-4.9h.02c1.73-2.45,3.32-5.53,4.06-9.3.38-1.95,1.86-9.54-3.08-16.13Z"/>
    <path class="cls-2" d="m347.11,179.83c-.57-.51-.93-1.25-.95-2,.33.65.66,1.31.95,2Z"/>
    <path class="cls-2" d="m351.59,141.33c-.05.06-.09.14-.14.21v-.03c.03-.06.09-.12.14-.18Z"/>
    <path class="cls-2" d="m371.73,151.5c-1.62,2.75-2.8,6.01-1.8,9.02.02.05.56,1.02.81,2.36.02.06.03.12.03.18,0,.03-.02.06-.02.09-.05.29-.03.59.02.89v.05c-.23,1.01-1.14,1.62-1.34,1.77-2.74,1.98-12.17,18.56-16.46,19.33h-.02c-.29.05-.56.03-.78-.08h-.02s-.09-.05-.17-.08c-.03-.02-.09-.05-.14-.08-.56-.3-1.56-.98-1.65-1.88-.03-.42.09-.98-.26-1.58-.08-.17-.23-.3-.45-.45-.54-.36-1.23-.48-1.82-.8-.21-.12-.41-.26-.57-.41h0c-.29-.71-.62-1.37-.95-2.01-.02-.02-.02-.03-.02-.05,0-.11,0-.23.02-.33.14-1.34,1.16-1.98,2.21-2.69,1.26-.83,2.34-1.88,3.14-3.16.6-.99,1.04-2.21.59-3.28-.54-1.29-2.22-1.88-3.65-1.68-1.77.24-4.69,3.25-6.24,1.07-.63-.86-.57-2-.47-3.07.54-5.43,2.16-10.69,4.75-15.54,1.32-2.45,2.87-4.81,4.57-7.03.15-.21.27-.41.39-.57v.03c.05-.08.09-.15.14-.21.21-.24.44-.35.84-.17.48.21.9,1.14,1.13,1.56.59,1.17.86,2.49,1.01,3.77.38,2.1.41,4.28,1.1,6.22.84,1.95,2.87,3.65,5.05,3.37,1.46-.2,2.62-1.2,3.56-2.28,3.46-4.03,4.16-9.18,6.57-13.71.45-.84.96-1.7,1.79-2.22,1.86-1.28,4.1.05,4.45,2.04.69,4.07-3.43,8.33-5.35,11.59Z"/>
    <path class="cls-2" d="m370.8,163.99v.02s-.02.06-.03.08v-.05c-.05-.3-.06-.6-.02-.89,0-.03.02-.06.02-.09.01.03.01.06.01.09.08.48.06.71.02.84Z"/>
  </g>
</svg>