<?xml version="1.0" encoding="UTF-8"?>
<svg id="Layer_1" data-name="Layer 1" xmlns="http://www.w3.org/2000/svg" viewBox="0 0 1771.51 369.5">
  <defs>
    <style>
      .cls-1 {
        fill: #10163e;
      }

      .cls-2 {
        fill: #7a7e7e;
      }
    </style>
  </defs>
  <path class="cls-1" d="m445.98,204.18c-.07-13.76,2.66-27.4,8.03-40.07,5.3-12.5,12.91-23.89,22.44-33.58,9.52-9.73,20.82-17.54,33.29-23,25.86-11.09,55.13-11.09,80.98,0,12.53,5.5,23.92,13.3,33.58,23,9.68,9.64,17.44,21.04,22.86,33.58,5.45,12.65,8.24,26.29,8.17,40.07.11,13.96-2.67,27.79-8.17,40.63-10.84,25.14-30.99,45.12-56.23,55.74-12.81,5.38-26.58,8.11-40.48,8.03-27.67.25-54.29-10.57-73.93-30.05-9.6-9.51-17.23-20.82-22.44-33.29-5.44-13-8.2-26.97-8.1-41.06Zm31.03,0c-.08,10.12,1.89,20.15,5.79,29.49,3.73,8.94,9.15,17.08,15.94,23.98,6.73,6.85,14.73,12.31,23.55,16.09,9.14,3.9,18.99,5.87,28.93,5.79,9.8.07,19.5-1.9,28.5-5.79,8.74-3.79,16.65-9.26,23.28-16.09,6.71-6.92,12.02-15.06,15.66-23.98,3.8-9.36,5.72-19.39,5.64-29.49.08-10.12-1.89-20.14-5.79-29.48-3.74-8.94-9.09-17.12-15.79-24.13-6.66-6.93-14.62-12.48-23.42-16.34-18.42-7.9-39.28-7.9-57.7,0-8.78,3.9-16.73,9.44-23.42,16.34-6.78,6.97-12.11,15.22-15.67,24.26-3.69,9.34-5.55,19.3-5.5,29.34h0Z"/>
  <path class="cls-1" d="m705.84,308.58V96.96h.29l108.92,154.34-12.98-2.82,108.34-151.53h.56v211.63h-29.95v-143.62l1.99,15.51-75.59,106.95h-.57l-77.04-106.95,5.08-14.11v142.21h-29.04Z"/>
  <path class="cls-1" d="m953.3,308.58l90.01-213.03h1.69l90.01,213.03h-34.42l-65.46-165.9,21.78-14.39-73.99,180.3h-29.63Zm54.73-76.75h72.8l10.44,25.96h-92.27l9.03-25.96Z"/>
  <path class="cls-1" d="m1355.95,308.58l-157.78-156.61,8.74,2.83.86,146.72h-30.44V90.19h1.36l155.76,156.88-7.01-1.92-.56-148.41h29.95v211.84h-.89Z"/>
  <path class="cls-1" d="m1420.27,103.74h30.2v204.84h-30.2V103.74Z"/>
  <path class="cls-1" d="m1492.79,308.58l90.01-213.03h1.69l90.01,213.03h-34.42l-65.46-165.9,21.78-14.39-73.93,180.3h-29.68Zm54.73-76.75h72.8l10.44,25.96h-92.2l8.96-25.96Z"/>
  <path class="cls-2" d="m368.27,172.52c0-.13,0-.25,0-.38-1.36-21.61-20.71-37.51-42.33-36.35-53.7,2.89-94.67,15.41-125.78,32.17,7.43,1.15,14.71,3.13,21.7,5.91,38.72-10.16,87.04-12.87,146.41-1.35Z"/>
  <path class="cls-2" d="m354.74,114c-1.33-3.23-2.76-6.41-4.28-9.53-8.27-16.71-27.01-25.47-45.14-21.08-81.98,19.39-130.42,55.07-159.02,90.68,4.46-1.79,9.05-3.26,13.72-4.4,40.81-31.11,102.42-56.6,194.7-55.67Z"/>
  <path class="cls-2" d="m112.27,188.07c29.03-49.67,87.9-105.83,206.96-129.25-4.68-5.02-9.63-9.77-14.83-14.24-11.78-10-28.3-12.21-42.29-5.66-94.3,44.3-133.95,102.02-149.84,149.16Z"/>
  <path class="cls-1" d="m248.2,189.32c43.28,35.23,49.81,98.87,14.58,142.15-18.51,22.74-45.98,36.31-75.28,37.21,96.82-1.63,175.86-77.91,180.94-174.6-47.49-9.78-87.23-10.1-120.24-4.75Z"/>
  <path class="cls-1" d="m83.75,277.4c-2.16-11.55-27.42-168.93,176.52-260.99C167.52-25.52,58.33,15.68,16.41,108.44c-41.93,92.76-.72,201.94,92.03,243.87,22.6,10.21,47.02,15.76,71.82,16.32v-.11c-50.41-2.02-91.6-40.91-96.51-91.11Z"/>
</svg>