<svg id="Lager_1" data-name="Lager 1" xmlns="http://www.w3.org/2000/svg" xmlns:xlink="http://www.w3.org/1999/xlink" viewBox="0 0 498.38 250.21"><defs><style>.cls-1{fill:url(#Namnlös_övertoning_320);}.cls-2{fill:url(#Namnlös_övertoning_40);}.cls-3{fill:url(#Namnlös_övertoning_310);}.cls-4{fill:url(#Namnlös_övertoning_341);}.cls-5{fill:url(#Namnlös_övertoning_341-2);}.cls-6{fill:url(#Namnlös_övertoning_341-3);}.cls-7{fill:url(#Namnlös_övertoning_341-4);}.cls-8{fill:url(#Namnlös_övertoning_341-5);}.cls-9{fill:url(#Namnlös_övertoning_341-6);}.cls-10{fill:url(#Namnlös_övertoning_341-7);}.cls-11{fill:url(#Namnlös_övertoning_341-8);}.cls-12{fill:url(#Namnlös_övertoning_341-9);}.cls-13{fill:url(#Namnlös_övertoning_341-10);}.cls-14{fill:url(#Namnlös_övertoning_341-11);}.cls-15{fill:url(#Namnlös_övertoning_341-12);}.cls-16{fill:url(#Namnlös_övertoning_341-13);}.cls-17{fill:url(#Namnlös_övertoning_341-14);}.cls-18{fill:url(#Namnlös_övertoning_341-15);}.cls-19{fill:url(#Namnlös_övertoning_341-16);}.cls-20{fill:url(#Namnlös_övertoning_341-17);}.cls-21{fill:url(#Namnlös_övertoning_341-18);}.cls-22{fill:url(#Namnlös_övertoning_341-19);}.cls-23{fill:url(#Namnlös_övertoning_341-20);}.cls-24{fill:url(#Namnlös_övertoning_341-21);}.cls-25{fill:url(#Namnlös_övertoning_341-22);}.cls-26{fill:url(#Namnlös_övertoning_341-23);}.cls-27{fill:url(#Namnlös_övertoning_341-24);}.cls-28{fill:url(#Namnlös_övertoning_341-25);}.cls-29{fill:url(#Namnlös_övertoning_341-26);}.cls-30{fill:url(#Namnlös_övertoning_341-27);}.cls-31{fill:url(#Namnlös_övertoning_217);}.cls-32{fill:url(#Namnlös_övertoning_217-2);}</style><radialGradient id="Namnlös_övertoning_320" cx="410.29" cy="125.1" fx="264.17925432621905" fy="155.71556865201597" r="168.26" gradientTransform="translate(0 -112.26) scale(1 1.9)" gradientUnits="userSpaceOnUse"><stop offset="0.25" stop-color="#efd8a4"/><stop offset="0.38" stop-color="#eacb60"/><stop offset="0.46" stop-color="#e0bc51"/><stop offset="0.83" stop-color="#b8821b"/></radialGradient><linearGradient id="Namnlös_övertoning_40" x1="161.1" y1="-69.45" x2="161.1" y2="264.85" gradientUnits="userSpaceOnUse"><stop offset="0.26" stop-color="#322413"/><stop offset="0.39" stop-color="#352615"/><stop offset="0.46" stop-color="#3d2e1a"/><stop offset="0.53" stop-color="#4b3b24"/><stop offset="0.57" stop-color="#5c4a2f"/><stop offset="0.59" stop-color="#110b00"/></linearGradient><linearGradient id="Namnlös_övertoning_310" x1="249.19" y1="44.85" x2="249.19" y2="163.74" gradientUnits="userSpaceOnUse"><stop offset="0" stop-color="#b4881f"/><stop offset="0.24" stop-color="#eacc68"/><stop offset="0.51" stop-color="#efd8a4"/><stop offset="0.81" stop-color="#eacb60"/><stop offset="1" stop-color="#b8821b"/></linearGradient><linearGradient id="Namnlös_övertoning_341" x1="73.36" y1="162.92" x2="72.85" y2="122.58" gradientUnits="userSpaceOnUse"><stop offset="0.14" stop-color="#b68019"/><stop offset="0.59" stop-color="#d7ad44"/><stop offset="1" stop-color="#fceda0"/></linearGradient><linearGradient id="Namnlös_övertoning_341-2" x1="121.98" y1="162.3" x2="121.47" y2="121.96" xlink:href="#Namnlös_övertoning_341"/><linearGradient id="Namnlös_övertoning_341-3" x1="168.07" y1="161.72" x2="167.56" y2="121.38" xlink:href="#Namnlös_övertoning_341"/><linearGradient id="Namnlös_övertoning_341-4" x1="214.61" y1="161.13" x2="214.1" y2="120.79" xlink:href="#Namnlös_övertoning_341"/><linearGradient id="Namnlös_övertoning_341-5" x1="261.35" y1="160.54" x2="260.84" y2="120.2" xlink:href="#Namnlös_övertoning_341"/><linearGradient id="Namnlös_övertoning_341-6" x1="106.9" y1="162.49" x2="106.39" y2="122.15" xlink:href="#Namnlös_övertoning_341"/><linearGradient id="Namnlös_övertoning_341-7" x1="126.29" y1="162.25" x2="125.78" y2="121.91" xlink:href="#Namnlös_övertoning_341"/><linearGradient id="Namnlös_övertoning_341-8" x1="144.55" y1="162.01" x2="144.04" y2="121.67" xlink:href="#Namnlös_övertoning_341"/><linearGradient id="Namnlös_övertoning_341-9" x1="164.22" y1="161.77" x2="163.71" y2="121.43" xlink:href="#Namnlös_övertoning_341"/><linearGradient id="Namnlös_övertoning_341-10" x1="184.65" y1="161.51" x2="184.14" y2="121.17" xlink:href="#Namnlös_övertoning_341"/><linearGradient id="Namnlös_övertoning_341-11" x1="207.71" y1="161.22" x2="207.2" y2="120.87" xlink:href="#Namnlös_övertoning_341"/><linearGradient id="Namnlös_övertoning_341-12" x1="229.36" y1="160.94" x2="228.85" y2="120.6" xlink:href="#Namnlös_övertoning_341"/><linearGradient id="Namnlös_övertoning_341-13" x1="84.18" y1="162.78" x2="83.67" y2="122.44" xlink:href="#Namnlös_övertoning_341"/><linearGradient id="Namnlös_övertoning_341-14" x1="103.04" y1="162.54" x2="102.53" y2="122.2" xlink:href="#Namnlös_övertoning_341"/><linearGradient id="Namnlös_övertoning_341-15" x1="111.3" y1="162.44" x2="110.78" y2="122.1" xlink:href="#Namnlös_övertoning_341"/><linearGradient id="Namnlös_övertoning_341-16" x1="118.12" y1="162.35" x2="117.61" y2="122.01" xlink:href="#Namnlös_övertoning_341"/><linearGradient id="Namnlös_övertoning_341-17" x1="126.25" y1="162.25" x2="125.74" y2="121.91" xlink:href="#Namnlös_övertoning_341"/><linearGradient id="Namnlös_övertoning_341-18" x1="135.24" y1="162.13" x2="134.73" y2="121.79" xlink:href="#Namnlös_övertoning_341"/><linearGradient id="Namnlös_övertoning_341-19" x1="144.92" y1="162.01" x2="144.41" y2="121.67" xlink:href="#Namnlös_övertoning_341"/><linearGradient id="Namnlös_övertoning_341-20" x1="160.91" y1="161.81" x2="160.4" y2="121.47" xlink:href="#Namnlös_övertoning_341"/><linearGradient id="Namnlös_övertoning_341-21" x1="171.43" y1="161.67" x2="170.92" y2="121.33" xlink:href="#Namnlös_övertoning_341"/><linearGradient id="Namnlös_övertoning_341-22" x1="180.76" y1="161.56" x2="180.25" y2="121.22" xlink:href="#Namnlös_övertoning_341"/><linearGradient id="Namnlös_övertoning_341-23" x1="196.44" y1="161.36" x2="195.93" y2="121.02" xlink:href="#Namnlös_övertoning_341"/><linearGradient id="Namnlös_övertoning_341-24" x1="213.77" y1="161.14" x2="213.26" y2="120.8" xlink:href="#Namnlös_övertoning_341"/><linearGradient id="Namnlös_övertoning_341-25" x1="225.08" y1="161" x2="224.57" y2="120.65" xlink:href="#Namnlös_övertoning_341"/><linearGradient id="Namnlös_övertoning_341-26" x1="233.05" y1="160.89" x2="232.54" y2="120.55" xlink:href="#Namnlös_övertoning_341"/><linearGradient id="Namnlös_övertoning_341-27" x1="250.19" y1="160.68" x2="249.68" y2="120.34" xlink:href="#Namnlös_övertoning_341"/><radialGradient id="Namnlös_övertoning_217" cx="170.02" cy="71.49" r="121.11" gradientUnits="userSpaceOnUse"><stop offset="0.01" stop-color="#fff"/><stop offset="0.02" stop-color="#fdf6db"/><stop offset="0.03" stop-color="#fbeeba"/><stop offset="0.04" stop-color="#f9e8a1"/><stop offset="0.05" stop-color="#f8e48e"/><stop offset="0.06" stop-color="#f7e184"/><stop offset="0.08" stop-color="#f7e080"/><stop offset="0.44" stop-color="#eacf6f"/><stop offset="0.48" stop-color="#dbbb5c"/><stop offset="0.52" stop-color="#c9a546"/><stop offset="0.58" stop-color="#bc9335"/><stop offset="0.64" stop-color="#b2872a"/><stop offset="0.73" stop-color="#ad8023"/><stop offset="0.96" stop-color="#ab7e21"/></radialGradient><radialGradient id="Namnlös_övertoning_217-2" cx="170.04" cy="71.49" r="120.98" xlink:href="#Namnlös_övertoning_217"/></defs><title>Rityta 1</title><path class="cls-1" d="M492,7.42a6.39,6.39,0,0,0,6.39,6.39v2.91a6.39,6.39,0,1,0,0,12.78v2.91a6.4,6.4,0,0,0,0,12.79v2.91a6.39,6.39,0,1,0,0,12.78V63.8a6.39,6.39,0,1,0,0,12.78v2.91a6.39,6.39,0,1,0,0,12.78v2.91a6.39,6.39,0,1,0,0,12.78v2.91a6.39,6.39,0,1,0,0,12.78v2.91a6.39,6.39,0,1,0,0,12.78v2.91a6.39,6.39,0,1,0,0,12.78v2.91a6.4,6.4,0,0,0,0,12.79v2.91a6.39,6.39,0,1,0,0,12.78v2.91a6.39,6.39,0,1,0,0,12.78V205a6.39,6.39,0,1,0,0,12.78v2.91a6.39,6.39,0,1,0,0,12.78v2.91a6.39,6.39,0,1,0,0,12.78v1H323.71v-3h-1.5v-4h1.5v-6h-1.5v-4h1.5v-6h-1.5v-4h1.5v-6h-1.5v-4h1.5v-6h-1.5v-4h1.5v-6h-1.5v-4h1.5v-6h-1.5v-4h1.5v-6h-1.5v-4h1.5v-6h-1.5v-4h1.5v-6h-1.5v-4h1.5v-6h-1.5v-4h1.5v-6h-1.5v-4h1.5v-6h-1.5v-4h1.5v-6h-1.5v-4h1.5v-6h-1.5v-4h1.5v-6h-1.5v-4h1.5v-6h-1.5v-4h1.5v-6h-1.5v-4h1.5v-6h-1.5v-4h1.5v-6h-1.5V53h1.5V47h-1.5V43h1.5V37h-1.5V33h1.5V27h-1.5V23h1.5V17h-1.5V13h1.5V7h-1.5V3h1.5V0H498.38V1A6.39,6.39,0,0,0,492,7.42Z"/><path class="cls-2" d="M320.71,13h1.5v4h-1.5v6h1.5v4h-1.5v6h1.5v4h-1.5v6h1.5v4h-1.5v6h1.5v4h-1.5v6h1.5v4h-1.5v6h1.5v4h-1.5v6h1.5v4h-1.5v6h1.5v4h-1.5v6h1.5v4h-1.5v6h1.5v4h-1.5v6h1.5v4h-1.5v6h1.5v4h-1.5v6h1.5v4h-1.5v6h1.5v4h-1.5v6h1.5v4h-1.5v6h1.5v4h-1.5v6h1.5v4h-1.5v6h1.5v4h-1.5v6h1.5v4h-1.5v6h1.5v4h-1.5v6h1.5v4h-1.5v6h1.5v4h-1.5v6h1.5v4h-1.5v3H0v-1A6.39,6.39,0,0,0,0,236.4v-2.91a6.39,6.39,0,0,0,0-12.78V217.8A6.39,6.39,0,0,0,0,205v-2.91a6.39,6.39,0,0,0,0-12.78v-2.91a6.39,6.39,0,0,0,0-12.78v-2.91a6.4,6.4,0,0,0,6.39-6.39A6.4,6.4,0,0,0,0,157.94V155a6.39,6.39,0,0,0,0-12.78v-2.91a6.39,6.39,0,0,0,0-12.78v-2.91a6.39,6.39,0,0,0,0-12.78V108A6.39,6.39,0,1,0,0,95.18V92.27A6.39,6.39,0,0,0,0,79.49V76.58A6.39,6.39,0,0,0,0,63.8V60.89A6.39,6.39,0,0,0,0,48.11V45.2a6.4,6.4,0,0,0,6.39-6.39A6.4,6.4,0,0,0,0,32.41V29.5A6.39,6.39,0,0,0,0,16.72V13.81A6.39,6.39,0,0,0,0,1V0H320.71V3h1.5V7h-1.5Z"/><path class="cls-3" d="M482,13.14h1.5V9.73H323.71v3H476.59a8.64,8.64,0,0,0-2,5.6,8.05,8.05,0,0,0,6,8v.39a8.06,8.06,0,0,0-6,8,8.05,8.05,0,0,0,6,8v.38a8.37,8.37,0,0,0,0,16v.39a8.37,8.37,0,0,0,0,16V76a8.37,8.37,0,0,0,0,16v.39a8.37,8.37,0,0,0,0,16v.38a8.37,8.37,0,0,0,0,16v.39a8.37,8.37,0,0,0,0,16v.38a8.37,8.37,0,0,0,0,16v.39a8.38,8.38,0,0,0,0,16v.38a8.37,8.37,0,0,0,0,16V191a8.37,8.37,0,0,0,0,16v.38a8.37,8.37,0,0,0,0,16v.39a8.05,8.05,0,0,0-6,8,8.64,8.64,0,0,0,2,5.6H323.71v3H483.54v-3.41H482c-2.46,0-4.47-2.33-4.47-5.19s2-5.19,4.47-5.19h1.5v-6.05H482c-2.46,0-4.47-2.33-4.47-5.19s2-5.19,4.47-5.19h1.5v-6H482c-2.46,0-4.47-2.33-4.47-5.19s2-5.19,4.47-5.19h1.5v-6.05H482c-2.46,0-4.47-2.33-4.47-5.19s2-5.19,4.47-5.19h1.5v-6H482c-2.46,0-4.47-2.33-4.47-5.19s2-5.2,4.47-5.2h1.5v-6H482c-2.46,0-4.47-2.33-4.47-5.19s2-5.19,4.47-5.19h1.5v-6H482c-2.46,0-4.47-2.33-4.47-5.19s2-5.19,4.47-5.19h1.5v-6H482c-2.46,0-4.47-2.33-4.47-5.19s2-5.19,4.47-5.19h1.5v-6H482c-2.46,0-4.47-2.33-4.47-5.19s2-5.19,4.47-5.19h1.5v-6H482c-2.46,0-4.47-2.33-4.47-5.19s2-5.19,4.47-5.19h1.5v-6H482c-2.46,0-4.47-2.33-4.47-5.19s2-5.19,4.47-5.19h1.5v-6H482c-2.46,0-4.47-2.33-4.47-5.19S479.58,46,482,46h1.5V40H482c-2.46,0-4.47-2.33-4.47-5.19s2-5.2,4.47-5.2h1.5V23.52H482c-2.46,0-4.47-2.33-4.47-5.19S479.58,13.14,482,13.14Zm-467.2,0h1.5c2.46,0,4.47,2.33,4.47,5.19s-2,5.19-4.47,5.19h-1.5v6.05h1.5c2.46,0,4.47,2.33,4.47,5.2S18.8,40,16.34,40h-1.5v6h1.5c2.46,0,4.47,2.33,4.47,5.19s-2,5.19-4.47,5.19h-1.5v6h1.5c2.46,0,4.47,2.33,4.47,5.19s-2,5.19-4.47,5.19h-1.5v6h1.5c2.46,0,4.47,2.33,4.47,5.19s-2,5.19-4.47,5.19h-1.5v6h1.5c2.46,0,4.47,2.33,4.47,5.19s-2,5.19-4.47,5.19h-1.5v6h1.5c2.46,0,4.47,2.33,4.47,5.19s-2,5.19-4.47,5.19h-1.5v6h1.5c2.46,0,4.47,2.33,4.47,5.19s-2,5.19-4.47,5.19h-1.5v6h1.5c2.46,0,4.47,2.33,4.47,5.19s-2,5.19-4.47,5.19h-1.5v6h1.5c2.46,0,4.47,2.33,4.47,5.2s-2,5.19-4.47,5.19h-1.5v6h1.5c2.46,0,4.47,2.33,4.47,5.19s-2,5.19-4.47,5.19h-1.5v6.05h1.5c2.46,0,4.47,2.33,4.47,5.19s-2,5.19-4.47,5.19h-1.5v6h1.5c2.46,0,4.47,2.33,4.47,5.19s-2,5.19-4.47,5.19h-1.5v6.05h1.5c2.46,0,4.47,2.33,4.47,5.19s-2,5.19-4.47,5.19h-1.5v3.41H320.71v-3H21.79a8.64,8.64,0,0,0,2-5.6,8.05,8.05,0,0,0-6-8v-.39a8.37,8.37,0,0,0,0-16v-.38a8.37,8.37,0,0,0,0-16v-.39a8.37,8.37,0,0,0,0-16v-.38a8.38,8.38,0,0,0,0-16v-.39a8.37,8.37,0,0,0,0-16v-.38a8.37,8.37,0,0,0,0-16v-.39a8.37,8.37,0,0,0,0-16v-.38a8.37,8.37,0,0,0,0-16v-.39a8.37,8.37,0,0,0,0-16v-.38a8.37,8.37,0,0,0,0-16v-.39a8.37,8.37,0,0,0,0-16v-.38a8.05,8.05,0,0,0,6-8,8.06,8.06,0,0,0-6-8v-.39a8.05,8.05,0,0,0,6-8,8.64,8.64,0,0,0-2-5.6H320.71v-3H14.84Z"/><g id="ENTRÉ_BILJETT_-_Strand_Kök_Bar_-" data-name="ENTRÉ BILJETT  -   Strand Kök &amp; Bar   -"><path class="cls-4" d="M71.44,142.62l4.64-.08a41.13,41.13,0,0,0,5-.37q2.64-.36,6.53-5.35a35.9,35.9,0,0,0,5.72-10.29h.87V143.7H51.78v-.86c.47,0,1,0,1.62-.08s1.31-.13,2.08-.22a2.73,2.73,0,0,0,1.78-.81,4.13,4.13,0,0,0,.79-2.4l.11-2.48v-25.6l-.11-2.48a4.16,4.16,0,0,0-.81-2.43,2.93,2.93,0,0,0-1.81-.87,19.59,19.59,0,0,0-2.11-.19c-.63,0-1.19,0-1.7-.08v-.86H93.15v16h-.87a36.41,36.41,0,0,0-6.69-10.18c-2.63-2.75-4.83-4.22-6.62-4.4s-3.28-.28-4.51-.32L72,105.36h-.48l-.11,17.72,2.27-.11A6,6,0,0,0,78.43,120a11.71,11.71,0,0,0,1.6-6.19h1V133.5H80a12.24,12.24,0,0,0-1.6-6.32,5.88,5.88,0,0,0-4.72-3l-2.27-.11Z"/><path class="cls-5" d="M145.58,105.2c-.47,0-1,.08-1.54.11s-1.34.14-2.35.3a3.46,3.46,0,0,0-2.29,1.24,5.18,5.18,0,0,0-1,2.73l-.1,2.59V143.7h-6.59l-25.65-32.83h-.22v25.22l.11,2.59a4.73,4.73,0,0,0,.89,2.65,3.54,3.54,0,0,0,2.21,1.11,22.47,22.47,0,0,0,2.54.29c.7,0,1.18.08,1.43.11v.86H97.47v-.86l1.58-.11c.58,0,1.6-.17,3.07-.4s2.31-1.45,2.53-3.65l.11-2.59V111.52l-.11-2.48a11.68,11.68,0,0,0-1.69-2.11,5.34,5.34,0,0,0-2.15-1.35,7.37,7.37,0,0,0-2.25-.38H96.93v-.86h20.65L137,129.18h.21V112l-.11-2.59a4.72,4.72,0,0,0-.89-2.62,3.41,3.41,0,0,0-2.18-1.13c-1-.16-1.76-.26-2.35-.3s-1.15-.07-1.65-.11v-.86h15.55Z"/><path class="cls-6" d="M146.12,104.34h42.66v17.33h-.92q-1.46-3.28-3.48-7a43.16,43.16,0,0,0-4.24-6.45c-1.48-1.84-2.77-2.76-3.89-2.76l-2.16-.11v31.49l.11,2.48a4.49,4.49,0,0,0,.73,2.4,2.57,2.57,0,0,0,1.76.81c.79.09,1.51.16,2.15.19l1.73.11v.86h-26.4v-.86l3.56-.16a3.5,3.5,0,0,0,2.22-.81,4.33,4.33,0,0,0,.75-2.43l.11-2.49V105.36l-2.11.11q-1.72,0-3.83,2.57a41.85,41.85,0,0,0-4.24,6.48q-2.13,3.92-3.59,7.15h-.92Z"/><path class="cls-7" d="M210.22,124.05v12.63l.11,2.49a4.11,4.11,0,0,0,.86,2.48,3.79,3.79,0,0,0,2.38,1l2.75.22v.86H190.4v-.86h1.67l2.27-.3a2.66,2.66,0,0,0,1.7-.81,4.13,4.13,0,0,0,.79-2.4l.1-2.48v-25.6l-.1-2.48a4.16,4.16,0,0,0-.81-2.43,3,3,0,0,0-1.84-.87,20.26,20.26,0,0,0-2.05-.19c-.58,0-1.12,0-1.62-.08v-.86l24.14-.06a61.48,61.48,0,0,1,8.15.44,12.17,12.17,0,0,1,5.1,1.73,10,10,0,0,1,3.14,3.21,8.46,8.46,0,0,1,1.16,4.45,11.18,11.18,0,0,1-.68,3.78,8.26,8.26,0,0,1-2.08,3.24,9.69,9.69,0,0,1-3.48,2.11,21.17,21.17,0,0,1-6.62.75v.38q2.76.6,4.62,1.14a12,12,0,0,1,3.38,1.57,9.63,9.63,0,0,1,2.72,3.07,20.29,20.29,0,0,1,2,4.44,18.2,18.2,0,0,0,1.35,3.41,1.87,1.87,0,0,0,1.68,1c.93,0,1.55-.61,1.86-1.81a16.72,16.72,0,0,0,.46-4.13h.86a21.41,21.41,0,0,1-.32,4.21,8.44,8.44,0,0,1-1.62,3.27,9.13,9.13,0,0,1-3.7,2.75,12.87,12.87,0,0,1-5.21,1,9.67,9.67,0,0,1-7-2.51,11.17,11.17,0,0,1-3.24-6.61q-.63-4.09-1-6.9c-.4-2.1-.92-3.32-1.57-3.66a5.06,5.06,0,0,0-2.1-.57C211.73,124.07,211,124.05,210.22,124.05Zm4.32-1.14q2.06-.31,3.1-3a15.68,15.68,0,0,0,1.06-5.89,13.33,13.33,0,0,0-1.08-5.21c-.72-1.71-1.59-2.71-2.6-3a11.93,11.93,0,0,0-2.7-.49l-2.1-.1v17.82h1.83A15.32,15.32,0,0,0,214.54,122.91Z"/><path class="cls-8" d="M259.47,142.62l4.64-.08a41,41,0,0,0,5-.37q2.64-.36,6.54-5.35a35.9,35.9,0,0,0,5.72-10.29h.86V143.7H239.81v-.86c.47,0,1,0,1.62-.08s1.3-.13,2.08-.22a2.75,2.75,0,0,0,1.78-.81,4.13,4.13,0,0,0,.78-2.4l.11-2.48v-25.6l-.11-2.48a4,4,0,0,0-.81-2.43,2.9,2.9,0,0,0-1.81-.87,19.2,19.2,0,0,0-2.1-.19c-.63,0-1.2,0-1.7-.08v-.86h41.52v16h-.86a36.65,36.65,0,0,0-6.7-10.18c-2.62-2.75-4.83-4.22-6.61-4.4s-3.29-.28-4.51-.32l-2.43-.06h-.49l-.1,17.72,2.26-.11a6,6,0,0,0,4.73-2.94,11.71,11.71,0,0,0,1.59-6.19h1V133.5h-1a12.23,12.23,0,0,0-1.59-6.32,5.9,5.9,0,0,0-4.73-3l-2.26-.11Zm-1.68-41.14A58.62,58.62,0,0,0,263,95.37q3.17-4.09,4.67-4.1a5.28,5.28,0,0,1,1.87.3,2.54,2.54,0,0,1,1.08.67,3.16,3.16,0,0,1,.29,1.68,3.28,3.28,0,0,1-.73,2.43,12.1,12.1,0,0,1-3.32,1.78c-1.72.72-3.31,1.38-4.75,2a33.56,33.56,0,0,0-3.89,1.94Z"/><path class="cls-9" d="M109.24,176.11l-13.2,0v-.43h.83L98,175.5a1.35,1.35,0,0,0,.85-.41,2,2,0,0,0,.39-1.2l.06-1.24V159.87l-.06-1.24a2.09,2.09,0,0,0-.4-1.21,1.47,1.47,0,0,0-.91-.43c-.38-.05-.74-.09-1-.1s-.6,0-.85,0v-.43l12.47,0a33.69,33.69,0,0,1,4,.18,5.55,5.55,0,0,1,2.39.84,4.7,4.7,0,0,1,1.5,1.61,4.58,4.58,0,0,1,.54,2.28,3.3,3.3,0,0,1-1.15,2.83,6.33,6.33,0,0,1-2.29,1.15,11.93,11.93,0,0,1-2.82.29v.21a21.23,21.23,0,0,1,2.95.15,8.41,8.41,0,0,1,2,.55,4,4,0,0,1,1.75,1.52,5.06,5.06,0,0,1,.75,2.87,4.67,4.67,0,0,1-2.78,4.51,8,8,0,0,1-3,.63C111.12,176.08,110.1,176.11,109.24,176.11Zm-1-10.7a1.86,1.86,0,0,0,1.51-1.32,8.87,8.87,0,0,0,.38-2.81,7.34,7.34,0,0,0-.5-2.66c-.34-.85-.75-1.34-1.24-1.47a6.72,6.72,0,0,0-1.38-.21l-1.12-.06v8.72h1A7.61,7.61,0,0,0,108.27,165.41Zm1,9.91c.59-.14,1-.71,1.28-1.69a12.14,12.14,0,0,0,.39-3.1,6.91,6.91,0,0,0-.61-2.84c-.4-.92-.89-1.42-1.47-1.49a13.13,13.13,0,0,0-1.33-.13h-1.61v9.53h.32c.65,0,1.19,0,1.62,0A7.11,7.11,0,0,0,109.27,175.32Z"/><path class="cls-10" d="M132.7,176.11H120v-.44h.51c.21,0,.57,0,1.07-.11a1.66,1.66,0,0,0,1.05-.44,2.15,2.15,0,0,0,.39-1.19l0-1.24V159.85l0-1.24a2.26,2.26,0,0,0-.36-1.2,1.73,1.73,0,0,0-1.13-.45l-1.45-.11v-.43H132.7v.43l-1.46.09a1.74,1.74,0,0,0-1.12.39,2.2,2.2,0,0,0-.36,1.23l0,1.24v12.93l0,1.24a1.91,1.91,0,0,0,.39,1.2,2,2,0,0,0,1.15.42l1.4.08Z"/><path class="cls-11" d="M146.5,175.48a4.81,4.81,0,0,0,3.23-1.48,17,17,0,0,0,2.83-3.43,36.58,36.58,0,0,0,2.23-4.1h.43v9.64H134.11v-.44h.6c.26,0,.66,0,1.19-.11a1.5,1.5,0,0,0,1.58-1.63l.06-1.24V159.85l-.06-1.24a2.18,2.18,0,0,0-.36-1.2,1.31,1.31,0,0,0-.88-.42c-.4-.05-.74-.09-1-.1s-.55,0-.78,0v-.43H147.5v.43l-1.78.09a1.69,1.69,0,0,0-1.11.4,2.18,2.18,0,0,0-.38,1.22l0,1.24v15.77Z"/><path class="cls-12" d="M163.62,173l0-1.24v-12l0-1.24a2.2,2.2,0,0,0-.37-1.21,1.28,1.28,0,0,0-.81-.37c-.35,0-.65-.08-.89-.09a5.57,5.57,0,0,1-.63,0v-.43h12.2v.43l-1.27.11a1.8,1.8,0,0,0-1.1.43,2.13,2.13,0,0,0-.38,1.22l-.06,1.24v9.37a6.21,6.21,0,0,1-2.85,5.09,10.31,10.31,0,0,1-6.3,2.12,6.84,6.84,0,0,1-4.16-1.19,3.88,3.88,0,0,1-1.62-3.32,3.15,3.15,0,0,1,1-2.32,3.32,3.32,0,0,1,2.39-1,3.58,3.58,0,0,1,2.58.91,3.66,3.66,0,0,1,.32,4.49c-.47.48-.92,1-1.37,1.45,0,.18.12.31.37.37a4.25,4.25,0,0,0,1,.09,1.58,1.58,0,0,0,1.58-.9A4.77,4.77,0,0,0,163.62,173Z"/><path class="cls-13" d="M184,175.57l2.32,0a20.6,20.6,0,0,0,2.52-.18c.88-.12,2-1,3.26-2.68a17.81,17.81,0,0,0,2.86-5.14h.44v8.59H174.17v-.44a8.1,8.1,0,0,0,.81,0c.31,0,.66-.06,1-.11a1.35,1.35,0,0,0,.89-.4,2.13,2.13,0,0,0,.4-1.2l.05-1.24v-12.8l-.05-1.24a2.12,2.12,0,0,0-.41-1.22,1.45,1.45,0,0,0-.9-.43c-.39-.05-.74-.09-1.06-.1s-.6,0-.85,0v-.43h20.77v8h-.44a18.27,18.27,0,0,0-3.34-5.09c-1.32-1.37-2.42-2.11-3.31-2.2s-1.64-.14-2.26-.16l-1.21,0h-.24l-.06,8.85,1.14,0a3,3,0,0,0,2.36-1.47,5.89,5.89,0,0,0,.8-3.1h.51V171h-.51a6.13,6.13,0,0,0-.8-3.16,3,3,0,0,0-2.36-1.51l-1.14-.05Z"/><path class="cls-14" d="M197,156.42h21.33v8.67h-.46c-.48-1.1-1.06-2.26-1.74-3.5a21.14,21.14,0,0,0-2.12-3.22c-.74-.92-1.38-1.38-1.94-1.38l-1.08-.05v15.74l.05,1.24a2.32,2.32,0,0,0,.37,1.2,1.28,1.28,0,0,0,.87.4c.4,0,.76.08,1.08.1l.87,0v.44h-13.2v-.44l1.78-.08a1.75,1.75,0,0,0,1.11-.4,2.19,2.19,0,0,0,.37-1.22l.06-1.24V156.94l-1.06.05c-.57,0-1.21.43-1.91,1.28a21.42,21.42,0,0,0-2.12,3.24c-.71,1.31-1.31,2.5-1.8,3.58H197Z"/><path class="cls-15" d="M218.7,156.42H240v8.67h-.46c-.49-1.1-1.07-2.26-1.74-3.5a22.75,22.75,0,0,0-2.12-3.22q-1.11-1.38-2-1.38l-1.08-.05v15.74l.06,1.24a2.24,2.24,0,0,0,.36,1.2,1.28,1.28,0,0,0,.88.4c.39,0,.76.08,1.08.1l.86,0v.44h-13.2v-.44l1.78-.08a1.75,1.75,0,0,0,1.11-.4A2.18,2.18,0,0,0,226,174l0-1.24V156.94l-1,.05c-.58,0-1.22.43-1.92,1.28a21.42,21.42,0,0,0-2.12,3.24c-.71,1.31-1.31,2.5-1.79,3.58h-.46Z"/><path class="cls-16" d="M82.76,207.31h4v2.32h-4Z"/><path class="cls-17" d="M108.2,208.9a2.91,2.91,0,0,1-1.26,2.43,4.41,4.41,0,0,1-2.73,1,4.69,4.69,0,0,1-2.55-.82,6,6,0,0,0-1.46-.82.56.56,0,0,0-.61.38,7.44,7.44,0,0,0-.23,1.26h-.25v-5.37h.25c.06.21.16.55.31,1a7.74,7.74,0,0,0,.81,1.72,5.15,5.15,0,0,0,1.56,1.66,3.86,3.86,0,0,0,2.24.66,1.8,1.8,0,0,0,1.2-.39,1.18,1.18,0,0,0,.47-.93,1.45,1.45,0,0,0-.35-1,3.41,3.41,0,0,0-1.24-.73l-1.91-.76a14.37,14.37,0,0,1-2.13-1.09,2.73,2.73,0,0,1-1.12-2.55,3.16,3.16,0,0,1,1.18-2.49,4.06,4.06,0,0,1,2.73-1,3.7,3.7,0,0,1,1.67.4l1.56.87a.53.53,0,0,0,.56-.37,2.62,2.62,0,0,0,.14-.9h.28v4h-.27c0-.17-.15-.46-.3-.87a5,5,0,0,0-.9-1.38,4.43,4.43,0,0,0-1.32-1.1,3.27,3.27,0,0,0-1.56-.34,2,2,0,0,0-1.14.36,1.06,1.06,0,0,0-.52.9,1.24,1.24,0,0,0,.4.95,3,3,0,0,0,.91.61c.35.15.83.34,1.43.57s1.25.5,1.9.8a4.13,4.13,0,0,1,1.62,1.34A3.46,3.46,0,0,1,108.2,208.9Z"/><path class="cls-18" d="M109.76,205.57h-1v-.41a3.87,3.87,0,0,0,1.06-.5,8.29,8.29,0,0,0,1.91-1.81,6.06,6.06,0,0,0,.52-.84h.42v3h1.95l-.21.57h-1.74v4.08l0,.76a1.47,1.47,0,0,0,.28,1,.91.91,0,0,0,.72.33.92.92,0,0,0,.85-.49,2.22,2.22,0,0,0,.26-1.09H115a2.36,2.36,0,0,1-.5,1.48,2.64,2.64,0,0,1-2.12.64,3.23,3.23,0,0,1-1.84-.54,1.73,1.73,0,0,1-.79-1.52Z"/><path class="cls-19" d="M114.9,212.11v-.25h.4c.29,0,.47-.1.53-.21a1.8,1.8,0,0,0,.09-.72V206a2.48,2.48,0,0,0-.09-.54c0-.12-.22-.19-.54-.22l-.39,0V205h3.9v1.26a6,6,0,0,1,.44-.81c.23-.36.75-.54,1.57-.54a1.63,1.63,0,0,1,1.22.5,1.59,1.59,0,0,1,.5,1.19,1.52,1.52,0,0,1-.47,1.15,1.62,1.62,0,0,1-1.16.46,1.38,1.38,0,0,1-1-.4,1.23,1.23,0,0,1-.42-.91,1.74,1.74,0,0,1,.14-.69l.3-.58c0-.07-.1-.11-.15-.11a.81.81,0,0,0-.67.47,1.61,1.61,0,0,0-.29.87v4.21a1.06,1.06,0,0,0,.11.57.73.73,0,0,0,.52.2l.44,0v.25Z"/><path class="cls-20" d="M130.24,211.37c.23,0,.4-.15.49-.44a3.39,3.39,0,0,0,.14-1.07h.21a2.33,2.33,0,0,1-.47,1.75,2.28,2.28,0,0,1-.85.53,3.21,3.21,0,0,1-1,.12,1.94,1.94,0,0,1-1.14-.34,1.3,1.3,0,0,1-.61-.88,1.74,1.74,0,0,1-.8.91,3.14,3.14,0,0,1-1.47.31,2.29,2.29,0,0,1-1.56-.53,1.84,1.84,0,0,1-.6-1.46,1.86,1.86,0,0,1,.38-1.21,1.57,1.57,0,0,1,.76-.56,7.79,7.79,0,0,1,1.2-.18,7.79,7.79,0,0,0,1.2-.18,1.59,1.59,0,0,0,.54-.21.42.42,0,0,0,.17-.38l0-1.37a1.9,1.9,0,0,0-.14-.84c-.1-.17-.31-.25-.63-.25a.89.89,0,0,0-.5.13.42.42,0,0,0-.2.35c0,.11.11.25.32.41a.88.88,0,0,1,.32.75,1.06,1.06,0,0,1-.41.83,2,2,0,0,1-1.35.36,1.43,1.43,0,0,1-.89-.28.87.87,0,0,1-.39-.75,1.68,1.68,0,0,1,1-1.49,5.23,5.23,0,0,1,2.49-.55,4.94,4.94,0,0,1,2.24.5,1.65,1.65,0,0,1,1,1.56v3.45a2.35,2.35,0,0,0,.09.74A.34.34,0,0,0,130.24,211.37Zm-3.37-.45v-2.87h-.05a1.18,1.18,0,0,1-.49.34,1.62,1.62,0,0,0-.51.3,1.36,1.36,0,0,0-.22.58,5.14,5.14,0,0,0-.08.88,4.5,4.5,0,0,0,.1,1.08.47.47,0,0,0,.48.41.65.65,0,0,0,.49-.23A1,1,0,0,0,126.87,210.92Z"/><path class="cls-21" d="M136.84,207.17v-.61c0-.78-.27-1.17-.82-1.17a.82.82,0,0,0-.74.33,3.9,3.9,0,0,0-.35.67v3.84l0,.69a1.74,1.74,0,0,0,.11.78c.08.11.3.16.66.16v.25H131v-.25h.36c.29,0,.46-.1.52-.21a1.8,1.8,0,0,0,.09-.72l0-.69v-3.58l0-.62a2.48,2.48,0,0,0-.09-.54c0-.12-.22-.19-.54-.22l-.34,0V205h3.82v1.12a2.56,2.56,0,0,1,.6-.85,2.37,2.37,0,0,1,1.65-.42,3,3,0,0,1,1.85.6,1.75,1.75,0,0,1,.78,1.41v4.06a1.78,1.78,0,0,0,.09.71c.06.12.24.19.53.22h.33v.25h-4.64v-.25c.35,0,.57-.05.65-.17a1.55,1.55,0,0,0,.12-.77v-3.75Z"/><path class="cls-22" d="M146.05,205V203l0-.69a1.11,1.11,0,0,0-.14-.66,1.09,1.09,0,0,0-.64-.22l-.7-.05v-.24H149v9.9a.64.64,0,0,0,.69.77l.48,0v.25h-4v-.75a2,2,0,0,1-.53.6,2.3,2.3,0,0,1-1.39.3,3,3,0,0,1-2.34-1,3.94,3.94,0,0,1-.9-2.73,3.85,3.85,0,0,1,.9-2.67,3,3,0,0,1,2.34-1,2.38,2.38,0,0,1,1.4.28,2,2,0,0,1,.51.6Zm0,1.08a.83.83,0,0,0-.33-.57,1,1,0,0,0-.63-.19.74.74,0,0,0-.7.44,3.08,3.08,0,0,0-.3,1c0,.38-.07.72-.08,1s0,.59,0,.85v.68c0,.19,0,.52.07,1a3.37,3.37,0,0,0,.3,1.15.76.76,0,0,0,.71.45.87.87,0,0,0,1-.79c0-.23,0-.64,0-1.23s0-1,0-1.31v-1.38C146.05,206.72,146,206.35,146,206Z"/><path class="cls-23" d="M160,207l-.4.48v2.74l0,.69a1.26,1.26,0,0,0,.2.67,1.07,1.07,0,0,0,.62.23l.54,0v.25h-6.69v-.25l.75-.05a1,1,0,0,0,.61-.26,1.13,1.13,0,0,0,.22-.66l0-.69v-7.12l0-.69a1.29,1.29,0,0,0-.2-.67,1,1,0,0,0-.63-.25l-.78-.06v-.24h6.77v.24l-.59.05a1,1,0,0,0-.62.21,1.31,1.31,0,0,0-.2.69l0,.69v4l1.21-1.41c.52-.6,1.06-1.22,1.6-1.86s.91-1.08,1.1-1.33a1.2,1.2,0,0,0,.27-.62.32.32,0,0,0-.15-.3,1.16,1.16,0,0,0-.43-.12l-.71-.05v-.24h3.83v.24l-.41,0a4.07,4.07,0,0,0-.51.07,2.08,2.08,0,0,0-.62.24,3.17,3.17,0,0,0-.76.66l-1.51,1.73,4.09,6.33a5.67,5.67,0,0,0,.83,1.06,1.12,1.12,0,0,0,.55.26,2.61,2.61,0,0,0,.46.06l.28,0v.25h-7.22v-.25l.63,0a1.85,1.85,0,0,0,.47-.09.28.28,0,0,0,.15-.29,1.08,1.08,0,0,0-.08-.34,3.45,3.45,0,0,0-.34-.61c-.18-.28-.38-.59-.61-.93s-.52-.8-.9-1.35Z"/><path class="cls-24" d="M176.07,208.55a3.37,3.37,0,0,1-1.21,2.65,4.4,4.4,0,0,1-5.73,0,3.46,3.46,0,0,1-1.16-2.65,3.41,3.41,0,0,1,1.18-2.65,4.15,4.15,0,0,1,2.87-1.05,4.19,4.19,0,0,1,2.86,1.05A3.39,3.39,0,0,1,176.07,208.55Zm-6.75-5.71a1,1,0,0,1,.3-.69,1,1,0,0,1,.72-.3.94.94,0,0,1,.7.28,1,1,0,0,1,.29.71,1,1,0,0,1-.27.73,1,1,0,0,1-.72.29,1,1,0,0,1-1-1Zm3.76,5.7c0-.14,0-.43,0-.84s0-.67,0-.75a3.25,3.25,0,0,0-.24-1.34.82.82,0,0,0-.78-.52.79.79,0,0,0-.73.54A3.14,3.14,0,0,0,171,207c0,.19,0,.42,0,.69s0,.58,0,.9c0,.14,0,.42,0,.86s0,.69,0,.76a3.19,3.19,0,0,0,.25,1.33.8.8,0,0,0,1.51,0,3.11,3.11,0,0,0,.25-1.32c0-.2,0-.44,0-.72S173.06,208.86,173.08,208.54Zm-.37-5.7a1,1,0,0,1,1-1,1,1,0,0,1,1,1,1,1,0,0,1-1,1,1,1,0,0,1-.7-.3A1,1,0,0,1,172.71,202.84Z"/><path class="cls-25" d="M180.22,208.9l1.59-1.63c.52-.55.89-1,1.09-1.2a1.07,1.07,0,0,0,.31-.57.19.19,0,0,0-.1-.17.84.84,0,0,0-.28-.06l-.51,0V205h2.84v.24h-.3l-.39.06a1.77,1.77,0,0,0-.41.15,3.7,3.7,0,0,0-.49.38,7.5,7.5,0,0,0-.56.53l-.43.45,1.5,2.43c.51.82.88,1.41,1.12,1.76a3.19,3.19,0,0,0,.52.67,1,1,0,0,0,.47.18h.36v.25h-5.08v-.25h.3q.39,0,.39-.24a1.25,1.25,0,0,0-.2-.49c-.14-.23-.34-.57-.62-1l-.8-1.25-.29.3v1.07l0,.69a2.35,2.35,0,0,0,.08.76c.06.11.22.17.5.17h.28v.25h-4.75v-.25h.35c.29,0,.46-.1.52-.21a1.8,1.8,0,0,0,.09-.72l0-.69v-7.41l0-.61a1,1,0,0,0-.12-.57.87.87,0,0,0-.55-.2l-.57,0v-.24h4.15v6.74Z"/><path class="cls-26" d="M199.62,208l.38-.45a4.73,4.73,0,0,0,.52-.75,3.26,3.26,0,0,0,.3-.63,1.16,1.16,0,0,0,.06-.32.36.36,0,0,0-.2-.36,1.8,1.8,0,0,0-.55-.12l-.71,0v-.25h3.83v.25l-.36,0a3.91,3.91,0,0,0-.66.11,1.78,1.78,0,0,0-.95.8c-.31.47-.59.85-.82,1.14s-.45.57-.66.82a9.25,9.25,0,0,0,1.63,1.67,2,2,0,0,0,1.16.48,1.1,1.1,0,0,0,.78-.33,1.93,1.93,0,0,0,.42-1.26H204a3.23,3.23,0,0,1-1,2.55,3.72,3.72,0,0,1-2.56.93,3.85,3.85,0,0,1-1.72-.38,5.11,5.11,0,0,1-1.51-1.23,5.53,5.53,0,0,1-1.75,1.28,4.48,4.48,0,0,1-1.73.33,3.64,3.64,0,0,1-2.67-1,3.17,3.17,0,0,1-1-2.35,3.22,3.22,0,0,1,.9-2.28,4.75,4.75,0,0,1,2.75-1.26,7.19,7.19,0,0,1-.39-.9,3.16,3.16,0,0,1-.12-1,2.29,2.29,0,0,1,.91-1.73,4.1,4.1,0,0,1,2.75-.79,2.72,2.72,0,0,1,1.75.49,1.59,1.59,0,0,1,.6,1.28,1.52,1.52,0,0,1-.48,1.11,3.24,3.24,0,0,1-1.41.75q.54.9,1.08,1.71C198.76,206.9,199.17,207.46,199.62,208Zm-2.6,2.46a22.36,22.36,0,0,1-1.66-2.2,23.37,23.37,0,0,1-1.55-2.65,1,1,0,0,0-.47.54,2.42,2.42,0,0,0-.19,1,3.89,3.89,0,0,0,.88,2.61,2.59,2.59,0,0,0,2,1,1.79,1.79,0,0,0,.66-.09A1.52,1.52,0,0,0,197,210.49Zm1.19-7.63a2,2,0,0,0-.29-1.13.92.92,0,0,0-.81-.42.76.76,0,0,0-.54.21.74.74,0,0,0-.22.57,3,3,0,0,0,.25,1.09,8.15,8.15,0,0,0,.62,1.26,2,2,0,0,0,.7-.53A1.64,1.64,0,0,0,198.21,202.86Z"/><path class="cls-27" d="M215.62,212.11l-7.33,0v-.24h.46l.62-.08a.73.73,0,0,0,.47-.23,1.08,1.08,0,0,0,.22-.66l0-.69v-7.1l0-.69a1.14,1.14,0,0,0-.23-.67.79.79,0,0,0-.5-.24l-.58-.06-.48,0v-.24h6.93a18.11,18.11,0,0,1,2.21.1,3.09,3.09,0,0,1,1.33.47,2.61,2.61,0,0,1,.83.89,2.54,2.54,0,0,1,.3,1.27,1.82,1.82,0,0,1-.64,1.57,3.62,3.62,0,0,1-1.27.64,7,7,0,0,1-1.57.16v.12a11.22,11.22,0,0,1,1.64.08,4.51,4.51,0,0,1,1.1.3,2.25,2.25,0,0,1,1,.85,2.76,2.76,0,0,1,.42,1.59,2.67,2.67,0,0,1-.43,1.57,2.72,2.72,0,0,1-1.11.94,4.58,4.58,0,0,1-1.65.35C216.67,212.09,216.1,212.11,215.62,212.11Zm-.54-5.94a1,1,0,0,0,.84-.74,4.9,4.9,0,0,0,.21-1.56,4.17,4.17,0,0,0-.27-1.48q-.29-.7-.69-.81a3.81,3.81,0,0,0-.77-.12l-.62,0v4.84h.58A3.69,3.69,0,0,0,215.08,206.17Zm.56,5.5c.33-.08.57-.39.71-.94a6.49,6.49,0,0,0,.22-1.72,3.81,3.81,0,0,0-.34-1.58c-.22-.51-.5-.79-.82-.83l-.74-.07h-.89v5.29H214l.9,0A4.87,4.87,0,0,0,215.64,211.67Z"/><path class="cls-28" d="M229.09,211.37c.23,0,.4-.15.49-.44a3.39,3.39,0,0,0,.14-1.07h.21a2.33,2.33,0,0,1-.47,1.75,2.28,2.28,0,0,1-.85.53,3.21,3.21,0,0,1-1,.12,1.94,1.94,0,0,1-1.14-.34,1.3,1.3,0,0,1-.61-.88,1.74,1.74,0,0,1-.8.91,3.14,3.14,0,0,1-1.47.31,2.29,2.29,0,0,1-1.56-.53,1.84,1.84,0,0,1-.6-1.46,1.86,1.86,0,0,1,.38-1.21,1.57,1.57,0,0,1,.76-.56,7.79,7.79,0,0,1,1.2-.18,7.79,7.79,0,0,0,1.2-.18,1.59,1.59,0,0,0,.54-.21.42.42,0,0,0,.17-.38l0-1.37a1.9,1.9,0,0,0-.14-.84c-.1-.17-.31-.25-.63-.25a.89.89,0,0,0-.5.13.42.42,0,0,0-.2.35c0,.11.11.25.32.41a.88.88,0,0,1,.32.75,1.06,1.06,0,0,1-.41.83,2.06,2.06,0,0,1-1.35.36,1.43,1.43,0,0,1-.89-.28.87.87,0,0,1-.39-.75,1.68,1.68,0,0,1,1-1.49,5.2,5.2,0,0,1,2.49-.55,5,5,0,0,1,2.24.5,1.65,1.65,0,0,1,1,1.56v3.45a2.35,2.35,0,0,0,.09.74A.34.34,0,0,0,229.09,211.37Zm-3.37-.45v-2.87h-.05a1.18,1.18,0,0,1-.49.34,1.51,1.51,0,0,0-.51.3,1.24,1.24,0,0,0-.22.58,5.14,5.14,0,0,0-.08.88,4.5,4.5,0,0,0,.1,1.08.47.47,0,0,0,.48.41.67.67,0,0,0,.49-.23A1,1,0,0,0,225.72,210.92Z"/><path class="cls-29" d="M229.84,212.11v-.25h.41c.29,0,.46-.1.52-.21a1.8,1.8,0,0,0,.09-.72l0-.69v-3.58l0-.62a2.48,2.48,0,0,0-.09-.54c0-.12-.22-.19-.54-.22l-.39,0V205h3.9v1.26a6,6,0,0,1,.44-.81c.23-.36.75-.54,1.57-.54a1.67,1.67,0,0,1,1.23.5,1.63,1.63,0,0,1,.5,1.19,1.56,1.56,0,0,1-.47,1.15,1.66,1.66,0,0,1-1.17.46,1.39,1.39,0,0,1-1-.4,1.26,1.26,0,0,1-.41-.91,1.73,1.73,0,0,1,.13-.69l.3-.58c0-.07-.1-.11-.15-.11a.82.82,0,0,0-.67.47,1.69,1.69,0,0,0-.29.87v3.46l0,.75a1.09,1.09,0,0,0,.1.57.73.73,0,0,0,.52.2l.44,0v.25Z"/><path class="cls-30" d="M248.79,207.31h4v2.32h-4Z"/></g><polygon class="cls-31" points="170.02 30.57 175.1 46.2 191.54 46.2 178.24 55.87 183.32 71.51 170.02 61.84 156.71 71.51 161.79 55.87 148.49 46.2 164.94 46.2 170.02 30.57"/><polygon class="cls-32" points="118.39 37.94 122.55 50.76 136.04 50.76 125.13 58.68 129.29 71.51 118.39 63.58 107.48 71.51 111.64 58.68 100.74 50.76 114.22 50.76 118.39 37.94"/><polygon class="cls-32" points="74.72 45.72 77.92 55.57 88.28 55.57 79.9 61.66 83.1 71.51 74.72 65.42 66.34 71.51 69.54 61.66 61.16 55.57 71.52 55.57 74.72 45.72"/><polygon class="cls-32" points="221.65 37.94 225.81 50.76 239.3 50.76 228.39 58.68 232.55 71.51 221.65 63.58 210.74 71.51 214.9 58.68 204 50.76 217.48 50.76 221.65 37.94"/><polygon class="cls-32" points="265.31 45.72 268.51 55.57 278.87 55.57 270.49 61.66 273.69 71.51 265.31 65.42 256.93 71.51 260.13 61.66 251.75 55.57 262.11 55.57 265.31 45.72"/><rect x="340.94" y="158.57" width="117.83" height="5.37"/><rect x="340.94" y="65.74" width="117.83" height="5.34"/><rect x="340.94" y="168.08" width="117.83" height="5.34"/><rect x="340.94" y="175.03" width="117.83" height="4.05"/><rect x="340.94" y="132.66" width="117.83" height="3.63"/><rect x="340.94" y="205.24" width="117.83" height="3.62"/><rect x="340.94" y="187.52" width="117.83" height="3.63"/><rect x="340.94" y="72.61" width="117.83" height="3.62"/><rect x="340.94" y="127.08" width="117.83" height="2.75"/><rect x="340.94" y="102.44" width="117.83" height="2.77"/><rect x="340.94" y="194" width="117.83" height="2.76"/><rect x="340.94" y="32.91" width="117.83" height="2.3"/><rect x="340.94" y="147.77" width="117.83" height="2.34"/><rect x="340.94" y="198.32" width="117.83" height="2.33"/><rect x="340.94" y="48.01" width="117.83" height="2.36"/><rect x="340.94" y="89.05" width="117.83" height="2.34"/><rect x="340.94" y="108.03" width="117.83" height="2.34"/><rect x="340.94" y="213.47" width="117.83" height="2.34"/><path d="M458.77,36.66v1.66H340.94V36.64Q399.86,36.64,458.77,36.66Z"/><path d="M458.77,144.69v1.67q-58.9,0-117.83,0v-1.66Z"/><path d="M458.77,152.9v1.67q-58.9,0-117.83,0V152.9Z"/><path d="M458.77,77.73V79.4q-58.9,0-117.83,0V77.73Z"/><path d="M458.77,210.32V212H340.94v-1.67Q399.86,210.31,458.77,210.32Z"/><path d="M458.77,41v1.11H340.94V41Q399.86,41,458.77,41Z"/><path d="M458.77,99.73v1.12H340.94V99.72Q399.86,99.7,458.77,99.73Z"/><path d="M458.77,138.2v1.11H340.94v-1.15Q399.86,138.16,458.77,138.2Z"/><path d="M458.77,123.08v1.11H340.94V123Q399.86,123,458.77,123.08Z"/><path d="M458.77,93v1.13q-58.9,0-117.83,0V93Z"/><path d="M458.77,165.58v1q-59,0-117.83,0v-1C380.43,165.55,419.61,165.55,458.77,165.58Z"/><path d="M458.77,84.74v1.08q-58.9,0-117.83-.16v-.92Z"/><path d="M458.77,180.7v1q-59,0-117.83,0v-1C380.43,180.68,419.61,180.68,458.77,180.7Z"/><path d="M458.77,183.23v1.15q-58.9,0-117.83,0v-1.11Z"/><path d="M458.77,63.14v1c-39.47,0-78.65,0-117.83,0v-1Q400,63.11,458.77,63.14Z"/><path d="M458.77,58.69v1H340.94v-1Q399.86,58.67,458.77,58.69Z"/><path d="M458.77,116.16v1.12H340.94v-1.15Q399.86,116.13,458.77,116.16Z"/><path d="M458.77,56.22v1.15q-58.9,0-117.83,0V56.22Z"/><path d="M458.77,120.48v1.13H340.94v-1.16Q399.86,120.45,458.77,120.48Z"/></svg>