<svg xmlns="http://www.w3.org/2000/svg" viewBox="0 0 137.95 139.66"><defs><style>.cls-1{fill:#fff;}.cls-2{fill:#1d1d1b;}</style></defs><title>Facebook SvartVit</title><g id="Lager_2" data-name="Lager 2"><path class="cls-1" d="M59.17,136.33H48.39c-.75-.08-1.5-.21-2.26-.22-4.67-.07-9.35-.07-14-.17-13.73-.27-24.46-9-27.49-22.32-.6-2.63-.89-5.34-1.32-8V40.91c.09-1,.17-1.93.26-2.89.35-4,.27-8.1,1.14-12C7.4,13.94,15.08,6.52,27.23,4.24c4.29-.81,8.78-.48,13.18-.63,4-.12,7.93-.19,11.9-.28h52c2.26.33,4.52.61,6.76,1a27.48,27.48,0,0,1,23,25c.16,2.22.41,4.43.61,6.64v71.56c-.22,1.34-.45,2.67-.65,4-1.79,11.53-10.45,21.39-21.88,23.5-2.82.52-5.67.85-8.51,1.26H79.76a13.4,13.4,0,0,1-.21-1.76q0-22,0-43.94V88.94c4.74,0,9.26,0,13.77,0,1.27,0,1.71-.39,1.85-1.6.16-1.46.53-2.89.8-4.33.82-4.31,1.63-8.62,2.48-13.15h-19c0-4,0-7.7,0-11.45a22.59,22.59,0,0,1,.34-3.57c.83-5,3.69-7.5,8.77-7.74,1.74-.08,3.48-.23,5.22-.28,1.49-.05,3,0,4.47,0V30.07c-5.63-.19-11.17-.64-16.69-.5a23.11,23.11,0,0,0-13.3,4.34c-5.8,4.25-8.09,10.46-8.73,17.22-.52,5.57-.3,11.2-.4,16.8,0,.58,0,1.15,0,1.81-5.25,0-10.26.05-15.27,0-1.32,0-1.65.41-1.64,1.67.06,5.29,0,10.57,0,15.85,0,.46.09.92.15,1.58h16.9c0,.59.08,1,.08,1.34q0,22.29,0,44.59A10.88,10.88,0,0,1,59.17,136.33Z"/><path class="cls-2" d="M103.85,139.66h-27l-.35-2.93c0-.15,0-.3-.07-.45a11.2,11.2,0,0,1-.16-1.71q0-18.4,0-36.82V85.61h7.23c3,0,5.77,0,8.6,0,.12-.66.25-1.28.38-1.89l.27-1.31,1.73-9.2H76.13V66.59c0-2.78,0-5.48,0-8.18a28,28,0,0,1,.39-4.08c1.09-6.57,5.21-10.21,11.9-10.52l2.16-.13c1-.06,2.07-.13,3.11-.16l1.25,0V33.27L93,33.18C89.1,33,85.4,32.8,81.67,32.9a19.65,19.65,0,0,0-11.41,3.7c-4.38,3.21-6.73,7.93-7.38,14.84-.35,3.71-.35,7.43-.35,11.36,0,1.73,0,3.46,0,5.19,0,.36,0,.73,0,1.11v4H54.9c-3.19,0-6.24,0-9.3,0,0,3,0,6.07,0,9v3.38H62.45l.24,3.61c0,.4.05.73.05,1.06q0,22.29,0,44.59a8.66,8.66,0,0,1-.2,1.72c0,.12-.05.24-.06.37L62,139.66h-14l-.79-.1c-.43-.05-.84-.1-1.17-.11l-5.88-.06q-4.08,0-8.18-.1C16.76,139,4.73,129.19,1.36,114.36c-.44-1.93-.72-3.86-1-5.73C.25,107.8.14,107,0,106.14l0-.53v-65l.26-2.9c.1-1.2.17-2.4.24-3.67a52,52,0,0,1,1-8.74C4.43,11.92,13.14,3.5,26.62,1A52.87,52.87,0,0,1,36.53.33c1.26,0,2.52,0,3.78,0,2.77-.09,5.54-.14,8.31-.2L52.23,0h52.28l.24,0,2.09.29c1.55.22,3.15.44,4.75.72a30.84,30.84,0,0,1,25.78,28.09c.1,1.47.25,3,.4,4.47.07.7.14,1.39.2,2.09l0,.31v71.84l-.26,1.55c-.15.89-.3,1.79-.44,2.68-2,13.17-12.15,24-24.57,26.27-2,.37-4,.64-6,.91l-2.65.37Zm-21-6.66h20.49l2.47-.35c2-.26,3.82-.51,5.67-.86,9.68-1.78,17.57-10.31,19.19-20.73l.45-2.77.17-1V36.17l-.18-1.9c-.15-1.52-.31-3.09-.42-4.66a24.21,24.21,0,0,0-20.27-22c-1.48-.25-3-.47-4.52-.68L104,6.67H52.31l-3.55.07c-2.75.06-5.49.12-8.24.21-1.32,0-2.65,0-4,0a48.59,48.59,0,0,0-8.68.52C17,9.55,10.35,16,8,26.77a46.91,46.91,0,0,0-.83,7.65C7.05,35.69,7,37,6.87,38.31l-.25,2.75v64.29c.13.77.24,1.55.35,2.32.26,1.82.51,3.54.89,5.21,2.71,11.93,12,19.49,24.31,19.73,2.7.06,5.4.08,8.1.1l5.91.07a16.91,16.91,0,0,1,1.9.16l.48.06h7.51q0-20.41,0-40.86H39.4l-.29-3q0-.3-.06-.54a11.11,11.11,0,0,1-.1-1.36V82.09c0-3.5,0-7.12,0-10.67a4.58,4.58,0,0,1,5-5c3.61.05,7.18.05,11,0h1c0-1.2,0-2.41,0-3.62,0-3.91,0-7.95.38-12,.83-8.83,4.13-15.24,10.07-19.6a26.36,26.36,0,0,1,15.19-5c4-.1,8,.1,11.85.29,1.68.08,3.36.16,5.05.22l3.21.12V50.17H96.9c-1,0-2,0-3,0s-1.93.09-2.9.15c-.75.05-1.51.1-2.27.13-3.53.17-5.06,1.51-5.63,5a20,20,0,0,0-.3,3.06c0,2.67,0,5.34,0,8.07h19.67L99.24,83.66l-.3,1.45c-.19.92-.38,1.8-.47,2.62a4.74,4.74,0,0,1-5.22,4.57c-3.22,0-6.41,0-9.79,0h-.59v5.48Q82.87,115.38,82.88,133Z"/></g></svg>