<svg xmlns="http://www.w3.org/2000/svg" viewBox="0 0 137.95 139.66"><defs><style>.cls-1{fill:#fff;}</style></defs><title>Facebook Vit</title><g id="Lager_2" data-name="Lager 2"><path class="cls-1" d="M58.68,139.66H47.35c-.78-.08-1.57-.21-2.36-.23-4.91-.07-9.83-.07-14.74-.17C15.83,139,4.57,129.85,1.39,115.82c-.63-2.77-.94-5.61-1.39-8.41V39.46l.27-3c.37-4.2.29-8.5,1.2-12.57C4.31,11.13,12.37,3.35,25.14,1,29.64.1,34.36.45,39,.3,43.14.16,47.31.1,51.47,0H106c2.37.35,4.74.64,7.09,1.05,12.5,2.16,23.2,12.26,24.18,26.3.17,2.32.43,4.64.65,7v75.15c-.24,1.4-.48,2.8-.7,4.2-1.87,12.11-11,22.46-23,24.68-3,.55-6,.89-8.93,1.32h-25a14.58,14.58,0,0,1-.22-1.85q0-23.07,0-46.14V89.9c5,0,9.72-.05,14.46,0,1.33,0,1.8-.41,1.94-1.68.17-1.53.56-3,.84-4.55.86-4.52,1.71-9,2.61-13.81H80c0-4.15,0-8.08,0-12a26.3,26.3,0,0,1,.36-3.75c.88-5.26,3.88-7.87,9.21-8.12,1.83-.09,3.65-.24,5.48-.3,1.57-.05,3.15,0,4.7,0V28.08c-5.91-.21-11.73-.68-17.53-.53a24.28,24.28,0,0,0-14,4.56c-6.08,4.46-8.49,11-9.16,18.09C58.54,56,58.78,62,58.67,67.84c0,.6,0,1.2,0,1.9-5.52,0-10.78,0-16,0-1.39,0-1.74.42-1.73,1.75.07,5.55,0,11.09,0,16.64,0,.49.08,1,.15,1.66H58.84c0,.62.09,1,.09,1.41q0,23.42,0,46.82A11.79,11.79,0,0,1,58.68,139.66Z"/></g></svg>