<svg xmlns="http://www.w3.org/2000/svg" viewBox="0 0 137.95 139.66"><defs><style>.cls-1{fill:#fff;}.cls-2{fill:#1d1d1b;}</style></defs><title>Instagram Svartvit</title><g id="Lager_2" data-name="Lager 2"><path class="cls-1" d="M49.64,135.31l-1.07-.07-2.24-.16c-1.19-.11-2.38-.19-3.57-.28a80.7,80.7,0,0,1-8.61-.91,35.16,35.16,0,0,1-23.75-15c-4.1-6-6.26-13-6.81-22.06-.11-1.86-.21-3.71-.31-5.57l-.14-2.46V50.11l.08-.81c0-.45.09-.9.13-1.35.11-1.34.2-2.68.29-4a84.91,84.91,0,0,1,.93-9.26A35.05,35.05,0,0,1,18.79,11.46C24.9,7,32.16,4.67,41.63,4.1l5.48-.31,2.55-.14H88.3l1.11.07,2.2.16c1.19.11,2.39.19,3.58.28a83.37,83.37,0,0,1,8.61.91,35.16,35.16,0,0,1,23.74,15c4.1,6,6.27,13,6.82,22.06.1,1.77.2,3.54.29,5.31l.15,2.72V88.85l-.07.81c0,.45-.09.9-.13,1.35-.12,1.34-.2,2.68-.29,4a90.17,90.17,0,0,1-.93,9.26,35,35,0,0,1-14.22,23.21c-6.12,4.45-13.37,6.79-22.84,7.36l-5.49.31-2.55.14ZM70.3,21.24q-8.4,0-16.8.07a97.19,97.19,0,0,0-16.12,1c-8.47,1.49-14.25,7.27-15.47,15.46a114.94,114.94,0,0,0-1.07,15.12c-.18,12.07-.1,24,0,33.13v1c0,5.21.08,10.12,1.19,14.92,1.69,7.27,5.87,11.85,12.77,14a38.6,38.6,0,0,0,10.76,1.45c5.52.12,11,.19,16.55.27l3.72,0v-.07H78.32c2,0,3.92,0,5.88,0h1.29a94.18,94.18,0,0,0,15.08-1c8.47-1.48,14.25-7.26,15.46-15.46a116.74,116.74,0,0,0,1.08-15.23c.16-10.44.11-20.64,0-31.93a97,97,0,0,0-1-16.12c-1.5-8.48-7.28-14.26-15.46-15.47a115.22,115.22,0,0,0-15.24-1.07C80.82,21.28,75.87,21.24,70.3,21.24Z"/><path class="cls-2" d="M88.19,6.79c1,.07,2.1.13,3.14.22,4,.36,8,.46,11.92,1.15A32.12,32.12,0,0,1,125,21.86c4.23,6.15,5.83,13.14,6.27,20.47.16,2.64.3,5.29.44,7.93V88.7c-.06.68-.13,1.36-.19,2-.38,4.34-.45,8.73-1.19,13a32,32,0,0,1-13,21.2c-6.3,4.58-13.55,6.3-21.18,6.77-2.65.16-5.29.29-7.94.44H49.75c-1-.07-2.09-.13-3.14-.22-4-.36-8-.46-11.92-1.15A32.11,32.11,0,0,1,13,117.1C8.77,111,7.17,104,6.73,96.63c-.16-2.64-.3-5.28-.45-7.93V50.26c.07-.68.14-1.36.2-2,.37-4.34.45-8.73,1.18-13A32,32,0,0,1,20.64,14c6.3-4.58,13.55-6.3,21.18-6.77,2.64-.16,5.29-.29,7.93-.44H88.19M69,120.94v-.13l9.36,0c2,0,4,0,5.93,0,5.63-.09,11.28-.09,16.86-1.07,9.62-1.69,16.6-8.44,18-18.1A120.22,120.22,0,0,0,120.25,86c.16-10.66.11-21.33,0-32a99.8,99.8,0,0,0-1.06-16.65c-1.69-9.62-8.44-16.6-18.09-18A122.12,122.12,0,0,0,85.48,18.2q-7.59-.11-15.18-.1-8.41,0-16.82.07a99.68,99.68,0,0,0-16.64,1.06c-9.63,1.7-16.6,8.44-18,18.1a116.83,116.83,0,0,0-1.1,15.54c-.16,11.06-.12,22.13,0,33.2.05,5.55,0,11.14,1.28,16.61,1.91,8.21,6.78,13.76,14.89,16.3a41.21,41.21,0,0,0,11.63,1.59c7.83.17,15.65.25,23.48.37M88.41.51h-39L46.93.65,41.44,1c-10.1.62-17.88,3.15-24.5,8A38.11,38.11,0,0,0,1.47,34.14a90.66,90.66,0,0,0-1,9.58c-.09,1.37-.17,2.66-.28,4,0,.45-.08.89-.13,1.33L0,49.66,0,50V89.05l.14,2.48c.09,1.83.19,3.65.3,5.48.59,9.68,2.92,17.19,7.37,23.65C13.93,129.55,22.6,135,33.6,137a86.31,86.31,0,0,0,8.94.95c1.21.08,2.36.16,3.51.27l2.31.16,1,.07H88.54l2.49-.13,5.48-.31c10.1-.62,17.88-3.14,24.49-8a38.13,38.13,0,0,0,15.48-25.22,90.59,90.59,0,0,0,1-9.58c.09-1.37.18-2.66.29-3.95l.12-1.32.07-.67,0-.3V49.91l-.14-2.47c-.1-1.83-.2-3.66-.31-5.49-.58-9.68-2.92-17.19-7.36-23.65C124,9.41,115.34,3.92,104.35,2a87,87,0,0,0-8.94-1C94.19.94,93,.86,91.9.76,91.13.69,90.36.64,89.59.59l-1-.07ZM62.75,114.57h-.57c-5.44-.08-11-.16-16.57-.27a36,36,0,0,1-9.88-1.3c-5.83-1.83-9.21-5.56-10.64-11.73C24.05,96.8,24,92.06,24,87V86C23.88,77,23.81,65,24,53a112.14,112.14,0,0,1,1-14.71c1-6.79,5.83-11.58,12.91-12.83a95.33,95.33,0,0,1,15.59-1c5.37,0,11.08-.07,16.78-.07s10.49,0,15.08.11a112.3,112.3,0,0,1,14.83,1c6.78,1,11.58,5.83,12.82,12.9A94.29,94.29,0,0,1,114,54c.08,11.26.13,21.43,0,31.86a113.81,113.81,0,0,1-1,14.82c-1,6.79-5.82,11.59-12.9,12.83a91.56,91.56,0,0,1-14.57.95l-1.3,0c-1.72,0-3.58,0-5.83,0H62.75v0Z"/><path class="cls-1" d="M69,104.8A35.24,35.24,0,1,1,94,94.47,35.36,35.36,0,0,1,69,104.8Zm0-53.06h-.57a17.74,17.74,0,0,0,.53,35.47h.63A17.74,17.74,0,0,0,69,51.74Z"/><path class="cls-2" d="M69,37.3a32.18,32.18,0,0,1,0,64.36h0A32.18,32.18,0,0,1,69,37.3h0m0,53.06h.73A20.89,20.89,0,0,0,69,48.59l-.67,0a20.88,20.88,0,0,0,.64,41.75M69,31h0A38.39,38.39,0,1,0,96.19,42.26,38.2,38.2,0,0,0,69,31Zm0,53.06a14.6,14.6,0,0,1-.4-29.2H69a14.6,14.6,0,0,1,.48,29.19Z"/><path class="cls-1" d="M102.29,46.66a10.52,10.52,0,0,1-10.5-10.73,10.64,10.64,0,0,1,18.26-7.39,10.52,10.52,0,0,1,3.08,7.58A10.63,10.63,0,0,1,102.4,46.66Z"/><path class="cls-2" d="M102.44,28.47h0A7.61,7.61,0,0,1,110,36.08a7.52,7.52,0,0,1-7.59,7.44h-.08A7.42,7.42,0,0,1,94.93,36a7.52,7.52,0,0,1,7.51-7.48m0-6.29h0A13.84,13.84,0,0,0,88.65,35.92,13.63,13.63,0,0,0,102.26,49.8h.14a13.77,13.77,0,0,0,9.89-23.46,13.93,13.93,0,0,0-9.84-4.16Z"/></g></svg>