<svg xmlns="http://www.w3.org/2000/svg" viewBox="0 0 137.95 139.66"><defs><style>.cls-1{fill:#fff;}</style></defs><title>Instagram Vit</title><g id="Lager_2" data-name="Lager 2"><path class="cls-1" d="M138,48.68V91c-.08.75-.15,1.5-.22,2.25-.41,4.77-.49,9.6-1.3,14.31a35.24,35.24,0,0,1-14.28,23.33c-6.93,5-14.9,6.93-23.3,7.44-2.91.18-5.82.33-8.73.49H47.82c-1.15-.08-2.3-.14-3.45-.24-4.37-.4-8.8-.51-13.11-1.27-10-1.76-18.09-6.66-23.88-15.07C2.73,115.46,1,107.76.49,99.7.31,96.79.16,93.89,0,91V48.68c.07-.75.15-1.5.21-2.25.42-4.77.5-9.61,1.31-14.31A35.21,35.21,0,0,1,15.79,8.79c6.93-5,14.91-6.94,23.31-7.45L47.82.85h42.3c1.15.09,2.31.15,3.45.25,4.38.39,8.81.5,13.12,1.26,10,1.76,18.09,6.66,23.87,15.08,4.65,6.76,6.41,14.45,6.9,22.51C137.63,42.86,137.78,45.77,138,48.68ZM69,126.44v-.13c5.61,0,11.21.06,16.82,0,6.2-.09,12.41-.1,18.55-1.18,10.59-1.86,18.27-9.28,19.84-19.91A131.9,131.9,0,0,0,125.39,88c.18-11.74.12-23.47,0-35.21a110,110,0,0,0-1.17-18.31C122.39,23.88,115,16.2,104.35,14.63a132.05,132.05,0,0,0-17.22-1.22c-11.73-.18-23.47-.12-35.2,0a109.13,109.13,0,0,0-18.32,1.16C23,16.41,15.35,23.83,13.78,34.45a128.53,128.53,0,0,0-1.22,17.1c-.18,12.17-.13,24.35,0,36.53.05,6.11,0,12.26,1.41,18.27,2.1,9,7.45,15.14,16.38,17.94A45.4,45.4,0,0,0,43.13,126C51.74,126.22,60.35,126.32,69,126.44Z"/><path class="cls-1" d="M69,34.42A35.41,35.41,0,1,1,33.57,69.84,35.34,35.34,0,0,1,69,34.42Zm-.74,12.44A23,23,0,1,0,91.93,69.08,23,23,0,0,0,68.22,46.86Z"/><path class="cls-1" d="M97.54,32.94a8.27,8.27,0,0,1,8.26-8.24,8.38,8.38,0,0,1,8.3,8.38,8.27,8.27,0,0,1-8.44,8.18A8.15,8.15,0,0,1,97.54,32.94Z"/></g></svg>