<svg xmlns="http://www.w3.org/2000/svg" width="512" height="512" id="cabin"><path fill="#E4962E" d="M488 472.007c8.8 0 16 7.2 16 16s-7.2 16-16 16H24c-4.4 0-8.4-1.76-11.28-4.72-2.96-2.88-4.72-6.88-4.72-11.28 0-8.8 7.2-16 16-16h464z"></path><path fill="#AB7123" d="M504 488.007c0 8.8-7.2 16-16 16H24c-4.4 0-8.4-1.76-11.28-4.72-2.96-2.88-4.72-6.88-4.72-11.28 0-8.8 7.2-16 16-16h8c0 4.4 1.76 8.4 4.72 11.28 2.88 2.96 6.88 4.72 11.28 4.72h456z"></path><path fill="#D8ECF1" d="M469.52 226.007c8.8 5.04 13.04 16.08 8.88 26.24-4.96 11.76-19.36 15.76-30.48 9.44l-2.88-1.68c-3.44-1.92-7.76-1.12-10.24 1.92-.8 1.04-1.76 2.16-2.8 3.36-5.52 6.48-13.68 14.08-21.68 14.64-6.64.48-12.96-1.12-18.32-4.24-2.56-1.44-4.88-3.2-6.88-5.28-4.96-5.12-12.64-6.96-18.8-3.36-4.64 2.64-9.84 4.96-14.32 4.96-14.56 0-23.28-5.92-27.6-16-2-4.8-3.12-10.48-3.36-16.96-.16-3.84-3.04-6.88-6.88-7.6-6.88-1.2-13.36-4.8-18.32-10.48a31.38 31.38 0 0 1-3.6-4.96c-2.96-5.12-4.32-10.88-4.16-16.56.08-4-2.56-7.36-6.56-8.08-17.04-3.12-22.72-16.56-24.56-25.12-.8-4-4.64-6.4-8.64-6.08-1.76.16-3.36.16-4.88 0-27.44-1.28-27.44-32.96-27.36-33.36l39.92-22.8 213.52 122z"></path><path fill="#8FCBF7" d="M478.4 252.247c-4.96 11.76-19.36 15.76-30.48 9.44l-2.88-1.68c-3.44-1.92-7.76-1.12-10.24 1.92-.8 1.04-1.76 2.16-2.8 3.36-5.52 6.48-13.68 14.08-21.68 14.64-6.64.48-12.96-1.12-18.32-4.24-2.56-1.44-4.88-3.2-6.88-5.28-4.96-5.12-12.64-6.96-18.8-3.36-4.64 2.64-9.84 4.96-14.32 4.96-14.56 0-23.28-5.92-27.6-16-2-4.8-3.12-10.48-3.36-16.96-.16-3.84-3.04-6.88-6.88-7.6-6.88-1.2-13.36-4.8-18.32-10.48a31.38 31.38 0 0 1-3.6-4.96c-2.96-5.12-4.32-10.88-4.16-16.56.08-4-2.56-7.36-6.56-8.08-17.04-3.12-22.72-16.56-24.56-25.12-.8-4-4.64-6.4-8.64-6.08-1.76.16-3.36.16-4.88 0-27.44-1.28-27.44-32.96-27.36-33.36l11.52-6.56c3.84 6.64 10.56 12.48 22 13.04 1.52.16 3.12.16 4.88 0 4-.32 7.84 2.08 8.64 6.08 1.84 8.56 7.52 22 24.56 25.12 4 .72 6.64 4.08 6.56 8.08-.16 5.68 1.2 11.44 4.16 16.56a31.38 31.38 0 0 0 3.6 4.96c4.96 5.68 11.44 9.28 18.32 10.48 3.84.72 6.72 3.76 6.88 7.6.24 6.48 1.36 12.16 3.36 16.96 4.32 10.08 13.04 16 27.6 16 4.48 0 9.68-2.32 14.32-4.96 6.16-3.6 13.84-1.76 18.8 3.36 2 2.08 4.32 3.84 6.88 5.28a31.754 31.754 0 0 0 18.32 4.24c8-.56 16.16-8.16 21.68-14.64 1.04-1.2 2-2.32 2.8-3.36 2.48-3.04 6.8-3.84 10.24-1.92l2.88 1.68c7.6 4.32 16.8 3.84 23.36-.72 2.88 5.36 3.52 11.92.96 18.16z"></path><circle cx="464" cy="48.007" r="16" fill="#8FCBF7"></circle><circle cx="424" cy="128.007" r="24" fill="#3482F1"></circle><path fill="#E4962E" d="M432 265.287v206.72h-40v-196.32a31.754 31.754 0 0 0 18.32 4.24c8-.56 16.16-8.16 21.68-14.64z"></path><path fill="#AB7123" d="M264 432.007h128v40H264z"></path><path fill="#BC8D4F" d="M392 384.007v48H264v-48h24v16h80v-16z"></path><path fill="#AB7123" d="M392 336.007v48h-24v-48z"></path><path fill="#BC8D4F" d="M392 296.007v40h-24v-16h-80v16h-40.88c-10.08-9.92-23.84-16-39.12-16s-29.04 6.08-39.12 16H120v-40h272z"></path><path fill="#AB7123" d="M392 275.687v20.32H120v-40h204.4c4.32 10.08 13.04 16 27.6 16 4.48 0 9.68-2.32 14.32-4.96 6.16-3.6 13.84-1.76 18.8 3.36 2 2.08 4.32 3.84 6.88 5.28z"></path><circle cx="376" cy="64.007" r="16" fill="#8FCBF7"></circle><path fill="#D8ECF1" d="M368 384.007v16h-40v-40h40zM368 336.007v24h-40v-40h40zM328 360.007v40h-40v-40zM328 320.007v40h-40v-40z"></path><path fill="#BC8D4F" d="M324.4 256.007H120v-26l24.8-14h147.44a31.38 31.38 0 0 0 3.6 4.96c4.96 5.68 11.44 9.28 18.32 10.48 3.84.72 6.72 3.76 6.88 7.6.24 6.48 1.36 12.16 3.36 16.96z"></path><path fill="#AB7123" d="M292.24 216.007H144.8l98.64-55.84c1.52.16 3.12.16 4.88 0 4-.32 7.84 2.08 8.64 6.08 1.84 8.56 7.52 22 24.56 25.12 4 .72 6.64 4.08 6.56 8.08-.16 5.68 1.2 11.44 4.16 16.56zm-4.24 144v24h-24v-8c0-15.68-6.48-29.92-16.88-40H288v24z"></path><path fill="#E33946" d="M264 432.007v40H152v-96c0-15.52 6.24-29.44 16.4-39.6.16-.16.32-.32.48-.4 10.08-9.92 23.84-16 39.12-16s29.04 6.08 39.12 16c10.4 10.08 16.88 24.32 16.88 40v56z"></path><path fill="#B71A3C" d="M208 320.007c-15.28 0-29.04 6.08-39.12 16-.16.08-.32.24-.48.4-10.16 10.16-16.4 24.08-16.4 39.6v96h39.12v-80c0-15.52 6.24-29.44 16.4-39.6.16-.16.32-.32.48-.4 10.08-9.92 23.84-16 39.12-16-10.08-9.92-23.84-16-39.12-16z"></path><path fill="#AB7123" d="m80 252.647-16.8 9.52c-13.92 8-31.2-2.08-31.2-18.08 0-7.44 4-14.4 10.48-18.08l173.6-99.2c-.08.4-.08 32.08 27.36 33.36l-98.64 55.84-24.8 14-40 22.64z"></path><circle cx="208" cy="360.007" r="16" fill="#D8ECF1"></circle><path fill="#AB7123" d="M168.88 336.007c-.16.08-.32.24-.48.4-10.16 10.16-16.4 24.08-16.4 39.6v8h-32v-48h48.88zM120 432.007h32v40h-32z"></path><path fill="#BC8D4F" d="M120 384.007h32v48h-32z"></path><path fill="#704C21" d="M264 441.123v30.884h128v-28.485c-43.466 17.316-89.512 16.513-128-2.399z"></path><path fill="#AB7123" d="M186.804 296.007H120v40h48.88a55.728 55.728 0 0 1 17.051-11.454c-.566-9.457-.243-19.026.873-28.546z"></path><path fill="#704C21" d="M120 256.007v40h66.804a163.765 163.765 0 0 1 9.892-40H120z"></path><path fill="#AB7123" d="m144.8 216.007-24.8 14v26h76.695c5.522-14.266 13.129-27.796 22.765-40H144.8z"></path><path fill="#704C21" d="M262.516 179.322c-3.05-4.432-4.73-9.234-5.556-13.075-.8-4-4.64-6.4-8.64-6.08-1.76.16-3.36.16-4.88 0l-98.64 55.84h74.661c11.463-14.518 25.835-27.083 43.055-36.685zM168.88 336.007c-.16.08-.32.24-.48.4-10.16 10.16-16.4 24.08-16.4 39.6v8h-32v-48h48.88zM120 432.007h32v40h-32z"></path><path fill="#AB7123" d="M120 384.007h32v48h-32zM120 432.007v40H80v-219.36l40-22.64v154z"></path><path fill="#EE8890" d="M176 408.007c-4.422 0-8 3.578-8 8v8c0 4.422 3.578 8 8 8s8-3.578 8-8v-8c0-4.422-3.578-8-8-8z"></path><circle cx="416" cy="48.007" r="8" fill="#3482F1"></circle><circle cx="360" cy="120.007" r="8" fill="#8FCBF7"></circle><circle cx="344" cy="24.007" r="8" fill="#3482F1"></circle><circle cx="472" cy="168.007" r="8" fill="#8FCBF7"></circle><circle cx="472" cy="104.007" r="8" fill="#3482F1"></circle><path fill="#8FCBF7" d="M368 312.007h-80c-4.422 0-8 3.578-8 8v80c0 4.422 3.578 8 8 8h80c4.422 0 8-3.578 8-8v-80c0-4.422-3.578-8-8-8zm-8 40h-24v-24h24v24zm-40-24v24h-24v-24h24zm-24 40h24v24h-24v-24zm40 24v-24h24v24h-24z"></path></svg>