<?xml version="1.0" encoding="UTF-8"?>
<svg id="Layer_1" data-name="Layer 1" xmlns="http://www.w3.org/2000/svg" viewBox="0 0 442 68">
  <defs>
    <style>
      .cls-1 {
        fill: #604747;
      }

      .cls-2 {
        fill: #256a30;
      }
    </style>
  </defs>
  <path class="cls-1" d="m16.9,13.12c32.48,12.4,55.77-2.52,106.28-3.75,6.65-.16,17.05-.17,29.93.96,11.07-4.34,20.72-6.48,27.91-7.62,8.41-1.33,21.19-3.23,36.8,0,9.01,1.86,17.42,5.11,17.27,5.83-.12.59-5.98-1.02-15.02-1.67-15.71-1.12-27.47,1.65-30.79,2.5-4.33,1.1-10.3,2.96-17.17,6.26,9.29,2.04,23.8,4.47,41.58,4.15,22.66-.41,27.51-4.89,58.32-7.78,4.95-.46,20.3-.98,51-2,21.97-.73,32.96-1.1,38-1,17.1.34,23.63,1.55,38,0,6.48-.7,9.88-1.46,18-2,10.48-.7,19.15-.39,25,0-3.71.46-12.23,1.53-16,2-49.61,6.19-54.06,6.61-59,7-9.79.77-23.3,1.83-41,2-9.31.09-19.26-.08-33,2-7.32,1.11-13.31,2.49-17.36,3.53,1.69,1.14,4.25,2.72,7.51,4.16,8.44,3.73,12.01,2.31,21.78,4.16,13.78,2.62,14.09,6.84,27.04,9.16,1.6.29,5.12.85,9.01,3.33,1.11.71,1.16,1.38.45,1.89-1.63,1.19-7.24,1.57-13.22-.23-6.46-1.95-6.24-1.96-8.26-2.5-11.73-3.09-15.14-1.41-26.29-3.33-9.48-1.63-9.25-3.22-21.78-5.83-6.95-1.44-12.72-2.14-16.52-2.5-4.38.81-10.43,1.86-17.65,2.91,0,0-29.05,4.25-57.83,5-47.38,1.22-61.79-9.65-96.89-8.33-19.84.75-48.43,5.48-82.99,24.56V4.38c3.27,2.18,9.13,5.78,16.9,8.74Z"/>
  <g>
    <path class="cls-1" d="m340.88,44.52h2.67c4.34-6.54,8.68-13.08,13.02-19.62-3.59,6.54-7.18,13.08-10.77,19.62l14.69,1.96c3.27-4.58,6.54-9.15,9.81-13.73-2.62,4.58-5.23,9.15-7.85,13.73,7.85.65,15.69,1.31,23.54,1.96h-23.54c3.27,5.23,6.54,10.46,9.81,15.69-3.92-5.23-7.85-10.46-11.77-15.69h-15.69c2.62,5.88,5.23,11.77,7.85,17.65-3.27-5.88-6.54-11.77-9.81-17.65l-7.85-1.96v-5.26l5.88,3.3Z"/>
    <path class="cls-2" d="m381.07,47.87c.74-.33,1.49-.62,2.26-.87.18-.06.1-.35-.08-.29-.79.26-1.57.56-2.34.9-.18.08-.02.34.15.26h0Z"/>
    <path class="cls-2" d="m380.27,47.4c.88-.54,1.75-1.11,2.59-1.7.16-.11,0-.37-.15-.26-.85.59-1.71,1.16-2.59,1.7-.16.1-.01.36.15.26h0Z"/>
    <path class="cls-2" d="m377.06,47.43c1.18-.76,2.44-1.38,3.77-1.82.18-.06.1-.35-.08-.29-1.35.45-2.65,1.07-3.84,1.85-.16.1-.01.36.15.26h0Z"/>
    <path class="cls-2" d="m376.21,46.87l2.68-2.6c.14-.13-.07-.35-.21-.21l-2.68,2.6c-.14.13.07.35.21.21h0Z"/>
    <path class="cls-2" d="m372.61,47.2c1.82-.98,3.7-1.86,5.62-2.63.18-.07.1-.36-.08-.29-1.95.78-3.85,1.67-5.69,2.66-.17.09-.02.35.15.26h0Z"/>
    <path class="cls-2" d="m370.23,49.23c1.82-1.37,3.67-2.71,5.54-4.02.16-.11,0-.37-.15-.26-1.87,1.31-3.72,2.65-5.54,4.02-.15.11,0,.38.15.26h0Z"/>
    <path class="cls-2" d="m368.47,49.34c1.73-1.46,3.49-2.89,5.29-4.28.15-.12,0-.38-.15-.26-1.81,1.4-3.6,2.84-5.35,4.32-.15.12.07.34.21.21h0Z"/>
    <path class="cls-2" d="m367.2,48.04l6.64-4.6c.16-.11,0-.37-.15-.26l-6.64,4.6c-.16.11,0,.37.15.26h0Z"/>
    <path class="cls-2" d="m367.86,46.07c2.17-1.09,4.32-2.23,6.44-3.41.17-.09.02-.35-.15-.26-2.12,1.18-4.27,2.32-6.44,3.41-.17.09-.02.35.15.26h0Z"/>
    <path class="cls-2" d="m365.89,46.77c1.32-.9,2.6-1.85,3.86-2.84.15-.12-.06-.33-.21-.21-1.23.97-2.5,1.9-3.8,2.79-.16.11,0,.37.15.26h0Z"/>
    <path class="cls-2" d="m364.53,48.76c.66-1.13,1.43-2.2,2.28-3.2.12-.15-.09-.36-.21-.21-.87,1.02-1.65,2.11-2.32,3.26-.1.17.16.32.26.15h0Z"/>
    <path class="cls-2" d="m363.48,47.62l-.13.07.18.24c.88-.89,1.84-1.7,2.87-2.42.16-.11,0-.37-.15-.26-1.05.74-2.03,1.56-2.93,2.47-.12.12.03.32.18.24l.13-.07c.17-.09.02-.35-.15-.26h0Z"/>
    <path class="cls-2" d="m361.72,47.07c1.7-1.29,3.41-2.57,5.11-3.86.15-.11,0-.38-.15-.26-1.7,1.29-3.41,2.57-5.11,3.86-.15.11,0,.38.15.26h0Z"/>
    <path class="cls-2" d="m366.13,43.35c-.57.55-1.15,1.1-1.71,1.67-.28.28-.55.56-.82.85-.21.22-.55.48-.54.82,0,.19.31.19.3,0,0-.16.16-.29.26-.4.12-.13.24-.26.36-.38.26-.27.52-.53.78-.8.52-.52,1.05-1.03,1.58-1.54.14-.13-.07-.35-.21-.21h0Z"/>
    <path class="cls-2" d="m371.11,42.34c-.73,1.18-1.91,1.98-2.84,2.99-.13.14.08.35.21.21.95-1.03,2.14-1.84,2.89-3.05.1-.16-.16-.32-.26-.15h0Z"/>
    <path class="cls-2" d="m378.16,43.58c-1.6.85-3.2,1.7-4.81,2.56-.17.09-.02.35.15.26,1.6-.85,3.2-1.7,4.81-2.56.17-.09.02-.35-.15-.26h0Z"/>
    <path class="cls-2" d="m376.07,45.15l-2.73,1.7c-.16.1-.01.36.15.26l2.73-1.7c.16-.1.01-.36-.15-.26h0Z"/>
    <path class="cls-2" d="m377.99,45.32l-2.62,1.06c-.43.17-.86.35-1.29.52-.36.15-.7.3-1,.54-.15.12.06.33.21.21.33-.27.74-.42,1.14-.58l1.2-.48,2.44-.99c.18-.07.1-.36-.08-.29h0Z"/>
    <path class="cls-2" d="m378.13,45.76c-.77.69-1.62,1.3-2.52,1.81-.17.09-.02.35.15.26.93-.52,1.79-1.14,2.58-1.85.14-.13-.07-.34-.21-.21h0Z"/>
    <path class="cls-2" d="m380.62,46.15c-1.05.51-2.07,1.08-3.04,1.73-.16.11-.02.34.15.26.04-.02.08-.04.11-.05.17-.08.02-.34-.15-.26-.04.02-.08.04-.11.05l.15.26c.97-.65,1.99-1.22,3.04-1.73.17-.08.02-.34-.15-.26h0Z"/>
    <path class="cls-2" d="m382.62,46.68c-.9.61-1.87,1.11-2.9,1.48-.18.07-.1.36.08.29,1.05-.38,2.04-.89,2.97-1.51.16-.11,0-.37-.15-.26h0Z"/>
    <path class="cls-2" d="m376.24,45.4c-1.94.96-3.93,1.81-5.96,2.55-.18.07-.1.36.08.29,2.06-.75,4.07-1.61,6.03-2.58.17-.09.02-.34-.15-.26h0Z"/>
    <path class="cls-2" d="m370.5,45.62c-1.33.64-2.64,1.33-3.92,2.07l.23.13.04-.09c.13-.14-.08-.35-.21-.21-.09.09-.12.18-.13.3-.01.12.13.18.23.13,1.28-.74,2.58-1.43,3.92-2.07.17-.08.02-.34-.15-.26h0Z"/>
    <path class="cls-2" d="m367.48,45.02c-1.85.58-3.63,1.35-5.31,2.31-.17.1-.02.35.15.26,1.66-.95,3.41-1.71,5.24-2.28.18-.06.11-.35-.08-.29h0Z"/>
    <path class="cls-2" d="m368.12,44.22c-1.11.53-2.15,1.2-3.1,1.97-.15.12.06.33.21.21.94-.75,1.96-1.4,3.04-1.92.17-.08.02-.34-.15-.26h0Z"/>
    <path class="cls-2" d="m363.33,47.35c1.67.69,3.49,1.47,4.35,3.17.09.17.35.02.26-.15-.89-1.77-2.79-2.59-4.53-3.31-.18-.07-.26.22-.08.29h0Z"/>
    <path class="cls-2" d="m366.54,48.05c1.9,1.23,3.94,2.21,6.09,2.93.18.06.26-.23.08-.29-2.12-.71-4.14-1.69-6.02-2.9-.16-.11-.31.15-.15.26h0Z"/>
    <path class="cls-2" d="m361.77,47.4l4.09,3.91c.14.13.35-.08.21-.21l-4.09-3.91c-.14-.13-.35.08-.21.21h0Z"/>
    <path class="cls-2" d="m364.54,47.52c.92,1.42,2.28,2.51,3.86,3.11.18.07.26-.22.08-.29-1.51-.57-2.81-1.62-3.68-2.97-.1-.16-.36-.01-.26.15h0Z"/>
    <path class="cls-2" d="m367.99,48.3c.84.57,1.62,1.2,2.35,1.89.14.13.35-.08.21-.21-.75-.71-1.56-1.36-2.41-1.94-.16-.11-.31.15-.15.26h0Z"/>
    <path class="cls-2" d="m370.03,48.39l4.13,3.19c.15.12.3-.14.15-.26l-4.13-3.19c-.15-.12-.3.14-.15.26h0Z"/>
    <path class="cls-2" d="m371.95,49.02c1.83,1.37,3.78,2.58,5.83,3.62.17.09.32-.17.15-.26-2.04-1.04-3.99-2.25-5.83-3.62-.15-.12-.3.14-.15.26h0Z"/>
    <path class="cls-2" d="m375.05,48.73l2.29,1.45c.16.1.31-.16.15-.26l-2.29-1.45c-.16-.1-.31.16-.15.26h0Z"/>
    <path class="cls-2" d="m373.61,47.62c1.66.95,3.39,1.77,5.18,2.45.18.07.26-.22.08-.29-1.76-.67-3.47-1.48-5.11-2.42-.17-.1-.32.16-.15.26h0Z"/>
    <path class="cls-2" d="m378.13,48.87l1.65,1.41c.06.05.15.06.21,0,.05-.05.06-.16,0-.21l-1.65-1.41c-.06-.05-.15-.06-.21,0-.05.05-.06.16,0,.21h0Z"/>
    <path class="cls-2" d="m379.17,49.29c1.05.79,2.1,1.58,3.16,2.37.15.12.3-.14.15-.26-1.05-.79-2.1-1.58-3.16-2.37-.15-.12-.3.14-.15.26h0Z"/>
    <path class="cls-2" d="m380.48,48.82c.53.49,1.13.89,1.8,1.17.07.03.16.02.21-.05.04-.06.02-.17-.05-.21-.64-.27-1.23-.65-1.74-1.12-.14-.13-.35.08-.21.21h0Z"/>
    <path class="cls-2" d="m381.7,48.23l1.28,1.15c.06.05.15.06.21,0,.06-.06.06-.16,0-.21l-1.28-1.15c-.06-.05-.15-.06-.21,0-.06.06-.06.16,0,.21h0Z"/>
    <path class="cls-2" d="m375.3,48.51c1.51,1.22,2.7,2.92,4.61,3.57.18.06.26-.23.08-.29-1.85-.63-3.01-2.31-4.47-3.49-.15-.12-.36.09-.21.21h0Z"/>
    <path class="cls-2" d="m373.43,49.92l3.19,1.8c.17.09.32-.16.15-.26-.06-.03-.11-.07-.17-.1-.17-.1-.32.16-.15.26.06.03.11.07.17.1l.15-.26-3.19-1.8c-.17-.09-.32.16-.15.26h0Z"/>
    <path class="cls-2" d="m370.12,48.33c1.91,1.11,3.87,2.14,5.86,3.08.17.08.33-.18.15-.26-2-.94-3.95-1.97-5.86-3.08-.17-.1-.32.16-.15.26h0Z"/>
    <path class="cls-2" d="m366.15,47.85c1.19.82,2.32,1.71,3.41,2.66.14.13.36-.08.21-.21-1.1-.97-2.26-1.87-3.47-2.71-.16-.11-.31.15-.15.26h0Z"/>
    <path class="cls-2" d="m362.38,47.43c.97,1.06,1.99,2.07,3.07,3.01.14.13.36-.08.21-.21-1.08-.95-2.11-1.95-3.07-3.01-.13-.14-.34.07-.21.21h0Z"/>
    <path class="cls-2" d="m365.8,49.03c.71.64,1.42,1.28,2.2,1.83.39.27.79.52,1.22.73.21.1.84.49.9.04.03-.19-.27-.19-.3,0v.03s.02-.07.04-.11c0,0-.21-.1-.23-.11-.09-.04-.19-.09-.28-.13-.18-.09-.35-.18-.52-.28-.34-.2-.66-.42-.98-.66-.64-.48-1.23-1.02-1.83-1.56-.14-.13-.36.08-.21.21h0Z"/>
    <path class="cls-2" d="m367.71,48.23c.69.69,1.41,1.36,2.15,1.99.37.31.74.62,1.12.92.17.14.35.27.53.41.15.12.32.23.52.15.09-.04.14-.13.09-.22-.03-.06-.06-.12-.09-.18-.08-.17-.34-.02-.26.15.03.06.06.12.09.18l.09-.22c-.17.07-.49-.27-.6-.36-.16-.13-.33-.26-.49-.39-.34-.28-.68-.56-1.02-.85-.66-.57-1.3-1.17-1.92-1.79-.14-.14-.35.08-.21.21h0Z"/>
    <path class="cls-2" d="m372.16,49.32c.52.35,1.05.67,1.6.97.17.09.32-.17.15-.26-.55-.3-1.08-.62-1.6-.97-.16-.11-.31.15-.15.26h0Z"/>
    <path class="cls-2" d="m373.04,48.57l.55-.09s.07-.04.09-.07c.02-.03.03-.08.02-.12s-.03-.07-.07-.09c-.04-.02-.07-.02-.12-.02l-.55.09s-.07.04-.09.07c-.02.03-.03.08-.02.12s.03.07.07.09c.04.02.07.02.12.02h0Z"/>
    <path class="cls-2" d="m372.04,46.58c1.03,1.02,2.15,1.94,3.36,2.74.16.11.31-.15.15-.26-1.18-.79-2.29-1.69-3.3-2.69-.14-.14-.35.08-.21.21h0Z"/>
    <path class="cls-2" d="m372,47.51c1.55,1.74,3.34,3.25,5.31,4.49.16.1.31-.16.15-.26-1.95-1.23-3.72-2.72-5.25-4.44-.13-.14-.34.07-.21.21h0Z"/>
    <path class="cls-2" d="m373.63,47.93c1.37,1.13,2.91,2.04,4.56,2.7.18.07.26-.22.08-.29-1.6-.64-3.1-1.53-4.43-2.63-.15-.12-.36.09-.21.21h0Z"/>
    <path class="cls-2" d="m376.71,48.81l1.45.82c.23.13.47.27.7.4.1.06.23.1.31-.01.06-.08.04-.22-.06-.26-.08-.03-.16-.02-.21.05-.04.06-.02.17.05.21h.01s-.05-.05-.07-.08l.03-.1.11-.04s.01,0-.03-.02l-.08-.04-.12-.07-.27-.16-.57-.32-1.11-.63c-.17-.1-.32.16-.15.26h0Z"/>
    <path class="cls-2" d="m377.99,48.76c1.77.93,3.6,1.75,5.48,2.45.18.07.26-.22.08-.29-1.85-.7-3.65-1.5-5.41-2.42-.17-.09-.32.17-.15.26h0Z"/>
    <path class="cls-2" d="m374.99,48.22c2.81-1.1,5.48-2.55,7.94-4.31.16-.11,0-.37-.15-.26-2.44,1.75-5.08,3.18-7.87,4.28-.18.07-.1.36.08.29h0Z"/>
    <path class="cls-2" d="m371.5,46.6c1.76-.56,3.5-1.21,5.2-1.94.18-.08.02-.33-.15-.26-1.68.72-3.39,1.35-5.13,1.91-.18.06-.1.35.08.29h0Z"/>
    <path class="cls-2" d="m374.27,44.87l1.53-.57c.08-.03.13-.1.1-.18-.02-.07-.11-.13-.18-.1l-1.53.57c-.08.03-.13.1-.1.18.02.07.11.13.18.1h0Z"/>
    <path class="cls-2" d="m368.74,44.77c1.17-.71,2.4-1.34,3.66-1.87.18-.08.02-.33-.15-.26-1.26.54-2.49,1.16-3.66,1.87-.16.1-.01.36.15.26h0Z"/>
    <path class="cls-2" d="m364.63,47.81c.9-.65,1.68-1.44,2.3-2.36.11-.16-.15-.31-.26-.15-.59.87-1.34,1.64-2.19,2.25-.16.11,0,.37.15.26h0Z"/>
    <path class="cls-2" d="m364.03,46.52c.98-.98,1.87-2.04,2.69-3.15.11-.16-.15-.31-.26-.15-.8,1.1-1.69,2.13-2.65,3.09-.14.14.08.35.21.21h0Z"/>
    <path class="cls-2" d="m365.08,46.47l2.29-1.5c.16-.11.01-.36-.15-.26l-2.29,1.5c-.16.11-.01.36.15.26h0Z"/>
    <path class="cls-2" d="m368.13,46.92c.71-.83,1.49-1.6,2.33-2.31.15-.13-.07-.34-.21-.21-.84.71-1.61,1.48-2.33,2.31-.13.15.09.36.21.21h0Z"/>
    <path class="cls-2" d="m368.9,47.11c1.42-.91,2.81-1.86,4.17-2.85.15-.11,0-.37-.15-.26-1.36.99-2.75,1.94-4.17,2.85-.16.1-.01.36.15.26h0Z"/>
    <path class="cls-2" d="m372.1,46.56c.96-.66,1.94-1.28,2.94-1.87.17-.1.02-.36-.15-.26-1,.59-1.98,1.22-2.94,1.87-.16.11,0,.37.15.26h0Z"/>
    <path class="cls-2" d="m370.95,46.8c1.03-1.18,2.28-2.15,3.67-2.86.17-.09.02-.35-.15-.26-1.42.72-2.69,1.71-3.73,2.91-.13.14.08.36.21.21h0Z"/>
    <path class="cls-2" d="m372.95,47.24c1.64-.71,3.29-1.42,4.93-2.13.18-.08.02-.33-.15-.26-1.64.71-3.29,1.42-4.93,2.13-.18.08-.02.33.15.26h0Z"/>
    <path class="cls-2" d="m376.26,47.52c.44-.16.82-.42,1.21-.67s.78-.47,1.23-.51c.19-.02.19-.32,0-.3-.97.08-1.64.86-2.52,1.18-.18.07-.1.36.08.29h0Z"/>
    <path class="cls-2" d="m379.47,47.34l1.9-.55.91-.26.49-.14c.13-.04.28-.06.4-.13.05-.04.09-.1.07-.17-.02-.07-.06-.11-.13-.13s-.17.02-.18.1h0c-.04.2.25.28.29.09h0c-.06.02-.12.06-.18.09h.02s-.07-.06-.1-.1v.02c.03-.06.05-.11.08-.17-.12.08-.33.1-.47.14l-.42.12-.91.26-1.83.53c-.19.05-.11.34.08.29h0Z"/>
    <path class="cls-2" d="m381.63,47.83l2.77-1.22c.18-.08.02-.34-.15-.26l-2.77,1.22c-.18.08-.02.34.15.26h0Z"/>
    <path class="cls-2" d="m367.63,47.15c1.05-.46,2.01-1.07,2.88-1.81.15-.13-.07-.34-.21-.21-.85.72-1.8,1.31-2.82,1.76-.18.08-.02.34.15.26h0Z"/>
    <path class="cls-2" d="m370.47,47.17c.52-.4,1.06-.76,1.63-1.08.17-.09.02-.35-.15-.26-.59.33-1.16.71-1.69,1.12-.06.05-.05.16,0,.21.06.06.15.05.21,0h0Z"/>
    <path class="cls-2" d="m365.42,46.86c1.45-.76,2.79-1.73,3.97-2.85.14-.13-.07-.35-.21-.21-1.17,1.11-2.49,2.05-3.91,2.81-.17.09-.02.35.15.26h0Z"/>
    <path class="cls-2" d="m365.79,45.51l1.11-.98c.06-.05.05-.16,0-.21-.06-.06-.15-.05-.21,0l-1.11.98c-.06.05-.05.16,0,.21.06.06.15.05.21,0h0Z"/>
    <path class="cls-2" d="m361.37,46.47c-.22-1.53-.51-3.05-.86-4.56-.04-.19-.33-.11-.29.08.35,1.51.64,3.03.86,4.56.03.19.32.11.29-.08h0Z"/>
    <path class="cls-2" d="m360.18,41.83c.4,1.24.85,2.46,1.36,3.66.07.18.36.1.29-.08-.51-1.2-.96-2.42-1.36-3.66-.06-.18-.35-.1-.29.08h0Z"/>
    <path class="cls-2" d="m360.97,40.68c.17,1.85.65,3.66,1.44,5.35.08.17.34.02.26-.15-.76-1.64-1.23-3.4-1.4-5.2-.02-.19-.32-.19-.3,0h0Z"/>
    <path class="cls-2" d="m361.87,38.43c-.28.88-.05,1.87.1,2.75.17.98.39,1.95.67,2.91.05.19.34.11.29-.08-.26-.89-.47-1.79-.63-2.7s-.42-1.92-.14-2.8c.06-.18-.23-.26-.29-.08h0Z"/>
    <path class="cls-2" d="m362.25,39.15c.15,1.69.34,3.46,1.47,4.81.12.15.34-.07.21-.21-1.07-1.28-1.24-3-1.39-4.6-.02-.19-.32-.19-.3,0h0Z"/>
    <path class="cls-2" d="m362.64,38.81c.17,1.09.46,2.16.86,3.19.07.18.36.1.29-.08-.4-1.03-.69-2.1-.86-3.19-.03-.19-.32-.11-.29.08h0Z"/>
    <path class="cls-2" d="m363.19,37.4c.18,1.32.48,2.61.88,3.88.06.18.35.1.29-.08-.41-1.26-.7-2.56-.88-3.88-.03-.19-.32-.11-.29.08h0Z"/>
    <path class="cls-2" d="m364.22,38c.11.71.24,1.41.41,2.11.08.34.17.68.28,1.02.03.1.08.22.2.24s.21-.04.24-.15c.07-.18-.22-.26-.29-.08v.02s.04-.06.06-.09c.09.03.11.01.07-.06,0-.03-.02-.06-.03-.09-.02-.07-.04-.14-.06-.21-.03-.12-.07-.24-.1-.36-.07-.27-.14-.54-.2-.82-.12-.54-.22-1.08-.3-1.62-.03-.19-.32-.11-.29.08h0Z"/>
    <path class="cls-2" d="m365.7,36.64c0,.99.15,1.98.44,2.93.06.18.35.11.29-.08-.28-.93-.43-1.88-.43-2.85,0-.19-.3-.19-.3,0h0Z"/>
    <path class="cls-2" d="m365.16,35.14l1.6,4.48c.06.18.35.1.29-.08l-1.6-4.48c-.06-.18-.35-.1-.29.08h0Z"/>
    <path class="cls-2" d="m366.55,34.51c-.06,1.5.16,3.01.65,4.43.06.18.35.1.29-.08-.48-1.4-.7-2.87-.64-4.35,0-.19-.29-.19-.3,0h0Z"/>
    <path class="cls-2" d="m367.16,32.68c.08,1.26.32,2.51.72,3.71.06.18.35.1.29-.08-.4-1.18-.64-2.4-.71-3.63-.01-.19-.31-.19-.3,0h0Z"/>
    <path class="cls-2" d="m368.73,34.04c.1.98.16,1.96.19,2.94,0,.19.31.19.3,0-.03-.98-.1-1.96-.19-2.94-.02-.19-.32-.19-.3,0h0Z"/>
    <path class="cls-2" d="m368.14,36.31c1.72-.97,3.46-1.89,5.23-2.78.17-.09.02-.35-.15-.26-1.77.88-3.51,1.81-5.23,2.78-.17.09-.02.35.15.26h0Z"/>
    <path class="cls-2" d="m368.74,37.37l6-.55c.19-.02.19-.32,0-.3l-6,.55c-.19.02-.19.32,0,.3h0Z"/>
    <path class="cls-2" d="m364.06,38.28c1.89-.24,3.8-.36,5.7-.37.19,0,.19-.3,0-.3-1.91.01-3.81.14-5.7.37-.19.02-.19.32,0,.3h0Z"/>
    <path class="cls-2" d="m363.55,39.59c1.25-.26,2.5-.54,3.74-.86.19-.05.11-.34-.08-.29-1.24.32-2.49.6-3.74.86-.19.04-.11.33.08.29h0Z"/>
    <path class="cls-2" d="m363.08,40.28c1.98-.4,3.97-.77,5.96-1.11.19-.03.11-.32-.08-.29-1.99.34-3.98.71-5.96,1.11-.19.04-.11.33.08.29h0Z"/>
    <path class="cls-2" d="m363.93,41.68l5.32-.98c.19-.03.11-.32-.08-.29l-5.32.98c-.19.03-.11.32.08.29h0Z"/>
    <path class="cls-2" d="m362.66,42.69c1.35-.28,2.71-.46,4.09-.54.19-.01.19-.31,0-.3-1.4.08-2.79.27-4.17.55-.19.04-.11.33.08.29h0Z"/>
    <path class="cls-2" d="m365.3,43.34l3.7-.77c.19-.04.11-.33-.08-.29l-3.7.77c-.19.04-.11.33.08.29h0Z"/>
    <path class="cls-2" d="m362.95,43.93c2.13-.49,4.27-.9,6.43-1.22.19-.03.11-.32-.08-.29-2.16.32-4.3.73-6.43,1.22-.19.04-.11.33.08.29h0Z"/>
    <path class="cls-2" d="m363.42,43.85c1.51-.22,3.02-.49,4.51-.81.19-.04.11-.33-.08-.29-1.5.31-3,.58-4.51.81-.19.03-.11.32.08.29h0Z"/>
    <path class="cls-2" d="m361.89,44.79l3.66-.38c.19-.02.19-.32,0-.3l-3.66.38c-.19.02-.19.32,0,.3h0Z"/>
    <path class="cls-2" d="m361.43,45.13c2.08-.19,4.15-.44,6.21-.73.19-.03.11-.32-.08-.29-2.04.29-4.08.53-6.13.72-.19.02-.19.32,0,.3h0Z"/>
    <path class="cls-2" d="m362.53,43.99l7.19-1.71c.19-.04.11-.33-.08-.29l-7.19,1.71c-.19.04-.11.33.08.29h0Z"/>
    <path class="cls-2" d="m364.95,42.23c1.1-.46,2.24-.82,3.4-1.07.19-.04.11-.33-.08-.29-1.17.25-2.3.61-3.4,1.07-.18.07-.1.36.08.29h0Z"/>
    <path class="cls-2" d="m365.23,41.02l.13-.38c.02-.07-.03-.17-.1-.18-.08-.02-.16.03-.18.1l-.13.38c-.02.07.03.17.1.18.08.02.16-.03.18-.1h0Z"/>
    <path class="cls-2" d="m365.21,40.05c1.89-.54,3.77-1.07,5.66-1.61.19-.05.11-.34-.08-.29l-5.66,1.61c-.19.05-.11.34.08.29h0Z"/>
    <path class="cls-2" d="m365.26,38.66c1.9-.16,3.78-.48,5.61-.98.19-.05.11-.34-.08-.29-1.81.49-3.66.82-5.53.97-.19.02-.19.32,0,.3h0Z"/>
    <path class="cls-2" d="m368.74,37.32c2.16-.18,4.3-.55,6.39-1.13.19-.05.11-.34-.08-.29-2.07.57-4.18.95-6.32,1.12-.19.02-.19.32,0,.3h0Z"/>
    <path class="cls-2" d="m369.71,35.85c1.39-.37,2.8-.69,4.22-.94.19-.03.11-.32-.08-.29-1.42.26-2.83.57-4.22.94-.19.05-.11.34.08.29h0Z"/>
    <path class="cls-2" d="m368.53,34.82c1.63-.29,3.27-.53,4.92-.71.16-.02.22-.25.04-.29-.07-.02-.13-.03-.2-.05-.19-.04-.27.25-.08.29.07.02.13.03.2.05l.04-.29c-1.67.19-3.34.43-5,.72-.19.03-.11.32.08.29h0Z"/>
    <path class="cls-2" d="m369.94,33.8c1.29-.07,2.58-.26,3.83-.58.19-.05.11-.34-.08-.29-1.23.31-2.48.5-3.75.57-.19.01-.19.31,0,.3h0Z"/>
    <path class="cls-2" d="m369.38,33.28l1.21-.55c.28-.13.79-.26.78-.65,0-.19-.31-.19-.3,0,0,.12-.16.18-.25.22-.17.08-.35.16-.52.23l-1.08.49c-.07.03-.09.14-.05.21.04.08.13.09.21.05h0Z"/>
    <path class="cls-2" d="m368.51,32.42c.26,1.07.48,2.15.68,3.23.03.19.32.11.29-.08-.19-1.08-.42-2.16-.68-3.23-.04-.19-.33-.11-.29.08h0Z"/>
    <path class="cls-2" d="m369.63,32.08l.05,1.58c0,.19.31.19.3,0l-.05-1.58c0-.19-.31-.19-.3,0h0Z"/>
    <path class="cls-2" d="m369.79,30.42c.13.91.21,1.83.25,2.74l.28-.08c-.03-.06-.05-.13-.08-.19-.08-.18-.33-.02-.26.15.03.06.05.13.08.19.06.14.28.07.28-.08-.04-.95-.12-1.89-.26-2.82-.03-.19-.32-.11-.29.08h0Z"/>
    <path class="cls-2" d="m368.44,31.24l-.43,3.7c-.02.19.28.19.3,0l.43-3.7c.02-.19-.28-.19-.3,0h0Z"/>
    <path class="cls-2" d="m366.74,33.37c-.16,1.08-.31,2.15-.45,3.23-.02.19.28.19.3,0,.14-1.05.28-2.1.44-3.15.03-.19-.26-.27-.29-.08h0Z"/>
    <path class="cls-2" d="m364.19,32.72c.67,1.82,1.26,3.67,1.77,5.55.03.13.21.14.27.04.03-.05.06-.09.09-.14.1-.16-.16-.31-.26-.15-.03.05-.06.09-.09.14l.27.04c-.51-1.88-1.1-3.73-1.77-5.55-.07-.18-.36-.1-.29.08h0Z"/>
    <path class="cls-2" d="m365.37,35.66c.03,1.26.05,2.53.04,3.79l.29-.04c-.1-.3-.2-.6-.3-.89-.06-.18-.35-.1-.29.08.1.3.2.6.3.89.05.16.29.14.29-.04,0-1.26,0-2.53-.04-3.79,0-.19-.31-.19-.3,0h0Z"/>
    <path class="cls-2" d="m362.64,35.66c.09,1.09.26,2.17.51,3.23.04.19.33.11.29-.08-.24-1.04-.41-2.09-.5-3.15-.02-.19-.32-.19-.3,0h0Z"/>
    <path class="cls-2" d="m362.81,38.3l-.14,1.7c-.01.12.17.2.26.11.05-.06.09-.11.14-.17.05-.06.06-.15,0-.21-.05-.05-.16-.06-.21,0-.05.06-.09.11-.14.17l.26.11.14-1.7c.02-.19-.28-.19-.3,0h0Z"/>
    <path class="cls-2" d="m364.31,36.8c.51,1.66,1.07,3.31,1.68,4.94.07.18.36.1.29-.08-.6-1.63-1.16-3.28-1.68-4.94-.06-.18-.35-.11-.29.08h0Z"/>
    <path class="cls-2" d="m365.42,33.65c.43,1.43.81,2.88,1.13,4.35.04.19.33.11.29-.08-.32-1.46-.7-2.91-1.13-4.35-.06-.18-.35-.11-.29.08h0Z"/>
    <path class="cls-2" d="m371.52,36.06c-2.54.55-5.12.85-7.71.9-.19,0-.19.3,0,.3,2.62-.05,5.23-.35,7.79-.91.19-.04.11-.33-.08-.29h0Z"/>
    <path class="cls-2" d="m368.62,39.44c-.77.22-1.53.47-2.27.77-.35.14-.7.29-1.05.45-.3.14-.61.26-.82.53-.12.15.14.3.26.15.19-.25.58-.37.85-.49.35-.16.7-.3,1.05-.44.67-.26,1.36-.49,2.06-.69.19-.05.11-.34-.08-.29h0Z"/>
    <path class="cls-2" d="m365,40.96c-.66.1-1.33.19-1.99.29-.57.09-1.23.11-1.74.41-.09.05-.11.21,0,.26.05.03.11.05.16.08.17.08.33-.18.15-.26-.05-.03-.11-.05-.16-.08v.26c.25-.15.54-.2.82-.25.3-.05.61-.09.91-.14.64-.1,1.28-.19,1.92-.28.19-.03.11-.32-.08-.29h0Z"/>
    <path class="cls-2" d="m366.88,42.13c-1.36.36-2.74.62-4.14.77-.19.02-.19.32,0,.3,1.42-.15,2.83-.41,4.22-.78.19-.05.11-.34-.08-.29h0Z"/>
    <path class="cls-2" d="m364.54,43.23c-.92.16-1.8.44-2.65.83-.17.08-.02.34.15.26.82-.38,1.68-.65,2.57-.8.19-.03.11-.32-.08-.29h0Z"/>
    <path class="cls-2" d="m361.23,46.26c-.24-.58-.42-1.18-.55-1.79-.04-.19-.33-.11-.29.08.12.61.31,1.21.55,1.79.03.07.1.13.18.1.07-.02.14-.11.1-.18h0Z"/>
    <path class="cls-2" d="m362.76,44.6c.08-.7.04-1.4-.13-2.08-.04-.19-.33-.11-.29.08.16.66.19,1.33.11,2,0,.08.08.15.15.15.09,0,.14-.07.15-.15h0Z"/>
    <path class="cls-2" d="m363.33,43.86c.67-1.15,1.04-2.44,1.1-3.77,0-.19-.29-.19-.3,0-.05,1.27-.41,2.52-1.06,3.62-.1.17.16.32.26.15h0Z"/>
    <path class="cls-2" d="m367.56,41.26l-.94.17c-.08.01-.13.11-.1.18.03.08.1.12.18.1l.94-.17c.08-.01.13-.11.1-.18-.03-.08-.1-.12-.18-.1h0Z"/>
    <path class="cls-2" d="m364.53,42.82c2.15-.38,4.29-.86,6.4-1.44.19-.05.11-.34-.08-.29-2.11.57-4.24,1.05-6.4,1.44-.19.03-.11.32.08.29h0Z"/>
    <path class="cls-2" d="m366.23,40.66c1.02-.38,2.1-.6,3.19-.65.19,0,.19-.31,0-.3-1.12.05-2.22.27-3.27.66-.18.07-.1.36.08.29h0Z"/>
    <path class="cls-2" d="m366.35,40.56c.98-.29,1.92-.69,2.8-1.19.17-.1.02-.36-.15-.26-.86.49-1.78.88-2.73,1.16-.18.05-.11.34.08.29h0Z"/>
    <path class="cls-2" d="m368.95,37.79l1.53-.94c.16-.1.01-.36-.15-.26l-1.53.94c-.16.1-.01.36.15.26h0Z"/>
    <path class="cls-2" d="m344.28,44.11c.77-2.32,1.59-4.62,2.46-6.91.07-.18-.22-.26-.29-.08-.87,2.29-1.69,4.59-2.46,6.91-.06.18.23.26.29.08h0Z"/>
    <path class="cls-2" d="m345.6,40.66c.19,0,.19-.3,0-.3s-.19.3,0,.3h0Z"/>
    <path class="cls-2" d="m345.52,41.61c.33-1.85.52-3.73.56-5.61,0-.19-.3-.19-.3,0-.04,1.86-.23,3.71-.55,5.53-.03.19.26.27.29.08h0Z"/>
    <path class="cls-2" d="m345.9,36.51c.21,1.53.51,3.05.88,4.55.05.19.34.11.29-.08-.37-1.5-.67-3.02-.88-4.55-.03-.19-.32-.11-.29.08h0Z"/>
    <path class="cls-2" d="m347.48,36.77c.21,1.01.34,2.03.4,3.06.01.19.31.19.3,0-.06-1.06-.2-2.11-.41-3.14-.04-.19-.33-.11-.29.08h0Z"/>
    <path class="cls-2" d="m347.71,34.98c-.07.99.07,1.99.42,2.92.05.13.26.16.29,0s.03-.3,0-.45c-.04-.19-.33-.11-.29.08.02.1.02.19,0,.29h.29c-.34-.91-.48-1.87-.41-2.84.01-.19-.29-.19-.3,0h0Z"/>
    <path class="cls-2" d="m347.88,33.74l.74,3.62c.04.19.33.11.29-.08l-.74-3.62c-.04-.19-.33-.11-.29.08h0Z"/>
    <path class="cls-2" d="m348.69,33.15c-.04.99-.07,2.02.29,2.96.03.09.13.14.22.09.12-.08.21-.19.24-.34.03-.19-.26-.27-.29-.08-.01.07-.04.12-.1.16l.22.09c-.35-.92-.32-1.92-.28-2.89,0-.19-.29-.19-.3,0h0Z"/>
    <path class="cls-2" d="m349.79,31.62c.11,1.25.32,2.49.63,3.7.05.19.34.11.29-.08-.3-1.19-.51-2.4-.61-3.62-.02-.19-.32-.19-.3,0h0Z"/>
    <path class="cls-2" d="m350.73,31.28c-.02,1.2.09,2.4.33,3.57.04.19.33.11.29-.08-.23-1.15-.34-2.32-.32-3.49,0-.19-.3-.19-.3,0h0Z"/>
    <path class="cls-2" d="m350.22,28.6c-.03.86,0,1.72.11,2.58.05.41.11.82.19,1.22.07.35.14.7.35,1,.11.16.37,0,.26-.15-.21-.3-.27-.67-.33-1.02-.08-.41-.14-.82-.18-1.24-.09-.79-.11-1.59-.09-2.39,0-.19-.29-.19-.3,0h0Z"/>
    <path class="cls-2" d="m352.17,27.32c.11,1.94.42,3.86.91,5.74.05.19.34.11.29-.08-.49-1.85-.79-3.75-.9-5.66-.01-.19-.31-.19-.3,0h0Z"/>
    <path class="cls-2" d="m352.63,26.3c-.02,1.83.18,3.66.57,5.44.04.19.33.11.29-.08-.39-1.76-.58-3.56-.56-5.36,0-.19-.3-.19-.3,0h0Z"/>
    <path class="cls-2" d="m353.38,29.87c0-1.38-.66-2.64-.71-4.01,0-.19-.31-.19-.3,0,.05,1.37.72,2.63.71,4.01,0,.19.3.19.3,0h0Z"/>
    <path class="cls-2" d="m354.3,29.32c-.35-1.42-.64-2.85-.85-4.3-.03-.19-.32-.11-.29.08.22,1.45.5,2.88.85,4.3.05.19.34.11.29-.08h0Z"/>
    <path class="cls-2" d="m354.04,26.77c.03-1.36.06-2.72.09-4.08,0-.19-.3-.19-.3,0-.03,1.36-.06,2.72-.09,4.08,0,.19.3.19.3,0h0Z"/>
    <path class="cls-2" d="m356.12,27.54c-.34-1.59-.74-3.16-1.19-4.72-.05-.19-.34-.11-.29.08.45,1.56.84,3.14,1.19,4.72.04.19.33.11.29-.08h0Z"/>
    <path class="cls-2" d="m355.64,26.26c0-1.82.82-3.5,1.01-5.29.02-.19-.28-.19-.3,0-.19,1.79-1.01,3.47-1.01,5.29,0,.19.3.19.3,0h0Z"/>
    <path class="cls-2" d="m354.66,26.75c1.61-.54,3.26-.96,4.93-1.26.19-.03.11-.32-.08-.29-1.67.29-3.32.71-4.93,1.26-.18.06-.1.35.08.29h0Z"/>
    <path class="cls-2" d="m354.32,27.43l3.19-.34c.19-.02.19-.32,0-.3l-3.19.34c-.19.02-.19.32,0,.3h0Z"/>
    <path class="cls-2" d="m353.6,28.28c1.83.04,3.66.03,5.49-.06.19,0,.19-.31,0-.3-1.83.08-3.66.1-5.49.06-.19,0-.19.3,0,.3h0Z"/>
    <path class="cls-2" d="m351.98,30.4c1.67.08,3.35.09,5.02.05.19,0,.19-.31,0-.3-1.67.05-3.35.03-5.02-.05-.19,0-.19.29,0,.3h0Z"/>
    <path class="cls-2" d="m351.89,32.54c1.15-.02,2.3.05,3.45.18.19.02.19-.28,0-.3-1.14-.14-2.3-.2-3.45-.18-.19,0-.19.3,0,.3h0Z"/>
    <path class="cls-2" d="m347.17,34.79l4.43.08c.19,0,.19-.3,0-.3l-4.43-.08c-.19,0-.19.3,0,.3h0Z"/>
    <path class="cls-2" d="m345.17,37.04c1.23-.18,2.47-.32,3.7-.42.19-.02.19-.32,0-.3-1.27.1-2.53.25-3.78.43-.19.03-.11.32.08.29h0Z"/>
    <path class="cls-2" d="m350.62,37.39l2.85-.13c.19,0,.19-.31,0-.3l-2.85.13c-.19,0-.19.31,0,.3h0Z"/>
    <path class="cls-2" d="m347.85,39.26c.86-.12,1.73-.22,2.6-.28.19-.01.19-.31,0-.3-.89.07-1.79.17-2.68.29-.19.03-.11.32.08.29h0Z"/>
    <path class="cls-2" d="m346.61,41.72l3.11-.76c.19-.05.11-.34-.08-.29l-3.11.76c-.19.05-.11.34.08.29h0Z"/>
    <path class="cls-2" d="m345.64,42.34c2-.1,3.99-.44,5.91-1.02.18-.06.11-.35-.08-.29-1.89.57-3.85.91-5.83,1.01-.19,0-.19.31,0,.3h0Z"/>
    <path class="cls-2" d="m345.81,44.01c2.04.05,4.01-.49,5.95-1.03.19-.05.11-.34-.08-.29-1.92.54-3.86,1.08-5.87,1.02-.19,0-.19.29,0,.3h0Z"/>
    <path class="cls-2" d="m346.61,44.48c2.64-.8,5.28-1.6,7.92-2.4.18-.06.11-.35-.08-.29-2.64.8-5.28,1.6-7.92,2.4-.18.06-.11.35.08.29h0Z"/>
    <path class="cls-2" d="m348.83,41.12l4.09-1.36c.18-.06.1-.35-.08-.29l-4.09,1.36c-.18.06-.1.35.08.29h0Z"/>
    <path class="cls-2" d="m349.17,39.68c1.3-.41,2.62-.75,3.96-1.01.19-.04.11-.33-.08-.29-1.34.27-2.66.61-3.96,1.01-.18.06-.11.35.08.29h0Z"/>
    <path class="cls-2" d="m350.96,37.94l2.73-.56,1.34-.27c.14-.03.3-.05.38-.18.06-.11.04-.22-.04-.31-.13-.14-.35.07-.21.21,0-.06-.03-.07-.08-.04l-.13.03-.29.06-.5.1-1.09.22-2.18.45c-.19.04-.11.33.08.29h0Z"/>
    <path class="cls-2" d="m352.83,35.85l2.98-.62c.19-.04.11-.33-.08-.29l-2.98.62c-.19.04-.11.33.08.29h0Z"/>
    <path class="cls-2" d="m349.89,34.58c1.61-.11,3.22-.3,4.81-.58.19-.03.11-.32-.08-.29-1.57.27-3.14.46-4.73.57-.19.01-.19.31,0,.3h0Z"/>
    <path class="cls-2" d="m350.19,34.06c1.59-.43,3.19-.81,4.81-1.15.19-.04.11-.33-.08-.29-1.61.34-3.22.73-4.81,1.15-.19.05-.11.34.08.29h0Z"/>
    <path class="cls-2" d="m350.02,36.74c1.47-.37,2.92-.81,4.36-1.3l-.12-.27c-.08.03-.15.07-.23.1-.18.08-.02.34.15.26.08-.03.15-.07.23-.1.15-.07.04-.33-.12-.27-1.43.49-2.89.92-4.36,1.3-.19.05-.11.34.08.29h0Z"/>
    <path class="cls-2" d="m348.78,38.44l1.86-.38.89-.18c.1-.02.91-.16.9-.21.04.19.33.11.29-.08-.05-.28-.41-.17-.6-.14l-1.15.24-2.27.47c-.19.04-.11.33.08.29h0Z"/>
    <path class="cls-2" d="m348.36,40.79l2.21-.52c.19-.04.11-.33-.08-.29l-2.21.52c-.19.04-.11.33.08.29h0Z"/>
    <path class="cls-2" d="m344.9,44.17c-.07-2.1-.27-4.18-.61-6.25-.03-.19-.32-.11-.29.08.33,2.04.53,4.1.6,6.17,0,.19.31.19.3,0h0Z"/>
    <path class="cls-2" d="m346.08,41.94c.36-.93.67-1.86.75-2.86s0-2.11-.09-3.16c-.02-.19-.32-.19-.3,0,.09,1.01.18,2.03.1,3.04s-.39,1.95-.75,2.9c-.07.18.22.26.29.08h0Z"/>
    <path class="cls-2" d="m348.03,38.73c-.24-1.51-.34-3.03-.32-4.56,0-.19-.3-.19-.3,0-.02,1.55.09,3.1.33,4.64.03.19.32.11.29-.08h0Z"/>
    <path class="cls-2" d="m346.84,39.19c.22-1.62.25-3.26.09-4.89-.02-.19-.32-.19-.3,0,.16,1.63.13,3.27-.09,4.89-.03.19.27.19.3,0h0Z"/>
    <path class="cls-2" d="m349.93,37.11c-.11-1.36-.13-2.72-.05-4.08.01-.19-.29-.19-.3,0-.08,1.36-.06,2.73.05,4.08.02.19.32.19.3,0h0Z"/>
    <path class="cls-2" d="m350.63,35.24c-1.1-1.83-1.64-3.95-1.55-6.09,0-.19-.29-.19-.3,0-.09,2.19.47,4.36,1.6,6.24.1.17.36.01.26-.15h0Z"/>
    <path class="cls-2" d="m350.62,32.76c2.46-.3,4.9-.7,7.32-1.2.19-.04.11-.33-.08-.29-2.39.5-4.81.9-7.24,1.19-.19.02-.19.32,0,.3h0Z"/>
    <path class="cls-2" d="m351.3,30.96c1.49-.53,2.98-1.05,4.47-1.58.18-.06.1-.35-.08-.29l-4.47,1.58c-.18.06-.1.35.08.29h0Z"/>
    <path class="cls-2" d="m354.49,29.51c1.73-.35,3.45-.76,5.15-1.23.19-.05.11-.34-.08-.29-1.7.47-3.42.88-5.15,1.23-.19.04-.11.33.08.29h0Z"/>
    <path class="cls-2" d="m341.52,40.92c.79.95,1.43,2.02,1.89,3.16.07.18.36.1.29-.08-.49-1.19-1.15-2.3-1.97-3.29-.12-.15-.33.06-.21.21h0Z"/>
    <path class="cls-2" d="m342.95,40.42c.24,1.4.49,2.83,1.2,4.09.05.08.17.1.24.03.03-.03.06-.06.09-.09.13-.14-.08-.35-.21-.21-.03.03-.06.06-.09.09l.24.03c-.69-1.23-.94-2.64-1.17-4.02-.03-.19-.32-.11-.29.08h0Z"/>
    <path class="cls-2" d="m345.26,38.47c.37,1.85.29,3.78.89,5.58.06.18.35.1.29-.08-.6-1.81-.52-3.73-.89-5.58-.04-.19-.33-.11-.29.08h0Z"/>
    <path class="cls-2" d="m345.28,36.51c.24,2.01.44,4.03.6,6.05.02.19.29.19.3,0,.01-.21.02-.43.03-.64.01-.19-.29-.19-.3,0-.01.21-.02.43-.03.64h.3c-.16-2.02-.36-4.04-.6-6.05-.02-.19-.32-.19-.3,0h0Z"/>
    <path class="cls-2" d="m347.09,35.53c.16,1.77.47,3.51.93,5.23.05.19.34.11.29-.08-.45-1.69-.76-3.41-.92-5.15-.02-.19-.32-.19-.3,0h0Z"/>
    <path class="cls-2" d="m347.5,33.83c.58,1.44,1.23,2.86,1.92,4.25.09.17.35.02.26-.15-.69-1.37-1.32-2.76-1.89-4.18-.07-.18-.36-.1-.29.08h0Z"/>
    <path class="cls-2" d="m347.28,30.18c.92,2.32,2.02,4.55,3.31,6.69.1.17.36.01.26-.15-1.27-2.11-2.37-4.33-3.28-6.62-.07-.18-.36-.1-.29.08h0Z"/>
    <path class="cls-2" d="m344.02,34.31c1.32,2.7,2.34,5.53,3.06,8.45.05.19.34.11.29-.08-.72-2.95-1.75-5.8-3.09-8.52-.08-.17-.34-.02-.26.15h0Z"/>
    <path class="cls-2" d="m346.26,33.7c.8,1.93,1.54,3.89,2.21,5.87.06.18.35.1.29-.08-.67-1.98-1.41-3.94-2.21-5.87-.07-.18-.36-.1-.29.08h0Z"/>
    <path class="cls-2" d="m347.75,31.11c.57,2.75,1.53,5.4,2.84,7.89.09.17.35.02.26-.15-1.3-2.46-2.25-5.09-2.81-7.82-.04-.19-.33-.11-.29.08h0Z"/>
    <path class="cls-2" d="m350.77,27.53l1.1,4.55c.05.19.33.11.29-.08l-1.1-4.55c-.05-.19-.33-.11-.29.08h0Z"/>
    <path class="cls-2" d="m351.13,26.04c.13,1.97.69,3.89,1.64,5.62.09.17.35.02.26-.15-.92-1.68-1.47-3.55-1.6-5.47-.01-.19-.31-.19-.3,0h0Z"/>
    <path class="cls-2" d="m355.89,26.61c1.44.1,2.89-.03,4.29-.38.19-.05.11-.34-.08-.29-1.38.34-2.8.47-4.22.37-.19-.01-.19.29,0,.3h0Z"/>
    <path class="cls-2" d="m354.66,25.76c1.72-.67,3.46-1.25,5.24-1.74.19-.05.11-.34-.08-.29-1.77.49-3.52,1.07-5.24,1.74-.18.07-.1.36.08.29h0Z"/>
    <path class="cls-2" d="m354.83,25.65c.69-1.07,1.26-2.21,1.71-3.4.07-.18-.22-.26-.29-.08-.44,1.16-1.01,2.28-1.68,3.33-.1.16.15.31.26.15h0Z"/>
    <path class="cls-2" d="m356.91,25.01l1.74-3.49c.09-.17-.17-.32-.26-.15l-1.74,3.49c-.09.17.17.32.26.15h0Z"/>
    <path class="cls-2" d="m356.36,26.91c1.14-.18,2.28-.39,3.4-.64.19-.04.11-.33-.08-.29-1.13.24-2.26.45-3.4.64-.19.03-.11.32.08.29h0Z"/>
    <path class="cls-2" d="m354.19,30.19l1.7-.11c.19-.01.19-.31,0-.3l-1.7.11c-.19.01-.19.31,0,.3h0Z"/>
    <path class="cls-2" d="m350.83,32.71l2.55.17c.19.01.19-.29,0-.3l-2.55-.17c-.19-.01-.19.29,0,.3h0Z"/>
    <path class="cls-2" d="m351.08,35.76c1.01-.08,2.02-.22,3.02-.43.19-.04.11-.33-.08-.29-.97.2-1.95.34-2.94.42-.19.01-.19.31,0,.3h0Z"/>
    <path class="cls-2" d="m353.63,35.63c1.16-.35,2.31-.74,3.44-1.16.18-.07.1-.36-.08-.29-1.14.42-2.28.81-3.44,1.16-.18.06-.11.35.08.29h0Z"/>
    <path class="cls-2" d="m347.43,39.37c2.21-.07,4.41-.25,6.59-.55.19-.03.11-.32-.08-.29-2.16.29-4.33.47-6.51.54-.19,0-.19.31,0,.3h0Z"/>
    <path class="cls-2" d="m345.85,43.58c1.96-.26,3.87-.84,5.66-1.7.17-.08.02-.34-.15-.26-1.76.84-3.65,1.4-5.58,1.67-.19.03-.11.31.08.29h0Z"/>
    <path class="cls-2" d="m343.34,40.53c.78,1.26,1.48,2.57,2.09,3.93.08.18.34.02.26-.15-.61-1.35-1.31-2.66-2.09-3.93-.1-.16-.36-.01-.26.15h0Z"/>
    <path class="cls-2" d="m341.75,42.68c.76.49,1.52.99,2.14,1.65.13.14.35-.07.21-.21-.65-.67-1.43-1.19-2.2-1.69-.16-.11-.31.15-.15.26h0Z"/>
    <path class="cls-2" d="m343.9,37.76c.39,1.91,1.01,3.75,1.85,5.51.08.17.34.02.26-.15-.83-1.73-1.44-3.56-1.82-5.44-.04-.19-.33-.11-.29.08h0Z"/>
    <path class="cls-2" d="m342.37,38.64c.71,1.37,1.46,2.72,2.26,4.05.1.17.36.01.26-.15-.79-1.33-1.55-2.68-2.26-4.05-.09-.17-.35-.02-.26.15h0Z"/>
    <path class="cls-2" d="m346.02,31.84c.9,1.54,1.82,3.14,1.96,4.96.02.19.32.19.3,0-.15-1.87-1.08-3.52-2.01-5.11-.1-.17-.36-.02-.26.15h0Z"/>
    <path class="cls-2" d="m343.08,36.73c.09.7.42,1.35.68,2.01.27.69.53,1.39.78,2.09.06.18.35.1.29-.08-.24-.68-.49-1.35-.75-2.02s-.61-1.3-.7-2c-.02-.19-.32-.19-.3,0h0Z"/>
    <path class="cls-2" d="m341.94,40.03c1.33,1,2.71,1.93,4.13,2.79.17.1.32-.16.15-.26-1.42-.86-2.8-1.79-4.13-2.79-.15-.12-.3.14-.15.26h0Z"/>
    <path class="cls-2" d="m341.22,42.33c.17.22.28.47.44.69.18.23.42.38.67.52.55.29,1.13.49,1.72.68.18.06.26-.23.08-.29-.54-.18-1.09-.36-1.6-.63-.24-.12-.47-.25-.64-.47s-.26-.45-.42-.65c-.12-.15-.38,0-.26.15h0Z"/>
    <path class="cls-2" d="m351.79,40.16c-3.03.2-6.05.48-9.06.82-.19.02-.19.32,0,.3,3.02-.34,6.04-.61,9.06-.82.19-.01.19-.31,0-.3h0Z"/>
    <path class="cls-2" d="m355.43,33.76l-5.32.51c-1.65.16-3.3.3-4.92.65-.19.04-.11.33.08.29,1.66-.36,3.35-.5,5.04-.66l5.12-.49c.19-.02.19-.32,0-.3h0Z"/>
    <path class="cls-2" d="m346.44,45.84c2.07-1.6,4.17-3.17,6.29-4.7.16-.11,0-.37-.15-.26-2.14,1.54-4.26,3.13-6.35,4.74-.15.12.06.33.21.21h0Z"/>
    <path class="cls-2" d="m347.62,46.01l4.38-1.81c.18-.07.1-.36-.08-.29l-4.38,1.81c-.18.07-.1.36.08.29h0Z"/>
    <path class="cls-2" d="m347.67,46.3c2.24-1.58,4.51-3.12,6.81-4.6.16-.1.01-.36-.15-.26-2.3,1.49-4.58,3.02-6.81,4.6-.16.11,0,.37.15.26h0Z"/>
    <path class="cls-2" d="m346.66,45.42c1.63-1.16,3.24-2.36,4.81-3.6.15-.12-.06-.33-.21-.21-1.55,1.22-3.14,2.41-4.75,3.56-.16.11,0,.37.15.26h0Z"/>
    <path class="cls-2" d="m351.38,42c1.1-.72,2.19-1.44,3.29-2.16.16-.11.01-.37-.15-.26l-3.29,2.16c-.16.11-.01.37.15.26h0Z"/>
    <path class="cls-2" d="m349.9,46.69c2.2-1.13,4.33-2.38,6.39-3.74.16-.11.01-.37-.15-.26-2.06,1.36-4.2,2.61-6.39,3.74-.17.09-.02.35.15.26h0Z"/>
    <path class="cls-2" d="m351.84,46.71c1.39-.77,2.75-1.6,4.07-2.49.16-.11,0-.37-.15-.26-1.32.89-2.68,1.72-4.07,2.49-.17.09-.02.35.15.26h0Z"/>
    <path class="cls-2" d="m354.9,45.49c1.47-1.11,3.01-2.12,4.61-3.03.17-.1.02-.35-.15-.26-1.6.91-3.14,1.92-4.61,3.03-.15.11,0,.38.15.26h0Z"/>
    <path class="cls-2" d="m354.83,46.68c1.08-.91,2.15-1.83,3.23-2.74.15-.13-.07-.34-.21-.21l-3.23,2.74c-.15.13.07.34.21.21h0Z"/>
    <path class="cls-2" d="m355.7,46.99c1.29-.79,2.55-1.61,3.79-2.47.16-.11,0-.37-.15-.26-1.24.86-2.5,1.68-3.79,2.47-.16.1-.01.36.15.26h0Z"/>
    <path class="cls-2" d="m356.53,47.79c1.22-1.04,2.39-2.12,3.53-3.24.14-.14-.07-.35-.21-.21-1.14,1.12-2.31,2.2-3.53,3.24-.15.13.07.34.21.21h0Z"/>
    <path class="cls-2" d="m358.44,46.41c.84-.63,1.65-1.32,2.42-2.04.14-.13-.07-.35-.21-.21-.75.71-1.53,1.38-2.35,2-.15.11,0,.38.15.26h0Z"/>
    <path class="cls-2" d="m353.19,47.4c1-1.06,2.07-2.06,3.21-2.98.15-.12-.06-.33-.21-.21-1.13.93-2.2,1.92-3.21,2.98-.13.14.08.35.21.21h0Z"/>
    <path class="cls-2" d="m350.29,47.64c.86-1.12,1.88-2.11,3.02-2.94.15-.11,0-.37-.15-.26-1.18.86-2.23,1.88-3.13,3.04-.12.15.14.3.26.15h0Z"/>
    <path class="cls-2" d="m347.99,46.09c.87-.93,1.75-1.85,2.62-2.78.13-.14-.08-.35-.21-.21-.87.93-1.75,1.85-2.62,2.78-.13.14.08.35.21.21h0Z"/>
    <path class="cls-2" d="m345.25,47.59c.14-.4.41-.74.67-1.07s.54-.62.83-.91c.58-.58,1.2-1.12,1.83-1.65.15-.13-.07-.34-.21-.21-.66.56-1.31,1.13-1.92,1.75-.57.58-1.21,1.24-1.49,2.01-.06.18.22.26.29.08h0Z"/>
    <path class="cls-2" d="m347.75,44.2l-1.92,1.28.18.24c.83-.69,1.63-1.42,2.4-2.18.14-.14-.07-.35-.21-.21-.77.76-1.57,1.48-2.4,2.18-.13.11.04.33.18.24l1.92-1.28c.16-.11,0-.37-.15-.26h0Z"/>
    <path class="cls-2" d="m349.21,45.8l3.92-3.23c.15-.12-.06-.33-.21-.21l-3.92,3.23c-.15.12.06.33.21.21h0Z"/>
    <path class="cls-2" d="m350.56,46.26c1.4-1.19,2.92-2.23,4.53-3.11.17-.09.02-.35-.15-.26-1.63.89-3.17,1.95-4.59,3.16-.15.13.07.34.21.21h0Z"/>
    <path class="cls-2" d="m353.24,46.07c2.05-1.3,4.17-2.51,6.34-3.6.17-.09.02-.35-.15-.26-2.17,1.09-4.29,2.3-6.34,3.6-.16.1-.01.36.15.26h0Z"/>
    <path class="cls-2" d="m355.6,46.73c1.74-1.55,3.5-3.06,5.3-4.53.15-.12-.06-.33-.21-.21-1.8,1.48-3.56,2.99-5.3,4.53-.14.13.07.34.21.21h0Z"/>
    <path class="cls-2" d="m358.76,45.96c1.88-1.2,3.75-2.39,5.63-3.59.16-.1.01-.36-.15-.26-1.88,1.2-3.75,2.39-5.63,3.59-.16.1-.01.36.15.26h0Z"/>
    <path class="cls-2" d="m359.52,46.66c.82-.61,1.65-1.21,2.49-1.79.16-.11,0-.37-.15-.26-.84.58-1.67,1.18-2.49,1.79-.15.11,0,.38.15.26h0Z"/>
    <path class="cls-2" d="m360.06,45.74c-.45-.08-.9-.08-1.36-.02-.08.01-.12.11-.1.18.02.09.1.12.18.1.4-.06.8-.05,1.2.02.08.01.16-.02.18-.1.02-.07-.02-.17-.1-.18h0Z"/>
    <path class="cls-2" d="m353.9,46.08l5.11-3.19c.16-.1.01-.36-.15-.26l-5.11,3.19c-.16.1-.01.36.15.26h0Z"/>
    <path class="cls-2" d="m350.1,44.86c1.98-1.02,3.9-2.16,5.75-3.39.16-.11,0-.37-.15-.26-1.85,1.24-3.77,2.37-5.75,3.39-.17.09-.02.35.15.26h0Z"/>
    <path class="cls-2" d="m348.28,44.52c.76-.71,1.56-1.37,2.41-1.97.16-.11,0-.37-.15-.26-.87.62-1.69,1.29-2.47,2.02-.14.13.07.34.21.21h0Z"/>
    <path class="cls-2" d="m344.49,47.25c1.56,2.11,3.84,3.47,6.07,4.76.17.1.32-.16.15-.26-2.18-1.26-4.44-2.58-5.96-4.65-.11-.15-.37,0-.26.15h0Z"/>
    <path class="cls-2" d="m346.18,47.42c1.58,1.57,3.15,3.15,4.73,4.72.14.14.35-.08.21-.21-1.58-1.57-3.15-3.15-4.73-4.72-.14-.14-.35.08-.21.21h0Z"/>
    <path class="cls-2" d="m347.71,47.04c.87,1.06,1.83,2.05,2.86,2.96.14.13.36-.08.21-.21-1.03-.91-1.99-1.9-2.86-2.96-.12-.15-.33.06-.21.21h0Z"/>
    <path class="cls-2" d="m349.52,47.47c.84,1.33,1.66,2.69,2.55,3.99.11.16.37,0,.26-.15-.88-1.31-1.7-2.66-2.55-3.99-.1-.16-.36-.01-.26.15h0Z"/>
    <path class="cls-2" d="m350.01,47.16c1.42,1.56,3.17,2.78,5.12,3.58.18.07.26-.22.08-.29-1.9-.78-3.6-1.99-4.99-3.5-.13-.14-.34.07-.21.21h0Z"/>
    <path class="cls-2" d="m352.67,48.73c.99.51,1.94,1.07,2.87,1.67.16.11.31-.15.15-.26-.93-.61-1.88-1.17-2.87-1.67-.17-.09-.32.17-.15.26h0Z"/>
    <path class="cls-2" d="m352.73,48.35c.49.61.97,1.21,1.49,1.79.26.29.52.57.79.84.19.19.49.41.71.13.12-.15-.14-.3-.26-.15,0-.01-.1-.06-.12-.08-.06-.04-.11-.1-.16-.15-.11-.11-.22-.22-.33-.34-.23-.24-.45-.49-.67-.74-.43-.5-.84-1.01-1.25-1.52-.12-.15-.33.06-.21.21h0Z"/>
    <path class="cls-2" d="m355.47,48.99l1.92,1.4c.07.05.17.01.21-.05.04-.08.01-.16-.05-.21l-1.92-1.4c-.07-.05-.17-.01-.21.05-.04.08-.01.16.05.21h0Z"/>
    <path class="cls-2" d="m353.37,47.29c1.32,1.13,2.81,2.07,4.4,2.76.18.08.33-.18.15-.26-1.57-.68-3.04-1.6-4.34-2.71-.15-.12-.36.09-.21.21h0Z"/>
    <path class="cls-2" d="m354.81,47c1.76,1.5,3.69,2.77,5.77,3.78.17.08.33-.17.15-.26-2.05-1-3.97-2.25-5.71-3.73-.15-.12-.36.09-.21.21h0Z"/>
    <path class="cls-2" d="m357.07,47.21c.84.98,1.8,1.85,2.86,2.6.16.11.31-.15.15-.26-1.03-.73-1.97-1.59-2.8-2.55-.13-.15-.34.07-.21.21h0Z"/>
    <path class="cls-2" d="m358.68,47.68l.38.3s.06.04.11.04c.04,0,.08-.02.11-.04s.05-.07.04-.11c0-.04-.01-.08-.04-.11l-.38-.3s-.06-.04-.11-.04c-.04,0-.08.02-.11.04s-.05.07-.04.11c0,.04.01.08.04.11h0Z"/>
    <path class="cls-2" d="m358.57,46.94c1.73,1.39,3.67,2.48,5.76,3.24.18.07.26-.22.08-.29-2.03-.74-3.94-1.81-5.62-3.16-.15-.12-.36.09-.21.21h0Z"/>
    <path class="cls-2" d="m361.28,47.43c1.04.85,2.14,1.63,3.28,2.34.16.1.32-.16.15-.26-1.12-.7-2.19-1.46-3.22-2.3-.15-.12-.36.09-.21.21h0Z"/>
    <path class="cls-2" d="m361.71,47.04c.95,1.12,1.93,2.22,2.95,3.28l.11-.26c-.06,0-.12,0-.19,0-.19,0-.19.3,0,.3.06,0,.12,0,.19,0,.13,0,.19-.16.11-.26-1.02-1.06-2-2.16-2.95-3.28-.12-.15-.34.07-.21.21h0Z"/>
    <path class="cls-2" d="m359.08,48.02l1.5,1,.74.49.37.24c.1.06.27.13.31.24.08.18.33.02.26-.15-.04-.1-.14-.16-.23-.22-.13-.09-.26-.17-.39-.26l-.81-.54-1.6-1.06c-.16-.11-.31.15-.15.26h0Z"/>
    <path class="cls-2" d="m351.64,46.22c1.82,1.22,3.8,2.19,5.88,2.88.18.06.26-.23.08-.29-2.06-.68-4.01-1.64-5.81-2.85-.16-.11-.31.15-.15.26h0Z"/>
    <path class="cls-2" d="m348.81,46.96c1.02.96,2.15,1.81,3.35,2.53.17.1.32-.16.15-.26-1.19-.7-2.29-1.54-3.29-2.48-.14-.13-.35.08-.21.21h0Z"/>
    <path class="cls-2" d="m347.08,47.37c.76.88,1.54,1.75,2.32,2.61.13.14.34-.07.21-.21-.78-.86-1.56-1.73-2.32-2.61-.13-.15-.34.07-.21.21h0Z"/>
    <path class="cls-2" d="m343.66,47.89c.8.89,1.67,1.71,2.6,2.46.15.12.36-.09.21-.21-.93-.75-1.8-1.57-2.6-2.46-.13-.14-.34.07-.21.21h0Z"/>
    <path class="cls-2" d="m344.68,48.28c1.14.86,2.3,1.72,3.6,2.31.07.03.16.02.21-.05.08-.15.08-.3,0-.44-.1-.17-.36-.02-.26.15.03.05.04.09,0,.14l.21-.05c-1.31-.59-2.46-1.45-3.6-2.31-.15-.12-.3.14-.15.26h0Z"/>
    <path class="cls-2" d="m346.69,46.65c1.33,1.47,2.89,2.72,4.61,3.7.17.1.32-.16.15-.26-1.7-.97-3.24-2.2-4.55-3.65-.13-.14-.34.07-.21.21h0Z"/>
    <path class="cls-2" d="m349.75,47.76c1.13.93,2.3,1.82,3.49,2.68.12.09.28-.08.21-.21-.05-.08-.09-.15-.14-.23-.1-.16-.36-.01-.26.15.05.08.09.15.14.23l.21-.21c-1.17-.84-2.31-1.72-3.43-2.63-.15-.12-.36.09-.21.21h0Z"/>
    <path class="cls-2" d="m351.88,47.58c1.83,1.58,3.77,3.03,5.79,4.36.16.11.31-.15.15-.26-2-1.31-3.91-2.75-5.73-4.31-.15-.13-.36.09-.21.21h0Z"/>
    <path class="cls-2" d="m355.5,48.48c.89.9,1.84,1.75,2.82,2.55.15.12.36-.09.21-.21-.98-.8-1.92-1.65-2.82-2.55-.14-.14-.35.08-.21.21h0Z"/>
    <path class="cls-2" d="m355.79,47.55c1.21,1.02,2.55,1.88,3.98,2.55.17.08.33-.18.15-.26-1.41-.66-2.73-1.5-3.92-2.51-.15-.12-.36.09-.21.21h0Z"/>
    <path class="cls-2" d="m359.33,48.74c.71.65,1.48,1.24,2.31,1.74.07.04.17.02.21-.05.06-.1.07-.22.03-.33-.03-.08-.1-.13-.18-.1-.07.02-.14.11-.1.18.02.04.02.06,0,.1l.21-.05c-.8-.49-1.55-1.06-2.24-1.7-.14-.13-.35.08-.21.21h0Z"/>
    <path class="cls-2" d="m357.86,47.96c.7.38,1.41.73,2.13,1.06.17.08.33-.18.15-.26-.72-.33-1.43-.69-2.13-1.06-.17-.09-.32.17-.15.26h0Z"/>
    <path class="cls-2" d="m344.05,48.62c.35.5.96.68,1.52.85.7.22,1.41.39,2.13.54.19.04.27-.25.08-.29-.65-.14-1.3-.3-1.93-.49-.52-.15-1.21-.3-1.54-.77-.11-.16-.37,0-.26.15h0Z"/>
    <path class="cls-2" d="m343.96,49.35c1.22.7,2.66.84,3.95,1.37.18.07.26-.22.08-.29-1.27-.52-2.68-.64-3.88-1.34-.17-.1-.32.16-.15.26h0Z"/>
    <path class="cls-2" d="m345.89,50.58c1.13.23,2.26.5,3.37.83.19.05.26-.23.08-.29-1.11-.33-2.23-.6-3.37-.83-.19-.04-.27.25-.08.29h0Z"/>
    <path class="cls-2" d="m344.6,51.34c.25.18.55.3.85.37.08.02.17-.02.18-.1.02-.08-.02-.17-.1-.18-.07-.02-.15-.04-.22-.06-.03-.01-.06-.02-.09-.03-.02,0-.04-.01-.05-.02-.02,0-.02,0,0,0,0,0-.02,0-.03-.01-.13-.06-.26-.13-.38-.21-.06-.04-.17-.01-.21.05-.04.08-.02.16.05.21h0Z"/>
    <path class="cls-2" d="m345.14,52.33c1.13.66,2.35,1.17,3.62,1.5.19.05.27-.24.08-.29-1.25-.33-2.44-.82-3.55-1.47-.17-.1-.32.16-.15.26h0Z"/>
    <path class="cls-2" d="m344.65,50.82c.31.28.69.4,1.08.52.49.15.99.29,1.49.43,1.02.27,2.05.51,3.07.75.19.04.27-.25.08-.29-.96-.22-1.91-.45-2.86-.7-.47-.12-.93-.25-1.39-.39-.43-.13-.91-.23-1.26-.54-.14-.13-.36.08-.21.21h0Z"/>
    <path class="cls-2" d="m347.24,50.69c1.23.72,2.52,1.33,3.86,1.84.18.07.26-.22.08-.29-1.31-.5-2.57-1.11-3.78-1.81-.17-.1-.32.16-.15.26h0Z"/>
    <path class="cls-2" d="m345.96,51.58c1.65.71,3.35,1.31,5.08,1.77.19.05.27-.24.08-.29-1.71-.46-3.39-1.03-5.01-1.74-.18-.08-.33.18-.15.26h0Z"/>
    <path class="cls-2" d="m346.06,52.69c.48.42,1.1.68,1.68.93.73.31,1.47.56,2.23.76,1.5.41,3.05.67,4.58.92.19.03.27-.26.08-.29-1.44-.24-2.88-.48-4.29-.84-.69-.18-1.37-.39-2.04-.64s-1.48-.56-2.04-1.05c-.14-.13-.36.08-.21.21h0Z"/>
    <path class="cls-2" d="m349.27,55.47c1.79.47,3.6.85,5.42,1.14v-.29c-.06.02-.12.04-.18.06-.18.06-.1.35.08.29.06-.02.12-.04.18-.06.12-.04.16-.26,0-.29-1.83-.29-3.63-.67-5.42-1.14-.19-.05-.27.24-.08.29h0Z"/>
    <path class="cls-2" d="m350.32,55.85c1.08.32,2.14.69,3.18,1.13.18.07.33-.18.15-.26-1.06-.45-2.14-.84-3.25-1.16-.19-.05-.26.24-.08.29h0Z"/>
    <path class="cls-2" d="m343.5,48.35c-.43,2.3-1.07,4.56-1.91,6.75-.07.18.22.26.29.08.84-2.19,1.48-4.45,1.91-6.75.04-.19-.25-.27-.29-.08h0Z"/>
    <path class="cls-2" d="m343.69,50.9c-.29,1.85-.7,3.68-1.2,5.48-.05.19.24.27.29.08.51-1.8.91-3.63,1.2-5.48.03-.19-.26-.27-.29-.08h0Z"/>
    <path class="cls-2" d="m343.49,49.88c-.3,1.51-.49,3.03-.57,4.57-.01.19.29.19.3,0,.08-1.51.27-3.01.56-4.49.04-.19-.25-.27-.29-.08h0Z"/>
    <path class="cls-2" d="m344.88,50.68c-.03,1.09-.03,2.17.01,3.26.02.51.02,1.03.08,1.54.03.31.13.58.43.7.18.07.26-.22.08-.29-.32-.13-.24-.89-.26-1.16-.02-.44-.04-.89-.05-1.34-.02-.91-.02-1.82,0-2.73,0-.19-.29-.19-.3,0h0Z"/>
    <path class="cls-2" d="m344.37,55.05l-.43,2.17c-.04.19.25.27.29.08l.43-2.17c.04-.19-.25-.27-.29-.08h0Z"/>
    <path class="cls-2" d="m345.58,54.57c.06,1.98.23,3.95.51,5.91.03.19.32.11.29-.08-.28-1.93-.44-3.88-.5-5.83,0-.19-.31-.19-.3,0h0Z"/>
    <path class="cls-2" d="m346.72,55.47l-.33,3.51c-.02.19.28.19.3,0l.33-3.51c.02-.19-.28-.19-.3,0h0Z"/>
    <path class="cls-2" d="m347.37,57.28c-.29,1.34-.51,2.7-.67,4.06-.02.19.28.19.3,0,.16-1.34.38-2.66.66-3.98.04-.19-.25-.27-.29-.08h0Z"/>
    <path class="cls-2" d="m348.53,58.94c.19,0,.19-.3,0-.3s-.19.3,0,.3h0Z"/>
    <path class="cls-2" d="m349.09,59.43c-.1,1.48-.26,2.96-.47,4.43-.03.19.26.27.29.08.21-1.5.37-3,.48-4.5.01-.19-.29-.19-.3,0h0Z"/>
    <path class="cls-2" d="m348.55,57.32c-.24,2.32-.69,4.6-1.36,6.84-.06.19.23.26.29.08.67-2.26,1.13-4.57,1.37-6.92.02-.19-.28-.19-.3,0h0Z"/>
    <path class="cls-2" d="m349.54,60.77c.05,1.54.15,3.07.27,4.6.02.19.32.19.3,0-.13-1.53-.22-3.06-.27-4.6,0-.19-.31-.19-.3,0h0Z"/>
    <path class="cls-2" d="m350.05,61.91c.09,1.49.18,2.98.27,4.47.01.19.31.19.3,0-.09-1.49-.18-2.98-.27-4.47-.01-.19-.31-.19-.3,0h0Z"/>
    <path class="cls-2" d="m351.32,62.55c.08,1.47.23,2.93.43,4.38.03.19.32.11.29-.08-.2-1.43-.33-2.86-.42-4.3-.01-.19-.31-.19-.3,0h0Z"/>
    <path class="cls-2" d="m351.97,63.7c.53.25,1.07.47,1.63.66.18.06.26-.23.08-.29-.53-.18-1.05-.4-1.56-.63-.07-.03-.16-.02-.21.05-.04.07-.02.17.05.21h0Z"/>
    <path class="cls-2" d="m350.66,61.36l1.02.32c.08.02.16-.03.18-.1.02-.08-.03-.16-.1-.18l-1.02-.32c-.08-.02-.16.03-.18.1-.02.08.03.16.1.18h0Z"/>
    <path class="cls-2" d="m349.07,59.63c1.03.34,2.09.58,3.17.72.19.02.19-.28,0-.3-1.05-.14-2.08-.38-3.09-.71-.18-.06-.26.23-.08.29h0Z"/>
    <path class="cls-2" d="m347.54,57.33l4.85.89c.19.03.27-.25.08-.29l-4.85-.89c-.19-.03-.27.25-.08.29h0Z"/>
    <path class="cls-2" d="m346.13,55.35c1.6.59,3.24,1.07,4.91,1.43.19.04.27-.25.08-.29-1.67-.36-3.31-.84-4.91-1.43-.18-.07-.26.22-.08.29h0Z"/>
    <path class="cls-2" d="m346.58,54.78c1.07.38,2.15.71,3.25.97.19.04.27-.24.08-.29-1.1-.26-2.19-.58-3.25-.97-.18-.07-.26.22-.08.29h0Z"/>
    <path class="cls-2" d="m345.4,53.1c1.21-.05,2.42.09,3.59.42.19.05.27-.24.08-.29-1.19-.34-2.43-.48-3.67-.43-.19,0-.19.31,0,.3h0Z"/>
    <path class="cls-2" d="m345.04,51.21l3.26.44c.19.03.27-.26.08-.29l-3.26-.44c-.19-.03-.27.26-.08.29h0Z"/>
    <path class="cls-2" d="m343.55,49.33c2.13.06,4.15.86,6.26,1.08.19.02.19-.28,0-.3-2.11-.22-4.12-1.02-6.26-1.08-.19,0-.19.29,0,.3h0Z"/>
    <path class="cls-2" d="m347.41,48.33l1.53.32c.08.02.16-.02.18-.1.02-.07-.03-.17-.1-.18l-1.53-.32c-.08-.02-.16.02-.18.1-.02.07.03.17.1.18h0Z"/>
    <path class="cls-2" d="m342.89,48.19c-.17,1.38-.6,2.72-1.26,3.94-.09.17.17.32.26.15.68-1.28,1.12-2.66,1.3-4.1.02-.19-.28-.19-.3,0h0Z"/>
    <path class="cls-2" d="m341.82,49.04l1.47,2.94c.09.17.35.02.26-.15l-1.47-2.94c-.09-.17-.35-.02-.26.15h0Z"/>
    <path class="cls-2" d="m344.73,49.1c.78.28,1.56.56,2.35.83.38.13.76.26,1.13.38.2.07.41.14.61.2.17.05.47.09.55.26s.34.02.26-.15c-.15-.3-.62-.36-.91-.45-.44-.14-.87-.29-1.31-.44-.87-.3-1.74-.6-2.61-.92-.18-.07-.26.22-.08.29h0Z"/>
    <path class="cls-2" d="m343.06,45.62c.68.76,1.32,1.55,1.9,2.38.11.16.37,0,.26-.15-.6-.85-1.25-1.67-1.95-2.45-.13-.14-.34.07-.21.21h0Z"/>
    <path class="cls-2" d="m340.98,46.55c1.49,1.64,3.4,2.9,4.64,4.76.11.16.37.01.26-.15-1.26-1.89-3.18-3.16-4.69-4.82-.13-.14-.34.07-.21.21h0Z"/>
    <path class="cls-2" d="m340.39,47.4c1.19,1.13,2.39,2.25,3.58,3.38.14.13.35-.08.21-.21-1.19-1.13-2.39-2.25-3.58-3.38-.14-.13-.35.08-.21.21h0Z"/>
    <path class="cls-2" d="m337.87,44.95c.79,1.16,1.67,2.26,2.64,3.29.13.14.34-.07.21-.21-.95-1-1.82-2.08-2.59-3.23-.11-.16-.37,0-.26.15h0Z"/>
    <path class="cls-2" d="m336.54,44.73c1.41,1.65,3.12,3.04,5.03,4.09.17.09.32-.17.15-.26-1.89-1.04-3.57-2.4-4.97-4.04-.13-.15-.34.07-.21.21h0Z"/>
    <path class="cls-2" d="m343.79,49.09c1.55.72,3.09,1.47,4.62,2.24.17.09.32-.17.15-.26-1.53-.77-3.07-1.52-4.62-2.24-.17-.08-.33.18-.15.26h0Z"/>
    <path class="cls-2" d="m337.95,42.84l1.85-1.14c.16-.1.01-.36-.15-.26l-1.85,1.14c-.16.1-.01.36.15.26h0Z"/>
    <path class="cls-2" d="m339.83,43.05l2.55-.96c.18-.07.1-.36-.08-.29l-2.55.96c-.18.07-.1.36.08.29h0Z"/>
    <path class="cls-2" d="m338.47,44.4c1.71-.56,3.44-1.14,4.93-2.18.16-.11,0-.37-.15-.26-1.47,1.02-3.17,1.59-4.86,2.15-.18.06-.1.35.08.29h0Z"/>
    <path class="cls-2" d="m338.67,46.09c2.1-.7,4.24-1.42,6.04-2.75.15-.11,0-.37-.15-.26-1.78,1.32-3.89,2.03-5.97,2.72-.18.06-.1.35.08.29h0Z"/>
    <path class="cls-2" d="m342.41,45.95l3.77-1.97c.17-.09.02-.35-.15-.26-1.26.66-2.51,1.31-3.77,1.97-.17.09-.02.35.15.26h0Z"/>
    <path class="cls-2" d="m342.19,45.35c2.22-.39,4.42-.94,6.57-1.63.18-.06.1-.35-.08-.29-2.15.69-4.34,1.23-6.57,1.63-.19.03-.11.32.08.29h0Z"/>
    <path class="cls-2" d="m340.46,47.31l6.25-2.04c.18-.06.1-.35-.08-.29l-6.25,2.04c-.18.06-.1.35.08.29h0Z"/>
    <path class="cls-2" d="m338.02,46.4c.91,1.28,1.94,2.46,3.1,3.53.14.13.35-.08.21-.21-1.14-1.05-2.16-2.21-3.05-3.46-.11-.16-.37,0-.26.15h0Z"/>
    <path class="cls-2" d="m335.45,45.76c1.35,1.29,2.77,2.51,4.25,3.66.15.12.36-.09.21-.21-1.48-1.15-2.89-2.37-4.25-3.66-.14-.13-.35.08-.21.21h0Z"/>
    <path class="cls-2" d="m336.75,47.34c.85.94,1.74,1.83,2.68,2.68.14.13.36-.08.21-.21-.94-.85-1.83-1.74-2.68-2.68-.13-.14-.34.07-.21.21h0Z"/>
    <path class="cls-2" d="m336.08,47.8l2.04,1.55c.58.44,1.17,1.02,1.92,1.11.19.02.19-.28,0-.3-.37-.04-.68-.25-.98-.47-.31-.23-.61-.46-.92-.7l-1.92-1.46c-.15-.12-.3.14-.15.26h0Z"/>
    <path class="cls-2" d="m341.23,48.22c2,1.01,4.01,2.03,6.01,3.04.17.09.32-.17.15-.26-2-1.01-4.01-2.03-6.01-3.04-.17-.09-.32.17-.15.26h0Z"/>
    <path class="cls-2" d="m341.24,47.31c1.89.83,3.74,1.77,5.52,2.82.17.1.32-.16.15-.26-1.79-1.04-3.63-1.98-5.52-2.82-.18-.08-.33.18-.15.26h0Z"/>
    <path class="cls-2" d="m335.43,45.29c2.96-.58,5.71-1.96,7.95-3.98.14-.13-.07-.34-.21-.21-2.2,1.98-4.91,3.33-7.82,3.9-.19.04-.11.33.08.29h0Z"/>
    <path class="cls-2" d="m337.08,44.57c1.69-.68,3.33-1.49,4.89-2.44.16-.1.01-.36-.15-.26-1.53.94-3.14,1.75-4.81,2.41-.18.07-.1.36.08.29h0Z"/>
    <path class="cls-2" d="m340.36,42.18c1.46-1.07,2.81-2.28,4.03-3.62.13-.14-.08-.36-.21-.21-1.2,1.32-2.53,2.52-3.97,3.57-.15.11,0,.37.15.26h0Z"/>
    <path class="cls-2" d="m334.83,47.6c2.61.72,4.83-1.27,7.03-2.31.17-.08.02-.34-.15-.26-2.11,1-4.28,2.97-6.8,2.28-.19-.05-.27.24-.08.29h0Z"/>
    <path class="cls-2" d="m338.56,46.21c3.35-.87,6.65-1.94,9.87-3.2.18-.07.1-.36-.08-.29-3.22,1.26-6.52,2.33-9.87,3.2-.19.05-.11.34.08.29h0Z"/>
    <path class="cls-2" d="m337.58,43.83l-.42.12.17.22c1.36-1.79,2.97-3.38,4.76-4.74.15-.11,0-.38-.15-.26-1.84,1.39-3.47,3.02-4.87,4.85-.08.11.05.25.17.22l.42-.12c.18-.05.11-.34-.08-.29h0Z"/>
    <path class="cls-2" d="m336.54,44.31c.58-.75,1.38-1.33,2.27-1.65.18-.06.1-.35-.08-.29-.97.35-1.82.97-2.45,1.79-.05.06,0,.17.05.21.08.05.16.01.21-.05h0Z"/>
    <path class="cls-2" d="m341.97,44.76c2.32-1.13,4.64-2.26,6.95-3.39.17-.08.02-.34-.15-.26-2.32,1.13-4.64,2.26-6.95,3.39-.17.08-.02.34.15.26h0Z"/>
    <path class="cls-2" d="m344.97,44.88c1.83-.85,3.62-1.8,5.35-2.83.17-.1.01-.36-.15-.26-1.73,1.04-3.52,1.99-5.35,2.83-.17.08-.02.34.15.26h0Z"/>
    <path class="cls-2" d="m347.11,45.8c2.24-.55,4.45-1.2,6.63-1.94.18-.06.1-.35-.08-.29-2.18.74-4.4,1.38-6.63,1.94-.19.05-.11.34.08.29h0Z"/>
    <path class="cls-2" d="m345.91,54.09c2.04.25,4.08.41,6.13.48.19,0,.19-.29,0-.3-2.05-.07-4.1-.23-6.13-.48-.19-.02-.19.28,0,.3h0Z"/>
    <path class="cls-2" d="m346.4,52.57c1.59.55,3.19,1.04,4.81,1.5.19.05.27-.24.08-.29-1.62-.45-3.22-.95-4.81-1.5-.18-.06-.26.23-.08.29h0Z"/>
    <path class="cls-2" d="m344.83,50.73c1.53.68,3.09,1.29,4.68,1.83.18.06.26-.23.08-.29-1.56-.53-3.1-1.13-4.61-1.8-.17-.08-.33.18-.15.26h0Z"/>
    <path class="cls-2" d="m346.92,58.21c1.91,1.61,4.19,2.73,6.63,3.24.19.04.27-.25.08-.29-2.39-.5-4.63-1.59-6.5-3.16-.15-.12-.36.09-.21.21h0Z"/>
    <path class="cls-2" d="m345.66,55.04c1.51,1.17,3.24,2.02,5.09,2.49.19.05.27-.24.08-.29-1.8-.45-3.49-1.27-4.96-2.41-.15-.12-.36.09-.21.21h0Z"/>
    <path class="cls-2" d="m348.76,55.15c2.85,1.46,5.79,2.75,8.79,3.87.18.07.26-.22.08-.29-2.98-1.11-5.89-2.39-8.72-3.84-.17-.09-.32.17-.15.26h0Z"/>
    <path class="cls-2" d="m344.11,50.99c1.56.62,3.12,1.25,4.68,1.87.18.07.26-.22.08-.29-1.56-.62-3.12-1.25-4.68-1.87-.18-.07-.26.22-.08.29h0Z"/>
    <path class="cls-2" d="m344.54,50.65c2.78.93,5.56,1.87,8.34,2.8.18.06.26-.23.08-.29-2.78-.93-5.56-1.87-8.34-2.8-.18-.06-.26.23-.08.29h0Z"/>
    <path class="cls-2" d="m344.85,53.79c.29,2.04.43,4.11.44,6.17,0,.19.3.19.3,0,0-2.09-.15-4.18-.45-6.25-.03-.19-.32-.11-.29.08h0Z"/>
    <path class="cls-2" d="m347.83,57.27c.2,1.3.4,2.61.6,3.91.03.19.32.11.29-.08l-.6-3.91c-.03-.19-.32-.11-.29.08h0Z"/>
    <path class="cls-2" d="m349.17,60.68l.53,2.63.13.65c.03.17.06.35.13.51.13.26.43.37.66.18.15-.12-.06-.33-.21-.21-.2.16-.32-.71-.34-.79l-.21-1.03-.41-2.02c-.04-.19-.33-.11-.29.08h0Z"/>
    <path class="cls-2" d="m351.85,61.83c.16,1.93.59,3.83,1.29,5.64.07.18.36.1.29-.08-.69-1.78-1.13-3.65-1.28-5.56-.02-.19-.32-.19-.3,0h0Z"/>
    <path class="cls-2" d="m341.37,50.43c-.01,1.71.17,3.41.54,5.07.04.19.33.11.29-.08-.37-1.64-.54-3.31-.53-4.99,0-.19-.3-.19-.3,0h0Z"/>
    <path class="cls-2" d="m339.6,48.03c.89,1.7,1.68,3.45,2.36,5.24.07.18.36.1.29-.08-.69-1.82-1.48-3.59-2.39-5.32-.09-.17-.35-.02-.26.15h0Z"/>
    <path class="cls-2" d="m345.37,52.04c-.11,1.12-.14,2.24-.06,3.36.04.52.09,1.05.17,1.57.02.15.07.34.24.39.13.04.26-.01.32-.13.09-.17-.16-.32-.26-.15.04-.07-.01-.21-.02-.29-.02-.12-.03-.24-.05-.35-.03-.21-.05-.43-.07-.64-.04-.41-.06-.82-.07-1.24-.02-.84.01-1.68.1-2.52.02-.19-.28-.19-.3,0h0Z"/>
    <path class="cls-2" d="m347.08,53.65c.51.85,1.02,1.7,1.53,2.55.1.17.36.01.26-.15-.51-.85-1.02-1.7-1.53-2.55-.1-.17-.36-.01-.26.15h0Z"/>
    <path class="cls-2" d="m349.69,58.82c1.57.71,3.29,1.06,5.01,1,.19,0,.19-.31,0-.3-1.67.05-3.34-.27-4.86-.96-.17-.08-.33.18-.15.26h0Z"/>
    <path class="cls-2" d="m348.96,58.83c1.52.28,3.02.62,4.51,1.02.19.05.27-.24.08-.29-1.49-.4-2.99-.74-4.51-1.02-.19-.03-.27.25-.08.29h0Z"/>
    <path class="cls-2" d="m349.64,61.82c2.6.37,5.21.56,7.84.57l-.08-.28c-.07.03-.15.07-.22.1-.18.08-.02.34.15.26.07-.03.15-.07.22-.1.14-.06.06-.28-.08-.28-2.6-.01-5.19-.2-7.76-.56-.19-.03-.27.26-.08.29h0Z"/>
    <path class="cls-2" d="m350.48,62.43c.03,1.54.23,3.07.59,4.57.05.19.34.11.29-.08-.36-1.47-.55-2.98-.58-4.49,0-.19-.3-.19-.3,0h0Z"/>
    <path class="cls-2" d="m352.26,63.15c.48,1.58,1.29,3.04,2.38,4.27.13.14.34-.07.21-.21-1.06-1.19-1.85-2.61-2.31-4.14-.06-.18-.35-.11-.29.08h0Z"/>
    <path class="cls-2" d="m352.7,61.98c1.19.46,2.43.74,3.7.84.19.02.19-.28,0-.3-1.24-.1-2.46-.39-3.62-.83-.18-.07-.26.22-.08.29h0Z"/>
    <path class="cls-2" d="m351.77,60.34l4.51.68c.19.03.27-.26.08-.29l-4.51-.68c-.19-.03-.27.26-.08.29h0Z"/>
    <path class="cls-2" d="m352.49,63.94c.19,0,.19-.3,0-.3s-.19.3,0,.3h0Z"/>
    <path class="cls-2" d="m361.65,48c-.15,1.27-.2,2.55-.16,3.83,0,.19.31.19.3,0-.04-1.28.01-2.56.16-3.83.02-.19-.28-.19-.3,0h0Z"/>
    <path class="cls-2" d="m361.54,50.72c-.1.85-.12,1.7-.08,2.55,0,.19.31.19.3,0-.04-.85-.01-1.71.08-2.55.02-.19-.28-.19-.3,0h0Z"/>
    <path class="cls-2" d="m362.68,50.85c-.01,1.15,0,2.3,0,3.45,0,.19.3.19.3,0-.02-1.15-.02-2.3,0-3.45,0-.19-.3-.19-.3,0h0Z"/>
    <path class="cls-2" d="m363.83,52c-.08,1.11-.1,2.22-.08,3.34,0,.14.16.19.26.11.04-.03.08-.07.12-.1.15-.13-.07-.34-.21-.21-.04.03-.08.07-.12.1l.26.11c-.02-1.11,0-2.23.08-3.34.01-.19-.29-.19-.3,0h0Z"/>
    <path class="cls-2" d="m364.39,52.98c-.15.76-.3,1.51-.38,2.28-.04.39-.07.78-.07,1.17,0,.32,0,.65.13.95.04.08.18.1.24.03.1-.12.16-.24.21-.39.06-.18-.23-.26-.29-.08-.03.1-.07.18-.13.26l.24.03c-.14-.3-.09-.69-.09-1.01,0-.35.04-.7.08-1.05.08-.71.22-1.41.36-2.12.04-.19-.25-.27-.29-.08h0Z"/>
    <path class="cls-2" d="m364.84,54.51l-.31,3.96c-.01.19.29.19.3,0l.31-3.96c.01-.19-.29-.19-.3,0h0Z"/>
    <path class="cls-2" d="m365.62,54.38c.24,1.53.43,3.06.55,4.6.02.19.32.19.3,0-.13-1.57-.32-3.13-.56-4.68-.03-.19-.32-.11-.29.08h0Z"/>
    <path class="cls-2" d="m366.24,54.94l.18,5.36c0,.19.31.19.3,0l-.18-5.36c0-.19-.31-.19-.3,0h0Z"/>
    <path class="cls-2" d="m367.03,57.96c-.09,1.08-.15,2.15-.17,3.23,0,.19.3.19.3,0,.02-1.08.07-2.16.17-3.23.02-.19-.28-.19-.3,0h0Z"/>
    <path class="cls-2" d="m367.61,58.26c.09,1.45.11,2.89.04,4.34,0,.19.29.19.3,0,.06-1.45.05-2.9-.04-4.34-.01-.19-.31-.19-.3,0h0Z"/>
    <path class="cls-2" d="m368.3,59.74c.09,1.26.15,2.52.17,3.79,0,.19.3.19.3,0-.02-1.26-.08-2.53-.17-3.79-.01-.19-.31-.19-.3,0h0Z"/>
    <path class="cls-2" d="m369.21,59.91c.12,1.29.18,2.58.18,3.87,0,.19.3.19.3,0,0-1.29-.06-2.59-.18-3.87-.02-.19-.32-.19-.3,0h0Z"/>
    <path class="cls-2" d="m370.34,63.06c.09.75.21,1.5.35,2.24.03.15.25.13.29,0,.02-.08.05-.16.07-.24.06-.19-.23-.26-.29-.08-.02.08-.05.16-.07.24h.29c-.14-.72-.26-1.44-.34-2.16,0-.08-.06-.15-.15-.15-.07,0-.16.07-.15.15h0Z"/>
    <path class="cls-2" d="m370.81,62.6c.08,1.1.19,2.19.33,3.28.02.19.32.19.3,0-.14-1.09-.25-2.18-.33-3.28-.01-.19-.31-.19-.3,0h0Z"/>
    <path class="cls-2" d="m369.81,60.64c1.32.15,2.64.15,3.96,0,.19-.02.19-.32,0-.3-1.32.15-2.64.14-3.96,0-.19-.02-.19.28,0,.3h0Z"/>
    <path class="cls-2" d="m368.96,58.82c1.6.42,3.24.69,4.89.79.19.01.19-.29,0-.3-1.63-.1-3.24-.37-4.81-.78-.19-.05-.27.24-.08.29h0Z"/>
    <path class="cls-2" d="m369.05,57.8c1.01.27,2.06.41,3.1.4.19,0,.19-.3,0-.3-1.02,0-2.04-.13-3.02-.39-.19-.05-.27.24-.08.29h0Z"/>
    <path class="cls-2" d="m367.77,55.8c1.35.25,2.7.51,4.05.76l.04-.29c-.23-.01-.46-.02-.69-.03-.19,0-.19.29,0,.3.23.01.46.02.69.03.17,0,.21-.26.04-.29-1.35-.25-2.7-.51-4.05-.76-.19-.04-.27.25-.08.29h0Z"/>
    <path class="cls-2" d="m365.4,55.06c.69.29,1.41.48,2.16.55.19.02.19-.28,0-.3-.69-.06-1.37-.24-2.01-.51-.08-.03-.16-.02-.21.05-.04.06-.02.17.05.21h0Z"/>
    <path class="cls-2" d="m364.11,52.92l4.13.9c.19.04.27-.25.08-.29l-4.13-.9c-.19-.04-.27.25-.08.29h0Z"/>
    <path class="cls-2" d="m365.05,52.52c1.02.24,2.03.46,3.05.67.11.02.21-.07.18-.18-.03-.15-.13-.24-.27-.3-.18-.07-.26.22-.08.29.04.02.06.05.06.09l.18-.18c-1.02-.21-2.04-.43-3.05-.67-.19-.04-.27.25-.08.29h0Z"/>
    <path class="cls-2" d="m363.73,51c1.25.27,2.51.46,3.79.59.19.02.19-.28,0-.3-1.25-.12-2.48-.31-3.71-.58-.19-.04-.27.25-.08.29h0Z"/>
    <path class="cls-2" d="m362.79,49.59l2.42.53c.19.04.27-.25.08-.29l-2.42-.53c-.19-.04-.27.25-.08.29h0Z"/>
    <path class="cls-2" d="m361.81,48.33l6.09,1.11c.19.03.27-.25.08-.29l-6.09-1.11c-.19-.03-.27.25-.08.29h0Z"/>
    <path class="cls-2" d="m365.38,50.51l2.07.41,1.02.2.49.1.24.05s.33.08.31.09c-.14.13.07.35.21.21.24-.23,0-.49-.25-.55-.44-.11-.89-.18-1.33-.27l-2.68-.54c-.19-.04-.27.25-.08.29h0Z"/>
    <path class="cls-2" d="m364.62,52.02c2.13.34,4.28.63,6.42.85.19.02.19-.28,0-.3-2.12-.22-4.24-.5-6.34-.84-.19-.03-.27.26-.08.29h0Z"/>
    <path class="cls-2" d="m366.58,53.42c1.41.33,2.85.54,4.3.64.19.01.19-.29,0-.3-1.42-.09-2.83-.3-4.22-.63-.19-.04-.27.25-.08.29h0Z"/>
    <path class="cls-2" d="m367.3,55.29c.92.16,1.84.33,2.76.52v-.29c-.05.01-.11.03-.16.04-.19.04-.11.33.08.29.05-.01.11-.03.16-.04.14-.03.15-.26,0-.29-.92-.19-1.84-.36-2.76-.52-.19-.03-.27.26-.08.29h0Z"/>
    <path class="cls-2" d="m367.47,56.14c.83.24,1.66.44,2.51.6.19.04.27-.25.08-.29-.85-.16-1.68-.36-2.51-.6-.19-.05-.27.24-.08.29h0Z"/>
    <path class="cls-2" d="m368.92,58.33c.87-.04,1.73-.02,2.6.05.19.02.19-.28,0-.3-.86-.07-1.73-.09-2.6-.05-.19,0-.19.31,0,.3h0Z"/>
    <path class="cls-2" d="m366.58,58.4c1.42.43,2.87.74,4.34.94.19.03.27-.26.08-.29-1.47-.2-2.92-.51-4.34-.94-.19-.06-.26.23-.08.29h0Z"/>
    <path class="cls-2" d="m370.49,60.83c.67.01,1.34.06,2,.15.08.01.16-.02.18-.1.02-.07-.02-.17-.1-.18-.69-.09-1.39-.15-2.08-.16-.19,0-.19.3,0,.3h0Z"/>
    <path class="cls-2" d="m367.56,54.61c1.25.35,2.53.56,3.83.65.19.01.19-.29,0-.3-1.27-.09-2.52-.3-3.75-.64-.19-.05-.27.24-.08.29h0Z"/>
    <path class="cls-2" d="m367.6,53.94c1.11.12,2.22.26,3.32.41.19.03.27-.26.08-.29-1.13-.15-2.27-.29-3.4-.42-.19-.02-.19.28,0,.3h0Z"/>
    <path class="cls-2" d="m364.19,51.42c.81.17,1.63.31,2.45.43.13.02.23-.1.17-.22-.02-.04-.04-.09-.07-.13-.09-.17-.35-.02-.26.15.02.04.04.09.07.13l.17-.22c-.82-.12-1.64-.26-2.45-.43-.19-.04-.27.25-.08.29h0Z"/>
    <path class="cls-2" d="m362.07,49.64c1.91.51,3.87.83,5.85.95.17.01.2-.25.04-.29-.06-.02-.13-.03-.19-.05-.19-.05-.27.24-.08.29.06.02.13.03.19.05l.04-.29c-1.95-.12-3.88-.43-5.77-.94-.19-.05-.27.24-.08.29h0Z"/>
    <path class="cls-2" d="m358.9,48.72c.05.62.11,1.25.21,1.87.05.31.11.61.19.91.06.24.11.53.33.68.16.1.31-.16.15-.26-.1-.06-.12-.25-.15-.35-.03-.12-.07-.24-.09-.36-.07-.27-.12-.55-.16-.82-.09-.55-.13-1.11-.18-1.67-.02-.19-.32-.19-.3,0h0Z"/>
    <path class="cls-2" d="m360.51,49.7l.16,2.36c.04.52-.05,1.32.47,1.65.07.04.16.01.21-.05.13-.21.19-.43.19-.68,0-.19-.3-.19-.3,0s-.05.36-.15.53l.21-.05c-.23-.15-.26-.46-.27-.7-.02-.33-.04-.66-.07-.99l-.14-2.06c-.01-.19-.31-.19-.3,0h0Z"/>
    <path class="cls-2" d="m361.89,50.34c-.13,1.34-.24,2.71.17,4.01.03.1.18.16.25.07.1-.13.15-.26.15-.42,0-.19-.3-.19-.3,0,0,.08,0,.14-.06.21l.25.07c-.4-1.27-.28-2.62-.16-3.93.02-.19-.28-.19-.3,0h0Z"/>
    <path class="cls-2" d="m362.43,52.85c.01.46.05.92.12,1.37.03.22.07.45.12.67.04.18.21.35.39.2.15-.13-.07-.34-.21-.21.11.03.15.02.12-.03,0-.02,0-.04-.01-.06,0-.04-.02-.08-.02-.12-.02-.09-.03-.18-.05-.26-.03-.17-.05-.34-.08-.51-.04-.35-.07-.7-.07-1.05,0-.19-.3-.19-.3,0h0Z"/>
    <path class="cls-2" d="m363.86,51.66c-.18,1.19-.25,2.38-.18,3.58.03.57.1,1.13.19,1.69.06.36.05.97.45,1.13.18.07.26-.22.08-.29-.15-.06-.17-.5-.19-.63-.05-.28-.09-.56-.13-.84-.06-.49-.1-.98-.12-1.48-.03-1.03.03-2.07.19-3.09.03-.19-.26-.27-.29-.08h0Z"/>
    <path class="cls-2" d="m365.63,55.32c-.16,1.14-.28,2.29-.39,3.44-.02.19.28.19.3,0,.1-1.12.22-2.24.38-3.36.03-.19-.26-.27-.29-.08h0Z"/>
    <path class="cls-2" d="m365.97,57.28c.05,1.55.11,3.09.2,4.64.01.19.31.19.3,0-.08-1.55-.15-3.09-.2-4.64,0-.19-.31-.19-.3,0h0Z"/>
    <path class="cls-2" d="m368.13,60.72l.11,1.74.05.85c0,.11,0,.22.1.29.08.07.17.06.25,0,.14-.13-.07-.34-.21-.21h-.02s.1-.01.15-.02c.08.02.04-.05.03-.1v-.17c-.02-.11-.02-.22-.03-.33l-.04-.69-.09-1.35c-.01-.19-.31-.19-.3,0h0Z"/>
    <path class="cls-2" d="m369.02,61.61c.28.92.33,1.9.76,2.77.03.07.14.1.21.05.11-.09.17-.21.12-.35-.06-.18-.35-.1-.29.08,0,.02,0,.02.01,0l.21.05c-.41-.85-.46-1.81-.73-2.7-.06-.18-.35-.11-.29.08h0Z"/>
    <path class="cls-2" d="m370.4,64.24c.19,0,.19-.3,0-.3s-.19.3,0,.3h0Z"/>
    <path class="cls-2" d="m366.74,56.79c1.44.17,2.89.23,4.34.16.19,0,.19-.31,0-.3-1.45.06-2.9.01-4.34-.16-.19-.02-.19.28,0,.3h0Z"/>
    <path class="cls-2" d="m367.21,55.68c1.29.36,2.58.72,3.87,1.07.11.03.22-.07.18-.18-.01-.05-.03-.09-.04-.14-.06-.18-.35-.11-.29.08.01.05.03.09.04.14l.18-.18c-1.29-.35-2.58-.71-3.87-1.07-.19-.05-.27.24-.08.29h0Z"/>
    <path class="cls-2" d="m366.32,52.95l2.34.93c.18.07.26-.22.08-.29l-2.34-.93c-.18-.07-.26.22-.08.29h0Z"/>
    <path class="cls-2" d="m365.73,51.88c.66.22,1.34.35,2.03.38.19,0,.19-.29,0-.3-.67-.03-1.32-.16-1.95-.37-.18-.06-.26.23-.08.29h0Z"/>
    <path class="cls-2" d="m364.07,49.42l2.89.73c.19.05.27-.24.08-.29l-2.89-.73c-.19-.05-.27.24-.08.29h0Z"/>
    <path class="cls-2" d="m362.88,48.65l2.22.93c.08.03.16-.03.18-.1.02-.09-.03-.15-.1-.18l-2.22-.93c-.08-.03-.16.03-.18.1-.02.09.03.15.1.18h0Z"/>
    <path class="cls-2" d="m364.11,52.28c1.13.32,2.28.54,3.45.66.19.02.19-.28,0-.3-1.14-.11-2.27-.33-3.37-.65-.19-.05-.27.24-.08.29h0Z"/>
    <path class="cls-2" d="m365.09,53.34c.84.34,1.71.6,2.6.8.19.04.27-.25.08-.29-.89-.19-1.76-.46-2.6-.8-.18-.07-.26.22-.08.29h0Z"/>
    <path class="cls-2" d="m363.8,54.01l3.26.35c1.09.12,2.2.18,3.27.44.19.05.27-.24.08-.29-1.05-.26-2.15-.32-3.22-.44l-3.39-.36c-.19-.02-.19.28,0,.3h0Z"/>
    <path class="cls-2" d="m366.7,56.45c1.63.46,3.15,1.24,4.47,2.31.15.12.36-.09.21-.21-1.36-1.1-2.92-1.91-4.61-2.38-.19-.05-.27.24-.08.29h0Z"/>
    <path class="cls-2" d="m370.74,61.94c.19,0,.19-.3,0-.3s-.19.3,0,.3h0Z"/>
    <path class="cls-2" d="m366.75,61.62c1.28.43,2.58.81,3.9,1.14.19.05.27-.24.08-.29-1.31-.34-2.61-.72-3.9-1.14-.18-.06-.26.23-.08.29h0Z"/>
    <path class="cls-2" d="m371.53,61.06l2.56.66c.19.05.27-.24.08-.29l-2.56-.66c-.19-.05-.27.24-.08.29h0Z"/>
    <path class="cls-2" d="m369.49,62.51c1.23.43,2.49.76,3.77,1,.19.04.27-.25.08-.29-1.28-.24-2.54-.58-3.77-1-.18-.06-.26.23-.08.29h0Z"/>
    <path class="cls-2" d="m372.37,64.22l2.42.83c.18.06.26-.23.08-.29l-2.42-.83c-.18-.06-.26.23-.08.29h0Z"/>
    <path class="cls-2" d="m374.21,61.68l2.1.59c.19.05.27-.24.08-.29l-2.1-.59c-.19-.05-.27.24-.08.29h0Z"/>
    <path class="cls-2" d="m373.13,62.31c.9.2,1.8.43,2.68.7.19.06.26-.23.08-.29-.88-.27-1.78-.5-2.68-.7-.19-.04-.27.25-.08.29h0Z"/>
    <path class="cls-2" d="m371.22,62.19l2.62.57c.19.04.27-.25.08-.29l-2.62-.57c-.19-.04-.27.25-.08.29h0Z"/>
    <path class="cls-2" d="m369.88,60.66c.6.2,1.19.46,1.75.75.17.09.32-.17.15-.26-.59-.31-1.2-.57-1.82-.78-.18-.06-.26.23-.08.29h0Z"/>
    <path class="cls-2" d="m369.24,58.43c.93.24,1.86.43,2.81.55.19.03.27-.26.08-.29-.95-.13-1.89-.31-2.81-.55-.19-.05-.27.24-.08.29h0Z"/>
    <path class="cls-2" d="m366.56,55.87c.94.18,1.89.33,2.85.44.19.02.19-.28,0-.3-.93-.11-1.85-.25-2.77-.43-.19-.04-.27.25-.08.29h0Z"/>
    <path class="cls-2" d="m371.18,62.85l.37,1.19c.06.2.12.4.19.59.03.08.15.42-.03.43-.19,0-.19.31,0,.3s.35-.16.39-.36c.04-.24-.08-.5-.15-.73l-.47-1.51c-.06-.18-.35-.11-.29.08h0Z"/>
    <path class="cls-2" d="m371.74,62.11l.31,2.55c.02.19.32.19.3,0l-.31-2.55c-.02-.19-.32-.19-.3,0h0Z"/>
    <path class="cls-2" d="m372.09,64.22c.47.65,1.05,1.2,1.71,1.65.16.11.31-.15.15-.26-.62-.42-1.16-.94-1.6-1.55-.05-.07-.13-.1-.21-.05-.06.04-.1.14-.05.21h0Z"/>
    <path class="cls-2" d="m372.24,65.11c.08.43.21.84.4,1.23.09.19.19.38.3.55.06.09.12.19.19.28.03.04.18.2.15.25-.09.17.17.32.26.15.12-.23-.05-.41-.17-.59-.14-.19-.26-.4-.37-.61-.22-.42-.37-.88-.46-1.35-.04-.19-.32-.11-.29.08h0Z"/>
    <path class="cls-2" d="m368,59.02v3.83c0,.19.3.19.3,0v-3.83c0-.19-.3-.19-.3,0h0Z"/>
    <path class="cls-2" d="m369.96,61.74l.18,2.3c.01.19.31.19.3,0l-.18-2.3c-.01-.19-.31-.19-.3,0h0Z"/>
    <path class="cls-2" d="m365.78,57.7c1.71.79,3.55,1.25,5.43,1.36.19.01.19-.29,0-.3-1.83-.11-3.62-.56-5.28-1.32-.17-.08-.33.18-.15.26h0Z"/>
    <path class="cls-2" d="m363.98,53.81h2.13c.19,0,.19-.3,0-.3h-2.13c-.19,0-.19.3,0,.3h0Z"/>
    <path class="cls-2" d="m361.12,53.53c.54,1.47,1.08,2.95,1.62,4.42.07.18.36.1.29-.08-.54-1.47-1.08-2.95-1.62-4.42-.07-.18-.36-.1-.29.08h0Z"/>
    <path class="cls-2" d="m334.78,41.76l1.91-.38c.19-.04.11-.33-.08-.29l-1.91.38c-.19.04-.11.33.08.29h0Z"/>
    <path class="cls-2" d="m325.43,43.16c6.02.73,12.07,1.2,18.13,1.41.19,0,.19-.29,0-.3-6.06-.21-12.11-.68-18.13-1.41-.19-.02-.19.28,0,.3h0Z"/>
    <path class="cls-2" d="m333.88,44.1c1.62,2.5,3.82,4.59,6.41,6.07.17.1.32-.16.15-.26-2.54-1.45-4.71-3.5-6.3-5.96-.1-.16-.36-.01-.26.15h0Z"/>
    <path class="cls-2" d="m328.51,45.94l4.22,3.95c.14.13.35-.08.21-.21l-4.22-3.95c-.14-.13-.35.08-.21.21h0Z"/>
    <path class="cls-2" d="m328.91,44.39c2.69,2.21,5.73,3.95,8.99,5.17.18.07.26-.22.08-.29-3.21-1.2-6.21-2.92-8.85-5.09-.15-.12-.36.09-.21.21h0Z"/>
    <path class="cls-2" d="m332.91,42.94c.44,1.14,1.48,2.02,2.69,2.24.19.03.27-.25.08-.29-1.1-.2-2.07-.98-2.48-2.03-.07-.18-.36-.1-.29.08h0Z"/>
    <path class="cls-2" d="m329.8,41.24l3.32-1.26c.18-.07.1-.36-.08-.29l-3.32,1.26c-.18.07-.1.36.08.29h0Z"/>
    <path class="cls-2" d="m327.08,42.14c2.5-.13,4.97-.64,7.32-1.53.18-.07.1-.36-.08-.29-2.32.88-4.76,1.39-7.24,1.52-.19,0-.19.31,0,.3h0Z"/>
    <path class="cls-2" d="m335.54,42.12l3.84-1.36c.18-.06.1-.35-.08-.29l-3.84,1.36c-.18.06-.1.35.08.29h0Z"/>
    <path class="cls-2" d="m337.34,44.83c.82-.23,1.67-.37,2.52-.4l-.14-.19c-.07.22-.19.42-.36.59-.14.14.08.35.21.21.2-.2.35-.45.43-.72.03-.09-.05-.19-.14-.19-.88.03-1.75.17-2.6.41-.19.05-.11.34.08.29h0Z"/>
    <path class="cls-2" d="m332.36,47.76c1.64,1.12,3.18,2.38,4.59,3.78.14.14.35-.08.21-.21-1.43-1.41-2.99-2.69-4.65-3.82-.16-.11-.31.15-.15.26h0Z"/>
    <path class="cls-2" d="m327.77,45.59c2.08,1.28,4.39,2.16,6.8,2.58.19.03.27-.26.08-.29-2.39-.41-4.67-1.28-6.73-2.55-.16-.1-.32.16-.15.26h0Z"/>
    <path class="cls-2" d="m334,43.9c1.27.99,2.61,1.88,4.01,2.66.17.09.32-.17.15-.26-1.38-.77-2.71-1.64-3.95-2.61-.15-.12-.36.09-.21.21h0Z"/>
    <path class="cls-2" d="m329.73,41.64l.64-.38c.07-.04.1-.14.05-.21s-.13-.1-.21-.05l-.64.38c-.07.04-.1.14-.05.21s.13.1.21.05h0Z"/>
    <path class="cls-2" d="m329.26,39.48l2.43-.25c.19-.02.19-.32,0-.3l-2.43.25c-.19.02-.19.32,0,.3h0Z"/>
    <path class="cls-2" d="m321.49,43.08c.63,1.11,1.51,2.06,2.55,2.79.16.11.31-.15.15-.26-1-.7-1.84-1.62-2.45-2.68-.1-.17-.36-.02-.26.15h0Z"/>
    <path class="cls-2" d="m322.23,39.34l2.55.13c.19,0,.19-.29,0-.3l-2.55-.13c-.19,0-.19.29,0,.3h0Z"/>
    <path class="cls-2" d="m324.4,41.52l3.06-.4c.19-.02.19-.32,0-.3l-3.06.4c-.19.02-.19.32,0,.3h0Z"/>
  </g>
</svg>