<svg xmlns="http://www.w3.org/2000/svg" viewBox="0 0 512 512" id="Pyramid"><path d="M283.891 371.484a10.677 10.677 0 0 0-6.562 9.859c0 5.875 4.766 10.656 10.672 10.656 1.484 0 2.906-.312 4.188-.859l138.125-57.547a10.655 10.655 0 0 0 6.562-9.844c0-5.906-4.781-10.688-10.656-10.688-1.5 0-2.906.312-4.188.875l-138.141 57.548zm0-64a10.677 10.677 0 0 0-6.562 9.859c0 5.875 4.766 10.656 10.672 10.656 1.484 0 2.906-.312 4.188-.859l99.719-41.547c3.875-1.625 6.578-5.406 6.578-9.844 0-5.898-4.781-10.68-10.672-10.68-1.484 0-2.906.312-4.188.859l-99.735 41.556zm0-64a10.666 10.666 0 0 0-6.562 9.852c0 5.891 4.766 10.664 10.672 10.664 1.5 0 2.938-.312 4.25-.883l61.266-25.531a10.648 10.648 0 0 0 6.562-9.844c0-5.891-4.766-10.672-10.672-10.672-1.484 0-2.906.312-4.188.859l-61.328 25.555zM288 200c1.484 0 2.906-.305 4.188-.859l22.938-9.555c3.844-1.609 6.562-5.406 6.562-9.844 0-5.891-4.781-10.672-10.672-10.672-1.484 0-2.906.312-4.203.859l-22.922 9.555a10.666 10.666 0 0 0-6.562 9.852C277.328 195.227 282.094 200 288 200zm-129.531 37.586 61.281 25.531c1.297.57 2.734.883 4.25.883 5.875 0 10.656-4.773 10.656-10.664 0-4.438-2.719-8.242-6.562-9.852l-61.328-25.555a10.745 10.745 0 0 0-4.203-.859c-5.875 0-10.656 4.781-10.656 10.672-.001 4.438 2.718 8.235 6.562 9.844zm38.406-48 22.938 9.555.078.039c1.266.523 2.641.82 4.109.82 5.875 0 10.656-4.773 10.656-10.664 0-4.438-2.719-8.242-6.562-9.852l-22.938-9.555a10.612 10.612 0 0 0-4.188-.859c-5.891 0-10.656 4.781-10.656 10.672 0 4.438 2.704 8.242 6.563 9.844zm31.219 117.898-99.719-41.555a10.805 10.805 0 0 0-4.203-.859c-5.891 0-10.672 4.781-10.672 10.68 0 4.438 2.719 8.219 6.562 9.844l99.734 41.547c1.298.547 2.704.859 4.204.859 5.875 0 10.656-4.781 10.656-10.656 0-4.438-2.718-8.25-6.562-9.86zm0 64L89.969 313.938a10.476 10.476 0 0 0-4.188-.875 10.683 10.683 0 0 0-10.688 10.688c0 4.438 2.719 8.219 6.578 9.844l138.125 57.547A10.77 10.77 0 0 0 224 392c5.875 0 10.656-4.781 10.656-10.656 0-4.438-2.718-8.25-6.562-9.86z" fill="#ffb460" class="color000000 svgShape"></path><path d="M256 42.664 0 362.656l256 106.688 256-106.688L256 42.664zm221.625 311.211-210.969 87.906V90.148l210.969 263.727zM245.328 90.148v351.633L34.344 353.875 245.328 90.148z" fill="#ffb460" class="color000000 svgShape"></path></svg>