<svg xmlns="http://www.w3.org/2000/svg" viewBox="0 0 64 64" id="ski-jumping"><rect width="8.485" height="11.314" x="45.757" y="8.343" fill="#ffd782" transform="rotate(-45 50 14)"></rect><rect width="5.657" height="11.314" x="52.172" y="3.343" fill="#4f83d1" transform="rotate(-45 55 9)"></rect><path fill="#394d5c" d="M53,11l-.879.879a3,3,0,0,0,0,4.242L54,18l3-3Z"></path><rect width="14.142" height="12.728" x="32.429" y="19.136" fill="#e5e4d1" transform="rotate(-45 39.5 25.5)"></rect><rect width="9.899" height="4.243" x="33.05" y="24.879" fill="#3e5496" transform="rotate(-45 38 27)"></rect><rect width="15.556" height="7.071" x="21.222" y="32.464" fill="#4c6cae" transform="rotate(-45 29 36)"></rect><path fill="#394d5c" d="M21,39l-3,3,6.579,6.579L29,46.854V46a2,2,0,0,0-2-2H26Z"></path><path fill="#e1462b" d="M44.786,39.428,44,41,3,57l1,4L46,45l2.214-3.69a1.956,1.956,0,0,0-.294-2.39h0A1.957,1.957,0,0,0,44.786,39.428Z"></path><rect width="21" height="2" x="14" y="15" fill="#32b1cc"></rect><rect width="19" height="2" x="12" y="19" fill="#32b1cc"></rect></svg>