<?xml version="1.0" encoding="UTF-8"?>
<svg id="Layer_1" data-name="Layer 1" xmlns="http://www.w3.org/2000/svg" viewBox="0 0 1920 1080">
  <defs>
    <style>
      .cls-1 {
        fill: #604747;
      }

      .cls-2 {
        fill: #fff;
      }

      .cls-3 {
        fill: #256a30;
      }

      .cls-4 {
        fill: #755959;
      }

      .cls-5 {
        fill: #714f4f;
      }

      .cls-6 {
        fill: #c4dfe8;
      }

      .cls-7 {
        fill: #42210b;
      }

      .cls-8 {
        fill: #eef9ff;
      }

      .cls-9 {
        fill: #422f2f;
      }

      .cls-10 {
        opacity: .1;
      }

      .cls-11 {
        fill: #aecbd3;
      }

      .cls-12 {
        fill: #5b4242;
      }

      .cls-13 {
        fill: none;
      }

      .cls-14 {
        fill: #593e3e;
      }

      .cls-15 {
        fill: #4f3131;
      }

      .cls-16 {
        fill: #382828;
      }

      .cls-17 {
        fill: #ff0;
      }
    </style>
  </defs>
  <g id="Layer_2" data-name="Layer 2">
    <path class="cls-2" d="m1920,675.83v404.17H0V511.06c140.69-49.83,325.54-80.06,528-80.06,292.4,0,548.07,63.06,687.04,157.12,46.38-3.36,94.16-5.12,142.96-5.12,219.21,0,417.77,35.44,562,92.83Z"/>
  </g>
  <path class="cls-2" d="m1326,751c0,32.35-11.98,63.59-34.24,93.03-1.23,1.61-2.48,3.23-3.78,4.83-75.82,94.77-258.82,170.29-491.79,203.62-40.34,5.77-82.19,10.28-125.23,13.4h-.01c-43.13,3.13-87.46,4.87-132.71,5.09-3.41.02-6.82.03-10.24.03-202.46,0-387.31-30.23-528-80.06v-479.88c140.69-49.83,325.54-80.06,528-80.06,292.4,0,548.07,63.06,687.04,157.12,70.49,47.72,110.96,103.4,110.96,162.88Z"/>
  <path class="cls-8" d="m1920,675.83v404.17H693.09c-7.68-4.62-15.06-9.33-22.13-14.12h-.01c-26.68-18.06-49.05-37.26-66.56-57.38-28.76-33.04-44.39-68.54-44.39-105.5,0-28.22,9.11-55.59,26.23-81.67,18.17-27.69,45.36-53.91,80.24-78.13,115.14-79.95,314.02-138.07,548.57-155.08,46.38-3.36,94.16-5.12,142.96-5.12,219.21,0,417.77,35.44,562,92.83Z"/>
  <path class="cls-8" d="m797,1038c0,4.85-.27,9.68-.81,14.48-1.02,9.28-3.04,18.46-6.01,27.52H0v-362c150.34.07,290.94,16.82,410.92,45.88h.01c65.08,15.76,124.09,35.14,175.3,57.45,72.73,31.67,129.72,69.25,166,110.73,29,33.16,44.77,68.81,44.77,105.94Z"/>
  <path class="cls-2" d="m1493,1063c0,5.7-.37,11.37-1.11,17H0v-174.37c91.03-64.5,236.28-115.07,410.92-141.75h.01c79.84-12.21,165.8-19.42,255.54-20.68,9.47-.13,18.98-.2,28.53-.2,229.63,0,436.6,38.89,582.19,101.15,3.64,1.55,7.23,3.12,10.79,4.71,127.44,56.7,205.02,131.79,205.02,214.14Z"/>
  <path class="cls-8" d="m1920,961.54v118.46H531.78c2.04-3.02,4.2-6.03,6.46-9.03,16.58-21.91,38.86-42.83,66.15-62.47,39.49-28.43,89.47-54.19,147.84-76.44,137.54-52.45,321.69-85.42,524.96-87.91,4.84-.06,9.7-.1,14.57-.12,3.41-.02,6.82-.03,10.24-.03,249.16,0,471.65,45.79,618,117.54Z"/>
  <path id="Mörkare" class="cls-10" d="m1920,675.83v404.17H0V511.06c140.69-49.83,325.54-80.06,528-80.06,292.4,0,548.07,63.06,687.04,157.12,46.38-3.36,94.16-5.12,142.96-5.12,219.21,0,417.77,35.44,562,92.83Z"/>
  <ellipse class="cls-11" cx="1485.3" cy="740.04" rx="241" ry="42.5"/>
  <ellipse class="cls-11" cx="1759.3" cy="790.54" rx="74" ry="17"/>
  <ellipse class="cls-11" cx="1257.46" cy="692.3" rx="74" ry="17"/>
  <ellipse class="cls-6" cx="1774.35" cy="663.84" rx="28.29" ry="6.5"/>
  <g>
    <rect class="cls-1" x="1245.62" y="593.95" width="29.68" height="98.66"/>
    <polygon class="cls-3" points="1260.46 504.15 1350.96 602 1169.96 602 1260.46 504.15"/>
    <polygon class="cls-3" points="1260.46 454.96 1334 540.15 1186.92 540.15 1260.46 454.96"/>
    <polygon class="cls-3" points="1260.46 406.75 1321.93 482.65 1198.99 482.65 1260.46 406.75"/>
    <polygon class="cls-2" points="1260.46 403.38 1313.74 469.15 1207.18 469.15 1260.46 403.38"/>
  </g>
  <g>
    <rect class="cls-1" x="1682.84" y="623" width="11.86" height="44.07"/>
    <polygon class="cls-3" points="1688.77 582.89 1724.95 626.6 1652.59 626.6 1688.77 582.89"/>
    <polygon class="cls-2" points="1688.77 580.63 1721.97 620.74 1655.56 620.74 1688.77 580.63"/>
    <polygon class="cls-3" points="1688.77 560.92 1718.17 598.97 1659.37 598.97 1688.77 560.92"/>
    <polygon class="cls-2" points="1688.77 559.41 1715.78 594.38 1661.75 594.38 1688.77 559.41"/>
    <polygon class="cls-3" points="1688.77 539.39 1713.34 573.29 1664.19 573.29 1688.77 539.39"/>
    <polygon class="cls-2" points="1688.77 537.88 1710.07 567.26 1667.47 567.26 1688.77 537.88"/>
  </g>
  <g>
    <polygon class="cls-4" points="1307.54 572.73 1516.31 578.31 1518.79 757.54 1307.54 748.05 1307.54 572.73"/>
    <ellipse class="cls-5" cx="1662.43" cy="685.48" rx="22.38" ry="35.93"/>
    <ellipse class="cls-14" cx="1309.48" cy="712.74" rx="22.38" ry="35.93"/>
    <ellipse class="cls-14" cx="1309.48" cy="647.69" rx="22.38" ry="35.93"/>
    <ellipse class="cls-14" cx="1309.48" cy="588.22" rx="22.38" ry="35.93"/>
    <ellipse class="cls-5" cx="1660.57" cy="626.63" rx="22.38" ry="35.93"/>
    <ellipse class="cls-5" cx="1660.57" cy="571.49" rx="22.38" ry="35.93"/>
    <polygon class="cls-5" points="1670.57 543 1516.31 578.31 1518.79 757.54 1670.57 719.55 1670.57 543"/>
    <ellipse class="cls-14" cx="1516.37" cy="721.41" rx="22.38" ry="35.93"/>
    <ellipse class="cls-14" cx="1516.37" cy="661.32" rx="22.38" ry="35.93"/>
    <ellipse class="cls-14" cx="1516.37" cy="607.42" rx="22.38" ry="35.93"/>
    <path class="cls-2" d="m1268.51,569.63c-1.56.1-6.26.4-7.43-1.86-1.29-2.48,2.39-6.68,10.53-15.49,15.36-16.61,22.3-23.54,22.3-23.54,14.43-14.4,13.67-13.51,15.49-15.49,6.89-7.5,8.18-9.84,19.82-23.54,5.07-5.97,8.1-9.52,12.39-14.25,8.21-9.04,10.51-10.75,22.3-22.92,14.13-14.59,13.21-14.6,17.97-18.58,10.43-8.74,20.21-13.18,25.4-15.49,13.07-5.82,18.28-5.29,53.28-11.77,23.27-4.31,34.9-6.46,42.13-8.67,10.2-3.12,20.73-5.09,30.97-8.05,13.07-3.78-.07.02,10.53-1.86,3.02-.54,4.6-.82,6.19,0,2.6,1.33,3.96,4.91,3.72,6.81-.75,5.99-18.73,7.15-37.79,10.53-49.81,8.83-64.19,25.19-84.87,19.82-2.63-.68-10.64-3.09-17.97.62-5.79,2.93-8.47,8.33-9.29,9.91-15.32,29.54-107.52,132.03-135.67,133.81h0Z"/>
    <polygon class="cls-1" points="1260.46 578.03 1548.53 586.98 1401.61 428.96 1260.46 578.03"/>
    <polygon class="cls-15" points="1317.45 579.78 1485.34 584.99 1399.72 492.9 1317.45 579.78"/>
    <polygon class="cls-4" points="1401.61 428.96 1557.2 391.84 1696.59 539.28 1548.53 586.98 1401.61 428.96"/>
    <polygon class="cls-7" points="1381.54 751.37 1381.54 621.47 1453.74 623.53 1453.91 754.68 1381.54 751.37"/>
    <ellipse cx="1396.13" cy="689.82" rx="4.96" ry="7.43"/>
    <path class="cls-2" d="m1425.86,447.59c5.08,5.42,7.62,8.13,12.39,13.63,11.72,13.51,18.81,18.74,34.69,34.69,14.64,14.71,13.2,14.47,29.74,31.59,18.28,18.93,32.1,38.12,48.94,42.75,2.42.66,7.84,2.09,14.25.62,6.69-1.53,9.11-4.98,14.87-8.67,3.91-2.51,4.62-2.09,30.97-8.67,14.24-3.56,18.27-4.74,23.54-6.81,7.02-2.77,7.51-4.09,13.63-6.19,6.73-2.31,12.37-3.07,21.68-4.34,10.83-1.47,15.94-1.42,19.2-5.58.47-.59,2.3-2.93,1.86-5.58-.55-3.33-4.36-5.18-6.19-6.19-4.7-2.6-3.72-3.76-14.87-15.49-14.83-15.61-17.41-14.45-28.5-27.26-4.13-4.77-2.99-4.03-12.39-15.49-6.81-8.3-10.61-12.92-15.49-17.97-7.9-8.17-9.69-8.23-17.35-15.49-16.08-15.24-16.59-22.94-31.59-33.45-7.77-5.44-13.85-7.74-17.97-5.58-1.65.87-2.23,2.22-3.1,3.1-6.98,7.03-17.09,5.67-27.26,6.19-15.14.78-12.19,4.78-40.89,9.91-10.24,1.83-8.89,1.02-20.44,3.1-23.23,4.19-18.86,5.73-34.07,8.05,0,0-9.96,1.52-19.2,6.81-3.59,2.05-3.82,2.85-3.72,3.1.26.6,3.1-.8,6.19,0,2.92.75,4.6,3.08,5.58,4.34,2.95,3.83-1.75-3.53,15.49,14.87h0Z"/>
    <polygon class="cls-12" points="1516.37 402.91 1549.1 393.89 1577.5 398.4 1574.58 399.4 1549.1 408.13 1516.37 402.91"/>
    <polygon points="1531.52 401.87 1548.03 397.8 1562.35 399.83 1560.88 400.28 1548.03 404.23 1531.52 401.87"/>
    <polygon class="cls-16" points="1546.05 461.84 1516.31 425.29 1516.31 402.99 1549.14 407.94 1546.05 461.84"/>
    <polygon class="cls-9" points="1546.05 461.84 1577.5 448.75 1577.5 398.4 1549.14 407.94 1546.05 461.84"/>
    <line class="cls-13" x1="1435.73" y1="459.29" x2="1418.43" y2="438.3"/>
    <path class="cls-2" d="m1508.88,424.05c3.1-6.06,3.24-9.82,4.96-9.91,2.86-.16,2.49,10.28,10.53,17.35,2.78,2.44,2.49.89,13.63,6.81,8.33,4.43,9.7,5.93,13.63,6.19,2.45.16,5.55-.72,11.77-2.48,3.9-1.11,7.85-2.04,11.77-3.1,2.05-.56,2.7-.74,3.72-.62,4.4.53,8.69,5.97,8.05,9.91-.43,2.67-3.07,4.25-14.87,8.67-15.46,5.79-23.31,8.68-29.12,8.05-4.63-.5-9.08-2.81-17.97-7.43-15.37-7.99-25.68-13.36-25.4-19.82.18-4.13,4.49-4.25,9.29-13.63h0Z"/>
  </g>
  <g>
    <rect class="cls-1" x="1745.97" y="698.3" width="24.89" height="92.43"/>
    <polygon class="cls-3" points="1758.41 614.17 1834.3 705.84 1682.53 705.84 1758.41 614.17"/>
    <polygon class="cls-2" points="1758.41 609.43 1828.06 693.56 1688.77 693.56 1758.41 609.43"/>
    <polygon class="cls-3" points="1758.41 568.09 1820.08 647.89 1696.75 647.89 1758.41 568.09"/>
    <polygon class="cls-2" points="1758.41 564.93 1815.08 638.26 1701.75 638.26 1758.41 564.93"/>
    <polygon class="cls-3" points="1758.41 522.92 1809.96 594.02 1706.87 594.02 1758.41 522.92"/>
    <polygon class="cls-2" points="1758.41 519.76 1803.09 581.38 1713.74 581.38 1758.41 519.76"/>
  </g>
  <g>
    <polygon class="cls-17" points="1639.22 597.67 1593.44 611.04 1594.18 678.85 1639.22 664.48 1639.22 597.67"/>
    <polygon points="1639.22 635.65 1621.93 639.57 1622.92 669.68 1611.53 673.32 1611.53 641.94 1593.44 646.04 1593.71 636.14 1593.71 635.65 1611.53 631.96 1611.53 605.5 1620.73 603.07 1621.61 629.87 1639.22 626.23 1639.22 635.65"/>
  </g>
</svg>