<?xml version="1.0" encoding="UTF-8"?>
<svg id="Layer_1" data-name="Layer 1" xmlns="http://www.w3.org/2000/svg" viewBox="0 0 488 1080">
  <defs>
    <style>
      .cls-1 {
        stroke-width: 18px;
      }

      .cls-1, .cls-2, .cls-3, .cls-4, .cls-5, .cls-6 {
        stroke-miterlimit: 10;
      }

      .cls-1, .cls-2, .cls-3, .cls-5, .cls-6 {
        fill: none;
        stroke: #a67c52;
      }

      .cls-7 {
        fill: aqua;
      }

      .cls-2 {
        stroke-width: 16px;
      }

      .cls-3 {
        stroke-width: 14px;
      }

      .cls-4 {
        stroke: #604747;
        stroke-width: 29px;
      }

      .cls-4, .cls-8 {
        fill: #c69c6d;
      }

      .cls-5 {
        stroke-width: 13px;
      }

      .cls-6 {
        stroke-width: 20px;
      }
    </style>
  </defs>
  <path class="cls-7" d="m446.46,75.7c-2.43,21.67,5.58,43.58,7.22,65.08,2,26.33-3.16,52.69-2.92,79.02.41,44.38,11.29,87.04,6.74,131.69-1.59,15.67-4.84,22.62-5,32.01-.52,30.25,4.52,52.46,7,72,1.53,12.05.35,37.37-2,88-2.94,63.26,7.81,125.48,6.74,188.92-.7,41.24-15.43,81.25-14.74,122.13.23,13.66,3.36,28.53,5.92,41.82,5.94,30.74,5.02,54.74,1.15,86.01-4.01,32.48-2.46,65.64,4.56,97.62H0V0h467.14c.19,4.54-.06,9.13-.81,13.73-3.5,21.57-17.42,40.21-19.87,61.97Z"/>
  <path class="cls-4" d="m446.46,75.7c-2.43,21.67,5.58,43.58,7.22,65.08,2,26.33-3.16,52.69-2.92,79.02.41,44.38,11.29,87.04,6.74,131.69-1.59,15.67-4.84,22.62-5,32.01-.52,30.25,4.52,52.46,7,72,1.53,12.05.35,37.37-2,88-2.94,63.26,7.81,125.48,6.74,188.92-.7,41.24-15.43,81.25-14.74,122.13.23,13.66,3.36,28.53,5.92,41.82,5.94,30.74,5.02,54.74,1.15,86.01-4.01,32.48-2.46,65.64,4.56,97.62H0V0h467.14c.19,4.54-.06,9.13-.81,13.73-3.5,21.57-17.42,40.21-19.87,61.97Z"/>
  <path class="cls-8" d="m431.46,75.7c-2.43,21.67,5.58,43.58,7.22,65.08,2,26.33-3.16,52.69-2.92,79.02.41,44.38,11.29,87.04,6.74,131.69-1.59,15.67-4.84,22.62-5,32.01-.52,30.25,4.52,52.46,7,72,1.53,12.05.35,37.37-2,88-2.94,63.26,7.81,125.48,6.74,188.92-.7,41.24-15.43,81.25-14.74,122.13.23,13.66,3.36,28.53,5.92,41.82,5.94,30.74,5.02,54.74,1.15,86.01-4.01,32.48-2.46,65.64,4.56,97.62H0V0h452.14c.19,4.54-.06,9.13-.81,13.73-3.5,21.57-17.42,40.21-19.87,61.97Z"/>
  <path class="cls-8" d="m410.46,1004.3c-2.43-21.67,5.58-43.58,7.22-65.08,2-26.33-3.16-52.69-2.92-79.02.41-44.38,11.29-87.04,6.74-131.69-1.59-15.67-4.84-22.62-5-32.01-.52-30.25,4.52-52.46,7-72,1.53-12.05.35-37.37-2-88-2.94-63.26,7.81-125.48,6.74-188.92-.7-41.24-15.43-81.25-14.74-122.13.23-13.66,3.36-28.53,5.92-41.82,5.94-30.74,5.02-54.74,1.15-86.01-4.01-32.48-2.46-65.64,4.56-97.62H-21v1080h452.14c.19-4.54-.06-9.13-.81-13.73-3.5-21.57-17.42-40.21-19.87-61.97Z"/>
  <path class="cls-6" d="m326.37,0c-3.47,16.43-6.18,36.61-5.87,59.5.78,56.92,11.45,202.44-7,313-14.41,86.35-9.61,155.45-7,190,7.85,103.8,20.48,445.54,19,482-.53,12.99-.23,24.93.49,35.5"/>
  <path class="cls-5" d="m204.86,1080c13.85-120.62,20.89-186.26,20.64-270.5-.1-33.74-2.73-76.83-8-163-8.06-131.87-13-149.65-8-203,6.05-64.51,15.79-65.29,23-148,2.85-32.72,6.59-77.64,3-136-3.5-56.8-10.14-64.56-10-102,.07-17.63,1.62-36.85,5.48-57.5"/>
  <path class="cls-1" d="m134.62,0c-6.17,54.58-5.96,99.65-4.12,133.5,3.78,69.59,15.58,113.36,14,210-.53,32.8-2.36,55.87-6,102-11.04,139.73-22.25,148.14-20,213,2.48,71.61,16.2,62.78,22,153,3.87,60.17-1.18,80.52-2,167-.25,27.08-.1,61.35,1.27,101.5"/>
  <path class="cls-2" d="m55.73,1080c.9-16.19,1.84-31.05,2.77-44.5,5.69-82.25,10.49-107.04,9-165-2.2-85.53-14.5-102.53-21-186-5.98-76.76-.96-131.4,8-229,12.52-136.35,26.81-154.96,25-249-1.32-68.35-9.23-77.43-12-143-.83-19.68-1.05-40.87-.34-63.5"/>
  <path class="cls-3" d="m384.44,0c1.49,30.49,2.81,65.88,3.56,105,4.2,219.47-15.83,233.94-4,382,7.92,99.09,20.25,134.75,10,216-7.57,59.98-18.84,76.59-21,137-2.43,68.07,9.96,100.82,21,178,2.55,17.83,5.11,38.57,7.22,62"/>
</svg>