<?xml version="1.0" encoding="UTF-8"?>
<svg id="Layer_4" data-name="Layer 4" xmlns="http://www.w3.org/2000/svg" xmlns:xlink="http://www.w3.org/1999/xlink" viewBox="0 0 275 391">
  <defs>
    <style>
      .cls-1 {
        fill: url(#linear-gradient-2);
      }

      .cls-2 {
        fill: url(#linear-gradient-6);
      }

      .cls-3 {
        fill: #562442;
      }

      .cls-4 {
        fill: url(#linear-gradient-5);
      }

      .cls-5 {
        fill: url(#linear-gradient-3);
      }

      .cls-6 {
        fill: url(#linear-gradient);
      }

      .cls-7 {
        fill: url(#linear-gradient-4);
      }
    </style>
    <linearGradient id="linear-gradient" x1="-319.04" y1="-3530.54" x2="-400.77" y2="-3561.55" gradientTransform="translate(564 -3198) scale(1 -1)" gradientUnits="userSpaceOnUse">
      <stop offset="0" stop-color="#6e6777"/>
      <stop offset=".9" stop-color="#562442"/>
    </linearGradient>
    <linearGradient id="linear-gradient-2" x1="-579.53" y1="-3552.85" x2="-495.71" y2="-3561.56" xlink:href="#linear-gradient"/>
    <linearGradient id="linear-gradient-3" x1="-426.19" y1="-3406.22" x2="-426.19" y2="-3601.34" gradientTransform="translate(564 -3198) scale(1 -1)" gradientUnits="userSpaceOnUse">
      <stop offset="0" stop-color="#6e6777"/>
      <stop offset="1" stop-color="#562442"/>
    </linearGradient>
    <linearGradient id="linear-gradient-4" x1="-539.89" y1="-3516.91" x2="-535.19" y2="-3508.21" gradientTransform="translate(564 -3198) scale(1 -1)" gradientUnits="userSpaceOnUse">
      <stop offset="0" stop-color="#ffd177"/>
      <stop offset="1" stop-color="#edae42"/>
    </linearGradient>
    <linearGradient id="linear-gradient-5" x1="-489.18" y1="-3459.27" x2="-534.49" y2="-3501.17" gradientTransform="translate(564 -3198) scale(1 -1)" gradientUnits="userSpaceOnUse">
      <stop offset="0" stop-color="#fbe2bd"/>
      <stop offset=".36" stop-color="#faab92"/>
      <stop offset=".71" stop-color="#f97c6d"/>
      <stop offset=".89" stop-color="#f96a5f"/>
    </linearGradient>
    <linearGradient id="linear-gradient-6" x1="-537.6" y1="-3513.37" x2="-540.73" y2="-3519.94" gradientTransform="translate(564 -3198) scale(1 -1)" gradientUnits="userSpaceOnUse">
      <stop offset="0" stop-color="#7e2424"/>
      <stop offset="1" stop-color="#f7c854"/>
    </linearGradient>
  </defs>
  <path class="cls-6" d="m193.15,339.65l-2.23,8.8s-2.48,13.19-4.25,18.15c-3.41,9.62-12.01,20.91-14.75,23.74-.41.42-.97.66-1.56.66h-10.76c-.3,0-.58-.12-.79-.34-2.63-2.79,3.17-6.41,3.17-6.41,0,0,6.66-16.77,4.83-23.6-1.44-5.43-11.08-15.65-12.11-17.9h0c.43-9.09,20.3-18.61,38.44-3.1Z"/>
  <path class="cls-1" d="m61.25,336.84c6.33,9.94,6.39,14.83,6.39,23.22-9.89,17.28-21.63,27.97-24.45,30.41-.4.34-.9.53-1.43.53h-10.46c-.57,0-1.05-.43-1.09-1-.11-1.59.32-4.66,4.85-5.94,3.06-6.24,5.21-12.89,6.39-19.74l5.48-33.84c2.76-.5,10.22-.04,14.31,6.37Z"/>
  <path class="cls-5" d="m244,189.32c-6.56,10.39-2.69,25.05-3.1,40.9-.54,21.16-17.55,39.83-29.71,37.3-38.55-9.39-120.98,12.21-149.41-3.37-8.52-4.67-8.98-15.13-28.38-27.66-2.34-1.51-5.43.42-5.53,3.19l-.03.28-1.89,8.41c-.09.4-.33.75-.66.98-2.63,1.8-14.33,10.46-14.9,21.9-.19,3.83-7.22,5.29-7.2,11.38.3,6.58,6.69,14.28,19.94,16.31,8,1.24,14.64,6.84,17.22,14.52,1.88,5.57,5.01,15.63,10.37,24.27,6.22,10.02,11.8,16.45,16.93,22.34,6.13,7.04,11.24,13.62,14.38,25.54-.34.17-.66.38-.94.64-1.13.99-1.23,2.71-.24,3.83.52.59,1.26.92,2.04.92h7.48c.7,0,1.37-.27,1.87-.75,2.59-2.51,4.37-5.74,5.11-9.28,1.47-7.87-.54-22.36-3.6-33.88-.3-1.16.39-2.34,1.54-2.65.25-.07.51-.09.76-.06,13.26,1.24,38.83.02,58.66-1.64,11.88-.99,21.7-2.15,25.61-3.03.76-.17,1.55.08,2.08.65,4.21,5.81,16.8,15,19.11,17.16,1.21,1.15,1.75,2.83,1.43,4.47l-4.27,22.25c-1.06.66-1.98,1.52-2.72,2.53-.83,1.25-.48,2.94.77,3.77.45.29.97.45,1.5.45h8.07c1.93,0,3.05-.54,3.76-1.49,4.52-6.03,14.95-28.28,14.59-32.55-.59-7.22-6.26-19.67-3.34-32.03,1.54-6.49,4.49-27.94,1.99-38.37-.18-.73.16-1.5.83-1.85,8.89-4.61,27.92-20.02,31.22-44.26,1.93-14.2-3.14-28.14,1.53-38.02,3.23-6.83,15.55-10.21,15.55-17.03,0-12.75-17.4-13.55-28.43,3.92Z"/>
  <circle class="cls-3" cx="2.51" cy="279.64" r="2.51" transform="translate(-277.13 280.97) rotate(-89.76)"/>
  <path class="cls-7" d="m34.61,313.62c0,4.22-3.42,7.65-7.65,7.65h0c-.1,0-.2,0-.29-.01-.5-.02-1-.08-1.49-.2-.87-.21-1.7-.57-2.45-1.07-3.52-2.34-4.48-7.08-2.14-10.6,2.34-3.52,7.08-4.48,10.6-2.14,2.14,1.42,3.42,3.81,3.42,6.38Z"/>
  <path class="cls-4" d="m59.48,262.67c-6.4,16.32-23.15,33.37-29.34,38.49-.46.38-.67.98-.56,1.56.5,2.49,4.4,6.67,6.94,6.18.23-.05.46-.15.65-.3,12.32-9.27,25.56-25.85,31.23-42.09.23-.65.13-1.37-.27-1.93-1.17-1.57-4.16-3.16-6.6-3.25-.9-.04-1.72.5-2.05,1.33Z"/>
  <path class="cls-2" d="m28.39,316.59c0-1.42-1.15-2.57-2.57-2.57s-2.57,1.15-2.57,2.57c0,.51.15,1.01.44,1.44,0,.02-.02.03-.03.05-.15.36-.52,1.2-.93,1.92.75.5,1.58.86,2.45,1.07.46-.87.82-1.72.92-1.94,1.3-.14,2.28-1.23,2.29-2.54Z"/>
  <circle class="cls-3" cx="17.35" cy="270.93" r="2.61"/>
</svg>