<?xml version="1.0" encoding="UTF-8"?>
<svg id="Layer_4" data-name="Layer 4" xmlns="http://www.w3.org/2000/svg" xmlns:xlink="http://www.w3.org/1999/xlink" viewBox="0 0 188 391">
  <defs>
    <style>
      .cls-1 {
        fill: url(#linear-gradient-2);
      }

      .cls-2 {
        fill: #5652af;
      }

      .cls-3 {
        fill: url(#linear-gradient-3);
      }

      .cls-4 {
        fill: url(#linear-gradient);
      }

      .cls-5 {
        fill: url(#linear-gradient-4);
      }
    </style>
    <linearGradient id="linear-gradient" x1="-557" y1="-3387.32" x2="-556.17" y2="-3393.56" gradientTransform="translate(125.53 -3229.86) rotate(-7.38) scale(1 -1)" gradientUnits="userSpaceOnUse">
      <stop offset=".45" stop-color="#ffb243"/>
      <stop offset="1" stop-color="#ff9045"/>
    </linearGradient>
    <linearGradient id="linear-gradient-2" x1="-438.35" y1="-3446.08" x2="-465.33" y2="-3397.62" gradientTransform="translate(125.53 -3229.86) rotate(-7.38) scale(1 -1)" gradientUnits="userSpaceOnUse">
      <stop offset="0" stop-color="#c5c8ce"/>
      <stop offset="1" stop-color="#f2f1e7"/>
    </linearGradient>
    <linearGradient id="linear-gradient-3" x1="-427.94" y1="-3439.76" x2="-478.62" y2="-3368.96" gradientTransform="translate(125.53 -3229.86) rotate(-7.38) scale(1 -1)" gradientUnits="userSpaceOnUse">
      <stop offset="0" stop-color="#5652af"/>
      <stop offset="1" stop-color="#90a9db"/>
    </linearGradient>
    <linearGradient id="linear-gradient-4" x1="-452.34" y1="-3401.53" x2="-529.85" y2="-3401.53" xlink:href="#linear-gradient-3"/>
  </defs>
  <path class="cls-4" d="m3.45,203.5c-.64.42-.82,1.27-.41,1.91.18.28.45.48.77.57l9.65,2.85-.24-11.69-9.78,6.36Z"/>
  <path class="cls-1" d="m182.99,180.83h0c2.06-2.98,3.27-6.88.86-11.5-.83-1.58-18.45,14.32-36.11,23.64-9.51,5.02-26.01,8.52-36.5,6.13-19.55-4.45-49.39-14.2-54.4-16.06-22.22-8.26-38.32.07-41.88,14.88-1.33,5.54-1.76,10.44-1.72,10.82.15,18.56,21.05,64.89,72.17,58.27,29.17-3.78,42.67-23.3,48.02-34.22,2.53-5.2,6.39-9.64,11.18-12.88,10.06-6.76,26.65-18.03,33.58-23.42,7.4-5.76,8.84-12.98,4.79-15.66Z"/>
  <path class="cls-3" d="m183.85,169.33c2.42,4.62,1.2,8.52-.86,11.5-1.86,2.69-4.4,4.63-5.61,5.69-7.54,6.6-79.52,77.51-131.35,38.56-7.32-5.5-24.68-21.64-32.79-16.33-.13-.83-1.66-6.47-.42-11.12,4.46-14.56,22-26.72,44.22-18.47,5,1.86,36.85,10.21,56.4,14.66,10.48,2.4,21.48.97,31-4.03,17.67-9.32,28.46-20.95,35.04-22.45,1.74-.4,3.53.42,4.36,2Z"/>
  <rect class="cls-2" x="23.28" y="192.77" width="4.52" height="4.52" rx="2.26" ry="2.26" transform="translate(-24.83 4.89) rotate(-7.38)"/>
  <path class="cls-5" d="m74.32,210.3c-5.15.67-10.3.22-15.6-.24-1.12-.1-2.25-.2-3.4-.29-.92-.07-1.61-.88-1.54-1.8s.88-1.61,1.8-1.54c1.16.09,2.3.19,3.43.29,10.19.88,18.98,1.65,28.38-5.15.75-.54,1.8-.37,2.34.39.54.75.37,1.79-.37,2.33-4.41,3.26-9.59,5.34-15.04,6.01Z"/>
</svg>