<?xml version="1.0" encoding="UTF-8"?>
<svg id="Layer_4" data-name="Layer 4" xmlns="http://www.w3.org/2000/svg" xmlns:xlink="http://www.w3.org/1999/xlink" viewBox="0 0 352 391">
  <defs>
    <style>
      .cls-1 {
        fill: url(#linear-gradient-2);
      }

      .cls-2 {
        fill: #4c2c33;
      }

      .cls-3 {
        fill: url(#linear-gradient-6);
      }

      .cls-4 {
        fill: #e84f36;
      }

      .cls-5 {
        fill: url(#linear-gradient-5);
      }

      .cls-6 {
        fill: url(#linear-gradient-7);
      }

      .cls-7 {
        fill: url(#linear-gradient-9);
      }

      .cls-8 {
        fill: url(#linear-gradient-3);
      }

      .cls-9 {
        fill: url(#linear-gradient);
      }

      .cls-10 {
        fill: url(#linear-gradient-4);
      }

      .cls-11 {
        fill: url(#linear-gradient-8);
      }
    </style>
    <linearGradient id="linear-gradient" x1="-487.75" y1="-3546.27" x2="-466.26" y2="-3542.36" gradientTransform="translate(564 -3198) scale(1 -1)" gradientUnits="userSpaceOnUse">
      <stop offset="0" stop-color="#fc754a"/>
      <stop offset=".24" stop-color="#f86c43"/>
      <stop offset="1" stop-color="#eb542f"/>
    </linearGradient>
    <linearGradient id="linear-gradient-2" x1="-474.55" y1="-3576.69" x2="-494.72" y2="-3566.81" gradientTransform="translate(564 -3198) scale(1 -1)" gradientUnits="userSpaceOnUse">
      <stop offset="0" stop-color="#4c2c33"/>
      <stop offset="1" stop-color="#684c68"/>
    </linearGradient>
    <linearGradient id="linear-gradient-3" x1="-339.08" y1="-3578.62" x2="-337.68" y2="-3511.72" xlink:href="#linear-gradient"/>
    <linearGradient id="linear-gradient-4" x1="-317.14" y1="-3572.21" x2="-353.3" y2="-3560.23" xlink:href="#linear-gradient-2"/>
    <linearGradient id="linear-gradient-5" x1="-298.28" y1="-3572.63" x2="-337.11" y2="-3554.86" xlink:href="#linear-gradient-2"/>
    <linearGradient id="linear-gradient-6" x1="-448.79" y1="-3574.68" x2="-510.22" y2="-3570.02" gradientTransform="translate(564 -3198) scale(1 -1)" gradientUnits="userSpaceOnUse">
      <stop offset=".13" stop-color="#4c2c33"/>
      <stop offset="1" stop-color="#684c68"/>
    </linearGradient>
    <linearGradient id="linear-gradient-7" x1="-394.89" y1="-3414.79" x2="-394.89" y2="-3563" gradientTransform="translate(564 -3198) scale(1 -1)" gradientUnits="userSpaceOnUse">
      <stop offset="0" stop-color="#ffc479"/>
      <stop offset=".32" stop-color="#fa9759"/>
      <stop offset=".59" stop-color="#f67541"/>
      <stop offset=".74" stop-color="#f56938"/>
    </linearGradient>
    <linearGradient id="linear-gradient-8" x1="-255.15" y1="-3530.28" x2="-205.09" y2="-3492.15" xlink:href="#linear-gradient-2"/>
    <linearGradient id="linear-gradient-9" x1="-541.62" y1="-3454.6" x2="-484.54" y2="-3495.3" gradientTransform="translate(564 -3198) scale(1 -1)" gradientUnits="userSpaceOnUse">
      <stop offset="0" stop-color="#f9f2c7"/>
      <stop offset="1" stop-color="#f8cc9a"/>
    </linearGradient>
  </defs>
  <path class="cls-9" d="m101.72,365.07s-9.01,2.17-17.88-.74c1.38-14.58-2.2-31.49-3.97-38.16,7.14.8,19.89,0,19.89,0,.94,14.77,1.93,28.8,1.96,38.9Z"/>
  <path class="cls-1" d="m99.06,362.1c-.7,21.53-5.35,28.87-3.63,28.87h-23.89c-1.17,0-2.12-.96-2.11-2.13,0-.26.05-.53.15-.77,1.69-4.32,6.9-5.91,8.19-6.24.19-.05.34-.18.44-.34,3.34-4.99,5-11.33,5.63-17.97,1.05,1.4,9.14.81,10.16-1.41h5.05Z"/>
  <path class="cls-8" d="m232.04,312.88c-7.37-4.65-29.04-.21-27.66,9.38h0c7.05,18.9,22.62,30.56,30.82,35.73,3.55,1.32,10.3-3,11.44-6.32,3.42-17.87-2.94-29.07-14.6-38.8Z"/>
  <path class="cls-10" d="m244.77,350.99c-1.14,3.32-7.72,6.85-9.57,7,1.64,1.02,2.97,1.8,3.89,2.32.67.39.9,1.24.52,1.92-.02.04-.05.08-.08.12l-13.3,18.56c-.25.34-.63.55-1.05.58-9.16.69-10.61,5.53-10.74,8.02-.04.78.55,1.44,1.33,1.49.02,0,.05,0,.07,0l27.51-.03,16.93-27.76c1.6-2.55,1.88-5.72.75-8.51-3.25-7.67-14.4-5.06-16.27-3.71Z"/>
  <path class="cls-5" d="m273.37,355.08c1.05,1.82.99,4.08-.15,5.85l-18.62,28.76c-.52.8-1.4,1.29-2.36,1.28h-19.73c-.78,0-1.41-.62-1.41-1.4,0-.04,0-.09,0-.13.21-2.4,1.82-6.85,10.76-7.55.47-.03.9-.3,1.13-.71l12.11-21.42c.38-.66.15-1.5-.5-1.89-.93-.55-2.36-1.45-4.14-2.66h0c1.8,0,14.53-6.65,15.99-11.92,2.63,4.41,5.26,8.93,6.91,11.8Z"/>
  <path class="cls-3" d="m112.12,359.88c-3.39,12.88-4.98,24.46-10.4,30.08-.65.66-1.54,1.02-2.46,1.01h-13.98c-1.27,0-2.3-1.04-2.29-2.32,0-.37.09-.73.26-1.05,1.59-3.09,5.09-4.44,7.29-4.99.21-.05.39-.2.48-.4,2.24-5.19,3-12.47,2.99-20.12,10.68-.47,12.65-1.39,18.11-2.22Z"/>
  <path class="cls-6" d="m326.56,297.01s-4.43-3.11-4.44-3.12c-20.65-13.51-30.91-31.74-68.25-37.95-10.13-5.76-29.26-8.05-37-7.56-41.54,2.62-94.16,2.68-111.7-1.8-15.31-3.91-24.66-14.93-36.63-26.98-7.06-7.11-24.05-19.42-25.26-17.37-2.51,4.27,2.94,21.02,1.25,22.02-2.36,1.39-4.58,3.01-6.61,4.83-4.69,4.72-5.54,9.02-7.68,12.79-4.92,8.68-11,12.72-23.91,17.67-.75.29-1.52.58-2.32.87-1.45.9-1.89,2.8-.99,4.25.25.4.59.75,1,1,.11.07.23.14.35.21.29.18.9.54,1.22.72,30.91,7.68,38.06-3.87,45.02-10.28-1.36,9.94,1.14,19.85,3.91,28.19,3.27,9.88,4.96,24.49,22.54,37.63,2.95,2.21,10.18,5.09,12.5,5.65.87,1.89,1.49,3.89,1.82,5.94,1.22,7.51,2.62,18.27,2.65,28.36,5.19,2.71,15.45,1.21,18.11-2.22,2.47-9.13,4.46-18.38,5.95-27.71.48-3.22,3.4-5.49,6.63-5.16,22.76,2.36,58.11-2.77,79.67-4.75,6.37-.59,11.53-.89,14.81-.65.99.08,1.86.69,2.29,1.59,6.09,12.44,15.77,21.83,23.29,27.8,2.11,1.68,4.06,3.09,5.71,4.22h0c1.8,0,14.53-6.65,15.99-11.92h0c-2.72-4.56-5.44-8.98-7.08-11.27-.55-.76-.67-1.75-.33-2.63,3.1-7.87,10.14-20.15,8.57-36.02-.16-1.64-.77-5.4-1.21-8.05-.14-.8.4-1.55,1.2-1.69.33-.06.68,0,.97.17,15.54,8.94,14.48,21.25,27.51,35.59,29.28,24.36,53.4-7.1,30.47-22.38Z"/>
  <path class="cls-4" d="m35.26,244.45c1.6,0,2.89,1.3,2.89,2.9,0,1.6-1.3,2.89-2.9,2.89-1.6,0-2.89-1.3-2.89-2.9,0-1.59,1.29-2.89,2.88-2.89,0,0,.01,0,.02,0Z"/>
  <path class="cls-11" d="m344.96,306.89c12.6,9.94,5,29.94-11.05,30.07-12.28.1-25.61-5.38-35.44-15.09-.85-.84-1.64-1.67-2.39-2.49-.04-2.57,3.72-7.26,13.49-7.45,12.15-.23,20.93-11.87,12.56-18.03,4,2.63,8.21,4.92,12.6,6.84,3.65,1.61,7.09,3.68,10.22,6.15Z"/>
  <path class="cls-7" d="m82.77,319.38c-17.58-13.14-19.98-27.06-23.25-36.94-2.76-8.34-1.9-22.88-2.62-28.81-.5-4.07-4.39-5.66-7.41-2.89-6.96,6.41-22.47,16.51-44.22,15.68,6.01,3.47,12.59,5.86,19.42,7.05,16.32,2.81,19.32,9.71,27.81,19.98,6.21,7.52,11.47,26.95,27.37,32.71,3.1,1.1,6.38,1.65,9.67,1.63-1.52-3.33-3.85-6.22-6.77-8.41Z"/>
  <circle class="cls-2" cx="3.96" cy="261.59" r="3.96"/>
</svg>