<?xml version="1.0" encoding="UTF-8"?>
<svg id="Layer_4" data-name="Layer 4" xmlns="http://www.w3.org/2000/svg" xmlns:xlink="http://www.w3.org/1999/xlink" viewBox="0 0 361 391">
  <defs>
    <style>
      .cls-1 {
        fill: url(#linear-gradient-2);
      }

      .cls-2 {
        fill: url(#linear-gradient-6);
      }

      .cls-3 {
        fill: url(#linear-gradient-10);
      }

      .cls-4 {
        fill: #562442;
      }

      .cls-5 {
        fill: url(#linear-gradient-5);
      }

      .cls-6 {
        fill: url(#linear-gradient-7);
      }

      .cls-7 {
        fill: url(#linear-gradient-9);
      }

      .cls-8 {
        fill: url(#linear-gradient-3);
      }

      .cls-9 {
        fill: url(#linear-gradient);
      }

      .cls-10 {
        fill: #ffe2ab;
      }

      .cls-11 {
        fill: url(#linear-gradient-4);
      }

      .cls-12 {
        fill: url(#linear-gradient-8);
      }
    </style>
    <linearGradient id="linear-gradient" x1="-393.16" y1="-3549.64" x2="-484.74" y2="-3494.89" gradientTransform="translate(564 -3198) scale(1 -1)" gradientUnits="userSpaceOnUse">
      <stop offset="0" stop-color="#7e2424"/>
      <stop offset="1" stop-color="#ca6d3d"/>
    </linearGradient>
    <linearGradient id="linear-gradient-2" x1="-511.43" y1="-3283.59" x2="-474.32" y2="-3283.59" gradientTransform="translate(564 -3198) scale(1 -1)" gradientUnits="userSpaceOnUse">
      <stop offset="0" stop-color="#562442"/>
      <stop offset="1" stop-color="#b5545b"/>
    </linearGradient>
    <linearGradient id="linear-gradient-3" x1="-488.18" y1="-3306.26" x2="-493.82" y2="-3289.18" xlink:href="#linear-gradient-2"/>
    <linearGradient id="linear-gradient-4" x1="-481.51" y1="-3272.41" x2="-461.5" y2="-3272.41" xlink:href="#linear-gradient-2"/>
    <linearGradient id="linear-gradient-5" x1="-519.33" y1="-3284.26" x2="-500.21" y2="-3284.26" xlink:href="#linear-gradient-2"/>
    <linearGradient id="linear-gradient-6" x1="-501.09" y1="-3307.51" x2="-514.72" y2="-3293.34" xlink:href="#linear-gradient-2"/>
    <linearGradient id="linear-gradient-7" x1="-506.74" y1="-3270.18" x2="-489.75" y2="-3270.18" xlink:href="#linear-gradient-2"/>
    <linearGradient id="linear-gradient-8" x1="-234.63" y1="-3558.12" x2="-333.96" y2="-3511.12" xlink:href="#linear-gradient"/>
    <linearGradient id="linear-gradient-9" x1="-335.41" y1="-3650.14" x2="-388.83" y2="-3356.89" gradientTransform="translate(564 -3198) scale(1 -1)" gradientUnits="userSpaceOnUse">
      <stop offset="0" stop-color="#7e2424"/>
      <stop offset="1" stop-color="#f7a254"/>
    </linearGradient>
    <linearGradient id="linear-gradient-10" x1="-490.64" y1="-3424.07" x2="-513.9" y2="-3362.29" gradientTransform="translate(564 -3198) scale(1 -1)" gradientUnits="userSpaceOnUse">
      <stop offset="0" stop-color="#f9f0c9"/>
      <stop offset=".42" stop-color="#fce5ba"/>
      <stop offset="1" stop-color="#ffd8a9"/>
    </linearGradient>
  </defs>
  <path class="cls-9" d="m79.12,251.65c-5.49,15.52,19.3,37.08,22.67,45.54,5.35,13.47,10.2,24.42,11.1,26.44.1.22.14.46.12.7l-4.56,55.22s-5.92,4.28-8.33,9.37c-.35.72-.04,1.59.69,1.94.19.09.4.14.62.14h15.04c.98,0,1.9-.5,2.43-1.32l5.64-8.72c.6-.92.98-1.96,1.11-3.05l8.01-52.72c0-.06.01-.12.02-.18.03-1.41.45-19.1,1.9-35.76v-39.78l-56.45,2.19Z"/>
  <path class="cls-1" d="m55.84,126.18c-1.81,0-3.27-1.46-3.28-3.27,0-1.25.71-2.39,1.84-2.94,35.73-17.47,29.18-58.73,26.32-70.95-.41-1.76.68-3.52,2.44-3.93s3.52.68,3.93,2.44h0c1.94,8.3,4.56,24.71.27,41.33-4.36,16.92-14.49,29.36-30.09,36.99-.45.22-.94.33-1.43.33Z"/>
  <path class="cls-8" d="m76.47,108.59c-.73,0-1.43-.24-2-.69-6.76-5.79-9.99-14.7-8.52-23.48.29-1.78,1.96-3,3.75-2.71,1.78.29,3,1.96,2.71,3.75-1.1,6.43,1.21,12.98,6.1,17.3,1.42,1.12,1.65,3.18.53,4.59-.62.78-1.57,1.24-2.57,1.24h0Z"/>
  <path class="cls-11" d="m85.76,83.21c-1.81,0-3.27-1.46-3.27-3.27,0-1.5,1.02-2.81,2.48-3.17,9.01-2.25,11.12-8.84,11.14-8.91.57-1.72,2.41-2.65,4.13-2.08,1.66.55,2.6,2.3,2.13,3.99-.13.42-3.25,10.22-15.81,13.35-.26.07-.52.1-.79.1Z"/>
  <path class="cls-5" d="m48.01,126.93c-.83,0-1.63-.32-2.24-.88-1.32-1.24-1.52-2.67-.28-3.99,18.49-19.72,11.83-53.9,2.75-71.64-.85-1.59-.26-3.57,1.34-4.43,1.59-.85,3.57-.26,4.43,1.34.02.04.04.07.06.11,9.93,19.38,17.14,56.27-3.66,78.46-.62.66-1.48,1.03-2.39,1.03Z"/>
  <path class="cls-2" d="m57.99,109.28c-.44,0-.88-.09-1.29-.26-.53-.23-12.99-5.72-14.26-20.68-.15-1.8,1.18-3.38,2.98-3.54,1.8-.15,3.38,1.18,3.54,2.98.54,6.53,4.45,12.3,10.31,15.22,1.66.71,2.43,2.63,1.72,4.29-.51,1.21-1.7,1.99-3.01,1.99Z"/>
  <path class="cls-6" d="m60.54,82.52c-1.81,0-3.27-1.46-3.27-3.27,0-1.21.67-2.33,1.74-2.89,8.21-4.36,8.71-11.32,8.71-11.39.08-1.8,1.6-3.21,3.41-3.13s3.21,1.6,3.13,3.41c0,.03,0,.07,0,.1-.02.44-.74,10.72-12.17,16.79-.47.25-1,.38-1.53.38Z"/>
  <path class="cls-12" d="m316.11,324.13c4.27,12.58-15.26,66.85-15.26,66.85h-28.85c-.8,0-1.45-.65-1.45-1.45,0-.25.06-.49.18-.7,1.73-3.16,5.34-8.75,9.58-9.27l9.01-37.92c1.16-4.86-.17-9.98-3.54-13.66-11-12.01-35.53-38.85-42.05-46.09-2.47-9.35,16.37-10.91,21.15-10.44,0,0,43.72,41.39,51.24,52.69Z"/>
  <path class="cls-7" d="m318.84,202.82c-2.6-.42-5.01-1.63-6.91-3.46-28.42-27.29-85.5-15.13-103.99-10.91-21.14,4.82-74.18-6.31-74.18-6.31-15.01-5.33-47.9-29.9-54.27-42.72,8.02-11.24,1.54-20.35-1.91-23.98-1.06-1.12-2.66-1.57-4.14-1.15-4.37,1.23-8.46,3.28-12.06,6.04h0c-1.57-.23-3.02-.37-4.39-.44-8.44-.41-13.45,2.29-20.95,9.1l-28.27,27.29c-2.06,1.99-2.15,5.27-.18,7.36,4.28,4.53,14.33,10.55,36.66,7.5,20.24,37.79,29.27,85.13,35.39,92.34,0,0,11.83,11.01,17.17,13.85,8.02,4.33,14.24,11.37,17.55,19.86,5.35,13.46,10.19,24.41,11.1,26.44.1.22.14.46.12.71l-4.56,55.22s-5.92,4.28-8.33,9.37c-.35.72-.04,1.59.69,1.94.19.09.4.14.62.14h15.04c.98,0,1.9-.5,2.43-1.32l5.64-8.72c.6-.92.98-1.96,1.11-3.05l8.01-52.72.02-.18c.03-1.41.45-19.1,1.9-35.77.07-.79.76-1.37,1.54-1.3.06,0,.11.01.17.02,21.13,4.32,65.15-2.95,93.89-6.07,9.18-1,16.8-1.57,21.62-1.2.38.03.72.21.96.51,13.69,16.98,33.09,34.64,40.54,45.84,4.27,12.58-8.21,52.51-8.21,52.51-4.25.53-7.83,6.15-9.53,9.31-.37.7-.11,1.58.6,1.95.21.11.44.17.68.17h20.36c1.1,0,2.11-.62,2.6-1.61,0,0,4.93-10.19,5.05-10.92l7.53-47.73c.57-3.59.39-7.27-.51-10.79-2.73-10.69-8.1-35.12-3.15-45.32,5.54-11.18,7.92-23.66,6.89-36.09-.02-.19.12-.36.3-.38.15-.02.29.07.35.21,4.62,10.8,14.14,15.42,21.12,17.39,3.74,1.06,7.63-1.11,8.69-4.84.17-.6.26-1.22.27-1.85.11-17.12-7.07-40.86-41.05-46.22Z"/>
  <circle class="cls-4" cx="5.13" cy="158.19" r="5.13"/>
  <path class="cls-10" d="m178.17,202.59c0,1.69-2.26,3.05-5.04,3.05s-6.06-1.37-6.06-3.05,3.28-3.06,6.06-3.06,5.04,1.37,5.04,3.06Zm25.44,18.76c-.09,2.01-2.83,3.52-6.14,3.38-3.31-.14-6.92-1.97-6.84-3.98.09-2.01,3.84-3.42,7.15-3.28s5.92,1.88,5.84,3.88Zm17.74-23.69c.19,1.63-1.83,3.22-4.53,3.54s-5.71-.62-5.9-2.25c-.19-1.63,2.5-3.34,5.2-3.66,2.7-.32,5.04.75,5.23,2.38Zm23.49,15.26c0,1.64-2.2,2.98-4.91,2.98s-5.75-1.33-5.75-2.98,3.03-2.98,5.75-2.98,4.91,1.34,4.91,2.98Zm34.27,5.75c-.21,1.72-2.69,2.83-5.53,2.48-2.84-.35-5.69-2.25-5.48-3.97s3.42-2.62,6.26-2.27c2.84.35,4.97,2.04,4.75,3.76Zm-13.09-24.26c0,1.61-2.15,2.91-4.8,2.91s-5.6-1.3-5.6-2.91,2.95-2.91,5.6-2.91,4.8,1.3,4.8,2.91Zm30.26,10.9c-.18,1.44-2.66,2.31-5.04,2.01-2.38-.3-4.17-1.71-3.99-3.15.18-1.44,2.26-2.37,4.64-2.08,2.38.3,4.57,1.78,4.39,3.22Z"/>
  <circle class="cls-4" cx="37.44" cy="140.79" r="3.04"/>
  <path class="cls-3" d="m79.71,207.85c-2.06-15.52-12.77-48.33-35.47-36.7,0,0,6.8,60.34,35.47,92.43-2.97-6.32,3.26-31.28,0-55.73Z"/>
</svg>