<?xml version="1.0" encoding="UTF-8"?>
<svg id="Layer_4" data-name="Layer 4" xmlns="http://www.w3.org/2000/svg" xmlns:xlink="http://www.w3.org/1999/xlink" viewBox="0 0 96 391">
  <defs>
    <style>
      .cls-1 {
        fill: url(#linear-gradient-2);
      }

      .cls-2 {
        fill: #382d54;
      }

      .cls-3 {
        fill: url(#linear-gradient-5);
      }

      .cls-4 {
        fill: url(#linear-gradient-3);
      }

      .cls-5 {
        fill: url(#linear-gradient);
      }

      .cls-6 {
        fill: url(#linear-gradient-4);
      }
    </style>
    <linearGradient id="linear-gradient" x1="-564" y1="-3463.51" x2="-543.97" y2="-3463.51" gradientTransform="translate(564 -3198) scale(1 -1)" gradientUnits="userSpaceOnUse">
      <stop offset="0" stop-color="#562442"/>
      <stop offset="1" stop-color="#4f4c79"/>
    </linearGradient>
    <linearGradient id="linear-gradient-2" x1="-515.52" y1="-3471.91" x2="-535.35" y2="-3419.71" gradientTransform="translate(564 -3198) scale(1 -1)" gradientUnits="userSpaceOnUse">
      <stop offset="0" stop-color="#607e9a"/>
      <stop offset=".27" stop-color="#63809b"/>
      <stop offset=".44" stop-color="#6b89a0"/>
      <stop offset=".59" stop-color="#7a96a8"/>
      <stop offset=".72" stop-color="#8faab2"/>
      <stop offset=".84" stop-color="#abc3c0"/>
      <stop offset=".96" stop-color="#cce2d1"/>
      <stop offset="1" stop-color="#dbf0d9"/>
    </linearGradient>
    <linearGradient id="linear-gradient-3" x1="-513.94" y1="-3506.36" x2="-458.95" y2="-3478.37" gradientTransform="translate(564 -3198) scale(1 -1)" gradientUnits="userSpaceOnUse">
      <stop offset="0" stop-color="#607e9a"/>
      <stop offset=".17" stop-color="#6e8ba1"/>
      <stop offset=".49" stop-color="#93adb4"/>
      <stop offset=".92" stop-color="#cfe5d3"/>
      <stop offset="1" stop-color="#dbf0d9"/>
    </linearGradient>
    <linearGradient id="linear-gradient-4" x1="-533.88" y1="-3476.36" x2="-452.22" y2="-3440.95" gradientTransform="translate(564 -3198) scale(1 -1)" gradientUnits="userSpaceOnUse">
      <stop offset="0" stop-color="#607e9a"/>
      <stop offset=".28" stop-color="#85a0ad"/>
      <stop offset=".96" stop-color="#dbf0d9"/>
    </linearGradient>
    <linearGradient id="linear-gradient-5" x1="-507.21" y1="-3523.46" x2="-536.66" y2="-3479.43" xlink:href="#linear-gradient"/>
  </defs>
  <path class="cls-5" d="m4.49,262.93c-.69.34-1.38.37-1.93.08-.55-.3-.91-.85-.99-1.47-.12-.72.64-1.8,1.79-2.11,1.99-.53,4.41.19,6.48,1.93,1.84,1.55,5.93,6.11,5.43,15.74-.05.72.04,1.3-.05,1.81.13.05,2.36,1.14,3.48,1.85.32-.52.51-1.11.54-1.73,1.05-5.34,1.05-10.58.01-15.2-.96-4.26-2.82-7.96-5.24-10.43-2.41-2.45-5.16-3.53-7.75-3.03-2.16.42-3.22,2.34-2.98,3.87.15,1.11.82,2.07,1.81,2.6.99.51,2.21.49,3.34-.07.38-.19.54-.66.34-1.04-.19-.38-.65-.53-1.03-.35-.69.34-1.38.37-1.93.08-.55-.3-.91-.85-.99-1.47-.13-.82.49-1.86,1.74-2.1,2.07-.4,4.32.52,6.35,2.59,3.66,3.74,7.05,12.13,4.91,23.74-.33-.18-.67-.35-1.02-.53.72-10.68-3.89-15.8-5.95-17.53-2.49-2.1-5.37-2.91-7.88-2.24-1.84.49-3.18,2.26-2.92,3.86.15,1.11.82,2.07,1.81,2.6.99.51,2.21.49,3.34-.07.39-.19.54-.66.35-1.04s-.66-.54-1.04-.35h0Z"/>
  <path class="cls-1" d="m48.29,228.9c-.45,3.2-3.82,8.09-7.97,14.32-7.14,10.75-16.58,25.5-17.41,42.6.62.3,1.24.6,1.86.89l.04-.09c2.66-13.84,14-23.83,24.22-33.11,2.09-1.9,11.74-8.57,14.81-10.66l-.31-3.98c1.97-11.77-14.01-18.69-15.25-9.97Z"/>
  <path class="cls-4" d="m74.42,286.69h0c-1.68,0-5.23-.92-10.67-.47-7.83.65-18.2,3.98-24.77,6.2l-1.25.96c7.85,3.07,16.71,5.12,21.77,7.34,7.3,2.68,14.85,4.64,22.53,5.85,1.78.27,3.62.51,5.47.68,1.93.18,5.12,1.2,7.74-.33,2.62-1.53-4.27-19.56-20.82-20.24Z"/>
  <path class="cls-6" d="m82.22,253.66c-.91-2.08-.95-4.43-.12-6.53,1.6-4,.97-10.83-2.26-14.29-1.62-1.7-4.21-2.02-6.2-.76-2.29,1.43-5.89,3.63-10.12,6.52-3.07,2.09-6.47,4.55-9.95,7.33-2.08,1.67-4.19,3.45-6.28,5.34-10.22,9.28-19.84,21.23-22.49,35.08l-.04.09c4.97,2.33,9,4.89,13.73,6.73,6.57-2.22,17.29-4.99,25.09-5.93.65-.08,1.28-.15,1.9-.21,1.84-.18,3.53-.29,5.02-.31,1.47-.02,2.76-.07,3.91-.3h0c2.09-.42,3.65-1.43,4.72-3.89,1.26-2.88,2.8-6.63,4.42-11.06,2.47-6.74.46-13.64-1.35-17.81Z"/>
  <path class="cls-3" d="m59.62,299.93c-4.91-2.53-12.63-3.45-20.14-7.26-13.87-7.03-13.97-10.72-23.52-15.42-3.36-1.65-8.24,1.26-8.2,4.88.07,5.64,11.14,14.82,28,23.91,14.63,7.89,24.67,7.27,27.37,2.14,1.38-2.62.57-6.16-3.51-8.26Z"/>
  <path class="cls-2" d="m12.89,280.12l.82.37c.29.12.42.45.3.74-.05.11-.14.2-.26.25l-.81.38c-.45.22-1,.06-1.27-.37-.27-.46-.12-1.05.34-1.32.27-.16.6-.18.88-.05Z"/>
</svg>