<?xml version="1.0" encoding="UTF-8"?>
<svg id="Layer_4" data-name="Layer 4" xmlns="http://www.w3.org/2000/svg" xmlns:xlink="http://www.w3.org/1999/xlink" viewBox="0 0 111 391">
  <defs>
    <style>
      .cls-1 {
        fill: url(#linear-gradient-4);
      }

      .cls-1, .cls-2, .cls-3, .cls-4, .cls-5, .cls-6 {
        fill-rule: evenodd;
      }

      .cls-2 {
        fill: url(#linear-gradient-2);
      }

      .cls-3 {
        fill: url(#linear-gradient);
      }

      .cls-7 {
        fill: #558730;
      }

      .cls-4 {
        fill: #5a8233;
      }

      .cls-8, .cls-5 {
        fill: #185025;
      }

      .cls-9 {
        fill: #b0486c;
      }

      .cls-10 {
        fill: #eb5d8f;
      }

      .cls-6 {
        fill: url(#linear-gradient-3);
      }
    </style>
    <linearGradient id="linear-gradient" x1="17.89" y1="336.93" x2="17.89" y2="390.88" gradientUnits="userSpaceOnUse">
      <stop offset="0" stop-color="#277a41"/>
      <stop offset=".2" stop-color="#25753d"/>
      <stop offset=".43" stop-color="#206734"/>
      <stop offset=".68" stop-color="#185025"/>
    </linearGradient>
    <linearGradient id="linear-gradient-2" x1="14.24" y1="352.92" x2="36.1" y2="381.26" gradientUnits="userSpaceOnUse">
      <stop offset=".45" stop-color="#739b52"/>
      <stop offset=".7" stop-color="#668b45"/>
      <stop offset=".91" stop-color="#618440"/>
    </linearGradient>
    <linearGradient id="linear-gradient-3" x1="48.3" y1="389.22" x2="104.43" y2="309.07" gradientUnits="userSpaceOnUse">
      <stop offset="0" stop-color="#185025"/>
      <stop offset=".04" stop-color="#1d5629"/>
      <stop offset=".19" stop-color="#2b6835"/>
      <stop offset=".34" stop-color="#34733c"/>
      <stop offset=".52" stop-color="#37773f"/>
      <stop offset=".66" stop-color="#33723b"/>
      <stop offset=".84" stop-color="#286432"/>
      <stop offset="1" stop-color="#185025"/>
    </linearGradient>
    <linearGradient id="linear-gradient-4" x1="50.59" y1="367.19" x2="107.28" y2="317.9" gradientUnits="userSpaceOnUse">
      <stop offset="0" stop-color="#618440"/>
      <stop offset=".08" stop-color="#648843"/>
      <stop offset=".45" stop-color="#739b52"/>
      <stop offset=".7" stop-color="#668b45"/>
      <stop offset=".91" stop-color="#618440"/>
    </linearGradient>
  </defs>
  <path class="cls-4" d="m53.57,311.47h.48v.43c-.16-.13-.33-.27-.48-.43Z"/>
  <path class="cls-3" d="m35.79,390.88s-2.02-20.92-11.08-33.52c-9.06-12.6-24.71-20.43-24.71-20.43,0,0,2.51,19.64,13.59,34.26,11.08,14.62,22.15,19.64,22.15,19.64l.05.05Z"/>
  <path class="cls-2" d="m0,336.93c.3,1.82,30.77,39.82,35.79,53.95l.38-5.37c-1.35-5.6-3.18-10.45-4.41-14-1.21-3.49-1.87-5.4-3.13-8.01-1.32-2.75-3.54-7.25-7.81-11.72-1.05-1.1-2.31-2.28-5.07-4.43C12.18,344.57,6.98,340.85,0,336.93Z"/>
  <path class="cls-5" d="m55.09,316c-.57,5.71-1.31,11.39-2.22,17.05-2.88,17.77-7.72,35.14-12.91,52.36-.65,2.17-1.68,4.67-3.9,5.13.64-.13,2.05-8.71,2.3-9.73.8-3.33,1.66-6.65,2.37-10,1.39-6.55,2.91-13.08,4.29-19.63,1.56-7.41,3-14.85,4.16-22.34,1.08-6.97,2.48-14.25,1.81-21.25-.42-4.34-1.88-9.14-5.77-11.12-2.65-1.35-5.97-1.01-8.55.48s-4.47,3.98-5.66,6.71c-1.33-.18-2.66-.36-3.98-.54-.57-4.29,2.4-8.58,6.4-10.23,4-1.64,8.72-.9,12.46,1.26,2.8,1.62,5.11,3.96,6.99,6.57,3.15,4.35,2.81,9.25,2.33,14.3-.03.32-.06.65-.1.97Z"/>
  <path class="cls-6" d="m50.51,390.41c8.52-6.15,18.76-14.87,28.6-26.34,22.94-26.73,31.75-63.01,31.75-63.01,0,0-21.66,12.6-48.88,49.13-14.08,18.95-21.91,32.24-26.14,40.66,1.28.05,2.61.1,3.89.1,3.64,0,7.24-.2,10.78-.59v.05Z"/>
  <path class="cls-1" d="m40.96,391c9.16-9.99,23.09-25.2,35.15-40.51,19.64-24.96,34.75-49.37,34.75-49.37,0,0-13.83,6.01-43.47,42.04-17.18,20.92-26.68,37.51-31.65,47.75,1.33.05,2.66.1,3.99.1h1.23Z"/>
  <g>
    <rect class="cls-10" x="35.37" y="337.41" width="4.25" height="4.25" transform="translate(-302.17 375.84) rotate(-89.8)"/>
    <rect class="cls-10" x="39.63" y="333.18" width="4.25" height="4.25" transform="translate(-293.69 375.89) rotate(-89.8)"/>
    <rect class="cls-10" x="26.82" y="337.38" width="4.25" height="12.74" transform="translate(-314.9 371.5) rotate(-89.8)"/>
    <polygon class="cls-10" points="48.19 311.93 48.13 333.2 45.93 333.19 43.88 333.18 43.89 328.94 43.86 328.94 43.84 333.15 42.43 333.14 39.59 333.13 39.58 337.38 35.33 337.37 35.32 341.61 22.58 341.56 22.58 341.6 18.33 341.59 18.35 337.34 14.11 337.33 14.12 333.08 9.87 333.07 9.95 311.81 14.2 311.82 14.21 307.57 18.46 307.58 22.7 307.6 22.69 311.84 26.97 311.86 26.98 307.61 30.77 307.63 31.23 307.63 31.23 308.05 31.22 311.87 35.46 311.9 35.47 307.65 43.97 307.67 43.96 311.92 43.98 311.92 47.62 311.93 48.19 311.93"/>
    <polygon class="cls-7" points="22.7 307.6 22.69 311.84 18.44 311.83 18.46 307.58 22.7 307.6"/>
    <polygon class="cls-7" points="31.23 307.63 31.23 308.05 31.22 311.87 26.97 311.86 26.98 307.61 30.77 307.63 31.23 307.63"/>
    <rect class="cls-7" x="35.46" y="307.65" width="4.25" height="4.25" transform="translate(-272.3 346.44) rotate(-89.83)"/>
    <rect class="cls-8" x="14.2" y="307.58" width="4.25" height="4.25" transform="translate(-293.43 324.95) rotate(-89.8)"/>
    <rect class="cls-8" x="18.43" y="311.84" width="4.25" height="4.25" transform="translate(-293.47 333.43) rotate(-89.8)"/>
    <rect class="cls-8" x="26.96" y="311.87" width="4.25" height="4.25" transform="translate(-285 341.99) rotate(-89.8)"/>
    <rect class="cls-8" x="35.45" y="311.9" width="4.25" height="4.25" transform="translate(-276.57 350.51) rotate(-89.8)"/>
    <path class="cls-8" d="m39.73,303.41v4.25s-4.26-.01-4.26-.01v4.25s-4.25-.03-4.25-.03v-3.82s.01-.42.01-.42h-.47l-3.78-.02v4.25s-4.3-.01-4.3-.01h0v-4.25s-4.23-.01-4.23-.01v-4.25s8.54.04,8.54.04v-1.96c.08-1.13.49-2.39,1.21-3.78.1-.19.8-1.5,1.99-2.75h1.07v1.3l-.03,6.96v.25h1.21l7.27.02Z"/>
    <rect class="cls-8" x="39.71" y="307.66" width="4.25" height="4.25" transform="translate(-268.07 350.71) rotate(-89.83)"/>
    <polygon class="cls-9" points="18.41 320.36 18.4 324.6 14.15 324.59 14.12 333.08 9.88 333.07 9.95 311.8 14.2 311.82 14.17 320.34 18.41 320.36"/>
    <rect class="cls-9" x="22.61" y="333.12" width="4.25" height="4.25" transform="translate(-310.6 358.81) rotate(-89.8)"/>
    <rect class="cls-10" x="39.7" y="311.91" width="4.25" height="4.25" transform="translate(-272.35 354.77) rotate(-89.8)"/>
    <path class="cls-10" d="m39.66,324.68h3.49s.76.01.76.01v-4.25s-.43,0-.43,0h-3.79s.01-4.26.01-4.26h-4.25v-4.29s-4.22-.03-4.22-.03v2.38s-.02.17-.02.17v1.7s-4.25-.01-4.25-.01v-4.25s.01,0,.01,0h-4.28s0-.01,0-.01v4.22s-.01.03-.01.03h-4.25s.01-4.26.01-4.26h-4.24s-.02,3.86-.02,3.86v.3s-.02,4.31-.02,4.31h4.25v4.26s-4.26-.01-4.26-.01v.04l-.02,5.78v2.67s4.24.03,4.24.03v2.03s-.01.07-.01.07v2.14s0,0,0,0h4.24s.01-4.19.01-4.19v-.04h4.29s-.01,4.26-.01,4.26h-.04l-4.25-.03h0v4.25s12.72.05,12.72.05v-4.25s4.26.01,4.26.01v-4.25s2.84.01,2.84.01h1.42s.01-4.2.01-4.2h-1.06s-3.15-.03-3.15-.03h-.04l.02-4.23h.03Zm-12.75,4.2h-4.27s.01-4.26.01-4.26h0s4.24.01,4.24.01h.04v4.25Zm8.49,2.15v.3s-.01,1.83-.01,1.83h-2.11s-.02,0-.02,0h-2.11s.01-4.25.01-4.25h0s4.25.01,4.25.01v2.12Zm.02-6.36h-2.12s0-.01,0-.01h-2.13s.01-4.25.01-4.25h4.25s-.01,4.26-.01,4.26Z"/>
    <rect class="cls-9" x="31.18" y="320.41" width="4.25" height="4.25" transform="translate(-289.34 354.72) rotate(-89.8)"/>
    <rect class="cls-9" x="31.15" y="328.9" width="4.25" height="4.25" transform="translate(-297.87 363.15) rotate(-89.8)"/>
    <rect class="cls-9" x="22.64" y="324.63" width="4.25" height="4.25" transform="translate(-302.07 350.38) rotate(-89.8)"/>
    <polygon class="cls-9" points="48.19 311.93 48.13 333.2 45.93 333.19 43.88 333.18 43.89 328.94 43.86 328.94 42.79 328.93 39.64 328.92 39.66 324.68 43.15 324.69 43.91 324.69 43.92 320.44 43.48 320.44 39.68 320.43 39.69 316.18 43.77 316.2 43.94 316.2 43.94 316.17 43.96 312.59 43.96 311.92 43.98 311.92 47.62 311.93 48.19 311.93"/>
    <rect class="cls-9" x="14.11" y="333.09" width="4.25" height="4.25" transform="translate(-319.03 350.29) rotate(-89.8)"/>
    <rect class="cls-9" x="18.35" y="337.35" width="4.25" height="4.25" transform="translate(-319.07 358.77) rotate(-89.8)"/>
    <rect class="cls-9" x="26.82" y="337.38" width="4.25" height="12.74" transform="translate(-314.9 371.5) rotate(-89.8)"/>
    <rect class="cls-9" x="35.37" y="337.41" width="4.25" height="4.25" transform="translate(-302.17 375.84) rotate(-89.8)"/>
    <rect class="cls-9" x="39.63" y="333.18" width="4.25" height="4.25" transform="translate(-293.69 375.89) rotate(-89.8)"/>
  </g>
</svg>