<?xml version="1.0" encoding="UTF-8"?>
<svg id="Layer_4" data-name="Layer 4" xmlns="http://www.w3.org/2000/svg" xmlns:xlink="http://www.w3.org/1999/xlink" viewBox="0 0 290 391">
  <defs>
    <style>
      .cls-1 {
        fill: url(#linear-gradient-2);
      }

      .cls-2 {
        fill: url(#linear-gradient-51);
      }

      .cls-3 {
        fill: #fff;
      }

      .cls-4 {
        fill: url(#linear-gradient-17);
      }

      .cls-5 {
        fill: url(#linear-gradient-43);
      }

      .cls-6, .cls-7 {
        opacity: .4;
      }

      .cls-6, .cls-7, .cls-8 {
        isolation: isolate;
      }

      .cls-6, .cls-9 {
        fill: #db7944;
      }

      .cls-10 {
        fill: url(#linear-gradient-15);
      }

      .cls-11 {
        fill: url(#linear-gradient-18);
      }

      .cls-12 {
        fill: url(#linear-gradient-40);
      }

      .cls-13 {
        fill: url(#linear-gradient-28);
      }

      .cls-14 {
        fill: #fec4a2;
      }

      .cls-15 {
        fill: url(#linear-gradient-14);
      }

      .cls-16 {
        fill: url(#linear-gradient-36);
      }

      .cls-17 {
        fill: url(#linear-gradient-20);
      }

      .cls-18 {
        fill: url(#linear-gradient-6);
      }

      .cls-19 {
        fill: #c7bf74;
      }

      .cls-20, .cls-7 {
        fill: #b0c2cc;
      }

      .cls-21 {
        fill: url(#linear-gradient-35);
      }

      .cls-22 {
        fill: url(#linear-gradient-48);
      }

      .cls-23 {
        fill: url(#linear-gradient-32);
      }

      .cls-24 {
        fill: #1d284e;
      }

      .cls-25 {
        fill: url(#linear-gradient-11);
      }

      .cls-26 {
        fill: url(#linear-gradient-50);
      }

      .cls-27 {
        fill: url(#linear-gradient-39);
      }

      .cls-28 {
        fill: url(#linear-gradient-10);
      }

      .cls-29 {
        fill: url(#linear-gradient-49);
      }

      .cls-30 {
        fill: url(#linear-gradient-37);
      }

      .cls-31 {
        fill: #c95a3e;
      }

      .cls-32 {
        fill: url(#linear-gradient-16);
      }

      .cls-33 {
        fill: url(#linear-gradient-31);
      }

      .cls-34 {
        fill: url(#linear-gradient-41);
      }

      .cls-35 {
        fill: #7a3a2d;
      }

      .cls-36 {
        fill: url(#linear-gradient-21);
      }

      .cls-37 {
        fill: url(#linear-gradient-25);
      }

      .cls-38 {
        fill: url(#linear-gradient-5);
      }

      .cls-39 {
        fill: url(#linear-gradient-45);
      }

      .cls-40 {
        fill: url(#linear-gradient-34);
      }

      .cls-41 {
        fill: none;
      }

      .cls-42 {
        fill: url(#linear-gradient-7);
      }

      .cls-8 {
        fill: #d48851;
        opacity: .1;
      }

      .cls-43 {
        fill: url(#linear-gradient-24);
      }

      .cls-44 {
        fill: #ffa461;
      }

      .cls-45 {
        fill: url(#linear-gradient-9);
      }

      .cls-46 {
        fill: url(#linear-gradient-22);
      }

      .cls-47 {
        fill: url(#linear-gradient-42);
      }

      .cls-48 {
        fill: url(#linear-gradient-3);
      }

      .cls-49 {
        fill: url(#linear-gradient);
      }

      .cls-50 {
        fill: url(#linear-gradient-27);
      }

      .cls-51 {
        fill: url(#linear-gradient-33);
      }

      .cls-52 {
        fill: url(#linear-gradient-38);
      }

      .cls-53 {
        fill: url(#linear-gradient-29);
      }

      .cls-54 {
        fill: url(#linear-gradient-30);
      }

      .cls-55 {
        fill: url(#linear-gradient-23);
      }

      .cls-56 {
        fill: url(#linear-gradient-19);
      }

      .cls-57 {
        fill: url(#linear-gradient-4);
      }

      .cls-58 {
        fill: #8ba2b1;
      }

      .cls-59 {
        fill: url(#linear-gradient-8);
      }

      .cls-60 {
        fill: url(#linear-gradient-44);
      }

      .cls-61 {
        fill: #223040;
      }

      .cls-62 {
        fill: url(#linear-gradient-47);
      }

      .cls-63 {
        fill: url(#linear-gradient-46);
      }

      .cls-64 {
        fill: url(#linear-gradient-12);
      }

      .cls-65 {
        fill: url(#linear-gradient-13);
      }

      .cls-66 {
        fill: url(#linear-gradient-26);
      }
    </style>
    <linearGradient id="linear-gradient" x1="-313.79" y1="-3565.48" x2="-339.15" y2="-3573.77" gradientTransform="translate(564 -3198) scale(1 -1)" gradientUnits="userSpaceOnUse">
      <stop offset="0" stop-color="#f9f0c9"/>
      <stop offset=".42" stop-color="#fce5ba"/>
      <stop offset="1" stop-color="#ffd8a9"/>
    </linearGradient>
    <linearGradient id="linear-gradient-2" x1="-374.57" y1="-3574.32" x2="-344.87" y2="-3562.44" xlink:href="#linear-gradient"/>
    <linearGradient id="linear-gradient-3" x1="-330.13" y1="-3500.9" x2="-394.69" y2="-3561.64" gradientTransform="translate(564 -3198) scale(1 -1)" gradientUnits="userSpaceOnUse">
      <stop offset="0" stop-color="#ffd177"/>
      <stop offset="1" stop-color="#ed7c38"/>
    </linearGradient>
    <linearGradient id="linear-gradient-4" x1="-453.28" y1="-3391.66" x2="-361.64" y2="-3577.18" xlink:href="#linear-gradient-3"/>
    <linearGradient id="linear-gradient-5" x1="-368.2" y1="-3398.63" x2="-308.96" y2="-3473.51" xlink:href="#linear-gradient-3"/>
    <linearGradient id="linear-gradient-6" x1="-526.73" y1="-3555.63" x2="-479.97" y2="-3537.82" xlink:href="#linear-gradient-3"/>
    <linearGradient id="linear-gradient-7" x1="-491.42" y1="-3452.04" x2="-541.4" y2="-3491.63" xlink:href="#linear-gradient"/>
    <linearGradient id="linear-gradient-8" x1="-9394.39" y1="984.61" x2="-9391.72" y2="981.46" gradientTransform="translate(-594.91 -9194.46) rotate(-100.14) scale(1 -1.05) skewX(-.05)" gradientUnits="userSpaceOnUse">
      <stop offset="0" stop-color="#ffe2ab"/>
      <stop offset="1" stop-color="#f9f0d9"/>
    </linearGradient>
    <linearGradient id="linear-gradient-9" x1="-503.68" y1="-3577.27" x2="-475.72" y2="-3577.27" xlink:href="#linear-gradient"/>
    <linearGradient id="linear-gradient-10" x1="-466.15" y1="-3575.87" x2="-486.77" y2="-3575.87" xlink:href="#linear-gradient"/>
    <linearGradient id="linear-gradient-11" x1="-371.55" y1="-3419.51" x2="-319.07" y2="-3467.64" gradientTransform="translate(564 -3198) scale(1 -1)" gradientUnits="userSpaceOnUse">
      <stop offset="0" stop-color="#ffd177"/>
      <stop offset=".24" stop-color="#f8b05f"/>
      <stop offset=".56" stop-color="#f08b43"/>
      <stop offset=".72" stop-color="#ed7c38"/>
    </linearGradient>
    <linearGradient id="linear-gradient-12" x1="148.63" y1="92.89" x2="164.69" y2="92.89" gradientUnits="userSpaceOnUse">
      <stop offset="0" stop-color="#b6b76e"/>
      <stop offset="1" stop-color="#899056"/>
    </linearGradient>
    <linearGradient id="linear-gradient-13" x1="166.91" y1="134.94" x2="167.82" y2="134.94" xlink:href="#linear-gradient-12"/>
    <linearGradient id="linear-gradient-14" x1="169.28" y1="136.04" x2="169.38" y2="136.04" xlink:href="#linear-gradient-12"/>
    <linearGradient id="linear-gradient-15" x1="169.65" y1="136.42" x2="169.79" y2="136.42" xlink:href="#linear-gradient-12"/>
    <linearGradient id="linear-gradient-16" x1="170.57" y1="135.09" x2="171.22" y2="135.09" xlink:href="#linear-gradient-12"/>
    <linearGradient id="linear-gradient-17" x1="158.97" y1="153.3" x2="182.61" y2="153.3" gradientUnits="userSpaceOnUse">
      <stop offset="0" stop-color="#9cb589"/>
      <stop offset=".38" stop-color="#9ab386"/>
      <stop offset=".6" stop-color="#94af7e"/>
      <stop offset=".78" stop-color="#89a970"/>
      <stop offset=".94" stop-color="#7aa05c"/>
      <stop offset="1" stop-color="#739b52"/>
    </linearGradient>
    <linearGradient id="linear-gradient-18" x1="163.36" y1="150.87" x2="171.55" y2="150.87" xlink:href="#linear-gradient-12"/>
    <linearGradient id="linear-gradient-19" x1="181.43" y1="154.58" x2="182.57" y2="154.58" xlink:href="#linear-gradient-12"/>
    <linearGradient id="linear-gradient-20" x1="182.31" y1="148.82" x2="182.42" y2="148.82" xlink:href="#linear-gradient-12"/>
    <linearGradient id="linear-gradient-21" x1="148.53" y1="115.66" x2="181.69" y2="115.66" gradientUnits="userSpaceOnUse">
      <stop offset="0" stop-color="#9cb589"/>
      <stop offset=".41" stop-color="#9ab386"/>
      <stop offset=".62" stop-color="#94b07e"/>
      <stop offset=".79" stop-color="#8aa971"/>
      <stop offset=".93" stop-color="#7ca15e"/>
      <stop offset="1" stop-color="#739b52"/>
    </linearGradient>
    <linearGradient id="linear-gradient-22" y1="92.88" x2="164.7" y2="92.88" xlink:href="#linear-gradient-12"/>
    <linearGradient id="linear-gradient-23" x1="181.02" y1="128.19" x2="181.13" y2="128.19" xlink:href="#linear-gradient-12"/>
    <linearGradient id="linear-gradient-24" x1="179.25" y1="138.33" x2="181.97" y2="138.33" xlink:href="#linear-gradient-12"/>
    <linearGradient id="linear-gradient-25" x1="145.72" y1="164.56" x2="165.02" y2="164.56" gradientTransform="matrix(1,0,0,1,0,0)" xlink:href="#linear-gradient-3"/>
    <linearGradient id="linear-gradient-26" x1="162.12" y1="286.18" x2="287.43" y2="213.83" gradientUnits="userSpaceOnUse">
      <stop offset="0" stop-color="#338777"/>
      <stop offset=".13" stop-color="#307f70"/>
      <stop offset=".99" stop-color="#215148"/>
    </linearGradient>
    <linearGradient id="linear-gradient-27" x1="167.98" y1="81.16" x2="170.38" y2="81.16" xlink:href="#linear-gradient-12"/>
    <linearGradient id="linear-gradient-28" x1="211.15" y1="168.64" x2="239.87" y2="168.64" gradientUnits="userSpaceOnUse">
      <stop offset="0" stop-color="#9cb589"/>
      <stop offset="1" stop-color="#739b52"/>
    </linearGradient>
    <linearGradient id="linear-gradient-29" x1="226.92" y1="139.7" x2="227.14" y2="139.7" xlink:href="#linear-gradient-12"/>
    <linearGradient id="linear-gradient-30" x1="230.67" y1="132.69" x2="231.1" y2="132.69" xlink:href="#linear-gradient-12"/>
    <linearGradient id="linear-gradient-31" x1="235.13" y1="152.07" x2="236.75" y2="152.07" xlink:href="#linear-gradient-12"/>
    <linearGradient id="linear-gradient-32" x1="167.97" y1="109.16" x2="236.75" y2="109.16" xlink:href="#linear-gradient-12"/>
    <linearGradient id="linear-gradient-33" x1="175.74" y1="98.44" x2="231.1" y2="98.44" xlink:href="#linear-gradient-28"/>
    <linearGradient id="linear-gradient-34" x1="197.3" y1="88.11" x2="251.77" y2="88.11" gradientTransform="matrix(1,0,0,1,0,0)" xlink:href="#linear-gradient-3"/>
    <linearGradient id="linear-gradient-35" x1="236.75" y1="175.96" x2="279.59" y2="175.96" gradientTransform="matrix(1,0,0,1,0,0)" xlink:href="#linear-gradient-3"/>
    <linearGradient id="linear-gradient-36" x1="194.69" y1="164.83" x2="211.78" y2="164.83" gradientTransform="matrix(1,0,0,1,0,0)" xlink:href="#linear-gradient-3"/>
    <linearGradient id="linear-gradient-37" x1="162.29" y1="104.5" x2="203.63" y2="104.5" gradientTransform="matrix(1,0,0,1,0,0)" xlink:href="#linear-gradient-3"/>
    <linearGradient id="linear-gradient-38" x1="118.1" y1="55.11" x2="166.5" y2="55.11" gradientUnits="userSpaceOnUse">
      <stop offset="0" stop-color="#e69665"/>
      <stop offset=".08" stop-color="#e99d71"/>
      <stop offset=".25" stop-color="#efa986"/>
      <stop offset=".44" stop-color="#f3b295"/>
      <stop offset=".66" stop-color="#f6b79e"/>
      <stop offset="1" stop-color="#f7b9a1"/>
    </linearGradient>
    <linearGradient id="linear-gradient-39" x1="125.48" y1="65.81" x2="187.19" y2="65.81" gradientUnits="userSpaceOnUse">
      <stop offset="0" stop-color="#562442"/>
      <stop offset="1" stop-color="#b5545b"/>
    </linearGradient>
    <linearGradient id="linear-gradient-40" x1="125.9" y1="41.24" x2="142.25" y2="41.24" xlink:href="#linear-gradient-39"/>
    <linearGradient id="linear-gradient-41" x1="125.6" y1="18.42" x2="189.87" y2="18.42" gradientUnits="userSpaceOnUse">
      <stop offset="0" stop-color="#77abaf"/>
      <stop offset="1" stop-color="#54777c"/>
    </linearGradient>
    <linearGradient id="linear-gradient-42" x1="211.63" y1="88.74" x2="275.29" y2="88.74" gradientUnits="userSpaceOnUse">
      <stop offset="0" stop-color="#9cb589"/>
      <stop offset=".08" stop-color="#8eac77"/>
      <stop offset=".18" stop-color="#82a466"/>
      <stop offset=".31" stop-color="#799f5a"/>
      <stop offset=".49" stop-color="#749b53"/>
      <stop offset="1" stop-color="#739b52"/>
    </linearGradient>
    <linearGradient id="linear-gradient-43" x1="154.55" y1="152.42" x2="88.37" y2="152.42" gradientUnits="userSpaceOnUse">
      <stop offset="0" stop-color="#562442"/>
      <stop offset=".02" stop-color="#5f2844"/>
      <stop offset=".09" stop-color="#79364b"/>
      <stop offset=".17" stop-color="#8f4151"/>
      <stop offset=".27" stop-color="#a04955"/>
      <stop offset=".38" stop-color="#ac4f58"/>
      <stop offset=".55" stop-color="#b3535a"/>
      <stop offset="1" stop-color="#b5545b"/>
    </linearGradient>
    <linearGradient id="linear-gradient-44" x1="169.55" y1="142.55" x2="190.08" y2="142.55" gradientUnits="userSpaceOnUse">
      <stop offset="0" stop-color="#562442"/>
      <stop offset=".37" stop-color="#582542"/>
      <stop offset=".55" stop-color="#5f2844"/>
      <stop offset=".69" stop-color="#6c2f47"/>
      <stop offset=".8" stop-color="#7f384c"/>
      <stop offset=".9" stop-color="#964453"/>
      <stop offset="1" stop-color="#b3535a"/>
      <stop offset="1" stop-color="#b5545b"/>
    </linearGradient>
    <linearGradient id="linear-gradient-45" x1="202.67" y1="158.43" x2="223.39" y2="158.43" gradientUnits="userSpaceOnUse">
      <stop offset="0" stop-color="#562442"/>
      <stop offset=".03" stop-color="#5b2643"/>
      <stop offset=".2" stop-color="#7b374b"/>
      <stop offset=".38" stop-color="#954352"/>
      <stop offset=".57" stop-color="#a64c57"/>
      <stop offset=".77" stop-color="#b1525a"/>
      <stop offset="1" stop-color="#b5545b"/>
    </linearGradient>
    <linearGradient id="linear-gradient-46" x1="236.68" y1="146.71" x2="289.32" y2="146.71" gradientUnits="userSpaceOnUse">
      <stop offset="0" stop-color="#562442"/>
      <stop offset=".32" stop-color="#582542"/>
      <stop offset=".5" stop-color="#602944"/>
      <stop offset=".66" stop-color="#6e3048"/>
      <stop offset=".79" stop-color="#833a4d"/>
      <stop offset=".91" stop-color="#9c4754"/>
      <stop offset="1" stop-color="#b5545b"/>
    </linearGradient>
    <linearGradient id="linear-gradient-47" x1="235.13" y1="152.07" x2="236.75" y2="152.07" xlink:href="#linear-gradient-39"/>
    <linearGradient id="linear-gradient-48" x1="257.01" y1="140.65" x2="275.91" y2="140.65" xlink:href="#linear-gradient-39"/>
    <linearGradient id="linear-gradient-49" x1="146.88" y1="150.95" x2="149.82" y2="150.95" xlink:href="#linear-gradient-39"/>
    <linearGradient id="linear-gradient-50" x1="201.95" y1="136.07" x2="252.49" y2="136.07" gradientUnits="userSpaceOnUse">
      <stop offset="0" stop-color="#562442"/>
      <stop offset=".45" stop-color="#572442"/>
      <stop offset=".62" stop-color="#5e2844"/>
      <stop offset=".73" stop-color="#6a2e47"/>
      <stop offset=".83" stop-color="#7b364b"/>
      <stop offset=".91" stop-color="#914151"/>
      <stop offset=".98" stop-color="#ab4f58"/>
      <stop offset="1" stop-color="#b5545b"/>
    </linearGradient>
    <linearGradient id="linear-gradient-51" x1="249.13" y1="136.83" x2="275.91" y2="136.83" gradientTransform="matrix(1,0,0,1,0,0)" xlink:href="#linear-gradient-3"/>
  </defs>
  <g>
    <path class="cls-49" d="m239.84,356.25c1.17,7.8.15,15.77-2.93,23.03l-4.73,10.98h-12.47c-1.69,0-3.49-4.92,2.62-7.26h0l1-13.13c.05-.61-.19-1.2-.64-1.61l-4.81-4.38h0c15.33.15,20.35-8.26,21.63-9.79l.33,2.17Z"/>
    <path class="cls-1" d="m217.88,363.88c.43,2.82.06,5.69-1.05,8.31l-7.58,17.48c-.16.36-.51.59-.91.59h-11.82c-1.69,0-3.67-4.92,2.45-7.26l1.24-13.11c.06-.62-.18-1.23-.64-1.65l-5.1-4.65c5.65-6.36,15.33-15.88,17.56-17.9l5.84,18.19Z"/>
    <path class="cls-48" d="m210.44,357.09c-2.4,1.9-4.62,6.12-15.96,6.5l-17.95-16.37c-2.3-2.1-5.85-7.99-6.2-11.41-1.09-7,9.93-18.27,23.36-9.89,27.88,17.4,16.75,31.16,16.75,31.16Z"/>
    <path class="cls-57" d="m236.87,265.96c.74,1.61,6.49,17.19,7.17,27.94.36,5.74-1.33,17.66-4.09,28.74-2.12,8.53-2.55,17.39-1.24,26.08l.81,5.36c-.99,2.93-5.8,10.41-21.13,10.25l-7.94-7.25-6.35-5.8c-5.5-5.22-10.01-11.4-13.32-18.22-.26-.55-.83-.89-1.45-.85-2.91.19-9.87,1.86-19,3.59-18.48,3.51-45.89,7.31-66.77-.21-.77-.28-1.62.12-1.9.88-.07.2-.1.41-.08.62.62,9.61-.36,19.25-2.89,28.55-2.16,8.36-22.1,12.98-29.36,7.54-.49-11.28-3.71-24.75-9.66-34.35-5.04-8.12-8.48-13.23-9.81-16.58-7.89-22.56,2.38-52.88,1.81-64.79-.75-15.59-20.45-7.26-18.67-20.15,4.07-10.3,12.8-19.19,22.16-20.4,1.89-.22,3.43-1.62,3.83-3.48l1.9-9.19c.32-1.56,1.85-2.56,3.41-2.24.51.1.97.34,1.36.69,5.16,4.69,14.23,13.49,18,20.64,5.41,10.27,7.77,16.82,12.81,22.83,6.52,7.77,27.99,15.64,40.42,15.64,8.4,0,37.42-4.8,59.33-3.91h0c-5.62-4.93-7.91-12.53-8.85-21.3-2.05-19.16,9.29-34.73,32.25-36.04,20.13-1.15,37.45,11.87,37.45,36.04,0,14.16-11.6,24.87-20.17,29.37Z"/>
    <path class="cls-38" d="m219.59,199.07c-22.96,1.32-35.53,18.72-33.48,37.87,1.77,16.52,12.7,27.63,29.48,28.03,6.82.16,12.83-1.82,17.42-5.21,0,0,1.39,1.99,1.82,2.68.54.86,2.04,3.53,2.04,3.53,10.93-4.54,21.38-15.03,21.38-29.2,0-25.32-18.54-38.85-38.66-37.69Z"/>
    <path class="cls-18" d="m77.04,373.02c-2.98,1.4-6.11,1.63-9.11.23-.08-1.23-.17-2.5-.3-3.82-.11-1.23-.48-4.29-.51-4.54-.17-1.3-1.36-7.67-1.53-8.42-.35-1.49-.75-3-1.2-4.5-1.37-4.66-3.31-9.13-5.8-13.31-2.88-4.76-5.42-8.12-7.51-13.18h0c-.45-1.06-.86-2.13-1.23-3.23,4.89,8.02,9.86,5.24,9.86,5.24,10.32,12.19,14.75,28.88,16.64,40.77.03.21.53,3.47.68,4.76Z"/>
    <path class="cls-42" d="m55.29,245.26c2.31,2.96,4.19,10.39,2.15,26.23-2.91,22.54,7.98,40.58-1.67,50.29-1.75,1.76-4.64,1-5.54-.22-1.24-1.68-1.42-2.59-1.87-4.88-3.12-15.57-2.4-33.43-2.8-38.92,0-.08-.01-.15-.02-.23-.5-5.76-4.86-10.44-10.58-11.34-3.93-.59-7.7-1.92-11.13-3.92-5.39-3.24-8.27-11.22-8.81-14.91-.24-1.63.73-3.19,2.3-3.7,3.9-1.26,11.43-4.34,15.69-6.33,7.51,6.88,16.69.75,22.29,7.94Z"/>
    <circle class="cls-35" cx="15.21" cy="244.54" r="3.58"/>
    <path class="cls-59" d="m41.53,228.12c1.08-.25,2.15.42,2.4,1.5.25,1.08-.42,2.15-1.5,2.4-.07.02-.13.03-.2.04-1.14.2-2.88-.39-3.08-1.48s1.23-2.25,2.37-2.46Z"/>
    <path class="cls-45" d="m76.67,370.24c2.26,7.75,2.87,15.23,3.94,20.02h-16.25s-1.86-3.52,3.96-7.26c-.12-3.38-.19-8.13-.69-13.57,2.09.44,5.69.52,8.72-1.15.11.68.22,1.32.31,1.96Z"/>
    <path class="cls-28" d="m98.74,365.48c-2.23,8.54-5.65,16.72-10.16,24.32-.18.29-.5.47-.84.47h-11.8c-.44,0-.82-.28-.95-.7-1.24-4.31,2.81-6.56,2.81-6.56-.11-4.27-.49-8.53-1.12-12.76,3.8,3.07,18.69-.64,22.06-4.77Z"/>
    <circle class="cls-35" cx="39.78" cy="235.02" r="2.32"/>
    <path class="cls-25" d="m242.32,240.97c-.25-7.55-5.2-13.61-12-14.6-9.81-1.43-13.16,4.78-12.76,9.32.16,2.06-1.38,3.85-3.43,4.01-.26.02-.52.01-.77-.02-2.42-.28-4.09-2.71-7.21-3.83-6.22-2.24-14.74,3.37-15.83,9.89-.48,2.71.18,5.5,1.83,7.71,5.13,7.03,13.2,11.27,23.45,11.52,15.71.37,27.16-10.65,26.73-24Z"/>
  </g>
  <g>
    <path class="cls-31" d="m227.14,139.74c-.08-.01-.15-.03-.22-.04.06-.01.13-.03.2-.04,0,.03,0,.05.01.08Z"/>
    <path class="cls-31" d="m224.02,175.59c-5.49.92-16.32,1.39-16.32,1.39,0,0-.19-.98-.59-2.74h0c.53-.09,1.07-.17,1.59-.24.32-.04.62-.09.93-.14.74-.11,1.45-.23,2.14-.32,5.94-.88,9.79-1.39,9.79-1.39h.01c.75,1.26,1.57,2.39,2.44,3.44Z"/>
    <path class="cls-64" d="m162.29,93.99c-3.5,1.55-8.52,3.3-13.66,4.75.09-1.01.22-2.02.38-3.02.05-.29.1-.59.17-.88.05-.29.1-.59.17-.87.08-.38.15-.75.24-1.12.33-1.44.71-2.74,1.06-3.74.08-.22.15-.42.22-.6.09-.19.15-.37.23-.53.06-.15.13-.27.19-.38.1-.23.22-.38.31-.47.04-.04.08-.06.11-.08.06-.01.17-.01.31-.01.05,0,.1.01.18.01.89.08,2.71.38,4.58.7h.01s.01-.01.03,0c.29.05.57.11.87.17,1.03.2,2.04.39,2.84.55,1.04.2,1.76.34,1.76.34l2.42,4.02c-.67.37-1.49.75-2.39,1.16Z"/>
    <path class="cls-65" d="m166.91,134.95c.33-.06.64-.06.9.01-.28-.06-.57-.08-.9-.01Z"/>
    <path class="cls-15" d="m169.37,136.1s-.06-.08-.09-.11c.04.04.08.08.1.11h-.01Z"/>
    <path class="cls-10" d="m169.66,136.53h-.01c.04-.08.08-.15.14-.23-.05.08-.09.15-.13.23Z"/>
    <path class="cls-32" d="m171.12,134.94c-.2.09-.38.2-.55.34.17-.15.34-.27.55-.36.03-.01.06-.03.1-.03-.04.01-.08.03-.1.04Z"/>
    <path class="cls-4" d="m182.61,156.35c0,.47,0,.93-.01,1.37-.03,2.86-.19,4.98-.56,5.82-1.45,3.36-12.98,6.79-18.28,8.17.81-1.41,1.32-3.13,1.26-5.23-.14-5-2.89-11.37-6.05-14.27,1.49-.24,2.97-.48,4.39-.71,2.86-.46,5.61-.88,8.19-1.26h0c-.48-2.84-2-9.42-2-9.42,0,0,.25-.27.65-.73.17-.19.36-.42.57-.67.99-1.21,2.32-2.97,2.86-4.38-.62-.09-1.15-.14-1.55-.17.41,0,.93.05,1.55.14,1.44.19,3.37.52,5.61.94.78.14,1.6.29,2.44.46.03.42.05.84.09,1.26.04.65.09,1.31.13,1.97.03.36.04.7.06,1.04.14,2.18.25,4.37.36,6.49,0,.04.01.09.01.13h-.15c-.13.13-.25.24-.37.37-.29.28-.59.55-.85.81-.08.09-.17.18-.24.25h-.01c-.09.1-.18.19-.27.28-.34.36-.64.67-.88.95-.25.29-.46.53-.59.74-.1.17-.17.29-.18.38-.11,1.04.39,1.83,1.39,2.14.31.09.65.14,1.03.14.05,0,.1,0,.15-.01.04,0,.08-.01.11-.01.24,1.16.1,2.19-.06,2.72.56-.55.93-1.37,1.15-2.32.03.9.04,1.77.04,2.58Z"/>
    <path class="cls-11" d="m163.36,151.5c2.86-.47,5.61-.89,8.19-1.27h0c-2.57.39-5.32.81-8.19,1.27Z"/>
    <path class="cls-56" d="m182.57,153.76h0c-.22.95-.59,1.78-1.15,2.33.17-.53.31-1.57.06-2.72.28-.04.64-.14,1.07-.28,0,.23.01.45.01.67Z"/>
    <path class="cls-17" d="m182.41,148.65v.14c0,.06,0,.14.01.2-.01-.06-.04-.13-.06-.19-.01-.05-.03-.1-.05-.15h.1Z"/>
    <path class="cls-36" d="m181.69,136.42c-.84-.17-1.67-.32-2.44-.46-2.24-.42-4.18-.75-5.61-.94-.62-.09-1.15-.14-1.55-.14-.14-.01-.25-.01-.37-.01s-.2,0-.29.01c-.08,0-.14.01-.2.03-.04,0-.08.01-.1.03-.2.09-.38.2-.55.36-.08.06-.15.14-.22.22-.22.23-.38.51-.56.8-.06.08-.1.15-.14.23-.08-.15-.17-.29-.27-.42h0c-.03-.05-.06-.09-.1-.13-.09-.13-.19-.24-.31-.34-.05-.05-.11-.1-.17-.15-.13-.1-.24-.19-.37-.27-.1-.05-.2-.1-.31-.15-.1-.04-.22-.08-.32-.1-.27-.08-.57-.08-.9-.01l-12.49,2.38c.15-10.11-2.76-25.99-5.07-31.1-.13-.28-.23-.56-.31-.84-.22-.69-.36-1.46-.43-2.29-.03-.28-.05-.56-.06-.84-.03-.56-.04-1.15-.01-1.74,0-.24.01-.48.03-.73.01-.34.04-.7.06-1.06,5.14-1.45,10.16-3.2,13.66-4.75,3.76,9.31,11.62,21.74,18.73,33.52.04.45.08.9.11,1.36v.03c.04.48.08.97.11,1.46.01.1.03.22.03.33.04.39.06.8.09,1.22.06.73.11,1.46.17,2.22.04.43.06.87.09,1.3.03.33.05.66.08.99Z"/>
    <path class="cls-46" d="m162.28,88.79l2.42,4.02h-.01c-.67.38-1.49.76-2.39,1.17-3.5,1.55-8.52,3.3-13.66,4.75.09-1.01.22-2.02.38-3.02.05-.29.1-.59.17-.88.05-.29.1-.59.17-.87.08-.38.15-.75.24-1.12.33-1.44.71-2.74,1.06-3.74.08-.22.15-.42.22-.6.09-.19.15-.37.23-.53.06-.15.13-.27.19-.38.1-.23.22-.38.31-.47.04-.04.08-.06.11-.08h.01c.06-.03.15-.03.29-.01.05,0,.1.01.18.01.87.05,2.71.34,4.58.7h.01s.01-.01.03,0c.29.05.57.11.87.17,1.03.18,2.04.37,2.84.52,1.06.22,1.77.36,1.77.36Z"/>
    <path class="cls-55" d="m181.13,128.87c-.04-.46-.08-.92-.11-1.36,0,0,0,.01.01.01.03.43.06.89.1,1.35Z"/>
    <path class="cls-43" d="m181.97,140.69c-.78-1.37-1.69-2.99-2.72-4.74.78.14,1.6.29,2.44.46.03.42.05.84.09,1.26.04.65.09,1.31.13,1.97.03.36.04.7.06,1.04Z"/>
    <path class="cls-37" d="m165.02,166.49c.06,2.1-.45,3.82-1.26,5.23-1.83,3.2-5.24,4.72-7.15,5.13-2.29.5-8.35-2.67-10.88-5.55,4.2.19,7.38.17,8.35-.29,3.72-1.74,4.39-9.53.38-14.88-.61-.81-2.76-.99-5.78-.75.38-.51.87-1.09,1.41-1.67,1.46-.24,2.92-.5,4.35-.74.81-.13,1.62-.27,2.42-.41.71-.11,1.41-.23,2.11-.34,3.16,2.9,5.91,9.27,6.05,14.27Z"/>
    <path class="cls-19" d="m154.44,152.97c-1.44.24-2.89.5-4.35.74h.01c1.46-.25,2.92-.5,4.34-.74Z"/>
    <path class="cls-61" d="m235.95,341.22s24.69,29.82,25.36,31.16c1.27,2.55-1.08,7.74-2.55,8.91s-14.3,7.48-13.71,8.37,14.47,1.2,15.85.31c5.5-3.58,10.86-13.21,14.08-15.56,3.22-2.35-4.27-7.61-6.03-9.67s-13.63-33.19-13.63-33.19l-19.36,9.67Zm-80.42-76.31s11.97,38.83,12.85,43.82c.88,4.99-6.48,26.42,3.88,31.32,3.76,1.78,4.11-17.91,6.16-20.25,2.05-2.35,6.75-5.87,6.46-8.81-.29-2.93-4.46-8.24-5.04-11.17-.58-2.93-2.89-33.44-2.89-33.44l-21.42-1.47Zm105.07,117.41c-1.47,1.17-17.12,1.52-15.56,7.34.54,1.99,14.69,1.47,15.85.31"/>
    <path class="cls-66" d="m282.34,212.96c-.59,7.63-10.58,13.8-12.63,18.19-2.04,4.39-30.02,55.12-30.02,55.12,0,0,2.74.22,3.63,1.68.88,1.46-1.87,4.77-1.87,4.77,0,0,16.19,25.5,17.66,31.66,1.46,6.17-4.07,13.02-6.73,15.95-2.65,2.94-18.19,5-21.41,1.77-1.72-1.72-8.17-12.58-13.84-23.33-4.98-9.46-9.36-18.85-9.36-21.87,0-5.19,8.33-41.07,14.58-66.29,1.51-6.12,2.92-11.61,4.04-15.89-9.89-6.19-39.17-.31-48.54,2.64.37.73.6,1.46.38,2.02-.25.64-1.37,1.12-2.53,1.45,2.93,6.26,9.28,31.11,9.52,35.42.31,4.99-3.74,8.39-10.78,11.32-7.05,2.93-24.48-.92-26.25-5.61-.55-1.48-1.43-8.45-2.18-17.58-1.67-19.99-2.83-50.26,1.01-55.49,1.81-2.5,10.36-5.13,21.08-7.56,9.33-2.13,20.32-4.1,29.89-5.66.53-.09,1.06-.17,1.59-.24.13-.01.24-.04.37-.06.9-.14,1.79-.28,2.66-.42.18-.03.36-.06.53-.09.33-.05.66-.1.98-.15.65-.1,1.3-.2,1.92-.29.37-.06.73-.11,1.08-.18.53-.08,1.07-.15,1.59-.23.32-.04.62-.09.93-.14.74-.11,1.45-.23,2.14-.32,5.94-.88,9.79-1.39,9.79-1.39h.01c.75,1.26,1.57,2.39,2.44,3.44,4.82,5.75,11.25,8.52,15.85,9.82.01,6.39-.22,10.63.19,11.7,1.34,3.46,24.91,4.29,35.82-3.26,2.41,4.44,6.87,13.52,6.45,19.12Z"/>
    <path class="cls-50" d="m170.38,74.89c-.55,4.48-1.26,9.24-2.06,12.54-.06-.24-.11-.47-.15-.69-.33-1.86-.18-3.86.23-5.86.08-.41.18-.81.29-1.23.11-.41.23-.81.36-1.22.13-.41.27-.81.41-1.21.14-.39.29-.79.45-1.18.15-.38.32-.76.48-1.15Z"/>
    <path class="cls-13" d="m239.87,185.4c-4.6-1.3-11.02-4.06-15.85-9.82-.88-1.04-1.69-2.18-2.44-3.42h0s-.01-.01-.01-.01c0,0-3.84.51-9.79,1.39-.09-2.76-.28-5.68-.62-8.63,2.38.65,6.42-1.2,9.08-3.18,1.57-1.17,2.65-2.39,2.62-3.18-.08-1.97-1.6-4.84.53-6.61,1.49,0,3,0,4.54-.01,1.76,0,3.54-.01,5.32-.03.62,0,1.25-.01,1.88-.01.52.13,1.06.25,1.62.38,1.6,7.8,2.39,15.14,2.78,21.53.27,4.35.34,8.27.34,11.61Z"/>
    <path class="cls-53" d="m227.14,139.74c-.08-.01-.15-.03-.22-.04.06-.01.13-.03.2-.04,0,.03,0,.05.01.08Z"/>
    <path class="cls-54" d="m231.1,132.66h0c-.15.03-.29.04-.43.06.14-.03.28-.04.43-.06Z"/>
    <path class="cls-33" d="m236.75,152.27c-.56-.13-1.09-.25-1.62-.38.51,0,1.03-.01,1.54-.01.03.13.05.27.08.39Z"/>
    <path class="cls-23" d="m169.89,76.04c-.15.39-.31.79-.45,1.18-.14.39-.28.8-.41,1.21-.13.41-.24.81-.36,1.22-.11.42-.22.83-.29,1.23-.42,2-.57,4-.24,5.86.04.22.09.45.17.69.8-3.3,1.51-8.06,2.06-12.54-.17.38-.33.76-.48,1.15Zm3.03-6.16s.01.01.01.01c.25-.43.5-.84.71-1.2-.23.36-.47.75-.73,1.18Zm1.97-3.09s0,.01-.01.03l.03-.03h-.01Zm.01,0l1.96-.73h0s-1.96.73-1.96.73Zm55.76,65.94c.14-.03.28-.04.43-.05h0c-.15.01-.29.03-.43.05Zm6.01,19.15c-.51,0-1.03.01-1.54.01.52.13,1.06.25,1.62.38-.03-.13-.05-.27-.08-.39Z"/>
    <path class="cls-51" d="m231.1,132.66c-.15.03-.29.04-.43.06-1.08.14-2.11.28-3.11.42-.61.09-1.2.18-1.76.27-.28.04-.55.08-.81.13-.11.01-.24.04-.36.05-.41.06-.81.13-1.2.19-.25.05-.5.09-.73.13-.24.04-.47.08-.7.13-1.45.25-2.67.51-3.59.75-.23.05-.43.1-.62.17-.37.1-.66.2-.89.31-.09.04-.18.09-.27.14-3.37,2.06-3.58,4.51-8.91,4.82-.29.01-.61.03-.94.03h-.01c-.9.01-1.92-.04-3.13-.14h-.01c-1.22-2.64-2.58-5.45-4.02-8.36-.01-.01-.01-.03-.03-.04-1.21-2.46-2.47-4.98-3.77-7.56-10.44-20.84-22.44-44.4-19.67-52.6,1.68.87,3.48,1.76,5.13,2.52,2.48,1.15,4.65,2.01,5.66,2.11,3.22.29,7.04-14.97,6.75-16.43h.01c1.29-.75,2.88-1.92,4.38-3.12-1.22,4.67-.95,9.68.51,15.1,2.97,10.97,10.85,23.69,21.23,39.09,3.35,4.96,6.26,10.21,8.71,15.67.93,2.06,1.78,4.11,2.57,6.17Z"/>
    <path class="cls-40" d="m251.77,127.77c-.61.84-1.2,1.79-1.73,2.85-1.55.14-3.09.28-4.62.42-1.5.14-2.99.29-4.46.46-.81.09-1.62.18-2.41.25-.51.06-.99.11-1.49.18-.39.04-.78.09-1.16.13-1.68.2-3.28.41-4.81.6-.79-2.06-1.64-4.11-2.57-6.17-2.44-5.46-5.36-10.71-8.71-15.67-10.39-15.4-18.27-28.12-21.23-39.09-1.46-5.42-1.73-10.43-.51-15.1.24-.93.53-1.86.9-2.76.57-1.46,9.39-10.86,17.9-10.29-8.15,5.56-5.58,22.02-.59,29.08,1.54,2.18,5.08,6.52,9.33,11.94,9.52,12.11,22.66,29.64,25.29,40.6.23.94.51,1.81.85,2.58Z"/>
    <path class="cls-44" d="m272.96,147.02c-1.69,2.16-4.19,3.83-7.65,4.6-3.28.71-6.03.47-8.3-.46,1.4-.13,2.53-.27,3.3-.43,5.79-1.23,9.09-9.03,8.67-15.37,0-.14-.01-.28-.04-.42-.19-2.11-.8-4.04-1.9-5.47-.37-.48-.79-.9-1.26-1.26-.66-.5-1.43-.87-2.3-1.08-2.52-.6-5.96.13-10.43,2.94.06.1.14.19.2.28-.24.03-.5.05-.75.06h-.01c-.81.08-1.63.14-2.44.22.53-1.06,1.12-2.01,1.73-2.85-.34-.78-.62-1.64-.85-2.58-2.64-10.96-15.77-28.49-25.29-40.6-4.25-5.42-7.79-9.76-9.33-11.94-4.99-7.05-7.56-23.51.59-29.08,6.09.43,15.47,7.45,24.49,19.13t.01.01c3.07,3.97,6.1,8.47,8.95,13.44h0c.5.88.99,1.76,1.48,2.65,4.3,7.96,9.9,25,14.95,43.5.55,2.04,1.09,4.09,1.63,6.15.09.31.17.62.25.94.46,1.78.92,3.59,1.36,5.37.03.09.05.17.06.24,1.02,4.05,1.99,8.07,2.89,12Z"/>
    <path class="cls-21" d="m278.82,191.23c-.81.97-1.81,1.83-2.94,2.61-10.91,7.55-34.49,6.72-35.82,3.26-.41-1.07-.18-5.31-.19-11.7,0-3.34-.08-7.26-.34-11.61-.38-6.39-1.17-13.72-2.78-21.53,2.11.52,4.44,1.13,6.91,1.79,10.63,2.85,23.74,6.77,32.65,8.78,2.92,14.96,4.21,26.38,2.51,28.39Z"/>
    <path class="cls-8" d="m272.96,147.02c-1.69,2.16-4.19,3.83-7.65,4.6-3.28.71-6.03.47-8.3-.46,1.4-.13,2.53-.27,3.3-.43,5.79-1.23,9.09-9.03,8.67-15.37,0-.14-.01-.28-.04-.42-.19-2.11-.8-4.04-1.9-5.47-.37-.48-.79-.9-1.26-1.26-.66-.5-1.43-.87-2.3-1.08-2.52-.6-5.96.13-10.43,2.94.06.1.14.19.2.28-.24.03-.5.05-.75.06h-.01c-.81.08-1.63.14-2.44.22.53-1.06,1.12-2.01,1.73-2.85-.34-.78-.62-1.64-.85-2.58-2.64-10.96-15.77-28.49-25.29-40.6-2.02-3.39-4.35-6.62-6.96-9.55,0,0,14.83-2.89,30.68.89h.01c.33.08.65.15.98.24.5.87.99,1.74,1.48,2.64,4.3,7.96,9.9,25,14.95,43.5.55,2.04,1.09,4.09,1.63,6.15.09.31.17.62.25.94.46,1.78.92,3.59,1.36,5.37.03.09.05.17.06.24,1.02,4.05,1.99,8.07,2.89,12Z"/>
    <path class="cls-16" d="m211.78,173.54c-.69.09-1.4.2-2.14.32-.31.05-.61.1-.93.14-.52.08-1.06.15-1.59.23-.36.06-.71.11-1.08.18-.62.09-1.27.19-1.92.29-.32.05-.65.1-.98.15-.18.03-.36.06-.53.09-.87.14-1.76.28-2.66.42-.13.03-.24.05-.37.06-.53.08-1.06.15-1.59.24-.62-7.19-1.65-14.84-3.28-20.94,2.55.64,6.4,1.31,6.96.64.14-.15.34-.43.59-.76.14-.18.28-.38.43-.6,3.55,3.06,5.83,6.71,6.75,9.31.31.88.93,1.39,1.73,1.6.34,2.95.53,5.87.62,8.63Z"/>
    <path class="cls-44" d="m197.98,175.66c.53-.09,1.06-.17,1.59-.24-.52.09-1.06.18-1.59.27v-.03Z"/>
    <path class="cls-44" d="m207.12,174.23c.53-.08,1.07-.15,1.59-.23-.51.08-1.04.17-1.59.24-.36.05-.71.11-1.08.17.37-.06.73-.11,1.08-.18Z"/>
    <path class="cls-30" d="m203.63,140.11c-.46-.04-.94-.09-1.45-.15-.08-.01-.15-.01-.23-.03-1.12-2.06-2.81-4.82-4.19-5.56-.42-.23-1.11-.28-1.95-.22-2.8.19-7.31,1.62-9.47,2.36h-.01c-1.65-2.9-3.45-5.92-5.3-8.99-.01,0-.01-.01-.01-.01-7.1-11.78-14.97-24.21-18.73-33.52.9-.41,1.72-.79,2.39-1.16h.01c1.17-.64,1.96-1.21,2.29-1.68.46-.66.9-1.99,1.32-3.69v-.03c.8-3.3,1.51-8.06,2.06-12.54.01-.03.01-.04.01-.04.25-2.11.48-4.15.67-5.96.53.28,1.16.62,1.86.98,0,.01.01.01.01.01.97.51,2.06,1.08,3.21,1.65-2.78,8.2,9.23,31.76,19.67,52.6,1.3,2.58,2.56,5.1,3.77,7.56.01.01.01.03.03.04,1.44,2.92,2.8,5.73,4.02,8.36Z"/>
    <path class="cls-44" d="m170.2,68.43c.33-.22.66-.45.98-.65-.03.36-.08.74-.11,1.12-.19,1.81-.42,3.84-.67,5.96,0,0,0,.01-.01.04-.55,4.48-1.26,9.24-2.06,12.54v.03c-.42,1.71-.87,3.03-1.32,3.69-.33.47-1.12,1.04-2.29,1.67h-.01c-.67.38-1.49.76-2.39,1.17-.74-1.83-1.31-3.54-1.69-5.1-.04-.14-.06-.28-.09-.42-.01-.01,0-.03,0-.03-2.13-9.62,4.3-16.27,9.69-20.01Z"/>
    <path class="cls-44" d="m172.92,69.88c.25-.43.5-.83.73-1.18-.22.36-.46.76-.71,1.2,0,0-.01,0-.01-.01Z"/>
    <path class="cls-44" d="m174.9,66.78h.01l-.03.03s.01-.03.01-.03Z"/>
    <polygon class="cls-44" points="176.87 66.04 176.87 66.06 174.91 66.78 176.87 66.04"/>
    <path class="cls-44" d="m211.78,173.54h0c-.69.11-1.4.22-2.14.32.74-.11,1.45-.23,2.14-.32Z"/>
    <path class="cls-14" d="m186.94,76.18c-1.02-.1-3.18-.97-5.66-2.11-1.65-.76-3.45-1.65-5.13-2.52-1.15-.57-2.24-1.15-3.21-1.65,0,0-.01,0-.01-.01-.7-.36-1.32-.7-1.86-.98.04-.38.09-.76.11-1.12.33-3.2.51-5.4.51-5.4,0,0,3.51-.59,7.91-4.7.8-.75,1.53-1.55,2.18-2.41,6.4,4.46,11.66,3.14,11.92,4.47.29,1.46-3.53,16.73-6.75,16.43Z"/>
    <path class="cls-41" d="m172.94,69.89s-.01,0-.01-.01"/>
    <path class="cls-14" d="m181.77,55.27c-.65.85-1.37,1.65-2.18,2.41-4.39,4.11-7.91,4.7-7.91,4.7,0,0-.18,2.2-.51,5.4-.03.36-.08.74-.11,1.12-.33-.18-.62-.34-.87-.47-.55-.29-.87-.47-.87-.47-.47-1.06-.09-4.65,1.02-8.12.36-.11.74-.29,1.12-.51,2.71-1.55,4.72-4.29,5.97-7,.69.18,1.4.57,2.16,1.25.73.65,1.45,1.21,2.16,1.71Z"/>
    <path class="cls-52" d="m127.94,36.26c0,.88-.31,9.1-.31,9.1,0,0-10.89,14.18-9.39,24.66.31,2.05,7.92,1.18,7.92,1.18,0,0,2.37,9.39,11.17,11.75,8.8,2.35,27.3-28.18,29.07-43.46,1.77-15.28-21.13-12.03-21.13-12.03l-17.33,8.81Z"/>
    <path class="cls-27" d="m186.94,30.97s-17.91-2.19-24.07-.66c-1.32.32-2.1.81-2.05,1.54.03.31.03.71.01,1.21-.17,6.3-3.2,27.09-9.99,32.55-7.35,5.88-24.66,5.58-24.66,5.58v.03c-.08.89-2,24.42.89,29.33,1.55,2.64,11.81.94,21.56-1.81,5.14-1.45,10.16-3.2,13.66-4.75.9-.41,1.72-.79,2.39-1.16h.01c1.17-.64,1.96-1.21,2.29-1.68.46-.66.9-1.99,1.32-3.69v-.03c.8-3.3,1.51-8.06,2.06-12.54.01-.03.01-.04.01-.04.25-2.11.48-4.15.67-5.96.04-.38.09-.76.11-1.12.33-3.2.51-5.4.51-5.4,0,0,3.51-.59,7.91-4.7.8-.75,1.53-1.55,2.18-2.41,4.34-5.73,5.32-13.43,5.41-18.61.06-3.39-.24-5.69-.24-5.69Zm-15.47,28.35c-.38.22-.76.39-1.12.51-4.89,1.72-7.6-4.8-6.51-7.27,1.17-2.64,4.11-7.01,4.11-7.01,4.4-2.36,9.98-2.94,10.86-.31.46,1.35-.03,4.2-1.37,7.08-1.25,2.71-3.26,5.45-5.97,7Z"/>
    <path class="cls-3" d="m146.4,82.01c-.45,1.77-.84,2.97-.84,2.97,0,0-8.22-2.06-12.33-6.75,1.13-.09,2.25-.26,3.35-.53,3.46-.8,8.68-2.79,10.74-7.69.95,3.43-.07,8.71-.92,12Z"/>
    <path class="cls-24" d="m136.99,51.62c-1.2.18-2.42-1.3-2.71-3.3-.03-.26-.06-.52-.07-.76l4.16-.98c.11.35.2.71.26,1.08.32,2.01-.43,3.78-1.63,3.96Z"/>
    <path class="cls-12" d="m126.18,44.48c1.18,2.35,14.97-.31,15.85-1.18s-1.18-5.58-2.06-6.16-14.08,2.35-14.08,3.52.28,3.82.28,3.82Z"/>
    <path class="cls-61" d="m107.98,43.3c14.69,4.4,44.03-9.98,44.03-9.98,0,0-21.73-5.87-26.42-5.87s-30.23,5.87-30.23,5.87c0,0,5.41,7.82,12.62,9.98Z"/>
    <path class="cls-34" d="m188.16,36.85s-9.89-2.02-19.87-3.15c-6.16-.69-12.36-1.04-16.27-.38-7.34,2.93-26.42-5.87-26.42-5.87,0,0,1.16-23.19,11.15-26.72,6.45-2.27,24.41,1.1,37.36,4.94,7.09,2.11,12.68,4.37,14.04,5.92,3.86,4.4,0,25.25,0,25.25Z"/>
    <path class="cls-14" d="m177.44,52.32c-1.25,2.71-3.26,5.45-5.97,7-.38.22-.76.39-1.12.51-4.89,1.72-7.6-4.8-6.51-7.27,1.17-2.64,4.11-7.01,4.11-7.01,4.4-2.36,9.98-2.94,10.86-.31.46,1.35-.03,4.2-1.37,7.08Z"/>
    <path class="cls-47" d="m275.29,133.41s-1.26.47-3.23.93c-.01.01-.03.03-.05.01-.6.15-1.27.29-2,.42-.34.05-.7.11-1.07.17-.19-2.11-.8-4.04-1.9-5.47-.37-.48-.79-.9-1.26-1.26-.66-.5-1.43-.87-2.3-1.08-2.52-.6-5.96.13-10.43,2.94-.48-.67-.9-1.44-1.27-2.29-.34-.78-.62-1.64-.85-2.58-2.64-10.96-15.77-28.49-25.29-40.6-4.25-5.42-7.79-9.76-9.33-11.94-4.99-7.05-7.56-23.51.59-29.08,2.3-1.57,6.16-1.35,10.71.69.25.11.51.24.78.37.39.19.79.39,1.18.61.39.22.8.45,1.21.69.41.24.81.5,1.22.76.42.27.83.55,1.25.84.56.38,1.12.8,1.68,1.25.28.22.57.45.85.67,1.13.92,2.28,1.94,3.42,3.06.85.84,1.71,1.72,2.56,2.66.56.62,1.13,1.27,1.69,1.95.28.34.56.67.83,1.03,1.96,2.43,3.86,5.17,5.64,8.17.27.43.51.88.76,1.31.25.45.51.89.75,1.35.24.46.5.92.74,1.39.24.46.47.93.71,1.41.25.47.48.95.71,1.44.7,1.48,1.39,3,2.08,4.57h0c.7,1.57,1.37,3.16,2.04,4.76.25.65.53,1.3.8,1.96.52,1.3,1.06,2.61,1.58,3.92h0c.78,1.99,1.54,3.98,2.28,5.96.5,1.32.98,2.65,1.46,3.96.47,1.31.94,2.61,1.4,3.9.45,1.29.89,2.56,1.34,3.82.65,1.88,1.27,3.72,1.87,5.5.74,2.22,1.43,4.33,2.07,6.31.13.41.25.8.38,1.18.41,1.3.8,2.52,1.17,3.68.29.92.57,1.8.83,2.62.11.41.24.81.37,1.21.22.67.41,1.29.59,1.87t0,.01c.03.08.05.17.08.24.05.19.11.38.15.57.62,2.06,1.02,3.44,1.16,3.93.04.14.06.2.06.2Z"/>
    <path class="cls-20" d="m188.26,150.15c-.36.18-.76.38-1.2.6.28.46.45.95.46,1.44.05,1.62-1.69,2.98-4.91,3.82-.03,0-.04.01-.06.01-5.12,1.31-9.1.03-9.87-1.91-.55-1.41.71-3.13,3.39-4.58.15-.05.73-.27,1.55-.5-.03.01-.05.01-.08.01-1.27.17-2.61.36-4.02.56h-.01c-2.74,2.15-2.41,4.14-2.08,4.99.92,2.32,4.74,4.04,10.21,2.99.32-.06.62-.13.95-.2.09-.01.19-.04.28-.06,5.03-1.3,6.03-3.53,5.98-5.17-.03-.7-.24-1.37-.6-2Z"/>
    <path class="cls-20" d="m181.52,147.34c-.13-.13-.27-.23-.42-.28-1.13-.43-2.27.23-2.97.81-.47.37-.75.71-.75.71.39.18.76.37,1.09.57.05.04.1.06.15.1.36.23.67.47.94.73.24-.28.53-.6.88-.95.09-.09.18-.18.27-.28h.01c.08-.08.17-.17.24-.25.27-.27.56-.53.85-.81-.09-.14-.19-.25-.31-.34Zm1.04,5.74c-.43.14-.79.24-1.07.28.24,1.16.1,2.19-.06,2.72.56-.55.93-1.37,1.15-2.32h0c.05-.24.1-.5.13-.74-.05.01-.09.04-.14.05Z"/>
    <path class="cls-20" d="m96.86,154.1l-5.69,1.09c.85-.6,3.26-.93,5.69-1.09Z"/>
    <path class="cls-20" d="m170.87,139.97l-.67.13c.17-.19.36-.42.57-.67.08.33.1.55.1.55Z"/>
    <path class="cls-5" d="m154.55,141.84c-1.69.31-3.51.62-5.44.97.08.38.17.83.25,1.27.42,2.06.93,4.51.93,4.51,0,0-4.82-1.27-5.3,2.01-.25,1.72,1.49,2.79,3.2,3.41-15.16,2.58-31.2,5.46-42.24,7.26-.84-3.21-2.02-6.79-2.97-7.09-.57-.19-3.32-.25-6.07-.08h-.06c-2.43.17-4.84.5-5.69,1.09-.15.1-.25.22-.31.33-.31.83,1.09,4.11,2.89,7.47-.85.05-1.4.05-1.6-.03-1.09-.43-2.09-1.58-2.78-2.93-.71-1.39-1.11-2.99-.98-4.33.1-.94.46-1.73,1.16-2.22,1.11-.76,37.07-6.73,59.56-10.72,1.92-.33,3.74-.66,5.44-.97v.03Z"/>
    <path class="cls-9" d="m105.96,161.27c-5.64.92-9.97,1.55-12.21,1.73-1.79-3.36-3.2-6.65-2.89-7.47.05-.11.15-.23.31-.33.85-.6,3.26-.93,5.69-1.09h.06c2.75-.18,5.5-.11,6.07.08.94.31,2.13,3.88,2.97,7.09Z"/>
    <path class="cls-9" d="m149.79,150.67c.15.8-.37,1.57-1.17,1.72-.79.15-1.57-.37-1.72-1.16-.15-.8.37-1.57,1.17-1.73.09-.01.18-.03.25-.03.7,0,1.32.5,1.46,1.2Z"/>
    <path class="cls-9" d="m169.79,136.3c-.05.08-.09.15-.13.23h-.01c.04-.08.08-.15.14-.23Z"/>
    <path class="cls-9" d="m171.22,134.9s-.08.03-.1.04c-.2.09-.38.2-.55.34.17-.15.34-.27.55-.36.03-.01.06-.03.1-.03Z"/>
    <path class="cls-9" d="m182.31,148.65h.1v.14s-.04,0-.05.01c-.01-.05-.03-.1-.05-.15Z"/>
    <path class="cls-60" d="m190.08,139.09c-.03.32-.52.97-1.31,1.81-1.57,1.69-4.25,4.18-6.44,6.29-.05.04-.1.09-.14.13-.13.13-.25.24-.37.37-.29.28-.59.55-.85.81-.08.09-.17.18-.24.25h-.01c-.09.1-.18.19-.27.28-.59.06-1.18.14-1.82.23-.32.03-.64.08-.97.11h-.04s-.05.01-.08.01c-1.27.17-2.61.36-4.02.56h-.01c-.64.09-1.29.18-1.96.28-.48-2.83-2-9.41-2-9.41,0,0,.25-.27.65-.73.17-.19.36-.42.57-.67.99-1.21,2.32-2.97,2.86-4.38-.62-.09-1.15-.14-1.55-.17.41,0,.93.05,1.55.14,1.44.19,3.37.52,5.61.94.78.14,1.6.29,2.44.46,1.51.28,3.12.6,4.76.9h.03c.13.04.24.08.38.11,1.45.47,3.27,1.15,3.22,1.65Z"/>
    <path class="cls-9" d="m182.34,147.31h-.15s.09-.09.14-.13c0,.04.01.09.01.13Z"/>
    <path class="cls-9" d="m186.86,137.43c-.14-.04-.25-.08-.38-.11.11.04.24.06.36.08,0,.01.01.03.03.04Z"/>
    <path class="cls-39" d="m222.85,158.54c.03.79-1.06,2.01-2.62,3.18-2.66,1.99-6.7,3.83-9.08,3.18-.8-.22-1.43-.73-1.73-1.6-.92-2.6-3.2-6.25-6.75-9.31.5-.67,1.06-1.48,1.54-2.18.87.01,2.36.03,4.33.04,2.15.03,4.88.05,7.94.05,2.15.01,4.48.03,6.9.03-2.14,1.77-.61,4.63-.53,6.61Z"/>
    <path class="cls-9" d="m227.14,139.74c-.08-.01-.15-.03-.22-.04.06-.01.13-.03.2-.04,0,.03,0,.05.01.08Z"/>
    <path class="cls-9" d="m231.1,132.66h0c-.15.03-.29.04-.43.06.14-.03.28-.04.43-.06Z"/>
    <path class="cls-63" d="m285.7,164.08c-1.55.29-4.95-.24-9.38-1.23-8.91-2.01-22.02-5.93-32.65-8.78-2.47-.66-4.8-1.27-6.91-1.79-.03-.13-.05-.27-.08-.39,2.22-.03,4.4-.06,6.49-.1,5.55-.13,10.49-.32,13.84-.61,2.27.93,5.02,1.17,8.3.46,3.46-.76,5.96-2.43,7.65-4.6,2.99-3.81,3.5-9.17,2.47-13.89-.28-1.36-.69-2.66-1.22-3.86.31-.01.61-.01.92-.01,1.62,0,3.09.04,4.4.1.33.01.66.03.98.05.98.06,1.95.18,2.92.33,1.3.25,2.1.59,2.29,1.03,1.85,4.44,7.1,31.94-.01,33.3Z"/>
    <path class="cls-62" d="m236.68,151.87c.03.13.05.27.08.39-.56-.13-1.09-.25-1.62-.38.51,0,1.03-.01,1.54-.01Z"/>
    <path class="cls-22" d="m272.96,147.02c-1.69,2.16-4.19,3.83-7.65,4.6-3.28.71-6.03.47-8.3-.46,1.4-.13,2.53-.27,3.3-.43,5.79-1.23,9.09-9.03,8.67-15.37,0-.14-.01-.28-.04-.42-.19-2.11-.8-4.04-1.9-5.47.2-.01.39-.01.6-.03.33-.01.67-.03,1.01-.04l.99-.04c.5-.01.98-.04,1.46-.05h.17c.34-.01.67-.01,1.01-.03.62,0,1.22-.01,1.79-.01.04-.01.06-.01.1-.01h.95c-.31,0-.61,0-.92.01.53,1.2.94,2.5,1.22,3.86,1.03,4.72.52,10.08-2.47,13.89Z"/>
    <path class="cls-20" d="m149.79,150.67c.15.8-.37,1.57-1.17,1.72-.79.15-1.57-.37-1.72-1.16-.15-.8.37-1.57,1.17-1.73.09-.01.18-.03.25-.03.7,0,1.32.5,1.46,1.2Z"/>
    <path class="cls-20" d="m154.44,152.97c-1.44.24-2.89.5-4.35.74-.61.1-1.23.22-1.86.32t-.03-.01h.04c.62-.1,1.25-.22,1.86-.32,1.46-.24,2.92-.48,4.34-.73Z"/>
    <path class="cls-20" d="m171.55,150.23h0c-2.57.39-5.32.81-8.19,1.27,2.86-.47,5.61-.89,8.19-1.27Z"/>
    <path class="cls-29" d="m149.79,150.67c.15.8-.37,1.57-1.17,1.72-.79.15-1.57-.37-1.72-1.16-.15-.8.37-1.57,1.17-1.73.09-.01.18-.03.25-.03.7,0,1.32.5,1.46,1.2Z"/>
    <path class="cls-58" d="m1.08,166.62s.84-2.25,1.74-2.65,12.04.02,12.04.02l-13.77,2.63Z"/>
    <path class="cls-20" d="m170.2,140.1c.17-.19.36-.42.57-.67.99-1.21,2.32-2.97,2.86-4.38-.62-.09-1.15-.14-1.55-.17-.14-.01-.25-.01-.37-.01s-.2,0-.29.01c-.08,0-.14.01-.2.03-.04.01-.08.03-.1.04-.2.09-.38.2-.55.34-.08.06-.15.14-.22.22-.22.23-.38.51-.56.8-.05.08-.09.15-.13.23h-.01c-.08-.15-.17-.29-.27-.42h0s-.01-.01-.01-.01c-.03-.04-.06-.08-.09-.11-.09-.13-.19-.24-.31-.34-.05-.05-.11-.1-.17-.15-.13-.1-.24-.19-.37-.27-.1-.05-.2-.1-.31-.15-.1-.04-.22-.08-.32-.1-.28-.06-.57-.08-.9-.01l-12.49,2.38L.79,166.68h-.01c-.53.11-.87.64-.75,1.16l.05.2.79,3.46c.11.51.61.83,1.11.73l86.42-16.51c.1-.94.46-1.73,1.16-2.22,1.11-.76,37.07-6.73,59.56-10.72v.03c.08.38.17.83.25,1.27.42,2.06.93,4.51.93,4.51,0,0-4.82-1.27-5.3,2.01-.25,1.72,1.49,2.79,3.2,3.41h.04c.62-.1,1.25-.22,1.86-.32,1.46-.24,2.92-.48,4.34-.73.81-.13,1.62-.27,2.42-.41.71-.11,1.41-.23,2.11-.34,1.49-.24,2.97-.48,4.39-.71,2.86-.47,5.61-.89,8.19-1.27-.48-2.83-2-9.41-2-9.41,0,0,.25-.27.65-.73Zm-21.58,12.3c-.79.15-1.57-.37-1.72-1.16-.15-.8.37-1.57,1.17-1.73.09-.01.18-.03.25-.03.7,0,1.32.5,1.46,1.2.15.8-.37,1.57-1.17,1.72Z"/>
    <path class="cls-7" d="m167.82,134.97c-.28-.06-.57-.08-.9-.01.33-.06.64-.06.9.01Z"/>
    <path class="cls-7" d="m169.38,136.1h-.01s-.06-.08-.09-.11c.04.04.08.08.1.11Z"/>
    <path class="cls-26" d="m252.49,130.41c-.32.22-.64.43-.97.66-.76.53-1.55,1.03-2.39,1.5h0c-2.81,1.62-6,2.95-9.37,4.05-2.15.7-4.38,1.31-6.63,1.83-1.16.27-2.33.52-3.5.75-.84.15-1.67.31-2.5.46-.08.01-.14.03-.2.04-.01-.01-.03-.01-.03,0-6.9,1.17-13.54,1.68-18.45,1.9-.17,0-.32.01-.47.01-1.36.06-2.58.1-3.62.11-.55.01-1.04.01-1.49.01-.22-.43-.53-1.08-.93-1.81.08.01.15.01.23.03.51.06.99.11,1.45.15h.01c1.21.1,2.23.15,3.13.14h.01c.33,0,.65-.01.94-.03,5.33-.32,5.54-2.76,8.91-4.82.09-.05.18-.1.27-.14.23-.1.52-.2.89-.31.19-.06.39-.11.62-.17.92-.24,2.14-.5,3.59-.75.23-.05.46-.09.7-.13.23-.04.47-.08.73-.13.38-.06.79-.13,1.2-.19.11-.01.24-.04.36-.05.27-.05.53-.09.81-.13.56-.09,1.15-.18,1.76-.27.99-.14,2.02-.28,3.11-.42.14-.03.28-.04.43-.05h0c1.53-.2,3.13-.41,4.81-.61.38-.04.76-.09,1.16-.13.5-.06.98-.11,1.49-.18.79-.08,1.59-.17,2.41-.25,1.46-.15,2.95-.31,4.46-.46,1.53-.14,3.07-.28,4.62-.42.81-.08,1.63-.14,2.44-.22Z"/>
    <path class="cls-6" d="m227.14,139.74c-.08-.01-.15-.03-.22-.04.06-.01.13-.03.2-.04,0,.03,0,.05.01.08Z"/>
    <path class="cls-6" d="m275.43,133.13c-.06.03-.14.05-.2.08-1.06.39-2.11.78-3.17,1.13-.01.01-.03.03-.05.01-.65.23-1.3.45-1.94.66-.37.11-.74.23-1.09.34,0-.14-.01-.28-.04-.42-.19-2.11-.8-4.04-1.9-5.47.2-.01.39-.01.6-.03.33-.01.67-.03,1.01-.04l.99-.04c.5-.01.98-.04,1.46-.05h.17c.34-.01.67-.01,1.01-.03.62,0,1.22-.01,1.79-.01.04-.01.06-.01.1-.01.01,0,.03,0,.04.01.53,1.2.94,2.5,1.22,3.86Z"/>
    <path class="cls-2" d="m272.96,147.02c-1.69,2.16-4.19,3.83-7.65,4.6-3.28.71-6.03.47-8.3-.46,1.4-.13,2.53-.27,3.3-.43,5.79-1.23,9.09-9.03,8.67-15.37,0-.14-.01-.28-.04-.42-.19-2.11-.8-4.04-1.9-5.47-.37-.48-.79-.9-1.26-1.26-.66-.5-1.43-.87-2.3-1.08-2.52-.6-5.96.13-10.43,2.94.06.1.14.19.2.28-.24.03-.5.05-.75.06h-.01c-.32.22-.64.43-.97.66-.76.53-1.55,1.03-2.39,1.5.29-.69.6-1.34.92-1.95.53-1.06,1.12-2.01,1.73-2.85,3.41-4.72,7.79-6.39,11.81-6.11,1.09.08,2.16.31,3.17.65,2.94.99,5.42,3.02,6.77,5.52.09.17.17.33.25.51,0,.01.01.01.01.03.01.03.03.05.04.08t0,.01c.14.25.27.52.37.8h0c.53,1.21.94,2.51,1.22,3.87,1.03,4.72.52,10.08-2.47,13.89Z"/>
    <path class="cls-14" d="m186.84,137.4c-.17-.29-.33-.59-.5-.89h-.01c-.76.25-1.23.42-1.23.42,0,0,.59.15,1.36.39h.03c.13.04.24.08.38.11-.01-.01-.03-.03-.03-.04Zm-4.43,11.39v-.14h-.1c.03.05.04.1.05.15.03.06.05.13.06.19-.01-.06-.01-.14-.01-.2Zm-.08-1.6c-.05.04-.1.09-.14.13h.15s-.01-.09-.01-.13Z"/>
    <path class="cls-14" d="m154.07,171c-.97.46-4.15.48-8.35.29h-.01c-11.93-.59-31.95-3.06-31.95-3.06,0,0-12.34,4.3-14.49,2.94-1.12-.71-3.55-4.49-5.51-8.19-1.79-3.36-3.2-6.65-2.89-7.47.05-.11.15-.23.31-.33.85-.6,3.26-.93,5.69-1.09h.06c2.75-.18,5.5-.11,6.07.08.94.31,2.13,3.88,2.97,7.09.22.8.41,1.59.56,2.29,1.76-.98,7.04-.59,7.04-.59,0,0,23.7-6.72,35.1-7.6h.01c3.02-.24,5.17-.06,5.78.75,4.01,5.35,3.34,13.14-.38,14.88Z"/>
    <path class="cls-14" d="m268.97,135.36c0-.14-.01-.28-.04-.42-.19-2.11-.8-4.04-1.9-5.47-.37-.48-.79-.9-1.26-1.26-.66-.5-1.43-.87-2.3-1.08-2.52-.6-5.96.13-10.43,2.94.06.1.14.19.2.28-.24.03-.5.05-.75.06h-.01c-.32.22-.64.43-.97.66-.76.53-1.55,1.03-2.39,1.5h0c-2.81,1.62-6,2.95-9.37,4.05-2.15.7-4.38,1.31-6.63,1.83-1.16.27-2.33.52-3.5.75-.84.15-1.67.31-2.5.46,0,.03,0,.05.01.08-.08-.01-.15-.03-.22-.04h-.03c-6.9,1.17-13.54,1.68-18.45,1.9-.17,0-.32.01-.47.01-1.36.06-2.58.1-3.62.11-.55.01-1.04.01-1.49.01-.22-.43-.53-1.08-.93-1.81-1.12-2.06-2.81-4.82-4.19-5.56-.42-.23-1.11-.28-1.95-.22-2.8.19-7.31,1.62-9.47,2.36.17.31.33.6.5.89,0,.01.01.03.03.04,1.45.47,3.27,1.15,3.22,1.65-.03.32-.52.97-1.31,1.81-1.57,1.69-4.25,4.18-6.44,6.29,0,.04.01.09.01.13h-.15c-.13.13-.25.24-.37.37-.29.28-.59.55-.85.81-.08.09-.17.18-.24.25h-.01c-.09.1-.18.19-.27.28-.34.36-.64.67-.88.95-.25.29-.46.53-.59.74-.1.17-.17.29-.18.38-.11,1.04.39,1.83,1.39,2.14.31.09.65.14,1.03.14.05,0,.1,0,.15-.01.04,0,.08-.01.11-.01.28-.04.64-.14,1.07-.28.05-.01.09-.04.14-.05,1.26-.46,2.97-1.25,4.37-1.94.43-.22.84-.42,1.2-.6.87-.45,1.44-.75,1.44-.75,0,0,1.51,3.78,3.03,4.39.38.15,1.09.37,1.96.59,2.55.64,6.4,1.31,6.96.64.14-.15.34-.43.59-.76.14-.18.28-.38.43-.6.5-.67,1.06-1.48,1.54-2.18.87.01,2.36.03,4.33.04,2.15.03,4.88.05,7.94.05,2.15.01,4.48.03,6.9.03,1.49,0,3,0,4.54-.01,1.76,0,3.54-.01,5.32-.03.62,0,1.25-.01,1.88-.01.51,0,1.03-.01,1.54-.01,2.22-.03,4.4-.06,6.49-.1,5.55-.13,10.49-.32,13.84-.61,1.4-.13,2.53-.27,3.3-.43,5.79-1.23,9.09-9.03,8.67-15.37Zm-86.62,13.44c-.01-.05-.03-.1-.05-.15h.1v.14c0,.06,0,.14.01.2-.01-.06-.04-.13-.06-.19Z"/>
    <path class="cls-14" d="m227.14,139.74c-.08-.01-.15-.03-.22-.04.06-.01.13-.03.2-.04,0,.03,0,.05.01.08Z"/>
    <path class="cls-14" d="m253.25,130.34c-.24.03-.5.05-.75.06.19-.13.37-.24.55-.34.06.1.14.19.2.28Z"/>
  </g>
</svg>