<?xml version="1.0" encoding="UTF-8"?>
<svg id="Layer_4" data-name="Layer 4" xmlns="http://www.w3.org/2000/svg" xmlns:xlink="http://www.w3.org/1999/xlink" viewBox="0 0 647 391">
  <defs>
    <style>
      .cls-1 {
        fill: url(#linear-gradient-2);
      }

      .cls-2 {
        fill: #562442;
      }

      .cls-3 {
        fill: url(#linear-gradient-3);
      }

      .cls-4 {
        fill: url(#linear-gradient);
      }

      .cls-5 {
        fill: url(#linear-gradient-4);
      }
    </style>
    <linearGradient id="linear-gradient" x1="-372.97" y1="-3466.11" x2="-172.3" y2="-3614.21" gradientTransform="translate(564 -3198) scale(1 -1)" gradientUnits="userSpaceOnUse">
      <stop offset="0" stop-color="#562442"/>
      <stop offset="1" stop-color="#b5545b"/>
    </linearGradient>
    <linearGradient id="linear-gradient-2" x1="-48.8" y1="-3481.95" x2="205.09" y2="-3584.53" gradientTransform="translate(564 -3198) scale(1 -1)" gradientUnits="userSpaceOnUse">
      <stop offset=".08" stop-color="#562442"/>
      <stop offset=".22" stop-color="#682d47"/>
      <stop offset=".51" stop-color="#8b3f50"/>
      <stop offset=".55" stop-color="#8f4151"/>
      <stop offset=".83" stop-color="#ab4f58"/>
      <stop offset="1" stop-color="#b5545b"/>
    </linearGradient>
    <linearGradient id="linear-gradient-3" x1="-147.52" y1="-3720.64" x2="-249.46" y2="-3241.75" xlink:href="#linear-gradient"/>
    <linearGradient id="linear-gradient-4" x1="-456.83" y1="-3331.77" x2="-590.82" y2="-3333.06" gradientTransform="translate(564 -3198) scale(1 -1)" gradientUnits="userSpaceOnUse">
      <stop offset="0" stop-color="#ffe2ab"/>
      <stop offset="1" stop-color="#f9f0d9"/>
    </linearGradient>
  </defs>
  <path class="cls-4" d="m328.51,384.47c.09,3.52-2.69,6.44-6.21,6.52-.06,0-.11,0-.17,0h-61.27c-3.52,0-6.37-2.83-6.38-6.35,0-1.23.35-2.43,1.01-3.46.53-.81,1.03-1.52,1.46-2.1.72-.97.66-2.32-.15-3.23l-29.05-32.59c-22.39-38.05,3.23-59.31,20.13-69.25,13.47-7.93,58.98-6.2,65.66,17.19,12.11,22.13,14.49,74.79,14.95,93.26Z"/>
  <path class="cls-1" d="m646.48,384.47c.09,3.52-2.69,6.44-6.21,6.52-.06,0-.11,0-.17,0h-65.59c-4.23,0-7.87-5.21-5.73-9.91,1.02-2.08,2.42-3.96,4.12-5.54,1-.98,1.02-2.58.06-3.59l-27.23-28.68c-34.32-41.25-31.76-63.91-13.81-84.85,10.17-11.87,62.83-37.19,89.22-12.63,21.92,35.71,24.88,120.21,25.34,138.68Z"/>
  <path class="cls-3" d="m528.22,5.68c-81.67-17.86-164.78,11.51-219.46,17.86-59.15,6.87-122.19-.36-158.32,1.14-7.19.29-21.38-29.39-43.7-19.3-8.12,3.68-9.68,12.83-7.26,20.58.43,1.3-.24,2.72-1.52,3.21-13.95,5.14-29.16,16.77-38.5,27.4-8.69,9.9-16.11,27.77-23.63,43.16-5.14,10.51-8.22,64.25-3.39,69.47,19.87,21.55,46.8,34.01,64.52,50.19,16.19,14.77,28.67,40.26,30.52,64.48,1.49,19.63,5.11,74.34,5.88,85.96.08,1.23-.73,2.34-1.92,2.64-3.77.89-7.31,2.55-10.4,4.87-3.32,2.62-3.88,7.43-1.27,10.74,1.45,1.84,3.68,2.92,6.03,2.91h60.75c2.26,0,4.4-.99,5.86-2.72,5.46-6.49,19.89-23.93,35.35-45.01,11.42-15.34,22-31.29,31.7-47.77,1.36-2.36,3.89-3.81,6.61-3.81,14.53-.02,30.74-.15,47.48-.48,42.57-.86,88.96-3.14,119.35-8.49,4.19-.75,8.19,2.03,8.94,6.22,0,.05.02.09.02.14,5.22,32.75,12.12,70.06,13.85,79.34.22,1.22-.46,2.43-1.63,2.86-2.46.91-4.76,2.19-6.83,3.79-6.64,5.2-2.69,15.93,5.74,15.93h56.78c2.05,0,4.03-.7,5.62-1.99,13.48-11.25,26.04-23.56,37.54-36.83,25.25-28.66,52.87-67.95,70.78-112.65,11.75-29.3,19.32-60.93,19.32-93.42,0-48.4-33.17-122.57-114.83-140.43Z"/>
  <path class="cls-5" d="m32.54,169.21h-.1c-4.96-5.32-9.32-11.16-12.99-17.44-4.1-7.08-9.57-18.82.32-27.27,5.71-4.87,10.91-14.25,16.05-24.76,17.07,3,23.82,20.35,24.44,34.74.49,11.22-6.5,28.57-27.72,34.74Z"/>
  <circle class="cls-2" cx="9.89" cy="134.39" r="9.89"/>
  <circle class="cls-2" cx="70.07" cy="89.89" r="6.81"/>
</svg>