<svg id="Lager_1" data-name="Lager 1" xmlns="http://www.w3.org/2000/svg" viewBox="0 0 5 2924"><defs><style>.cls-1{fill:#929292;}</style></defs><title>Rityta 1</title><path class="cls-1" d="M5,2924H0v-12H5Zm0-24.06H0v-12H5Zm0-24.07H0v-12H5Zm0-24.06H0v-12H5Zm0-24.07H0v-12H5Zm0-24.06H0v-12H5Zm0-24.07H0v-12H5Zm0-24.06H0v-12H5Zm0-24.07H0v-12H5Zm0-24.06H0v-12H5Zm0-24.07H0v-12H5Zm0-24.06H0v-12H5Zm0-24.07H0v-12H5Zm0-24.06H0v-12H5Zm0-24.07H0v-12H5ZM5,2563H0v-12H5Zm0-24.07H0v-12H5Zm0-24.06H0v-12H5Zm0-24.07H0v-12H5Zm0-24.07H0v-12H5Zm0-24.06H0v-12H5Zm0-24.07H0v-12H5Zm0-24.06H0v-12H5Zm0-24.07H0v-12H5Zm0-24.06H0v-12H5Zm0-24.07H0v-12H5Zm0-24.06H0v-12H5Zm0-24.07H0v-12H5Zm0-24.06H0v-12H5Zm0-24.07H0v-12H5ZM5,2202H0v-12H5Zm0-24.07H0v-12H5Zm0-24.06H0v-12H5Zm0-24.07H0v-12H5Zm0-24.06H0v-12H5Zm0-24.07H0v-12H5Zm0-24.06H0v-12H5Zm0-24.07H0v-12H5Zm0-24.06H0v-12H5Zm0-24.07H0v-12H5Zm0-24.06H0v-12H5Zm0-24.07H0v-12H5Zm0-24.07H0v-12H5Zm0-24.06H0v-12H5Zm0-24.07H0v-12H5ZM5,1841H0v-12H5ZM5,1817H0v-12H5Zm0-24.06H0v-12H5Zm0-24.07H0v-12H5Zm0-24.06H0v-12H5Zm0-24.07H0v-12H5Zm0-24.06H0v-12H5Zm0-24.07H0v-12H5Zm0-24.06H0v-12H5Zm0-24.07H0v-12H5Zm0-24.06H0v-12H5Zm0-24.07H0v-12H5Zm0-24.06H0v-12H5Zm0-24.07H0v-12H5Zm0-24.06H0v-12H5Zm0-24.07H0v-12H5ZM5,1456H0v-12H5Zm0-24.07H0v-12H5Zm0-24.07H0v-12H5Zm0-24.06H0v-12H5Zm0-24.07H0v-12H5Zm0-24.06H0v-12H5Zm0-24.07H0v-12H5Zm0-24.06H0v-12H5Zm0-24.07H0v-12H5Zm0-24.06H0v-12H5Zm0-24.07H0v-12H5Zm0-24.06H0v-12H5Zm0-24.07H0v-12H5Zm0-24.06H0v-12H5Zm0-24.07H0v-12H5ZM5,1095H0v-12H5Zm0-24.06H0v-12H5Zm0-24.07H0v-12H5Zm0-24.06H0v-12H5Zm0-24.07H0v-12H5Zm0-24.06H0v-12H5Zm0-24.07H0v-12H5Zm0-24.06H0v-12H5Zm0-24.07H0v-12H5Zm0-24.06H0v-12H5Zm0-24.07H0v-12H5Zm0-24.06H0v-12H5Zm0-24.07H0v-12H5Zm0-24.06H0v-12H5Zm0-24.07H0v-12H5ZM5,734H0V722H5ZM5,710H0v-12H5Zm0-24.07H0v-12H5Zm0-24.06H0v-12H5Zm0-24.07H0v-12H5ZM5,613.7H0v-12H5Zm0-24.07H0v-12H5Zm0-24.06H0v-12H5ZM5,541.5H0v-12H5Zm0-24.06H0v-12H5Zm0-24.07H0v-12H5Zm0-24.06H0v-12H5Zm0-24.07H0v-12H5Zm0-24.06H0v-12H5Zm0-24.07H0v-12H5ZM5,373H0V361H5ZM5,349H0V337H5Zm0-24.07H0v-12H5Zm0-24.06H0v-12H5Zm0-24.07H0v-12H5Zm0-24.06H0v-12H5Zm0-24.07H0v-12H5Zm0-24.06H0v-12H5Zm0-24.07H0v-12H5Zm0-24.06H0v-12H5Zm0-24.07H0v-12H5Zm0-24.06H0v-12H5ZM5,84.26H0v-12H5ZM5,60.2H0v-12H5ZM5,36.13H0v-12H5ZM5,12.07H0V0H5Z"/></svg>