<svg xmlns="http://www.w3.org/2000/svg" viewBox="0 0 353.46 478.8"><defs><style>.cls-1{fill:#929292;}</style></defs><title>Rityta 2 kopia</title><g id="Lager_2" data-name="Lager 2"><rect class="cls-1" x="33.66" y="201.7" width="16.81" height="16.81"/><polygon class="cls-1" points="67.28 151.28 67.28 168.09 33.66 168.09 33.66 201.7 16.86 201.7 16.86 151.28 67.28 151.28"/><rect class="cls-1" x="268.98" y="134.47" width="16.81" height="16.81"/><rect class="cls-1" x="285.79" y="151.28" width="16.81" height="117.66"/><polygon class="cls-1" points="235.37 100.85 235.37 117.66 201.75 117.66 201.75 168.09 184.94 168.09 184.94 100.85 235.37 100.85"/><polygon class="cls-1" points="268.98 117.66 268.98 134.47 252.17 134.47 252.17 184.9 235.37 184.9 235.37 117.66 268.98 117.66"/><polygon class="cls-1" points="184.94 84.04 184.94 100.85 151.32 100.85 151.32 168.09 134.52 168.09 134.52 16.81 151.32 16.81 151.32 84.04 184.94 84.04"/><rect class="cls-1" x="100.9" width="33.62" height="16.81"/><polygon class="cls-1" points="100.9 16.81 100.9 235.32 84.09 235.32 84.09 184.9 67.28 184.9 67.28 168.09 84.09 168.09 84.09 16.81 100.9 16.81"/><rect class="cls-1" x="84.09" y="285.75" width="16.81" height="33.61"/><polygon class="cls-1" points="268.98 319.36 268.98 369.79 100.9 369.79 100.9 319.36 117.71 319.36 117.71 352.98 252.17 352.98 252.17 319.36 268.98 319.36"/><rect class="cls-1" x="67.28" y="252.13" width="16.81" height="33.62"/><rect class="cls-1" x="268.98" y="268.94" width="16.81" height="50.42"/><rect class="cls-1" x="50.47" y="218.51" width="16.81" height="33.62"/><path class="cls-1" d="M32.09,470.51a19.17,19.17,0,0,1,.45,4.52,20,20,0,0,1-.45,4.52H14a20,20,0,0,1-.45-4.52,19.17,19.17,0,0,1,.45-4.52H9.49A20,20,0,0,1,9,466a19.17,19.17,0,0,1,.45-4.52A20,20,0,0,1,9,457a19.17,19.17,0,0,1,.45-4.52A20,20,0,0,1,9,447.91a19.17,19.17,0,0,1,.45-4.52h-9A20,20,0,0,1,0,438.87a19.17,19.17,0,0,1,.45-4.52h9A20,20,0,0,1,9,429.83a19.17,19.17,0,0,1,.45-4.52A20,20,0,0,1,9,420.79a19.17,19.17,0,0,1,.45-4.52h9a19.17,19.17,0,0,1,.45,4.52,20,20,0,0,1-.45,4.52,19.17,19.17,0,0,1,.45,4.52,20,20,0,0,1-.45,4.52H32.09a19.17,19.17,0,0,1,.45,4.52,20,20,0,0,1-.45,4.52H18.53a19.17,19.17,0,0,1,.45,4.52,20,20,0,0,1-.45,4.52A19.17,19.17,0,0,1,19,457a20,20,0,0,1-.45,4.52A19.17,19.17,0,0,1,19,466a20,20,0,0,1-.45,4.52Z"/><path class="cls-1" d="M77.74,475a20,20,0,0,1-.45,4.52H50.17a20,20,0,0,1-.45-4.52,19.17,19.17,0,0,1,.45-4.52h9a20,20,0,0,1-.45-4.52,19.17,19.17,0,0,1,.45-4.52,20,20,0,0,1-.45-4.52,19.17,19.17,0,0,1,.45-4.52,20,20,0,0,1-.45-4.52,19.17,19.17,0,0,1,.45-4.52H52.43a20,20,0,0,1-.45-4.52,19.17,19.17,0,0,1,.45-4.52H68.25a19.17,19.17,0,0,1,.45,4.52,20,20,0,0,1-.45,4.52,19.17,19.17,0,0,1,.45,4.52,20,20,0,0,1-.45,4.52A19.17,19.17,0,0,1,68.7,457a20,20,0,0,1-.45,4.52A19.17,19.17,0,0,1,68.7,466a20,20,0,0,1-.45,4.52h9A19.17,19.17,0,0,1,77.74,475ZM59.21,425.31a20,20,0,0,1-.45-4.52,19.17,19.17,0,0,1,.45-4.52h9a19.17,19.17,0,0,1,.45,4.52,20,20,0,0,1-.45,4.52Z"/><path class="cls-1" d="M122.94,475a20,20,0,0,1-.45,4.52H95.37a20,20,0,0,1-.45-4.52,19.17,19.17,0,0,1,.45-4.52h9A20,20,0,0,1,104,466a19.17,19.17,0,0,1,.45-4.52A20,20,0,0,1,104,457a19.17,19.17,0,0,1,.45-4.52,20,20,0,0,1-.45-4.52,19.17,19.17,0,0,1,.45-4.52,20,20,0,0,1-.45-4.52,19.17,19.17,0,0,1,.45-4.52,20,20,0,0,1-.45-4.52,19.17,19.17,0,0,1,.45-4.52H97.63a20,20,0,0,1-.45-4.52,19.17,19.17,0,0,1,.45-4.52h15.82a19.17,19.17,0,0,1,.45,4.52,20,20,0,0,1-.45,4.52,19.17,19.17,0,0,1,.45,4.52,20,20,0,0,1-.45,4.52,19.17,19.17,0,0,1,.45,4.52,20,20,0,0,1-.45,4.52,19.17,19.17,0,0,1,.45,4.52,20,20,0,0,1-.45,4.52,19.17,19.17,0,0,1,.45,4.52,20,20,0,0,1-.45,4.52,19.17,19.17,0,0,1,.45,4.52,20,20,0,0,1-.45,4.52h9A19.17,19.17,0,0,1,122.94,475Z"/><path class="cls-1" d="M168.14,475a20,20,0,0,1-.45,4.52H140.57a20,20,0,0,1-.45-4.52,19.17,19.17,0,0,1,.45-4.52h9a20,20,0,0,1-.45-4.52,19.17,19.17,0,0,1,.45-4.52,20,20,0,0,1-.45-4.52,19.17,19.17,0,0,1,.45-4.52,20,20,0,0,1-.45-4.52,19.17,19.17,0,0,1,.45-4.52,20,20,0,0,1-.45-4.52,19.17,19.17,0,0,1,.45-4.52,20,20,0,0,1-.45-4.52,19.17,19.17,0,0,1,.45-4.52h-6.78a20,20,0,0,1-.45-4.52,19.17,19.17,0,0,1,.45-4.52h15.82a19.17,19.17,0,0,1,.45,4.52,20,20,0,0,1-.45,4.52,19.17,19.17,0,0,1,.45,4.52,20,20,0,0,1-.45,4.52,19.17,19.17,0,0,1,.45,4.52,20,20,0,0,1-.45,4.52,19.17,19.17,0,0,1,.45,4.52,20,20,0,0,1-.45,4.52,19.17,19.17,0,0,1,.45,4.52,20,20,0,0,1-.45,4.52,19.17,19.17,0,0,1,.45,4.52,20,20,0,0,1-.45,4.52h9A19.17,19.17,0,0,1,168.14,475Z"/><path class="cls-1" d="M190.74,466a20,20,0,0,1-.45,4.52h-4.52a19.17,19.17,0,0,1,.45,4.52,20,20,0,0,1-.45,4.52h-4.52a20,20,0,0,1-.45-4.52,19.17,19.17,0,0,1,.45-4.52,20,20,0,0,1-.45-4.52,19.17,19.17,0,0,1,.45-4.52,20,20,0,0,1-.45-4.52,19.17,19.17,0,0,1,.45-4.52,20,20,0,0,1-.45-4.52,19.17,19.17,0,0,1,.45-4.52,20,20,0,0,1-.45-4.52,19.17,19.17,0,0,1,.45-4.52,20,20,0,0,1-.45-4.52,19.17,19.17,0,0,1,.45-4.52,20,20,0,0,1-.45-4.52,19.17,19.17,0,0,1,.45-4.52h9a19.17,19.17,0,0,1,.45,4.52,20,20,0,0,1-.45,4.52,19.17,19.17,0,0,1,.45,4.52,20,20,0,0,1-.45,4.52,19.17,19.17,0,0,1,.45,4.52,20,20,0,0,1-.45,4.52h4.52a19.17,19.17,0,0,1,.45,4.52,20,20,0,0,1-.45,4.52h-4.52a19.17,19.17,0,0,1,.45,4.52,20,20,0,0,1-.45,4.52A19.17,19.17,0,0,1,190.74,466Zm-.45,4.52h13.56a19.17,19.17,0,0,1,.45,4.52,20,20,0,0,1-.45,4.52H190.29a20,20,0,0,1-.45-4.52A19.17,19.17,0,0,1,190.29,470.51Zm27.12-9h-4.52a19.17,19.17,0,0,1,.45,4.52,20,20,0,0,1-.45,4.52h-9a20,20,0,0,1-.45-4.52,19.17,19.17,0,0,1,.45-4.52h4.52a20,20,0,0,1-.45-4.52,19.17,19.17,0,0,1,.45-4.52h-4.52a20,20,0,0,1-.45-4.52,19.17,19.17,0,0,1,.45-4.52h-9a20,20,0,0,1-.45-4.52,19.17,19.17,0,0,1,.45-4.52h13.56a19.17,19.17,0,0,1,.45,4.52,20,20,0,0,1-.45,4.52h4.52a19.17,19.17,0,0,1,.45,4.52,20,20,0,0,1-.45,4.52h4.52a19.17,19.17,0,0,1,.45,4.52A20,20,0,0,1,217.41,461.47Z"/><path class="cls-1" d="M263.06,475a20,20,0,0,1-.45,4.52h-9a20,20,0,0,1-.45-4.52,19.17,19.17,0,0,1,.45-4.52h-4.52a20,20,0,0,1-.45-4.52,19.17,19.17,0,0,1,.45-4.52H235.49a19.17,19.17,0,0,1,.45,4.52,20,20,0,0,1-.45,4.52h13.56a19.17,19.17,0,0,1,.45,4.52,20,20,0,0,1-.45,4.52H231a20,20,0,0,1-.45-4.52,19.17,19.17,0,0,1,.45-4.52h-4.52A20,20,0,0,1,226,466a19.17,19.17,0,0,1,.45-4.52H231a20,20,0,0,1-.45-4.52,19.17,19.17,0,0,1,.45-4.52h18.08a20,20,0,0,1-.45-4.52,19.17,19.17,0,0,1,.45-4.52H233.23a20,20,0,0,1-.45-4.52,19.17,19.17,0,0,1,.45-4.52h20.34a19.17,19.17,0,0,1,.45,4.52,20,20,0,0,1-.45,4.52h4.52a19.17,19.17,0,0,1,.45,4.52,20,20,0,0,1-.45,4.52,19.17,19.17,0,0,1,.45,4.52,20,20,0,0,1-.45,4.52,19.17,19.17,0,0,1,.45,4.52,20,20,0,0,1-.45,4.52h4.52A19.17,19.17,0,0,1,263.06,475Z"/><path class="cls-1" d="M308.26,475a20,20,0,0,1-.45,4.52H292a20,20,0,0,1-.45-4.52,19.17,19.17,0,0,1,.45-4.52h-4.52A20,20,0,0,1,287,466a19.17,19.17,0,0,1,.45-4.52h-6.78a19.17,19.17,0,0,1,.45,4.52,20,20,0,0,1-.45,4.52,19.17,19.17,0,0,1,.45,4.52,20,20,0,0,1-.45,4.52h-9a20,20,0,0,1-.45-4.52,19.17,19.17,0,0,1,.45-4.52,20,20,0,0,1-.45-4.52,19.17,19.17,0,0,1,.45-4.52,20,20,0,0,1-.45-4.52,19.17,19.17,0,0,1,.45-4.52,20,20,0,0,1-.45-4.52,19.17,19.17,0,0,1,.45-4.52,20,20,0,0,1-.45-4.52,19.17,19.17,0,0,1,.45-4.52,20,20,0,0,1-.45-4.52,19.17,19.17,0,0,1,.45-4.52,20,20,0,0,1-.45-4.52,19.17,19.17,0,0,1,.45-4.52h9a19.17,19.17,0,0,1,.45,4.52,20,20,0,0,1-.45,4.52,19.17,19.17,0,0,1,.45,4.52,20,20,0,0,1-.45,4.52,19.17,19.17,0,0,1,.45,4.52,20,20,0,0,1-.45,4.52,19.17,19.17,0,0,1,.45,4.52,20,20,0,0,1-.45,4.52h6.78a20,20,0,0,1-.45-4.52,19.17,19.17,0,0,1,.45-4.52H292a20,20,0,0,1-.45-4.52,19.17,19.17,0,0,1,.45-4.52h13.56a19.17,19.17,0,0,1,.45,4.52,20,20,0,0,1-.45,4.52h-9a19.17,19.17,0,0,1,.45,4.52,20,20,0,0,1-.45,4.52H292a19.17,19.17,0,0,1,.45,4.52,20,20,0,0,1-.45,4.52h4.52A19.17,19.17,0,0,1,297,466a20,20,0,0,1-.45,4.52h11.3A19.17,19.17,0,0,1,308.26,475Z"/><path class="cls-1" d="M353.46,475a20,20,0,0,1-.45,4.52h-9a20,20,0,0,1-.45-4.52,19.17,19.17,0,0,1,.45-4.52h-4.52A20,20,0,0,1,339,466a19.17,19.17,0,0,1,.45-4.52H325.89a19.17,19.17,0,0,1,.45,4.52,20,20,0,0,1-.45,4.52h13.56a19.17,19.17,0,0,1,.45,4.52,20,20,0,0,1-.45,4.52H321.37a20,20,0,0,1-.45-4.52,19.17,19.17,0,0,1,.45-4.52h-4.52a19.4,19.4,0,0,1-.45-4.52,18.66,18.66,0,0,1,.45-4.52h4.52a20,20,0,0,1-.45-4.52,19.17,19.17,0,0,1,.45-4.52h18.08a20,20,0,0,1-.45-4.52,19.17,19.17,0,0,1,.45-4.52H323.63a19.91,19.91,0,0,1-.46-4.52,19.12,19.12,0,0,1,.46-4.52H344a19.17,19.17,0,0,1,.45,4.52,20,20,0,0,1-.45,4.52h4.52a19.17,19.17,0,0,1,.45,4.52,20,20,0,0,1-.45,4.52,19.17,19.17,0,0,1,.45,4.52,20,20,0,0,1-.45,4.52,19.17,19.17,0,0,1,.45,4.52,20,20,0,0,1-.45,4.52H353A19.17,19.17,0,0,1,353.46,475Z"/></g></svg>