<svg xmlns="http://www.w3.org/2000/svg" viewBox="0 0 292.4 479.55"><defs><style>.cls-1{fill:#929292;}</style></defs><title>Rityta 2</title><g id="Lager_2" data-name="Lager 2"><rect class="cls-1" x="16.8" y="201.7" width="16.81" height="16.81"/><polygon class="cls-1" points="50.42 151.28 50.42 168.09 16.8 168.09 16.8 201.7 0 201.7 0 151.28 50.42 151.28"/><rect class="cls-1" x="252.12" y="134.47" width="16.81" height="16.81"/><rect class="cls-1" x="268.93" y="151.28" width="16.81" height="117.66"/><polygon class="cls-1" points="218.51 100.85 218.51 117.66 184.89 117.66 184.89 168.09 168.08 168.09 168.08 100.85 218.51 100.85"/><polygon class="cls-1" points="252.12 117.66 252.12 134.47 235.31 134.47 235.31 184.9 218.51 184.9 218.51 117.66 252.12 117.66"/><polygon class="cls-1" points="168.08 84.04 168.08 100.85 134.46 100.85 134.46 168.09 117.66 168.09 117.66 16.81 134.46 16.81 134.46 84.04 168.08 84.04"/><rect class="cls-1" x="84.04" width="33.62" height="16.81"/><polygon class="cls-1" points="84.04 16.81 84.04 235.32 67.23 235.32 67.23 184.9 50.42 184.9 50.42 168.09 67.23 168.09 67.23 16.81 84.04 16.81"/><rect class="cls-1" x="67.23" y="285.75" width="16.81" height="33.61"/><polygon class="cls-1" points="252.12 319.36 252.12 369.79 84.04 369.79 84.04 319.36 100.85 319.36 100.85 352.98 235.31 352.98 235.31 319.36 252.12 319.36"/><rect class="cls-1" x="50.42" y="252.13" width="16.81" height="33.62"/><rect class="cls-1" x="252.12" y="268.94" width="16.81" height="50.42"/><rect class="cls-1" x="33.61" y="218.51" width="16.81" height="33.62"/><path class="cls-1" d="M66,443.39H62.56a19.17,19.17,0,0,1,.45,4.52,20,20,0,0,1-.45,4.52H59.17a19.17,19.17,0,0,1,.45,4.52,20,20,0,0,1-.45,4.52H56.91a19.17,19.17,0,0,1,.45,4.52,20,20,0,0,1-.45,4.52H52.39a19.17,19.17,0,0,1,.45,4.52,20,20,0,0,1-.45,4.52h-9A20,20,0,0,1,42.9,475a19.17,19.17,0,0,1,.45-4.52H38.83a20,20,0,0,1-.45-4.52,19.17,19.17,0,0,1,.45-4.52H36.57a20,20,0,0,1-.45-4.52,19.17,19.17,0,0,1,.45-4.52H33.18a20,20,0,0,1-.45-4.52,19.17,19.17,0,0,1,.45-4.52H29.79a20,20,0,0,1-.45-4.52,19.17,19.17,0,0,1,.45-4.52h9a19.17,19.17,0,0,1,.45,4.52,20,20,0,0,1-.45,4.52h3.39a19.17,19.17,0,0,1,.45,4.52,20,20,0,0,1-.45,4.52h3.39a19.17,19.17,0,0,1,.45,4.52,20,20,0,0,1-.45,4.52h4.52a20,20,0,0,1-.45-4.52,19.17,19.17,0,0,1,.45-4.52h3.39a20,20,0,0,1-.45-4.52,19.17,19.17,0,0,1,.45-4.52h3.39a20,20,0,0,1-.45-4.52,19.17,19.17,0,0,1,.45-4.52h9a19.17,19.17,0,0,1,.45,4.52A20,20,0,0,1,66,443.39Z"/><path class="cls-1" d="M107.08,475a20,20,0,0,1-.45,4.52H79.51a20,20,0,0,1-.45-4.52,19.17,19.17,0,0,1,.45-4.52h9A20,20,0,0,1,88.1,466a19.17,19.17,0,0,1,.45-4.52A20,20,0,0,1,88.1,457a19.17,19.17,0,0,1,.45-4.52,20,20,0,0,1-.45-4.52,19.17,19.17,0,0,1,.45-4.52H81.77a20,20,0,0,1-.45-4.52,19.17,19.17,0,0,1,.45-4.52H97.59a19.17,19.17,0,0,1,.45,4.52,20,20,0,0,1-.45,4.52,19.17,19.17,0,0,1,.45,4.52,20,20,0,0,1-.45,4.52A19.17,19.17,0,0,1,98,457a20,20,0,0,1-.45,4.52A19.17,19.17,0,0,1,98,466a20,20,0,0,1-.45,4.52h9A19.17,19.17,0,0,1,107.08,475ZM88.55,425.31a20,20,0,0,1-.45-4.52,19.17,19.17,0,0,1,.45-4.52h9a19.17,19.17,0,0,1,.45,4.52,20,20,0,0,1-.45,4.52Z"/><path class="cls-1" d="M141.66,443.39h-11.3a19.17,19.17,0,0,1,.45,4.52,20,20,0,0,1-.45,4.52H127a19.17,19.17,0,0,1,.45,4.52,20,20,0,0,1-.45,4.52h3.39a19.17,19.17,0,0,1,.45,4.52,20,20,0,0,1-.45,4.52h11.3a19.17,19.17,0,0,1,.45,4.52,20,20,0,0,1-.45,4.52H129.23a20,20,0,0,1-.45-4.52,19.17,19.17,0,0,1,.45-4.52h-5.65a20,20,0,0,1-.45-4.52,19.17,19.17,0,0,1,.45-4.52h-3.39a20,20,0,0,1-.45-4.52,19.17,19.17,0,0,1,.45-4.52h3.39a20,20,0,0,1-.45-4.52,19.17,19.17,0,0,1,.45-4.52h5.65a20,20,0,0,1-.45-4.52,19.17,19.17,0,0,1,.45-4.52h12.43a19.17,19.17,0,0,1,.45,4.52A20,20,0,0,1,141.66,443.39Zm15.14-13.56a20,20,0,0,1-.45,4.52,19.17,19.17,0,0,1,.45,4.52,20,20,0,0,1-.45,4.52,19.17,19.17,0,0,1,.45,4.52,20,20,0,0,1-.45,4.52,19.17,19.17,0,0,1,.45,4.52,20,20,0,0,1-.45,4.52,19.17,19.17,0,0,1,.45,4.52,20,20,0,0,1-.45,4.52,19.17,19.17,0,0,1,.45,4.52,20,20,0,0,1-.45,4.52h-9a20,20,0,0,1-.45-4.52,19.17,19.17,0,0,1,.45-4.52h-3.39a20,20,0,0,1-.45-4.52,19.17,19.17,0,0,1,.45-4.52h3.39a20,20,0,0,1-.45-4.52,19.17,19.17,0,0,1,.45-4.52h-3.39a20,20,0,0,1-.45-4.52,19.17,19.17,0,0,1,.45-4.52h3.39a20,20,0,0,1-.45-4.52,19.17,19.17,0,0,1,.45-4.52,20,20,0,0,1-.45-4.52,19.17,19.17,0,0,1,.45-4.52,20,20,0,0,1-.45-4.52,19.17,19.17,0,0,1,.45-4.52h9a19.17,19.17,0,0,1,.45,4.52,20,20,0,0,1-.45,4.52A19.17,19.17,0,0,1,156.8,429.83Z"/><path class="cls-1" d="M202,475a20,20,0,0,1-.45,4.52h-9a20,20,0,0,1-.45-4.52,19.17,19.17,0,0,1,.45-4.52H188a20,20,0,0,1-.45-4.52,19.17,19.17,0,0,1,.45-4.52H174.43a19.17,19.17,0,0,1,.45,4.52,20,20,0,0,1-.45,4.52H188a19.17,19.17,0,0,1,.45,4.52,20,20,0,0,1-.45,4.52H169.91a20,20,0,0,1-.45-4.52,19.17,19.17,0,0,1,.45-4.52h-4.52a20,20,0,0,1-.45-4.52,19.17,19.17,0,0,1,.45-4.52h4.52a20,20,0,0,1-.45-4.52,19.17,19.17,0,0,1,.45-4.52H188a20,20,0,0,1-.45-4.52,19.17,19.17,0,0,1,.45-4.52H172.17a20,20,0,0,1-.45-4.52,19.17,19.17,0,0,1,.45-4.52h20.34a19.17,19.17,0,0,1,.45,4.52,20,20,0,0,1-.45,4.52H197a19.17,19.17,0,0,1,.45,4.52,20,20,0,0,1-.45,4.52,19.17,19.17,0,0,1,.45,4.52,20,20,0,0,1-.45,4.52,19.17,19.17,0,0,1,.45,4.52,20,20,0,0,1-.45,4.52h4.52A19.17,19.17,0,0,1,202,475Z"/><path class="cls-1" d="M247.2,447.91a20,20,0,0,1-.45,4.52h-9a20,20,0,0,1-.45-4.52,19.17,19.17,0,0,1,.45-4.52H229.8a19.17,19.17,0,0,1,.45,4.52,20,20,0,0,1-.45,4.52h-3.39a19.17,19.17,0,0,1,.45,4.52,20,20,0,0,1-.45,4.52,19.17,19.17,0,0,1,.45,4.52,20,20,0,0,1-.45,4.52h6.78a19.17,19.17,0,0,1,.45,4.52,20,20,0,0,1-.45,4.52h-22.6a20,20,0,0,1-.45-4.52,19.17,19.17,0,0,1,.45-4.52h6.78a20,20,0,0,1-.45-4.52,19.17,19.17,0,0,1,.45-4.52,20,20,0,0,1-.45-4.52,19.17,19.17,0,0,1,.45-4.52,20,20,0,0,1-.45-4.52,19.17,19.17,0,0,1,.45-4.52h-6.78a20,20,0,0,1-.45-4.52,19.17,19.17,0,0,1,.45-4.52h11.3a19.17,19.17,0,0,1,.45,4.52,20,20,0,0,1-.45,4.52h4.52a20,20,0,0,1-.45-4.52,19.17,19.17,0,0,1,.45-4.52h17a19.17,19.17,0,0,1,.45,4.52,20,20,0,0,1-.45,4.52h3.39A19.17,19.17,0,0,1,247.2,447.91Z"/><path class="cls-1" d="M292,452.43a19.17,19.17,0,0,1,.45,4.52,20,20,0,0,1-.45,4.52H268.22a19.17,19.17,0,0,1,.45,4.52,20,20,0,0,1-.45,4.52h19.21a19.17,19.17,0,0,1,.45,4.52,20,20,0,0,1-.45,4.52h-22.6a20,20,0,0,1-.45-4.52,19.17,19.17,0,0,1,.45-4.52h-5.65a20,20,0,0,1-.45-4.52,19.17,19.17,0,0,1,.45-4.52h-3.39a20,20,0,0,1-.45-4.52,19.17,19.17,0,0,1,.45-4.52h3.39a20,20,0,0,1-.45-4.52,19.17,19.17,0,0,1,.45-4.52h5.65a20,20,0,0,1-.45-4.52,19.17,19.17,0,0,1,.45-4.52h22.6a19.17,19.17,0,0,1,.45,4.52,20,20,0,0,1-.45,4.52H292a19.17,19.17,0,0,1,.45,4.52A20,20,0,0,1,292,452.43Zm-9.49-4.52a19.17,19.17,0,0,1,.45-4.52H268.22a19.17,19.17,0,0,1,.45,4.52,20,20,0,0,1-.45,4.52h14.69A20,20,0,0,1,282.46,447.91Z"/></g></svg>