<?xml version="1.0" encoding="UTF-8"?>
<svg xmlns="http://www.w3.org/2000/svg" xmlns:xlink="http://www.w3.org/1999/xlink" viewBox="0 0 1920 1080">
  <defs>
    <style>
      .cls-1 {
        filter: url(#outer-glow-11);
      }

      .cls-1, .cls-2, .cls-3, .cls-4, .cls-5, .cls-6, .cls-7, .cls-8, .cls-9, .cls-10, .cls-11, .cls-12, .cls-13, .cls-14, .cls-15 {
        fill: #fff;
      }

      .cls-1, .cls-2, .cls-4, .cls-5, .cls-6, .cls-7, .cls-8, .cls-9, .cls-10, .cls-12, .cls-13, .cls-14, .cls-15 {
        stroke: #fff;
        stroke-miterlimit: 10;
      }

      .cls-16 {
        opacity: .9;
      }

      .cls-2 {
        filter: url(#outer-glow-14);
      }

      .cls-3 {
        filter: url(#outer-glow-1);
      }

      .cls-4 {
        filter: url(#outer-glow-15);
      }

      .cls-5 {
        filter: url(#outer-glow-7);
      }

      .cls-17 {
        fill: #23183a;
      }

      .cls-6 {
        filter: url(#outer-glow-3);
      }

      .cls-7 {
        filter: url(#outer-glow-8);
      }

      .cls-8 {
        filter: url(#outer-glow-6);
      }

      .cls-18 {
        fill: #190d2d;
      }

      .cls-9 {
        filter: url(#outer-glow-5);
      }

      .cls-10 {
        filter: url(#outer-glow-12);
      }

      .cls-11 {
        filter: url(#outer-glow-2);
      }

      .cls-12 {
        filter: url(#outer-glow-9);
      }

      .cls-13 {
        filter: url(#outer-glow-4);
      }

      .cls-14 {
        filter: url(#outer-glow-13);
      }

      .cls-19 {
        fill: url(#linear-gradient);
      }

      .cls-15 {
        filter: url(#outer-glow-10);
      }

      .cls-20 {
        opacity: .89;
      }
    </style>
    <linearGradient id="linear-gradient" x1="960" y1="1083.93" x2="960" y2="297.06" gradientUnits="userSpaceOnUse">
      <stop offset="0" stop-color="#523b72"/>
      <stop offset="1" stop-color="#000"/>
    </linearGradient>
    <filter id="outer-glow-1" filterUnits="userSpaceOnUse">
      <feOffset dx="0" dy="0"/>
      <feGaussianBlur result="blur" stdDeviation="26"/>
      <feFlood flood-color="#bcd9ed" flood-opacity="1"/>
      <feComposite in2="blur" operator="in"/>
      <feComposite in="SourceGraphic"/>
    </filter>
    <filter id="outer-glow-2" filterUnits="userSpaceOnUse">
      <feOffset dx="0" dy="0"/>
      <feGaussianBlur result="blur-2" stdDeviation="26"/>
      <feFlood flood-color="#bcd9ed" flood-opacity="1"/>
      <feComposite in2="blur-2" operator="in"/>
      <feComposite in="SourceGraphic"/>
    </filter>
    <filter id="outer-glow-3" filterUnits="userSpaceOnUse">
      <feOffset dx="0" dy="0"/>
      <feGaussianBlur result="blur-3" stdDeviation="26"/>
      <feFlood flood-color="#bcd9ed" flood-opacity="1"/>
      <feComposite in2="blur-3" operator="in"/>
      <feComposite in="SourceGraphic"/>
    </filter>
    <filter id="outer-glow-4" filterUnits="userSpaceOnUse">
      <feOffset dx="0" dy="0"/>
      <feGaussianBlur result="blur-4" stdDeviation="26"/>
      <feFlood flood-color="#bcd9ed" flood-opacity="1"/>
      <feComposite in2="blur-4" operator="in"/>
      <feComposite in="SourceGraphic"/>
    </filter>
    <filter id="outer-glow-5" filterUnits="userSpaceOnUse">
      <feOffset dx="0" dy="0"/>
      <feGaussianBlur result="blur-5" stdDeviation="26"/>
      <feFlood flood-color="#bcd9ed" flood-opacity="1"/>
      <feComposite in2="blur-5" operator="in"/>
      <feComposite in="SourceGraphic"/>
    </filter>
    <filter id="outer-glow-6" filterUnits="userSpaceOnUse">
      <feOffset dx="0" dy="0"/>
      <feGaussianBlur result="blur-6" stdDeviation="26"/>
      <feFlood flood-color="#bcd9ed" flood-opacity="1"/>
      <feComposite in2="blur-6" operator="in"/>
      <feComposite in="SourceGraphic"/>
    </filter>
    <filter id="outer-glow-7" filterUnits="userSpaceOnUse">
      <feOffset dx="0" dy="0"/>
      <feGaussianBlur result="blur-7" stdDeviation="26"/>
      <feFlood flood-color="#bcd9ed" flood-opacity="1"/>
      <feComposite in2="blur-7" operator="in"/>
      <feComposite in="SourceGraphic"/>
    </filter>
    <filter id="outer-glow-8" filterUnits="userSpaceOnUse">
      <feOffset dx="0" dy="0"/>
      <feGaussianBlur result="blur-8" stdDeviation="26"/>
      <feFlood flood-color="#bcd9ed" flood-opacity="1"/>
      <feComposite in2="blur-8" operator="in"/>
      <feComposite in="SourceGraphic"/>
    </filter>
    <filter id="outer-glow-9" filterUnits="userSpaceOnUse">
      <feOffset dx="0" dy="0"/>
      <feGaussianBlur result="blur-9" stdDeviation="26"/>
      <feFlood flood-color="#bcd9ed" flood-opacity="1"/>
      <feComposite in2="blur-9" operator="in"/>
      <feComposite in="SourceGraphic"/>
    </filter>
    <filter id="outer-glow-10" filterUnits="userSpaceOnUse">
      <feOffset dx="0" dy="0"/>
      <feGaussianBlur result="blur-10" stdDeviation="26"/>
      <feFlood flood-color="#bcd9ed" flood-opacity="1"/>
      <feComposite in2="blur-10" operator="in"/>
      <feComposite in="SourceGraphic"/>
    </filter>
    <filter id="outer-glow-11" filterUnits="userSpaceOnUse">
      <feOffset dx="0" dy="0"/>
      <feGaussianBlur result="blur-11" stdDeviation="26"/>
      <feFlood flood-color="#bcd9ed" flood-opacity="1"/>
      <feComposite in2="blur-11" operator="in"/>
      <feComposite in="SourceGraphic"/>
    </filter>
    <filter id="outer-glow-12" filterUnits="userSpaceOnUse">
      <feOffset dx="0" dy="0"/>
      <feGaussianBlur result="blur-12" stdDeviation="26"/>
      <feFlood flood-color="#bcd9ed" flood-opacity="1"/>
      <feComposite in2="blur-12" operator="in"/>
      <feComposite in="SourceGraphic"/>
    </filter>
    <filter id="outer-glow-13" filterUnits="userSpaceOnUse">
      <feOffset dx="0" dy="0"/>
      <feGaussianBlur result="blur-13" stdDeviation="26"/>
      <feFlood flood-color="#bcd9ed" flood-opacity="1"/>
      <feComposite in2="blur-13" operator="in"/>
      <feComposite in="SourceGraphic"/>
    </filter>
    <filter id="outer-glow-14" filterUnits="userSpaceOnUse">
      <feOffset dx="0" dy="0"/>
      <feGaussianBlur result="blur-14" stdDeviation="26"/>
      <feFlood flood-color="#bcd9ed" flood-opacity="1"/>
      <feComposite in2="blur-14" operator="in"/>
      <feComposite in="SourceGraphic"/>
    </filter>
    <filter id="outer-glow-15" filterUnits="userSpaceOnUse">
      <feOffset dx="0" dy="0"/>
      <feGaussianBlur result="blur-15" stdDeviation="26"/>
      <feFlood flood-color="#bcd9ed" flood-opacity="1"/>
      <feComposite in2="blur-15" operator="in"/>
      <feComposite in="SourceGraphic"/>
    </filter>
  </defs>
  <g id="Layer_1" data-name="Layer 1">
    <rect class="cls-19" width="1920" height="1080"/>
  </g>
  <g id="Layer_2" data-name="Layer 2">
    <polygon class="cls-3" points="58.72 255.01 76.5 284.3 41.53 269.94 16.57 291.61 20.56 261.33 0 252.88 0 245.89 23.17 241.6 28.06 204.5 47.81 237.03 88 229.59 58.72 255.01"/>
    <polygon class="cls-11" points="1920 713.01 1920 737.4 1909.37 746 1911.37 731.92 1895.26 725.75 1912.67 722.74 1915.11 705.5 1920 713.01"/>
    <polygon class="cls-6" points="1388.37 555 1392.17 525 1408.2 552.48 1379 540 1412 533.64 1388.37 555"/>
    <polygon class="cls-13" points="1403.57 322.49 1428.9 258.45 1447.35 324.67 1388.3 284.5 1472 284.5 1403.57 322.49"/>
    <polygon class="cls-9" points="1734.91 290.6 1747.53 249.97 1756.72 291.98 1727.3 266.5 1769 266.5 1734.91 290.6"/>
    <polygon class="cls-8" points="1527.91 768.93 1540.53 721 1549.72 770.56 1520.3 740.5 1562 740.5 1527.91 768.93"/>
    <polygon class="cls-5" points="1028.66 463.69 1052.47 399.32 1069.82 465.87 1014.3 425.5 1093 425.5 1028.66 463.69"/>
    <polygon class="cls-7" points="1767.41 499.12 1802.42 403.67 1827.93 502.36 1746.3 442.5 1862 442.5 1767.41 499.12"/>
    <polygon class="cls-12" points="144.79 813.51 175.92 784.48 171.78 826.42 144.23 788.2 196.81 810.56 144.79 813.51"/>
    <polygon class="cls-15" points="500.16 473 516.12 391.57 538.67 458.14 481.5 424.33 552 417.67 500.16 473"/>
    <polygon class="cls-1" points="110.34 495 129.01 424.57 155.4 482.15 88.5 452.9 171 447.14 110.34 495"/>
    <polygon class="cls-10" points="997.38 760 1014.81 691.57 1039.44 747.51 977 719.1 1054 713.5 997.38 760"/>
    <polygon class="cls-14" points="739.32 656 748.15 611.57 760.63 647.89 729 629.44 768 625.81 739.32 656"/>
    <polygon class="cls-2" points="439.65 684 449.61 642.57 463.68 676.44 428 659.24 472 655.85 439.65 684"/>
    <polygon class="cls-4" points="296.65 372 306.61 330.57 320.68 364.44 285 347.24 329 343.85 296.65 372"/>
    <path d="m0,930c38.51,17,50.87,10.98,67,13.37,45.88,6.8,43.74-9.68,98.54-6.37,1.12.07,20.56,6.54,34.01-1,19.67-11.03,45.57-12.55,96.03,3,51.59,15.9,59.02-2,86.42,7.36,11.41,3.9,29.75-2.68,57.61-5.36,15.75-1.52,36.49,15.14,50.01,0,13.72-15.37,45.33-39.72,50.32-22.13,7.7,27.13,29.76,10.22,41.71,28.13,10,15,71.7-.83,88.02-1,7.69-.08,16.76-.49,65.02-7,69.72-9.41,79.25-2.19,117.31-6.6,56.84-6.58,78.01.71,98.75,4.6,27.81,5.22,75.02,2,80.02,11,2.22,4,19,1,34.23-.64,42.61-4.59,36-5.98,36-5.98,35.46-9.44,39.78,6.46,62.8,4.62,20.03-1.6,35.83,4.6,52.01,1,17.8-3.96,23.09-3.5,32.18.36,31.92,13.55,85.09-31.63,123.86-41.36,46.93-11.78,49.42-28.4,101.03,6,12,8,78.02,2,103.03-19,15.62-13.12,39.08,19.17,55.01,21,74.51,52.44,70.13,18.05,94.02,29,33.52,15.36,53.05,16.21,83.05-3.62,13.94-9.21,16.12-1.59,38.98.62,31.01,3,36.77-.15,41.01-3,10.81-7.27,23.97-15.72,32.01-14v157H0v-150Z"/>
    <g class="cls-20">
      <path class="cls-18" d="m307.05,519.02c0,40.28-32.66,72.94-72.94,72.94-12.69,0-24.62-3.24-35.01-8.94-.43.58-.86,1.16-1.31,1.73-13.33,17.17-34.18,28.21-57.6,28.21-5.08,0-10.03-.52-14.81-1.5-12.58,10.31-28.66,16.49-46.19,16.49-20.06,0-38.22-8.09-51.41-21.21-8.53,3.78-17.91,5.96-27.78,6.17v-192.24c3.05-.39,6.15-.59,9.3-.59,6.75,0,13.28.92,19.48,2.64,9.43-29.35,36.96-50.59,69.45-50.59,21.1,0,40.11,8.96,53.42,23.29,13.27-13.74,31.88-22.29,52.49-22.29,23.88,0,45.08,11.47,58.37,29.2,9.16,12.19,14.58,27.33,14.58,43.74,0,4.49-.41,8.89-1.19,13.16,18.84,13.19,31.15,35.05,31.15,59.79Z"/>
    </g>
    <g class="cls-16">
      <path class="cls-17" d="m640.34,518.05c4.87,8.28,7.66,17.92,7.66,28.2,0,30.96-25.31,56.07-56.52,56.07-12.12,0-23.35-3.78-32.55-10.23-9.59,27.83-36,47.82-67.07,47.82-20.37,0-38.73-8.59-51.66-22.33-7.07,1.47-14.41,2.24-21.93,2.24-17.91,0-34.77-4.36-49.53-12.06-12.49,10.97-28.86,17.63-46.79,17.63-39.18,0-70.93-31.76-70.93-70.92,0-28.16,16.41-52.49,40.19-63.94-1.64-5.98-2.52-12.28-2.52-18.78,0-39.18,31.76-70.93,70.93-70.93,8.68,0,17.01,1.57,24.7,4.42,13.01-15.21,32.35-24.85,53.94-24.85,13.95,0,26.96,4.03,37.94,11,12.2-9.92,27.76-15.86,44.71-15.86,34.85,0,63.83,25.14,69.8,58.26.26,0,.53,0,.79,0,31.21,0,56.52,25.11,56.52,56.08,0,10.28-2.79,19.91-7.66,28.2Z"/>
    </g>
  </g>
</svg>