<svg id="mountain" data-name="Layer 2" xmlns="http://www.w3.org/2000/svg" viewBox="0 0 1108 857">
  <polygon class="cls-4" points="773.06 856.75 .43 856.75 .43 447.14 111.07 260.35 112.85 258.24 218.47 182.08 266.81 263.75 323.67 167.7 380.31 195.43 382.19 196.87 564.9 505.33 773.06 856.75"/>
  <polygon class="cls-3" points="1108.43 856.75 293.43 856.75 374.39 751.95 564.9 505.33 700.93 329.25 1108.43 856.75"/>
  <polygon class="cls-2" points="454.43 856.75 .43 856.75 .43 706.18 169.93 484.25 374.39 751.95 454.43 856.75"/>
  <polygon class="cls-1" points="382.19 196.87 380.31 195.43 323.67 167.7 266.81 263.75 218.47 182.08 112.85 258.24 111.07 260.35 265.43 -.25 382.19 196.87"/>
</svg>