<svg id="Lager_1" data-name="Lager 1" xmlns="http://www.w3.org/2000/svg" viewBox="0 0 739.87 595.28"><defs><style>.cls-1{fill:#b1b0b0;}.cls-2{fill:#1d1d1b;}.cls-3{fill:#fff;}.cls-4{fill:#979797;}.cls-5{fill:#7e7f80;}.cls-6{fill:#568830;}.cls-7{fill:#000100;}</style></defs><title>Dator</title><polygon class="cls-1" points="24.62 390.53 24.62 8.21 553.34 8.21 553.34 24.62 569.67 24.62 569.67 390.53 24.62 390.53"></polygon><path class="cls-2" d="M545.14,16.41V32.82h16.33V382.33H32.82V16.41H545.14M561.55,0H16.41V398.74H577.88V16.41H561.55V0Z"></path><rect class="cls-1" x="25.81" y="25.8" width="526.27" height="363.54"></rect><path class="cls-1" d="M542.68,35.2V380H35.2V35.2H542.68m18.79-18.79H16.41V398.74H561.47V16.41Z"></path><rect class="cls-3" x="45.02" y="46.24" width="487.83" height="287.39"></rect><path class="cls-2" d="M524.64,54.45v271H53.22v-271H524.64M541.06,38H36.81V341.84H541.06V38Z"></path><rect class="cls-4" x="16.41" y="380.6" width="545.05" height="18.14"></rect><rect class="cls-2" x="35.42" y="361.39" width="19.21" height="19.21"></rect><polygon class="cls-2" points="577.47 541.12 577.47 577.22 559.41 577.22 559.41 595.28 18.05 595.28 18.05 577.22 523.31 577.22 523.31 559.17 18.05 559.17 18.05 577.22 0 577.22 0 541.12 18.05 541.12 18.05 523.06 36.11 523.06 36.11 541.12 541.36 541.12 541.36 523.06 559.41 523.06 559.41 541.12 577.47 541.12"></polygon><rect class="cls-2" x="72.21" y="468.98" width="18.05" height="18.05"></rect><rect class="cls-2" x="36.11" y="505.09" width="18.05" height="17.97"></rect><rect class="cls-2" x="54.16" y="487.04" width="18.05" height="18.05"></rect><rect class="cls-2" x="108.24" y="487.04" width="18.05" height="18.05"></rect><rect class="cls-2" x="90.27" y="505.09" width="17.97" height="17.97"></rect><polygon class="cls-1" points="487.2 468.98 487.2 487.04 108.24 487.04 108.24 505.09 90.27 505.09 90.27 523.06 72.21 523.06 72.21 541.12 36.11 541.12 36.11 523.06 54.16 523.06 54.16 505.09 72.21 505.09 72.21 487.04 90.27 487.04 90.27 468.98 487.2 468.98"></polygon><polygon class="cls-4" points="541.36 523.06 541.36 541.12 72.21 541.12 72.21 523.06 108.24 523.06 108.24 505.09 126.29 505.09 126.29 487.04 162.4 487.04 162.4 505.09 144.35 505.09 144.35 523.06 162.4 523.06 162.4 505.09 180.45 505.09 180.45 487.04 216.56 487.04 216.56 505.09 198.51 505.09 198.51 523.06 216.56 523.06 216.56 505.09 234.61 505.09 234.61 487.04 270.72 487.04 270.72 505.09 252.67 505.09 252.67 523.06 270.72 523.06 270.72 505.09 306.75 505.09 306.75 523.06 324.8 523.06 324.8 505.09 306.75 505.09 306.75 487.04 342.85 487.04 342.85 505.09 360.91 505.09 360.91 523.06 378.96 523.06 378.96 505.09 360.91 505.09 360.91 487.04 397.01 487.04 397.01 505.09 415.07 505.09 415.07 523.06 433.12 523.06 433.12 505.09 415.07 505.09 415.07 487.04 451.18 487.04 451.18 505.09 469.23 505.09 469.23 523.06 487.2 523.06 487.2 505.09 469.23 505.09 469.23 487.04 505.25 487.04 505.25 505.09 523.31 505.09 523.31 523.06 541.36 523.06"></polygon><rect class="cls-2" x="162.4" y="487.04" width="18.05" height="18.05"></rect><rect class="cls-2" x="144.35" y="505.09" width="18.05" height="17.97"></rect><rect class="cls-2" x="216.56" y="487.04" width="18.05" height="18.05"></rect><rect class="cls-2" x="198.51" y="505.09" width="18.05" height="17.97"></rect><rect class="cls-2" x="270.72" y="487.04" width="36.02" height="18.05"></rect><rect class="cls-2" x="306.75" y="505.09" width="18.05" height="17.97"></rect><rect class="cls-2" x="342.85" y="487.04" width="18.05" height="18.05"></rect><rect class="cls-2" x="360.91" y="505.09" width="18.05" height="17.97"></rect><rect class="cls-2" x="397.01" y="487.04" width="18.05" height="18.05"></rect><rect class="cls-2" x="415.07" y="505.09" width="18.05" height="17.97"></rect><rect class="cls-2" x="451.18" y="487.04" width="18.05" height="18.05"></rect><rect class="cls-2" x="469.23" y="505.09" width="17.97" height="17.97"></rect><rect class="cls-2" x="252.67" y="505.09" width="18.05" height="17.97"></rect><rect class="cls-4" x="234.61" y="433.2" width="108.24" height="17.73"></rect><rect class="cls-4" x="234.61" y="432.88" width="18.05" height="0.33"></rect><rect class="cls-4" x="252.67" y="432.88" width="18.05" height="0.33"></rect><rect class="cls-4" x="270.72" y="432.88" width="17.97" height="0.33"></rect><rect class="cls-4" x="288.69" y="432.88" width="18.05" height="0.33"></rect><rect class="cls-4" x="306.75" y="432.88" width="18.05" height="0.33"></rect><rect class="cls-4" x="324.8" y="432.88" width="18.05" height="0.33"></rect><rect class="cls-5" x="234.61" y="432.88" width="18.05" height="0.33"></rect><rect class="cls-5" x="252.67" y="432.88" width="18.05" height="0.33"></rect><rect class="cls-5" x="270.72" y="432.88" width="17.97" height="0.33"></rect><rect class="cls-5" x="288.69" y="432.88" width="18.05" height="0.33"></rect><rect class="cls-5" x="306.75" y="432.88" width="18.05" height="0.33"></rect><rect class="cls-5" x="234.61" y="415.15" width="108.24" height="17.73"></rect><rect class="cls-5" x="324.8" y="432.88" width="18.05" height="0.33"></rect><path class="cls-2" d="M360.91,415.15H561.47V398.74H16.41V16.41H0V398.74H16.33v16.41H216.56v35.78H90.27V469H487.2V450.93H360.91Zm-18.06,35.78H234.61V415.15H342.85Z"></path><rect class="cls-5" x="18.05" y="559.17" width="505.25" height="18.05"></rect><rect class="cls-2" x="523.31" y="505.09" width="18.05" height="17.97"></rect><polygon class="cls-2" points="559.41 468.98 559.41 487.04 523.31 487.04 523.31 505.09 505.25 505.09 505.25 487.04 487.2 487.04 487.2 468.98 559.41 468.98"></polygon><rect class="cls-2" x="559.41" y="487.04" width="54.16" height="18.05"></rect><rect class="cls-2" x="613.58" y="505.09" width="18.05" height="54.08"></rect><polygon class="cls-2" points="703.76 487.04 703.76 505.09 667.65 505.09 667.65 523.06 649.68 523.06 649.68 505.09 631.63 505.09 631.63 487.04 703.76 487.04"></polygon><polygon class="cls-1" points="685.71 541.12 685.71 559.17 631.63 559.17 631.63 505.09 649.68 505.09 649.68 523.06 667.65 523.06 667.65 541.12 685.71 541.12"></polygon><polygon class="cls-1" points="703.76 505.09 703.76 541.12 685.71 541.12 685.71 523.06 667.65 523.06 667.65 505.09 703.76 505.09"></polygon><polygon class="cls-4" points="721.82 523.06 721.82 577.22 649.68 577.22 649.68 559.17 685.71 559.17 685.71 541.12 703.76 541.12 703.76 523.06 721.82 523.06"></polygon><rect class="cls-2" x="667.65" y="523.06" width="18.05" height="18.05"></rect><rect class="cls-2" x="703.76" y="505.09" width="18.05" height="17.97"></rect><rect class="cls-2" x="721.81" y="523.06" width="18.05" height="54.16"></rect><rect class="cls-2" x="649.68" y="577.22" width="72.13" height="18.05"></rect><rect class="cls-2" x="631.63" y="559.17" width="18.05" height="18.05"></rect><rect class="cls-2" x="125.51" y="361.39" width="19.21" height="19.21"></rect><rect class="cls-2" x="71.56" y="361.39" width="37.19" height="19.21"></rect><rect class="cls-6" x="503.6" y="361.39" width="37.19" height="19.21"></rect></svg>