<svg xmlns="http://www.w3.org/2000/svg" data-name="Layer 1" viewBox="0 0 128 128"><path fill="#80c7ea" d="M103.66 103.81H6.35L37 53.65l18-29.46 18 29.46 2.01 3.29.16.26.9 1.47 27.59 45.14z"/><path fill="#80c7ea" d="M103.66 103.81H46.49l22.02-36.04 6.56-10.73.1.16.9 1.47 27.59 45.14z"/><path fill="#69a3bf" d="M103.66 103.81H46.37l.12-.19 22.02-36.04 6.5-10.64.16.26.9 1.47 27.59 45.14z"/><path fill="#eeeeec" d="m72.998 53.65-4.82 7.89-6.591-10.78-6.589 10.78-6.591-10.78-6.59 10.78-4.819-7.89 18-29.46 18 29.46z"/><path fill="#80c7ea" d="M121.653 103.81H51.374L73.51 67.584l13-21.276 13 21.276 22.143 36.226z"/><path fill="#eeeeec" d="m99.51 67.584-3.481 5.698-4.76-7.785-4.759 7.785-4.76-7.785-4.759 7.785-3.481-5.698 13-21.276 13 21.276z"/><path fill="#142830" d="M19.918 81.605a1.749 1.749 0 0 0 2.406-.581L37 57.008l3.326 5.444a1.748 1.748 0 0 0 1.493.838 1.751 1.751 0 0 0 1.493-.837l5.1-8.337 5.1 8.337a1.75 1.75 0 0 0 2.986 0l5.1-8.337 5.1 8.337a1.75 1.75 0 0 0 2.986 0L73 57l2.46 4.026-3.42 5.6-7.3 11.952a1.732 1.732 0 0 0 1 2.59l.06.015a1.733 1.733 0 0 0 .413.056h.024a1.747 1.747 0 0 0 .824-.21l.03-.017a1.734 1.734 0 0 0 .328-.239l.022-.02a1.737 1.737 0 0 0 .287-.346l5.786-9.474 1.986 3.261a1.748 1.748 0 0 0 1.493.838 1.751 1.751 0 0 0 1.493-.837l3.266-5.343 3.266 5.343a1.75 1.75 0 0 0 2.986 0l3.266-5.343 3.266 5.343a1.75 1.75 0 0 0 2.986 0l1.989-3.256 5.5 9A1.75 1.75 0 0 0 108 78.116L94.583 56.165 88 45.4a1.75 1.75 0 0 0-2.986 0L81.5 51.145l-3.992 6.531-21.018-34.4A1.75 1.75 0 0 0 55 22.44a1.75 1.75 0 0 0-1.494.837l-18 29.46v.011L19.337 79.2a1.75 1.75 0 0 0 .581 2.405zm77.541-14.021-1.431 2.342-3.266-5.342a1.75 1.75 0 0 0-2.986 0l-3.266 5.343-3.266-5.343a1.75 1.75 0 0 0-2.986 0l-3.266 5.342-1.431-2.342 9.71-15.893 1.238-2.026 5.791 9.479zm-29.282-9.4-5.1-8.337a1.75 1.75 0 0 0-2.986 0L55 58.185l-5.1-8.337a1.75 1.75 0 0 0-2.986 0l-5.1 8.337-2.769-4.533L55 27.548l15.948 26.1zM64.57 82.22a1.751 1.751 0 0 0-2.407.578l-.873 1.424a1.75 1.75 0 1 0 2.984 1.829l.873-1.424a1.751 1.751 0 0 0-.577-2.407z"/><path fill="#142830" d="m123.143 102.9-11.735-19.2a1.75 1.75 0 1 0-2.986 1.825l10.108 16.541H54.491l7.052-11.538a1.75 1.75 0 0 0-2.225-2.5c-.042.019-.079.047-.119.069a1.725 1.725 0 0 0-.17.1 1.746 1.746 0 0 0-.476.511l-8.164 13.352H9.47l8.964-14.67a1.75 1.75 0 1 0-2.986-1.825L4.857 102.9a1.75 1.75 0 0 0 1.493 2.66h115.3a1.75 1.75 0 0 0 1.493-2.663Z"/></svg>