<svg id="Lager_1" data-name="Lager 1" xmlns="http://www.w3.org/2000/svg" viewBox="0 0 560.25 595.28"><defs><style>.cls-1{fill:#fff;}.cls-2{fill:#4e8282;}.cls-3{fill:#78c7c7;}</style></defs><title>Blå stjärna</title><rect x="35.01" y="490.23" width="35.01" height="70.02"/><rect class="cls-1" x="70.02" y="490.23" width="35.03" height="68.9"/><rect class="cls-2" x="105.05" y="525.24" width="35.01" height="35.01"/><rect x="140.06" y="525.24" width="35.02" height="35.02"/><rect x="385.18" y="525.24" width="35.01" height="35.01"/><rect class="cls-1" x="70.02" y="489.09" width="35.03" height="1.14"/><rect class="cls-3" x="105.05" y="490.23" width="35.01" height="35.01"/><rect class="cls-2" x="140.06" y="490.23" width="35.01" height="35.01"/><rect x="175.07" y="490.23" width="70.04" height="35.01"/><rect x="315.14" y="490.23" width="70.04" height="35.01"/><rect class="cls-2" x="385.18" y="490.23" width="35.01" height="35.01"/><rect class="cls-3" x="420.19" y="490.23" width="35.01" height="35.01"/><polygon class="cls-2" points="490.23 490.23 490.23 560.25 420.19 560.25 420.19 525.24 455.2 525.24 455.2 490.23 490.23 490.23"/><rect x="490.23" y="490.23" width="35.01" height="70.02"/><rect x="70.02" y="385.18" width="35.03" height="103.91"/><rect x="70.02" y="489.09" width="35.03" height="1.14"/><rect class="cls-1" x="105.05" y="385.18" width="35.01" height="103.91"/><rect class="cls-2" x="175.07" y="455.2" width="70.04" height="35.03"/><rect x="245.11" y="455.2" width="70.04" height="35.03"/><rect class="cls-2" x="315.14" y="455.2" width="70.04" height="35.03"/><path class="cls-3" d="M385.18,210.1v-35h-35v-70h-35V70h-35v35h-35v70h-35v35h-35v35h-70v35h35v35h35v70h-35V490.23h35v-35h70v-35h70v35h70v35h35v-105h-35v-70h35v-35h35v-35h35v-35Zm-105,35h-35v70h-35v-70h35v-35h35Z"/><rect class="cls-2" x="245.11" y="420.19" width="70.04" height="35.01"/><rect class="cls-1" x="105.05" y="384.04" width="35.01" height="1.14"/><rect class="cls-2" x="420.19" y="385.18" width="35.01" height="105.05"/><rect x="455.2" y="385.18" width="35.03" height="105.05"/><rect x="105.05" y="315.14" width="35.01" height="68.9"/><rect x="105.05" y="384.04" width="35.01" height="1.14"/><rect class="cls-1" x="140.06" y="315.14" width="35.01" height="70.04"/><rect class="cls-2" x="385.18" y="315.14" width="35.01" height="70.04"/><rect x="420.19" y="315.14" width="35.01" height="70.04"/><rect x="70.02" y="560.25" width="70.04" height="35.03"/><rect x="420.19" y="560.25" width="70.04" height="35.03"/><rect x="35.01" y="245.11" width="35.01" height="35.03"/><polygon class="cls-1" points="175.07 210.1 175.07 245.11 105.05 245.11 105.05 280.13 70.02 280.13 70.02 245.11 35.01 245.11 35.01 210.1 175.07 210.1"/><rect class="cls-2" x="455.2" y="245.11" width="35.03" height="35.03"/><rect x="490.22" y="245.11" width="35.02" height="35.02"/><polygon points="175.07 175.07 175.07 210.1 35.01 210.1 35.01 245.11 0 245.11 0 175.07 175.07 175.07"/><rect class="cls-1" x="245.11" y="210.1" width="35.03" height="35.01"/><rect class="cls-2" x="490.23" y="210.1" width="35.01" height="35.01"/><polygon points="560.25 175.07 560.25 245.11 525.24 245.11 525.24 210.1 385.18 210.1 385.18 175.07 560.25 175.07"/><rect class="cls-1" x="175.07" y="175.07" width="35.03" height="35.03"/><rect class="cls-1" x="210.1" y="105.05" width="35.01" height="70.02"/><rect x="350.15" y="105.05" width="35.03" height="70.02"/><rect x="175.07" y="105.05" width="35.03" height="70.02"/><polygon class="cls-1" points="315.14 35.01 315.14 70.02 280.13 70.02 280.13 105.05 245.11 105.05 245.11 35.01 315.14 35.01"/><rect x="315.14" y="35.01" width="35.01" height="70.04"/><rect x="210.1" y="35.01" width="35.01" height="70.04"/><rect x="245.11" width="70.04" height="35.01"/><rect x="70.02" y="280.13" width="35.03" height="35.01"/><rect class="cls-1" x="105.05" y="280.13" width="35.01" height="35.01"/><rect class="cls-1" x="210.1" y="245.11" width="35.01" height="70.04"/><rect class="cls-2" x="420.19" y="280.13" width="35.01" height="35.01"/><rect x="455.21" y="280.13" width="35.02" height="35.02"/></svg>