<svg id="Lager_1" data-name="Lager 1" xmlns="http://www.w3.org/2000/svg" viewBox="0 0 739.87 595.28"><defs><style>.cls-1{fill:#b1b0b0;}.cls-2{fill:#1d1d1b;}.cls-3{fill:#fff;}.cls-4{fill:#979797;}.cls-5{fill:#7e7f80;}.cls-6{fill:#568830;}.cls-7{fill:#000100;}</style></defs><title>Dator</title><polygon class="cls-1" points="24.62 390.53 24.62 8.21 553.34 8.21 553.34 24.62 569.67 24.62 569.67 390.53 24.62 390.53"/><path class="cls-2" d="M545.14,16.41V32.82h16.33V382.33H32.82V16.41H545.14M561.55,0H16.41V398.74H577.88V16.41H561.55V0Z"/><rect class="cls-1" x="25.81" y="25.8" width="526.27" height="363.54"/><path class="cls-1" d="M542.68,35.2V380H35.2V35.2H542.68m18.79-18.79H16.41V398.74H561.47V16.41Z"/><rect class="cls-3" x="45.02" y="46.24" width="487.83" height="287.39"/><path class="cls-2" d="M524.64,54.45v271H53.22v-271H524.64M541.06,38H36.81V341.84H541.06V38Z"/><rect class="cls-4" x="16.41" y="380.6" width="545.05" height="18.14"/><rect class="cls-2" x="35.42" y="361.39" width="19.21" height="19.21"/><polygon class="cls-2" points="577.47 541.12 577.47 577.22 559.41 577.22 559.41 595.28 18.05 595.28 18.05 577.22 523.31 577.22 523.31 559.17 18.05 559.17 18.05 577.22 0 577.22 0 541.12 18.05 541.12 18.05 523.06 36.11 523.06 36.11 541.12 541.36 541.12 541.36 523.06 559.41 523.06 559.41 541.12 577.47 541.12"/><rect class="cls-2" x="72.21" y="468.98" width="18.05" height="18.05"/><rect class="cls-2" x="36.11" y="505.09" width="18.05" height="17.97"/><rect class="cls-2" x="54.16" y="487.04" width="18.05" height="18.05"/><rect class="cls-2" x="108.24" y="487.04" width="18.05" height="18.05"/><rect class="cls-2" x="90.27" y="505.09" width="17.97" height="17.97"/><polygon class="cls-1" points="487.2 468.98 487.2 487.04 108.24 487.04 108.24 505.09 90.27 505.09 90.27 523.06 72.21 523.06 72.21 541.12 36.11 541.12 36.11 523.06 54.16 523.06 54.16 505.09 72.21 505.09 72.21 487.04 90.27 487.04 90.27 468.98 487.2 468.98"/><polygon class="cls-4" points="541.36 523.06 541.36 541.12 72.21 541.12 72.21 523.06 108.24 523.06 108.24 505.09 126.29 505.09 126.29 487.04 162.4 487.04 162.4 505.09 144.35 505.09 144.35 523.06 162.4 523.06 162.4 505.09 180.45 505.09 180.45 487.04 216.56 487.04 216.56 505.09 198.51 505.09 198.51 523.06 216.56 523.06 216.56 505.09 234.61 505.09 234.61 487.04 270.72 487.04 270.72 505.09 252.67 505.09 252.67 523.06 270.72 523.06 270.72 505.09 306.75 505.09 306.75 523.06 324.8 523.06 324.8 505.09 306.75 505.09 306.75 487.04 342.85 487.04 342.85 505.09 360.91 505.09 360.91 523.06 378.96 523.06 378.96 505.09 360.91 505.09 360.91 487.04 397.01 487.04 397.01 505.09 415.07 505.09 415.07 523.06 433.12 523.06 433.12 505.09 415.07 505.09 415.07 487.04 451.18 487.04 451.18 505.09 469.23 505.09 469.23 523.06 487.2 523.06 487.2 505.09 469.23 505.09 469.23 487.04 505.25 487.04 505.25 505.09 523.31 505.09 523.31 523.06 541.36 523.06"/><rect class="cls-2" x="162.4" y="487.04" width="18.05" height="18.05"/><rect class="cls-2" x="144.35" y="505.09" width="18.05" height="17.97"/><rect class="cls-2" x="216.56" y="487.04" width="18.05" height="18.05"/><rect class="cls-2" x="198.51" y="505.09" width="18.05" height="17.97"/><rect class="cls-2" x="270.72" y="487.04" width="36.02" height="18.05"/><rect class="cls-2" x="306.75" y="505.09" width="18.05" height="17.97"/><rect class="cls-2" x="342.85" y="487.04" width="18.05" height="18.05"/><rect class="cls-2" x="360.91" y="505.09" width="18.05" height="17.97"/><rect class="cls-2" x="397.01" y="487.04" width="18.05" height="18.05"/><rect class="cls-2" x="415.07" y="505.09" width="18.05" height="17.97"/><rect class="cls-2" x="451.18" y="487.04" width="18.05" height="18.05"/><rect class="cls-2" x="469.23" y="505.09" width="17.97" height="17.97"/><rect class="cls-2" x="252.67" y="505.09" width="18.05" height="17.97"/><rect class="cls-4" x="234.61" y="433.2" width="108.24" height="17.73"/><rect class="cls-4" x="234.61" y="432.88" width="18.05" height="0.33"/><rect class="cls-4" x="252.67" y="432.88" width="18.05" height="0.33"/><rect class="cls-4" x="270.72" y="432.88" width="17.97" height="0.33"/><rect class="cls-4" x="288.69" y="432.88" width="18.05" height="0.33"/><rect class="cls-4" x="306.75" y="432.88" width="18.05" height="0.33"/><rect class="cls-4" x="324.8" y="432.88" width="18.05" height="0.33"/><rect class="cls-5" x="234.61" y="432.88" width="18.05" height="0.33"/><rect class="cls-5" x="252.67" y="432.88" width="18.05" height="0.33"/><rect class="cls-5" x="270.72" y="432.88" width="17.97" height="0.33"/><rect class="cls-5" x="288.69" y="432.88" width="18.05" height="0.33"/><rect class="cls-5" x="306.75" y="432.88" width="18.05" height="0.33"/><rect class="cls-5" x="234.61" y="415.15" width="108.24" height="17.73"/><rect class="cls-5" x="324.8" y="432.88" width="18.05" height="0.33"/><path class="cls-2" d="M360.91,415.15H561.47V398.74H16.41V16.41H0V398.74H16.33v16.41H216.56v35.78H90.27V469H487.2V450.93H360.91Zm-18.06,35.78H234.61V415.15H342.85Z"/><rect class="cls-5" x="18.05" y="559.17" width="505.25" height="18.05"/><rect class="cls-2" x="523.31" y="505.09" width="18.05" height="17.97"/><polygon class="cls-2" points="559.41 468.98 559.41 487.04 523.31 487.04 523.31 505.09 505.25 505.09 505.25 487.04 487.2 487.04 487.2 468.98 559.41 468.98"/><rect class="cls-2" x="559.41" y="487.04" width="54.16" height="18.05"/><rect class="cls-2" x="613.58" y="505.09" width="18.05" height="54.08"/><polygon class="cls-2" points="703.76 487.04 703.76 505.09 667.65 505.09 667.65 523.06 649.68 523.06 649.68 505.09 631.63 505.09 631.63 487.04 703.76 487.04"/><polygon class="cls-1" points="685.71 541.12 685.71 559.17 631.63 559.17 631.63 505.09 649.68 505.09 649.68 523.06 667.65 523.06 667.65 541.12 685.71 541.12"/><polygon class="cls-1" points="703.76 505.09 703.76 541.12 685.71 541.12 685.71 523.06 667.65 523.06 667.65 505.09 703.76 505.09"/><polygon class="cls-4" points="721.82 523.06 721.82 577.22 649.68 577.22 649.68 559.17 685.71 559.17 685.71 541.12 703.76 541.12 703.76 523.06 721.82 523.06"/><rect class="cls-2" x="667.65" y="523.06" width="18.05" height="18.05"/><rect class="cls-2" x="703.76" y="505.09" width="18.05" height="17.97"/><rect class="cls-2" x="721.81" y="523.06" width="18.05" height="54.16"/><rect class="cls-2" x="649.68" y="577.22" width="72.13" height="18.05"/><rect class="cls-2" x="631.63" y="559.17" width="18.05" height="18.05"/><rect class="cls-2" x="125.51" y="361.39" width="19.21" height="19.21"/><rect class="cls-2" x="71.56" y="361.39" width="37.19" height="19.21"/><rect class="cls-6" x="503.6" y="361.39" width="37.19" height="19.21"/><path class="cls-2" d="M295.27,269.37h12.36v4.11H295.27v8.24h-4.12v-33h16.48v4.13H295.27Zm12.36,0V252.89h4.12v16.48Z"/><path class="cls-2" d="M316.9,269.37v-8.25H321v8.25ZM321,248.75h-4.12v-4.07H321v-4.11h12.36v4.11h4.12v4.07h-4.12v-4.06H321Zm0,4.14v-4.13h12.36v4.13Zm16.48,0v20.59H321v-4.11h12.36v-8.25H321V257h12.36v-4.12Z"/><path class="cls-2" d="M358.05,252.89h4.12V257h-4.12v16.47h-4.11V248.76h4.11Zm4.12,0v-4.13h8.24v4.13Zm8.24,20.59V252.89h4.12v20.59Z"/><path class="cls-2" d="M379.69,269.37v-8.25h4.11v8.25Zm4.06-23v-4.1h4.1v4.1Zm.05,6.48v-4.13h12.37v4.13Zm16.48,0v20.59H383.8v-4.11h12.37v-8.25H383.8V257h12.37v-4.12ZM392,246.41v-4.1h4.1v4.1Z"/><path class="cls-2" d="M409.56,252.89v16.48h-4.12V240.53h4.12v8.23h4.11v4.13Zm0,20.59v-4.11h4.11v4.11Z"/><path class="cls-2" d="M423,261.12v8.25h-4.12V252.89H423V257h12.36v-4.12h4.12v8.23Zm0-8.23v-4.13h12.36v4.13Zm0,20.59v-4.11h12.36v4.11Zm12.36-4.11v-4.12h4.12v4.12Z"/><path class="cls-2" d="M448.7,252.89v16.48h-4.12V240.53h4.12v8.23h4.12v4.13Zm0,20.59v-4.11h4.12v4.11Z"/><path class="cls-2" d="M458,273.48v-4.11h4.12v4.11Z"/><path class="cls-7" d="M335.54,161.16a8.76,8.76,0,0,0-7,3.38,24.07,24.07,0,0,0-4.39,8.29,57.41,57.41,0,0,0-2.24,10.68,97.88,97.88,0,0,0-.67,11.13q0,14,4.56,24.34c3,6.91,8.4,10.83,16.05,10.37a32.47,32.47,0,0,0,17.3-6.66c-8,9.44-20.4,12-27.26,11.88-11.33-.16-21-3.46-28.93-10.37S291,208.16,291,196.79s3.9-20.68,11.71-27.64,17.52-10.45,29.15-10.45A47.33,47.33,0,0,1,344,160.16a50,50,0,0,1,10.36,4,35.08,35.08,0,0,1,9.25,7.21,15.55,15.55,0,0,1,4.39,11,12.35,12.35,0,0,1-3.44,9.14Q361.11,195,354.37,195a15.38,15.38,0,0,1-10.54-4.23q-4.72-4.22-4.72-9.59a20.19,20.19,0,0,1,1.64-8,17.2,17.2,0,0,0,1.64-6.45,5,5,0,0,0-1.79-4,7.5,7.5,0,0,0-5.06-1.54"/><path class="cls-7" d="M164.92,234.57h29.15l-.2-19.2V180.82q0-8.3-7.74-14.44a28.61,28.61,0,0,0-18.31-6.14q-12.19,0-16.44,4.38a26.07,26.07,0,0,0-5.88,8.68V161.78H117.27l.1,16.89v36.7l-.1,19.2h29.05l-.23-19.2V176.06a38.53,38.53,0,0,1,3.47-6.91q2.15-3.37,7.31-3.38,8.13,0,8.12,12l.15,6.3v31.32Z"/><path class="cls-7" d="M456.61,223.26q-3.5-5.44-11.09-18.08t-14.88-24.9l17.89-18.8-3.62.09S428.2,179.41,423,185s-10.46,11.19-15.7,16.7l.3-79.16h-29l-.12,112H408.1l-.53-30.19,2.81-3.07q3.84,6.14,8,12.87t6.13,10.27l5.81,10.16,33.18-.09s-4.53-7.59-6.86-11.22"/><path class="cls-7" d="M277.8,215.08V179.75q0-10.8-10.14-16a48.17,48.17,0,0,0-22.22-5.17q-14.33,0-24.69,5.71t-10.36,15.27a9.07,9.07,0,0,0,3.8,7.64,14.42,14.42,0,0,0,8.88,2.85q9.26,0,13.36-3.7a11.17,11.17,0,0,0,4.11-8.49c0-3.4-1.06-5.94-3.17-7.64s-3.17-3.11-3.17-4.24a4.16,4.16,0,0,1,2-3.55,8.36,8.36,0,0,1,4.93-1.39c3.14,0,5.21.87,6.19,2.62s1.47,4.61,1.47,8.61l.15,14a4.47,4.47,0,0,1-1.64,3.92,17.6,17.6,0,0,1-5.43,2.15A81.36,81.36,0,0,1,230,194.16,75.72,75.72,0,0,0,218.12,196q-3.87,1.08-7.59,5.77t-3.72,12.39q0,9.54,6,14.93t15.47,5.39c6,0,10.77-1.07,14.51-3.12,4.23-2.31,5.15-7.93,5.15-7.93a13,13,0,0,1-1.69,2.29,6.55,6.55,0,0,1-4.93,2.31c-2.46,0-4-1.39-4.71-4.15a47.38,47.38,0,0,1-1-11.06,49.36,49.36,0,0,1,.81-9q.81-4.38,2.2-5.91a15.51,15.51,0,0,1,5-3.15,12.08,12.08,0,0,0,4.93-3.46l.44.16,0,43.1h28.83s0-18,0-19.49"/><path class="cls-7" d="M259.53,147.17a9.42,9.42,0,0,0,6.56-2.36,7.91,7.91,0,0,0,2.59-6.1,7.59,7.59,0,0,0-2.66-5.78,9.73,9.73,0,0,0-12.92.07,7.53,7.53,0,0,0-2.73,5.71,7.79,7.79,0,0,0,2.73,6,9.26,9.26,0,0,0,6.43,2.49"/><path class="cls-7" d="M228.78,147.17a9.1,9.1,0,0,0,6.56-2.36,8.09,8.09,0,0,0,2.46-6.1,7.59,7.59,0,0,0-2.6-5.84,9.2,9.2,0,0,0-6.42-2.36,9.4,9.4,0,0,0-6.56,2.49,7.53,7.53,0,0,0-2.73,5.71,7.79,7.79,0,0,0,2.73,6,9.4,9.4,0,0,0,6.56,2.49"/></svg>