<svg id="Lager_1" data-name="Lager 1" xmlns="http://www.w3.org/2000/svg" viewBox="0 0 827.54 595.28"><defs><style>.cls-1{fill:#1d1d1b;}</style></defs><title>E-post</title><polygon class="cls-1" points="827.54 0 827.54 66.13 735.63 66.13 735.63 132.26 643.63 132.26 643.63 198.48 551.72 198.48 551.72 264.61 459.73 264.61 459.73 330.75 367.81 330.75 367.81 264.61 275.82 264.61 275.82 198.48 183.91 198.48 183.91 132.26 91.91 132.26 91.91 66.13 0 66.13 0 0 827.54 0"/><polygon class="cls-1" points="827.54 132.26 827.54 595.28 0 595.28 0 132.26 91.91 132.26 91.91 198.48 183.91 198.48 183.91 264.61 275.82 264.61 275.82 330.75 367.81 330.75 367.81 396.88 459.73 396.88 459.73 330.75 551.72 330.75 551.72 264.61 643.63 264.61 643.63 198.48 735.63 198.48 735.63 132.26 827.54 132.26"/></svg>