<?xml version="1.0" encoding="utf-8"?>
<!-- Generator: Adobe Illustrator 23.0.1, SVG Export Plug-In . SVG Version: 6.00 Build 0)  -->
<svg version="1.1" id="Lager_1" xmlns="http://www.w3.org/2000/svg" xmlns:xlink="http://www.w3.org/1999/xlink" x="0px" y="0px"
	 viewBox="0 0 646 348" style="enable-background:new 0 0 646 348;" xml:space="preserve">
<style type="text/css">
	.st0{fill:#FFFFFF;}
</style>
<g>
	<path class="st0" d="M11.8,83.1L11,79.7c-0.4-1.7-0.6-3.7-0.6-5.9c0-0.1,0-0.3,0-0.4H6.9l-0.8-3.5c-0.4-1.7-0.6-3.7-0.6-5.9
		c0-2.3,0.2-4.3,0.6-6l0.9-3.4h16.8l0.8,3.4c0.4,1.7,0.6,3.6,0.6,6c0,0.1,0,0.3,0,0.4h9.6c0-0.1,0-0.3,0-0.4c0-1.9,0.1-3.5,0.4-4.9
		c-0.3-1.5-0.4-3.1-0.4-4.9c0-0.1,0-0.3,0-0.4h-23L11,50.4c-0.4-1.7-0.6-3.7-0.6-5.9c0-0.1,0-0.3,0-0.4H6.9l-0.8-3.5
		c-0.4-1.7-0.6-3.7-0.6-5.9c0-1.9,0.1-3.5,0.4-4.9c-0.3-1.5-0.4-3.1-0.4-4.9c0-2.3,0.2-4.3,0.6-6l0.9-3.4h3.4c0-0.1,0-0.3,0-0.4
		c0-2.3,0.2-4.3,0.6-6l0.9-3.4h36.3L49,9.2c0.4,1.7,0.6,3.6,0.6,6c0,0.1,0,0.3,0,0.4H53l0.8,3.4c0.4,1.7,0.6,3.6,0.6,6
		c0,2.2-0.2,4.2-0.6,5.9l-0.8,3.5H36.2l-0.8-3.5c-0.4-1.7-0.6-3.7-0.6-5.9c0-0.1,0-0.3,0-0.4h-9.6c0,0.1,0,0.3,0,0.4
		c0,1.8-0.1,3.4-0.4,4.9c0.3,1.4,0.4,3,0.4,4.9c0,0.1,0,0.3,0,0.4h22.9l0.9,3.4c0.4,1.7,0.6,3.6,0.6,6c0,0.1,0,0.3,0,0.4H53l0.9,3.4
		c0.4,1.7,0.6,3.6,0.6,6c0,1.8-0.1,3.4-0.4,4.9c0.3,1.4,0.4,3,0.4,4.9c0,2.2-0.2,4.2-0.6,5.9l-0.8,3.5h-3.5c0,0.1,0,0.3,0,0.4
		c0,2.2-0.2,4.2-0.6,5.9l-0.8,3.5H11.8z"/>
	<path d="M44.6,10.3c0.3,1.3,0.5,2.9,0.5,4.9c0,1.9-0.2,3.5-0.5,4.9h4.9c0.3,1.3,0.5,2.9,0.5,4.9c0,1.9-0.2,3.5-0.5,4.9h-9.8
		c-0.3-1.4-0.5-3-0.5-4.9c0-2,0.2-3.6,0.5-4.9H20.2c0.3,1.3,0.5,2.9,0.5,4.9c0,1.9-0.2,3.5-0.5,4.9c0.3,1.3,0.5,2.9,0.5,4.9
		c0,1.9-0.2,3.5-0.5,4.9h24.4c0.3,1.3,0.5,2.9,0.5,4.9c0,1.9-0.2,3.5-0.5,4.9h4.9c0.3,1.3,0.5,2.9,0.5,4.9c0,1.9-0.2,3.5-0.5,4.9
		C49.8,60.4,50,62,50,64c0,1.9-0.2,3.5-0.5,4.9h-4.9c0.3,1.3,0.5,2.9,0.5,4.9c0,1.9-0.2,3.5-0.5,4.9H15.3c-0.3-1.4-0.5-3-0.5-4.9
		c0-2,0.2-3.6,0.5-4.9h-4.9c-0.3-1.4-0.5-3-0.5-4.9c0-2,0.2-3.6,0.5-4.9h9.8c0.3,1.3,0.5,2.9,0.5,4.9c0,1.9-0.2,3.5-0.5,4.9h19.5
		c-0.3-1.4-0.5-3-0.5-4.9c0-2,0.2-3.6,0.5-4.9c-0.3-1.4-0.5-3-0.5-4.9c0-2,0.2-3.6,0.5-4.9H15.3c-0.3-1.4-0.5-3-0.5-4.9
		c0-2,0.2-3.6,0.5-4.9h-4.9c-0.3-1.4-0.5-3-0.5-4.9c0-2,0.2-3.6,0.5-4.9c-0.3-1.4-0.5-3-0.5-4.9c0-2,0.2-3.6,0.5-4.9h4.9
		c-0.3-1.4-0.5-3-0.5-4.9c0-2,0.2-3.6,0.5-4.9H44.6 M51.7,1.3h-7H15.3h-7L6.6,8.1C6.4,9,6.2,10,6.1,11H3.4l-1.7,6.8
		c-0.5,2-0.8,4.4-0.8,7.1c0,1.8,0.1,3.4,0.3,4.9C1.1,31.3,1,32.9,1,34.7c0,2.6,0.2,4.9,0.7,7l1.6,6.9h2.7c0.1,0.5,0.1,1,0.2,1.5H3.4
		l-1.7,6.8C1.2,58.9,1,61.3,1,64c0,2.6,0.2,4.9,0.7,7l1.6,6.9h2.7c0.1,1,0.3,1.9,0.5,2.8l1.6,6.9h7.1h29.3h7.1l1.6-6.9
		c0.2-0.9,0.4-1.8,0.5-2.8h2.8l1.6-6.9c0.5-2.1,0.7-4.4,0.7-6.9c0-1.8-0.1-3.4-0.3-4.9c0.2-1.5,0.3-3.1,0.3-4.9c0-2.7-0.2-5-0.8-7.1
		l-1.7-6.8h-2.7c-0.1-0.5-0.1-1-0.2-1.5h3l1.6-6.9c0.5-2.1,0.7-4.4,0.7-6.9c0-2.7-0.2-5-0.8-7.1L56.6,11h-2.7c-0.1-1-0.3-2-0.5-2.9
		L51.7,1.3L51.7,1.3z M29.5,29h1c0.1,0.5,0.1,1,0.2,1.5h-1.2c0-0.3-0.1-0.5-0.1-0.8C29.4,29.5,29.4,29.3,29.5,29L29.5,29z
		 M29.3,58.3h1.2c0,0.3,0.1,0.5,0.1,0.7c0,0.3-0.1,0.5-0.1,0.8h-1C29.4,59.3,29.3,58.8,29.3,58.3L29.3,58.3z"/>
</g>
<g>
	<path class="st0" d="M60.6,102.7l-0.8-3.5c-0.4-1.7-0.6-3.7-0.6-5.9c0-2.3,0.2-4.3,0.6-6l0.9-3.4h8.3c0-0.1,0-0.3,0-0.4
		c0-2.3,0.2-4.3,0.6-6l0.9-3.4h3.4c0-0.1,0-0.3,0-0.4c0-1.9,0.1-3.5,0.4-4.9c-0.3-1.5-0.4-3.1-0.4-4.9c0-1.9,0.1-3.5,0.4-4.9
		c-0.3-1.5-0.4-3.1-0.4-4.9c0-1.9,0.1-3.5,0.4-4.9c-0.3-1.5-0.4-3.1-0.4-4.9c0-0.1,0-0.3,0-0.4h-8.3l-0.8-3.5
		c-0.4-1.7-0.6-3.7-0.6-5.9c0-2.3,0.2-4.3,0.6-6l0.9-3.4h26.6l0.9,3.4c0.4,1.7,0.6,3.6,0.6,6c0,1.8-0.1,3.4-0.4,4.9
		c0.3,1.4,0.4,3,0.4,4.9c0,1.8-0.1,3.4-0.4,4.9c0.3,1.4,0.4,3,0.4,4.9c0,1.8-0.1,3.4-0.4,4.9c0.3,1.4,0.4,3,0.4,4.9
		c0,1.8-0.1,3.4-0.4,4.9c0.3,1.4,0.4,3,0.4,4.9c0,2.2-0.2,4.2-0.6,5.9l-0.8,3.5h-3.5c0,0.1,0,0.3,0,0.4c0,2.2-0.2,4.2-0.6,5.9
		l-0.8,3.5h-3.5c0,0.1,0,0.3,0,0.4c0,2.2-0.2,4.2-0.6,5.9l-0.8,3.5H60.6z M75.3,24.5l-0.8-3.5c-0.4-1.7-0.6-3.7-0.6-5.9
		c0-2.3,0.2-4.3,0.6-6l0.9-3.4h16.8L93,9.2c0.4,1.7,0.6,3.6,0.6,6c0,2.2-0.2,4.2-0.6,5.9l-0.8,3.5H75.3z"/>
	<path d="M88.6,10.3c0.3,1.3,0.5,2.9,0.5,4.9c0,1.9-0.2,3.5-0.5,4.9h-9.8c-0.3-1.4-0.5-3-0.5-4.9c0-2,0.2-3.6,0.5-4.9H88.6
		 M88.6,29.8c0.3,1.3,0.5,2.9,0.5,4.9c0,1.9-0.2,3.5-0.5,4.9c0.3,1.3,0.5,2.9,0.5,4.9c0,1.9-0.2,3.5-0.5,4.9
		c0.3,1.3,0.5,2.9,0.5,4.9c0,1.9-0.2,3.5-0.5,4.9c0.3,1.3,0.5,2.9,0.5,4.9c0,1.9-0.2,3.5-0.5,4.9c0.3,1.3,0.5,2.9,0.5,4.9
		c0,1.9-0.2,3.5-0.5,4.9h-4.9c0.3,1.3,0.5,2.9,0.5,4.9c0,1.9-0.2,3.5-0.5,4.9h-4.9c0.3,1.3,0.5,2.9,0.5,4.9c0,1.9-0.2,3.5-0.5,4.9
		H64.2c-0.3-1.4-0.5-3-0.5-4.9c0-2,0.2-3.6,0.5-4.9h9.8c-0.3-1.4-0.5-3-0.5-4.9c0-2,0.2-3.6,0.5-4.9h4.9c-0.3-1.4-0.5-3-0.5-4.9
		c0-2,0.2-3.6,0.5-4.9c-0.3-1.4-0.5-3-0.5-4.9c0-2,0.2-3.6,0.5-4.9c-0.3-1.4-0.5-3-0.5-4.9c0-2,0.2-3.6,0.5-4.9
		c-0.3-1.4-0.5-3-0.5-4.9c0-2,0.2-3.6,0.5-4.9h-9.8c-0.3-1.4-0.5-3-0.5-4.9c0-2,0.2-3.6,0.5-4.9H88.6 M95.6,1.3h-7h-9.8h-7l-1.7,6.8
		c-0.5,2-0.8,4.3-0.8,7.1c0,2.1,0.2,3.9,0.5,5.6h-0.7h-7l-1.7,6.8c-0.5,2-0.8,4.4-0.8,7.1c0,2.6,0.2,4.9,0.7,7l1.6,6.9h7.1h0.5
		c0,0.3,0.1,0.5,0.1,0.7c-0.2,1.5-0.3,3.1-0.3,4.9c0,1.8,0.1,3.4,0.3,4.9c-0.2,1.5-0.3,3.1-0.3,4.9c0,1.8,0.1,3.4,0.3,4.9
		c0,0.3-0.1,0.5-0.1,0.8h-2.6l-1.7,6.8c-0.2,0.9-0.4,1.9-0.5,3h-0.5h-7l-1.7,6.8c-0.5,2-0.8,4.3-0.8,7.1c0,2.6,0.2,4.9,0.7,6.9
		l1.6,6.9h7.1h14.7H86l1.6-6.9c0.2-0.9,0.4-1.8,0.5-2.8h2.8l1.6-6.9c0.2-0.9,0.4-1.8,0.5-2.8h2.8l1.6-6.9c0.5-2.1,0.7-4.4,0.7-6.9
		c0-1.8-0.1-3.4-0.3-4.9c0.2-1.5,0.3-3.1,0.3-4.9c0-1.8-0.1-3.4-0.3-4.9c0.2-1.5,0.3-3.1,0.3-4.9c0-1.8-0.1-3.4-0.3-4.9
		c0.2-1.5,0.3-3.1,0.3-4.9c0-1.8-0.1-3.4-0.3-4.9c0.2-1.5,0.3-3.1,0.3-4.9c0-2.7-0.2-5-0.8-7.1L96.7,25l0.7-2.9
		c0.5-2.1,0.7-4.4,0.7-6.9c0-2.7-0.2-5-0.8-7.1L95.6,1.3L95.6,1.3z"/>
</g>
<g>
	<path class="st0" d="M109.4,83.1l-0.8-3.5c-0.4-1.7-0.6-3.7-0.6-5.9c0-0.1,0-0.3,0-0.4h-3.5l-0.8-3.5c-0.4-1.7-0.6-3.7-0.6-5.9
		c0-2.3,0.2-4.3,0.6-6l0.9-3.4h3.4c0-0.1,0-0.3,0-0.4c0-2.3,0.2-4.3,0.6-6l0.9-3.4h18.1c0-0.1,0-0.6,0-0.8h-15.7l-0.8-3.5
		c-0.4-1.7-0.6-3.7-0.6-5.9c0-2.3,0.2-4.3,0.6-6l0.9-3.4h29l0.8,3.4c0.4,1.7,0.6,3.6,0.6,6c0,0.1,0,0.3,0,0.4h3.4l0.9,3.4
		c0.4,1.7,0.6,3.6,0.6,6c0,1.8-0.1,3.4-0.4,4.9c0.3,1.4,0.4,3,0.4,4.9c0,1.8-0.1,3.4-0.4,4.9c0.3,1.4,0.4,3,0.4,4.9
		c0,0.1,0,0.3,0,0.4h3.4l0.9,3.4c0.4,1.7,0.6,3.6,0.6,6c0,2.2-0.2,4.2-0.6,5.9l-0.8,3.5H109.4z M127.5,64.4c0-0.1,0-0.6,0-0.8h-4.7
		c0,0.1,0,0.6,0,0.8H127.5z M129,24.5l-0.8-3.5c-0.2-1-0.4-2.1-0.5-3.3c-0.1,1.2-0.3,2.3-0.5,3.3l-0.8,3.5h-16.9l-0.8-3.5
		c-0.4-1.7-0.6-3.7-0.6-5.9c0-2.3,0.2-4.3,0.6-6l0.9-3.4h16.8l0.9,3.4c0.2,1,0.4,2.1,0.5,3.3c0.1-1.2,0.3-2.3,0.5-3.3l0.9-3.4h16.8
		l0.8,3.4c0.4,1.7,0.6,3.6,0.6,6c0,2.2-0.2,4.2-0.6,5.9l-0.8,3.5H129z"/>
	<path d="M142.3,10.3c0.3,1.3,0.5,2.9,0.5,4.9c0,1.9-0.2,3.5-0.5,4.9h-9.8c-0.3-1.4-0.5-3-0.5-4.9c0-2,0.2-3.6,0.5-4.9H142.3
		 M122.8,10.3c0.3,1.3,0.5,2.9,0.5,4.9c0,1.9-0.2,3.5-0.5,4.9H113c-0.3-1.4-0.5-3-0.5-4.9c0-2,0.2-3.6,0.5-4.9H122.8 M137.4,29.8
		c0.3,1.3,0.5,2.9,0.5,4.9c0,1.9-0.2,3.5-0.5,4.9h4.9c0.3,1.3,0.5,2.9,0.5,4.9c0,1.9-0.2,3.5-0.5,4.9c0.3,1.3,0.5,2.9,0.5,4.9
		c0,1.9-0.2,3.5-0.5,4.9c0.3,1.3,0.5,2.9,0.5,4.9c0,1.9-0.2,3.5-0.5,4.9h4.9c0.3,1.3,0.5,2.9,0.5,4.9c0,1.9-0.2,3.5-0.5,4.9h-9.8
		c-0.3-1.4-0.5-3-0.5-4.9c0-2,0.2-3.6,0.5-4.9h-4.9c-0.3-1.4-0.5-3-0.5-4.9c0-2,0.2-3.6,0.5-4.9h-14.6c0.3,1.3,0.5,2.9,0.5,4.9
		c0,1.9-0.2,3.5-0.5,4.9h14.6c0.3,1.3,0.5,2.9,0.5,4.9c0,1.9-0.2,3.5-0.5,4.9H113c-0.3-1.4-0.5-3-0.5-4.9c0-2,0.2-3.6,0.5-4.9h-4.9
		c-0.3-1.4-0.5-3-0.5-4.9c0-2,0.2-3.6,0.5-4.9h4.9c-0.3-1.4-0.5-3-0.5-4.9c0-2,0.2-3.6,0.5-4.9h19.5c-0.3-1.4-0.5-3-0.5-4.9
		c0-2,0.2-3.6,0.5-4.9h-17.1c-0.3-1.4-0.5-3-0.5-4.9c0-2,0.2-3.6,0.5-4.9H137.4 M149.3,1.3h-7h-9.8h-2.7h-7H113h-7l-1.7,6.8
		c-0.5,2-0.8,4.3-0.8,7.1c0,2.6,0.2,4.9,0.7,6.9l1.6,6.9h0.5c-0.3,1.7-0.5,3.5-0.5,5.7c0,2.1,0.2,3.9,0.5,5.7H106l-1.7,6.8
		c-0.2,0.9-0.4,1.9-0.5,3h-2.6l-1.7,6.8c-0.5,2-0.8,4.4-0.8,7.1c0,2.6,0.2,4.9,0.7,7l1.6,6.9h2.7c0.1,1,0.3,1.9,0.5,2.8l1.6,6.9h7.1
		h19.5h7.1h7.5h7.1l1.6-6.9c0.5-2.1,0.7-4.4,0.7-6.9c0-2.7-0.2-5-0.8-7.1l-1.7-6.8h-2.7c0-0.3-0.1-0.5-0.1-0.8
		c0.2-1.5,0.3-3.1,0.3-4.9c0-1.8-0.1-3.4-0.3-4.9c0.2-1.5,0.3-3.1,0.3-4.9c0-2.7-0.2-5-0.8-7.1l-1.7-6.8h-2.7
		c-0.1-0.5-0.1-1-0.2-1.5h3l1.6-6.9c0.5-2.1,0.7-4.4,0.7-6.9c0-2.7-0.2-5-0.8-7.1L149.3,1.3L149.3,1.3z"/>
</g>
<g>
	<path class="st0" d="M158.3,83.1l-0.8-3.5c-0.4-1.7-0.6-3.7-0.6-5.9c0-2.3,0.2-4.3,0.6-6l0.9-3.4h8.3c0-0.1,0-0.3,0-0.4
		c0-1.9,0.1-3.5,0.4-4.9c-0.3-1.5-0.4-3.1-0.4-4.9c0-1.9,0.1-3.5,0.4-4.9c-0.3-1.5-0.4-3.1-0.4-4.9c0-1.9,0.1-3.5,0.4-4.9
		c-0.3-1.5-0.4-3.1-0.4-4.9c0-1.9,0.1-3.5,0.4-4.9c-0.3-1.5-0.4-3.1-0.4-4.9c0-0.1,0-0.3,0-0.4h-5.9l-0.8-3.5
		c-0.4-1.7-0.6-3.7-0.6-5.9c0-2.3,0.2-4.3,0.6-6l0.9-3.4h24.1l0.8,3.4c0.4,1.7,0.6,3.6,0.6,6c0,1.8-0.1,3.4-0.4,4.9
		c0.3,1.4,0.4,3,0.4,4.9c0,1.8-0.1,3.4-0.4,4.9c0.3,1.4,0.4,3,0.4,4.9c0,1.8-0.1,3.4-0.4,4.9c0.3,1.4,0.4,3,0.4,4.9
		c0,1.8-0.1,3.4-0.4,4.9c0.3,1.4,0.4,3,0.4,4.9c0,1.8-0.1,3.4-0.4,4.9c0.3,1.4,0.4,3,0.4,4.9c0,0.1,0,0.3,0,0.4h8.3l0.8,3.4
		c0.4,1.7,0.6,3.6,0.6,6c0,2.2-0.2,4.2-0.6,5.9l-0.8,3.5H158.3z"/>
	<path d="M181.4,10.3c0.3,1.3,0.5,2.9,0.5,4.9c0,1.9-0.2,3.5-0.5,4.9c0.3,1.3,0.5,2.9,0.5,4.9c0,1.9-0.2,3.5-0.5,4.9
		c0.3,1.3,0.5,2.9,0.5,4.9c0,1.9-0.2,3.5-0.5,4.9c0.3,1.3,0.5,2.9,0.5,4.9c0,1.9-0.2,3.5-0.5,4.9c0.3,1.3,0.5,2.9,0.5,4.9
		c0,1.9-0.2,3.5-0.5,4.9c0.3,1.3,0.5,2.9,0.5,4.9c0,1.9-0.2,3.5-0.5,4.9h9.8c0.3,1.3,0.5,2.9,0.5,4.9c0,1.9-0.2,3.5-0.5,4.9h-29.3
		c-0.3-1.4-0.5-3-0.5-4.9c0-2,0.2-3.6,0.5-4.9h9.8c-0.3-1.4-0.5-3-0.5-4.9c0-2,0.2-3.6,0.5-4.9c-0.3-1.4-0.5-3-0.5-4.9
		c0-2,0.2-3.6,0.5-4.9c-0.3-1.4-0.5-3-0.5-4.9c0-2,0.2-3.6,0.5-4.9c-0.3-1.4-0.5-3-0.5-4.9c0-2,0.2-3.6,0.5-4.9
		c-0.3-1.4-0.5-3-0.5-4.9c0-2,0.2-3.6,0.5-4.9h-7.3c-0.3-1.4-0.5-3-0.5-4.9c0-2,0.2-3.6,0.5-4.9H181.4 M188.4,1.3h-7h-17.1h-7
		l-1.7,6.8c-0.5,2-0.8,4.3-0.8,7.1c0,2.6,0.2,4.9,0.7,6.9l1.6,6.9h5.2c0,0.3,0.1,0.5,0.1,0.7c-0.2,1.5-0.3,3.1-0.3,4.9
		c0,1.8,0.1,3.4,0.3,4.9c-0.2,1.5-0.3,3.1-0.3,4.9c0,1.8,0.1,3.4,0.3,4.9c-0.2,1.5-0.3,3.1-0.3,4.9c0,1.8,0.1,3.4,0.3,4.9
		c0,0.3-0.1,0.5-0.1,0.8h-0.5h-7l-1.7,6.8c-0.5,2-0.8,4.3-0.8,7.1c0,2.6,0.2,4.9,0.7,6.9l1.6,6.9h7.1h29.3h7.1l1.6-6.9
		c0.5-2.1,0.7-4.4,0.7-6.9c0-2.7-0.2-5-0.8-7.1l-1.7-6.8h-7h-0.5c0-0.3-0.1-0.5-0.1-0.8c0.2-1.5,0.3-3.1,0.3-4.9
		c0-1.8-0.1-3.4-0.3-4.9c0.2-1.5,0.3-3.1,0.3-4.9c0-1.8-0.1-3.4-0.3-4.9c0.2-1.5,0.3-3.1,0.3-4.9c0-1.8-0.1-3.4-0.3-4.9
		c0.2-1.5,0.3-3.1,0.3-4.9c0-1.8-0.1-3.4-0.3-4.9c0.2-1.5,0.3-3.1,0.3-4.9c0-2.7-0.2-5-0.8-7.1L188.4,1.3L188.4,1.3z"/>
</g>
<g>
	<path class="st0" d="M216.9,83.1l-0.8-3.5c-0.4-1.7-0.6-3.7-0.6-5.9c0-0.1,0-0.3,0-0.4H212l-0.8-3.5c-0.4-1.7-0.6-3.7-0.6-5.9
		c0-0.1,0-0.3,0-0.4h-1l-0.8-3.5c-0.4-1.7-0.6-3.7-0.6-5.9c0-0.1,0-0.3,0-0.4h-2.2l-0.8-3.5c-0.4-1.7-0.6-3.7-0.6-5.9
		c0-0.1,0-0.3,0-0.4h-2.2l-0.8-3.5c-0.4-1.7-0.6-3.7-0.6-5.9c0-2.3,0.2-4.3,0.6-6l0.9-3.4h16.8l0.8,3.4c0.4,1.7,0.6,3.6,0.6,6
		c0,0.1,0,0.3,0,0.4h2.2l0.9,3.4c0.4,1.7,0.6,3.6,0.6,6c0,0.1,0,0.3,0,0.4h2.2c0-0.1,0-0.3,0-0.4c0-2.3,0.2-4.3,0.6-6l0.9-3.4h2.2
		c0-0.1,0-0.3,0-0.4c0-2.3,0.2-4.3,0.6-6l0.9-3.4h16.8l0.8,3.4c0.4,1.7,0.6,3.6,0.6,6c0,2.2-0.2,4.2-0.6,5.9l-0.8,3.5h-2.2
		c0,0.1,0,0.3,0,0.4c0,2.2-0.2,4.2-0.6,5.9l-0.8,3.5h-2.2c0,0.1,0,0.3,0,0.4c0,2.2-0.2,4.2-0.6,5.9l-0.8,3.5h-1c0,0.1,0,0.3,0,0.4
		c0,2.2-0.2,4.2-0.6,5.9l-0.8,3.5h-3.5c0,0.1,0,0.3,0,0.4c0,2.2-0.2,4.2-0.6,5.9l-0.8,3.5H216.9z"/>
	<path d="M244.8,29.8c0.3,1.3,0.5,2.9,0.5,4.9c0,1.9-0.2,3.5-0.5,4.9h-3.7c0.3,1.3,0.5,2.9,0.5,4.9c0,1.9-0.2,3.5-0.5,4.9h-3.7
		c0.3,1.3,0.5,2.9,0.5,4.9c0,1.9-0.2,3.5-0.5,4.9h-2.4c0.3,1.3,0.5,2.9,0.5,4.9c0,1.9-0.2,3.5-0.5,4.9h-4.9c0.3,1.3,0.5,2.9,0.5,4.9
		c0,1.9-0.2,3.5-0.5,4.9h-9.8c-0.3-1.4-0.5-3-0.5-4.9c0-2,0.2-3.6,0.5-4.9h-4.9c-0.3-1.4-0.5-3-0.5-4.9c0-2,0.2-3.6,0.5-4.9h-2.4
		c-0.3-1.4-0.5-3-0.5-4.9c0-2,0.2-3.6,0.5-4.9h-3.7c-0.3-1.4-0.5-3-0.5-4.9c0-2,0.2-3.6,0.5-4.9h-3.7c-0.3-1.4-0.5-3-0.5-4.9
		c0-2,0.2-3.6,0.5-4.9h9.8c0.3,1.3,0.5,2.9,0.5,4.9c0,1.9-0.2,3.5-0.5,4.9h3.7c0.3,1.3,0.5,2.9,0.5,4.9c0,1.9-0.2,3.5-0.5,4.9h3.7
		c0.3,1.3,0.5,2.9,0.5,4.9c0,1.9-0.2,3.5-0.5,4.9h4.9c-0.3-1.4-0.5-3-0.5-4.9c0-2,0.2-3.6,0.5-4.9h3.7c-0.3-1.4-0.5-3-0.5-4.9
		c0-2,0.2-3.6,0.5-4.9h3.7c-0.3-1.4-0.5-3-0.5-4.9c0-2,0.2-3.6,0.5-4.9H244.8 M251.9,20.8h-7h-9.8h-7l-1.7,6.8
		c-0.2,0.9-0.4,1.9-0.5,3h-1c-0.1-1-0.3-2-0.5-2.9l-1.7-6.8h-7h-9.8h-7l-1.7,6.8c-0.5,2-0.8,4.4-0.8,7.1c0,2.6,0.2,4.9,0.7,7
		l1.6,6.9h1.5c0.1,1,0.3,1.9,0.5,2.8l1.6,6.9h1.5c0.1,1,0.3,1.9,0.5,2.8l1.6,6.9h0.3c0.1,1,0.3,1.9,0.5,2.8l1.6,6.9h2.7
		c0.1,1,0.3,1.9,0.5,2.8l1.6,6.9h7.1h9.8h7.1l1.6-6.9c0.2-0.9,0.4-1.8,0.5-2.8h2.8l1.6-6.9c0.2-0.9,0.4-1.8,0.5-2.8h0.3l1.6-6.9
		c0.2-0.9,0.4-1.8,0.5-2.8h1.5l1.6-6.9c0.2-0.9,0.4-1.8,0.5-2.8h1.5l1.6-6.9c0.5-2.1,0.7-4.4,0.7-6.9c0-2.7-0.2-5-0.8-7.1
		L251.9,20.8L251.9,20.8z"/>
</g>
<g>
	<path class="st0" d="M257.2,83.1l-0.8-3.5c-0.4-1.7-0.6-3.7-0.6-5.9c0-0.1,0-0.3,0-0.4h-4.7l-0.8-3.5c-0.4-1.7-0.6-3.7-0.6-5.9
		c0-1.9,0.1-3.5,0.4-4.9c-0.3-1.5-0.4-3.1-0.4-4.9c0-1.9,0.1-3.5,0.4-4.9c-0.3-1.5-0.4-3.1-0.4-4.9c0-1.9,0.1-3.5,0.4-4.9
		c-0.3-1.5-0.4-3.1-0.4-4.9c0-2.3,0.2-4.3,0.6-6l0.9-3.4h16.8l0.8,3.4c0.4,1.7,0.6,3.6,0.6,6c0,1.8-0.1,3.4-0.4,4.9
		c0.3,1.4,0.4,3,0.4,4.9c0,1.8-0.1,3.4-0.4,4.9c0.3,1.4,0.4,3,0.4,4.9c0,0.1,0,0.3,0,0.4h2.2l0.8,3.4c0.4,1.7,0.6,3.6,0.6,6
		c0,0.1,0,0.3,0,0.4h2.2c0-0.1,0-0.3,0-0.4c0-2.3,0.2-4.3,0.6-6l0.9-3.4h2.2c0-0.1,0-0.3,0-0.4c0-1.9,0.1-3.5,0.4-4.9
		c-0.3-1.5-0.4-3.1-0.4-4.9c0-1.9,0.1-3.5,0.4-4.9c-0.3-1.5-0.4-3.1-0.4-4.9c0-2.3,0.2-4.3,0.6-6l0.9-3.4h16.8l0.9,3.4
		c0.4,1.7,0.6,3.6,0.6,6c0,1.8-0.1,3.4-0.4,4.9c0.3,1.4,0.4,3,0.4,4.9c0,1.8-0.1,3.4-0.4,4.9c0.3,1.4,0.4,3,0.4,4.9
		c0,1.8-0.1,3.4-0.4,4.9c0.3,1.4,0.4,3,0.4,4.9c0,1.8-0.1,3.4-0.4,4.9c0.3,1.4,0.4,3,0.4,4.9c0,2.2-0.2,4.2-0.6,5.9l-0.8,3.5H257.2z
		"/>
	<path d="M293.7,29.8c0.3,1.3,0.5,2.9,0.5,4.9c0,1.9-0.2,3.5-0.5,4.9c0.3,1.3,0.5,2.9,0.5,4.9c0,1.9-0.2,3.5-0.5,4.9
		c0.3,1.3,0.5,2.9,0.5,4.9c0,1.9-0.2,3.5-0.5,4.9c0.3,1.3,0.5,2.9,0.5,4.9c0,1.9-0.2,3.5-0.5,4.9c0.3,1.3,0.5,2.9,0.5,4.9
		c0,1.9-0.2,3.5-0.5,4.9h-9.8c-0.3-1.4-0.5-3-0.5-4.9c0-2,0.2-3.6,0.5-4.9h-3.7c-0.3-1.4-0.5-3-0.5-4.9c0-2,0.2-3.6,0.5-4.9h3.7
		c-0.3-1.4-0.5-3-0.5-4.9c0-2,0.2-3.6,0.5-4.9c-0.3-1.4-0.5-3-0.5-4.9c0-2,0.2-3.6,0.5-4.9c-0.3-1.4-0.5-3-0.5-4.9
		c0-2,0.2-3.6,0.5-4.9H293.7 M264.4,29.8c0.3,1.3,0.5,2.9,0.5,4.9c0,1.9-0.2,3.5-0.5,4.9c0.3,1.3,0.5,2.9,0.5,4.9
		c0,1.9-0.2,3.5-0.5,4.9c0.3,1.3,0.5,2.9,0.5,4.9c0,1.9-0.2,3.5-0.5,4.9h3.7c0.3,1.3,0.5,2.9,0.5,4.9c0,1.9-0.2,3.5-0.5,4.9h12.2
		c0.3,1.3,0.5,2.9,0.5,4.9c0,1.9-0.2,3.5-0.5,4.9h-19.5c-0.3-1.4-0.5-3-0.5-4.9c0-2,0.2-3.6,0.5-4.9h-6.1c-0.3-1.4-0.5-3-0.5-4.9
		c0-2,0.2-3.6,0.5-4.9c-0.3-1.4-0.5-3-0.5-4.9c0-2,0.2-3.6,0.5-4.9c-0.3-1.4-0.5-3-0.5-4.9c0-2,0.2-3.6,0.5-4.9
		c-0.3-1.4-0.5-3-0.5-4.9c0-2,0.2-3.6,0.5-4.9H264.4 M300.7,20.8h-7h-9.8h-7l-1.7,6.8c-0.5,2-0.8,4.3-0.8,7.1c0,1.8,0.1,3.4,0.3,4.9
		c-0.2,1.5-0.3,3.1-0.3,4.9c0,1.8,0.1,3.4,0.3,4.9c0,0.3-0.1,0.5-0.1,0.8h-1c0-0.3-0.1-0.5-0.1-0.8c0.2-1.5,0.3-3.1,0.3-4.9
		c0-1.8-0.1-3.4-0.3-4.9c0.2-1.5,0.3-3.1,0.3-4.9c0-2.7-0.2-5-0.8-7.1l-1.7-6.8h-7h-9.8h-7l-1.7,6.8c-0.5,2-0.8,4.4-0.8,7.1
		c0,1.8,0.1,3.4,0.3,4.9c-0.2,1.5-0.3,3.1-0.3,4.9c0,1.8,0.1,3.4,0.3,4.9c-0.2,1.5-0.3,3.1-0.3,4.9c0,1.8,0.1,3.4,0.3,4.9
		c-0.2,1.5-0.3,3.1-0.3,4.9c0,2.6,0.2,4.9,0.7,7l1.6,6.9h4c0.1,1,0.3,1.9,0.5,2.8l1.6,6.9h7.1h16.1h7.1h9.8h7.1l1.6-6.9
		c0.5-2.1,0.7-4.4,0.7-6.9c0-1.8-0.1-3.4-0.3-4.9c0.2-1.5,0.3-3.1,0.3-4.9c0-1.8-0.1-3.4-0.3-4.9c0.2-1.5,0.3-3.1,0.3-4.9
		c0-1.8-0.1-3.4-0.3-4.9c0.2-1.5,0.3-3.1,0.3-4.9c0-1.8-0.1-3.4-0.3-4.9c0.2-1.5,0.3-3.1,0.3-4.9c0-2.7-0.2-5-0.8-7.1L300.7,20.8
		L300.7,20.8z"/>
</g>
<g>
	<path class="st0" d="M314.5,83.1l-0.8-3.5c-0.4-1.7-0.6-3.7-0.6-5.9c0-0.1,0-0.3,0-0.4h-3.5l-0.8-3.5c-0.4-1.7-0.6-3.7-0.6-5.9
		c0-1.9,0.1-3.5,0.4-4.9c-0.3-1.5-0.4-3.1-0.4-4.9c0-1.9,0.1-3.5,0.4-4.9c-0.3-1.5-0.4-3.1-0.4-4.9c0-0.1,0-0.3,0-0.4h-8.3l-0.8-3.5
		c-0.4-1.7-0.6-3.7-0.6-5.9c0-2.3,0.2-4.3,0.6-6l0.9-3.4h8.3c0-0.1,0-0.3,0-0.4c0-1.9,0.1-3.5,0.4-4.9c-0.3-1.5-0.4-3.1-0.4-4.9
		c0-2.3,0.2-4.3,0.6-6l0.9-3.4h16.8l0.8,3.4c0.4,1.7,0.6,3.6,0.6,6c0,1.8-0.1,3.4-0.4,4.9c0.3,1.4,0.4,3,0.4,4.9c0,0.1,0,0.3,0,0.4
		h13.2l0.8,3.4c0.4,1.7,0.6,3.6,0.6,6c0,2.2-0.2,4.2-0.6,5.9l-0.8,3.5H328c0,0.1,0,0.3,0,0.4c0,1.8-0.1,3.4-0.4,4.9
		c0.3,1.4,0.4,3,0.4,4.9c0,1.8-0.1,3.4-0.4,4.9c0.3,1.4,0.4,3,0.4,4.9c0,0.1,0,0.3,0,0.4h13.2l0.8,3.4c0.4,1.7,0.6,3.6,0.6,6
		c0,2.2-0.2,4.2-0.6,5.9l-0.8,3.5H314.5z"/>
	<path d="M323,10.3c0.3,1.3,0.5,2.9,0.5,4.9c0,1.9-0.2,3.5-0.5,4.9c0.3,1.3,0.5,2.9,0.5,4.9c0,1.9-0.2,3.5-0.5,4.9h14.6
		c0.3,1.3,0.5,2.9,0.5,4.9c0,1.9-0.2,3.5-0.5,4.9H323c0.3,1.3,0.5,2.9,0.5,4.9c0,1.9-0.2,3.5-0.5,4.9c0.3,1.3,0.5,2.9,0.5,4.9
		c0,1.9-0.2,3.5-0.5,4.9c0.3,1.3,0.5,2.9,0.5,4.9c0,1.9-0.2,3.5-0.5,4.9h14.6c0.3,1.3,0.5,2.9,0.5,4.9c0,1.9-0.2,3.5-0.5,4.9h-19.5
		c-0.3-1.4-0.5-3-0.5-4.9c0-2,0.2-3.6,0.5-4.9h-4.9c-0.3-1.4-0.5-3-0.5-4.9c0-2,0.2-3.6,0.5-4.9c-0.3-1.4-0.5-3-0.5-4.9
		c0-2,0.2-3.6,0.5-4.9c-0.3-1.4-0.5-3-0.5-4.9c0-2,0.2-3.6,0.5-4.9h-9.8c-0.3-1.4-0.5-3-0.5-4.9c0-2,0.2-3.6,0.5-4.9h9.8
		c-0.3-1.4-0.5-3-0.5-4.9c0-2,0.2-3.6,0.5-4.9c-0.3-1.4-0.5-3-0.5-4.9c0-2,0.2-3.6,0.5-4.9H323 M330,1.3h-7h-9.8h-7l-1.7,6.8
		c-0.5,2-0.8,4.4-0.8,7.1c0,1.8,0.1,3.4,0.3,4.9c0,0.3-0.1,0.5-0.1,0.8h-0.5h-7l-1.7,6.8c-0.5,2-0.8,4.4-0.8,7.1
		c0,2.6,0.2,4.9,0.7,7l1.6,6.9h7.1h0.5c0,0.3,0.1,0.5,0.1,0.7c-0.2,1.5-0.3,3.1-0.3,4.9c0,1.8,0.1,3.4,0.3,4.9
		c-0.2,1.5-0.3,3.1-0.3,4.9c0,2.6,0.2,4.9,0.7,7l1.6,6.9h2.7c0.1,1,0.3,1.9,0.5,2.8l1.6,6.9h7.1h19.5h7.1l1.6-6.9
		c0.5-2.1,0.7-4.4,0.7-6.9c0-2.7-0.2-5-0.8-7.1l-1.7-6.8h-7h-5.4c0-0.3-0.1-0.5-0.1-0.8c0.2-1.5,0.3-3.1,0.3-4.9
		c0-1.8-0.1-3.4-0.3-4.9c0-0.2,0.1-0.5,0.1-0.7h5.4h7.1l1.6-6.9c0.5-2.1,0.7-4.4,0.7-6.9c0-2.7-0.2-5-0.8-7.1l-1.7-6.8h-7h-5.4
		c0-0.3-0.1-0.5-0.1-0.8c0.2-1.5,0.3-3.1,0.3-4.9c0-2.7-0.2-5-0.8-7.1L330,1.3L330,1.3z"/>
</g>
<g>
	<path class="st0" d="M378,83.1l-0.8-3.5c-0.4-1.7-0.6-3.7-0.6-5.9c0-1.9,0.1-3.5,0.4-4.9c-0.3-1.5-0.4-3.1-0.4-4.9
		c0-1.9,0.1-3.5,0.4-4.9c-0.3-1.5-0.4-3.1-0.4-4.9c0-1.9,0.1-3.5,0.4-4.9c-0.3-1.5-0.4-3.1-0.4-4.9c0-0.1,0-0.3,0-0.4h-5.9
		c0,0.1,0,0.3,0,0.4c0,2.2-0.2,4.2-0.6,5.9l-0.8,3.5H367c0,0.1,0,0.3,0,0.4c0,1.8-0.1,3.4-0.4,4.9c0.3,1.4,0.4,3,0.4,4.9
		c0,1.8-0.1,3.4-0.4,4.9c0.3,1.4,0.4,3,0.4,4.9c0,2.2-0.2,4.2-0.6,5.9l-0.8,3.5h-16.9l-0.8-3.5c-0.4-1.7-0.6-3.7-0.6-5.9
		c0-1.9,0.1-3.5,0.4-4.9c-0.3-1.5-0.4-3.1-0.4-4.9c0-1.9,0.1-3.5,0.4-4.9c-0.3-1.5-0.4-3.1-0.4-4.9c0-1.9,0.1-3.5,0.4-4.9
		c-0.3-1.5-0.4-3.1-0.4-4.9c0-1.9,0.1-3.5,0.4-4.9c-0.3-1.5-0.4-3.1-0.4-4.9c0-2.3,0.2-4.3,0.6-6l0.9-3.4h40l0.8,3.4
		c0.4,1.7,0.6,3.6,0.6,6c0,0.1,0,0.3,0,0.4h4.6l0.9,3.4c0.4,1.7,0.6,3.6,0.6,6c0,1.8-0.1,3.4-0.4,4.9c0.3,1.4,0.4,3,0.4,4.9
		c0,1.8-0.1,3.4-0.4,4.9c0.3,1.4,0.4,3,0.4,4.9c0,1.8-0.1,3.4-0.4,4.9c0.3,1.4,0.4,3,0.4,4.9c0,2.2-0.2,4.2-0.6,5.9l-0.8,3.5H378z"
		/>
	<path d="M385.2,29.8c0.3,1.3,0.5,2.9,0.5,4.9c0,1.9-0.2,3.5-0.5,4.9h6.1c0.3,1.3,0.5,2.9,0.5,4.9c0,1.9-0.2,3.5-0.5,4.9
		c0.3,1.3,0.5,2.9,0.5,4.9c0,1.9-0.2,3.5-0.5,4.9c0.3,1.3,0.5,2.9,0.5,4.9c0,1.9-0.2,3.5-0.5,4.9c0.3,1.3,0.5,2.9,0.5,4.9
		c0,1.9-0.2,3.5-0.5,4.9h-9.8c-0.3-1.4-0.5-3-0.5-4.9c0-2,0.2-3.6,0.5-4.9c-0.3-1.4-0.5-3-0.5-4.9c0-2,0.2-3.6,0.5-4.9
		c-0.3-1.4-0.5-3-0.5-4.9c0-2,0.2-3.6,0.5-4.9c-0.3-1.4-0.5-3-0.5-4.9c0-2,0.2-3.6,0.5-4.9h-15.9c-0.3-1.4-0.5-3-0.5-4.9
		c0-2,0.2-3.6,0.5-4.9H385.2 M360.8,29.8c0.3,1.3,0.5,2.9,0.5,4.9c0,1.9-0.2,3.5-0.5,4.9h4.9c0.3,1.3,0.5,2.9,0.5,4.9
		c0,1.9-0.2,3.5-0.5,4.9H362c0.3,1.3,0.5,2.9,0.5,4.9c0,1.9-0.2,3.5-0.5,4.9c0.3,1.3,0.5,2.9,0.5,4.9c0,1.9-0.2,3.5-0.5,4.9
		c0.3,1.3,0.5,2.9,0.5,4.9c0,1.9-0.2,3.5-0.5,4.9h-9.8c-0.3-1.4-0.5-3-0.5-4.9c0-2,0.2-3.6,0.5-4.9c-0.3-1.4-0.5-3-0.5-4.9
		c0-2,0.2-3.6,0.5-4.9c-0.3-1.4-0.5-3-0.5-4.9c0-2,0.2-3.6,0.5-4.9c-0.3-1.4-0.5-3-0.5-4.9c0-2,0.2-3.6,0.5-4.9
		c-0.3-1.4-0.5-3-0.5-4.9c0-2,0.2-3.6,0.5-4.9H360.8 M392.3,20.8h-7h-17.4h-7h-8.5h-7l-1.7,6.8c-0.5,2-0.8,4.4-0.8,7.1
		c0,1.8,0.1,3.4,0.3,4.9c-0.2,1.5-0.3,3.1-0.3,4.9c0,1.8,0.1,3.4,0.3,4.9c-0.2,1.5-0.3,3.1-0.3,4.9c0,1.8,0.1,3.4,0.3,4.9
		c-0.2,1.5-0.3,3.1-0.3,4.9c0,1.8,0.1,3.4,0.3,4.9c-0.2,1.5-0.3,3.1-0.3,4.9c0,2.6,0.2,4.9,0.7,7l1.6,6.9h7.1h9.8h7.1l1.6-6.9
		c0.5-2.1,0.7-4.4,0.7-6.9c0-1.8-0.1-3.4-0.3-4.9c0.2-1.5,0.3-3.1,0.3-4.9c0-1.8-0.1-3.4-0.3-4.9c0-0.2,0.1-0.5,0.1-0.7h1
		c0,0.3,0.1,0.5,0.1,0.7c-0.2,1.5-0.3,3.1-0.3,4.9c0,1.8,0.1,3.4,0.3,4.9c-0.2,1.5-0.3,3.1-0.3,4.9c0,2.6,0.2,4.9,0.7,6.9l1.6,6.9
		h7.1h9.8h7.1l1.6-6.9c0.5-2.1,0.7-4.4,0.7-6.9c0-1.8-0.1-3.4-0.3-4.9c0.2-1.5,0.3-3.1,0.3-4.9c0-1.8-0.1-3.4-0.3-4.9
		c0.2-1.5,0.3-3.1,0.3-4.9c0-1.8-0.1-3.4-0.3-4.9c0.2-1.5,0.3-3.1,0.3-4.9c0-2.7-0.2-5-0.8-7.1l-1.7-6.8h-3.9c-0.1-1-0.3-2-0.5-2.9
		L392.3,20.8L392.3,20.8z"/>
</g>
<g>
	<path class="st0" d="M402.4,83.1l-0.8-3.5c-0.4-1.7-0.6-3.7-0.6-5.9c0-0.1,0-0.3,0-0.4h-3.5l-0.8-3.5c-0.4-1.7-0.6-3.7-0.6-5.9
		c0-2.3,0.2-4.3,0.6-6l0.9-3.4h3.4c0-0.1,0-0.3,0-0.4c0-2.3,0.2-4.3,0.6-6l0.9-3.4h18.1c0-0.1,0-0.6,0-0.8h-15.7l-0.8-3.5
		c-0.4-1.7-0.6-3.7-0.6-5.9c0-2.3,0.2-4.3,0.6-6l0.9-3.4h29l0.9,3.4c0.4,1.7,0.6,3.6,0.6,6c0,0.1,0,0.3,0,0.4h3.4l0.9,3.4
		c0.4,1.7,0.6,3.6,0.6,6c0,1.8-0.1,3.4-0.4,4.9c0.3,1.4,0.4,3,0.4,4.9c0,1.8-0.1,3.4-0.4,4.9c0.3,1.4,0.4,3,0.4,4.9
		c0,0.1,0,0.3,0,0.4h3.4l0.8,3.4c0.4,1.7,0.6,3.6,0.6,6c0,2.2-0.2,4.2-0.6,5.9l-0.8,3.5H402.4z M420.5,64.4c0-0.1,0-0.6,0-0.8h-4.7
		c0,0.1,0,0.6,0,0.8H420.5z M422,24.5l-0.8-3.5c-0.2-1-0.4-2.1-0.5-3.3c-0.1,1.2-0.3,2.3-0.5,3.3l-0.8,3.5h-16.9l-0.8-3.5
		c-0.4-1.7-0.6-3.7-0.6-5.9c0-2.3,0.2-4.3,0.6-6l0.9-3.4h16.8l0.8,3.4c0.2,1,0.4,2.1,0.5,3.3c0.1-1.2,0.3-2.3,0.5-3.3l0.9-3.4h16.8
		l0.8,3.4c0.4,1.7,0.6,3.6,0.6,6c0,2.2-0.2,4.2-0.6,5.9l-0.8,3.5H422z"/>
	<path d="M435.3,10.3c0.3,1.3,0.5,2.9,0.5,4.9c0,1.9-0.2,3.5-0.5,4.9h-9.8c-0.3-1.4-0.5-3-0.5-4.9c0-2,0.2-3.6,0.5-4.9H435.3
		 M415.8,10.3c0.3,1.3,0.5,2.9,0.5,4.9c0,1.9-0.2,3.5-0.5,4.9H406c-0.3-1.4-0.5-3-0.5-4.9c0-2,0.2-3.6,0.5-4.9H415.8 M430.4,29.8
		c0.3,1.3,0.5,2.9,0.5,4.9c0,1.9-0.2,3.5-0.5,4.9h4.9c0.3,1.3,0.5,2.9,0.5,4.9c0,1.9-0.2,3.5-0.5,4.9c0.3,1.3,0.5,2.9,0.5,4.9
		c0,1.9-0.2,3.5-0.5,4.9c0.3,1.3,0.5,2.9,0.5,4.9c0,1.9-0.2,3.5-0.5,4.9h4.9c0.3,1.3,0.5,2.9,0.5,4.9c0,1.9-0.2,3.5-0.5,4.9h-9.8
		c-0.3-1.4-0.5-3-0.5-4.9c0-2,0.2-3.6,0.5-4.9h-4.9c-0.3-1.4-0.5-3-0.5-4.9c0-2,0.2-3.6,0.5-4.9h-14.6c0.3,1.3,0.5,2.9,0.5,4.9
		c0,1.9-0.2,3.5-0.5,4.9h14.6c0.3,1.3,0.5,2.9,0.5,4.9c0,1.9-0.2,3.5-0.5,4.9H406c-0.3-1.4-0.5-3-0.5-4.9c0-2,0.2-3.6,0.5-4.9h-4.9
		c-0.3-1.4-0.5-3-0.5-4.9c0-2,0.2-3.6,0.5-4.9h4.9c-0.3-1.4-0.5-3-0.5-4.9c0-2,0.2-3.6,0.5-4.9h19.5c-0.3-1.4-0.5-3-0.5-4.9
		c0-2,0.2-3.6,0.5-4.9h-17.1c-0.3-1.4-0.5-3-0.5-4.9c0-2,0.2-3.6,0.5-4.9H430.4 M442.3,1.3h-7h-9.8h-2.7h-7H406h-7l-1.7,6.8
		c-0.5,2-0.8,4.3-0.8,7.1c0,2.6,0.2,4.9,0.7,6.9l1.6,6.9h0.5c-0.3,1.7-0.5,3.5-0.5,5.7c0,2.1,0.2,3.9,0.5,5.7H399l-1.7,6.8
		c-0.2,0.9-0.4,1.9-0.5,3h-2.6l-1.7,6.8c-0.5,2-0.8,4.4-0.8,7.1c0,2.6,0.2,4.9,0.7,7l1.6,6.9h2.7c0.1,1,0.3,1.9,0.5,2.8l1.6,6.9h7.1
		h19.5h7.1h7.5h7.1l1.6-6.9c0.5-2.1,0.7-4.4,0.7-6.9c0-2.7-0.2-5-0.8-7.1l-1.7-6.8h-2.7c0-0.3-0.1-0.5-0.1-0.8
		c0.2-1.5,0.3-3.1,0.3-4.9c0-1.8-0.1-3.4-0.3-4.9c0.2-1.5,0.3-3.1,0.3-4.9c0-2.7-0.2-5-0.8-7.1l-1.7-6.8h-2.7
		c-0.1-0.5-0.1-1-0.2-1.5h3l1.6-6.9c0.5-2.1,0.7-4.4,0.7-6.9c0-2.7-0.2-5-0.8-7.1L442.3,1.3L442.3,1.3z"/>
</g>
<g>
	<path class="st0" d="M446.4,83.1l-0.8-3.5c-0.4-1.7-0.6-3.7-0.6-5.9c0-1.9,0.1-3.5,0.4-4.9c-0.3-1.5-0.4-3.1-0.4-4.9
		c0-1.9,0.1-3.5,0.4-4.9c-0.3-1.5-0.4-3.1-0.4-4.9c0-1.9,0.1-3.5,0.4-4.9c-0.3-1.5-0.4-3.1-0.4-4.9c0-1.9,0.1-3.5,0.4-4.9
		c-0.3-1.5-0.4-3.1-0.4-4.9c0-2.3,0.2-4.3,0.6-6l0.9-3.4h41.2l0.8,3.4c0.4,1.7,0.6,3.6,0.6,6c0,0.1,0,0.3,0,0.4h3.4l0.9,3.4
		c0.4,1.7,0.6,3.6,0.6,6c0,1.8-0.1,3.4-0.4,4.9c0.3,1.4,0.4,3,0.4,4.9c0,1.8-0.1,3.4-0.4,4.9c0.3,1.4,0.4,3,0.4,4.9
		c0,1.8-0.1,3.4-0.4,4.9c0.3,1.4,0.4,3,0.4,4.9c0,2.2-0.2,4.2-0.6,5.9l-0.8,3.5H446.4z"/>
	<path d="M484.1,29.8c0.3,1.3,0.5,2.9,0.5,4.9c0,1.9-0.2,3.5-0.5,4.9h4.9c0.3,1.3,0.5,2.9,0.5,4.9c0,1.9-0.2,3.5-0.5,4.9
		c0.3,1.3,0.5,2.9,0.5,4.9c0,1.9-0.2,3.5-0.5,4.9c0.3,1.3,0.5,2.9,0.5,4.9c0,1.9-0.2,3.5-0.5,4.9c0.3,1.3,0.5,2.9,0.5,4.9
		c0,1.9-0.2,3.5-0.5,4.9h-9.8c-0.3-1.4-0.5-3-0.5-4.9c0-2,0.2-3.6,0.5-4.9c-0.3-1.4-0.5-3-0.5-4.9c0-2,0.2-3.6,0.5-4.9
		c-0.3-1.4-0.5-3-0.5-4.9c0-2,0.2-3.6,0.5-4.9c-0.3-1.4-0.5-3-0.5-4.9c0-2,0.2-3.6,0.5-4.9h-6.1c-0.3-1.4-0.5-3-0.5-4.9
		c0-2,0.2-3.6,0.5-4.9H484.1 M469.5,29.8c0.3,1.3,0.5,2.9,0.5,4.9c0,1.9-0.2,3.5-0.5,4.9h3.7c0.3,1.3,0.5,2.9,0.5,4.9
		c0,1.9-0.2,3.5-0.5,4.9c0.3,1.3,0.5,2.9,0.5,4.9c0,1.9-0.2,3.5-0.5,4.9c0.3,1.3,0.5,2.9,0.5,4.9c0,1.9-0.2,3.5-0.5,4.9
		c0.3,1.3,0.5,2.9,0.5,4.9c0,1.9-0.2,3.5-0.5,4.9h-7.3c-0.3-1.4-0.5-3-0.5-4.9c0-2,0.2-3.6,0.5-4.9c-0.3-1.4-0.5-3-0.5-4.9
		c0-2,0.2-3.6,0.5-4.9c-0.3-1.4-0.5-3-0.5-4.9c0-2,0.2-3.6,0.5-4.9c-0.3-1.4-0.5-3-0.5-4.9c0-2,0.2-3.6,0.5-4.9h-6.1
		c-0.3-1.4-0.5-3-0.5-4.9c0-2,0.2-3.6,0.5-4.9H469.5 M456,29.8c0.3,1.3,0.5,2.9,0.5,4.9c0,1.9-0.2,3.5-0.5,4.9h3.7
		c0.3,1.3,0.5,2.9,0.5,4.9c0,1.9-0.2,3.5-0.5,4.9c0.3,1.3,0.5,2.9,0.5,4.9c0,1.9-0.2,3.5-0.5,4.9c0.3,1.3,0.5,2.9,0.5,4.9
		c0,1.9-0.2,3.5-0.5,4.9c0.3,1.3,0.5,2.9,0.5,4.9c0,1.9-0.2,3.5-0.5,4.9h-9.8c-0.3-1.4-0.5-3-0.5-4.9c0-2,0.2-3.6,0.5-4.9
		c-0.3-1.4-0.5-3-0.5-4.9c0-2,0.2-3.6,0.5-4.9c-0.3-1.4-0.5-3-0.5-4.9c0-2,0.2-3.6,0.5-4.9c-0.3-1.4-0.5-3-0.5-4.9
		c0-2,0.2-3.6,0.5-4.9c-0.3-1.4-0.5-3-0.5-4.9c0-2,0.2-3.6,0.5-4.9H456 M491.2,20.8h-7h-7.6h-7h-6.4h-7h-6.1h-7l-1.7,6.8
		c-0.5,2-0.8,4.4-0.8,7.1c0,1.8,0.1,3.4,0.3,4.9c-0.2,1.5-0.3,3.1-0.3,4.9c0,1.8,0.1,3.4,0.3,4.9c-0.2,1.5-0.3,3.1-0.3,4.9
		c0,1.8,0.1,3.4,0.3,4.9c-0.2,1.5-0.3,3.1-0.3,4.9c0,1.8,0.1,3.4,0.3,4.9c-0.2,1.5-0.3,3.1-0.3,4.9c0,2.6,0.2,4.9,0.7,7l1.6,6.9h7.1
		h8.7h7.1h6.3h7.1h9.8h7.1l1.6-6.9c0.5-2.1,0.7-4.4,0.7-6.9c0-1.8-0.1-3.4-0.3-4.9c0.2-1.5,0.3-3.1,0.3-4.9c0-1.8-0.1-3.4-0.3-4.9
		c0.2-1.5,0.3-3.1,0.3-4.9c0-1.8-0.1-3.4-0.3-4.9c0.2-1.5,0.3-3.1,0.3-4.9c0-2.7-0.2-5-0.8-7.1l-1.7-6.8h-2.7c-0.1-1-0.3-2-0.5-2.9
		L491.2,20.8L491.2,20.8z"/>
</g>
<g>
	<path class="st0" d="M524.5,83.1l-0.8-3.5c-0.4-1.7-0.6-3.7-0.6-5.9c0-1.9,0.1-3.5,0.4-4.9c-0.3-1.5-0.4-3.1-0.4-4.9
		c0-1.9,0.1-3.5,0.4-4.9c-0.3-1.5-0.4-3.1-0.4-4.9c0-1.9,0.1-3.5,0.4-4.9c-0.3-1.5-0.4-3.1-0.4-4.9c0-0.1,0-0.3,0-0.4h-5.9
		c0,0.1,0,0.3,0,0.4c0,2.2-0.2,4.2-0.6,5.9l-0.8,3.5h-2.2c0,0.1,0,0.3,0,0.4c0,1.8-0.1,3.4-0.4,4.9c0.3,1.4,0.4,3,0.4,4.9
		c0,1.8-0.1,3.4-0.4,4.9c0.3,1.4,0.4,3,0.4,4.9c0,2.2-0.2,4.2-0.6,5.9l-0.8,3.5h-16.9l-0.8-3.5c-0.4-1.7-0.6-3.7-0.6-5.9
		c0-1.9,0.1-3.5,0.4-4.9c-0.3-1.5-0.4-3.1-0.4-4.9c0-1.9,0.1-3.5,0.4-4.9c-0.3-1.5-0.4-3.1-0.4-4.9c0-1.9,0.1-3.5,0.4-4.9
		c-0.3-1.5-0.4-3.1-0.4-4.9c0-1.9,0.1-3.5,0.4-4.9c-0.3-1.5-0.4-3.1-0.4-4.9c0-2.3,0.2-4.3,0.6-6l0.9-3.4h40l0.8,3.4
		c0.4,1.7,0.6,3.6,0.6,6c0,0.1,0,0.3,0,0.4h4.6l0.9,3.4c0.4,1.7,0.6,3.6,0.6,6c0,1.8-0.1,3.4-0.4,4.9c0.3,1.4,0.4,3,0.4,4.9
		c0,1.8-0.1,3.4-0.4,4.9c0.3,1.4,0.4,3,0.4,4.9c0,1.8-0.1,3.4-0.4,4.9c0.3,1.4,0.4,3,0.4,4.9c0,2.2-0.2,4.2-0.6,5.9l-0.8,3.5H524.5z
		"/>
	<path d="M531.7,29.8c0.3,1.3,0.5,2.9,0.5,4.9c0,1.9-0.2,3.5-0.5,4.9h6.1c0.3,1.3,0.5,2.9,0.5,4.9c0,1.9-0.2,3.5-0.5,4.9
		c0.3,1.3,0.5,2.9,0.5,4.9c0,1.9-0.2,3.5-0.5,4.9c0.3,1.3,0.5,2.9,0.5,4.9c0,1.9-0.2,3.5-0.5,4.9c0.3,1.3,0.5,2.9,0.5,4.9
		c0,1.9-0.2,3.5-0.5,4.9h-9.8c-0.3-1.4-0.5-3-0.5-4.9c0-2,0.2-3.6,0.5-4.9c-0.3-1.4-0.5-3-0.5-4.9c0-2,0.2-3.6,0.5-4.9
		c-0.3-1.4-0.5-3-0.5-4.9c0-2,0.2-3.6,0.5-4.9c-0.3-1.4-0.5-3-0.5-4.9c0-2,0.2-3.6,0.5-4.9h-15.9c-0.3-1.4-0.5-3-0.5-4.9
		c0-2,0.2-3.6,0.5-4.9H531.7 M507.3,29.8c0.3,1.3,0.5,2.9,0.5,4.9c0,1.9-0.2,3.5-0.5,4.9h4.9c0.3,1.3,0.5,2.9,0.5,4.9
		c0,1.9-0.2,3.5-0.5,4.9h-3.7c0.3,1.3,0.5,2.9,0.5,4.9c0,1.9-0.2,3.5-0.5,4.9c0.3,1.3,0.5,2.9,0.5,4.9c0,1.9-0.2,3.5-0.5,4.9
		c0.3,1.3,0.5,2.9,0.5,4.9c0,1.9-0.2,3.5-0.5,4.9h-9.8c-0.3-1.4-0.5-3-0.5-4.9c0-2,0.2-3.6,0.5-4.9c-0.3-1.4-0.5-3-0.5-4.9
		c0-2,0.2-3.6,0.5-4.9c-0.3-1.4-0.5-3-0.5-4.9c0-2,0.2-3.6,0.5-4.9c-0.3-1.4-0.5-3-0.5-4.9c0-2,0.2-3.6,0.5-4.9
		c-0.3-1.4-0.5-3-0.5-4.9c0-2,0.2-3.6,0.5-4.9H507.3 M538.8,20.8h-7h-17.4h-7h-8.5h-7l-1.7,6.8c-0.5,2-0.8,4.4-0.8,7.1
		c0,1.8,0.1,3.4,0.3,4.9c-0.2,1.5-0.3,3.1-0.3,4.9c0,1.8,0.1,3.4,0.3,4.9c-0.2,1.5-0.3,3.1-0.3,4.9c0,1.8,0.1,3.4,0.3,4.9
		c-0.2,1.5-0.3,3.1-0.3,4.9c0,1.8,0.1,3.4,0.3,4.9c-0.2,1.5-0.3,3.1-0.3,4.9c0,2.6,0.2,4.9,0.7,7l1.6,6.9h7.1h9.8h7.1l1.6-6.9
		c0.5-2.1,0.7-4.4,0.7-6.9c0-1.8-0.1-3.4-0.3-4.9c0.2-1.5,0.3-3.1,0.3-4.9c0-1.8-0.1-3.4-0.3-4.9c0-0.2,0.1-0.5,0.1-0.7h1
		c0,0.3,0.1,0.5,0.1,0.7c-0.2,1.5-0.3,3.1-0.3,4.9c0,1.8,0.1,3.4,0.3,4.9c-0.2,1.5-0.3,3.1-0.3,4.9c0,2.6,0.2,4.9,0.7,6.9l1.6,6.9
		h7.1h9.8h7.1l1.6-6.9c0.5-2.1,0.7-4.4,0.7-6.9c0-1.8-0.1-3.4-0.3-4.9c0.2-1.5,0.3-3.1,0.3-4.9c0-1.8-0.1-3.4-0.3-4.9
		c0.2-1.5,0.3-3.1,0.3-4.9c0-1.8-0.1-3.4-0.3-4.9c0.2-1.5,0.3-3.1,0.3-4.9c0-2.7-0.2-5-0.8-7.1l-1.7-6.8H541c-0.1-1-0.3-2-0.5-2.9
		L538.8,20.8L538.8,20.8z"/>
</g>
<g>
	<path class="st0" d="M553.8,83.1l-0.8-3.5c-0.4-1.7-0.6-3.7-0.6-5.9c0-0.1,0-0.3,0-0.4h-4.7l-0.8-3.5c-0.4-1.7-0.6-3.7-0.6-5.9
		c0-0.1,0-0.3,0-0.4H544l-0.8-3.5c-0.4-1.7-0.6-3.7-0.6-5.9c0-2.3,0.2-4.3,0.6-6l0.9-3.4h2.2c0-0.1,0-0.3,0-0.4c0-2.3,0.2-4.3,0.6-6
		l0.9-3.4h4.6c0-0.1,0-0.3,0-0.4c0-2.3,0.2-4.3,0.6-6l0.9-3.4h18.1c0-0.1,0-0.3,0-0.4c0-1.9,0.1-3.5,0.4-4.9
		c-0.3-1.5-0.4-3.1-0.4-4.9c0-2.3,0.2-4.3,0.6-6l0.9-3.4h16.8l0.8,3.4c0.4,1.7,0.6,3.6,0.6,6c0,1.8-0.1,3.4-0.4,4.9
		c0.3,1.4,0.4,3,0.4,4.9c0,1.8-0.1,3.4-0.4,4.9c0.3,1.4,0.4,3,0.4,4.9c0,1.8-0.1,3.4-0.4,4.9c0.3,1.4,0.4,3,0.4,4.9
		c0,1.8-0.1,3.4-0.4,4.9c0.3,1.4,0.4,3,0.4,4.9c0,1.8-0.1,3.4-0.4,4.9c0.3,1.4,0.4,3,0.4,4.9c0,1.8-0.1,3.4-0.4,4.9
		c0.3,1.4,0.4,3,0.4,4.9c0,2.2-0.2,4.2-0.6,5.9l-0.8,3.5H553.8z M568.3,64.4c0-0.1,0-0.3,0-0.4c0-2.3,0.2-4.3,0.6-6l0.9-3.4h2.2
		c0-0.1,0-0.6,0-0.8h-2.2l-0.8-3.5c-0.4-1.7-0.6-3.7-0.6-5.9c0-0.1,0-0.3,0-0.4h-4.7c0,0.1,0,0.3,0,0.4c0,2.2-0.2,4.2-0.6,5.9
		l-0.8,3.5h-2.2c0,0.1,0,0.6,0,0.8h2.2L563,58c0.4,1.7,0.6,3.6,0.6,6c0,0.1,0,0.3,0,0.4H568.3z"/>
	<path d="M586.7,10.3c0.3,1.3,0.5,2.9,0.5,4.9c0,1.9-0.2,3.5-0.5,4.9c0.3,1.3,0.5,2.9,0.5,4.9c0,1.9-0.2,3.5-0.5,4.9
		c0.3,1.3,0.5,2.9,0.5,4.9c0,1.9-0.2,3.5-0.5,4.9c0.3,1.3,0.5,2.9,0.5,4.9c0,1.9-0.2,3.5-0.5,4.9c0.3,1.3,0.5,2.9,0.5,4.9
		c0,1.9-0.2,3.5-0.5,4.9c0.3,1.3,0.5,2.9,0.5,4.9c0,1.9-0.2,3.5-0.5,4.9c0.3,1.3,0.5,2.9,0.5,4.9c0,1.9-0.2,3.5-0.5,4.9h-9.8
		c-0.3-1.4-0.5-3-0.5-4.9c0-2,0.2-3.6,0.5-4.9h-3.7c-0.3-1.4-0.5-3-0.5-4.9c0-2,0.2-3.6,0.5-4.9h3.7c-0.3-1.4-0.5-3-0.5-4.9
		c0-2,0.2-3.6,0.5-4.9h-3.7c-0.3-1.4-0.5-3-0.5-4.9c0-2,0.2-3.6,0.5-4.9h3.7c-0.3-1.4-0.5-3-0.5-4.9c0-2,0.2-3.6,0.5-4.9
		c-0.3-1.4-0.5-3-0.5-4.9c0-2,0.2-3.6,0.5-4.9c-0.3-1.4-0.5-3-0.5-4.9c0-2,0.2-3.6,0.5-4.9H586.7 M570.8,29.8
		c0.3,1.3,0.5,2.9,0.5,4.9c0,1.9-0.2,3.5-0.5,4.9h-12.2c0.3,1.3,0.5,2.9,0.5,4.9c0,1.9-0.2,3.5-0.5,4.9h-3.7
		c0.3,1.3,0.5,2.9,0.5,4.9c0,1.9-0.2,3.5-0.5,4.9h3.7c0.3,1.3,0.5,2.9,0.5,4.9c0,1.9-0.2,3.5-0.5,4.9h12.2c0.3,1.3,0.5,2.9,0.5,4.9
		c0,1.9-0.2,3.5-0.5,4.9h-13.4c-0.3-1.4-0.5-3-0.5-4.9c0-2,0.2-3.6,0.5-4.9h-6.1c-0.3-1.4-0.5-3-0.5-4.9c0-2,0.2-3.6,0.5-4.9h-3.7
		c-0.3-1.4-0.5-3-0.5-4.9c0-2,0.2-3.6,0.5-4.9h3.7c-0.3-1.4-0.5-3-0.5-4.9c0-2,0.2-3.6,0.5-4.9h6.1c-0.3-1.4-0.5-3-0.5-4.9
		c0-2,0.2-3.6,0.5-4.9H570.8 M593.7,1.3h-7h-9.8h-7l-1.7,6.8c-0.5,2-0.8,4.3-0.8,7.1c0,1.8,0.1,3.4,0.3,4.9c0,0.3-0.1,0.5-0.1,0.8
		h-10.3h-7l-1.7,6.8c-0.2,0.9-0.4,1.9-0.5,3h-3.9l-1.7,6.8c-0.2,0.9-0.4,1.9-0.5,3h-1.4l-1.7,6.8c-0.5,2-0.8,4.4-0.8,7.1
		c0,2.6,0.2,4.9,0.7,7l1.6,6.9h1.5c0.1,1,0.3,1.9,0.5,2.8l1.6,6.9h4c0.1,1,0.3,1.9,0.5,2.8l1.6,6.9h7.1h12.4h7.1h9.8h7.1l1.6-6.9
		c0.5-2.1,0.7-4.4,0.7-6.9c0-1.8-0.1-3.4-0.3-4.9c0.2-1.5,0.3-3.1,0.3-4.9c0-1.8-0.1-3.4-0.3-4.9c0.2-1.5,0.3-3.1,0.3-4.9
		c0-1.8-0.1-3.4-0.3-4.9c0.2-1.5,0.3-3.1,0.3-4.9c0-1.8-0.1-3.4-0.3-4.9c0.2-1.5,0.3-3.1,0.3-4.9c0-1.8-0.1-3.4-0.3-4.9
		c0.2-1.5,0.3-3.1,0.3-4.9c0-1.8-0.1-3.4-0.3-4.9c0.2-1.5,0.3-3.1,0.3-4.9c0-2.7-0.2-5-0.8-7.1L593.7,1.3L593.7,1.3z"/>
</g>
<g>
	<path class="st0" d="M597.8,83.1l-0.8-3.5c-0.4-1.7-0.6-3.7-0.6-5.9c0-0.1,0-0.3,0-0.4h-3.5l-0.8-3.5c-0.4-1.7-0.6-3.7-0.6-5.9
		c0-2.3,0.2-4.3,0.6-6l0.9-3.4h3.4c0-0.1,0-0.3,0-0.4c0-2.3,0.2-4.3,0.6-6l0.9-3.4h18.1c0-0.1,0-0.6,0-0.8h-15.7l-0.8-3.5
		c-0.4-1.7-0.6-3.7-0.6-5.9c0-2.3,0.2-4.3,0.6-6l0.9-3.4h29l0.8,3.4c0.4,1.7,0.6,3.6,0.6,6c0,0.1,0,0.3,0,0.4h3.4l0.9,3.4
		c0.4,1.7,0.6,3.6,0.6,6c0,1.8-0.1,3.4-0.4,4.9c0.3,1.4,0.4,3,0.4,4.9c0,1.8-0.1,3.4-0.4,4.9c0.3,1.4,0.4,3,0.4,4.9
		c0,0.1,0,0.3,0,0.4h3.4l0.9,3.4c0.4,1.7,0.6,3.6,0.6,6c0,2.2-0.2,4.2-0.6,5.9l-0.8,3.5H597.8z M615.9,64.4c0-0.1,0-0.6,0-0.8h-4.7
		c0,0.1,0,0.6,0,0.8H615.9z"/>
	<path d="M625.7,29.8c0.3,1.3,0.5,2.9,0.5,4.9c0,1.9-0.2,3.5-0.5,4.9h4.9c0.3,1.3,0.5,2.9,0.5,4.9c0,1.9-0.2,3.5-0.5,4.9
		c0.3,1.3,0.5,2.9,0.5,4.9c0,1.9-0.2,3.5-0.5,4.9c0.3,1.3,0.5,2.9,0.5,4.9c0,1.9-0.2,3.5-0.5,4.9h4.9c0.3,1.3,0.5,2.9,0.5,4.9
		c0,1.9-0.2,3.5-0.5,4.9h-9.8c-0.3-1.4-0.5-3-0.5-4.9c0-2,0.2-3.6,0.5-4.9h-4.9c-0.3-1.4-0.5-3-0.5-4.9c0-2,0.2-3.6,0.5-4.9h-14.6
		c0.3,1.3,0.5,2.9,0.5,4.9c0,1.9-0.2,3.5-0.5,4.9h14.6c0.3,1.3,0.5,2.9,0.5,4.9c0,1.9-0.2,3.5-0.5,4.9h-19.5c-0.3-1.4-0.5-3-0.5-4.9
		c0-2,0.2-3.6,0.5-4.9h-4.9c-0.3-1.4-0.5-3-0.5-4.9c0-2,0.2-3.6,0.5-4.9h4.9c-0.3-1.4-0.5-3-0.5-4.9c0-2,0.2-3.6,0.5-4.9h19.5
		c-0.3-1.4-0.5-3-0.5-4.9c0-2,0.2-3.6,0.5-4.9h-17.1c-0.3-1.4-0.5-3-0.5-4.9c0-2,0.2-3.6,0.5-4.9H625.7 M632.8,20.8h-7h-22h-7
		l-1.7,6.8c-0.5,2-0.8,4.3-0.8,7.1c0,2.1,0.2,3.9,0.5,5.7h-0.4l-1.7,6.8c-0.2,0.9-0.4,1.9-0.5,3h-2.6l-1.7,6.8
		c-0.5,2-0.8,4.4-0.8,7.1c0,2.6,0.2,4.9,0.7,7l1.6,6.9h2.7c0.1,1,0.3,1.9,0.5,2.8l1.6,6.9h7.1h19.5h7.1h7.5h7.1l1.6-6.9
		c0.5-2.1,0.7-4.4,0.7-6.9c0-2.7-0.2-5-0.8-7.1l-1.7-6.8h-2.7c0-0.3-0.1-0.5-0.1-0.8c0.2-1.5,0.3-3.1,0.3-4.9c0-1.8-0.1-3.4-0.3-4.9
		c0.2-1.5,0.3-3.1,0.3-4.9c0-2.7-0.2-5-0.8-7.1l-1.7-6.8H635c-0.1-1-0.3-2-0.5-2.9L632.8,20.8L632.8,20.8z"/>
</g>
<g>
	<path class="st0" d="M38.6,174.3l-0.8-3.5c-0.4-1.7-0.6-3.7-0.6-5.9c0-2.3,0.2-4.3,0.6-6l0.9-3.4h31.4L71,159
		c0.4,1.7,0.6,3.6,0.6,6c0,2.2-0.2,4.2-0.6,5.9l-0.8,3.5H38.6z"/>
	<path d="M66.6,160.1c0.3,1.3,0.5,2.9,0.5,4.9c0,1.9-0.2,3.5-0.5,4.9H42.2c-0.3-1.4-0.5-3-0.5-4.9c0-2,0.2-3.6,0.5-4.9H66.6
		 M73.6,151.1h-7H42.2h-7l-1.7,6.8c-0.5,2-0.8,4.3-0.8,7.1c0,2.6,0.2,4.9,0.7,6.9l1.6,6.9h7.1h24.4h7.1l1.6-6.9
		c0.5-2.1,0.7-4.4,0.7-6.9c0-2.7-0.2-5-0.8-7.1L73.6,151.1L73.6,151.1z"/>
</g>
<g>
	<path class="st0" d="M158.3,203.6l-0.8-3.5c-0.4-1.7-0.6-3.7-0.6-5.9c0-0.1,0-0.3,0-0.4h-2.2l-0.8-3.5c-0.4-1.7-0.6-3.7-0.6-5.9
		c0-0.1,0-0.3,0-0.4h-5.9c0,0.1,0,0.3,0,0.4c0,1.8-0.1,3.4-0.4,4.9c0.3,1.4,0.4,3,0.4,4.9c0,2.2-0.2,4.2-0.6,5.9l-0.8,3.5H129
		l-0.8-3.5c-0.4-1.7-0.6-3.7-0.6-5.9c0-1.9,0.1-3.5,0.4-4.9c-0.3-1.5-0.4-3.1-0.4-4.9c0-1.9,0.1-3.5,0.4-4.9
		c-0.3-1.5-0.4-3.1-0.4-4.9c0-1.9,0.1-3.5,0.4-4.9c-0.3-1.5-0.4-3.1-0.4-4.9c0-1.9,0.1-3.5,0.4-4.9c-0.3-1.5-0.4-3.1-0.4-4.9
		c0-1.9,0.1-3.5,0.4-4.9c-0.3-1.5-0.4-3.1-0.4-4.9c0-1.9,0.1-3.5,0.4-4.9c-0.3-1.5-0.4-3.1-0.4-4.9c0-2.3,0.2-4.3,0.6-6l0.9-3.4
		h16.8l0.8,3.4c0.4,1.7,0.6,3.6,0.6,6c0,1.8-0.1,3.4-0.4,4.9c0.3,1.4,0.4,3,0.4,4.9c0,0.2,0,0.4,0,0.6l0-0.2h5.9c0-0.1,0-0.3,0-0.4
		c0-2.3,0.2-4.3,0.6-6l0.9-3.4h2.2c0-0.1,0-0.3,0-0.4c0-2.3,0.2-4.3,0.6-6l0.9-3.4h16.8l0.9,3.4c0.4,1.7,0.6,3.6,0.6,6
		c0,2.2-0.2,4.2-0.6,5.9l-0.8,3.5h-2.2c0,0.1,0,0.3,0,0.4c0,2.2-0.2,4.2-0.6,5.9l-0.8,3.5h-5.9c0,0.1,0,0.3,0,0.4
		c0,2.2-0.2,4.2-0.6,5.9l-0.8,3.5h-4.7c0,0.1,0,0.6,0,0.8h4.6l0.9,3.4c0.4,1.7,0.6,3.6,0.6,6c0,0.1,0,0.3,0,0.4h5.9l0.8,3.4
		c0.4,1.7,0.6,3.6,0.6,6c0,0.1,0,0.3,0,0.4h2.2l0.9,3.4c0.4,1.7,0.6,3.6,0.6,6c0,2.2-0.2,4.2-0.6,5.9l-0.8,3.5H158.3z"/>
	<path d="M171.6,130.8c0.3,1.3,0.5,2.9,0.5,4.9c0,1.9-0.2,3.5-0.5,4.9h-3.7c0.3,1.3,0.5,2.9,0.5,4.9c0,1.9-0.2,3.5-0.5,4.9h-7.3
		c0.3,1.3,0.5,2.9,0.5,4.9c0,1.9-0.2,3.5-0.5,4.9h-6.1c0.3,1.3,0.5,2.9,0.5,4.9c0,1.9-0.2,3.5-0.5,4.9h6.1c0.3,1.3,0.5,2.9,0.5,4.9
		c0,1.9-0.2,3.5-0.5,4.9h7.3c0.3,1.3,0.5,2.9,0.5,4.9c0,1.9-0.2,3.5-0.5,4.9h3.7c0.3,1.3,0.5,2.9,0.5,4.9c0,1.9-0.2,3.5-0.5,4.9
		h-9.8c-0.3-1.4-0.5-3-0.5-4.9c0-2,0.2-3.6,0.5-4.9h-3.7c-0.3-1.4-0.5-3-0.5-4.9c0-2,0.2-3.6,0.5-4.9h-7.3c-0.3-1.4-0.5-3-0.5-4.9
		c0-2,0.2-3.6,0.5-4.9h-8.5c0.3,1.3,0.5,2.9,0.5,4.9c0,1.9-0.2,3.5-0.5,4.9c0.3,1.3,0.5,2.9,0.5,4.9c0,1.9-0.2,3.5-0.5,4.9
		c0.3,1.3,0.5,2.9,0.5,4.9c0,1.9-0.2,3.5-0.5,4.9h-9.8c-0.3-1.4-0.5-3-0.5-4.9c0-2,0.2-3.6,0.5-4.9c-0.3-1.4-0.5-3-0.5-4.9
		c0-2,0.2-3.6,0.5-4.9c-0.3-1.4-0.5-3-0.5-4.9c0-2,0.2-3.6,0.5-4.9c-0.3-1.4-0.5-3-0.5-4.9c0-2,0.2-3.6,0.5-4.9
		c-0.3-1.4-0.5-3-0.5-4.9c0-2,0.2-3.6,0.5-4.9c-0.3-1.4-0.5-3-0.5-4.9c0-2,0.2-3.6,0.5-4.9c-0.3-1.4-0.5-3-0.5-4.9
		c0-2,0.2-3.6,0.5-4.9h9.8c0.3,1.3,0.5,2.9,0.5,4.9c0,1.9-0.2,3.5-0.5,4.9c0.3,1.3,0.5,2.9,0.5,4.9c0,1.9-0.2,3.5-0.5,4.9
		c0.3,1.3,0.5,2.9,0.5,4.9c0,1.9-0.2,3.5-0.5,4.9h8.5c-0.3-1.4-0.5-3-0.5-4.9c0-2,0.2-3.6,0.5-4.9h7.3c-0.3-1.4-0.5-3-0.5-4.9
		c0-2,0.2-3.6,0.5-4.9h3.7c-0.3-1.4-0.5-3-0.5-4.9c0-2,0.2-3.6,0.5-4.9H171.6 M178.6,121.8h-7h-9.8h-7l-1.7,6.8
		c-0.2,0.9-0.4,1.9-0.5,2.9h-1c-0.1-1-0.3-2-0.5-2.9l-1.7-6.8h-7h-9.8h-7l-1.7,6.8c-0.5,2-0.8,4.4-0.8,7.1c0,1.8,0.1,3.4,0.3,4.9
		c-0.2,1.5-0.3,3.1-0.3,4.9c0,1.8,0.1,3.4,0.3,4.9c-0.2,1.5-0.3,3.1-0.3,4.9c0,1.8,0.1,3.4,0.3,4.9c-0.2,1.5-0.3,3.1-0.3,4.9
		c0,1.8,0.1,3.4,0.3,4.9c-0.2,1.5-0.3,3.1-0.3,4.9c0,1.8,0.1,3.4,0.3,4.9c-0.2,1.5-0.3,3.1-0.3,4.9c0,1.8,0.1,3.4,0.3,4.9
		c-0.2,1.5-0.3,3.1-0.3,4.9c0,2.6,0.2,4.9,0.7,7l1.6,6.9h7.1h9.8h7.1l1.6-6.9c0.2-0.9,0.4-1.8,0.5-2.8h1c0.1,1,0.3,1.9,0.5,2.8
		l1.6,6.9h7.1h9.8h7.1l1.6-6.9c0.5-2.1,0.7-4.4,0.7-6.9c0-2.7-0.2-5-0.8-7.1l-1.7-6.8h-1.4c-0.1-1-0.3-2-0.5-2.9l-1.7-6.8h-5.1
		c-0.1-1-0.3-2-0.5-2.9l-0.7-2.6l0.7-2.9c0.2-0.9,0.4-1.8,0.5-2.8h5.2l1.6-6.9c0.2-0.9,0.4-1.8,0.5-2.8h1.5l1.6-6.9
		c0.5-2.1,0.7-4.4,0.7-6.9c0-2.7-0.2-5-0.8-7.1L178.6,121.8L178.6,121.8z"/>
</g>
<g>
	<path class="st0" d="M177.8,203.6l-0.8-3.5c-0.4-1.7-0.6-3.7-0.6-5.9c0-2.3,0.2-4.3,0.6-6l0.9-3.4h5.8c0-0.1,0-0.3,0-0.4
		c0-1.9,0.1-3.5,0.4-4.9c-0.3-1.5-0.4-3.1-0.4-4.9c0-1.9,0.1-3.5,0.4-4.9c-0.3-1.5-0.4-3.1-0.4-4.9c0-0.1,0-0.3,0-0.4h-5.9l-0.8-3.5
		c-0.4-1.7-0.6-3.7-0.6-5.9c0-2.3,0.2-4.3,0.6-6l0.9-3.4h42.4l0.8,3.4c0.4,1.7,0.6,3.6,0.6,6c0,0.1,0,0.3,0,0.4h2.2l0.9,3.4
		c0.4,1.7,0.6,3.6,0.6,6c0,2.2-0.2,4.2-0.6,5.9l-0.8,3.5h-16.9l-0.7-3l-0.7,3h-2.2c0,0.1,0,0.3,0,0.4c0,1.8-0.1,3.4-0.4,4.9
		c0.3,1.4,0.4,3,0.4,4.9c0,0.1,0,0.3,0,0.4h5.9l0.9,3.4c0.4,1.7,0.6,3.6,0.6,6c0,2.2-0.2,4.2-0.6,5.9l-0.8,3.5H177.8z"/>
	<path d="M216.8,150.3c0.3,1.3,0.5,2.9,0.5,4.9c0,1.9-0.2,3.5-0.5,4.9h3.7c0.3,1.3,0.5,2.9,0.5,4.9c0,1.9-0.2,3.5-0.5,4.9h-9.8
		c-0.3-1.4-0.5-3-0.5-4.9c0-2,0.2-3.6,0.5-4.9h-8.5c0.3,1.3,0.5,2.9,0.5,4.9c0,1.9-0.2,3.5-0.5,4.9h-3.7c0.3,1.3,0.5,2.9,0.5,4.9
		c0,1.9-0.2,3.5-0.5,4.9c0.3,1.3,0.5,2.9,0.5,4.9c0,1.9-0.2,3.5-0.5,4.9h7.3c0.3,1.3,0.5,2.9,0.5,4.9c0,1.9-0.2,3.5-0.5,4.9h-24.4
		c-0.3-1.4-0.5-3-0.5-4.9c0-2,0.2-3.6,0.5-4.9h7.3c-0.3-1.4-0.5-3-0.5-4.9c0-2,0.2-3.6,0.5-4.9c-0.3-1.4-0.5-3-0.5-4.9
		c0-2,0.2-3.6,0.5-4.9c-0.3-1.4-0.5-3-0.5-4.9c0-2,0.2-3.6,0.5-4.9h-7.3c-0.3-1.4-0.5-3-0.5-4.9c0-2,0.2-3.6,0.5-4.9h12.2
		c0.3,1.3,0.5,2.9,0.5,4.9c0,1.9-0.2,3.5-0.5,4.9h4.9c-0.3-1.4-0.5-3-0.5-4.9c0-2,0.2-3.6,0.5-4.9H216.8 M223.8,141.3h-7h-16.2h-7
		h-12.2h-7l-1.7,6.8c-0.5,2-0.8,4.4-0.8,7.1c0,2.6,0.2,4.9,0.7,7l1.6,6.9h5.2c0,0.3,0.1,0.5,0.1,0.7c-0.2,1.5-0.3,3.1-0.3,4.9
		c0,1.8,0.1,3.4,0.3,4.9c0,0.3-0.1,0.5-0.1,0.8h-5.1l-1.7,6.8c-0.5,2-0.8,4.4-0.8,7.1c0,2.6,0.2,4.9,0.7,7l1.6,6.9h7.1h24.4h7.1
		l1.6-6.9c0.5-2.1,0.7-4.4,0.7-6.9c0-2.7-0.2-5-0.8-7.1l-1.7-6.8h-5.1c0-0.3-0.1-0.5-0.1-0.8c0-0.2,0.1-0.5,0.1-0.7h1.5h1.4h9.8h7.1
		l1.6-6.9c0.5-2.1,0.7-4.4,0.7-6.9c0-2.7-0.2-5-0.8-7.1l-1.7-6.8H226c-0.1-1-0.3-2-0.5-2.9L223.8,141.3L223.8,141.3z"/>
</g>
<g>
	<path class="st0" d="M236.4,203.6l-0.8-3.5c-0.4-1.7-0.6-3.7-0.6-5.9c0-0.1,0-0.3,0-0.4h-4.7l-0.8-3.5c-0.4-1.7-0.6-3.7-0.6-5.9
		c0-0.1,0-0.3,0-0.4h-2.2l-0.8-3.5c-0.4-1.7-0.6-3.7-0.6-5.9c0-2.4,0.2-4.3,0.6-6l0.9-3.4h2.2c0-0.1,0-0.3,0-0.4
		c0-2.3,0.2-4.3,0.6-6l0.9-3.4h4.6c0-0.1,0-0.3,0-0.4c0-2.3,0.2-4.3,0.6-6l0.9-3.4h31.4l0.8,3.4c0.4,1.7,0.6,3.6,0.6,6
		c0,0.1,0,0.3,0,0.4h3.4l0.9,3.4c0.4,1.7,0.6,3.6,0.6,6c0,1.8-0.1,3.4-0.4,4.9c0.3,1.4,0.4,3,0.4,4.9c0,2.2-0.2,4.2-0.6,5.9
		l-0.8,3.5h-24.2c0,0.1,0,0.6,0,0.8h19.3l0.8,3.4c0.4,1.7,0.6,3.6,0.6,6c0,2.2-0.2,4.2-0.6,5.9l-0.8,3.5H236.4z M254.5,165.3
		c0-0.1,0-0.6,0-0.8h-5.9c0,0.1,0,0.6,0,0.8H254.5z"/>
	<path d="M264.4,150.3c0.3,1.3,0.5,2.9,0.5,4.9c0,1.9-0.2,3.5-0.5,4.9h4.9c0.3,1.3,0.5,2.9,0.5,4.9c0,1.9-0.2,3.5-0.5,4.9
		c0.3,1.3,0.5,2.9,0.5,4.9c0,1.9-0.2,3.5-0.5,4.9h-25.6c0.3,1.3,0.5,2.9,0.5,4.9c0,1.9-0.2,3.5-0.5,4.9h20.8
		c0.3,1.3,0.5,2.9,0.5,4.9c0,1.9-0.2,3.5-0.5,4.9H240c-0.3-1.4-0.5-3-0.5-4.9c0-2,0.2-3.6,0.5-4.9h-6.1c-0.3-1.4-0.5-3-0.5-4.9
		c0-2,0.2-3.6,0.5-4.9h-3.7c-0.3-1.4-0.5-3-0.5-4.9c0-2,0.2-3.6,0.5-4.9h3.7c-0.3-1.4-0.5-3-0.5-4.9c0-2,0.2-3.6,0.5-4.9h6.1
		c-0.3-1.4-0.5-3-0.5-4.9c0-2,0.2-3.6,0.5-4.9H264.4 M259.5,160.1h-15.9c0.3,1.3,0.5,2.9,0.5,4.9c0,1.9-0.2,3.5-0.5,4.9h15.9
		c-0.3-1.4-0.5-3-0.5-4.9C259,163,259.2,161.4,259.5,160.1 M271.4,141.3h-7H240h-7l-1.7,6.8c-0.2,0.9-0.4,1.9-0.5,3h-3.9l-1.7,6.8
		c-0.2,0.9-0.4,1.9-0.5,3h-1.4l-1.7,6.8c-0.5,2-0.8,4.4-0.8,7.1c0,2.6,0.2,4.9,0.7,7l1.6,6.9h1.5c0.1,1,0.3,1.9,0.5,2.8l1.6,6.9h4
		c0.1,1,0.3,1.9,0.5,2.8l1.6,6.9h7.1h24.4h7.1l1.6-6.9c0.5-2.1,0.7-4.4,0.7-6.9c0-2.1-0.1-4-0.5-5.6h3l1.6-6.9
		c0.5-2.1,0.7-4.4,0.7-6.9c0-1.8-0.1-3.4-0.3-4.9c0.2-1.5,0.3-3.1,0.3-4.9c0-2.7-0.2-5-0.8-7.1l-1.7-6.8h-2.7c-0.1-1-0.3-2-0.5-2.9
		L271.4,141.3L271.4,141.3z"/>
</g>
<g>
	<path class="st0" d="M280.3,203.6l-0.8-3.5c-0.4-1.7-0.6-3.7-0.6-5.9c0-0.1,0-0.3,0-0.4h-3.5l-0.8-3.5c-0.4-1.7-0.6-3.7-0.6-5.9
		c0-2.3,0.2-4.3,0.6-6l0.9-3.4h3.4c0-0.1,0-0.3,0-0.4c0-2.3,0.2-4.3,0.6-6l0.9-3.4h18.1c0-0.1,0-0.6,0-0.8h-15.7l-0.8-3.5
		c-0.4-1.7-0.6-3.7-0.6-5.9c0-2.3,0.2-4.3,0.6-6l0.9-3.4h29l0.8,3.4c0.4,1.7,0.6,3.6,0.6,6c0,0.1,0,0.3,0,0.4h3.4l0.9,3.4
		c0.4,1.7,0.6,3.6,0.6,6c0,1.8-0.1,3.4-0.4,4.9c0.3,1.4,0.4,3,0.4,4.9c0,1.8-0.1,3.4-0.4,4.9c0.3,1.4,0.4,3,0.4,4.9
		c0,0.1,0,0.3,0,0.4h3.4l0.8,3.4c0.4,1.7,0.6,3.6,0.6,6c0,2.2-0.2,4.2-0.6,5.9l-0.8,3.5H280.3z M298.5,184.9c0-0.1,0-0.6,0-0.8h-4.7
		c0,0.1,0,0.6,0,0.8H298.5z"/>
	<path d="M308.3,150.3c0.3,1.3,0.5,2.9,0.5,4.9c0,1.9-0.2,3.5-0.5,4.9h4.9c0.3,1.3,0.5,2.9,0.5,4.9c0,1.9-0.2,3.5-0.5,4.9
		c0.3,1.3,0.5,2.9,0.5,4.9c0,1.9-0.2,3.5-0.5,4.9c0.3,1.3,0.5,2.9,0.5,4.9c0,1.9-0.2,3.5-0.5,4.9h4.9c0.3,1.3,0.5,2.9,0.5,4.9
		c0,1.9-0.2,3.5-0.5,4.9h-9.8c-0.3-1.4-0.5-3-0.5-4.9c0-2,0.2-3.6,0.5-4.9h-4.9c-0.3-1.4-0.5-3-0.5-4.9c0-2,0.2-3.6,0.5-4.9h-14.6
		c0.3,1.3,0.5,2.9,0.5,4.9c0,1.9-0.2,3.5-0.5,4.9h14.6c0.3,1.3,0.5,2.9,0.5,4.9c0,1.9-0.2,3.5-0.5,4.9h-19.5c-0.3-1.4-0.5-3-0.5-4.9
		c0-2,0.2-3.6,0.5-4.9H279c-0.3-1.4-0.5-3-0.5-4.9c0-2,0.2-3.6,0.5-4.9h4.9c-0.3-1.4-0.5-3-0.5-4.9c0-2,0.2-3.6,0.5-4.9h19.5
		c-0.3-1.4-0.5-3-0.5-4.9c0-2,0.2-3.6,0.5-4.9h-17.1c-0.3-1.4-0.5-3-0.5-4.9c0-2,0.2-3.6,0.5-4.9H308.3 M315.4,141.3h-7h-22h-7
		l-1.7,6.8c-0.5,2-0.8,4.3-0.8,7.1c0,2.1,0.2,3.9,0.5,5.7h-0.4l-1.7,6.8c-0.2,0.9-0.4,1.9-0.5,3H272l-1.7,6.8
		c-0.5,2-0.8,4.4-0.8,7.1c0,2.6,0.2,4.9,0.7,7l1.6,6.9h2.7c0.1,1,0.3,1.9,0.5,2.8l1.6,6.9h7.1h19.5h7.1h7.5h7.1l1.6-6.9
		c0.5-2.1,0.7-4.4,0.7-6.9c0-2.7-0.2-5-0.8-7.1l-1.7-6.8h-2.7c0-0.3-0.1-0.5-0.1-0.8c0.2-1.5,0.3-3.1,0.3-4.9c0-1.8-0.1-3.4-0.3-4.9
		c0.2-1.5,0.3-3.1,0.3-4.9c0-2.7-0.2-5-0.8-7.1l-1.7-6.8h-2.7c-0.1-1-0.3-2-0.5-2.9L315.4,141.3L315.4,141.3z"/>
</g>
<g>
	<path class="st0" d="M338.9,203.6l-0.8-3.5c-0.4-1.7-0.6-3.7-0.6-5.9c0-0.1,0-0.3,0-0.4h-3.5l-0.8-3.5c-0.4-1.7-0.6-3.7-0.6-5.9
		c0-1.9,0.1-3.5,0.4-4.9c-0.3-1.5-0.4-3.1-0.4-4.9c0-1.9,0.1-3.5,0.4-4.9c-0.3-1.5-0.4-3.1-0.4-4.9c0-0.1,0-0.3,0-0.4h-8.3l-0.8-3.5
		c-0.4-1.7-0.6-3.7-0.6-5.9c0-2.3,0.2-4.3,0.6-6l0.9-3.4h8.3c0-0.1,0-0.3,0-0.4c0-1.9,0.1-3.5,0.4-4.9c-0.3-1.5-0.4-3.1-0.4-4.9
		c0-2.3,0.2-4.3,0.6-6l0.9-3.4h16.8l0.8,3.4c0.4,1.7,0.6,3.6,0.6,6c0,1.8-0.1,3.4-0.4,4.9c0.3,1.4,0.4,3,0.4,4.9c0,0.1,0,0.3,0,0.4
		h13.2l0.8,3.4c0.4,1.7,0.6,3.6,0.6,6c0,2.2-0.2,4.2-0.6,5.9l-0.8,3.5h-13.2c0,0.1,0,0.3,0,0.4c0,1.8-0.1,3.4-0.4,4.9
		c0.3,1.4,0.4,3,0.4,4.9c0,1.8-0.1,3.4-0.4,4.9c0.3,1.4,0.4,3,0.4,4.9c0,0.1,0,0.3,0,0.4h13.2l0.8,3.4c0.4,1.7,0.6,3.6,0.6,6
		c0,2.2-0.2,4.2-0.6,5.9l-0.8,3.5H338.9z"/>
	<path d="M347.4,130.8c0.3,1.3,0.5,2.9,0.5,4.9c0,1.9-0.2,3.5-0.5,4.9c0.3,1.3,0.5,2.9,0.5,4.9c0,1.9-0.2,3.5-0.5,4.9H362
		c0.3,1.3,0.5,2.9,0.5,4.9c0,1.9-0.2,3.5-0.5,4.9h-14.6c0.3,1.3,0.5,2.9,0.5,4.9c0,1.9-0.2,3.5-0.5,4.9c0.3,1.3,0.5,2.9,0.5,4.9
		c0,1.9-0.2,3.5-0.5,4.9c0.3,1.3,0.5,2.9,0.5,4.9c0,1.9-0.2,3.5-0.5,4.9H362c0.3,1.3,0.5,2.9,0.5,4.9c0,1.9-0.2,3.5-0.5,4.9h-19.5
		c-0.3-1.4-0.5-3-0.5-4.9c0-2,0.2-3.6,0.5-4.9h-4.9c-0.3-1.4-0.5-3-0.5-4.9c0-2,0.2-3.6,0.5-4.9c-0.3-1.4-0.5-3-0.5-4.9
		c0-2,0.2-3.6,0.5-4.9c-0.3-1.4-0.5-3-0.5-4.9c0-2,0.2-3.6,0.5-4.9h-9.8c-0.3-1.4-0.5-3-0.5-4.9c0-2,0.2-3.6,0.5-4.9h9.8
		c-0.3-1.4-0.5-3-0.5-4.9c0-2,0.2-3.6,0.5-4.9c-0.3-1.4-0.5-3-0.5-4.9c0-2,0.2-3.6,0.5-4.9H347.4 M354.4,121.8h-7h-9.8h-7l-1.7,6.8
		c-0.5,2-0.8,4.4-0.8,7.1c0,1.8,0.1,3.4,0.3,4.9c0,0.3-0.1,0.5-0.1,0.8h-0.5h-7l-1.7,6.8c-0.5,2-0.8,4.4-0.8,7.1
		c0,2.6,0.2,4.9,0.7,7l1.6,6.9h7.1h0.5c0,0.3,0.1,0.5,0.1,0.7c-0.2,1.5-0.3,3.1-0.3,4.9c0,1.8,0.1,3.4,0.3,4.9
		c-0.2,1.5-0.3,3.1-0.3,4.9c0,2.6,0.2,4.9,0.7,7l1.6,6.9h2.7c0.1,1,0.3,1.9,0.5,2.8l1.6,6.9h7.1H362h7.1l1.6-6.9
		c0.5-2.1,0.7-4.4,0.7-6.9c0-2.7-0.2-5-0.8-7.1l-1.7-6.8h-7h-5.4c0-0.3-0.1-0.5-0.1-0.8c0.2-1.5,0.3-3.1,0.3-4.9
		c0-1.8-0.1-3.4-0.3-4.9c0-0.2,0.1-0.5,0.1-0.7h5.4h7.1l1.6-6.9c0.5-2.1,0.7-4.4,0.7-6.9c0-2.7-0.2-5-0.8-7.1l-1.7-6.8h-7h-5.4
		c0-0.3-0.1-0.5-0.1-0.8c0.2-1.5,0.3-3.1,0.3-4.9c0-2.7-0.2-5-0.8-7.1L354.4,121.8L354.4,121.8z"/>
</g>
<g>
	<path class="st0" d="M378,203.6l-0.8-3.5c-0.4-1.7-0.6-3.7-0.6-5.9c0-2.3,0.2-4.3,0.6-6l0.9-3.4h8.3c0-0.1,0-0.3,0-0.4
		c0-1.9,0.1-3.5,0.4-4.9c-0.3-1.5-0.4-3.1-0.4-4.9c0-1.9,0.1-3.5,0.4-4.9c-0.3-1.5-0.4-3.1-0.4-4.9c0-0.1,0-0.3,0-0.4h-5.9l-0.8-3.5
		c-0.4-1.7-0.6-3.7-0.6-5.9c0-2.3,0.2-4.3,0.6-6l0.9-3.4h24.1l0.8,3.4c0.4,1.7,0.6,3.6,0.6,6c0,1.8-0.1,3.4-0.4,4.9
		c0.3,1.4,0.4,3,0.4,4.9c0,1.8-0.1,3.4-0.4,4.9c0.3,1.4,0.4,3,0.4,4.9c0,1.8-0.1,3.4-0.4,4.9c0.3,1.4,0.4,3,0.4,4.9
		c0,0.1,0,0.3,0,0.4h8.3l0.9,3.4c0.4,1.7,0.6,3.6,0.6,6c0,2.2-0.2,4.2-0.6,5.9l-0.8,3.5H378z M387.8,145l-0.8-3.5
		c-0.4-1.7-0.6-3.7-0.6-5.9c0-2.3,0.2-4.3,0.6-6l0.9-3.4h16.8l0.8,3.4c0.4,1.7,0.6,3.6,0.6,6c0,2.2-0.2,4.2-0.6,5.9l-0.8,3.5H387.8z
		"/>
	<path d="M401.1,130.8c0.3,1.3,0.5,2.9,0.5,4.9c0,1.9-0.2,3.5-0.5,4.9h-9.8c-0.3-1.4-0.5-3-0.5-4.9c0-2,0.2-3.6,0.5-4.9H401.1
		 M401.1,150.3c0.3,1.3,0.5,2.9,0.5,4.9c0,1.9-0.2,3.5-0.5,4.9c0.3,1.3,0.5,2.9,0.5,4.9c0,1.9-0.2,3.5-0.5,4.9
		c0.3,1.3,0.5,2.9,0.5,4.9c0,1.9-0.2,3.5-0.5,4.9c0.3,1.3,0.5,2.9,0.5,4.9c0,1.9-0.2,3.5-0.5,4.9h9.8c0.3,1.3,0.5,2.9,0.5,4.9
		c0,1.9-0.2,3.5-0.5,4.9h-29.3c-0.3-1.4-0.5-3-0.5-4.9c0-2,0.2-3.6,0.5-4.9h9.8c-0.3-1.4-0.5-3-0.5-4.9c0-2,0.2-3.6,0.5-4.9
		c-0.3-1.4-0.5-3-0.5-4.9c0-2,0.2-3.6,0.5-4.9c-0.3-1.4-0.5-3-0.5-4.9c0-2,0.2-3.6,0.5-4.9H384c-0.3-1.4-0.5-3-0.5-4.9
		c0-2,0.2-3.6,0.5-4.9H401.1 M408.1,121.8h-7h-9.8h-7l-1.7,6.8c-0.5,2-0.8,4.3-0.8,7.1c0,2.1,0.2,3.9,0.5,5.6H377l-1.7,6.8
		c-0.5,2-0.8,4.3-0.8,7.1c0,2.6,0.2,4.9,0.7,6.9l1.6,6.9h5.2c0,0.3,0.1,0.5,0.1,0.7c-0.2,1.5-0.3,3.1-0.3,4.9c0,1.8,0.1,3.4,0.3,4.9
		c0,0.3-0.1,0.5-0.1,0.8h-0.5h-7l-1.7,6.8c-0.5,2-0.8,4.3-0.8,7.1c0,2.6,0.2,4.9,0.7,6.9l1.6,6.9h7.1h29.3h7.1l1.6-6.9
		c0.5-2.1,0.7-4.4,0.7-6.9c0-2.7-0.2-5-0.8-7.1l-1.7-6.8h-7h-0.5c0-0.3-0.1-0.5-0.1-0.8c0.2-1.5,0.3-3.1,0.3-4.9
		c0-1.8-0.1-3.4-0.3-4.9c0.2-1.5,0.3-3.1,0.3-4.9c0-1.8-0.1-3.4-0.3-4.9c0.2-1.5,0.3-3.1,0.3-4.9c0-2.7-0.2-5-0.8-7.1l-0.7-2.6
		l0.7-2.9c0.5-2.1,0.7-4.4,0.7-6.9c0-2.7-0.2-5-0.8-7.1L408.1,121.8L408.1,121.8z"/>
</g>
<g>
	<path class="st0" d="M436.6,203.6l-0.8-3.5c-0.4-1.7-0.6-3.7-0.6-5.9c0-0.1,0-0.3,0-0.4h-3.5l-0.8-3.5c-0.4-1.7-0.6-3.7-0.6-5.9
		c0-0.1,0-0.3,0-0.4h-1l-0.8-3.5c-0.4-1.7-0.6-3.7-0.6-5.9c0-0.1,0-0.3,0-0.4h-2.2l-0.8-3.5c-0.4-1.7-0.6-3.7-0.6-5.9
		c0-0.1,0-0.3,0-0.4H422l-0.8-3.5c-0.4-1.7-0.6-3.7-0.6-5.9c0-2.3,0.2-4.3,0.6-6l0.9-3.4h16.8l0.9,3.4c0.4,1.7,0.6,3.6,0.6,6
		c0,0.1,0,0.3,0,0.4h2.2l0.9,3.4c0.4,1.7,0.6,3.6,0.6,6c0,0.1,0,0.3,0,0.4h2.2c0-0.1,0-0.3,0-0.4c0-2.3,0.2-4.3,0.6-6l0.9-3.4h2.2
		c0-0.1,0-0.3,0-0.4c0-2.3,0.2-4.3,0.6-6l0.9-3.4h16.8l0.8,3.4c0.4,1.7,0.6,3.6,0.6,6c0,2.2-0.2,4.2-0.6,5.9l-0.8,3.5h-2.2
		c0,0.1,0,0.3,0,0.4c0,2.2-0.2,4.2-0.6,5.9l-0.8,3.5h-2.2c0,0.1,0,0.3,0,0.4c0,2.2-0.2,4.2-0.6,5.9l-0.8,3.5h-1c0,0.1,0,0.3,0,0.4
		c0,2.2-0.2,4.2-0.6,5.9l-0.8,3.5h-3.5c0,0.1,0,0.3,0,0.4c0,2.2-0.2,4.2-0.6,5.9l-0.8,3.5H436.6z"/>
	<path d="M464.6,150.3c0.3,1.3,0.5,2.9,0.5,4.9c0,1.9-0.2,3.5-0.5,4.9h-3.7c0.3,1.3,0.5,2.9,0.5,4.9c0,1.9-0.2,3.5-0.5,4.9h-3.7
		c0.3,1.3,0.5,2.9,0.5,4.9c0,1.9-0.2,3.5-0.5,4.9h-2.4c0.3,1.3,0.5,2.9,0.5,4.9c0,1.9-0.2,3.5-0.5,4.9h-4.9c0.3,1.3,0.5,2.9,0.5,4.9
		c0,1.9-0.2,3.5-0.5,4.9h-9.8c-0.3-1.4-0.5-3-0.5-4.9c0-2,0.2-3.6,0.5-4.9h-4.9c-0.3-1.4-0.5-3-0.5-4.9c0-2,0.2-3.6,0.5-4.9h-2.4
		c-0.3-1.4-0.5-3-0.5-4.9c0-2,0.2-3.6,0.5-4.9h-3.7c-0.3-1.4-0.5-3-0.5-4.9c0-2,0.2-3.6,0.5-4.9h-3.7c-0.3-1.4-0.5-3-0.5-4.9
		c0-2,0.2-3.6,0.5-4.9h9.8c0.3,1.3,0.5,2.9,0.5,4.9c0,1.9-0.2,3.5-0.5,4.9h3.7c0.3,1.3,0.5,2.9,0.5,4.9c0,1.9-0.2,3.5-0.5,4.9h3.7
		c0.3,1.3,0.5,2.9,0.5,4.9c0,1.9-0.2,3.5-0.5,4.9h4.9c-0.3-1.4-0.5-3-0.5-4.9c0-2,0.2-3.6,0.5-4.9h3.7c-0.3-1.4-0.5-3-0.5-4.9
		c0-2,0.2-3.6,0.5-4.9h3.7c-0.3-1.4-0.5-3-0.5-4.9c0-2,0.2-3.6,0.5-4.9H464.6 M471.6,141.3h-7h-9.8h-7l-1.7,6.8
		c-0.2,0.9-0.4,1.9-0.5,3h-1c-0.1-1-0.3-2-0.5-2.9l-1.7-6.8h-7h-9.8h-7l-1.7,6.8c-0.5,2-0.8,4.4-0.8,7.1c0,2.6,0.2,4.9,0.7,7
		l1.6,6.9h1.5c0.1,1,0.3,1.9,0.5,2.8l1.6,6.9h1.5c0.1,1,0.3,1.9,0.5,2.8l1.6,6.9h0.3c0.1,1,0.3,1.9,0.5,2.8l1.6,6.9h2.7
		c0.1,1,0.3,1.9,0.5,2.8l1.6,6.9h7.1h9.8h7.1l1.6-6.9c0.2-0.9,0.4-1.8,0.5-2.8h2.8l1.6-6.9c0.2-0.9,0.4-1.8,0.5-2.8h0.3l1.6-6.9
		c0.2-0.9,0.4-1.8,0.5-2.8h1.5l1.6-6.9c0.2-0.9,0.4-1.8,0.5-2.8h1.5l1.6-6.9c0.5-2.1,0.7-4.4,0.7-6.9c0-2.7-0.2-5-0.8-7.1
		L471.6,141.3L471.6,141.3z"/>
</g>
<g>
	<path class="st0" d="M475.7,203.6l-0.8-3.5c-0.4-1.7-0.6-3.7-0.6-5.9c0-0.1,0-0.3,0-0.4h-3.5l-0.8-3.5c-0.4-1.7-0.6-3.7-0.6-5.9
		c0-2.3,0.2-4.3,0.6-6l0.9-3.4h3.4c0-0.1,0-0.3,0-0.4c0-2.3,0.2-4.3,0.6-6l0.9-3.4h18.1c0-0.1,0-0.6,0-0.8h-15.7l-0.8-3.5
		c-0.4-1.7-0.6-3.7-0.6-5.9c0-2.3,0.2-4.3,0.6-6l0.9-3.4h29l0.8,3.4c0.4,1.7,0.6,3.6,0.6,6c0,0.1,0,0.3,0,0.4h3.4l0.9,3.4
		c0.4,1.7,0.6,3.6,0.6,6c0,1.8-0.1,3.4-0.4,4.9c0.3,1.4,0.4,3,0.4,4.9c0,1.8-0.1,3.4-0.4,4.9c0.3,1.4,0.4,3,0.4,4.9
		c0,0.1,0,0.3,0,0.4h3.4l0.9,3.4c0.4,1.7,0.6,3.6,0.6,6c0,2.2-0.2,4.2-0.6,5.9l-0.8,3.5H475.7z M493.8,184.9c0-0.1,0-0.6,0-0.8h-4.7
		c0,0.1,0,0.6,0,0.8H493.8z"/>
	<path d="M503.7,150.3c0.3,1.3,0.5,2.9,0.5,4.9c0,1.9-0.2,3.5-0.5,4.9h4.9c0.3,1.3,0.5,2.9,0.5,4.9c0,1.9-0.2,3.5-0.5,4.9
		c0.3,1.3,0.5,2.9,0.5,4.9c0,1.9-0.2,3.5-0.5,4.9c0.3,1.3,0.5,2.9,0.5,4.9c0,1.9-0.2,3.5-0.5,4.9h4.9c0.3,1.3,0.5,2.9,0.5,4.9
		c0,1.9-0.2,3.5-0.5,4.9h-9.8c-0.3-1.4-0.5-3-0.5-4.9c0-2,0.2-3.6,0.5-4.9h-4.9c-0.3-1.4-0.5-3-0.5-4.9c0-2,0.2-3.6,0.5-4.9h-14.6
		c0.3,1.3,0.5,2.9,0.5,4.9c0,1.9-0.2,3.5-0.5,4.9h14.6c0.3,1.3,0.5,2.9,0.5,4.9c0,1.9-0.2,3.5-0.5,4.9h-19.5c-0.3-1.4-0.5-3-0.5-4.9
		c0-2,0.2-3.6,0.5-4.9h-4.9c-0.3-1.4-0.5-3-0.5-4.9c0-2,0.2-3.6,0.5-4.9h4.9c-0.3-1.4-0.5-3-0.5-4.9c0-2,0.2-3.6,0.5-4.9h19.5
		c-0.3-1.4-0.5-3-0.5-4.9c0-2,0.2-3.6,0.5-4.9h-17.1c-0.3-1.4-0.5-3-0.5-4.9c0-2,0.2-3.6,0.5-4.9H503.7 M510.7,141.3h-7h-22h-7
		l-1.7,6.8c-0.5,2-0.8,4.3-0.8,7.1c0,2.1,0.2,3.9,0.5,5.7h-0.4l-1.7,6.8c-0.2,0.9-0.4,1.9-0.5,3h-2.6l-1.7,6.8
		c-0.5,2-0.8,4.4-0.8,7.1c0,2.6,0.2,4.9,0.7,7l1.6,6.9h2.7c0.1,1,0.3,1.9,0.5,2.8l1.6,6.9h7.1h19.5h7.1h7.5h7.1l1.6-6.9
		c0.5-2.1,0.7-4.4,0.7-6.9c0-2.7-0.2-5-0.8-7.1l-1.7-6.8h-2.7c0-0.3-0.1-0.5-0.1-0.8c0.2-1.5,0.3-3.1,0.3-4.9c0-1.8-0.1-3.4-0.3-4.9
		c0.2-1.5,0.3-3.1,0.3-4.9c0-2.7-0.2-5-0.8-7.1l-1.7-6.8h-2.7c-0.1-1-0.3-2-0.5-2.9L510.7,141.3L510.7,141.3z"/>
</g>
<g>
	<path class="st0" d="M575.8,174.3l-0.8-3.5c-0.4-1.7-0.6-3.7-0.6-5.9c0-2.3,0.2-4.3,0.6-6l0.9-3.4h31.4l0.9,3.4
		c0.4,1.7,0.6,3.6,0.6,6c0,2.2-0.2,4.2-0.6,5.9l-0.8,3.5H575.8z"/>
	<path d="M603.8,160.1c0.3,1.3,0.5,2.9,0.5,4.9c0,1.9-0.2,3.5-0.5,4.9h-24.4c-0.3-1.4-0.5-3-0.5-4.9c0-2,0.2-3.6,0.5-4.9H603.8
		 M610.8,151.1h-7h-24.4h-7l-1.7,6.8c-0.5,2-0.8,4.3-0.8,7.1c0,2.6,0.2,4.9,0.7,6.9l1.6,6.9h7.1h24.4h7.1l1.6-6.9
		c0.5-2.1,0.7-4.4,0.7-6.9c0-2.7-0.2-5-0.8-7.1L610.8,151.1L610.8,151.1z"/>
</g>
<g>
	<path class="st0" d="M67.6,324.1l-0.8-3.5c-0.4-1.7-0.6-3.7-0.6-5.9c0-0.1,0-0.3,0-0.4h-3.5l-0.8-3.5c-0.4-1.7-0.6-3.7-0.6-5.9
		c0-2.3,0.2-4.3,0.6-6l0.9-3.4h16.8l0.9,3.4c0.4,1.7,0.6,3.6,0.6,6c0,0.1,0,0.3,0,0.4h9.6c0-0.1,0-0.3,0-0.4c0-1.9,0.1-3.5,0.4-4.9
		c-0.3-1.5-0.4-3.1-0.4-4.9c0-0.1,0-0.3,0-0.4h-23l-0.8-3.5c-0.4-1.7-0.6-3.7-0.6-5.9c0-0.1,0-0.3,0-0.4h-3.5l-0.8-3.5
		c-0.4-1.7-0.6-3.7-0.6-5.9c0-1.9,0.1-3.5,0.4-4.9c-0.3-1.5-0.4-3.1-0.4-4.9c0-2.3,0.2-4.3,0.6-6l0.9-3.4h3.4c0-0.1,0-0.3,0-0.4
		c0-2.3,0.2-4.3,0.6-6l0.9-3.4H104l0.8,3.4c0.4,1.7,0.6,3.6,0.6,6c0,0.1,0,0.3,0,0.4h3.4l0.8,3.4c0.4,1.7,0.6,3.6,0.6,6
		c0,2.2-0.2,4.2-0.6,5.9l-0.8,3.5H92l-0.8-3.5c-0.4-1.7-0.6-3.7-0.6-5.9c0-0.1,0-0.3,0-0.4H81c0,0.1,0,0.3,0,0.4
		c0,1.8-0.1,3.4-0.4,4.9c0.3,1.4,0.4,3,0.4,4.9c0,0.1,0,0.3,0,0.4H104l0.9,3.4c0.4,1.7,0.6,3.6,0.6,6c0,0.1,0,0.3,0,0.4h3.4l0.9,3.4
		c0.4,1.7,0.6,3.6,0.6,6c0,1.8-0.1,3.4-0.4,4.9c0.3,1.4,0.4,3,0.4,4.9c0,2.2-0.2,4.2-0.6,5.9l-0.8,3.5h-3.5c0,0.1,0,0.3,0,0.4
		c0,2.2-0.2,4.2-0.6,5.9l-0.8,3.5H67.6z"/>
	<path d="M100.5,251.3c0.3,1.3,0.5,2.9,0.5,4.9c0,1.9-0.2,3.5-0.5,4.9h4.9c0.3,1.3,0.5,2.9,0.5,4.9c0,1.9-0.2,3.5-0.5,4.9h-9.8
		c-0.3-1.4-0.5-3-0.5-4.9c0-2,0.2-3.6,0.5-4.9H76.1c0.3,1.3,0.5,2.9,0.5,4.9c0,1.9-0.2,3.5-0.5,4.9c0.3,1.3,0.5,2.9,0.5,4.9
		c0,1.9-0.2,3.5-0.5,4.9h24.4c0.3,1.3,0.5,2.9,0.5,4.9c0,1.9-0.2,3.5-0.5,4.9h4.9c0.3,1.3,0.5,2.9,0.5,4.9c0,1.9-0.2,3.5-0.5,4.9
		c0.3,1.3,0.5,2.9,0.5,4.9c0,1.9-0.2,3.5-0.5,4.9h-4.9c0.3,1.3,0.5,2.9,0.5,4.9c0,1.9-0.2,3.5-0.5,4.9H71.2c-0.3-1.4-0.5-3-0.5-4.9
		c0-2,0.2-3.6,0.5-4.9h-4.9c-0.3-1.4-0.5-3-0.5-4.9c0-2,0.2-3.6,0.5-4.9h9.8c0.3,1.3,0.5,2.9,0.5,4.9c0,1.9-0.2,3.5-0.5,4.9h19.5
		c-0.3-1.4-0.5-3-0.5-4.9c0-2,0.2-3.6,0.5-4.9c-0.3-1.4-0.5-3-0.5-4.9c0-2,0.2-3.6,0.5-4.9H71.2c-0.3-1.4-0.5-3-0.5-4.9
		c0-2,0.2-3.6,0.5-4.9h-4.9c-0.3-1.4-0.5-3-0.5-4.9c0-2,0.2-3.6,0.5-4.9c-0.3-1.4-0.5-3-0.5-4.9c0-2,0.2-3.6,0.5-4.9h4.9
		c-0.3-1.4-0.5-3-0.5-4.9c0-2,0.2-3.6,0.5-4.9H100.5 M107.5,242.3h-7H71.2h-7l-1.7,6.8c-0.2,0.9-0.4,1.9-0.5,2.9h-2.6l-1.7,6.8
		c-0.5,2-0.8,4.4-0.8,7.1c0,1.8,0.1,3.4,0.3,4.9c-0.2,1.5-0.3,3.1-0.3,4.9c0,2.6,0.2,4.9,0.7,7l1.6,6.9h2.7c0.1,0.5,0.1,1,0.2,1.5
		h-2.9l-1.7,6.8c-0.5,2-0.8,4.4-0.8,7.1c0,2.6,0.2,4.9,0.7,7l1.6,6.9h2.7c0.1,1,0.3,1.9,0.5,2.8l1.6,6.9h7.1h29.3h7.1l1.6-6.9
		c0.2-0.9,0.4-1.8,0.5-2.8h2.8l1.6-6.9c0.5-2.1,0.7-4.4,0.7-6.9c0-1.8-0.1-3.4-0.3-4.9c0.2-1.5,0.3-3.1,0.3-4.9c0-2.7-0.2-5-0.8-7.1
		l-1.7-6.8h-2.7c-0.1-0.5-0.1-1-0.2-1.5h3l1.6-6.9c0.5-2.1,0.7-4.4,0.7-6.9c0-2.7-0.2-5-0.8-7.1l-1.7-6.8h-2.7c-0.1-1-0.3-2-0.5-2.9
		L107.5,242.3L107.5,242.3z M85.3,270h1c0.1,0.5,0.1,1,0.2,1.5h-1.2c0-0.3-0.1-0.5-0.1-0.8C85.2,270.5,85.3,270.3,85.3,270L85.3,270
		z M85.1,299.3h1.2c0,0.3,0.1,0.5,0.1,0.7c0,0.3-0.1,0.5-0.1,0.8h-1C85.3,300.3,85.2,299.8,85.1,299.3L85.1,299.3z"/>
</g>
<g>
	<path class="st0" d="M126.2,324.1l-0.8-3.5c-0.4-1.7-0.6-3.7-0.6-5.9c0-0.1,0-0.3,0-0.4h-3.5l-0.8-3.5c-0.4-1.7-0.6-3.7-0.6-5.9
		c0-1.9,0.1-3.5,0.4-4.9c-0.3-1.5-0.4-3.1-0.4-4.9c0-1.9,0.1-3.5,0.4-4.9c-0.3-1.5-0.4-3.1-0.4-4.9c0-0.1,0-0.3,0-0.4h-8.3l-0.8-3.5
		c-0.4-1.7-0.6-3.7-0.6-5.9c0-2.3,0.2-4.3,0.6-6l0.9-3.4h8.3c0-0.1,0-0.3,0-0.4c0-1.9,0.1-3.5,0.4-4.9c-0.3-1.5-0.4-3.1-0.4-4.9
		c0-2.3,0.2-4.3,0.6-6l0.9-3.4h16.8l0.9,3.4c0.4,1.7,0.6,3.6,0.6,6c0,1.8-0.1,3.4-0.4,4.9c0.3,1.4,0.4,3,0.4,4.9c0,0.1,0,0.3,0,0.4
		h13.2l0.8,3.4c0.4,1.7,0.6,3.6,0.6,6c0,2.2-0.2,4.2-0.6,5.9l-0.8,3.5h-13.2c0,0.1,0,0.3,0,0.4c0,1.8-0.1,3.4-0.4,4.9
		c0.3,1.4,0.4,3,0.4,4.9c0,1.8-0.1,3.4-0.4,4.9c0.3,1.4,0.4,3,0.4,4.9c0,0.1,0,0.3,0,0.4h13.2l0.8,3.4c0.4,1.7,0.6,3.6,0.6,6
		c0,2.2-0.2,4.2-0.6,5.9l-0.8,3.5H126.2z"/>
	<path d="M134.6,251.3c0.3,1.3,0.5,2.9,0.5,4.9c0,1.9-0.2,3.5-0.5,4.9c0.3,1.3,0.5,2.9,0.5,4.9c0,1.9-0.2,3.5-0.5,4.9h14.6
		c0.3,1.3,0.5,2.9,0.5,4.9c0,1.9-0.2,3.5-0.5,4.9h-14.6c0.3,1.3,0.5,2.9,0.5,4.9c0,1.9-0.2,3.5-0.5,4.9c0.3,1.3,0.5,2.9,0.5,4.9
		c0,1.9-0.2,3.5-0.5,4.9c0.3,1.3,0.5,2.9,0.5,4.9c0,1.9-0.2,3.5-0.5,4.9h14.6c0.3,1.3,0.5,2.9,0.5,4.9c0,1.9-0.2,3.5-0.5,4.9h-19.5
		c-0.3-1.4-0.5-3-0.5-4.9c0-2,0.2-3.6,0.5-4.9h-4.9c-0.3-1.4-0.5-3-0.5-4.9c0-2,0.2-3.6,0.5-4.9c-0.3-1.4-0.5-3-0.5-4.9
		c0-2,0.2-3.6,0.5-4.9c-0.3-1.4-0.5-3-0.5-4.9c0-2,0.2-3.6,0.5-4.9h-9.8c-0.3-1.4-0.5-3-0.5-4.9c0-2,0.2-3.6,0.5-4.9h9.8
		c-0.3-1.4-0.5-3-0.5-4.9c0-2,0.2-3.6,0.5-4.9c-0.3-1.4-0.5-3-0.5-4.9c0-2,0.2-3.6,0.5-4.9H134.6 M141.7,242.3h-7h-9.8h-7l-1.7,6.8
		c-0.5,2-0.8,4.4-0.8,7.1c0,1.8,0.1,3.4,0.3,4.9c0,0.3-0.1,0.5-0.1,0.8h-0.5h-7l-1.7,6.8c-0.5,2-0.8,4.4-0.8,7.1
		c0,2.6,0.2,4.9,0.7,7l1.6,6.9h7.1h0.5c0,0.3,0.1,0.5,0.1,0.7c-0.2,1.5-0.3,3.1-0.3,4.9c0,1.8,0.1,3.4,0.3,4.9
		c-0.2,1.5-0.3,3.1-0.3,4.9c0,2.6,0.2,4.9,0.7,7l1.6,6.9h2.7c0.1,1,0.3,1.9,0.5,2.8l1.6,6.9h7.1h19.5h7.1l1.6-6.9
		c0.5-2.1,0.7-4.4,0.7-6.9c0-2.7-0.2-5-0.8-7.1l-1.7-6.8h-7h-5.4c0-0.3-0.1-0.5-0.1-0.8c0.2-1.5,0.3-3.1,0.3-4.9
		c0-1.8-0.1-3.4-0.3-4.9c0-0.2,0.1-0.5,0.1-0.7h5.4h7.1l1.6-6.9c0.5-2.1,0.7-4.4,0.7-6.9c0-2.7-0.2-5-0.8-7.1l-1.7-6.8h-7h-5.4
		c0-0.3-0.1-0.5-0.1-0.8c0.2-1.5,0.3-3.1,0.3-4.9c0-2.7-0.2-5-0.8-7.1L141.7,242.3L141.7,242.3z"/>
</g>
<g>
	<path class="st0" d="M165.3,343.7l-0.8-3.5c-0.4-1.7-0.6-3.7-0.6-5.9c0-2.3,0.2-4.3,0.6-6l0.9-3.4h8.3c0-0.1,0-0.3,0-0.4
		c0-2.3,0.2-4.3,0.6-6l0.9-3.4h3.4c0-0.1,0-0.3,0-0.4c0-1.9,0.1-3.5,0.4-4.9c-0.3-1.5-0.4-3.1-0.4-4.9c0-1.9,0.1-3.5,0.4-4.9
		c-0.3-1.5-0.4-3.1-0.4-4.9c0-1.9,0.1-3.5,0.4-4.9c-0.3-1.5-0.4-3.1-0.4-4.9c0-0.1,0-0.3,0-0.4h-8.3l-0.8-3.5
		c-0.4-1.7-0.6-3.7-0.6-5.9c0-2.3,0.2-4.3,0.6-6l0.9-3.4h26.6l0.9,3.4c0.4,1.7,0.6,3.6,0.6,6c0,1.8-0.1,3.4-0.4,4.9
		c0.3,1.4,0.4,3,0.4,4.9c0,1.8-0.1,3.4-0.4,4.9c0.3,1.4,0.4,3,0.4,4.9c0,1.8-0.1,3.4-0.4,4.9c0.3,1.4,0.4,3,0.4,4.9
		c0,1.8-0.1,3.4-0.4,4.9c0.3,1.4,0.4,3,0.4,4.9c0,2.2-0.2,4.2-0.6,5.9l-0.8,3.5h-3.5c0,0.1,0,0.3,0,0.4c0,2.2-0.2,4.2-0.6,5.9
		l-0.8,3.5h-3.5c0,0.1,0,0.3,0,0.4c0,2.2-0.2,4.2-0.6,5.9l-0.8,3.5H165.3z M179.9,265.5l-0.8-3.5c-0.4-1.7-0.6-3.7-0.6-5.9
		c0-2.3,0.2-4.3,0.6-6l0.9-3.4h16.8l0.9,3.4c0.4,1.7,0.6,3.6,0.6,6c0,2.2-0.2,4.2-0.6,5.9l-0.8,3.5H179.9z"/>
	<path d="M193.2,251.3c0.3,1.3,0.5,2.9,0.5,4.9c0,1.9-0.2,3.5-0.5,4.9h-9.8c-0.3-1.4-0.5-3-0.5-4.9c0-2,0.2-3.6,0.5-4.9H193.2
		 M193.2,270.8c0.3,1.3,0.5,2.9,0.5,4.9c0,1.9-0.2,3.5-0.5,4.9c0.3,1.3,0.5,2.9,0.5,4.9c0,1.9-0.2,3.5-0.5,4.9
		c0.3,1.3,0.5,2.9,0.5,4.9c0,1.9-0.2,3.5-0.5,4.9c0.3,1.3,0.5,2.9,0.5,4.9c0,1.9-0.2,3.5-0.5,4.9c0.3,1.3,0.5,2.9,0.5,4.9
		c0,1.9-0.2,3.5-0.5,4.9h-4.9c0.3,1.3,0.5,2.9,0.5,4.9c0,1.9-0.2,3.5-0.5,4.9h-4.9c0.3,1.3,0.5,2.9,0.5,4.9c0,1.9-0.2,3.5-0.5,4.9
		h-14.7c-0.3-1.4-0.5-3-0.5-4.9c0-2,0.2-3.6,0.5-4.9h9.8c-0.3-1.4-0.5-3-0.5-4.9c0-2,0.2-3.6,0.5-4.9h4.9c-0.3-1.4-0.5-3-0.5-4.9
		c0-2,0.2-3.6,0.5-4.9c-0.3-1.4-0.5-3-0.5-4.9c0-2,0.2-3.6,0.5-4.9c-0.3-1.4-0.5-3-0.5-4.9c0-2,0.2-3.6,0.5-4.9
		c-0.3-1.4-0.5-3-0.5-4.9c0-2,0.2-3.6,0.5-4.9h-9.8c-0.3-1.4-0.5-3-0.5-4.9c0-2,0.2-3.6,0.5-4.9H193.2 M200.3,242.3h-7h-9.8h-7
		l-1.7,6.8c-0.5,2-0.8,4.3-0.8,7.1c0,2.1,0.2,3.9,0.5,5.6h-0.7h-7l-1.7,6.8c-0.5,2-0.8,4.4-0.8,7.1c0,2.6,0.2,4.9,0.7,7l1.6,6.9h7.1
		h0.5c0,0.3,0.1,0.5,0.1,0.7c-0.2,1.5-0.3,3.1-0.3,4.9c0,1.8,0.1,3.4,0.3,4.9c-0.2,1.5-0.3,3.1-0.3,4.9c0,1.8,0.1,3.4,0.3,4.9
		c0,0.3-0.1,0.5-0.1,0.8h-2.6l-1.7,6.8c-0.2,0.9-0.4,1.9-0.5,3h-0.5h-7l-1.7,6.8c-0.5,2-0.8,4.3-0.8,7.1c0,2.6,0.2,4.9,0.7,6.9
		l1.6,6.9h7.1h14.7h7.1l1.6-6.9c0.2-0.9,0.4-1.8,0.5-2.8h2.8l1.6-6.9c0.2-0.9,0.4-1.8,0.5-2.8h2.8l1.6-6.9c0.5-2.1,0.7-4.4,0.7-6.9
		c0-1.8-0.1-3.4-0.3-4.9c0.2-1.5,0.3-3.1,0.3-4.9c0-1.8-0.1-3.4-0.3-4.9c0.2-1.5,0.3-3.1,0.3-4.9c0-1.8-0.1-3.4-0.3-4.9
		c0.2-1.5,0.3-3.1,0.3-4.9c0-1.8-0.1-3.4-0.3-4.9c0.2-1.5,0.3-3.1,0.3-4.9c0-2.7-0.2-5-0.8-7.1l-0.7-2.6l0.7-2.9
		c0.5-2.1,0.7-4.4,0.7-6.9c0-2.7-0.2-5-0.8-7.1L200.3,242.3L200.3,242.3z"/>
</g>
<g>
	<path class="st0" d="M214.1,324.1l-0.8-3.5c-0.4-1.7-0.6-3.7-0.6-5.9c0-0.1,0-0.3,0-0.4h-3.5l-0.8-3.5c-0.4-1.7-0.6-3.7-0.6-5.9
		c0-2.3,0.2-4.3,0.6-6l0.9-3.4h3.4c0-0.1,0-0.3,0-0.4c0-2.3,0.2-4.3,0.6-6l0.9-3.4h18.1c0-0.1,0-0.6,0-0.8h-15.7l-0.8-3.5
		c-0.4-1.7-0.6-3.7-0.6-5.9c0-2.3,0.2-4.3,0.6-6l0.9-3.4h29l0.8,3.4c0.4,1.7,0.6,3.6,0.6,6c0,0.1,0,0.3,0,0.4h3.4l0.9,3.4
		c0.4,1.7,0.6,3.6,0.6,6c0,1.8-0.1,3.4-0.4,4.9c0.3,1.4,0.4,3,0.4,4.9c0,1.8-0.1,3.4-0.4,4.9c0.3,1.4,0.4,3,0.4,4.9
		c0,0.1,0,0.3,0,0.4h3.4l0.8,3.4c0.4,1.7,0.6,3.6,0.6,6c0,2.2-0.2,4.2-0.6,5.9l-0.8,3.5H214.1z M232.2,305.4c0-0.1,0-0.6,0-0.8h-4.7
		c0,0.1,0,0.6,0,0.8H232.2z M233.6,265.5l-0.8-3.5c-0.2-1-0.4-2.1-0.5-3.3c-0.1,1.2-0.3,2.3-0.5,3.3l-0.8,3.5h-16.9l-0.8-3.5
		c-0.4-1.7-0.6-3.7-0.6-5.9c0-2.3,0.2-4.3,0.6-6l0.9-3.4h16.8l0.8,3.4c0.2,1,0.4,2.1,0.5,3.3c0.1-1.2,0.3-2.3,0.5-3.3l0.9-3.4h16.8
		l0.8,3.4c0.4,1.7,0.6,3.6,0.6,6c0,2.2-0.2,4.2-0.6,5.9l-0.8,3.5H233.6z"/>
	<path d="M247,251.3c0.3,1.3,0.5,2.9,0.5,4.9c0,1.9-0.2,3.5-0.5,4.9h-9.8c-0.3-1.4-0.5-3-0.5-4.9c0-2,0.2-3.6,0.5-4.9H247
		 M227.4,251.3c0.3,1.3,0.5,2.9,0.5,4.9c0,1.9-0.2,3.5-0.5,4.9h-9.8c-0.3-1.4-0.5-3-0.5-4.9c0-2,0.2-3.6,0.5-4.9H227.4 M242.1,270.8
		c0.3,1.3,0.5,2.9,0.5,4.9c0,1.9-0.2,3.5-0.5,4.9h4.9c0.3,1.3,0.5,2.9,0.5,4.9c0,1.9-0.2,3.5-0.5,4.9c0.3,1.3,0.5,2.9,0.5,4.9
		c0,1.9-0.2,3.5-0.5,4.9c0.3,1.3,0.5,2.9,0.5,4.9c0,1.9-0.2,3.5-0.5,4.9h4.9c0.3,1.3,0.5,2.9,0.5,4.9c0,1.9-0.2,3.5-0.5,4.9h-9.8
		c-0.3-1.4-0.5-3-0.5-4.9c0-2,0.2-3.6,0.5-4.9h-4.9c-0.3-1.4-0.5-3-0.5-4.9c0-2,0.2-3.6,0.5-4.9h-14.6c0.3,1.3,0.5,2.9,0.5,4.9
		c0,1.9-0.2,3.5-0.5,4.9h14.6c0.3,1.3,0.5,2.9,0.5,4.9c0,1.9-0.2,3.5-0.5,4.9h-19.5c-0.3-1.4-0.5-3-0.5-4.9c0-2,0.2-3.6,0.5-4.9
		h-4.9c-0.3-1.4-0.5-3-0.5-4.9c0-2,0.2-3.6,0.5-4.9h4.9c-0.3-1.4-0.5-3-0.5-4.9c0-2,0.2-3.6,0.5-4.9h19.5c-0.3-1.4-0.5-3-0.5-4.9
		c0-2,0.2-3.6,0.5-4.9h-17.1c-0.3-1.4-0.5-3-0.5-4.9c0-2,0.2-3.6,0.5-4.9H242.1 M254,242.3h-7h-9.8h-2.7h-7h-9.8h-7l-1.7,6.8
		c-0.5,2-0.8,4.3-0.8,7.1c0,2.6,0.2,4.9,0.7,6.9l1.6,6.9h0.5c-0.3,1.7-0.5,3.5-0.5,5.7c0,2.1,0.2,3.9,0.5,5.7h-0.4l-1.7,6.8
		c-0.2,0.9-0.4,1.9-0.5,3h-2.6l-1.7,6.8c-0.5,2-0.8,4.4-0.8,7.1c0,2.6,0.2,4.9,0.7,7l1.6,6.9h2.7c0.1,1,0.3,1.9,0.5,2.8l1.6,6.9h7.1
		h19.5h7.1h7.5h7.1l1.6-6.9c0.5-2.1,0.7-4.4,0.7-6.9c0-2.7-0.2-5-0.8-7.1l-1.7-6.8h-2.7c0-0.3-0.1-0.5-0.1-0.8
		c0.2-1.5,0.3-3.1,0.3-4.9c0-1.8-0.1-3.4-0.3-4.9c0.2-1.5,0.3-3.1,0.3-4.9c0-2.7-0.2-5-0.8-7.1l-1.7-6.8h-2.7
		c-0.1-0.5-0.1-1-0.2-1.5h3l1.6-6.9c0.5-2.1,0.7-4.4,0.7-6.9c0-2.7-0.2-5-0.8-7.1L254,242.3L254,242.3z"/>
</g>
<g>
	<path class="st0" d="M258.1,324.1l-0.8-3.5c-0.4-1.7-0.6-3.7-0.6-5.9c0-2.3,0.2-4.3,0.6-6l0.9-3.4h5.8c0-0.1,0-0.3,0-0.4
		c0-1.9,0.1-3.5,0.4-4.9c-0.3-1.5-0.4-3.1-0.4-4.9c0-1.9,0.1-3.5,0.4-4.9c-0.3-1.5-0.4-3.1-0.4-4.9c0-0.1,0-0.3,0-0.4h-5.9l-0.8-3.5
		c-0.4-1.7-0.6-3.7-0.6-5.9c0-2.3,0.2-4.3,0.6-6l0.9-3.4h42.4l0.8,3.4c0.4,1.7,0.6,3.6,0.6,6c0,0.1,0,0.3,0,0.4h2.2l0.9,3.4
		c0.4,1.7,0.6,3.6,0.6,6c0,2.2-0.2,4.2-0.6,5.9l-0.8,3.5h-16.9l-0.7-3l-0.7,3h-2.2c0,0.1,0,0.3,0,0.4c0,1.8-0.1,3.4-0.4,4.9
		c0.3,1.4,0.4,3,0.4,4.9c0,0.1,0,0.3,0,0.4h5.9l0.8,3.4c0.4,1.7,0.6,3.6,0.6,6c0,2.2-0.2,4.2-0.6,5.9l-0.8,3.5H258.1z"/>
	<path d="M297,270.8c0.3,1.3,0.5,2.9,0.5,4.9c0,1.9-0.2,3.5-0.5,4.9h3.7c0.3,1.3,0.5,2.9,0.5,4.9c0,1.9-0.2,3.5-0.5,4.9h-9.8
		c-0.3-1.4-0.5-3-0.5-4.9c0-2,0.2-3.6,0.5-4.9h-8.5c0.3,1.3,0.5,2.9,0.5,4.9c0,1.9-0.2,3.5-0.5,4.9h-3.7c0.3,1.3,0.5,2.9,0.5,4.9
		c0,1.9-0.2,3.5-0.5,4.9c0.3,1.3,0.5,2.9,0.5,4.9c0,1.9-0.2,3.5-0.5,4.9h7.3c0.3,1.3,0.5,2.9,0.5,4.9c0,1.9-0.2,3.5-0.5,4.9h-24.4
		c-0.3-1.4-0.5-3-0.5-4.9c0-2,0.2-3.6,0.5-4.9h7.3c-0.3-1.4-0.5-3-0.5-4.9c0-2,0.2-3.6,0.5-4.9c-0.3-1.4-0.5-3-0.5-4.9
		c0-2,0.2-3.6,0.5-4.9c-0.3-1.4-0.5-3-0.5-4.9c0-2,0.2-3.6,0.5-4.9h-7.3c-0.3-1.4-0.5-3-0.5-4.9c0-2,0.2-3.6,0.5-4.9h12.2
		c0.3,1.3,0.5,2.9,0.5,4.9c0,1.9-0.2,3.5-0.5,4.9h4.9c-0.3-1.4-0.5-3-0.5-4.9c0-2,0.2-3.6,0.5-4.9H297 M304,261.8h-7h-16.2h-7h-12.2
		h-7l-1.7,6.8c-0.5,2-0.8,4.4-0.8,7.1c0,2.6,0.2,4.9,0.7,7l1.6,6.9h5.2c0,0.3,0.1,0.5,0.1,0.7c-0.2,1.5-0.3,3.1-0.3,4.9
		c0,1.8,0.1,3.4,0.3,4.9c0,0.3-0.1,0.5-0.1,0.8h-5.1l-1.7,6.8c-0.5,2-0.8,4.4-0.8,7.1c0,2.6,0.2,4.9,0.7,7l1.6,6.9h7.1H286h7.1
		l1.6-6.9c0.5-2.1,0.7-4.4,0.7-6.9c0-2.7-0.2-5-0.8-7.1l-1.7-6.8H288c0-0.3-0.1-0.5-0.1-0.8c0-0.2,0.1-0.5,0.1-0.7h1.5h1.4h9.8h7.1
		l1.6-6.9c0.5-2.1,0.7-4.4,0.7-6.9c0-2.7-0.2-5-0.8-7.1l-1.7-6.8h-1.4c-0.1-1-0.3-2-0.5-2.9L304,261.8L304,261.8z"/>
</g>
<g>
	<path class="st0" d="M336.2,324.1l-0.8-3.5c-0.4-1.7-0.6-3.7-0.6-5.9c0-1.9,0.1-3.5,0.4-4.9c-0.3-1.5-0.4-3.1-0.4-4.9
		c0-1.9,0.1-3.5,0.4-4.9c-0.3-1.5-0.4-3.1-0.4-4.9c0-1.9,0.1-3.5,0.4-4.9c-0.3-1.5-0.4-3.1-0.4-4.9c0-0.1,0-0.3,0-0.4h-5.9
		c0,0.1,0,0.3,0,0.4c0,2.2-0.2,4.2-0.6,5.9l-0.8,3.5h-2.2c0,0.1,0,0.3,0,0.4c0,1.8-0.1,3.4-0.4,4.9c0.3,1.4,0.4,3,0.4,4.9
		c0,1.8-0.1,3.4-0.4,4.9c0.3,1.4,0.4,3,0.4,4.9c0,2.2-0.2,4.2-0.6,5.9l-0.8,3.5h-16.9l-0.8-3.5c-0.4-1.7-0.6-3.7-0.6-5.9
		c0-1.9,0.1-3.5,0.4-4.9c-0.3-1.5-0.4-3.1-0.4-4.9c0-1.9,0.1-3.5,0.4-4.9c-0.3-1.5-0.4-3.1-0.4-4.9c0-1.9,0.1-3.5,0.4-4.9
		c-0.3-1.5-0.4-3.1-0.4-4.9c0-1.9,0.1-3.5,0.4-4.9c-0.3-1.5-0.4-3.1-0.4-4.9c0-2.3,0.2-4.3,0.6-6l0.9-3.4h40l0.9,3.4
		c0.4,1.7,0.6,3.6,0.6,6c0,0.1,0,0.3,0,0.4h4.6l0.9,3.4c0.4,1.7,0.6,3.6,0.6,6c0,1.8-0.1,3.4-0.4,4.9c0.3,1.4,0.4,3,0.4,4.9
		c0,1.8-0.1,3.4-0.4,4.9c0.3,1.4,0.4,3,0.4,4.9c0,1.8-0.1,3.4-0.4,4.9c0.3,1.4,0.4,3,0.4,4.9c0,2.2-0.2,4.2-0.6,5.9l-0.8,3.5H336.2z
		"/>
	<path d="M343.4,270.8c0.3,1.3,0.5,2.9,0.5,4.9c0,1.9-0.2,3.5-0.5,4.9h6.1c0.3,1.3,0.5,2.9,0.5,4.9c0,1.9-0.2,3.5-0.5,4.9
		c0.3,1.3,0.5,2.9,0.5,4.9c0,1.9-0.2,3.5-0.5,4.9c0.3,1.3,0.5,2.9,0.5,4.9c0,1.9-0.2,3.5-0.5,4.9c0.3,1.3,0.5,2.9,0.5,4.9
		c0,1.9-0.2,3.5-0.5,4.9h-9.8c-0.3-1.4-0.5-3-0.5-4.9c0-2,0.2-3.6,0.5-4.9c-0.3-1.4-0.5-3-0.5-4.9c0-2,0.2-3.6,0.5-4.9
		c-0.3-1.4-0.5-3-0.5-4.9c0-2,0.2-3.6,0.5-4.9c-0.3-1.4-0.5-3-0.5-4.9c0-2,0.2-3.6,0.5-4.9h-15.9c-0.3-1.4-0.5-3-0.5-4.9
		c0-2,0.2-3.6,0.5-4.9H343.4 M319,270.8c0.3,1.3,0.5,2.9,0.5,4.9c0,1.9-0.2,3.5-0.5,4.9h4.9c0.3,1.3,0.5,2.9,0.5,4.9
		c0,1.9-0.2,3.5-0.5,4.9h-3.7c0.3,1.3,0.5,2.9,0.5,4.9c0,1.9-0.2,3.5-0.5,4.9c0.3,1.3,0.5,2.9,0.5,4.9c0,1.9-0.2,3.5-0.5,4.9
		c0.3,1.3,0.5,2.9,0.5,4.9c0,1.9-0.2,3.5-0.5,4.9h-9.8c-0.3-1.4-0.5-3-0.5-4.9c0-2,0.2-3.6,0.5-4.9c-0.3-1.4-0.5-3-0.5-4.9
		c0-2,0.2-3.6,0.5-4.9c-0.3-1.4-0.5-3-0.5-4.9c0-2,0.2-3.6,0.5-4.9c-0.3-1.4-0.5-3-0.5-4.9c0-2,0.2-3.6,0.5-4.9
		c-0.3-1.4-0.5-3-0.5-4.9c0-2,0.2-3.6,0.5-4.9H319 M350.4,261.8h-7H326h-7h-8.5h-7l-1.7,6.8c-0.5,2-0.8,4.4-0.8,7.1
		c0,1.8,0.1,3.4,0.3,4.9c-0.2,1.5-0.3,3.1-0.3,4.9c0,1.8,0.1,3.4,0.3,4.9c-0.2,1.5-0.3,3.1-0.3,4.9c0,1.8,0.1,3.4,0.3,4.9
		c-0.2,1.5-0.3,3.1-0.3,4.9c0,1.8,0.1,3.4,0.3,4.9c-0.2,1.5-0.3,3.1-0.3,4.9c0,2.6,0.2,4.9,0.7,7l1.6,6.9h7.1h9.8h7.1l1.6-6.9
		c0.5-2.1,0.7-4.4,0.7-6.9c0-1.8-0.1-3.4-0.3-4.9c0.2-1.5,0.3-3.1,0.3-4.9c0-1.8-0.1-3.4-0.3-4.9c0-0.2,0.1-0.5,0.1-0.7h1
		c0,0.3,0.1,0.5,0.1,0.7c-0.2,1.5-0.3,3.1-0.3,4.9c0,1.8,0.1,3.4,0.3,4.9c-0.2,1.5-0.3,3.1-0.3,4.9c0,2.6,0.2,4.9,0.7,6.9l1.6,6.9
		h7.1h9.8h7.1l1.6-6.9c0.5-2.1,0.7-4.4,0.7-6.9c0-1.8-0.1-3.4-0.3-4.9c0.2-1.5,0.3-3.1,0.3-4.9c0-1.8-0.1-3.4-0.3-4.9
		c0.2-1.5,0.3-3.1,0.3-4.9c0-1.8-0.1-3.4-0.3-4.9c0.2-1.5,0.3-3.1,0.3-4.9c0-2.7-0.2-5-0.8-7.1l-1.7-6.8h-3.9c-0.1-1-0.3-2-0.5-2.9
		L350.4,261.8L350.4,261.8z"/>
</g>
<g>
	<path class="st0" d="M360.6,324.1l-0.8-3.5c-0.4-1.7-0.6-3.7-0.6-5.9c0-2.3,0.2-4.3,0.6-6l0.9-3.4h20.5c0-0.1,0-0.6,0-0.8H363
		l-0.8-3.5c-0.4-1.7-0.6-3.7-0.6-5.9c0-0.1,0-0.3,0-0.4h-3.5l-0.8-3.5c-0.4-1.7-0.6-3.7-0.6-5.9c0-2.3,0.2-4.3,0.6-6l0.9-3.4h3.4
		c0-0.1,0-0.3,0-0.4c0-2.3,0.2-4.3,0.6-6l0.9-3.4H397l0.8,3.4c0.4,1.7,0.6,3.6,0.6,6c0,2.2-0.2,4.2-0.6,5.9l-0.8,3.5h-20.6
		c0,0.1,0,0.6,0,0.8h18.1l0.9,3.4c0.4,1.7,0.6,3.6,0.6,6c0,0.1,0,0.3,0,0.4h3.4l0.8,3.4c0.4,1.7,0.6,3.6,0.6,6
		c0,2.2-0.2,4.2-0.6,5.9l-0.8,3.5H396c0,0.1,0,0.3,0,0.4c0,2.2-0.2,4.2-0.6,5.9l-0.8,3.5H360.6z"/>
	<path d="M393.5,270.8c0.3,1.3,0.5,2.9,0.5,4.9c0,1.9-0.2,3.5-0.5,4.9h-22c0.3,1.3,0.5,2.9,0.5,4.9c0,1.9-0.2,3.5-0.5,4.9H391
		c0.3,1.3,0.5,2.9,0.5,4.9c0,1.9-0.2,3.5-0.5,4.9h4.9c0.3,1.3,0.5,2.9,0.5,4.9c0,1.9-0.2,3.5-0.5,4.9H391c0.3,1.3,0.5,2.9,0.5,4.9
		c0,1.9-0.2,3.5-0.5,4.9h-26.9c-0.3-1.4-0.5-3-0.5-4.9c0-2,0.2-3.6,0.5-4.9h22c-0.3-1.4-0.5-3-0.5-4.9c0-2,0.2-3.6,0.5-4.9h-19.5
		c-0.3-1.4-0.5-3-0.5-4.9c0-2,0.2-3.6,0.5-4.9h-4.9c-0.3-1.4-0.5-3-0.5-4.9c0-2,0.2-3.6,0.5-4.9h4.9c-0.3-1.4-0.5-3-0.5-4.9
		c0-2,0.2-3.6,0.5-4.9H393.5 M400.5,261.8h-7h-26.9h-7l-1.7,6.8c-0.2,0.9-0.4,1.9-0.5,3h-2.6l-1.7,6.8c-0.5,2-0.8,4.3-0.8,7.1
		c0,2.6,0.2,4.9,0.7,6.9l1.6,6.9h2.8c0.1,0.5,0.1,1,0.2,1.5h-0.4l-1.7,6.8c-0.5,2-0.8,4.3-0.8,7.1c0,2.6,0.2,4.9,0.7,6.9l1.6,6.9
		h7.1H391h7.1l1.6-6.9c0.2-0.9,0.4-1.8,0.5-2.8h2.8l1.6-6.9c0.5-2.1,0.7-4.4,0.7-6.9c0-2.7-0.2-5-0.8-7.1l-1.7-6.8h-2.7
		c-0.1-0.5-0.1-1-0.2-1.5h0.5l1.6-6.9c0.5-2.1,0.7-4.4,0.7-6.9c0-2.7-0.2-5-0.8-7.1L400.5,261.8L400.5,261.8z"/>
</g>
<g>
	<path class="st0" d="M426.5,324.1l-0.8-3.5c-0.4-1.7-0.6-3.7-0.6-5.9c0-0.1,0-0.3,0-0.4h-2.2c0,0.1,0,0.3,0,0.4
		c0,2.2-0.2,4.2-0.6,5.9l-0.8,3.5h-16.9l-0.8-3.5c-0.4-1.7-0.6-3.7-0.6-5.9c0-1.9,0.1-3.5,0.4-4.9c-0.3-1.5-0.4-3.1-0.4-4.9
		c0-1.9,0.1-3.5,0.4-4.9c-0.3-1.5-0.4-3.1-0.4-4.9c0-1.9,0.1-3.5,0.4-4.9c-0.3-1.5-0.4-3.1-0.4-4.9c0-1.9,0.1-3.5,0.4-4.9
		c-0.3-1.5-0.4-3.1-0.4-4.9c0-1.9,0.1-3.5,0.4-4.9c-0.3-1.5-0.4-3.1-0.4-4.9c0-1.9,0.1-3.5,0.4-4.9c-0.3-1.5-0.4-3.1-0.4-4.9
		c0-2.3,0.2-4.3,0.6-6l0.9-3.4h16.8l0.9,3.4c0.4,1.7,0.6,3.6,0.6,6c0,1.8-0.1,3.4-0.4,4.9c0.3,1.4,0.4,3,0.4,4.9
		c0,1.8-0.1,3.4-0.4,4.9c0.3,1.4,0.4,3,0.4,4.9c0,0.1,0,0.3,0,0.4h2.2c0-0.1,0-0.3,0-0.4c0-2.3,0.2-4.3,0.6-6l0.9-3.4h21.7l0.8,3.4
		c0.4,1.7,0.6,3.6,0.6,6c0,2.2-0.2,4.2-0.6,5.9l-0.8,3.5H440c0,0.1,0,0.3,0,0.4c0,2.2-0.2,4.2-0.6,5.9l-0.8,3.5h-3.5
		c0,0.1,0,0.6,0,0.8h3.4l0.8,3.4c0.4,1.7,0.6,3.6,0.6,6c0,0.1,0,0.3,0,0.4h10.7l0.8,3.4c0.4,1.7,0.6,3.6,0.6,6
		c0,2.2-0.2,4.2-0.6,5.9l-0.8,3.5H426.5z"/>
	<path d="M417.9,251.3c0.3,1.3,0.5,2.9,0.5,4.9c0,1.9-0.2,3.5-0.5,4.9c0.3,1.3,0.5,2.9,0.5,4.9c0,1.9-0.2,3.5-0.5,4.9
		c0.3,1.3,0.5,2.9,0.5,4.9c0,1.9-0.2,3.5-0.5,4.9c0.3,1.3,0.5,2.9,0.5,4.9c0,1.9-0.2,3.5-0.5,4.9h7.3c-0.3-1.4-0.5-3-0.5-4.9
		c0-2,0.2-3.6,0.5-4.9h4.9c-0.3-1.4-0.5-3-0.5-4.9c0-2,0.2-3.6,0.5-4.9h14.7c0.3,1.3,0.5,2.9,0.5,4.9c0,1.9-0.2,3.5-0.5,4.9H435
		c0.3,1.3,0.5,2.9,0.5,4.9c0,1.9-0.2,3.5-0.5,4.9h-4.9c0.3,1.3,0.5,2.9,0.5,4.9c0,1.9-0.2,3.5-0.5,4.9h4.9c0.3,1.3,0.5,2.9,0.5,4.9
		c0,1.9-0.2,3.5-0.5,4.9h12.2c0.3,1.3,0.5,2.9,0.5,4.9c0,1.9-0.2,3.5-0.5,4.9h-17.1c-0.3-1.4-0.5-3-0.5-4.9c0-2,0.2-3.6,0.5-4.9
		h-4.9c-0.3-1.4-0.5-3-0.5-4.9c0-2,0.2-3.6,0.5-4.9h-7.3c0.3,1.3,0.5,2.9,0.5,4.9c0,1.9-0.2,3.5-0.5,4.9c0.3,1.3,0.5,2.9,0.5,4.9
		c0,1.9-0.2,3.5-0.5,4.9h-9.8c-0.3-1.4-0.5-3-0.5-4.9c0-2,0.2-3.6,0.5-4.9c-0.3-1.4-0.5-3-0.5-4.9c0-2,0.2-3.6,0.5-4.9
		c-0.3-1.4-0.5-3-0.5-4.9c0-2,0.2-3.6,0.5-4.9c-0.3-1.4-0.5-3-0.5-4.9c0-2,0.2-3.6,0.5-4.9c-0.3-1.4-0.5-3-0.5-4.9
		c0-2,0.2-3.6,0.5-4.9c-0.3-1.4-0.5-3-0.5-4.9c0-2,0.2-3.6,0.5-4.9c-0.3-1.4-0.5-3-0.5-4.9c0-2,0.2-3.6,0.5-4.9H417.9 M424.9,242.3
		h-7h-9.8h-7l-1.7,6.8c-0.5,2-0.8,4.4-0.8,7.1c0,1.8,0.1,3.4,0.3,4.9c-0.2,1.5-0.3,3.1-0.3,4.9c0,1.8,0.1,3.4,0.3,4.9
		c-0.2,1.5-0.3,3.1-0.3,4.9c0,1.8,0.1,3.4,0.3,4.9c-0.2,1.5-0.3,3.1-0.3,4.9c0,1.8,0.1,3.4,0.3,4.9c-0.2,1.5-0.3,3.1-0.3,4.9
		c0,1.8,0.1,3.4,0.3,4.9c-0.2,1.5-0.3,3.1-0.3,4.9c0,1.8,0.1,3.4,0.3,4.9c-0.2,1.5-0.3,3.1-0.3,4.9c0,2.6,0.2,4.9,0.7,7l1.6,6.9h7.1
		h9.8h7.1h5.1h17.1h7.1l1.6-6.9c0.5-2.1,0.7-4.4,0.7-6.9c0-2.7-0.2-5-0.8-7.1l-1.7-6.8h-7h-2.9c-0.1-1-0.3-2-0.5-2.9l-0.7-2.6
		l0.7-2.9c0.2-0.9,0.4-1.8,0.5-2.8h0.5h7.1l1.6-6.9c0.5-2.1,0.7-4.4,0.7-6.9c0-2.7-0.2-5-0.8-7.1l-1.7-6.8h-7h-14.7h-2.9
		c0-0.3-0.1-0.5-0.1-0.8c0.2-1.5,0.3-3.1,0.3-4.9c0-2.7-0.2-5-0.8-7.1L424.9,242.3L424.9,242.3z"/>
</g>
<g>
	<path class="st0" d="M463.1,324.1l-0.8-3.5c-0.4-1.7-0.6-3.7-0.6-5.9c0-0.1,0-0.3,0-0.4H457l-0.8-3.5c-0.4-1.7-0.6-3.7-0.6-5.9
		c0-0.1,0-0.3,0-0.4h-2.2l-0.8-3.5c-0.4-1.7-0.6-3.7-0.6-5.9c0-2.4,0.2-4.3,0.6-6l0.9-3.4h2.2c0-0.1,0-0.3,0-0.4
		c0-2.3,0.2-4.3,0.6-6l0.9-3.4h4.6c0-0.1,0-0.3,0-0.4c0-2.3,0.2-4.3,0.6-6l0.9-3.4h26.6l0.8,3.4c0.4,1.7,0.6,3.6,0.6,6
		c0,0.1,0,0.3,0,0.4h4.6l0.9,3.4c0.4,1.7,0.6,3.6,0.6,6c0,0.1,0,0.3,0,0.4h2.2l0.9,3.4c0.4,1.7,0.6,3.6,0.6,6c0,2.2-0.2,4.2-0.6,5.9
		l-0.8,3.5h-2.2c0,0.1,0,0.3,0,0.4c0,2.2-0.2,4.2-0.6,5.9l-0.8,3.5h-4.7c0,0.1,0,0.3,0,0.4c0,2.2-0.2,4.2-0.6,5.9l-0.8,3.5H463.1z
		 M477.6,305.4c0-0.1,0-0.3,0-0.4c0-2.3,0.2-4.3,0.6-6l0.9-3.4h2.2c0-0.1,0-0.6,0-0.8H479l-0.8-3.5c-0.4-1.7-0.6-3.7-0.6-5.9
		c0-0.1,0-0.3,0-0.4h-2.2c0,0.1,0,0.3,0,0.4c0,2.2-0.2,4.2-0.6,5.9l-0.8,3.5h-2.2c0,0.1,0,0.6,0,0.8h2.2l0.8,3.4
		c0.4,1.7,0.6,3.6,0.6,6c0,0.1,0,0.3,0,0.4H477.6z"/>
	<path d="M486.2,270.8c0.3,1.3,0.5,2.9,0.5,4.9c0,1.9-0.2,3.5-0.5,4.9h6.1c0.3,1.3,0.5,2.9,0.5,4.9c0,1.9-0.2,3.5-0.5,4.9h3.7
		c0.3,1.3,0.5,2.9,0.5,4.9c0,1.9-0.2,3.5-0.5,4.9h-3.7c0.3,1.3,0.5,2.9,0.5,4.9c0,1.9-0.2,3.5-0.5,4.9h-6.1c0.3,1.3,0.5,2.9,0.5,4.9
		c0,1.9-0.2,3.5-0.5,4.9h-19.5c-0.3-1.4-0.5-3-0.5-4.9c0-2,0.2-3.6,0.5-4.9h-6.1c-0.3-1.4-0.5-3-0.5-4.9c0-2,0.2-3.6,0.5-4.9h-3.7
		c-0.3-1.4-0.5-3-0.5-4.9c0-2,0.2-3.6,0.5-4.9h3.7c-0.3-1.4-0.5-3-0.5-4.9c0-2,0.2-3.6,0.5-4.9h6.1c-0.3-1.4-0.5-3-0.5-4.9
		c0-2,0.2-3.6,0.5-4.9H486.2 M466.7,300.1h3.7c0.3,1.3,0.5,2.9,0.5,4.9c0,1.9-0.2,3.5-0.5,4.9h12.2c-0.3-1.4-0.5-3-0.5-4.9
		c0-2,0.2-3.6,0.5-4.9h3.7c-0.3-1.4-0.5-3-0.5-4.9c0-2,0.2-3.6,0.5-4.9h-3.7c-0.3-1.4-0.5-3-0.5-4.9c0-2,0.2-3.6,0.5-4.9h-12.2
		c0.3,1.3,0.5,2.9,0.5,4.9c0,1.9-0.2,3.5-0.5,4.9h-3.7c0.3,1.3,0.5,2.9,0.5,4.9C467.2,297.1,467,298.7,466.7,300.1 M493.3,261.8h-7
		h-19.5h-7l-1.7,6.8c-0.2,0.9-0.4,1.9-0.5,3h-3.9l-1.7,6.8c-0.2,0.9-0.4,1.9-0.5,3h-1.4l-1.7,6.8c-0.5,2-0.8,4.4-0.8,7.1
		c0,2.6,0.2,4.9,0.7,7l1.6,6.9h1.5c0.1,1,0.3,1.9,0.5,2.8l1.6,6.9h4c0.1,1,0.3,1.9,0.5,2.8l1.6,6.9h7.1h19.5h7.1l1.6-6.9
		c0.2-0.9,0.4-1.8,0.5-2.8h4l1.6-6.9c0.2-0.9,0.4-1.8,0.5-2.8h1.5l1.6-6.9c0.5-2.1,0.7-4.4,0.7-6.9c0-2.7-0.2-5-0.8-7.1l-1.7-6.8
		h-1.4c-0.1-1-0.3-2-0.5-2.9l-1.7-6.8h-3.9c-0.1-1-0.3-2-0.5-2.9L493.3,261.8L493.3,261.8z"/>
</g>
<g>
	<path class="st0" d="M516.9,324.1l-0.8-3.5c-0.4-1.7-0.6-3.7-0.6-5.9c0-0.1,0-0.3,0-0.4H512l-0.8-3.5c-0.4-1.7-0.6-3.7-0.6-5.9
		c0-1.9,0.1-3.5,0.4-4.9c-0.3-1.5-0.4-3.1-0.4-4.9c0-1.9,0.1-3.5,0.4-4.9c-0.3-1.5-0.4-3.1-0.4-4.9c0-0.1,0-0.3,0-0.4h-8.3l-0.8-3.5
		c-0.4-1.7-0.6-3.7-0.6-5.9c0-2.3,0.2-4.3,0.6-6l0.9-3.4h8.3c0-0.1,0-0.3,0-0.4c0-1.9,0.1-3.5,0.4-4.9c-0.3-1.5-0.4-3.1-0.4-4.9
		c0-2.3,0.2-4.3,0.6-6l0.9-3.4h16.8l0.9,3.4c0.4,1.7,0.6,3.6,0.6,6c0,1.8-0.1,3.4-0.4,4.9c0.3,1.4,0.4,3,0.4,4.9c0,0.1,0,0.3,0,0.4
		h13.2l0.9,3.4c0.4,1.7,0.6,3.6,0.6,6c0,2.2-0.2,4.2-0.6,5.9l-0.8,3.5h-13.2c0,0.1,0,0.3,0,0.4c0,1.8-0.1,3.4-0.4,4.9
		c0.3,1.4,0.4,3,0.4,4.9c0,1.8-0.1,3.4-0.4,4.9c0.3,1.4,0.4,3,0.4,4.9c0,0.1,0,0.3,0,0.4h13.2l0.9,3.4c0.4,1.7,0.6,3.6,0.6,6
		c0,2.2-0.2,4.2-0.6,5.9l-0.8,3.5H516.9z"/>
	<path d="M525.3,251.3c0.3,1.3,0.5,2.9,0.5,4.9c0,1.9-0.2,3.5-0.5,4.9c0.3,1.3,0.5,2.9,0.5,4.9c0,1.9-0.2,3.5-0.5,4.9H540
		c0.3,1.3,0.5,2.9,0.5,4.9c0,1.9-0.2,3.5-0.5,4.9h-14.6c0.3,1.3,0.5,2.9,0.5,4.9c0,1.9-0.2,3.5-0.5,4.9c0.3,1.3,0.5,2.9,0.5,4.9
		c0,1.9-0.2,3.5-0.5,4.9c0.3,1.3,0.5,2.9,0.5,4.9c0,1.9-0.2,3.5-0.5,4.9H540c0.3,1.3,0.5,2.9,0.5,4.9c0,1.9-0.2,3.5-0.5,4.9h-19.5
		c-0.3-1.4-0.5-3-0.5-4.9c0-2,0.2-3.6,0.5-4.9h-4.9c-0.3-1.4-0.5-3-0.5-4.9c0-2,0.2-3.6,0.5-4.9c-0.3-1.4-0.5-3-0.5-4.9
		c0-2,0.2-3.6,0.5-4.9c-0.3-1.4-0.5-3-0.5-4.9c0-2,0.2-3.6,0.5-4.9h-9.8c-0.3-1.4-0.5-3-0.5-4.9c0-2,0.2-3.6,0.5-4.9h9.8
		c-0.3-1.4-0.5-3-0.5-4.9c0-2,0.2-3.6,0.5-4.9c-0.3-1.4-0.5-3-0.5-4.9c0-2,0.2-3.6,0.5-4.9H525.3 M532.3,242.3h-7h-9.8h-7l-1.7,6.8
		c-0.5,2-0.8,4.4-0.8,7.1c0,1.8,0.1,3.4,0.3,4.9c0,0.3-0.1,0.5-0.1,0.8h-0.5h-7l-1.7,6.8c-0.5,2-0.8,4.4-0.8,7.1
		c0,2.6,0.2,4.9,0.7,7l1.6,6.9h7.1h0.5c0,0.3,0.1,0.5,0.1,0.7c-0.2,1.5-0.3,3.1-0.3,4.9c0,1.8,0.1,3.4,0.3,4.9
		c-0.2,1.5-0.3,3.1-0.3,4.9c0,2.6,0.2,4.9,0.7,7l1.6,6.9h2.7c0.1,1,0.3,1.9,0.5,2.8l1.6,6.9h7.1H540h7.1l1.6-6.9
		c0.5-2.1,0.7-4.4,0.7-6.9c0-2.7-0.2-5-0.8-7.1l-1.7-6.8h-7h-5.4c0-0.3-0.1-0.5-0.1-0.8c0.2-1.5,0.3-3.1,0.3-4.9
		c0-1.8-0.1-3.4-0.3-4.9c0-0.2,0.1-0.5,0.1-0.7h5.4h7.1l1.6-6.9c0.5-2.1,0.7-4.4,0.7-6.9c0-2.7-0.2-5-0.8-7.1l-1.7-6.8h-7h-5.4
		c0-0.3-0.1-0.5-0.1-0.8c0.2-1.5,0.3-3.1,0.3-4.9c0-2.7-0.2-5-0.8-7.1L532.3,242.3L532.3,242.3z"/>
</g>
<g>
	<path class="st0" d="M565.7,324.1l-0.8-3.5c-0.4-1.7-0.6-3.7-0.6-5.9c0-0.1,0-0.3,0-0.4h-3.5l-0.8-3.5c-0.4-1.7-0.6-3.7-0.6-5.9
		c0-1.9,0.1-3.5,0.4-4.9c-0.3-1.5-0.4-3.1-0.4-4.9c0-1.9,0.1-3.5,0.4-4.9c-0.3-1.5-0.4-3.1-0.4-4.9c0-0.1,0-0.3,0-0.4H551l-0.8-3.5
		c-0.4-1.7-0.6-3.7-0.6-5.9c0-2.3,0.2-4.3,0.6-6l0.9-3.4h8.3c0-0.1,0-0.3,0-0.4c0-1.9,0.1-3.5,0.4-4.9c-0.3-1.5-0.4-3.1-0.4-4.9
		c0-2.3,0.2-4.3,0.6-6l0.9-3.4h16.8l0.8,3.4c0.4,1.7,0.6,3.6,0.6,6c0,1.8-0.1,3.4-0.4,4.9c0.3,1.4,0.4,3,0.4,4.9c0,0.1,0,0.3,0,0.4
		h13.2l0.8,3.4c0.4,1.7,0.6,3.6,0.6,6c0,2.2-0.2,4.2-0.6,5.9l-0.8,3.5h-13.2c0,0.1,0,0.3,0,0.4c0,1.8-0.1,3.4-0.4,4.9
		c0.3,1.4,0.4,3,0.4,4.9c0,1.8-0.1,3.4-0.4,4.9c0.3,1.4,0.4,3,0.4,4.9c0,0.1,0,0.3,0,0.4h13.2l0.8,3.4c0.4,1.7,0.6,3.6,0.6,6
		c0,2.2-0.2,4.2-0.6,5.9l-0.8,3.5H565.7z"/>
	<path d="M574.1,251.3c0.3,1.3,0.5,2.9,0.5,4.9c0,1.9-0.2,3.5-0.5,4.9c0.3,1.3,0.5,2.9,0.5,4.9c0,1.9-0.2,3.5-0.5,4.9h14.6
		c0.3,1.3,0.5,2.9,0.5,4.9c0,1.9-0.2,3.5-0.5,4.9h-14.6c0.3,1.3,0.5,2.9,0.5,4.9c0,1.9-0.2,3.5-0.5,4.9c0.3,1.3,0.5,2.9,0.5,4.9
		c0,1.9-0.2,3.5-0.5,4.9c0.3,1.3,0.5,2.9,0.5,4.9c0,1.9-0.2,3.5-0.5,4.9h14.6c0.3,1.3,0.5,2.9,0.5,4.9c0,1.9-0.2,3.5-0.5,4.9h-19.5
		c-0.3-1.4-0.5-3-0.5-4.9c0-2,0.2-3.6,0.5-4.9h-4.9c-0.3-1.4-0.5-3-0.5-4.9c0-2,0.2-3.6,0.5-4.9c-0.3-1.4-0.5-3-0.5-4.9
		c0-2,0.2-3.6,0.5-4.9c-0.3-1.4-0.5-3-0.5-4.9c0-2,0.2-3.6,0.5-4.9h-9.8c-0.3-1.4-0.5-3-0.5-4.9c0-2,0.2-3.6,0.5-4.9h9.8
		c-0.3-1.4-0.5-3-0.5-4.9c0-2,0.2-3.6,0.5-4.9c-0.3-1.4-0.5-3-0.5-4.9c0-2,0.2-3.6,0.5-4.9H574.1 M581.2,242.3h-7h-9.8h-7l-1.7,6.8
		c-0.5,2-0.8,4.4-0.8,7.1c0,1.8,0.1,3.4,0.3,4.9c0,0.3-0.1,0.5-0.1,0.8h-0.5h-7l-1.7,6.8c-0.5,2-0.8,4.4-0.8,7.1
		c0,2.6,0.2,4.9,0.7,7l1.6,6.9h7.1h0.5c0,0.3,0.1,0.5,0.1,0.7c-0.2,1.5-0.3,3.1-0.3,4.9c0,1.8,0.1,3.4,0.3,4.9
		c-0.2,1.5-0.3,3.1-0.3,4.9c0,2.6,0.2,4.9,0.7,7l1.6,6.9h2.7c0.1,1,0.3,1.9,0.5,2.8l1.6,6.9h7.1h19.5h7.1l1.6-6.9
		c0.5-2.1,0.7-4.4,0.7-6.9c0-2.7-0.2-5-0.8-7.1l-1.7-6.8h-7h-5.4c0-0.3-0.1-0.5-0.1-0.8c0.2-1.5,0.3-3.1,0.3-4.9
		c0-1.8-0.1-3.4-0.3-4.9c0-0.2,0.1-0.5,0.1-0.7h5.4h7.1l1.6-6.9c0.5-2.1,0.7-4.4,0.7-6.9c0-2.7-0.2-5-0.8-7.1l-1.7-6.8h-7h-5.4
		c0-0.3-0.1-0.5-0.1-0.8c0.2-1.5,0.3-3.1,0.3-4.9c0-2.7-0.2-5-0.8-7.1L581.2,242.3L581.2,242.3z"/>
</g>
</svg>
