<?xml version="1.0" encoding="utf-8"?>
<!-- Generator: Adobe Illustrator 23.0.1, SVG Export Plug-In . SVG Version: 6.00 Build 0)  -->
<svg version="1.1" id="Lager_1" xmlns="http://www.w3.org/2000/svg" xmlns:xlink="http://www.w3.org/1999/xlink" x="0px" y="0px"
	 viewBox="0 0 146 91" style="enable-background:new 0 0 146 91;" xml:space="preserve">
<style type="text/css">
	.st0{fill:#558630;}
	.st1{fill:#185025;}
	.st2{fill:#B0486C;}
	.st3{fill:#EA5D8E;}
</style>
<g>
	<g>
		<g>
			<g>
				
					<rect x="85.1" y="18.5" transform="matrix(0.8748 -0.4845 0.4845 0.8748 -0.5944 47.4022)" class="st0" width="12.7" height="12.7"/>
			</g>
			<g>
				
					<rect x="97.4" y="40.7" transform="matrix(0.8748 -0.4845 0.4845 0.8748 -9.825 56.1535)" class="st0" width="12.7" height="12.7"/>
			</g>
			<g>
				
					<rect x="109.7" y="63" transform="matrix(0.8748 -0.4845 0.4845 0.8748 -19.0557 64.9048)" class="st0" width="12.7" height="12.7"/>
			</g>
		</g>
	</g>
	<g>
		<g>
			
				<rect x="78.9" y="7.4" transform="matrix(0.8748 -0.4845 0.4845 0.8748 4.0202 43.0273)" class="st1" width="12.7" height="12.7"/>
			
				<rect x="73.9" y="24.7" transform="matrix(0.8748 -0.4845 0.4845 0.8748 -4.97 42.7869)" class="st1" width="12.7" height="12.7"/>
			
				<rect x="86.3" y="46.9" transform="matrix(0.8748 -0.4845 0.4845 0.8748 -14.2007 51.5382)" class="st1" width="12.7" height="12.7"/>
			
				<rect x="98.6" y="69.1" transform="matrix(0.8748 -0.4845 0.4845 0.8748 -23.4313 60.2895)" class="st1" width="12.7" height="12.7"/>
			<polygon class="st1" points="135.8,65.6 124.7,71.8 118.5,60.7 107.4,66.8 101.2,55.7 112.4,49.6 106.2,38.4 95.1,44.6 
				88.9,33.5 100,27.3 93.9,16.2 105,10.1 117.3,32.3 139.6,20 145.7,31.1 123.5,43.4 			"/>
			
				<rect x="115.8" y="74.1" transform="matrix(0.8748 -0.4845 0.4845 0.8748 -23.671 69.2805)" class="st1" width="12.7" height="12.7"/>
		</g>
	</g>
	<g>
		<g>
			<polygon class="st2" points="60.5,34.7 49.4,40.8 43.3,29.7 21,42 14.9,30.9 70.5,0.1 76.6,11.3 54.4,23.6 			"/>
			
				<rect x="24.5" y="66.6" transform="matrix(0.8748 -0.4845 0.4845 0.8748 -31.4636 24.0859)" class="st2" width="12.7" height="12.7"/>
		</g>
	</g>
	<g>
		<g>
			<polygon class="st3" points="119.7,89.1 116.2,91 106.3,91 102.4,84.1 113.6,78 			"/>
			<path class="st3" d="M96.3,73l11.1-6.2l-6.2-11.1l-11.1,6.2L84,50.8l11.1-6.2l-6.2-11.1l-11.1,6.2l-6.2-11.1l11.1-6.2l-6.2-11.1
				L54.4,23.6l6.2,11.1l-11.1,6.2l-6.2-11.1L21,42l6.2,11.1l-11.1,6.2l6.2,11.1l11.1-6.2l6.2,11.1l-11.1,6.2l-6.2-11.1l-11.1,6.2
				l8,14.4h29.1l-2.5-4.5l11.1-6.2L62.7,91h29.1l-0.4-0.7l11.1-6.2L96.3,73z M50.6,69.2l-6.2-11.1L55.6,52l6.2,11.1L50.6,69.2z
				 M74.1,85.3l-6.2-11.1L79,68l6.2,11.1L74.1,85.3z"/>
			
				<rect x="70.2" y="70.3" transform="matrix(0.8748 -0.4845 0.4845 0.8748 -27.5673 46.6832)" class="st2" width="12.7" height="12.7"/>
			<polygon class="st2" points="62.7,91 48.1,91 45.7,86.5 56.8,80.4 			"/>
			
				<rect x="46.7" y="54.2" transform="matrix(0.8748 -0.4845 0.4845 0.8748 -22.7123 33.3166)" class="st2" width="12.7" height="12.7"/>
		</g>
	</g>
	<g>
		<g>
			<polygon class="st2" points="102.4,84.1 106.3,91 91.7,91 91.3,90.3 			"/>
			<polygon class="st2" points="120.8,91 116.2,91 119.7,89.1 			"/>
			<g>
				
					<rect x="12.2" y="44.3" transform="matrix(0.8748 -0.4845 0.4845 0.8748 -22.2338 15.3354)" class="st2" width="12.7" height="12.7"/>
			</g>
			
				<rect x="7.2" y="61.6" transform="matrix(0.8748 -0.4845 0.4845 0.8748 -31.224 15.095)" class="st2" width="12.7" height="12.7"/>
			<polygon class="st2" points="19.1,91 4.6,91 0,82.7 11.1,76.6 			"/>
		</g>
	</g>
</g>
</svg>
