<svg id="Lager_1" data-name="Lager 1" xmlns="http://www.w3.org/2000/svg" viewBox="0 0 446.45 595.28"><defs><style>.cls-1{fill:#558730;}.cls-2{fill:#185025;}.cls-3{fill:#b0486c;}.cls-4{fill:#eb5d8f;}</style></defs><title>Smultron</title><rect class="cls-1" x="99.2" y="148.82" width="49.61" height="49.61"/><rect class="cls-1" x="198.41" y="148.82" width="49.61" height="49.61"/><rect class="cls-1" x="297.63" y="148.82" width="49.61" height="49.61"/><rect class="cls-2" x="49.61" y="148.82" width="49.59" height="49.61"/><rect class="cls-2" x="99.2" y="198.43" width="49.61" height="49.61"/><rect class="cls-2" x="198.41" y="198.43" width="49.61" height="49.61"/><rect class="cls-2" x="297.63" y="198.43" width="49.61" height="49.61"/><polygon class="cls-2" points="347.24 99.22 347.24 148.82 297.63 148.82 297.63 198.43 248.02 198.43 248.02 148.82 198.41 148.82 198.41 198.43 148.81 198.43 148.81 148.82 99.2 148.82 99.2 99.22 198.41 99.22 198.41 0 248.02 0 248.02 99.22 347.24 99.22"/><rect class="cls-2" x="347.24" y="148.82" width="49.61" height="49.61"/><polygon class="cls-3" points="99.2 297.65 99.2 347.25 49.61 347.25 49.61 446.47 0 446.47 0 198.43 49.61 198.43 49.61 297.65 99.2 297.65"/><rect class="cls-3" x="148.81" y="446.47" width="49.61" height="49.61"/><rect class="cls-4" x="347.24" y="198.43" width="49.61" height="49.61"/><path class="cls-4" d="M396.84,347.25v-49.6h-49.6V248H297.63V198.43H248V248H198.41V198.43h-49.6V248H99.2V198.43H49.61v99.22H99.2v49.6H49.61v99.22H99.2v49.61h49.61V446.47h49.6v49.61h-49.6v49.6H297.63v-49.6h49.61V446.47h49.6V396.86h-49.6V347.25ZM198.41,396.86h-49.6V347.25h49.6Zm99.22,49.61H248V396.86h49.61Zm0-99.22H248v-49.6h49.61Z"/><rect class="cls-3" x="248.02" y="297.65" width="49.61" height="49.61"/><rect class="cls-3" x="248.02" y="396.86" width="49.61" height="49.61"/><rect class="cls-3" x="148.81" y="347.25" width="49.61" height="49.61"/><polygon class="cls-3" points="446.45 198.43 446.45 446.47 396.85 446.47 396.85 396.86 347.24 396.86 347.24 347.25 396.85 347.25 396.85 297.65 347.24 297.65 347.24 248.04 396.85 248.04 396.85 198.43 446.45 198.43"/><rect class="cls-3" x="49.61" y="446.47" width="49.59" height="49.61"/><rect class="cls-3" x="99.2" y="496.08" width="49.61" height="49.61"/><rect class="cls-3" x="148.81" y="545.68" width="148.82" height="49.59"/><rect class="cls-3" x="297.63" y="496.08" width="49.61" height="49.61"/><rect class="cls-3" x="347.24" y="446.47" width="49.61" height="49.61"/></svg>