<svg id="Lager_1" data-name="Lager 1" xmlns="http://www.w3.org/2000/svg" viewBox="0 0 595.88 595.28"><defs><style>.cls-1{fill:#1d1d1b;}</style></defs><title>Telefon</title><rect class="cls-1" x="397.27" y="214.32" width="66.18" height="95.24"/><rect class="cls-1" x="331.03" y="119.02" width="66.24" height="95.3"/><polygon class="cls-1" points="529.7 452.42 529.7 547.66 463.46 547.66 463.46 595.28 264.85 595.28 264.85 547.66 198.61 547.66 198.61 500.04 132.43 500.04 132.43 404.8 66.18 404.8 66.18 309.8 0 309.8 0 71.7 66.18 71.7 66.18 24.02 198.61 24.02 198.61 71.82 264.85 71.82 264.85 214.44 198.61 214.44 198.61 357.18 264.85 357.18 264.85 404.8 463.46 404.8 463.46 452.42 529.7 452.42"/><rect class="cls-1" x="463.46" y="95.24" width="66.24" height="95.24"/><rect class="cls-1" x="397.27" y="47.62" width="66.18" height="47.62"/><rect class="cls-1" x="331.03" width="66.24" height="47.62"/><rect class="cls-1" x="529.7" y="190.48" width="66.18" height="142.86"/></svg>