<?xml version="1.0"?>
<!DOCTYPE svg PUBLIC "-//W3C//DTD SVG 1.1//EN" "http://www.w3.org/Graphics/SVG/1.1/DTD/svg11.dtd">
<svg xmlns="http://www.w3.org/2000/svg" xmlns:xlink="http://www.w3.org/1999/xlink" height="1.04167in" style="shape-rendering:geometricPrecision; text-rendering:geometricPrecision; image-rendering:optimizeQuality; fill-rule:evenodd; clip-rule:evenodd" version="1.1" viewBox="0 0 5067 5067" width="1.04167in" xml:space="preserve"><defs><style type="text/css">
   <![CDATA[
    .fil0 {fill:black}
    .fil2 {fill:white}
    .fil1 {fill:white;fill-rule:nonzero}
   ]]>
  </style></defs><g id="Layer_x0020_1"><g id="_541893080"><rect class="fil0" height="5067" rx="489" ry="489" width="5067" style="fill: black;"/><g><path class="fil1" d="M1327 885l2018 0c141,0 269,58 361,150 93,93 150,221 150,361l0 1457c0,141 -57,268 -150,361 -92,93 -220,150 -361,150l-1584 0 -724 737c64,-258 143,-487 226,-741 -115,-15 -219,-68 -297,-146 -93,-93 -150,-220 -150,-361l0 -1457c0,-140 57,-268 150,-361 92,-92 220,-150 361,-150zm2018 135l-2018 0c-104,0 -197,43 -266,111 -68,68 -110,162 -110,265l0 1457c0,103 42,197 110,265 69,69 162,111 266,111l27 0 90 0 -26 87c-11,37 -57,177 -102,312l369 -379 20 -20 28 0 1612 0c104,0 198,-42 266,-111 68,-68 110,-162 110,-265l0 -1457c0,-103 -42,-197 -110,-265 -68,-68 -162,-111 -266,-111z" style="fill: white; fill-rule: nonzero;"/><path class="fil2" d="M1655 1452l310 0c91,0 149,75 129,166l0 0c-19,91 -110,166 -201,166l-310 0 72 -332z" style="fill: white;"/><path class="fil2" d="M1565 1938l309 0c91,0 149,74 130,165l0 0c-20,92 -111,166 -202,166l-310 0 73 -331z" style="fill: white;"/><path class="fil2" d="M2291 1452l309 0c91,0 150,75 130,166l0 0c-20,91 -111,166 -202,166l-309 0 72 -332z" style="fill: white;"/><path class="fil2" d="M2200 1938l309 0c92,0 150,74 130,165l0 0c-20,92 -111,166 -202,166l-309 0 72 -331z" style="fill: white;"/><path class="fil2" d="M2872 1748l309 0c91,0 149,74 130,165l0 0c-20,92 -111,166 -202,166l-310 0 73 -331z" style="fill: white;"/><path class="fil2" d="M2781 2233l309 0c91,0 150,75 130,166l0 0c-20,91 -111,166 -202,166l-309 0 72 -332z" style="fill: white;"/><path class="fil2" d="M2118 2419l309 0c91,0 150,75 130,166l0 0c-20,91 -111,166 -202,166l-309 0 72 -332z" style="fill: white;"/><path class="fil2" d="M3819 1091l10 0c233,0 423,190 423,422l0 1715c0,232 -190,422 -423,422l-13 0 225 735 -719 -735 -1224 0c-165,0 -308,-96 -378,-235 17,2 34,2 51,2l1586 0c301,0 548,-246 548,-547l0 -1486c0,-107 -32,-208 -86,-293z" style="fill: white;"/></g></g></g>
	<metadata>
		<rdf:RDF xmlns:rdf="http://www.w3.org/1999/02/22-rdf-syntax-ns#" xmlns:rdfs="http://www.w3.org/2000/01/rdf-schema#" xmlns:dc="http://purl.org/dc/elements/1.1/">
			<rdf:Description about="https://iconscout.com/legal#licenses" dc:title="1783345,bbm,blackberry,chatting,internet,messages,social media" dc:description="1783345,bbm,blackberry,chatting,internet,messages,social media" dc:publisher="Iconscout" dc:date="2017-02-24" dc:format="image/svg+xml" dc:language="en">
				<dc:creator>
					<rdf:Bag>
						<rdf:li>Iconscout Store</rdf:li>
					</rdf:Bag>
				</dc:creator>
			</rdf:Description>
		</rdf:RDF>
    </metadata></svg>
