<?xml version="1.0"?>
<!DOCTYPE svg PUBLIC "-//W3C//DTD SVG 1.1//EN" "http://www.w3.org/Graphics/SVG/1.1/DTD/svg11.dtd">
<svg xmlns="http://www.w3.org/2000/svg" xmlns:xlink="http://www.w3.org/1999/xlink" height="1.04167in" style="shape-rendering:geometricPrecision; text-rendering:geometricPrecision; image-rendering:optimizeQuality; fill-rule:evenodd; clip-rule:evenodd" version="1.1" viewBox="0 0 134 134" width="1.04167in" xml:space="preserve"><defs><style type="text/css">
   <![CDATA[
    .fil0 {fill:#F58220}
    .fil1 {fill:white;fill-rule:nonzero}
   ]]>
  </style></defs><g id="Layer_x0020_1"><g id="_521249848"><rect class="fil0" height="134" rx="13" ry="13" width="134" style="fill: #F58220;"/><g><path class="fil1" d="M38 85c6,0 11,5 11,10 0,6 -5,11 -11,11 -5,0 -10,-5 -10,-11 0,-5 5,-10 10,-10z" style="fill: white; fill-rule: nonzero;"/><path class="fil1" d="M28 69c10,0 19,4 26,11 6,7 10,16 10,26l15 0c0,-29 -23,-52 -51,-52l0 15z" style="fill: white; fill-rule: nonzero;"/><path class="fil1" d="M28 43c35,0 63,28 63,63l15 0c0,-43 -35,-78 -78,-78l0 15z" style="fill: white; fill-rule: nonzero;"/></g></g></g>
	<metadata>
		<rdf:RDF xmlns:rdf="http://www.w3.org/1999/02/22-rdf-syntax-ns#" xmlns:rdfs="http://www.w3.org/2000/01/rdf-schema#" xmlns:dc="http://purl.org/dc/elements/1.1/">
			<rdf:Description about="https://iconscout.com/legal#licenses" dc:title="1783367,feed,internet,social media" dc:description="1783367,feed,internet,social media" dc:publisher="Iconscout" dc:date="2017-02-24" dc:format="image/svg+xml" dc:language="en">
				<dc:creator>
					<rdf:Bag>
						<rdf:li>Iconscout Store</rdf:li>
					</rdf:Bag>
				</dc:creator>
			</rdf:Description>
		</rdf:RDF>
    </metadata></svg>
