<?xml version="1.0"?>
<!DOCTYPE svg PUBLIC "-//W3C//DTD SVG 1.1//EN" "http://www.w3.org/Graphics/SVG/1.1/DTD/svg11.dtd">
<svg xmlns="http://www.w3.org/2000/svg" xmlns:xlink="http://www.w3.org/1999/xlink" height="1.04167in" style="shape-rendering:geometricPrecision; text-rendering:geometricPrecision; image-rendering:optimizeQuality; fill-rule:evenodd; clip-rule:evenodd" version="1.1" viewBox="0 0 201 201" width="1.04167in" xml:space="preserve"><defs><style type="text/css">
   <![CDATA[
    .fil1 {fill:#FEFEFE}
    .fil0 {fill:#EB5FA2}
   ]]>
  </style></defs><g id="Layer_x0020_1"><g id="_541882136"><rect class="fil0" height="201" rx="19" ry="19" width="201" style="fill: #EB5FA2;"/><path class="fil1" d="M41 96c7,-2 14,-3 22,-5 -8,2 -15,3 -22,5zm24 -23c-14,0 -26,10 -28,24l0 0c0,1 0,2 0,4 0,15 13,27 28,27 16,0 28,-12 28,-27 0,-5 0,-8 -2,-12 -5,-10 -14,-16 -26,-16z" style="fill: #FEFEFE;"/><path class="fil1" d="M164 98c-1,-14 -13,-25 -28,-25 -12,0 -21,7 -26,16 -1,4 -2,8 -2,12 0,15 12,27 28,27 15,0 28,-12 28,-27 0,-1 0,-2 0,-3z" style="fill: #FEFEFE;"/></g></g>
	<metadata>
		<rdf:RDF xmlns:rdf="http://www.w3.org/1999/02/22-rdf-syntax-ns#" xmlns:rdfs="http://www.w3.org/2000/01/rdf-schema#" xmlns:dc="http://purl.org/dc/elements/1.1/">
			<rdf:Description about="https://iconscout.com/legal#licenses" dc:title="1783365,flikr,internet,social media" dc:description="1783365,flikr,internet,social media" dc:publisher="Iconscout" dc:date="2017-02-24" dc:format="image/svg+xml" dc:language="en">
				<dc:creator>
					<rdf:Bag>
						<rdf:li>Iconscout Store</rdf:li>
					</rdf:Bag>
				</dc:creator>
			</rdf:Description>
		</rdf:RDF>
    </metadata></svg>
