<?xml version="1.0"?>
<!DOCTYPE svg PUBLIC "-//W3C//DTD SVG 1.1//EN" "http://www.w3.org/Graphics/SVG/1.1/DTD/svg11.dtd">
<svg xmlns="http://www.w3.org/2000/svg" xmlns:xlink="http://www.w3.org/1999/xlink" height="1.04167in" style="shape-rendering:geometricPrecision; text-rendering:geometricPrecision; image-rendering:optimizeQuality; fill-rule:evenodd; clip-rule:evenodd" version="1.1" viewBox="0 0 341 341" width="1.04167in" xml:space="preserve"><defs><style type="text/css">
   <![CDATA[
    .fil1 {fill:#FEFEFE}
    .fil0 {fill:#40C6EE}
   ]]>
  </style></defs><g id="Layer_x0020_1"><g id="_541901984"><rect class="fil0" height="341" rx="33" ry="33" width="341" style="fill: #40C6EE;"/><path class="fil1" d="M237 231c-6,9 -15,15 -26,20 -11,4 -25,6 -40,6 -18,0 -33,-3 -45,-9 -9,-4 -16,-11 -21,-18 -5,-8 -8,-15 -8,-23 0,-4 2,-8 5,-12 4,-3 8,-4 14,-4 4,0 8,1 11,3 3,3 5,6 7,11 2,5 5,10 7,13 3,3 6,6 11,8 5,2 11,3 18,3 11,0 19,-2 26,-6 6,-5 9,-10 9,-16 0,-5 -1,-9 -5,-12 -3,-3 -8,-5 -13,-7 -6,-2 -14,-4 -23,-6 -14,-3 -25,-6 -34,-10 -9,-3 -16,-9 -21,-15 -2,-2 -4,-5 -5,-7 -2,-6 -4,-12 -4,-18 0,-10 3,-18 9,-26 6,-7 14,-13 25,-16 10,-4 23,-6 37,-6 11,0 21,1 29,4 9,2 16,6 21,10 6,4 10,9 13,14 2,4 4,9 4,14 0,4 -2,8 -6,12 -3,3 -7,5 -13,5 -4,0 -8,-1 -11,-3 -2,-2 -4,-5 -7,-10 -3,-6 -7,-11 -11,-14 -5,-3 -12,-5 -22,-5 -9,0 -16,2 -22,6 -5,3 -7,7 -7,12 0,2 0,5 2,7 2,2 4,4 8,6 3,1 6,2 10,3 1,1 1,1 2,1 4,1 9,2 15,4 11,2 20,4 28,7 9,3 16,6 22,10 6,4 11,9 14,15 4,6 6,13 6,22 0,10 -3,19 -9,27zm58 -33c2,-8 3,-17 3,-26 0,-4 0,-7 0,-10 -5,-64 -60,-115 -126,-115 -8,0 -15,0 -22,2 -11,-7 -25,-12 -39,-12 -41,0 -74,33 -74,73 0,13 4,26 11,37 -1,4 -2,9 -2,13 -1,4 -1,8 -1,12 0,69 57,125 127,125 8,0 15,-1 23,-3 10,6 22,9 35,9 40,0 73,-32 73,-72 0,-12 -3,-23 -8,-33z" style="fill: #FEFEFE;"/></g></g>
	<metadata>
		<rdf:RDF xmlns:rdf="http://www.w3.org/1999/02/22-rdf-syntax-ns#" xmlns:rdfs="http://www.w3.org/2000/01/rdf-schema#" xmlns:dc="http://purl.org/dc/elements/1.1/">
			<rdf:Description about="https://iconscout.com/legal#licenses" dc:title="1783359,chatting,internet,skype,social media" dc:description="1783359,chatting,internet,skype,social media" dc:publisher="Iconscout" dc:date="2017-02-24" dc:format="image/svg+xml" dc:language="en">
				<dc:creator>
					<rdf:Bag>
						<rdf:li>Iconscout Store</rdf:li>
					</rdf:Bag>
				</dc:creator>
			</rdf:Description>
		</rdf:RDF>
    </metadata></svg>
