<?xml version="1.0"?>
<!DOCTYPE svg PUBLIC "-//W3C//DTD SVG 1.1//EN" "http://www.w3.org/Graphics/SVG/1.1/DTD/svg11.dtd">
<svg xmlns="http://www.w3.org/2000/svg" xmlns:xlink="http://www.w3.org/1999/xlink" height="1.04167in" style="shape-rendering:geometricPrecision; text-rendering:geometricPrecision; image-rendering:optimizeQuality; fill-rule:evenodd; clip-rule:evenodd" version="1.1" viewBox="0 0 341 341" width="1.04167in" xml:space="preserve"><defs><style type="text/css">
   <![CDATA[
    .fil1 {fill:#FEFEFE}
    .fil0 {fill:#FBC445}
   ]]>
  </style></defs><g id="Layer_x0020_1"><g id="_541886000"><rect class="fil0" height="341" rx="33" ry="33" width="341" style="fill: #FBC445;"/><path class="fil1" d="M293 232l0 0c0,0 0,0 0,-1 0,0 0,0 0,0l0 0c-3,-1 -6,-2 -8,-2 0,0 0,0 0,0 -13,-5 -25,-13 -33,-24 -5,-6 -9,-13 -11,-20 0,0 0,0 0,0 -1,-3 -1,-6 0,-8 0,0 0,0 0,0 3,-4 7,-6 12,-7 0,0 0,0 0,0 5,-2 10,-4 15,-8 0,0 0,0 0,0 1,-1 1,-2 2,-3 0,0 0,-1 0,-1 1,-1 1,-3 0,-4 0,0 0,0 0,0 -1,-3 -3,-4 -5,-5l0 0c-3,-2 -6,-2 -9,-1 0,0 0,0 0,0 0,0 0,0 0,0 -3,1 -6,2 -8,2 0,0 -1,0 -1,0 -3,1 -6,1 -9,0 0,0 0,-1 0,-2l0 0c0,-5 0,-11 1,-17 0,0 0,0 0,0 0,-9 0,-18 -1,-28 0,0 0,0 0,0 -3,-15 -13,-29 -26,-38 -9,-6 -20,-10 -32,-11 0,0 0,0 0,0 -3,-1 -7,-1 -11,-1 -15,0 -31,4 -43,14 -9,7 -16,17 -21,27 0,0 0,1 0,1 -4,10 -4,22 -3,33l0 0c0,8 1,15 0,22 0,0 0,0 0,0 -3,1 -7,1 -11,0 0,0 0,0 0,0 -2,0 -5,-1 -8,-2 0,0 0,0 0,0 -3,-1 -6,0 -8,2 0,0 0,0 0,0 -1,0 -1,0 -1,0 -1,1 -4,3 -4,6 0,1 0,1 0,1 0,0 0,0 0,0 0,2 2,4 3,5 1,1 2,1 3,2 0,0 0,0 0,0 5,4 11,5 17,7 0,0 0,0 0,0 3,2 7,4 7,7 1,4 0,9 -3,13l0 0c-6,12 -15,23 -25,30 -6,4 -13,7 -19,9 0,0 -1,0 -1,0 -1,0 -4,1 -6,4 -1,0 -1,0 -1,0 0,2 0,5 1,6 1,1 2,2 3,2 0,0 0,0 0,0 6,3 12,5 18,6 0,0 0,0 0,0 4,1 8,2 11,3 0,0 0,1 1,3 1,3 2,7 3,11 0,1 1,1 2,2 3,0 4,-1 4,-1 0,0 0,0 1,0 9,-1 19,-3 27,-1 0,0 0,0 0,0 9,3 17,9 26,14 0,0 0,0 0,0l0 0c6,4 13,8 21,8l0 0c0,0 0,0 0,0 6,0 12,0 18,0 0,0 0,0 0,0 5,-1 9,-3 13,-5 1,0 1,0 1,0 9,-6 17,-12 26,-16 0,0 0,0 1,0 2,-1 6,-1 10,-1 0,0 0,0 0,0 8,-1 16,0 23,1 0,0 1,0 1,0 1,0 2,-1 2,-2 1,0 1,-1 1,-1 0,-1 1,-1 0,-1 0,0 0,0 1,0 1,-5 2,-9 4,-11 1,-1 3,-2 5,-2 0,0 0,0 0,0 7,-1 12,-3 18,-5 0,0 0,0 0,0 2,-1 5,-2 8,-5 0,0 0,0 0,0l0 0c1,-2 1,-6 -2,-7z" style="fill: #FEFEFE;"/></g></g>
	<metadata>
		<rdf:RDF xmlns:rdf="http://www.w3.org/1999/02/22-rdf-syntax-ns#" xmlns:rdfs="http://www.w3.org/2000/01/rdf-schema#" xmlns:dc="http://purl.org/dc/elements/1.1/">
			<rdf:Description about="https://iconscout.com/legal#licenses" dc:title="1783357,chatting,internet,messages,snapchat,social media" dc:description="1783357,chatting,internet,messages,snapchat,social media" dc:publisher="Iconscout" dc:date="2017-02-24" dc:format="image/svg+xml" dc:language="en">
				<dc:creator>
					<rdf:Bag>
						<rdf:li>Iconscout Store</rdf:li>
					</rdf:Bag>
				</dc:creator>
			</rdf:Description>
		</rdf:RDF>
    </metadata></svg>
