<?xml version="1.0"?>
<!DOCTYPE svg PUBLIC "-//W3C//DTD SVG 1.1//EN" "http://www.w3.org/Graphics/SVG/1.1/DTD/svg11.dtd">
<svg xmlns="http://www.w3.org/2000/svg" xmlns:xlink="http://www.w3.org/1999/xlink" height="1.04167in" style="shape-rendering:geometricPrecision; text-rendering:geometricPrecision; image-rendering:optimizeQuality; fill-rule:evenodd; clip-rule:evenodd" version="1.1" viewBox="0 0 201 201" width="1.04167in" xml:space="preserve"><defs><style type="text/css">
   <![CDATA[
    .fil0 {fill:#F58220}
    .fil1 {fill:white;fill-rule:nonzero}
   ]]>
  </style></defs><g id="Layer_x0020_1"><g id="_521256616"><rect class="fil0" height="201" rx="19" ry="19" width="201" style="fill: #F58220;"/><g><path class="fil1" d="M25 133c0,0 1,0 1,0l1 -15 -1 -15c0,-1 -1,-1 -1,-1 0,0 -1,0 -1,1l-1 15 1 15c0,0 1,0 1,0z" style="fill: white; fill-rule: nonzero;"/><path class="fil1" d="M19 128c0,0 0,0 0,-1l2 -9 -2 -10c0,0 0,0 0,0 -1,0 -1,0 -1,0l-1 10 1 9c0,1 0,1 1,1z" style="fill: white; fill-rule: nonzero;"/><path class="fil1" d="M32 100c0,-1 0,-1 -1,-1 0,0 0,0 0,1l-2 18 2 17c0,1 0,1 0,1 1,0 1,0 1,-1l2 -17 -2 -18z" style="fill: white; fill-rule: nonzero;"/><path class="fil1" d="M38 137c1,0 1,-1 1,-1l2 -18 -2 -19c0,0 0,-1 -1,-1 0,0 -1,1 -1,1l-1 19 1 18c0,0 1,1 1,1z" style="fill: white; fill-rule: nonzero;"/><path class="fil1" d="M45 137c0,0 1,0 1,-1l0 0 2 -18 -2 -17c0,-1 -1,-1 -1,-1 -1,0 -1,0 -1,1l-2 17 2 18c0,1 0,1 1,1z" style="fill: white; fill-rule: nonzero;"/><path class="fil1" d="M54 118l-1 -28c0,-1 -1,-1 -1,-1 -1,0 -2,0 -2,1l-1 28 1 18c0,1 1,1 2,1 0,0 1,0 1,-1l0 0 1 -18z" style="fill: white; fill-rule: nonzero;"/><path class="fil1" d="M58 137c1,0 2,0 2,-1l0 0 1 -18 -1 -35c0,0 -1,-1 -2,-1 0,0 -1,1 -1,1l-1 35 1 18c0,1 1,1 1,1z" style="fill: white; fill-rule: nonzero;"/><path class="fil1" d="M65 79c-1,0 -1,1 -1,2l-1 37 1 18c0,1 0,1 1,1 1,0 2,0 2,-1l0 0 1 -18 -1 -37c0,-1 -1,-2 -2,-2z" style="fill: white; fill-rule: nonzero;"/><path class="fil1" d="M72 137c1,0 2,0 2,-1l0 0 1 -18 -1 -39c0,-1 -1,-1 -2,-1 -1,0 -2,0 -2,1l-1 39 1 18c0,1 1,1 2,1z" style="fill: white; fill-rule: nonzero;"/><path class="fil1" d="M79 137c1,0 2,-1 2,-2l0 0 1 -17 -1 -38c0,-1 -1,-2 -2,-2 -1,0 -2,1 -2,2l-1 38 1 17c0,1 1,2 2,2z" style="fill: white; fill-rule: nonzero;"/><path class="fil1" d="M89 118l-1 -36c0,-1 -1,-2 -2,-2 -1,0 -2,1 -2,2l-1 36 1 17c0,1 1,2 2,2 1,0 2,-1 2,-2l0 0 1 -17z" style="fill: white; fill-rule: nonzero;"/><path class="fil1" d="M93 137c1,0 2,-1 2,-2l0 0 1 -17 -1 -43c0,-1 -1,-2 -2,-2 -1,0 -2,1 -2,2l-1 43 1 17c0,1 1,2 2,2z" style="fill: white; fill-rule: nonzero;"/><path class="fil1" d="M100 69c-1,0 -2,1 -2,2l-1 47 1 17c0,1 1,2 2,2 1,0 2,-1 2,-2l0 0 1 -17 -1 -47c0,-1 -1,-2 -2,-2z" style="fill: white; fill-rule: nonzero;"/><path class="fil1" d="M107 137c0,0 56,0 57,0 11,0 20,-9 20,-20 0,-12 -9,-21 -20,-21 -3,0 -6,0 -8,1 -2,-18 -17,-33 -36,-33 -5,0 -10,1 -14,2 -1,1 -2,1 -2,3l0 66c0,1 1,2 3,2z" style="fill: white; fill-rule: nonzero;"/></g></g></g>
	<metadata>
		<rdf:RDF xmlns:rdf="http://www.w3.org/1999/02/22-rdf-syntax-ns#" xmlns:rdfs="http://www.w3.org/2000/01/rdf-schema#" xmlns:dc="http://purl.org/dc/elements/1.1/">
			<rdf:Description about="https://iconscout.com/legal#licenses" dc:title="1783352,chatting,cloud,internet,messages,social media,sound" dc:description="1783352,chatting,cloud,internet,messages,social media,sound" dc:publisher="Iconscout" dc:date="2017-02-24" dc:format="image/svg+xml" dc:language="en">
				<dc:creator>
					<rdf:Bag>
						<rdf:li>Iconscout Store</rdf:li>
					</rdf:Bag>
				</dc:creator>
			</rdf:Description>
		</rdf:RDF>
    </metadata></svg>
