<?xml version="1.0"?>
<!DOCTYPE svg PUBLIC "-//W3C//DTD SVG 1.1//EN" "http://www.w3.org/Graphics/SVG/1.1/DTD/svg11.dtd">
<svg xmlns="http://www.w3.org/2000/svg" xmlns:xlink="http://www.w3.org/1999/xlink" height="1.04167in" style="shape-rendering:geometricPrecision; text-rendering:geometricPrecision; image-rendering:optimizeQuality; fill-rule:evenodd; clip-rule:evenodd" version="1.1" viewBox="0 0 79 79" width="1.04167in" xml:space="preserve"><defs><style type="text/css">
   <![CDATA[
    .fil1 {fill:#FEFEFE}
    .fil0 {fill:#999999}
   ]]>
  </style></defs><g id="Layer_x0020_1"><g id="_521263936"><rect class="fil0" height="79.2466" rx="8" ry="8" width="79.2466" style="fill: #999999;"/><g><path class="fil1" d="M58 45l1 -5c0,-4 -1,-7 -3,-10l-2 -4c-1,-4 1,-7 5,-7 -13,-12 -34,-9 -43,5l1 0c3,0 5,0 8,0l2 1 -2 1 -2 0 0 1c3,9 6,18 9,27l1 3 0 0c2,-6 4,-12 6,-18l0 -1c-2,-4 -3,-7 -4,-11l-1 -1 -3 0 -1 -2 2 0c3,0 6,0 9,0l5 0 2 1 -1 1 -2 0 -1 1c2,8 5,16 8,24l2 6 0 -1c1,-4 2,-8 4,-11z" style="fill: #FEFEFE;"/><path class="fil1" d="M43 49c-1,-2 -2,-5 -3,-7 -3,8 -5,16 -8,24l0 1c6,1 11,1 16,0l1 -1c-2,-6 -4,-11 -6,-17z" style="fill: #FEFEFE;"/><path class="fil1" d="M27 65c-4,-12 -9,-24 -13,-37 -6,13 -1,30 13,37z" style="fill: #FEFEFE;"/><path class="fil1" d="M68 38c0,-4 -1,-8 -3,-11l0 0c0,4 -1,7 -2,11 -3,7 -5,14 -8,22l-1 4 6 -5c6,-6 8,-13 8,-21z" style="fill: #FEFEFE;"/></g></g></g>
	<metadata>
		<rdf:RDF xmlns:rdf="http://www.w3.org/1999/02/22-rdf-syntax-ns#" xmlns:rdfs="http://www.w3.org/2000/01/rdf-schema#" xmlns:dc="http://purl.org/dc/elements/1.1/">
			<rdf:Description about="https://iconscout.com/legal#licenses" dc:title="1783349,internet,messages,social media,wordpress" dc:description="1783349,internet,messages,social media,wordpress" dc:publisher="Iconscout" dc:date="2017-02-24" dc:format="image/svg+xml" dc:language="en">
				<dc:creator>
					<rdf:Bag>
						<rdf:li>Iconscout Store</rdf:li>
					</rdf:Bag>
				</dc:creator>
			</rdf:Description>
		</rdf:RDF>
    </metadata></svg>
